<svg width="21" height="101" viewBox="0 0 21 101" fill="none" xmlns="http://www.w3.org/2000/svg">
<path d="M19.6161 2.201C21.3534 4.26788 19.4891 5.68374 19.1835 7.5828C18.8307 9.79703 18.8173 12.3667 18.874 14.9699C18.9253 17.2905 19.034 19.6222 19.0015 21.672C18.9497 24.9258 18.8075 28.2614 18.69 31.4967C18.6842 31.6624 18.492 31.7606 18.4892 31.836C18.4628 32.5499 18.6299 33.7375 18.6007 34.4448C18.5397 35.9269 18.5549 38.5077 18.3674 39.8652C18.288 40.4403 18.2528 41.0331 17.7953 41.2553C17.7709 41.467 18.1824 41.5832 18.2045 41.6385C18.2041 41.6391 18.2036 41.6397 18.2032 41.6403C18.2718 41.8175 17.9801 42.2628 17.9976 42.3617C18.0003 42.3765 18.2994 42.2873 18.2078 42.5264C18.1999 42.5477 17.997 42.5267 17.9929 42.7286C17.9919 42.7809 18.2992 43.4587 18.317 43.6518C18.3751 44.2923 18.1215 45.8255 18.1209 46.5921C18.1202 46.7094 18.2385 46.7778 18.2398 46.9017C18.2407 46.9657 18.1112 47.0609 18.1118 47.0806C18.1158 47.1669 18.6988 47.5477 17.5446 47.4051C17.6153 47.7993 17.9979 47.6857 18.2459 47.6962C18.279 48.1236 17.7337 48.3267 18.3095 48.442C18.2267 50.5417 18.1434 52.6481 18.0595 54.7471C18.1535 54.7483 18.2475 54.7496 18.3415 54.7509C17.9618 55.37 18.5953 55.5866 18.0477 55.9361C18.1662 56.1547 18.2847 56.373 18.4032 56.5909C17.994 62.1941 18.3906 67.7928 18.3346 73.3518C18.3323 73.5858 18.1317 73.6429 18.1265 74.0239C18.1208 74.445 18.3469 75.0671 18.3382 75.6177C18.331 76.1017 18.1335 76.8533 18.0977 77.3849C18.096 77.4116 18.1008 77.4367 18.1092 77.4597C18.1391 77.5462 18.2154 77.6055 18.2147 77.6167C18.2088 77.7009 18.0082 77.7028 18.0016 77.784C17.9941 77.8811 18.1413 77.9996 18.1308 78.1103C18.0928 78.5262 18.1387 78.9584 18.1345 79.0157C18.1124 79.2739 17.9155 79.3267 17.9131 79.3479C17.8856 79.6307 18.0639 79.5264 18.0528 79.5966C17.9938 79.9647 17.5491 80.1833 17.9663 80.7063C17.8025 80.6904 17.6387 80.6745 17.4749 80.6585C17.3775 81.0417 17.8166 80.7936 17.8944 80.8732C17.9232 80.9109 17.8589 81.7097 17.8501 81.7771C17.8187 82.002 17.6007 82.0038 17.5975 82.0233C17.5898 82.0716 17.8289 82.6299 17.6345 82.8996C17.4039 83.2361 16.9669 82.8268 16.8823 82.9113C16.8681 82.9239 16.9079 83.2856 16.7684 83.3298C16.6183 83.3804 16.6263 83.0722 16.5636 83.0754C16.5206 83.0798 16.2049 83.5835 15.9993 83.4823C15.7929 83.4032 16.07 82.7112 15.9743 82.5751C15.9585 82.5513 15.7014 82.5918 15.6923 82.5708C15.6593 82.4893 15.674 80.9155 15.7169 80.8444C15.8326 80.9284 15.9482 81.0119 16.0639 81.0951C16.0772 80.9868 16.0905 80.8778 16.1038 80.7679C16.1952 80.9256 16.2867 81.0817 16.3781 81.2361C17.3427 81.0266 16.3776 80.3003 15.898 80.2716C15.6763 80.2513 15.0996 80.6762 14.7724 80.2733C14.7147 80.3289 14.6569 80.3925 14.5991 80.4524C14.691 80.5801 14.7829 80.7067 14.8748 80.8322C14.9349 80.7502 14.995 80.6678 15.0551 80.5849C15.1214 80.6166 15.1877 80.6482 15.2541 80.6798C15.3579 80.9153 15.4618 81.147 15.5656 81.3752C15.5146 81.4908 15.318 81.4639 15.2788 81.5428C14.7844 82.5616 15.4044 81.9062 15.3066 82.5673C15.1994 82.6594 15.0922 82.7508 14.985 82.8415C15.4231 82.8096 15.1438 83.1127 15.3268 83.4732C15.1859 83.4282 15.045 83.3831 14.9041 83.3379C14.9716 83.8505 14.2397 84.8948 15.0258 84.6233C14.957 84.7407 14.8882 84.8568 14.8195 84.9715C14.9455 85.072 15.0715 85.1691 15.1974 85.2771C15.1802 85.4193 15.1629 85.5594 15.1457 85.6976C15.0765 85.6969 15.0074 85.6963 14.9382 85.6956C14.9398 85.5852 14.9415 85.4736 14.9431 85.3608C14.7309 85.4416 14.5186 85.5217 14.3063 85.601C14.3398 85.6835 14.3732 85.7653 14.4067 85.8464C14.6124 85.5109 14.9295 85.9653 15.2057 86.0755C15.303 86.3621 14.9379 86.5512 14.9197 86.6453C14.9111 86.6933 15.5372 87.2304 14.8414 87.0106C14.9208 87.2829 14.9994 87.5774 15.0784 87.8468C15.0223 87.9504 14.9661 88.0558 14.9098 88.1673C14.5893 87.9197 14.1801 88.6048 14.0569 88.0902C13.9641 87.7143 14.2708 87.6366 14.2727 87.4565C14.2746 87.297 14.0713 87.1971 14.0657 87.029C14.0325 85.8508 14.0866 84.9279 14.1957 83.8128C14.2175 83.599 14.12 83.3984 14.1364 83.2501C14.1552 83.0823 14.4095 83.2974 14.3502 83.0814C14.2875 82.8509 14.0779 82.8061 14.0745 82.7482C14.0727 82.7127 14.2635 82.6029 14.2651 82.4979C14.2715 82.0677 14.0979 81.4096 14.0997 81.3573C14.1028 81.2988 14.2903 80.0432 14.3218 79.9997C14.3391 79.9689 15.0367 80.0429 14.2956 79.7641C14.2828 79.6798 14.2701 79.595 14.2573 79.5097C14.3967 79.5253 14.5361 79.5408 14.6754 79.5563C14.1528 79.0469 14.4467 79.2106 14.411 78.7343C14.3821 78.3546 14.3784 77.9054 14.3849 77.417C14.3972 76.4984 14.4495 75.4471 14.4254 74.6069C14.417 74.3217 14.2511 74.205 14.2424 73.8788C14.2349 73.5748 14.7415 72.7639 14.0491 72.9342C14.654 72.2349 13.6236 72.1304 14.27 71.7896C14.1769 71.7471 14.0837 71.7045 13.9905 71.6619C14.3955 71.2906 14.0437 71.171 13.9989 70.7551C13.9794 70.5766 14.4047 70.7823 13.9323 70.4265C13.9683 70.3596 14.0044 70.2925 14.0404 70.2254C14.1436 70.242 14.2468 70.2586 14.35 70.2752C14.269 69.8821 14.3231 69.856 13.9359 69.8978C14.008 69.708 14.0801 69.5172 14.1522 69.3255C14.0255 69.3005 13.8987 69.2755 13.772 69.2504C13.5296 69.3391 13.8541 73.6914 13.9636 74.2829C13.669 75.0031 14.013 76.4228 13.9382 76.9942C13.9168 77.1553 13.7642 77.2501 13.6645 77.4087C13.6243 77.4762 13.5926 77.5546 13.5816 77.6522C13.5431 77.9928 13.7989 78.4133 13.8061 78.5875C13.8319 79.1819 13.7371 81.9876 13.4053 80.07C13.2647 80.122 13.124 80.1737 12.9834 80.2252C13.4507 80.9982 13.1604 80.7224 13.1025 81.3441C13.078 81.5915 13.381 82.2516 12.7459 82.2013C12.635 81.6954 12.8452 81.1935 12.8419 80.7604C12.8415 80.7192 12.5582 80.1953 12.6403 79.9478C12.7153 79.716 13.3192 79.8873 12.6453 79.365C13.3148 78.987 12.7145 78.759 12.6516 78.6623C12.5425 78.491 12.8707 78.4762 12.911 78.3048C12.9554 78.1178 12.7392 77.9841 12.7381 77.9582C12.7375 77.8694 12.7355 77.6525 12.7383 77.3981C12.7436 76.9344 12.7671 76.331 12.8547 76.2902C12.9123 76.3456 12.9699 76.4008 13.0275 76.4559C13.125 76.1044 12.7887 76.1736 12.7496 76.08C12.7516 76.0103 12.7535 75.9405 12.7555 75.8704C12.8248 75.8989 12.8941 75.9274 12.9633 75.9559C12.953 75.5385 12.7078 75.8567 12.7204 75.2754C12.7285 74.9065 12.9981 74.5195 12.9789 74.4825C12.9733 74.4716 12.7931 74.5886 12.7706 74.4345C12.7339 74.1723 12.7426 73.7523 12.9868 73.7045C12.9535 73.5822 12.715 73.5901 12.7097 73.5738C12.6872 73.5097 12.6184 72.2565 12.6062 72.0502C12.5731 71.4516 12.6305 70.7455 12.5962 70.1013C12.5928 70.0338 12.7453 70.0782 12.741 70.0105C12.7342 69.9024 12.4991 69.3383 12.4829 69.2531C12.4432 69.0403 12.5433 68.4901 12.4744 68.4056C12.4647 68.3933 12.2564 68.571 12.1941 68.3606C12.1252 68.1267 12.4022 68.2547 12.4051 68.242C12.5043 67.7673 12.3136 67.4618 12.279 67.132C12.2679 67.0253 12.4789 66.8278 12.4183 66.6813C12.4114 66.6643 12.2177 66.6964 12.2084 66.6796C12.1088 66.4555 12.4694 66.2484 12.4935 66.1512C12.5523 65.9135 12.2863 66.041 12.2845 66.0286C12.2774 65.8697 12.3747 65.6562 12.364 65.4127C12.3165 64.3289 12.3072 63.4495 12.3336 62.3051C12.3368 62.1618 12.525 61.9925 12.5254 61.9704C12.5245 61.9024 12.3048 61.9203 12.3112 61.7233C12.3256 61.3095 12.318 60.9146 12.3252 60.5098C12.3267 60.4275 12.5304 60.3939 12.5353 60.3311C12.5495 60.121 12.0221 59.395 12.685 59.3876C12.1013 58.9621 12.6091 58.6836 12.6059 58.3485C12.5989 57.5518 12.4882 56.2908 12.5698 55.4963C12.5873 55.3283 12.7576 55.2505 12.7674 55.1569C12.7855 54.9887 12.6971 54.0283 12.7242 53.9795C12.7763 53.8815 13.5238 53.9458 12.8755 53.4355C12.8311 53.1384 13.1378 53.1754 13.1548 53.1141C13.2813 52.6363 12.5993 52.1644 13.2264 52.2562C13.0596 51.6996 12.7151 51.3363 13.3035 51.1129C13.017 51.114 12.8469 50.8509 12.9581 50.5355C13.4371 50.8621 13.7449 50.8246 13.6518 51.6053C13.6503 51.6176 13.4433 51.5928 13.4419 51.605C13.4271 51.7165 13.5302 51.9497 13.5177 52.1394C13.5052 52.3292 13.3643 52.2229 13.3665 52.2988C13.3688 52.3688 13.5671 52.3678 13.5692 52.469C13.5748 52.7974 13.6275 53.0877 13.6298 53.274C13.631 53.3914 13.456 53.5215 13.4554 53.6125C13.4545 53.9641 13.5854 54.7095 13.5633 55.1594C13.5582 55.2528 13.3631 55.2123 13.3455 55.4165C13.3434 55.4404 13.5466 55.5288 13.5876 55.7078C13.6286 55.8867 13.5265 56.0243 13.5468 56.139C13.5637 56.2348 13.745 56.1962 13.755 56.3923C13.763 56.5549 13.6194 58.4182 13.5898 58.5149C13.5471 58.6591 13.2924 58.7252 13.3227 58.8151C13.3293 58.8309 13.5746 58.8592 13.5918 58.9137C13.8755 59.811 13.5258 61.784 13.52 62.7944C13.507 64.9285 13.6355 66.8949 13.6738 69.0388C13.7161 69.0779 13.7585 69.117 13.8009 69.156C13.8045 68.9365 13.808 68.7165 13.8115 68.5034C13.9271 68.5031 14.0426 68.5027 14.1582 68.5023C14.179 68.2116 13.9054 68.2474 13.7404 68.2543C13.8113 68.147 13.8822 68.0394 13.9531 67.9315C13.5513 67.8364 13.8253 67.1069 13.8278 66.7337C13.8298 66.4936 13.6787 66.2047 13.6916 66.077C13.7185 65.8071 13.9669 65.8158 13.971 65.7947C13.977 65.7587 13.7609 65.3782 13.7716 65.103C13.7869 64.6949 14.1688 64.6623 13.8491 64.1087C14.0527 63.4043 13.9591 62.6159 13.9325 61.858C14.2841 62.0059 13.9555 61.3205 13.9633 61.0099C14.0119 59.1395 14.1791 56.8229 14.3315 54.9261C14.3508 54.6814 14.5598 54.4959 14.5539 54.361C14.5508 54.2874 14.3061 54.2536 14.3392 54.1515C14.3456 54.1336 14.5747 54.1227 14.6105 53.9324C14.7003 53.4602 14.326 52.2688 14.7675 51.9748C14.7103 50.3511 14.6527 48.7252 14.5948 47.1005C14.6887 47.0603 14.7825 47.0201 14.8763 46.9799C14.4 46.6684 14.6886 45.4504 14.6697 44.855C14.6359 43.8092 14.4951 42.4691 14.4843 41.5546C14.4819 41.3564 14.6186 41.1921 14.6169 41.0033C14.616 40.9219 14.4407 40.8198 14.4403 40.7352C14.4324 39.7872 14.621 38.5016 14.6222 37.5481C14.6253 35.3734 14.6632 33.3388 14.6674 31.1364C14.6765 25.7267 14.5601 20.304 14.5519 14.9483C14.549 12.973 14.5608 10.9823 14.5986 9.02421C14.6005 8.92841 14.8028 8.9343 14.8045 8.8607C14.8168 8.39284 14.6551 7.39254 14.6668 6.89283C14.6759 6.4749 14.9884 5.84557 14.6777 5.70023C14.1991 7.1414 14.2269 8.66149 14.0876 10.1567C14.0778 10.2612 13.8854 10.2736 13.8819 10.2865C13.8138 10.5274 14.0794 10.3742 14.0896 10.7298C14.0929 10.864 13.4738 11.9209 14.0854 11.8024C13.8396 12.0828 13.7083 13.8978 13.7875 14.2466C13.8116 14.3543 13.993 14.2791 14.0021 14.3005C14.0416 14.3936 13.7918 14.4345 13.7849 14.5183C13.7777 14.6156 13.8115 14.7796 13.8518 14.9448C13.904 15.1454 13.9671 15.3478 13.966 15.4074C13.9627 15.6416 13.7556 16.4098 13.802 16.7144C13.8442 17.0075 14.1052 16.9539 14.1279 17.2102C14.145 17.4136 13.9269 17.1894 13.8583 17.646C13.8247 17.884 13.9778 18.6463 13.9768 18.8414C13.9759 19.0319 13.8188 19.2445 13.8294 19.5122C13.8444 19.8897 13.9272 20.7019 13.9752 21.0963C13.9779 21.1197 14.1804 21.1775 14.1759 21.2351C14.1668 21.3542 13.9165 21.3186 13.8906 21.4052C13.8649 21.4843 13.8876 23.026 13.8834 23.287C13.8811 23.4641 14.0297 23.5879 14.0279 23.6865C14.0261 23.7639 13.8174 23.7711 13.8146 23.8502C13.8145 23.8747 13.9946 24.0843 13.9893 24.2945C13.9841 24.493 13.8078 25.2493 13.8057 25.3312C13.8047 25.3874 13.9533 25.3265 13.9489 25.4926C13.9445 25.6441 13.7515 25.743 13.7482 25.8298C13.7409 26.0312 13.9039 26.2582 13.9035 26.474C13.9024 27.0979 13.6641 27.057 13.6562 27.0953C13.6341 27.1965 13.8523 27.2384 13.8566 27.2717C13.8742 27.4124 13.9127 27.759 13.9205 27.8858C13.9303 28.0434 13.7223 28.1092 13.7207 28.2774C13.7202 28.402 13.9212 28.66 13.9296 28.9436C13.9495 29.5775 13.9836 30.3455 13.9724 30.9779C13.9693 31.1642 13.7797 31.192 13.7744 31.249C13.7468 31.5489 13.9578 31.719 13.9545 31.8051C13.9322 32.4213 13.5938 33.5147 13.5624 34.0841C13.5499 34.3167 13.6977 35.3367 13.6671 35.9071C13.6639 35.9727 13.5156 35.9105 13.5385 35.9836C13.5932 36.1585 13.8958 36.144 13.8862 36.2326C13.8806 36.2754 13.7095 36.372 13.6918 36.4968C13.6001 37.1463 13.7302 37.5864 13.7194 37.8811C13.6153 40.7097 13.519 43.5943 13.4759 46.2362C13.4713 46.5307 13.649 46.897 13.4715 47.3406C13.3775 47.3537 13.2834 47.3668 13.1893 47.3799C13.2816 47.396 13.3738 47.4122 13.4661 47.4283C13.513 47.9321 13.6307 48.1235 13.5098 48.6373C13.4996 48.6816 13.0697 48.8142 13.6021 48.9012C13.2128 49.4082 13.6038 49.1312 13.6373 49.5095C13.6708 49.8876 13.5494 50.2541 13.5203 50.6214C13.3281 50.8216 12.8932 49.9735 12.8949 49.9194C12.8972 49.8309 13.1627 49.7407 13.1774 49.6556C13.2211 49.4035 13.0124 49.1578 13.2493 49.1027C13.0013 48.7747 13.1236 49.1819 12.8987 49.1396C12.9932 48.9224 13.0878 48.705 13.1824 48.4876C12.4171 48.3716 13.4236 47.1737 12.8398 47.2538C12.9571 47.1588 13.0745 47.0637 13.1919 46.9687C12.4627 46.5442 12.9795 46.3004 13.2007 45.7417C13.1068 45.7816 13.013 45.8214 12.9192 45.8612C12.8802 45.8497 12.7336 45.3539 13.1311 45.5332C12.609 45.0228 13.4825 45.0495 12.8537 44.5913C12.7743 44.321 13.1402 44.4853 13.1368 44.0025C13.135 43.7167 12.9453 43.3598 12.9338 43.0392C12.9318 42.9654 13.1444 42.9346 13.1448 42.8689C13.1451 42.8033 12.937 42.7701 12.9322 42.6906C12.9219 42.5264 13.0694 42.3146 13.0559 42.212C13.0444 42.1201 12.8615 41.9878 12.8339 41.7666C12.7363 40.9945 12.9973 41.2274 13.0868 41.1061C13.182 40.9751 12.8369 40.8784 12.8785 40.6167C12.8829 40.5905 13.0979 40.6597 13.0899 40.5742C13.0837 40.5053 12.8498 40.4693 12.8074 40.2411C12.7903 40.1501 12.7483 38.743 12.7453 38.5263C12.7408 38.1964 12.9432 37.4659 12.9437 37.1277C12.9444 36.9964 12.7572 36.8539 12.7592 36.7141C12.7661 36.2498 12.7861 35.5118 12.7985 34.9291C12.81 34.397 13.23 33.4742 12.8569 33.1858C12.8124 32.4477 13.1335 32.2636 13.1381 32.2089C13.1509 32.0576 12.9393 31.9864 12.9304 31.7961C12.8205 29.3295 12.9778 26.0847 12.9729 23.7496C12.9658 20.8314 12.9366 17.8566 12.929 14.9401C12.9229 12.427 12.9323 9.94809 12.9843 7.45514C12.8904 7.44006 12.7964 7.425 12.7025 7.40997C12.6386 8.06628 12.4716 8.81438 12.4311 9.43892C12.3775 10.2955 12.7627 11.5299 12.1171 12.1671C12.062 11.906 12.3104 11.498 11.98 11.5043C11.9542 11.9538 11.9283 12.4116 11.9024 12.8534C12.0551 12.8408 12.2077 12.8282 12.3604 12.8155C12.4024 13.2884 12.3667 13.7714 12.3862 14.2373C12.3894 14.3194 12.5282 14.2619 12.5286 14.3335C12.5287 14.4138 12.3879 14.3586 12.3868 14.3737C12.3843 14.5769 12.5266 14.6404 12.5244 14.6654C12.5185 14.7299 12.383 14.6786 12.344 14.8654C12.3389 14.8898 12.3359 14.9137 12.3346 14.9372C12.3171 15.2286 12.5885 15.4331 12.0303 15.3571C12.0297 15.4648 12.0292 15.5732 12.0286 15.6823C12.1921 15.7114 12.3555 15.7406 12.5189 15.7697C11.8551 16.4507 13.012 16.7527 12.091 17.1188C12.2308 17.2414 12.3705 17.3648 12.5103 17.489C12.3464 17.5578 12.1824 17.6268 12.0185 17.696C12.1588 17.7104 12.2991 17.7248 12.4394 17.7392C12.3326 18.3993 12.4977 19.0919 12.4782 19.7319C12.4648 20.1635 12.4088 20.2681 12.4174 20.6577C12.4369 21.5303 12.1628 20.6622 11.8583 21.3867C12.0306 21.3512 12.2029 21.3144 12.3752 21.277C12.4376 21.3988 12.5001 21.5128 12.5626 21.6313C12.4218 21.7124 12.281 21.7937 12.1402 21.8752C12.8664 22.2438 12.2775 22.4809 12.2772 22.5311C12.2783 22.5718 12.7159 22.7138 12.3424 23.1522C12.9426 22.9777 12.3443 23.479 12.3405 23.5202C12.3379 23.5583 12.4691 24.0549 12.4624 24.2586C12.4574 24.4179 12.3266 24.7609 12.3317 25.0003C12.3362 25.2067 12.5398 25.187 12.5418 25.2021C12.5574 25.4571 12.4001 25.2964 12.3914 25.4811C12.3827 25.666 12.5553 25.8113 12.5396 25.8513C12.5313 25.8715 12.3421 25.8029 12.3233 25.8954C12.2721 26.1432 12.4357 26.5967 12.4292 26.8853C12.4272 26.9848 12.2658 27.1098 12.2603 27.2211C12.2524 27.3919 12.4655 27.4732 12.4586 27.5729C12.4556 27.6075 12.1246 27.827 12.1738 28.1044C12.1837 28.1571 12.8809 28.3157 11.8909 28.5172C12.0299 28.5339 12.169 28.5506 12.3081 28.5672C12.6477 29.4966 11.5159 29.742 12.5169 30.1618C12.4012 30.8372 12.0129 30.371 11.9526 30.4448C11.9145 30.4926 12.0208 30.7142 12.0145 30.7386C12.0023 30.7816 11.8769 30.7735 11.8774 30.8207C11.896 31.6721 12.1349 31.2957 12.2835 31.5667C12.6372 32.2133 11.8414 32.7138 12.0856 31.5919C12.0156 31.5916 11.9456 31.5912 11.8756 31.5908C11.941 31.8663 11.9054 32.5709 11.5518 32.3337C11.2732 32.1438 11.4646 30.4883 11.0672 31.4243C10.9773 31.6372 11.2393 31.749 10.7449 32.1178C10.7168 32.3635 11.3546 32.4023 11.0967 32.7354C11.3196 32.6816 11.5425 32.6278 11.7653 32.5741C12.0529 33.0348 11.6608 33.581 11.7835 33.9315C11.8254 34.0497 12.8841 34.4825 11.8238 34.3771C11.8888 34.5785 11.6882 35.5119 11.7823 35.6853C11.8051 35.7274 12.3696 35.7839 12.169 36.3889C12.098 36.4307 12.027 36.4724 11.9559 36.5142C11.7534 35.9581 11.5386 36.9371 11.0041 36.6679C11.2456 36.5785 11.395 36.1396 11.5165 36.0698C11.7257 35.9504 11.9925 36.3109 11.9218 35.853C11.0276 35.5596 11.4352 36.3866 10.5853 36.256C10.979 36.8603 10.5998 36.9194 10.5833 37.056C10.5159 37.6347 10.604 38.0003 10.5015 38.5493C10.6755 38.6839 10.9334 37.6916 10.8587 37.5692C11.4754 38.0237 11.5078 37.249 11.1419 36.9164C11.3292 36.8897 11.5165 36.863 11.7039 36.8363C11.6 37.2672 11.5455 37.6789 11.6967 38.1047C11.6265 38.1319 11.5564 38.1591 11.4863 38.1863C11.3814 38.0906 11.2766 37.9949 11.1717 37.8993C10.9972 38.2508 11.5441 38.0422 11.0633 38.5099C11.274 38.5257 11.4846 38.5415 11.6953 38.5573C11.6227 39.009 11.5502 39.4592 11.4776 39.908C11.8989 40.1443 11.7364 41.0114 11.1901 40.8493C11.1495 41.1998 11.4432 40.7685 11.5744 41.098C11.6314 41.2417 11.6459 41.5209 11.4983 41.5885C10.9774 41.5563 10.9152 41.1379 10.5581 41.009C10.4422 41.088 10.8028 43.0267 10.1945 42.8514C10.1203 43.0061 10.4346 42.9366 10.5133 43.2171C10.7327 44.0025 10.1049 45.2107 10.8795 45.8472C11.3173 45.1087 10.8597 44.8865 10.8448 44.319C10.8351 43.9579 10.7743 41.7442 11.3223 42.242C11.2528 42.1605 11.1833 42.0789 11.1138 41.9974C11.2783 41.9164 11.4427 41.8354 11.6072 41.7545C11.6294 41.9855 11.6517 42.2167 11.6739 42.4481C11.51 42.5024 11.3461 42.5566 11.1822 42.6109C11.2988 42.6371 11.4155 42.6632 11.5321 42.6894C11.5547 42.787 11.5773 42.8846 11.5999 42.9822C11.4597 42.954 11.3195 42.9258 11.1793 42.8976C11.1544 43.0477 11.1295 43.1978 11.1046 43.3481C11.2924 43.3087 11.4802 43.2693 11.668 43.23C11.7109 43.9385 11.5949 43.6971 11.2417 44.087C11.2041 44.3793 11.5676 43.8873 11.6555 44.5069C11.7574 45.2277 11.1872 44.7515 11.304 45.6856C11.3975 45.6996 11.491 45.7137 11.5845 45.7277C11.4897 45.9321 11.3949 46.1365 11.3 46.341C11.4166 46.3146 11.5331 46.2882 11.6496 46.2618C11.6019 46.6848 11.8204 47.2695 11.363 47.4069C11.5855 46.9792 10.7883 46.9785 10.6411 47.0891C10.3391 47.3175 10.5972 50.721 10.6125 51.3815C10.6324 52.2228 10.3728 52.8615 10.76 53.6335C11.0853 53.1138 10.8338 51.2761 11.0586 50.9299C11.0807 50.8956 11.8113 50.91 10.9906 50.683C11.1347 49.968 10.9072 49.1167 10.9367 48.224C11.1469 48.2526 11.3571 48.2812 11.5673 48.3098C11.1165 48.8552 12.0959 49.3685 11.2791 49.292C11.2784 49.401 11.2777 49.51 11.277 49.619C11.4178 49.6199 11.5586 49.6208 11.6993 49.6217C11.6983 49.7859 11.6972 49.9502 11.6962 50.1144C11.5554 50.1135 11.4146 50.1125 11.2738 50.1116C11.273 50.2481 11.2721 50.3845 11.2712 50.5209C11.4115 50.536 11.5518 50.5511 11.692 50.5662C11.3979 50.9732 12.1683 52.3665 11.334 51.7507C11.3327 51.942 11.3315 52.1328 11.3302 52.3243C11.4332 52.3243 11.5361 52.3244 11.639 52.3245C11.6523 52.4071 11.6656 52.4898 11.6789 52.5724C11.5859 52.5446 11.4929 52.5168 11.3999 52.489C11.5644 52.8685 11.0714 53.2232 11.3921 53.4729C11.4636 53.3101 11.5351 53.1471 11.6066 52.9839C11.4708 53.297 11.744 53.8755 11.7443 53.927C11.7446 54.0842 11.536 54.1656 11.5243 54.3356C11.5142 54.4888 11.6743 54.4692 11.6684 54.4978C11.5 55.3306 10.6364 55.0067 11.6586 55.4023C11.5183 55.4426 11.3781 55.483 11.2378 55.5233C11.3542 55.5791 11.4706 55.6348 11.587 55.6905C11.5743 55.9356 11.5616 56.1803 11.549 56.4245C11.7245 56.3443 11.9 56.264 12.0755 56.1836C12.1511 56.5503 11.7991 56.7197 11.7908 56.7557C11.7696 56.8569 11.9895 56.9048 11.9897 56.9361C11.9601 58.4378 11.7726 57.5246 10.9402 58.2664C11.2629 58.5347 11.5902 58.268 11.9207 58.2326C11.7632 58.5854 11.8539 58.6948 11.8328 59.0725C11.8271 59.1705 11.6482 59.2745 11.6454 59.3362C11.6429 59.3897 11.831 59.5581 11.8308 59.6861C11.8306 59.8996 11.7157 60.1822 11.7163 60.4727C11.7174 60.7099 11.8455 61.4642 11.8429 61.9807C11.8412 62.2015 11.6833 62.149 11.6825 62.206C11.6823 62.2297 11.8707 62.4029 11.8704 62.5439C11.8656 63.7067 11.7363 64.8829 11.7301 66.0533C11.7256 66.8609 11.8709 67.7157 11.8484 68.5251C11.8434 68.6979 11.7049 68.6052 11.6993 68.6805C11.6979 68.7065 11.9406 68.7385 11.8405 69.012C11.8044 69.1104 11.6355 68.9954 11.6261 69.0923C11.6217 69.1394 11.8345 69.1618 11.8807 69.4368C11.965 69.936 11.6786 70.1964 11.6867 70.2406C11.7023 70.3235 11.8788 70.301 11.8841 70.4104C11.9102 70.9482 11.9358 71.4139 11.946 71.8916C11.9512 72.1045 11.9714 73.6822 11.9388 73.7581C11.8665 73.9462 11.5002 73.7671 11.5103 74.0086C11.6028 74.0775 11.6953 74.1436 11.7877 74.2161C11.8597 74.1043 11.9315 74.0019 12.0034 73.8941C11.8821 74.182 12.0459 74.5411 12.0372 74.7621C12.0354 74.8038 11.8645 75.181 11.8807 75.3714C11.8124 75.2896 11.7441 75.2074 11.6758 75.125C11.6165 75.1533 11.5572 75.1815 11.4979 75.2097C11.5833 75.5911 11.5766 75.9986 11.5595 76.4003C11.5536 76.5436 11.4108 76.4937 11.4043 76.6381C11.3835 77.0791 11.5391 77.2265 11.5273 77.3842C11.5165 77.5334 11.3696 77.6914 10.8349 78.0702C10.883 77.9449 10.8814 77.6638 10.8694 77.3766C10.8551 77.0584 10.8265 76.7328 10.8474 76.6548C10.8746 76.5551 11.8242 76.1705 10.8525 76.3048C10.8656 75.4888 11.3932 76.1902 11.2842 75.447C11.1656 75.4606 11.0471 75.4742 10.9285 75.4878C10.8566 75.2274 10.7988 75.0326 11.0094 74.8744C10.4356 74.8157 10.781 73.9143 10.747 73.4325C10.6991 72.7192 10.5667 71.9215 10.5485 71.2175C10.5425 70.974 10.7688 70.8368 10.7684 70.8061C10.7672 70.7619 10.5713 70.6301 10.5706 70.5448C10.568 70.2217 10.9103 69.2185 10.3651 68.9582C10.3479 70.9213 10.3293 72.9005 10.3088 74.8652C10.5806 74.6214 10.5857 76.6095 10.5709 76.7122C10.5579 76.8051 10.3698 76.7247 10.3581 76.7522C10.2747 76.957 10.5466 77.1332 10.5459 77.1975C10.5455 77.2307 10.4861 77.286 10.4479 77.3718C10.4296 77.4152 10.4162 77.466 10.4164 77.525C10.4164 77.5584 10.5522 77.5693 10.5522 77.6051C10.5495 77.8421 10.5448 78.0728 10.5428 78.3042C10.5413 78.3183 10.3421 78.3742 10.341 78.4323C10.3403 78.4905 10.5379 78.5503 10.5384 78.5649C10.5348 78.7441 10.4018 79.0663 10.3981 79.2471C10.3974 79.3094 10.5433 79.2681 10.541 79.3378C10.5348 79.5509 10.2512 79.4778 10.3211 79.7393C10.3446 79.8265 10.5623 79.8241 10.5315 79.9889C10.5095 80.1054 10.1219 80.0876 10.1076 80.1059C10.0903 80.1257 10.391 80.5492 10.1353 80.6815C9.46924 80.3756 10.096 81.0051 10.3791 80.9778C10.3057 81.1392 10.2322 81.2986 10.1588 81.4562C10.2296 81.512 10.3005 81.5639 10.3713 81.623C10.0389 82.2996 10.2272 82.6624 10.1174 83.3303C10.112 83.3637 9.94411 83.8979 9.84378 83.8697C9.67573 83.5503 9.67297 83.2234 9.99659 83.015C9.39132 82.6492 9.87786 82.6725 9.80508 82.1142C9.78034 81.9272 9.61483 81.9107 9.61303 81.8892C9.54116 81.1688 9.48531 80.0066 9.97576 79.5363C9.84647 79.3988 9.78826 79.886 9.69417 79.6953C9.64316 79.5871 9.51827 77.0911 10.0666 77.896C10.0521 77.8122 10.0377 77.7281 10.0232 77.6435C9.76228 77.5987 9.66165 77.4729 9.69047 77.3631C9.71969 77.2577 9.88253 77.1684 10.1468 77.1945C10.0398 77.155 9.93281 77.1155 9.82584 77.0759C9.73582 76.999 9.68815 76.9085 9.66069 76.7811C9.55689 76.2817 9.76982 73.3727 9.6956 73.2212C9.57113 73.2165 9.44666 73.2117 9.3222 73.207C9.16879 74.472 9.46494 75.7509 9.09265 77.1408C9.20988 77.1021 9.3271 77.0633 9.44432 77.0245C9.40969 77.1367 9.37506 77.2482 9.34042 77.3591C9.20495 77.8167 9.06946 78.2622 8.93394 78.6958C8.8081 78.3381 8.69666 77.8404 8.67204 77.3514C8.6565 77.0635 8.67468 76.7803 8.74414 76.5419C8.77641 76.4314 8.93835 76.5145 8.95836 76.4892C9.01032 76.423 8.72859 76.3489 8.70376 76.1067C8.67908 75.8561 8.88559 75.2746 8.88054 75.2177C8.87003 75.1126 8.54976 74.8239 8.55574 74.6418C8.56385 74.4025 8.76227 74.565 8.76699 74.517C8.78869 74.3194 8.69144 74.1324 8.70772 73.985C8.732 73.7612 9.08855 73.2918 8.57347 73.1257C8.54826 73.2894 8.52305 73.4522 8.49783 73.614C8.32137 72.7273 8.98849 72.0394 8.48728 71.1612C7.86355 70.9558 7.94134 71.6821 7.68005 71.0661C7.68796 71.1779 7.69587 71.2893 7.70379 71.4003C7.83456 71.4275 7.96532 71.4548 8.09609 71.4819C8.00072 71.6719 7.90535 71.8607 7.80997 72.0484C7.92725 71.9957 8.04454 71.9429 8.16182 71.89C8.24366 72.5481 8.35638 73.2612 7.72642 73.4826C7.87804 73.498 8.02967 73.5133 8.18129 73.5287C7.99073 74.1371 8.62388 75.1114 7.78134 74.9203C7.82579 74.9505 7.87023 74.9807 7.91468 75.0108C7.73811 75.3869 8.08899 75.2289 8.12695 75.3707C8.13768 75.4085 7.94944 76.1439 7.7023 75.8116C7.50274 76.5425 8.29442 76.3228 8.32686 76.5233C8.10987 76.7741 8.18497 77.1328 8.19633 77.3459C8.2056 77.5322 8.1715 77.6163 7.89398 77.4519C7.86998 77.522 7.84597 77.5917 7.82197 77.6612C8.30538 77.896 7.75277 78.1127 7.56598 78.352C7.55401 78.4337 7.54204 78.515 7.53007 78.5959C7.69297 78.6522 7.85586 78.7083 8.01876 78.7642C7.23056 79.5436 9.3625 79.3215 7.56935 79.6542C7.46305 79.5978 7.35675 79.5411 7.25046 79.4843C7.20127 79.3521 7.15208 79.2188 7.1029 79.0843C7.04889 79.6299 6.99532 80.1216 6.94066 80.6733C6.43018 81.3369 6.96873 81.7294 6.56107 82.466C6.60764 82.5354 6.65421 82.6044 6.70077 82.6731C6.29676 82.5985 6.36037 82.3313 6.17104 82.8263C5.88408 82.8605 5.85208 82.5294 6.07406 82.3788C6.12822 82.3427 6.34288 82.6603 6.35592 82.3068C6.36503 82.0632 6.01436 82.505 6.15258 81.7699C6.08221 81.7965 6.01183 81.823 5.94146 81.8494C5.94466 81.7692 5.94785 81.6884 5.95105 81.6072C6.11403 81.5355 6.2769 81.471 6.4398 81.4045C6.20841 81.2242 5.88206 81.1225 5.95745 80.7085C6.05734 80.8224 6.38459 80.6749 6.38188 80.4664C6.26471 80.4648 6.14754 80.4633 6.03036 80.4617C5.96175 79.9517 6.30305 80.1434 6.03998 79.7297C6.13367 79.6901 6.22737 79.6504 6.32106 79.6106C5.94002 79.3854 5.68924 78.5387 6.26284 78.7031C5.70625 78.4718 5.96441 77.9912 6.4139 77.8124C6.2977 77.797 6.1815 77.7816 6.06531 77.7662C6.04285 77.6684 6.02039 77.5701 5.99793 77.4713C6.06255 77.422 6.12717 77.3725 6.19178 77.3229C6.19819 77.3183 6.20459 77.3136 6.21099 77.309C6.14137 77.2417 6.07174 77.1741 6.00212 77.1063C6.11935 77.0672 6.23658 77.0281 6.35381 76.9888C6.21507 76.8791 6.07633 76.7687 5.93759 76.6579C6.03151 76.592 6.12543 76.5259 6.21934 76.4596C5.97583 76.4541 5.92909 75.769 6.09083 75.5934C6.02062 75.5383 5.95041 75.4831 5.88019 75.4277C5.99643 75.4023 6.11267 75.3768 6.22891 75.3513C6.13658 75.3096 6.04425 75.2678 5.95192 75.2259C6.04568 75.1327 6.13944 75.0391 6.23319 74.9451C5.66876 74.5512 6.16766 74.5422 6.16506 74.4529C6.1603 74.2823 5.8099 73.7261 5.82912 73.6343C5.84849 73.5421 6.05298 73.4994 6.07291 73.4246C6.4057 72.1838 5.85311 72.6864 5.76888 72.4348C5.72301 72.2969 5.91421 72.2091 5.89425 72.0907C5.86096 71.8928 5.6187 70.8625 5.6439 70.8005C5.68028 70.7137 6.576 70.9272 6.34728 70.6417C5.86543 70.624 6.35723 70.042 5.68257 70.3108C5.74377 70.0684 5.80497 69.8244 5.86617 69.5788C5.29457 69.6015 5.66475 69.3018 5.63599 68.9673C5.59575 68.494 5.22901 67.4488 5.81479 67.4885C5.68107 67.3748 5.54735 67.2609 5.41363 67.1467C5.60466 66.375 5.4174 65.6358 5.41658 64.8625C5.4129 62.6072 5.55854 60.1566 5.69013 57.9064C5.69661 57.7985 5.88797 57.8154 5.89275 57.7376C5.91681 57.3294 5.78889 56.2608 5.83509 55.691C5.84974 55.5077 6.03712 55.4196 6.0461 55.3614C6.07776 55.1638 5.83137 55.2088 5.83904 55.1177C5.85133 54.9742 6.08493 54.2137 6.11063 53.9543C6.12335 53.8252 5.92887 53.6709 5.99026 53.5198C5.99525 53.5068 6.19661 53.5323 6.20021 53.5213C6.22672 53.2452 6.05142 53.4102 6.0612 53.3168C6.13118 52.65 6.1399 51.9368 6.18617 51.2148C6.19791 51.0354 6.34175 50.7613 6.35614 50.607C6.36125 50.5482 6.20767 50.6528 6.22166 50.4494C6.22644 50.3797 6.42542 50.3572 6.43882 50.2785C6.49525 49.9394 5.85705 49.823 6.3728 49.5353C6.34257 48.974 6.18469 47.994 6.18436 47.4818C6.18452 47.3606 6.30232 47.3023 6.30094 47.1867C6.30004 47.1048 6.11902 46.9593 6.1176 46.8314C6.11628 46.7035 6.29077 46.5026 6.28595 46.2566C6.28119 45.9976 6.18026 45.6752 6.18124 45.6166C6.18167 45.546 6.40069 45.5144 6.39836 45.4439C6.39262 45.2304 6.18104 44.658 6.15945 44.3833C6.13659 44.0881 6.24375 43.9117 6.24224 43.811C6.23987 43.7177 6.05588 43.6078 6.05451 43.5652C6.05209 43.4989 6.26797 43.4843 6.26668 43.3998C6.26398 43.2618 6.12914 43.1187 6.12677 42.9119C6.08201 39.1893 6.22107 35.549 6.39785 31.9249C6.41764 31.5208 6.26753 31.2953 6.33975 30.7024C6.36923 30.4593 6.59136 30.5629 6.55025 30.3738C6.53169 30.2896 6.35644 30.3099 6.34853 30.2036C6.31442 29.7335 6.48004 29.1929 6.47829 28.9924C6.47788 28.9125 6.27945 28.8223 6.27745 28.6546C6.26146 27.4188 6.32489 25.9685 6.29719 24.6516C6.28254 23.9421 6.18657 22.8969 6.17732 22.0853C6.15133 19.8659 6.20939 17.4789 6.1998 15.4554C6.19897 15.2702 6.19754 15.0872 6.19566 14.9064C6.16719 12.0167 6.03177 9.17706 6.25065 6.31511C5.76229 7.73193 5.79261 9.68825 5.73254 11.2682C5.68762 12.4808 5.6719 13.6519 5.67213 14.9038C5.67332 18.3687 5.80628 21.9689 5.78042 25.4393C5.76834 27.0863 5.76864 29.1283 5.64762 30.9297C5.64226 31.0102 5.79432 31.178 5.77718 31.3526C5.7732 31.3895 5.49167 31.8492 5.488 32.0055C5.98478 31.8601 5.53942 32.4694 5.55036 32.66C5.56462 32.9027 5.80983 33.3912 5.66658 33.9486C5.53698 34.4537 5.34696 34.3135 5.33483 34.3413C5.25652 34.5202 5.56364 34.5846 5.59395 34.7224C5.7149 35.2803 5.52009 38.1549 5.50413 38.9609C5.50012 39.1691 5.30464 39.1743 5.30366 39.2207C5.30166 39.344 5.49367 39.5207 5.49122 39.7186C5.48634 40.0753 5.29949 40.4862 5.29763 40.6834C5.29277 41.1563 5.50513 42.0481 5.50572 42.6604C5.50596 42.8325 5.30264 42.8208 5.30289 42.8988C5.30441 43.2427 5.53873 44.1361 5.53826 44.5617C5.53759 45.253 5.40176 45.9638 5.46434 46.6667C5.37333 46.7106 5.28231 46.7546 5.1913 46.7986C5.28608 46.8694 5.38085 46.9403 5.47563 47.0111C5.3957 48.1987 5.59237 49.4093 5.57133 50.5914C5.56904 50.7278 5.39102 51.4007 5.38956 51.5128C5.38894 51.6062 5.6131 51.6996 5.57907 51.8377C5.53186 52.0312 5.10504 51.8461 5.22537 52.1632C5.25792 52.2487 5.44169 52.1667 5.49765 52.339C5.5163 52.3963 5.5832 53.4962 5.57011 53.5546C5.54809 53.6528 5.15497 53.7377 5.14635 53.763C5.10116 53.8945 5.40243 53.8909 5.42931 53.9794C5.50979 54.2402 5.30483 54.58 5.30898 54.6231C5.36113 55.1395 5.59497 56.0989 5.44889 56.6348C5.42852 56.7096 5.20426 56.699 5.19688 56.7121C5.14981 56.7966 5.40484 56.8511 5.41018 56.9317C5.43601 57.366 5.25924 58.041 5.21244 58.4726C5.20733 58.5225 5.32943 58.6274 5.31688 58.7174C5.24416 59.2251 5.0482 59.0586 5.03954 59.0875C5.01812 59.1556 5.23467 59.2774 5.24679 59.4589C5.2793 59.9285 5.24151 60.8123 5.22077 61.3194C5.20454 61.6952 4.95558 61.6872 4.95047 61.7119C4.94112 61.7643 5.13882 61.912 5.15947 62.1579C5.20021 62.6308 5.00501 62.5749 5.01195 62.7685C5.01182 62.785 5.2035 62.7568 5.22153 62.9756C5.25624 63.3988 5.06064 64.3362 5.06692 64.7777C5.06905 64.9498 5.25331 64.9935 5.2554 65.1708C5.25944 65.4532 5.05458 66.0817 5.05468 66.1307C5.05456 66.1446 5.26669 66.1775 5.26602 66.259C5.26525 66.3486 5.15521 66.4357 5.15536 66.5023C5.15519 66.8764 5.52012 67.5535 4.76363 67.3601C4.94975 67.485 5.13586 67.6096 5.32197 67.7339C5.27785 68.5276 5.34588 69.3188 5.3768 70.107C5.38362 70.2843 5.23872 70.4294 5.24432 70.5788C5.24996 70.7333 5.48125 71.4054 5.48466 71.5153C5.4906 71.7129 5.50485 72.8348 5.48647 72.9801C5.45136 73.2551 5.13545 73.5156 5.19564 73.6265C5.24407 73.7153 5.42141 73.6356 5.46974 73.8042C5.55343 74.0877 5.32133 74.6052 5.32394 74.6925C5.32498 74.7309 5.46332 74.6612 5.46944 75.0212C5.47304 75.2147 5.32036 75.3159 5.32033 75.3854C5.32089 75.4069 5.56707 75.3778 5.53 75.7547C5.50382 76.0261 5.31292 76.1377 5.3119 76.1661C5.31018 76.2083 5.51144 76.3127 5.50253 76.4807C5.49024 76.7002 5.40992 77.0171 5.3376 77.3131C5.2803 77.5607 5.22801 77.7944 5.21828 77.9592C5.2139 78.0311 5.45868 78.0107 5.43278 78.2955C5.41414 78.4984 5.22007 78.4602 5.21137 78.5357C5.19794 78.6548 5.43396 78.8343 5.42279 79.1115C5.40912 79.4622 5.12832 81.9424 5.06141 82.0905C5.01715 82.1775 5.01294 82.2782 4.90664 82.3194C4.80588 82.2812 4.70513 82.2428 4.60437 82.2044C4.96554 81.825 4.55695 81.9735 4.53236 81.8704C4.49731 81.7148 4.55693 81.1654 4.46856 81.0313C4.43665 80.983 4.2189 81.09 4.11119 80.831C3.99604 80.5521 4.38269 80.4305 3.85818 80.3107C4.44743 79.9232 3.83226 79.5512 3.66093 79.9943C3.56572 80.2576 3.32237 82.7247 3.28096 83.2435C3.24864 83.6452 3.39198 84.4372 3.34307 84.9223C3.3137 85.2315 3.27286 85.9509 2.9938 85.9117C2.95338 86.1776 3.23732 85.8991 3.27496 85.956C3.35346 86.0883 3.14495 86.8829 3.14887 87.0482C3.16939 87.8056 3.45845 88.7879 3.08463 89.5056C3.01078 89.4689 2.93693 89.4321 2.86308 89.395C2.73066 89.2272 2.94724 88.4559 2.58973 88.3698C2.56202 89.4823 2.52931 90.618 2.48465 91.6834C2.79261 91.6907 2.72534 92.9738 2.58079 93.0129C2.43428 92.9829 2.28775 92.9529 2.14121 92.9228C2.74266 92.2597 1.99624 92.265 2.41264 91.796C2.42703 91.5899 2.18006 91.6364 2.13769 91.5361C1.71532 90.5033 2.64116 91.5363 2.45058 90.7538C2.0876 90.9784 1.98045 90.3313 1.94419 90.0339C1.93689 89.9647 2.05212 89.0872 2.0487 88.9903C2.03348 88.3847 1.862 87.3943 2.06894 86.7898C2.10152 86.3442 1.8545 86.0471 1.80368 85.6438C1.76532 85.3247 1.94126 85.4184 1.94626 85.2662C1.95716 84.9409 1.41804 84.8293 2.17598 84.6432C2.08573 84.4292 1.99546 84.2107 1.90519 83.9876C2.02236 83.9896 2.13952 83.9915 2.25669 83.9935C2.25909 83.8502 2.26117 83.7237 2.26335 83.5893C2.14723 83.5481 2.0311 83.5069 1.91498 83.4655C2.08176 83.0394 2.36103 83.2218 2.69406 83.1466C2.71832 83.053 2.74259 82.9586 2.76685 82.8635C2.5133 82.7862 2.2598 82.705 2.00616 82.6332C2.03304 82.2314 2.06004 81.8058 2.08673 81.3861C2.20387 81.3615 2.321 81.3369 2.43814 81.3122C2.32138 81.3098 2.20463 81.3073 2.08788 81.3048C2.07363 80.6115 2.0591 79.8956 2.04395 79.191C1.85901 79.0043 1.7027 80.1258 1.69023 80.2081C1.62187 80.7036 1.792 81.9478 1.3754 81.953C1.68181 82.2524 1.59106 83.1405 1.21388 83.411C1.24296 82.9941 1.27195 82.5642 1.30041 82.1539C1.16067 82.1654 1.02092 82.1768 0.881169 82.1882C1.45165 81.6773 1.42208 81.5784 0.897517 81.0496C1.08467 81.0517 1.27183 81.0538 1.45899 81.0559C0.813364 80.6803 1.9264 80.0059 1.12303 79.9881C1.19068 79.7936 1.25833 79.5964 1.32598 79.3966C1.23332 78.968 0.607817 79.6041 0.870217 77.9375C0.888509 77.8204 1.09289 77.8476 1.08089 77.6698C1.07858 77.6369 0.957482 77.5042 0.880215 77.2619C0.836523 77.1325 0.806767 76.9701 0.820179 76.7721C0.826094 76.6863 1.00373 76.6818 1.02727 76.5926C1.08311 76.3872 0.736513 75.9648 1.30672 76.1609C1.48275 75.3239 1.00918 75.6736 0.82525 75.4164C0.703143 75.2476 1.04138 75.2849 0.966144 75.1382C0.872825 74.9551 0.530092 75.0899 0.694748 74.3552C0.717087 74.4384 0.739426 74.5213 0.761764 74.604C0.854959 74.5635 0.948153 74.5229 1.04135 74.4822C0.823087 74.0593 1.14795 74.0966 0.628582 73.9003C0.864065 73.6051 0.885175 73.3461 0.846992 72.9297C0.772474 72.1165 0.206692 72.5243 0.971886 71.6209C0.867091 71.4718 0.762293 71.322 0.657493 71.1715C0.883087 70.9274 1.16062 71.1298 1.22038 70.7612C0.666113 71.0444 0.874392 70.2695 0.383765 70.1404C0.501067 70.1279 0.618369 70.1155 0.73567 70.103C0.736402 70.0222 0.737134 69.9412 0.737864 69.8601C0.643879 69.859 0.549894 69.8579 0.455908 69.8568C0.52727 69.7493 0.598631 69.6416 0.669991 69.5335C0.577547 69.4509 0.485102 69.3682 0.392657 69.2853C0.590374 69.1521 0.78809 69.0184 0.985804 68.8842C0.999977 68.7994 1.01417 68.7123 1.02832 68.6293C0.888128 68.6542 0.74793 68.6797 0.607728 68.7057C0.655474 68.5968 0.703182 68.492 0.750907 68.3848C0.520156 68.5073 0.251553 68.4274 0.261492 68.0924C0.269526 67.815 0.746191 68.1329 0.551938 67.5324C0.53808 67.49 0.196852 67.4149 0.148832 66.8424C0.0911374 66.1663 0.336006 66.4972 0.345591 66.3769C0.347195 66.3534 0.176855 66.1463 0.153788 65.9524C0.140654 65.8424 0.280428 65.7374 0.280185 65.7228C0.274403 65.6548 0.0780554 65.6333 0.0717278 65.5389C0.0567789 65.2994 0.155695 64.9753 0.147776 64.7401C0.144396 64.6347 0.0287633 64.5345 0.0277314 64.4873C0.0269699 64.4142 0.205531 64.3227 0.205417 64.2486C0.203876 63.975 -0.382823 63.5523 0.437708 63.4303C-0.313797 63.1592 0.601643 62.6068 0.0959086 62.6459C0.292111 61.9494 -0.313742 60.0476 0.534958 60.114C-0.188191 59.7093 0.337378 59.7485 0.327704 59.5807C0.317104 59.3928 0.175551 59.4891 0.182984 59.3397C0.200332 58.9915 0.263279 58.6539 0.26856 58.3112C0.384538 58.3662 0.500516 58.4212 0.616493 58.4761C0.656434 58.1144 0.384732 58.2372 0.335221 57.8667C0.244973 57.1841 0.458993 57.4727 0.764747 57.3742C0.470077 57.3996 0.521556 56.5923 0.560874 56.5099C0.584831 56.4614 0.962898 56.6774 0.843898 56.1857C0.726936 56.2117 0.609975 56.2378 0.493014 56.2638C0.654292 56.0415 0.455846 55.4308 0.495839 55.3273C0.514483 55.2799 1.45797 55.0319 0.714343 54.7934C0.831309 54.766 0.948276 54.7386 1.06524 54.7113C0.926643 54.4504 0.788018 54.1919 0.649385 53.9332C0.86002 53.8935 1.07065 53.8537 1.28129 53.814C1.28184 53.7321 1.28239 53.6502 1.28294 53.5683C1.09582 53.6214 0.908696 53.6745 0.721572 53.7276C0.809499 53.2227 0.519124 52.6009 1.14969 52.5004C1.03364 52.3909 0.917584 52.281 0.801525 52.1719C1.01153 52.1029 1.22154 52.0339 1.43155 51.9648C1.38199 51.463 1.24196 51.4537 1.0209 51.1089C1.18438 51.1234 1.34785 51.1379 1.51133 51.1524C1.28332 50.8976 1.07248 50.4335 1.04595 50.067C1.03375 49.8932 1.26105 49.5966 1.24088 49.5555C1.21961 49.514 0.336659 49.101 1.10365 49.0616C0.767894 48.4595 1.11636 48.1973 1.10944 47.9536C1.10474 47.7952 0.921171 47.7221 0.903269 47.5433C0.877398 47.2874 0.967966 47.0306 0.95621 46.883C0.948985 46.7985 0.769606 46.7816 0.764331 46.7234C0.738652 46.448 0.921048 46.6104 0.910865 46.3202C0.908957 46.2934 0.69134 46.08 0.720943 45.8413C0.737322 45.708 0.985697 45.3633 0.985284 45.3328C0.981882 45.1975 0.488932 45.3026 1.06028 44.8435C0.96662 44.8564 0.872956 44.8692 0.779292 44.8821C0.545347 44.3083 0.963147 44.2207 0.992731 44.1054C0.995194 44.0906 0.834736 43.9504 0.857448 43.8673C0.896285 43.7269 1.11745 43.6715 1.12736 43.6404C1.16183 43.5315 1.06691 43.1596 1.28182 42.9189C0.653099 42.9658 0.43463 42.1168 1.14728 41.9337C1.0078 41.7831 0.868303 41.6325 0.728808 41.482C0.846388 41.4149 0.963965 41.3484 1.08155 41.2808C0.965015 41.2387 0.848483 41.1966 0.731951 41.1546C0.990385 40.9368 1.24881 40.7192 1.50724 40.5019C1.24976 40.4865 0.992287 40.471 0.734812 40.4556C0.764464 40.3945 0.794116 40.3334 0.823767 40.2724C1.02871 40.2258 1.23365 40.1792 1.43858 40.1326C1.39997 40.0559 1.36135 39.9792 1.32273 39.9026C1.17474 39.8828 1.02674 39.8631 0.878746 39.8433C0.710393 39.431 2.12176 39.6533 0.884411 38.8603C1.00189 38.7386 1.11936 38.617 1.23684 38.4956C0.669289 38.3543 1.01491 38.098 0.952212 37.8897C0.907965 37.7429 0.682149 37.7495 0.678267 37.5501C0.674466 37.3506 0.890339 37.359 0.891837 37.3435C0.906041 37.1808 0.71635 37.059 0.754971 36.938C0.760708 36.9199 1.01737 36.8759 1.0345 36.7229C1.05157 36.5698 0.779385 36.476 0.832091 36.2487C0.858817 36.1323 1.07504 36.0999 1.09473 35.9967C1.19049 35.5038 0.0992379 35.0107 1.39889 34.6439C1.23496 34.559 0.662849 33.9506 0.697361 33.6933C0.752412 33.293 1.00609 33.4488 1.05357 33.29C1.06074 33.2672 0.975433 33.1452 0.992723 32.8104C0.995853 32.7496 0.852068 32.7629 0.850209 32.7542C0.855195 32.3576 0.97279 31.5941 0.995544 31.1662C0.997871 31.1266 0.598348 30.9294 1.13905 30.5859C0.743802 30.0693 1.60396 29.1308 1.0076 28.4546C0.995412 28.3611 1.1393 28.2487 1.13464 28.2075C1.09212 27.853 0.656429 27.9778 1.29748 27.1871C1.07529 27.25 0.875987 27.0638 0.894233 26.8025C0.9217 26.4008 1.33392 26.688 1.30178 26.366C1.18501 26.3654 1.06823 26.3648 0.951458 26.3642C1.26942 25.6267 0.770875 25.4857 0.771872 24.7498C0.772562 24.4811 1.03336 24.0898 1.03439 24.0268C1.03377 24.0022 0.753714 23.7117 0.751739 23.6844C0.744082 23.5294 0.874345 23.4429 0.875732 23.3101C0.88073 22.8731 0.517265 22.3261 1.18176 22.4289C1.04201 22.3053 0.902263 22.1822 0.762511 22.0596C1.47502 21.601 0.497961 21.2648 1.18821 21.1641C1.04623 21.0793 0.904246 20.9948 0.762261 20.9105C0.84431 18.9374 0.926275 16.9537 1.00821 14.9744C0.971455 14.9615 0.94308 14.9275 0.921476 14.88C0.812968 14.6228 0.875592 14.0144 0.90456 13.9796C1.06199 13.7799 1.54488 13.9922 1.43631 13.5862C1.22455 13.54 1.01278 13.4965 0.801034 13.4467C0.734684 12.9118 0.944337 13.1705 1.0891 12.9625C1.06339 12.8759 0.898742 12.9029 0.887353 12.7865C0.824897 12.177 0.823731 10.8623 0.813823 10.1714C0.811698 10.0344 0.965377 10.0561 0.965981 10.0138C0.965128 9.90306 0.772568 9.6568 0.773677 9.4166C0.782514 7.94084 0.902336 5.85284 1.07263 4.36843C1.08442 4.26665 1.2679 4.25549 1.2774 4.18824C1.28979 4.09663 1.14259 3.88795 1.15862 3.7838C1.17319 3.6889 1.31281 3.62985 1.32958 3.53229C1.40803 3.06988 1.17577 2.46225 1.58904 1.9746C1.62394 1.92514 2.365 1.42072 2.4135 1.40895C2.7013 1.34236 3.1505 1.79774 3.575 1.05681C3.93857 1.72407 4.58848 1.51834 4.91015 0.652067C4.98959 1.08735 5.06905 1.53342 5.14861 1.9637C5.2255 1.96476 5.3024 1.96582 5.3793 1.96687C5.76246 1.57557 5.89136 1.17517 5.92984 0.574734C6.00093 0.596257 6.07204 0.614221 6.14315 0.632154C6.49599 1.17522 6.5585 1.80518 7.0418 2.21616C7.40414 1.62525 7.76652 1.02739 8.12903 0.440708C8.18502 0.468904 8.24102 0.496858 8.29701 0.527148C8.44122 0.82192 8.52364 1.43042 8.65833 1.67852C9.17212 2.57947 9.05047 0.88641 9.36535 1.16486C9.34893 2.11986 9.33267 3.07266 9.31637 4.03596C9.54908 4.07052 10.2114 0.389926 10.9146 0.43804C10.9602 0.737471 11.0058 1.03642 11.0514 1.34076C11.2308 1.19677 11.41 1.07907 11.5894 0.938089C11.6458 0.974944 11.7021 1.01314 11.7585 1.05273C11.8946 1.55631 12.0307 2.0624 12.1668 2.57191C12.101 1.81273 12.0945 1.23038 12.2804 0.824095C12.3733 0.613136 12.5145 0.441117 12.7204 0.301678C12.8233 0.230008 12.9425 0.169102 13.08 0.111635C13.1487 0.0857315 13.222 0.0562319 13.3001 0.0368348C13.3197 0.0304114 13.3395 0.0260906 13.3596 0.0244911C13.3697 0.0237258 13.3799 0.0217003 13.3899 0.0335025C13.3924 0.0366455 13.3949 0.0407647 13.3973 0.0477792C13.3979 0.0495461 13.3985 0.0515119 13.3991 0.0537544C13.3991 0.062801 13.4008 0.0270332 13.3984 0.104672C13.3973 0.12853 13.3978 0.145771 13.3896 0.247078C13.3793 0.31726 13.3958 0.331326 13.3164 0.694796C13.2889 0.799284 13.263 0.928652 13.1408 1.21194C13.0747 1.35588 12.9886 1.54507 12.7745 1.82862C12.5559 2.09927 12.1911 2.54642 11.3575 2.84934C10.5255 3.1789 9.33366 2.95691 8.77011 2.55994C8.16951 2.1732 7.95399 1.8254 7.79998 1.59549C7.52167 1.12975 7.49773 0.950177 7.44843 0.802885C7.37591 0.532102 7.37354 0.455075 7.36132 0.379208C7.35228 0.309976 7.34893 0.271384 7.34617 0.240343C7.34112 0.180355 7.33993 0.153499 7.33871 0.131158C7.33663 0.0891685 7.33628 0.0735189 7.33581 0.0598011C7.33294 -0.0247262 7.33268 0.0280366 7.33113 0.0130521C7.32591 0.00453916 7.32075 0.0021555 7.31556 0.000617333C7.27412 -0.00202863 7.23145 0.0145036 7.1875 0.0249507C7.17854 0.014758 7.16959 0.00316301 7.16063 0.000163484C7.1584 -0.000295751 7.15614 -0.000742996 7.15397 0.00939026C7.15343 0.0121008 7.1529 0.0156238 7.15241 0.0213172C7.15239 0.0222441 7.15209 0.0183984 7.15283 0.057359C7.15451 0.0883329 7.14975 0.0712119 7.16377 0.259048C7.17191 0.324813 7.16562 0.367566 7.22366 0.658274C7.2412 0.737308 7.26295 0.836858 7.31961 1.00756C7.38872 1.18406 7.43643 1.41671 7.80813 1.92937C8.00629 2.1809 8.308 2.54351 8.94577 2.86706C9.56332 3.19979 10.6051 3.3129 11.3587 3.0425C12.8798 2.4437 13.0281 1.73008 13.2281 1.45456C13.5163 0.845402 13.4854 0.7379 13.5253 0.598659C13.5483 0.47899 13.5552 0.419072 13.5614 0.370408C13.5724 0.27763 13.5746 0.240098 13.577 0.207963C13.5877 0.0260773 13.5832 0.0668168 13.5842 0.059346C13.5843 0.0582996 13.5844 0.0573096 13.5845 0.0563679C13.5849 0.0526055 13.5852 0.0495977 13.5855 0.0470346C13.5869 0.0369944 13.588 0.032991 13.5892 0.0301421C13.5938 0.0214035 13.5982 0.0285848 13.6026 0.0305475C13.6204 0.0496568 13.6382 0.0649594 13.6559 0.087633C12.7738 0.40115 13.0503 1.99385 13.2214 2.82352C13.4801 2.65177 13.2847 1.91752 13.4405 1.76188C13.4852 1.71931 13.6633 1.86965 13.7554 1.77078C13.9949 1.50307 14.3073 0.373488 14.5981 0.53571C14.7848 0.646413 15.0324 2.4717 15.0109 2.83271C15.352 1.99467 15.4538 1.13278 15.8677 0.29946C16.4354 0.830619 17.1313 1.3053 17.1573 2.26916C17.4551 2.5741 17.8806 0.518271 18.0444 0.478399C18.2179 0.827299 18.3914 1.18561 18.5649 1.53947C18.5197 1.23992 18.4744 0.94818 18.4293 0.643558C18.4879 0.642941 18.5465 0.642325 18.6051 0.641711C18.8728 1.41352 19.3683 2.12757 19.3299 3.02109C19.6401 2.99406 19.6119 2.4624 19.6161 2.201ZM1.35102 87.1327C1.09362 87.1476 1.143 86.8125 1.15142 86.6432C1.10409 86.6688 1.05675 86.6944 1.00942 86.7198C1.06596 86.3482 1.17878 85.6138 0.680348 85.5858C0.623515 85.3112 1.05492 85.4398 1.10594 85.3519C1.12624 85.322 0.88088 84.9348 1.19277 84.6673C1.19274 84.5999 1.1927 84.5321 1.19266 84.4638C1.02935 84.4478 0.866029 84.4317 0.702713 84.4157C0.902892 84.3238 1.10307 84.2308 1.30325 84.1369C1.32162 85.1207 1.33749 86.1462 1.35105 87.1312C1.35104 87.1317 1.35103 87.1322 1.35102 87.1327ZM1.29339 77.1343C1.38977 76.7782 1.54173 76.2144 1.09252 76.3234C1.11354 76.5567 1.13456 76.7873 1.15558 77.0151C1.20151 77.0549 1.24745 77.0947 1.29339 77.1343ZM1.92567 40.5473C2.36848 40.2421 1.98865 39.9567 2.071 39.483C1.97782 39.4831 1.88464 39.4831 1.79146 39.4832C2.01408 39.6783 1.86225 40.1907 1.92567 40.5473ZM2.66005 94.3654C2.62277 94.3686 2.58773 94.364 2.55583 94.3504C2.0832 94.183 2.42253 94.2878 2.42122 94.1121C2.42125 94.1006 2.3097 94.0738 2.31006 94.0699C2.31305 94.0404 2.37397 94.0253 2.42056 94.0041C2.44673 93.9922 2.46684 93.9841 2.46834 93.9755C2.47592 93.9288 2.32159 93.9677 2.3195 94.009C2.32059 94.0275 2.54051 94.0461 2.53604 94.0372C2.52988 94.0483 1.958 93.7598 2.23911 93.514C2.43536 93.3483 2.55283 93.5441 2.61784 93.7996C2.65131 93.9187 2.6693 94.0501 2.69077 94.0754C2.70578 94.1234 2.76739 93.9374 2.73846 94.0895C2.69346 94.3101 2.67481 94.3586 2.66005 94.3654ZM4.43831 91.8504C4.22408 91.9717 4.01967 92.1065 3.83339 92.2466C4.60764 92.0938 3.34669 92.9339 3.02733 93.45C3.16763 93.5396 3.37499 93.303 3.80415 92.9301C4.22016 92.5549 4.91975 92.1291 5.36219 92.0173C5.07458 91.933 4.76352 91.8764 4.43831 91.8504ZM3.24642 89.9416C3.27155 90.1998 2.86856 90.1419 2.74849 90.1284C2.75096 90.0496 2.75362 89.9631 2.7559 89.8878C2.91941 89.9057 3.08291 89.9237 3.24642 89.9416ZM3.32045 91.7957C3.04966 91.7039 2.95067 91.1751 2.93668 90.9273C2.93702 90.9161 3.08527 90.9913 3.07754 90.8128C3.07536 90.7558 2.54436 90.2117 3.16284 90.348C3.21752 90.8334 3.27036 91.3207 3.32048 91.795C3.32047 91.7952 3.32046 91.7954 3.32045 91.7957ZM3.13439 92.3092C3.05282 92.2116 2.97164 92.1016 2.88969 92.0047C3.02073 91.9622 3.15178 91.9187 3.28285 91.8739C3.31052 91.9862 3.33825 92.093 3.36526 92.2101C3.2883 92.2439 3.21134 92.2769 3.13439 92.3092ZM4.23644 13.8521C4.09838 13.8754 3.96033 13.8987 3.82228 13.922C3.73727 14.0134 4.33556 14.4768 4.45254 14.3316C4.38051 14.17 4.30848 14.0102 4.23644 13.8521ZM4.53545 11.9181C4.60551 11.8214 4.67557 11.7254 4.74563 11.6302C4.51222 11.5191 4.27881 11.4091 4.0454 11.3C3.88527 11.7661 3.70083 12.293 4.39115 12.2113C4.39062 12.3167 4.39009 12.4231 4.38955 12.5303C4.10475 12.4391 4.01071 12.4491 3.82825 12.7311C4.22488 12.7952 4.02118 13.0875 4.10669 13.4361C4.13115 13.1832 4.15559 12.935 4.18001 12.6914C4.24999 12.6918 4.31997 12.6921 4.38996 12.6925C4.36193 13.2396 4.80928 12.5573 4.53274 12.2135C4.62606 12.1854 4.71939 12.1565 4.81271 12.1281C4.72029 12.0577 4.62787 11.9877 4.53545 11.9181ZM4.17506 51.4992C4.24589 51.4319 4.31672 51.3645 4.38756 51.2972C3.47247 51.0282 4.33867 51.5694 3.61061 51.945C4.16261 51.8229 4.13575 52.4027 4.17254 52.437C4.35853 52.3712 4.54451 52.3054 4.73049 52.2396C4.54535 51.993 4.36021 51.7462 4.17506 51.4992ZM4.8198 49.5792C4.36107 49.8115 4.34043 48.6559 4.4436 48.2683C4.46897 48.1741 4.72108 48.0075 4.68981 47.9392C4.5973 47.8973 4.50479 47.8554 4.41228 47.8136C4.73322 47.7667 4.37747 47.0072 4.20677 46.7078C4.32372 46.6804 4.44067 46.6531 4.55762 46.6257C4.51191 46.5166 4.46619 46.4076 4.42048 46.2986C4.53676 46.313 4.65305 46.3274 4.76933 46.3417C4.62987 46.2586 4.49041 46.1755 4.35095 46.0923C4.19724 45.7684 4.83042 45.9714 4.63395 45.7276C4.41579 45.4564 4.0353 45.8962 3.78948 45.8865C3.85155 46.1057 3.99041 46.6043 3.99608 46.8266C3.99907 46.9542 3.55947 46.8068 4.06234 47.3598C3.94359 47.4797 3.82484 47.5994 3.70609 47.7192C3.89228 47.9415 4.07846 48.1644 4.26463 48.3869C4.10121 48.4271 3.93779 48.4674 3.77437 48.5076C3.74869 48.5311 4.11592 49.0453 4.23866 49.0187C3.92545 49.224 3.86714 49.649 3.84847 50.0967C3.93689 50.1405 4.02531 50.1843 4.11373 50.2281C3.92496 49.7928 4.20847 50.0906 4.37911 49.9624C4.47752 49.8886 4.67132 49.6618 4.8198 49.5792ZM4.57894 16.8748C4.18451 16.1547 4.51068 16.6065 4.51471 15.8087C4.30367 15.8631 4.09262 15.9175 3.88158 15.9722C4.26463 16.3787 4.00547 16.9908 4.57894 16.8755C4.57894 16.8753 4.57894 16.875 4.57894 16.8748ZM3.91696 9.16858C4.04238 9.58415 4.3712 9.3775 4.4735 9.91399C4.4735 9.91424 4.4735 9.91448 4.4735 9.91472C4.49848 9.63917 4.5235 9.3571 4.54845 9.09008C4.33795 9.11616 4.12746 9.14233 3.91696 9.16858ZM4.04663 33.5236C3.95286 33.9216 4.11729 33.844 3.78776 34.2051C4.18209 34.7487 4.12846 34.29 4.48917 34.292C4.38406 34.1678 4.27895 34.0436 4.17384 33.9197C4.5128 33.6227 4.68106 33.907 4.71346 33.9073C4.71346 33.907 4.71346 33.9068 4.71346 33.9065C4.82174 33.9071 4.84447 33.9169 4.91056 33.8026C4.62259 33.7095 4.33461 33.6165 4.04663 33.5236ZM4.48271 35.2369C4.24393 35.0993 3.93674 35.0362 3.78116 35.3937C3.78116 35.394 3.78116 35.3942 3.78116 35.3945C4.31634 35.4262 3.88232 35.7679 3.91735 35.9256C3.97531 35.9672 4.03326 36.0088 4.09121 36.0504C4.22172 35.7785 4.35222 35.5073 4.48271 35.2369ZM4.94025 41.2623C4.34886 41.2603 4.29437 40.9572 3.74694 41.38C3.75704 41.4624 3.76714 41.5448 3.77723 41.6272C3.90671 41.6821 4.03618 41.7369 4.16566 41.7918C3.08935 42.8319 4.90971 43.1536 4.23886 41.3829C4.23846 41.3827 4.23805 41.3824 4.23765 41.3822C4.47185 41.3425 4.70605 41.3023 4.94025 41.2623ZM4.90092 39.4175C4.59055 39.4025 4.28018 39.3874 3.9698 39.3724C4.72002 39.1478 4.0072 38.8409 4.53817 38.3904C4.44401 38.3488 4.34985 38.3072 4.25569 38.2656C4.4644 38.0964 4.53364 36.436 4.05408 36.7924C3.84465 36.9504 4.12595 37.2935 4.11945 37.3228C4.09546 37.4223 3.82801 37.5508 3.84254 37.7194C3.85132 37.8168 4.16364 38.024 4.16193 38.2233C4.15799 38.6691 3.31164 39.4786 4.10494 40.0669C4.01112 40.1084 3.91729 40.15 3.82346 40.1916C3.87804 40.6264 4.17541 40.483 3.81942 40.8859C5.2924 41.1732 3.75613 39.2604 4.94955 39.664C4.94955 39.6637 4.94955 39.6635 4.94955 39.6632C4.93335 39.5813 4.91714 39.4994 4.90092 39.4175ZM4.52481 27.4494C4.78975 27.4242 4.38379 26.9225 5.01766 27.0433C4.79757 26.8807 4.5775 26.7126 4.35744 26.5452C4.29843 26.5462 4.23943 26.5471 4.18042 26.5481C4.22594 26.7136 4.27146 26.8796 4.317 27.0403C4.22341 27.0405 4.12983 27.0406 4.03624 27.0407C4.37354 27.2816 4.2207 28.2982 3.8894 28.2667C4.02908 28.3221 4.16876 28.3775 4.30844 28.433C3.92467 28.9275 4.32776 29.3329 3.95293 29.8636C4.06867 29.9053 4.18442 29.947 4.30016 29.9887C4.20643 30.015 4.1127 30.0413 4.01898 30.0676C4.00614 30.261 3.9933 30.4551 3.98046 30.6498C4.35386 31.2855 4.84832 30.0562 4.79374 29.9091C4.78609 29.8894 4.5438 29.8911 4.50641 29.7679C4.4408 29.5495 4.68851 28.3312 4.53072 27.9482C4.69146 27.9457 4.8522 27.9433 5.01293 27.9409C4.85023 27.7765 4.68752 27.6127 4.52481 27.4494ZM4.2941 43.5948C4.13037 43.6214 3.96664 43.648 3.8029 43.6745C3.96341 44.1511 3.8188 44.4502 4.36047 44.3314C4.36047 44.3312 4.36047 44.3309 4.36047 44.3307C4.33835 44.0852 4.31623 43.8399 4.2941 43.5948ZM3.87182 78.9636C4.19712 78.9539 4.32153 78.7252 4.09191 78.4369C3.99735 78.4497 3.90279 78.4624 3.80823 78.4752C4.08327 78.6276 3.59847 78.8098 3.65654 79.2908C3.82009 79.2929 3.98365 79.2949 4.14721 79.297C4.05541 79.1866 3.96362 79.0755 3.87182 78.9636ZM4.36736 43.1837C4.56109 43.0394 3.97842 42.6282 3.94794 42.8963C3.92489 43.1014 4.26333 43.2612 4.36736 43.1837ZM4.24136 7.53256C4.20664 7.64068 4.17188 7.75527 4.13717 7.8616C4.27605 7.9164 4.41493 7.97157 4.5538 8.0271C4.5538 8.02686 4.55381 8.02661 4.55381 8.02636C4.44962 7.87003 4.3455 7.69918 4.24136 7.53256ZM4.02724 32.1579C4.04559 32.5239 4.06392 32.894 4.08228 33.255C4.173 33.2591 4.26371 33.2632 4.35443 33.2673C4.0253 32.9022 4.38298 32.7571 4.4053 32.6708C4.40529 32.6712 4.40529 32.6715 4.40529 32.6719C4.47864 32.3964 4.53292 32.1348 4.64277 31.8762C4.43759 31.97 4.23241 32.0639 4.02724 32.1579ZM4.60647 30.9129C3.96504 30.9707 3.88997 31.0487 4.33782 31.6105C4.41687 31.5887 4.49593 31.567 4.57498 31.5453C4.52937 31.2552 4.38226 31.0863 4.71634 31.1388C4.67971 31.0634 4.64309 30.9881 4.60647 30.9129ZM4.36995 36.6271C4.57443 36.5605 4.37247 36.0242 4.26942 36.0529C4.2285 36.0638 3.96905 36.7564 4.36995 36.6271ZM3.95739 83.0046C4.00609 82.8825 4.05493 82.7498 4.10347 82.6357C4.17067 82.7921 4.23751 82.9696 4.30453 83.133C4.18882 83.0903 4.0731 83.0475 3.95739 83.0046ZM4.84714 84.3647C4.76393 84.4499 4.19249 84.1598 4.0348 84.6739C4.02908 84.3045 4.02367 83.8993 4.01731 83.5367C4.10761 83.7152 4.19805 83.883 4.28807 84.0719C4.45418 84.0429 4.6203 84.0138 4.78641 83.9846C4.80666 84.1128 4.8269 84.2395 4.84714 84.3647ZM4.41784 84.7614C4.8597 84.5595 4.87296 85.6489 4.81744 85.7403C4.80429 85.7621 4.47024 85.8592 4.39814 85.8956C4.40077 85.7383 4.40339 85.5783 4.40601 85.4154C4.30044 85.4679 4.19488 85.5201 4.08931 85.572C4.05706 85.383 4.02479 85.1902 3.99251 84.9934C4.09596 85.0791 4.19942 85.1642 4.30287 85.2486C4.3413 85.0834 4.37969 84.917 4.41784 84.7614ZM4.37773 80.4396C4.36488 80.5785 4.35203 80.716 4.33918 80.8522C4.50311 80.8272 4.66704 80.8021 4.83096 80.777C4.83208 80.695 4.8332 80.6126 4.83431 80.5297C4.68212 80.4997 4.52993 80.4697 4.37773 80.4396ZM4.54852 83.2218C3.76421 83.0112 5.4943 82.4832 4.8468 83.1185C4.78098 83.1819 4.6243 83.2419 4.54852 83.2218ZM4.7157 86.1391C5.28124 86.5785 4.0157 86.4587 4.39495 86.0592C4.41511 86.0389 4.67395 86.1058 4.7157 86.1391ZM4.66116 89.2869C4.65604 89.3167 4.24397 89.3752 4.6248 89.7077C4.57649 89.7591 4.52817 89.81 4.47986 89.8603C4.29334 89.7366 4.2089 88.6645 4.61134 88.8213C4.61336 88.9873 4.67832 89.1242 4.66116 89.2869ZM6.20585 88.2938C6.19835 88.1333 6.19088 87.9675 6.18333 87.8006C6.05355 87.8514 5.9237 87.9047 5.79388 87.956C5.7608 87.874 5.72777 87.7889 5.69449 87.7133C5.9192 87.5864 6.14391 87.457 6.36862 87.3249C6.39637 87.6738 6.42353 88.0316 6.45035 88.3816C6.36885 88.3525 6.28735 88.3232 6.20585 88.2938ZM6.60918 83.9806C6.44244 84.3042 6.60787 84.6774 6.57113 85.1877C6.57072 85.188 6.57031 85.1882 6.5699 85.1885C6.56755 85.2143 6.39011 85.2571 6.38156 85.3395C6.37501 85.4104 6.54203 86.7844 6.2446 86.6689C5.98703 86.1386 6.39892 85.9337 5.73558 85.8025C5.87641 85.78 6.01725 85.7573 6.15808 85.7346C6.41055 85.2386 5.92769 85.0576 5.75427 84.7842C5.86003 84.7872 5.96578 84.7902 6.07154 84.7931C6.08542 84.606 6.09929 84.4155 6.11315 84.2213C6.04312 84.2475 5.97309 84.2737 5.90306 84.2997C5.90422 84.2314 5.90538 84.1625 5.90654 84.0933C6.22286 83.9262 6.29925 83.724 6.60918 83.9806ZM6.01278 89.0215C6.812 89.1783 6.22114 90.6237 6.3633 91.2839C5.89328 90.9282 6.24387 90.4092 6.26053 90.0183C6.29092 89.2993 5.98061 89.7881 5.85463 89.6621C5.79242 89.5983 6.31842 89.1932 6.01278 89.0215ZM6.48709 82.8354C6.41643 83.2139 6.59786 83.4232 6.29831 83.7317C6.24015 83.7046 6.18199 83.6774 6.12384 83.6502C6.17923 83.5499 6.36261 82.6451 6.48709 82.8354ZM6.11392 92.2285C6.43206 91.5604 5.69161 91.8551 6.25014 91.5265C6.27579 91.7546 6.29955 92.0113 6.32365 92.2382C6.25374 92.2349 6.18383 92.2317 6.11392 92.2285ZM7.39089 42.3817C7.41104 42.0801 7.55944 41.7446 7.25779 41.5628C7.20979 41.7671 7.16179 41.9715 7.11379 42.1761C7.20616 42.2446 7.29852 42.3132 7.39089 42.3817ZM10.2952 51.0063C10.3682 50.9379 10.1558 50.6638 10.156 50.635C10.1563 50.5816 10.2617 50.5969 10.2893 50.5963C10.2724 50.2466 9.94313 50.567 9.87366 50.3078C9.86221 50.263 10.0278 49.658 10.0161 49.4111C9.99812 49.0314 10.0217 48.6522 10.017 48.5102C10.0093 48.2705 9.76664 47.8239 9.75641 47.4304C9.75262 47.2681 9.94947 47.2126 9.94555 47.0494C9.91898 46.0018 9.66171 43.9387 9.79192 43.0092C9.82428 42.7795 10.0829 42.562 10.0626 42.4404C9.9692 42.3442 9.87578 42.2479 9.78236 42.1517C10.6302 41.8625 9.87823 41.7597 9.80118 41.4426C9.7525 41.2408 10.0037 41.1472 10.0033 41.1201C9.99939 40.94 9.88057 40.8506 9.86163 40.7092C9.84071 40.5505 9.9551 40.3237 9.935 40.267C9.92151 40.2323 9.58768 40.3408 9.59755 39.7277C9.60772 39.1062 9.64652 38.4811 9.66571 37.8468C8.65857 38.0531 9.34599 38.2398 9.38122 38.5003C9.39069 38.5702 9.23122 38.525 9.23792 38.5858C9.25598 38.7576 9.41102 39.0881 9.37215 39.2302C9.33024 39.3826 8.96037 39.3283 9.09582 39.5227C9.1028 39.5326 9.25586 39.5025 9.28121 39.5482C9.53148 40.0079 9.2647 40.1564 9.25356 40.7377C9.24573 41.1263 9.38363 43.4586 9.28337 43.5409C8.74547 43.9556 8.75648 41.4928 8.80039 41.206C8.81584 41.105 8.98401 41.2119 9.01695 41.12C9.03013 41.0811 8.71031 40.7282 8.68557 40.3821C8.65562 39.9626 8.87999 39.1283 8.87457 38.726C8.82729 35.2951 9.04027 31.9245 9.06266 28.4973C9.06305 28.4237 8.87072 28.3256 8.87196 28.0869C8.89817 23.7791 9.06495 19.2871 9.01073 14.9205C9.00926 14.7962 9.00762 14.6729 9.0058 14.5508C8.99098 13.5689 8.81443 12.6118 8.96319 11.6077C8.82303 11.4843 8.68286 11.3622 8.54268 11.2414C8.65309 11.5464 8.33171 12.1311 8.32675 12.1869C8.32523 12.2095 8.48341 12.3226 8.47405 12.5113C8.46144 12.7764 8.32319 12.8956 8.32308 12.9175C8.3223 12.9864 8.46893 12.942 8.46789 13.0079C8.45903 13.5111 8.49877 13.8714 8.49791 14.3231C8.49736 14.5613 8.43717 14.7477 8.40361 14.9175C8.36546 15.0993 8.36186 15.2608 8.52031 15.4565C8.40333 15.4974 8.28634 15.5384 8.16936 15.5795C8.67297 15.8644 8.60887 17.4971 8.57871 18.1707C8.56915 18.3771 8.36423 18.3402 8.36388 18.4098C8.36391 18.4551 8.63256 18.4354 8.57704 18.9861C8.54886 19.2644 8.35286 19.3376 8.35849 19.4788C8.36184 19.5549 8.55589 19.5467 8.55536 19.6526C8.55226 20.2654 8.4867 20.7822 8.44762 21.4008C8.43689 21.5702 8.27496 21.5715 8.27688 21.6095C8.28341 21.7498 8.55638 21.9952 8.55382 22.357C8.54931 22.964 8.54239 24.1273 8.40668 24.6225C8.38658 24.6945 8.192 24.7534 8.19454 24.8066C8.19909 24.8872 8.40161 24.9199 8.40262 24.9341C8.40478 25.1973 8.21713 25.0378 8.26201 25.2141C8.2862 25.3092 8.51685 25.4093 8.54182 25.6315C8.57481 25.9252 8.30072 25.8662 8.32756 25.9894C8.33178 26.0025 8.52256 26.0073 8.52824 26.1286C8.54837 26.5919 8.58897 27.2548 8.58599 27.6865C8.58534 27.8109 8.45641 27.9029 8.45332 28.0772C8.44721 28.4366 8.51853 30.4139 8.44362 30.5845C8.43578 30.6019 8.15529 30.4218 8.16221 30.7064C8.27895 30.7902 8.39569 30.8725 8.51244 30.9541C8.32413 31.089 8.13582 31.2241 7.94751 31.3595C8.59563 31.3574 8.69135 32.1634 8.02867 32.1524C8.00133 32.2408 7.97399 32.3292 7.94666 32.4177C8.40354 32.6037 8.23381 32.731 8.50088 33.0834C8.3602 33.1376 8.21953 33.1919 8.07885 33.2461C8.17236 33.2605 8.26586 33.2749 8.35937 33.2892C7.8512 33.4749 8.3587 33.7879 8.36131 33.8257C8.37176 33.9708 8.24224 34.0793 8.24601 34.1475C8.258 34.401 8.43253 34.9598 8.34854 35.2516C8.34423 35.2655 8.12752 35.2506 8.10028 35.3346C8.05108 35.4861 8.36839 35.5026 7.99446 35.7032C8.08782 35.7447 8.18117 35.7862 8.27452 35.8277C8.22586 35.8709 8.1772 35.9142 8.12854 35.9574C8.15192 36.2145 8.17529 36.4721 8.19866 36.7303C7.83293 36.4936 7.62642 36.7623 7.91383 37.0197C8.01129 37.1068 8.23515 37.0313 8.26882 37.0603C8.3144 37.0991 8.19411 38.2489 8.04924 38.3253C8.11931 38.3803 8.18939 38.4354 8.25947 38.4905C8.11853 38.5173 7.97759 38.5442 7.83665 38.571C7.88571 38.6015 7.93477 38.632 7.98383 38.6624C7.73415 38.9632 8.29842 39.7438 8.25267 39.8845C8.22828 39.9597 7.62862 39.8883 7.68781 40.2502C7.85253 40.2637 8.01724 40.2772 8.18196 40.2907C8.20508 40.3736 8.22819 40.4566 8.25131 40.5397C8.23571 40.6951 7.9488 40.9201 7.75346 40.9262C7.87035 40.9756 7.98725 41.0249 8.10415 41.0743C7.72158 41.204 7.85283 41.8981 8.09276 42.1793C7.97713 42.2604 7.8615 42.3415 7.74587 42.4226C7.88518 42.5333 8.0245 42.6441 8.16381 42.7549C8.20444 43.01 7.97336 42.7394 7.95362 42.7936C7.91279 42.9082 8.30236 43.4966 7.81296 43.4551C7.81126 43.5352 7.80956 43.6147 7.80786 43.6944C7.94758 43.7363 8.0873 43.7781 8.22702 43.8199C7.74363 43.9538 7.91257 44.1915 7.73358 44.6766C7.84441 44.718 7.95524 44.7595 8.06607 44.801C7.90729 44.9504 7.7485 45.0998 7.58972 45.2492C7.77344 45.2812 7.95716 45.3132 8.14088 45.3453C8.16693 45.4108 8.19298 45.4764 8.21903 45.542C7.80624 45.6725 8.24996 45.9136 8.07929 46.034C7.83021 46.2096 7.53556 46.0708 7.48051 45.7417C7.18033 45.7644 7.31206 46.7447 7.33255 46.9707C7.39123 46.9561 7.44991 46.9416 7.5086 46.927C7.46365 46.6957 7.41869 46.4645 7.37373 46.2332C8.12945 46.0444 7.92322 46.6703 8.01865 46.9588C8.0278 46.9851 8.31274 47.1361 8.28429 47.4261C8.27302 47.5384 7.85246 47.9739 7.82868 48.0576C7.63363 48.7323 8.23379 48.2391 7.70619 48.8969C8.10793 48.7617 7.77242 49.1395 7.84739 49.535C7.86021 49.6025 8.18151 50.174 8.18972 50.2133C8.2403 50.4543 7.88767 50.19 7.97766 50.5388C8.07056 50.5812 8.16347 50.6236 8.25637 50.6661C8.25585 50.7471 8.25532 50.8281 8.25479 50.909C7.42124 51.3949 8.03197 51.5129 8.10933 51.6878C8.14057 51.7585 7.92452 51.6664 7.96911 51.8493C7.9857 51.9181 8.16543 51.9956 8.17689 52.1805C8.21243 52.7613 7.43957 52.954 8.23896 53.4921C8.12205 53.573 8.00513 53.654 7.88821 53.7349C8.0274 53.791 8.16659 53.847 8.30578 53.9031C7.89796 54.3216 8.31377 54.1722 8.30781 54.3242C8.2924 54.7274 8.20732 55.5532 7.8729 55.6224C8.63756 55.9752 7.76934 56.3832 7.79831 56.5197C7.89092 56.6011 7.98352 56.6844 8.07612 56.7668C7.98186 56.8623 7.8876 56.9578 7.79334 57.0531C8.54692 57.0119 7.80269 57.5036 7.79104 57.5509C7.77939 57.6062 7.99687 58.369 7.99069 58.6505C7.98441 58.9352 7.77669 59.43 7.77597 59.4732C7.77561 59.5235 7.97681 60.008 7.97191 60.3831C7.96736 60.7075 7.66158 62.6707 7.99829 62.5451C8.09226 62.4188 8.17425 62.2383 8.21913 62.0815C8.35685 61.5943 8.54959 58.7204 8.6082 57.9926C8.72509 56.521 8.71597 54.9864 8.79913 53.5124C8.80393 53.4255 8.99925 53.4136 9.00414 53.3391C9.01054 53.226 8.81706 52.9372 8.82203 52.8255C8.84172 52.4075 8.87692 51.9017 8.88331 51.679C8.89645 51.181 9.01624 50.8395 9.03771 50.4619C9.04412 50.3433 8.80594 49.745 8.91066 49.3367C8.96606 49.2629 9.02146 49.1891 9.07686 49.1153C9.13963 49.3266 9.30198 49.8801 9.31935 50.1368C9.34432 50.5198 9.18467 50.7182 9.1865 50.8593C9.18785 50.9776 9.36427 51.5823 9.36676 51.8566C9.36761 51.9418 9.16275 51.9579 9.16298 52.0307C9.16531 52.4254 9.1673 52.9504 9.36576 53.2949C9.30119 53.1544 9.16971 54.0287 9.17009 54.0741C9.16962 54.1526 9.36063 54.2391 9.35954 54.3993C9.35733 54.709 8.95689 54.6675 9.35505 55.0573C9.23762 55.1524 9.12019 55.2473 9.00276 55.3422C9.53656 55.3537 8.8021 56.5496 9.44845 56.9019C9.52171 56.9076 9.74048 55.3459 9.75192 55.2143C9.82139 54.4323 9.6982 53.288 9.79688 52.5305C9.82657 52.3015 10.1558 51.5928 10.1501 51.5383C10.1415 51.4515 9.95534 51.5287 9.94898 51.4911C9.81596 50.7222 10.1866 51.1077 10.2952 51.0063ZM6.94668 84.8053C6.97266 84.578 6.99863 84.3455 7.02459 84.1078C7.14146 84.127 7.25834 84.1462 7.37522 84.1655C7.32783 84.2734 7.28043 84.3803 7.23303 84.4861C7.3016 84.5692 7.37016 84.6517 7.43872 84.7336C7.2747 84.7576 7.11069 84.7815 6.94668 84.8053ZM7.42693 85.3894C7.48217 85.5937 7.23491 85.5978 7.22196 85.644C7.18275 85.781 7.2804 85.9001 7.2744 86.0303C6.69042 85.8699 6.96555 85.5496 7.42693 85.3894ZM7.70464 81.2227C7.67591 81.2685 7.03998 81.5516 7.62272 81.9176C7.43217 82.1771 7.24161 82.4312 7.05104 82.6799C7.34282 82.2619 7.05535 81.6261 7.06953 81.4181C7.07494 81.3385 7.26911 81.3259 7.27316 81.2618C7.29383 80.8927 6.85934 80.5137 7.50233 80.4829C7.31079 80.8439 7.73996 81.166 7.70464 81.2227ZM7.44243 83.4924C7.30722 83.55 7.172 83.6073 7.03679 83.6642C7.04026 83.4506 7.04372 83.2329 7.04717 83.0111C7.18212 83.0732 7.31707 83.135 7.45202 83.1966C7.44882 83.296 7.44563 83.3946 7.44243 83.4924ZM8.07217 66.7299C8.06944 66.8617 8.06665 67.001 8.06388 67.136C8.1618 67.1294 8.16273 66.974 8.2293 66.9171C8.2293 66.9173 8.22929 66.9176 8.22929 66.9179C8.3045 66.855 8.43029 66.8816 8.48689 66.7684C8.34865 66.7556 8.21041 66.7428 8.07217 66.7299ZM8.96338 11.0847C8.97162 10.8463 8.9828 8.76815 8.625 8.95088C8.44635 9.03054 8.59815 9.75239 8.59427 9.96354C8.58931 10.2308 8.19942 11.013 8.96338 11.0847ZM9.05156 7.39079C8.69608 7.35865 8.63302 8.64631 8.69418 8.78907C8.74503 8.76134 8.85812 8.71892 8.88392 8.68208C9.00745 8.49495 8.95288 7.68231 9.05156 7.39079ZM9.15729 59.2089C8.97668 59.3129 8.79608 59.4167 8.61547 59.5205C8.84962 59.4945 9.08378 59.4686 9.31794 59.4426C9.26439 59.3648 9.21084 59.2869 9.15729 59.2089ZM8.96876 49.0303C8.99126 47.2822 9.01343 45.5342 9.03531 43.7875C9.13164 43.9416 9.22796 44.0958 9.32427 44.25C9.28067 45.7562 9.1723 47.3607 9.31313 48.8168C9.19834 48.888 9.08355 48.9592 8.96876 49.0303ZM8.76472 80.7474C8.77445 80.2868 8.6073 79.9275 8.88682 79.4416C9.14572 79.9152 8.73328 80.1109 9.11725 80.5865C9.11725 80.5868 9.11724 80.587 9.11724 80.5873C8.99973 80.6409 8.88222 80.6942 8.76472 80.7474ZM8.94519 70.7496C9.10748 70.8893 9.26977 71.0284 9.43206 71.1669C9.43359 71.0021 9.43512 70.8364 9.43665 70.67C9.27283 70.6966 9.10901 70.7231 8.94519 70.7496ZM9.96793 33.7887C9.61349 33.3218 10.2662 32.1228 9.83873 31.7402C9.81069 31.7156 9.62822 31.9404 9.27934 31.5734C9.34969 31.8494 9.42194 32.0454 9.6978 32.0675C9.60377 32.1493 9.50974 32.2311 9.41571 32.313C9.48576 32.4501 9.55582 32.5875 9.62586 32.7251C9.35119 32.7084 9.36576 32.7205 9.55272 32.9307C9.48263 33.0249 9.41253 33.1193 9.34244 33.2137C9.45858 33.2546 9.57473 33.2954 9.69088 33.3363C9.52768 33.4176 9.36447 33.4989 9.20127 33.5804C9.37606 33.9026 9.69249 33.7087 9.96793 33.7887ZM9.89171 35.4293C9.95262 35.3593 9.76733 33.1766 9.21393 34.1634C9.23001 34.4205 9.24608 34.6783 9.26214 34.9368C10.1707 34.7301 9.35537 35.4215 9.33603 35.4787C9.24586 35.7519 9.45969 36.1031 9.44738 36.3027C9.43656 36.4744 9.2732 36.5757 9.27671 36.6967C9.28846 37.1122 9.29075 37.7542 9.66571 37.8468C9.67533 37.5273 9.68118 37.2078 9.67366 36.8729C9.66579 36.5202 10.0219 36.212 9.53947 35.5515C9.59262 35.3893 9.87611 35.4488 9.89171 35.4293ZM9.39038 71.5776C9.01339 71.5593 9.09578 72.3809 9.24475 72.3858C9.33209 72.3885 9.33257 72.1228 9.36604 72.0848C9.36604 72.0846 9.36605 72.0843 9.36605 72.0841C9.38067 72.0683 9.52427 72.1503 9.56559 72.0253C9.50719 71.8768 9.44878 71.7275 9.39038 71.5776ZM9.79064 14.3186C10.0028 14.2112 9.93952 11.6584 9.8386 11.573C9.81056 11.5524 9.71758 11.5804 9.66404 11.5721C9.95957 12.187 9.60202 13.0059 9.57578 13.5926C9.56871 13.7462 9.71888 13.7012 9.72167 13.7099C9.72167 13.7103 9.72167 13.7106 9.72167 13.711C9.7216 13.7975 9.35329 14.196 9.79064 14.3186ZM9.67103 30.9238C9.61145 31.0313 9.55187 31.139 9.49229 31.2469C9.60891 31.2749 9.72554 31.303 9.84217 31.3311C9.84217 31.3309 9.84217 31.3306 9.84217 31.3304C9.78513 31.1946 9.72808 31.0591 9.67103 30.9238ZM10.0756 27.1544C9.99325 27.1802 9.91092 27.2061 9.8286 27.2319C9.81578 27.5036 9.80294 27.7768 9.7901 28.0514C9.74386 28.0235 9.69762 27.9955 9.65138 27.9676C9.5252 28.3821 9.81312 28.5573 9.77037 28.7801C9.77038 28.7799 9.77038 28.7796 9.77038 28.7794C9.76542 28.8035 9.59401 28.8315 9.58776 28.9187C9.57332 29.1185 9.50651 29.6962 9.67845 29.7677C10.0453 29.9144 9.87697 28.7606 9.89497 28.5339C9.90324 28.4347 10.0537 28.3163 10.0576 28.2562C10.0612 28.1902 9.8593 28.0993 9.86637 27.9394C9.86874 27.8922 10.1096 27.376 10.0756 27.1544ZM9.85529 22.3134C9.66957 22.3971 9.84763 22.5754 9.817 22.6407C9.80977 22.6563 9.65529 22.534 9.60805 22.681C9.71363 22.7233 9.81921 22.7655 9.92478 22.8079C9.90162 22.6422 9.87846 22.4774 9.85529 22.3134ZM9.55523 72.9711C9.59523 72.9481 9.58506 72.4974 9.56006 72.4748C9.22452 72.2012 9.25209 73.1358 9.55523 72.9711ZM9.80166 84.2001C10.2971 84.0165 9.77082 86.4086 9.79031 86.6616C9.48171 86.6464 9.8039 86.0668 9.37385 86.3655C9.6133 86.0609 9.5038 85.2939 9.57503 85.0886C9.61794 84.9756 9.88517 84.9546 9.89393 84.9374C9.92515 84.8749 9.6272 84.2738 9.80166 84.2001ZM9.53523 88.6558C9.59938 88.4347 9.66352 88.2059 9.72763 87.9692C9.75603 88.2531 9.78468 88.5148 9.81271 88.7888C9.72024 88.7439 9.62781 88.6969 9.53523 88.6558ZM9.66802 88.9546C9.96768 88.9572 9.71859 89.7319 9.7812 89.9394C9.2789 89.6949 9.76987 89.3189 9.66802 88.9546ZM10.2976 75.9255C10.4995 75.5631 9.5884 75.406 9.98107 75.8431C9.99406 75.857 10.2869 75.9408 10.2976 75.9255ZM11.2527 33.6845C11.2586 33.6221 11.5587 32.8643 11.4124 32.8176C10.9457 32.6754 11.1305 33.177 10.953 33.3432C10.6655 33.6122 10.432 33.2123 10.601 33.8749C10.5076 33.8473 10.4141 33.8197 10.3207 33.7921C10.2876 34.1797 10.9365 34.0565 11.0195 34.1266C11.0447 34.148 10.9889 34.3909 11.03 34.4351C11.5493 34.9866 11.248 33.74 11.2527 33.6845ZM10.4516 66.9914C10.7323 66.275 10.3266 66.5845 10.3573 65.848C10.1518 65.8247 10.2721 66.891 10.4516 66.9914ZM10.8432 40.6803C10.7666 39.9347 11.0391 39.3317 10.6817 38.6318C10.1249 38.6769 10.6984 40.8707 10.8432 40.6803ZM11.5903 5.76575C10.6 8.62178 10.8847 11.8692 10.8938 14.9299C10.8939 14.9766 10.894 15.0233 10.894 15.0702C10.8938 15.3983 10.673 15.4307 10.6963 15.5513C10.7114 15.6306 10.8892 15.6175 10.8895 15.7234C10.8993 19.5487 11.1133 23.1965 10.9877 26.8702C10.9795 27.0956 10.5919 28.212 11.1661 28.4587C11.6017 28.6431 11.2656 27.8312 11.2702 27.6984C11.2736 27.5977 11.4788 27.5946 11.4798 27.5276C11.4809 27.4565 11.3404 27.5145 11.3387 27.432C11.3307 27.0841 11.3875 26.7024 11.3772 26.3807C11.2787 23.2579 11.3268 20.2528 11.3622 17.1388C11.3662 16.7655 11.5302 16.8442 11.531 16.8251C11.5306 16.8249 11.5302 16.8246 11.5298 16.8244C11.5374 16.2362 11.51 15.5564 11.4719 14.9328C11.3851 13.4299 11.2441 11.87 11.3496 10.3892C11.4703 8.88687 11.5909 7.4092 11.7117 5.89797C11.6712 5.85357 11.6307 5.8095 11.5903 5.76575ZM10.6641 35.2701C11.2851 35.0875 10.6602 35.0434 10.9169 34.3702C10.8114 34.3149 10.7059 34.2596 10.6004 34.2043C10.6216 34.5591 10.6428 34.9207 10.6641 35.2713C10.6641 35.2709 10.6641 35.2705 10.6641 35.2701ZM10.9141 30.8421C11.7521 30.7276 11.1684 29.2271 11.3316 28.5522C10.9118 28.4287 11.0955 29.4075 11.05 29.6382C11.0275 29.7531 10.5917 30.3707 10.8286 30.848C10.8571 30.846 10.8856 30.844 10.9141 30.8421ZM11.0713 81.6737C11.0485 81.5582 11.0255 81.4581 11.0027 81.3491C10.9063 81.6076 10.8093 81.8986 10.7126 82.1687C10.7789 81.7246 10.8447 81.2986 10.9105 80.8633C11.0831 80.9472 11.2557 81.0307 11.4283 81.1137C11.3093 81.303 11.1904 81.4815 11.0713 81.6737ZM11.0016 80.2559C11.0566 81.0396 10.6026 80.2052 10.8117 80.0347C10.9371 79.9245 10.9956 80.1805 11.0016 80.2559ZM11.3255 78.2832C11.6264 78.6352 11.6384 79.3605 11.0324 79.0948C11.3226 78.6994 11.0883 78.4746 11.2591 77.9108C11.3749 77.9944 11.4907 78.0776 11.6065 78.1604C11.6065 78.1608 11.6065 78.1612 11.6065 78.1615C11.5128 78.2022 11.4192 78.2428 11.3255 78.2832ZM11.3655 80.6168C11.0088 81.1159 11.1478 79.6623 11.3721 80.1206C11.3825 80.136 11.3792 80.597 11.3655 80.6168ZM12.2039 8.9689C12.0052 8.90866 12.007 9.28457 11.993 9.4144C11.9309 9.98905 12.0141 10.6778 11.9837 11.2594C12.0494 11.2172 12.1151 11.1752 12.1809 11.1334C12.1886 10.4002 12.1963 9.68208 12.2039 8.9689ZM11.9734 13.0593C11.9714 13.4673 11.9695 13.8504 11.9675 14.2465C11.9673 14.2833 12.1372 14.4584 12.1795 14.3291C12.1108 13.9027 12.042 13.4968 11.9734 13.0593ZM11.8438 37.7768C11.957 37.4741 12.5235 38.351 11.9116 38.3086C11.889 38.1311 11.8664 37.9538 11.8438 37.7768ZM12.0717 40.6052C12.0146 40.4142 11.9575 40.2233 11.9004 40.0327C11.9708 40.0328 12.0412 40.033 12.1116 40.0332C12.0983 40.2237 12.085 40.4144 12.0717 40.6052ZM12.3522 7.40745C12.1103 7.6111 12.1449 8.09205 12.1385 8.38932C12.3465 8.18368 12.2472 7.69689 12.3522 7.40745ZM12.1158 33.2274C11.9515 33.2546 11.9994 32.0401 12.2859 32.4621C12.2292 32.7187 12.1725 32.9752 12.1158 33.2274ZM12.372 30.7762C12.4065 31.0359 12.349 31.2332 12.0915 31.1793C12.1032 31.0423 12.1149 30.9083 12.1267 30.7692C12.2084 30.7715 12.2902 30.7739 12.372 30.7762ZM11.8319 76.9309C11.8136 76.5015 11.7954 76.0453 11.7768 75.6147C11.847 75.6314 11.9172 75.648 11.9874 75.6647C12.0057 76.0835 12.0237 76.5201 12.0419 76.9348C11.9719 76.9335 11.9019 76.9322 11.8319 76.9309ZM12.9857 7.16646C12.9412 6.88333 12.8969 6.55374 12.8523 6.26767C12.8037 6.55349 12.7548 6.88297 12.7062 7.16578C12.7998 7.16625 12.8934 7.16673 12.9869 7.1672C12.9865 7.16695 12.9861 7.1667 12.9857 7.16646ZM12.6654 82.9278C13.0136 81.6111 13.3352 83.3097 12.8468 83.6596C12.8472 83.66 12.8476 83.6603 12.848 83.6607C12.8049 83.6906 12.5997 83.6227 12.5157 83.6721C12.6111 83.5392 12.7064 83.4047 12.8017 83.2685C12.6877 83.1412 12.5738 83.0125 12.4598 82.8826C12.506 82.8409 12.5521 82.8039 12.5983 82.7644C12.6207 82.8178 12.6431 82.87 12.6654 82.9278ZM12.7456 88.3455C12.6776 89.5492 12.1935 88.3074 12.6139 87.7099C12.7081 87.7126 12.752 88.2314 12.7456 88.3455ZM12.7006 85.149C12.6572 84.9593 12.6136 84.7737 12.5702 84.581C12.6296 84.5576 12.689 84.5341 12.7484 84.5106C12.8044 84.6591 12.8605 84.8056 12.9165 84.9501C12.8446 85.0169 12.7726 85.0794 12.7006 85.149ZM13.7037 78.8757C13.7721 78.5806 13.1211 78.1721 13.2814 79.1636C13.3518 79.164 13.4222 79.1643 13.4926 79.1647C13.4818 79.1245 13.4173 79.0055 13.4226 78.9991C13.4404 78.9812 13.6752 79.0038 13.7037 78.8757ZM14.5363 90.6676C14.5618 90.7061 15.3039 90.7383 14.5235 91.088C14.5664 91.2034 14.6092 91.3163 14.652 91.4267C14.4875 91.4488 14.323 91.4707 14.1586 91.4923C14.3006 91.0783 13.9713 91.0091 13.9654 90.979C13.9394 90.8307 14.1059 90.945 14.1112 90.8548C14.1245 90.6304 14.0273 90.0668 14.5052 90.3342C14.6764 90.4316 14.5106 90.6324 14.5363 90.6676ZM14.9838 89.8427C14.9203 89.8936 14.708 89.7177 14.6456 89.7557C14.5911 89.7932 14.3546 90.294 13.9919 90.1455C14.0098 90.0638 14.0277 89.9808 14.0456 89.8966C14.1469 89.8709 14.2482 89.8449 14.3495 89.8188C14.2591 89.7336 14.1687 89.6457 14.0783 89.56C14.3299 89.4353 14.6588 89.1552 14.8517 89.5014C14.8339 89.3767 14.8161 89.2496 14.7984 89.12C14.6813 89.0501 14.5643 88.9796 14.4473 88.9084C14.6274 88.9487 14.8074 88.9889 14.9875 89.029C14.9864 89.3086 14.9858 89.5562 14.9838 89.8427ZM14.7429 93.9259C14.6507 93.9021 14.5586 93.8766 14.4662 93.8545C14.611 94.3711 14.5891 95.2802 14.0522 94.7236C14.071 93.9592 14.0556 93.3095 14.0388 92.6424C14.1112 92.6005 14.1836 92.558 14.2558 92.5205C13.9614 93.0094 15.1226 92.8929 14.768 93.3264C14.7075 93.3992 14.318 93.1529 14.548 93.642C14.6429 93.6307 14.7377 93.6192 14.8326 93.6075C14.8028 93.7174 14.7734 93.8152 14.7429 93.9259ZM12.8899 100.168C14.0561 98.3351 13.3078 100.558 12.6104 100.89C12.611 100.889 12.6115 100.889 12.6121 100.888C11.8363 101.203 12.0762 100.796 12.398 100.356C12.7265 99.9064 13.0716 99.4342 13.0966 99.378C13.1705 99.2129 12.8404 98.6491 13.8255 98.289C13.6343 98.7902 13.389 99.4031 12.8899 100.168ZM14.575 95.6805C14.5794 95.7811 14.4469 95.7086 14.4426 95.7539C14.4425 95.7543 14.4425 95.7547 14.4424 95.7551C14.4263 95.9147 14.4065 96.1249 14.3606 96.4004C14.3176 96.6665 14.2413 96.9928 14.1878 97.164C14.0699 97.5567 13.8388 98.0336 13.5748 98.0492C13.628 97.8489 13.7334 97.4197 13.8212 97.0655C13.9004 96.7724 14.033 96.1966 14.1087 95.8954C14.1921 95.5705 14.2695 95.378 14.3682 95.3555C14.4397 95.4503 14.5071 95.5721 14.575 95.6805ZM14.4921 92.2025C14.7986 91.9397 14.8121 92.5544 14.6672 92.7141C14.6363 92.74 14.1747 92.4737 14.4921 92.2025ZM15.6048 72.1242C15.4326 71.5552 15.2484 72.299 14.9733 72.0384C14.9958 72.1469 15.0184 72.255 15.041 72.3627C15.2289 72.2834 15.4168 72.2039 15.6048 72.1242ZM16.3592 46.0423C16.3928 45.9093 16.223 45.9714 16.2205 45.9598C16.2258 45.8723 16.3643 45.7906 16.3499 45.7569C16.0751 45.1333 15.9302 45.546 15.8971 45.552C15.7294 45.5641 15.5342 45.3995 15.3412 45.6248C15.3998 45.7627 15.4584 45.9002 15.5169 46.0379C15.4233 46.1055 15.3297 46.1731 15.2361 46.2406C15.4344 46.5147 15.4914 46.158 15.7569 46.1192C15.8613 46.1043 15.9845 46.3616 16.3592 46.0423ZM16.1759 71.1046C15.8823 71.0083 15.5129 70.7744 15.2149 70.9978C15.2149 70.9981 15.2149 70.9983 15.2149 70.9986C15.1604 71.0399 15.1291 71.2094 15.0526 71.2606C15.4415 71.634 15.8482 71.4972 16.1759 71.1046ZM16.8711 48.5094C16.801 48.7305 16.7308 48.9516 16.6606 49.1726C16.4841 49.1677 16.3075 49.1628 16.131 49.1579C16.1793 49.0397 16.2277 48.9215 16.276 48.8033C16.1957 48.7612 16.1154 48.7191 16.0351 48.677C15.8328 48.823 15.6305 48.9688 15.4281 49.1147C15.4974 49.2924 15.5666 49.47 15.6359 49.6476C15.7296 49.5668 15.8233 49.4859 15.917 49.4051C16.0171 49.8388 15.5883 49.7417 15.4218 50.0988C15.5846 50.2226 15.7474 50.3469 15.9101 50.4709C15.7446 50.6478 15.5791 50.8247 15.4135 51.0015C15.4884 51.3008 15.6134 51.3278 15.8021 51.128C16.0153 51.278 15.6774 51.4383 15.7635 51.6176C15.7705 51.6324 15.9724 51.6059 15.9747 51.619C16.1046 52.5429 15.5752 52.4916 15.5517 52.6393C15.5356 52.7437 15.8902 53.1628 16.0121 53.1701C16.1762 53.1791 16.8297 52.3177 16.8375 53.6736C17.2902 52.9766 16.8395 52.1738 16.1788 52.6861C16.2465 52.4626 16.0889 51.4865 16.109 51.4238C16.1394 51.3331 16.3885 51.3666 16.3958 51.2528C16.3997 51.1855 15.831 51.0037 16.3325 50.4736C16.2393 50.4048 16.1462 50.3361 16.0531 50.2673C16.1304 50.2039 16.2077 50.1404 16.285 50.0773C16.5584 50.2102 16.8318 50.3439 17.1052 50.4771C16.8106 49.9535 17.3731 49.5274 16.9033 49.2073C16.96 48.9338 17.0151 48.801 17.2555 48.9202C17.256 48.838 17.2565 48.7557 17.2571 48.6735C17.1284 48.6188 16.9998 48.5641 16.8711 48.5094ZM15.77 69.4195C16.0462 69.1479 15.4564 69.0431 15.4226 69.0858C15.2367 69.3257 15.6263 69.5606 15.77 69.4195ZM16.0424 46.5344C15.8884 46.8338 15.7344 47.1331 15.5803 47.4324C15.7671 47.4336 15.9538 47.4348 16.1406 47.4359C16.1079 47.1354 16.0752 46.8349 16.0424 46.5344ZM16.0239 72.2109C15.8836 72.2369 15.7434 72.2628 15.6032 72.2887C16.1113 72.6169 15.3745 72.9496 15.5244 73.1123C15.5572 73.1481 15.805 73.0789 15.8587 73.0116C15.8922 72.9705 16.0706 72.2632 16.0239 72.2109ZM15.7781 85.9547C15.6865 85.8316 15.5948 85.707 15.5031 85.5808C15.6604 85.5906 15.8178 85.6004 15.9751 85.6102C16.0032 85.6722 16.0314 85.7337 16.0595 85.7949C15.9657 85.8485 15.8719 85.9018 15.7781 85.9547ZM15.5533 84.5479C15.5696 84.3296 15.5862 84.0925 15.6022 83.8851C15.7327 84.7261 15.8146 84.0387 16.0109 84.5558C15.8584 84.5532 15.7058 84.5506 15.5533 84.5479ZM15.9071 82.3292C16.0007 82.3575 16.0943 82.3858 16.1879 82.4141C16.1846 82.6357 16.1815 82.8367 16.178 83.0678C16.5065 82.9266 16.8348 82.8006 17.1632 82.6682C17.1652 82.5891 17.1672 82.5095 17.1692 82.4294C16.7485 82.396 16.3278 82.3626 15.9071 82.3292ZM17.0963 40.1414C17.1027 40.0093 16.8202 39.5491 16.7151 39.5682C16.585 39.7578 16.4549 39.9477 16.3248 40.1377C16.512 40.1397 16.6991 40.1416 16.8863 40.1436C16.793 40.17 16.6996 40.1965 16.6063 40.2229C16.6757 40.3319 16.745 40.4409 16.8144 40.5499C16.6505 40.6038 16.4866 40.6576 16.3227 40.7115C16.5091 40.7676 16.6956 40.8238 16.882 40.8799C17.2162 40.3568 16.8851 40.3732 16.8893 40.2641C16.8912 40.2088 17.0073 40.1745 17.0657 40.1552C17.0759 40.1506 17.0861 40.146 17.0963 40.1414ZM17.2325 46.7493C17.2829 46.1235 16.7923 45.763 17.2071 45.312C16.3276 45.5981 17.2227 47.4785 16.4865 48.1357C16.6269 48.2053 16.7672 48.2749 16.9076 48.3445C16.7845 47.9833 17.076 47.7356 17.1188 47.5603C17.1528 47.421 17.0052 47.4347 17.0073 47.424C17.0074 47.4235 17.0074 47.423 17.0074 47.4225C17.07 47.0963 17.2126 46.9962 17.2325 46.7493ZM16.7078 72.683C16.9319 72.5106 16.9124 72.2224 16.5878 72.2155C16.4923 72.3757 16.3967 72.5383 16.3011 72.7051C16.3846 72.6717 16.6695 72.7118 16.7078 72.683ZM16.8177 82.0857C16.9254 81.9544 16.8373 81.6321 16.555 81.7664C16.5049 81.7911 16.6974 82.1102 16.1939 81.9174C16.1973 82.2249 16.7559 82.1604 16.8177 82.0857ZM16.4966 57.4468C16.5051 57.5575 16.5137 57.6682 16.5223 57.7787C16.6531 57.8053 16.7839 57.832 16.9148 57.8586C16.7754 57.7215 16.636 57.5843 16.4966 57.4468ZM16.9183 74.1055C16.2757 74.2407 16.897 74.51 16.367 74.7812C16.3618 74.8839 16.3567 74.9861 16.3516 75.0879C16.3516 75.0882 16.3516 75.0884 16.3516 75.0887C16.5265 75.0933 16.7014 75.0979 16.8763 75.1025C16.8904 74.7746 16.9044 74.4345 16.9183 74.1055ZM16.8593 50.5577C16.7775 50.6253 16.6956 50.693 16.6138 50.7605C16.7078 50.8824 16.8019 51.0043 16.8959 51.1261C16.9643 51.061 17.0326 50.9958 17.101 50.9307C17.0204 50.8064 16.9399 50.6821 16.8593 50.5577ZM16.9545 75.8983C17.0386 75.5465 16.4827 75.4107 16.4765 75.8576C16.4743 76.0546 16.8665 76.2794 16.9545 75.8983ZM16.9271 33.3377C16.8788 33.4589 16.8305 33.5802 16.7823 33.7017C16.8992 33.7438 17.0162 33.7859 17.1331 33.8281C17.0645 33.6643 16.9958 33.5008 16.9271 33.3377ZM16.7282 83.7829C16.6113 83.7668 16.4943 83.7507 16.3774 83.7345C16.4028 83.6267 16.4281 83.5179 16.4534 83.4081C16.5693 83.4377 16.6853 83.4672 16.8012 83.4966C16.7769 83.5928 16.7525 83.6882 16.7282 83.7829ZM16.8506 34.1569C16.8276 34.2544 16.8047 34.3521 16.7818 34.4499C16.8384 34.516 16.895 34.5821 16.9516 34.6483C17.0087 34.5568 17.0657 34.4655 17.1228 34.3743C17.0321 34.3018 16.9413 34.2293 16.8506 34.1569ZM16.8615 79.2906C17.0042 79.1511 16.5721 78.5899 16.4538 79.0896C16.3787 79.4106 16.8398 79.311 16.8615 79.2906ZM16.9924 80.0336C17.2675 79.5203 15.9004 79.8856 16.7748 80.5221C16.6621 79.8894 16.9758 80.0658 16.9924 80.0336ZM17.6267 84.6638C17.6258 84.677 17.4297 84.6848 17.4206 84.7898C17.389 85.1555 17.302 85.6791 17.2849 85.9434C17.2448 86.5979 17.5538 88.6316 16.9801 88.8449C16.8599 88.8895 16.507 88.7709 16.4882 88.7898C16.4359 88.8374 16.5993 89.1988 16.3392 89.1252C16.3504 88.7722 16.3597 88.4735 16.3699 88.1252C16.5526 88.2134 16.7353 88.3008 16.918 88.3875C16.839 87.548 16.8435 87.8363 16.4468 87.5869C16.6056 87.4506 16.7645 87.3117 16.9234 87.1702C16.773 86.8744 16.6225 86.5687 16.472 86.2529C16.5873 86.3261 16.7027 86.3988 16.8181 86.471C17.0436 86.0024 16.8989 86.1445 16.6206 85.8891C16.7373 85.8908 16.8541 85.8925 16.9709 85.8942C16.6945 85.4523 17.046 85.3659 17.052 85.268C17.0625 85.066 15.6853 84.8148 17.0727 84.0676C16.4167 83.7491 17.7615 83.7766 17.0806 83.581C17.8335 83.0652 17.5485 84.0471 17.5151 84.5532C17.5151 84.5535 17.515 84.5537 17.515 84.554C17.5123 84.5905 17.6387 84.5348 17.6267 84.6638ZM16.9853 81.8994C17.5876 82.2297 17.6624 80.9592 16.7804 81.3669C16.751 81.4284 16.7217 81.4896 16.6923 81.5506C16.7901 81.661 16.8876 81.782 16.9852 81.9002C16.9852 81.8999 16.9852 81.8997 16.9853 81.8994ZM17.5209 69.9277C17.282 68.7441 16.9269 69.4138 17.2643 69.8163C17.3312 69.8965 17.4235 69.9408 17.5209 69.9277ZM17.7043 45.8578C17.6316 45.8402 17.5588 45.8225 17.4861 45.8049C17.5519 46.2 17.2662 46.9619 17.7573 46.9545C17.7397 46.5889 17.722 46.2233 17.7043 45.8578ZM18.0058 48.9842C18.036 48.8995 18.1081 48.5534 17.9241 48.594C17.7929 48.7434 17.6618 48.8928 17.5306 49.0422C17.6115 49.1126 17.6925 49.1831 17.7734 49.2535C17.8017 49.156 17.9979 49.0071 18.0058 48.9842Z" fill="#74A5B6"/>
</svg>
