<svg width="315" height="81" viewBox="0 0 315 81" fill="none" xmlns="http://www.w3.org/2000/svg">
<path d="M129.375 19.6865C112.639 22.036 101.141 20.6023 85.5866 20.9773C77.8675 21.1698 69.577 21.4655 61.0762 21.9274C49.6227 22.6543 36.8557 23.4509 27.2747 26.8911C28.0832 26.5844 28.228 26.4019 28.2604 26.3933C28.2785 26.3795 28.1414 26.5007 27.9713 26.6902C27.6206 27.0739 27.1279 27.7143 26.6465 28.4268C25.6696 29.8688 24.68 31.6168 23.7493 33.4229C21.8837 37.0554 20.1939 40.979 18.7179 44.8401C18.175 45.9252 18.255 50.9218 18.5349 55.67C18.5335 55.5296 18.4863 55.2078 18.3838 54.9329C18.2852 54.6553 18.1612 54.4766 18.1758 54.4979C18.1824 54.5366 18.8141 55.2152 19.7285 56.0758C20.0109 56.3455 20.1009 56.4078 20.1677 56.4554C20.2337 56.5001 20.3186 56.5534 20.5274 56.6468C24.303 58.1462 33.6953 58.8515 41.1643 59.4046C59.5654 60.6573 78.3637 61.3104 96.7685 61.7494C98.1101 61.7799 98.9189 61.9859 99.5334 61.9992C105.274 62.1285 114.939 62.0692 120.646 62.1248C126.489 62.1883 134.407 62.2108 142.295 62.1881C150.617 62.1671 158.903 62.0849 164.562 62.0767C169.238 62.0711 174.036 61.998 175.862 62.4126C177.573 62.397 178.496 61.9625 178.942 61.9295C178.947 61.9297 178.952 61.93 178.957 61.9303C180.389 61.8273 184.03 62.0243 184.829 61.9848C184.949 61.9787 184.203 61.7 186.151 61.7386C186.324 61.7416 186.171 61.9492 187.805 61.9077C188.229 61.8981 193.695 61.4322 195.261 61.3649C200.463 61.1536 212.898 60.9821 219.134 60.7407C220.087 60.7053 220.616 60.5667 221.633 60.5262C222.156 60.5052 222.939 60.6044 223.098 60.5976C223.788 60.567 226.84 59.8628 225.782 61.0598C228.973 60.8619 228.007 60.5171 228.073 60.2665C231.557 60.0929 233.24 60.5678 234.124 59.9548C243.522 59.6087 252.953 59.2282 262.333 58.8298C269.839 58.5008 277.351 58.0142 284.308 56.9098C284.298 56.8163 284.287 56.7228 284.276 56.6293C288.878 56.2089 290.075 55.1754 292.294 54.9993C293.488 54.4428 294.417 53.8529 295.071 53.2601C295.427 53.0263 295.756 52.7772 296.219 52.379C296.135 52.4523 296.038 52.6497 296.108 52.5301C296.167 52.4217 296.309 51.9952 296.403 51.3297C296.607 49.9858 296.608 47.8715 296.602 45.4885C297.862 44.3072 290.672 38.4137 283.82 32.879C282.785 31.7019 275.569 29.8511 270.036 28.6999C260.809 26.8731 249.912 26.2773 239.423 25.5026C228.746 24.746 218.058 24.423 206.968 23.7344C203.052 23.4807 199.106 23.0771 195.404 22.7008C193.528 22.5144 193.089 22.2638 190.027 21.9847C187.97 21.7996 185.396 21.6739 182.669 21.5408C180.92 21.4553 179.101 21.3651 177.328 21.246C173.364 20.9782 167.494 20.4284 163.044 20.1352C162.041 20.0693 161.305 20.1528 161.192 20.1455C160.528 20.1013 160.506 19.8992 159.861 19.8556C159.088 19.8039 158.148 19.8976 157.255 19.8364C153.922 19.609 150.283 19.4502 149.858 19.422C147.822 19.2852 147.388 19.0635 147.217 19.0514C144.959 18.8962 145.787 19.1216 145.226 19.0787C142.477 18.8668 140.499 18.357 136.896 18.4456C136.666 18.4507 136.434 18.4583 136.198 18.4685C136.317 18.3116 136.437 18.1547 136.558 17.9979C133.481 17.714 135.49 18.2755 134.857 18.3151C134.605 18.3328 127.96 17.8426 127.464 17.7989C125.705 17.6525 125.671 17.4326 125.519 17.4194C125.134 17.3849 120.778 17.3495 118.611 17.0887C116.016 16.7701 119.099 16.4363 118.455 16.3303C118.348 16.3077 115.604 16.2691 115.23 16.1257C114.826 15.9651 117.208 16.0308 117.176 15.9699C117.159 15.9446 115.892 15.7969 114.917 15.6481C114.18 15.5337 113.616 15.4151 113.95 15.3315C114.08 15.2892 114.446 15.2735 114.925 15.2752C116.716 15.2738 120.176 15.5555 121.07 15.5331C121.258 15.5266 120.918 15.2524 121.084 15.2515C121.669 15.2093 134.391 16.0767 134.988 16.1414C134.311 16.2158 133.64 16.29 132.972 16.364C133.853 16.4327 134.74 16.5008 135.62 16.5675C134.36 16.5826 133.099 16.5958 131.834 16.6069C132.867 17.2229 135.135 17.2885 136.976 17.1418C138.351 17.0297 139.48 16.7976 139.588 16.5968C139.697 16.3814 136.305 15.6046 139.519 15.4652C139.027 15.3787 138.556 15.2932 138.069 15.2066C137.738 15.2169 137.412 15.2275 137.093 15.2383C136.398 15.259 135.724 15.2805 135.047 15.3012C135.707 15.4018 136.365 15.5018 137.041 15.6024C136.785 15.6536 136.534 15.7049 136.286 15.7565C134.418 15.748 132.528 15.7339 130.646 15.7165C129.693 15.6039 129.901 15.4202 129.244 15.3381C121.082 14.3168 126.359 15.2592 121.086 14.8654C120.344 14.7212 119.602 14.5815 118.857 14.4463C119.068 14.8411 117.321 14.5981 114.94 14.6297C114.628 14.634 114.282 14.6427 113.951 14.6588C114.277 14.5272 114.623 14.3965 114.948 14.266C114.957 14.2624 114.967 14.2589 114.976 14.2553C114.967 14.2553 114.957 14.2553 114.948 14.2552C110.829 14.206 102.483 13.5533 104.746 14.3217C103.798 14.2616 102.857 14.2053 101.909 14.1531C101.114 14.2931 100.317 14.436 99.5258 14.5818C98.4255 14.5923 97.3247 14.6087 96.2276 14.6315C96.2202 14.5625 96.2128 14.4936 96.2054 14.4246C97.0812 14.3943 97.958 14.368 98.8358 14.3456C98.1721 14.1514 97.5072 13.9594 96.8408 13.7698C96.1941 13.8254 95.5476 13.8832 94.9016 13.9434C97.6231 14.0429 94.0557 14.4962 93.2096 14.819C90.9392 15.0266 89.472 14.7614 88.7111 14.7951C88.347 14.799 84.2225 15.7735 85.8021 14.9415C85.5241 14.9757 85.2474 15.0106 84.9724 15.046C83.0786 15.2885 81.192 15.55 79.3085 15.8295C78.455 15.8684 77.5921 15.9121 76.7422 15.9577C78.5492 15.4162 73.1443 15.6597 77.0784 15.0582C80.0154 14.6199 80.7837 14.8558 82.1765 14.7134C83.2601 14.6058 83.8755 14.398 84.9023 14.2565C85.0742 14.2326 85.2579 14.211 85.4577 14.1927C94.6154 13.3975 102.249 13.3319 111.085 13.4904C112.54 13.5211 113.885 13.478 114.966 13.4874C115.189 13.4894 115.398 13.4935 115.591 13.5006C116.913 13.5513 115.254 13.7638 116.93 13.7483C118.693 13.7366 119.075 13.5473 119.54 13.5618C119.827 13.5714 120.731 13.8014 121.571 13.8469C125.01 14.0328 130.231 14.2251 130.722 14.2523C131.033 14.2743 134.243 14.5393 137.122 14.7672C139.433 14.9511 141.552 15.1173 141.765 15.1439C142.02 15.1758 141.448 15.8422 143.697 15.2282C144.381 15.2544 145.073 15.2809 145.759 15.307C145.64 15.4398 145.52 15.5727 145.401 15.7055C149.508 15.4144 148.081 15.6277 152.009 15.8135C160.66 16.226 173.096 17.0207 182.95 17.7135C183.801 17.7741 184.612 17.8327 185.409 17.8911C187.679 18.0596 188.555 17.9627 191.233 18.1926C193.706 18.3995 200.206 19.5727 198.855 18.7385C203.701 19.7443 205.145 19.1208 207.257 19.4986C207.57 19.5542 207.92 19.6331 208.282 19.7411C208.631 19.6697 208.983 19.5979 209.331 19.5254C212.389 20.1103 213.347 19.804 216.686 19.9272C218.121 19.9788 216.452 20.3222 219.367 19.993C219.92 20.0563 220.467 20.1192 221.021 20.1827C220.888 20.2794 220.753 20.3761 220.619 20.4728C223.834 20.5507 224.036 20.6167 223.69 20.2112C225.235 20.3614 226.779 20.5134 228.32 20.6691C228.52 20.553 228.717 20.4368 228.917 20.3207C228.509 20.1347 217.856 19.7227 207.28 19.1603C198.42 18.5876 190.19 17.6993 187.971 17.6315C186.598 17.4467 184.882 17.2787 182.993 17.131C177.128 16.6718 169.628 16.4116 166.121 16.1481C164.265 16.0091 163.462 15.6733 160.759 15.4795C158.058 15.2859 154.637 15.3487 153.196 15.2746C150.274 15.1249 140.716 14.5607 137.154 14.2447C135.542 14.1028 135.168 14.0208 137.165 14.0647C138.009 14.0823 139.317 14.1238 141.139 14.1898C140.712 14.0242 140.257 13.8569 139.828 13.6911C138.694 13.7108 137.837 13.7204 137.186 13.7224C134.204 13.7246 134.962 13.571 130.781 13.2568C128.634 13.0923 123.526 13.0648 123.857 12.454C127.818 12.5874 132.059 13.0894 135.527 13.2937C135.66 13.3016 136.309 13.3013 137.211 13.3096C138.691 13.322 140.794 13.3524 142.115 13.4796C144.009 13.663 142.67 14.1923 146.854 13.7542C149.898 14.5968 151.71 14.0972 152.529 14.0805C153.941 14.0509 154.075 14.3873 155.479 14.5071C157.006 14.6381 158.073 14.4822 158.282 14.493C160.382 14.6067 171.307 15.2337 171.798 15.4027C171.357 15.4334 170.908 15.4638 170.47 15.495C173.297 15.7646 172.729 15.394 173.475 15.4007C174.023 15.4367 174.59 15.4742 175.137 15.5107C174.915 15.5661 174.691 15.6214 174.467 15.6768C177.813 15.8797 175.269 15.4663 180.015 15.7939C181.057 15.8673 182.138 15.9775 183.069 16.0882C184.833 16.296 186.208 16.5147 186.39 16.5164C186.475 16.5175 185.547 16.2636 186.775 16.3379C188.799 16.4573 192.293 16.7804 192.66 17.0626C193.65 17.122 193.594 16.8779 193.725 16.8849C194.275 16.9057 204.269 17.8575 206.103 17.9261C206.519 17.9535 206.93 17.9801 207.358 18.0072C212.025 18.298 217.078 18.5695 222.002 18.7852C222.554 18.8093 222.193 18.9441 222.746 18.9674C223.635 19.0032 228.196 19.0041 228.876 19.0274C230.574 19.0766 235.02 19.443 235.724 19.4229C235.824 19.4195 234.374 19.1181 236.09 19.1655C237.995 19.2213 236.953 19.4309 237.056 19.4404C238.077 19.5345 238.997 19.6045 239.85 19.6598C242.234 19.8147 244.08 19.8396 246.028 19.962C246.884 20.0157 248.448 20.3484 249.66 20.3858C249.799 20.3901 249.54 20.1749 249.677 20.1765C251.509 20.2242 253.179 20.7316 253.966 20.8265C255.885 21.0593 254.861 20.6999 254.962 20.707C256.246 20.818 257.954 21.0785 259.898 21.2792C263.976 21.7069 267.7 22.1751 271.287 22.9318C275.414 23.847 279.703 24.7163 283.967 26.3389C284.979 26.73 285.935 27.4543 286.05 27.5303C286.431 27.7679 286.482 27.4708 287.5 28.2579C287.544 28.2935 287.587 28.3293 287.629 28.3653C290.186 30.54 292.645 32.4279 295.118 34.4772C295.627 34.9015 295.704 35.2338 296.08 35.5612C297.461 36.5766 301.442 40.2133 300.729 40.6894C302.275 42.2682 302.445 43.8897 302.345 45.4647C302.314 46.0776 302.292 46.6891 302.294 47.3166C302.304 50.5945 302.279 54.9518 300.066 56.7591C297.498 59.1663 294.125 60.3169 291.226 61.0585C289.979 61.3691 289.32 61.3355 288.618 61.4789C287.368 61.822 279.845 63.0096 279.427 62.9793C278.624 63.0123 279.044 62.247 275.059 63.2813C272.699 63.5376 272.941 63.2005 272.441 63.2259C268.623 63.4074 264.901 64.2781 265.562 63.6161C264.476 63.7169 263.506 63.8169 262.569 63.9068C259.743 64.183 257.667 64.3695 256.286 63.9872C256.321 64.2724 254.215 64.5406 251.62 64.5474C254.251 63.9473 253.899 63.6575 260.244 63.4537C260.346 63.4504 260.161 63.6663 260.263 63.663C260.798 63.6463 261.655 63.5753 262.551 63.5078C263.239 63.4568 263.953 63.4055 264.593 63.3769C266.104 63.3079 265.282 63.4933 265.896 63.457C266.461 63.4222 266.434 63.2257 267.235 63.1752C269.888 63.0086 272.143 62.781 273.668 62.6476C274.574 62.5692 275.683 62.6416 276.381 62.5725C279.198 62.3143 285.067 61.4423 288.429 60.7053C289.109 60.5595 288.894 60.822 290.408 60.4694C290.582 60.4245 291.184 60.078 292.437 59.6523C293.684 59.2237 294.637 58.9602 295.357 58.6182C295.946 58.3236 295.654 58.2959 296.775 57.6716C297.056 57.5032 298.011 56.9897 299.288 55.8735C301.483 54.9561 301.274 46.5474 301.304 46.0299C301.31 45.827 301.323 45.6415 301.339 45.4689C301.416 44.8833 301.544 44.5257 301.451 44.1159C301.428 44.0306 301.163 43.9275 301.077 43.6512C300.739 40.4207 293.138 34.7001 286.805 29.3415C285.147 27.8704 282.295 26.9496 280.118 26.306C277.162 25.455 274.096 24.7679 271.032 24.1085C261.022 22.1513 250.485 21.6582 239.761 20.8714C236.754 20.6662 233.709 20.4855 230.611 20.3167C230.298 20.3414 229.986 20.3663 229.674 20.3915C231.429 20.4926 233.183 20.5989 234.935 20.7126C234.939 20.8287 234.943 20.9447 234.946 21.0607C237.312 21.2325 237.015 20.9422 236.96 20.7723C237.832 20.9013 238.701 21.0323 239.57 21.1656C239.613 21.1466 239.671 21.1307 239.743 21.1177C240.994 20.8937 246.37 21.5296 249.214 21.764C251.171 21.9219 253.509 21.9732 254.535 22.0809C256.704 22.3079 256.62 22.5547 256.79 22.5744C257.076 22.6069 260.121 22.6922 262.273 22.9687C265.446 23.3961 265.765 23.7694 270.006 24.2266C270.318 24.3008 270.647 24.3798 270.956 24.4572C276.057 25.7808 282.464 26.923 285.946 29.1215C285.594 29.0647 285.95 29.3009 286.481 29.7263C287.745 30.7731 289.865 32.3366 291.032 33.2758C295.761 37.1259 301.176 41.2175 300.82 45.471C300.9 50.1467 300.59 54.5399 298.989 55.5335C295.909 58.3651 291.156 59.45 286.478 60.3121C284.62 60.6376 283.16 60.638 282.101 60.7929C281.51 60.8775 281.326 61.1501 280.503 61.2215C280.352 61.2327 280.244 61.0218 278.735 61.1605C275.021 61.5504 265.579 62.5538 263.138 62.1995C262.924 62.211 262.708 62.2223 262.491 62.2335C249.545 62.9038 236.546 63.536 223.571 64.0988C223.237 64.0179 222.903 63.937 222.567 63.8561C220.079 64.4323 210.155 64.5115 205.322 64.6898C196.832 65.014 185.969 65.472 178.526 65.661C176.907 65.7028 175.576 65.5973 174.045 65.6336C173.386 65.6494 172.569 65.8428 171.883 65.8581C164.18 66.0365 153.746 66.0152 145.992 66.0736C144.758 66.0835 143.533 66.0919 142.316 66.0986C126.049 66.1842 110.533 66.0507 93.926 65.718C76.1821 65.3429 58.434 64.8083 40.8738 63.6964C32.2029 62.9118 20.5901 62.906 16.6771 59.2607C15.7495 58.3809 14.963 57.6054 14.5845 57.068C14.2049 56.5109 14.1641 56.3602 14.1207 55.8497C13.9007 51.0267 13.5378 46.0951 14.6128 43.2561C16.1852 39.1753 17.9482 35.1247 19.9284 31.3107C20.9206 29.4094 21.974 27.5596 23.1005 25.916C23.6611 25.0997 24.2482 24.3314 24.8047 23.7299C25.3193 23.1336 26.0126 22.7009 25.8071 22.8222C36.3517 19.1267 48.8104 18.4461 60.8178 17.6136C65.0266 17.3659 69.2788 17.1502 73.5203 16.9502C74.3149 16.9128 74.2858 17.1168 74.9068 17.0883C78.5578 16.9191 86.7222 16.3892 90.8518 16.2279C94.1454 16.0959 99.3812 16.1953 100.506 15.8397C88.7849 15.8358 76.4268 16.3862 64.2769 16.9246C63.4062 16.964 63.2944 16.7781 63.1877 16.7806C61.5697 16.8183 62.1221 16.9577 60.7873 17.105C60.4971 17.1367 60.1219 17.1691 59.63 17.202C58.682 17.237 49.9186 17.3063 51.0053 17.8469C48.8767 17.6719 34.2881 19.3578 31.7449 20.275C30.9461 20.4857 31.5574 20.5296 31.3992 20.5758C30.7153 20.7793 30.3533 20.6131 29.7312 20.7707C28.7724 21.0097 27.0644 21.5934 25.5837 22.203C25.6149 22.2057 25.409 22.3339 25.2374 22.4891C25.0591 22.6436 24.898 22.8044 24.8065 22.8906C23.7667 23.631 20.5116 28.3182 19.4363 30.6206C18.4062 32.6974 18.8394 32.4307 17.9837 34.2544C17.3274 35.7056 17.8407 34.0218 16.3164 37.2551C15.8522 38.2474 14.8067 40.8387 14.0152 43.0256C13.6917 43.9284 13.5488 44.9942 13.4846 45.4719C13.3131 46.7353 13.0885 48.2776 13.1395 50.3056C13.1662 51.6105 13.2939 53.6468 13.416 55.8784C13.4725 56.5457 13.6237 56.8919 14.0994 57.5254C14.5696 58.1349 15.3319 58.8479 15.9439 59.418C16.0079 59.4777 16.1472 59.5455 16.3149 59.6388C16.4687 59.7136 16.6369 59.7966 16.7621 59.9096C17.2506 60.3338 16.9396 60.4009 17.3048 60.6931C17.4207 60.8481 19.3555 61.9433 22.6522 62.5229C25.8055 63.1367 29.4021 63.4823 30.4257 63.5944C31.8562 63.7429 32.8495 63.6817 33.6508 63.7539C34.2866 63.8108 34.3111 64.0223 34.9552 64.0784C35.1639 64.0962 36.8573 64.0532 38.5295 64.1781C39.0224 64.2152 39.813 64.2875 40.8276 64.3777C43.2094 64.5931 46.3548 64.8641 46.8755 64.8944C47.328 64.9209 46.8303 64.7447 48.1849 64.8242C49.4432 64.8979 50.204 65.1308 50.9285 65.1717C52.5507 65.2631 54.3799 65.1894 56.1331 65.2708C61.1111 65.4978 60.8482 65.7166 61.1515 65.7391C61.9746 65.7956 62.3127 65.5908 62.5858 65.5975C63.7495 65.6281 66.567 65.6979 67.5871 65.7268C68.853 65.7633 69.4191 65.9916 70.7558 66.0395C71.7702 66.075 73.8109 65.9427 76.134 66.0058C81.3259 66.1471 87.5421 66.271 92.6512 66.387C94.1669 66.4215 94.4023 66.6153 94.8694 66.6298C97.3245 66.7051 98.6921 66.5169 99.4018 66.5324C104.381 66.6445 113.287 67.0872 117.921 67.1461C119.797 67.1756 128.064 67.0656 132.721 67.0872C133.255 67.09 132.755 67.2387 133.35 67.2152C134.776 67.1586 134.635 66.8559 135.355 66.8641C135.701 66.8689 136.492 67.0382 137.507 67.0524C139.298 67.0777 140.888 67.0753 142.321 67.0609C145.064 67.033 147.176 66.9596 148.749 66.9512C171.727 66.8244 195.178 66.2345 216.643 65.4824C219.044 65.3979 222.004 65.1079 225.62 65.1425C225.736 65.2321 225.851 65.3217 225.966 65.4113C226.09 65.314 226.213 65.2168 226.336 65.1196C230.414 64.9099 231.978 64.728 236.149 64.674C236.514 64.6688 237.634 65.0517 238.285 64.491C242.454 64.7019 240.145 64.4099 243.227 64.2422C246.269 64.0756 249.309 64.0609 252.269 63.955C253.906 64.0734 247.079 64.8182 246.633 64.8351C245.904 64.8652 245.147 64.6329 244.46 64.6485C242.394 64.6957 240.436 64.989 239.958 64.7725C237.292 65.1351 240.619 64.8699 240.292 65.109C238.491 65.092 236.748 65.0714 234.963 65.0515C234.093 65.857 224.278 65.2459 224.967 65.8006C224.183 65.7139 223.41 65.6267 222.625 65.5397C219.23 66.4003 217.218 65.9599 212.647 65.9039C212.978 65.9859 213.306 66.068 213.642 66.1497C213.546 66.1927 209.543 66.4821 210.964 66.0337C206.859 66.7007 206.996 65.8215 203.334 66.5735C201.141 66.7249 202.444 66.3175 198.522 66.4462C196.191 66.5219 193.306 66.7996 190.711 66.8862C190.112 66.9056 189.845 66.7005 189.311 66.7154C188.776 66.7303 188.524 66.9456 187.879 66.9684C186.549 67.016 184.809 66.9156 183.979 66.951C183.234 66.9822 182.172 67.1933 180.369 67.2663C174.088 67.5183 175.978 67.2082 174.984 67.1428C173.916 67.0719 173.155 67.4348 171.028 67.4386C170.815 67.4387 171.362 67.2121 170.669 67.2347C170.11 67.2526 169.833 67.4929 167.981 67.5724C167.244 67.6116 155.79 67.8483 154.047 67.8647C151.375 67.9063 145.413 67.7626 142.652 67.7762C142.544 67.7768 142.434 67.7794 142.325 67.7835C141.35 67.8195 140.326 67.9756 139.311 67.9781C135.555 67.9891 129.546 67.9758 124.785 67.9457C120.5 67.9239 112.971 67.4422 110.63 67.7864C104.609 67.7628 103.153 67.4118 102.698 67.4019C101.465 67.3702 100.892 67.573 99.356 67.5559C81.5963 67.3541 58.7923 66.5717 40.7614 65.3561C38.4539 65.1983 36.231 65.0322 34.1119 64.8526C27.4005 64.0881 19.2463 64.0535 15.5466 60.4407C13.6043 58.6159 12.4924 57.3964 12.4921 55.916C12.3008 51.1147 11.8227 46.1766 13.0971 42.6713C16.2118 34.8764 20.4381 24.7568 25.2565 21.2958C36.1998 17.477 48.6373 16.835 60.72 15.9821C69.1487 15.4853 77.6334 15.1025 86.0931 14.7496C86.2073 14.6506 86.3217 14.5516 86.4361 14.4525C81.2186 14.6171 75.0694 14.7355 69.9203 14.9616C67.1863 15.0815 63.9218 15.3059 60.6927 15.5265C55.7632 15.8583 50.9316 16.2452 47.877 16.1646C49.8931 15.9021 53.2266 15.8753 53.1366 15.5532C49.509 15.8218 45.8913 16.1478 42.2711 16.5804C42.3963 16.7183 42.5219 16.8564 42.6479 16.9944C38.903 17.5077 35.0778 18.0567 31.4494 18.9051C30.8327 19.0515 31.2954 19.0854 30.7514 19.2156C30.1541 19.3614 30.5252 19.126 30.4121 19.1524C28.8596 19.5383 28.4682 19.8185 28.2744 19.8692C27.8105 20.0035 28.1305 19.7508 26.7664 20.149C26.1417 20.3356 25.5745 20.5479 25.0593 20.7491C24.7366 20.8841 24.3202 21.2372 24.077 21.408C23.8259 21.5847 23.6842 21.5988 23.6819 21.295C23.1325 21.7852 22.5952 22.3899 22.0855 23.0329C22.0833 23.2989 22.0781 23.5743 22.0863 23.8362C18.5715 27.6539 18.5649 30.5931 16.426 32.7914C16.1262 33.7341 15.8405 34.6786 15.5657 35.6275C15.1898 36.0618 14.8158 36.5013 14.4449 36.9422C14.5305 37.097 14.6161 37.2523 14.7021 37.4069C13.9532 39.0458 13.2483 40.7563 12.5947 42.4775C11.5845 45.229 11.7403 48.8487 11.8434 52.1282C11.9057 53.8116 11.9502 54.9072 11.9776 55.937C12.0164 56.7117 12.0948 57.2877 12.7904 58.2959C14.2388 60.1109 14.8749 60.5475 14.7623 60.594C14.7188 60.6549 14.2939 60.3951 14.8875 61.1286C15.1113 61.4043 15.467 61.8295 16.1194 62.3447C16.0056 62.0579 15.9116 61.7704 15.8298 61.4802C16.4765 61.932 17.1337 62.2537 17.8901 62.5211C18.3397 62.8749 18.8507 63.2078 19.398 63.5216C22.2098 63.5835 23.985 64.3706 24.3743 64.4511C24.6942 64.4933 25.8297 64.2647 29.2409 65.0187C27.866 64.2687 31.8785 65.2956 32.231 65.3205C32.5215 65.3573 36.5644 65.5674 38.1913 65.6845C38.8162 65.7324 39.6878 65.824 40.7229 65.9241C41.8388 66.034 43.1099 66.1504 44.1348 66.2099C45.8297 66.3076 45.6647 66.0923 45.7903 66.098C47.9004 66.2037 46.5554 66.2845 48.0706 66.3779C49.5945 66.4706 50.7534 66.3571 51.0954 66.3905C51.2582 66.4073 50.7068 66.5684 51.4456 66.6251C53.4645 66.7809 57.104 66.7884 59.4197 66.8936C60.2304 66.9307 61.2802 67.1365 62.1754 67.1786C63.5723 67.2434 64.2451 67.0562 65.0478 67.0942C65.3306 67.108 67.1171 67.5086 69.373 67.5391C69.8122 67.5447 71.057 66.8911 72.7134 67.9364C72.845 67.8016 72.9767 67.6668 73.1086 67.532C80.6349 67.4334 82.6993 68.6088 86.0789 67.694C91.548 67.94 87.7821 68.2387 88.3796 68.3134C88.7782 68.361 90.5414 68.2943 90.7427 68.3047C91.0897 68.3245 91.0271 68.4486 91.4089 68.4564C98.3791 68.5809 95.2924 68.2767 97.4975 68.1704C102.749 67.9077 106.841 68.7672 97.7081 68.3721C97.7068 68.442 97.7055 68.512 97.7042 68.582C99.9635 68.5597 105.659 68.6785 103.752 69.0041C102.242 69.2727 88.6996 68.8217 96.3695 69.3661C98.1004 69.4878 99.0188 69.2432 102.023 69.7851C104.03 69.8437 104.305 69.2105 107.015 69.5039C106.581 69.2755 106.13 69.0466 105.689 68.8178C109.367 68.5809 113.928 69.0187 116.742 68.9165C117.716 68.883 121.169 67.8449 120.359 68.9003C121.984 68.8487 129.584 69.0707 131.001 68.9726C131.337 68.9488 131.793 68.3895 136.704 68.5778C137.047 68.6479 137.39 68.7178 137.733 68.7876C133.225 69.0048 141.183 69.1925 139.024 69.7345C138.297 69.497 134.712 69.3577 134.147 69.2361C133.163 69.0281 136.093 68.758 132.36 68.8328C130.011 69.7294 136.726 69.3139 135.7 70.1642C140.597 69.7567 141.075 70.1283 142.19 70.1395C142.239 70.1399 142.288 70.1403 142.337 70.1407C146.979 70.1751 149.948 70.0597 154.366 70.1045C155.451 69.9195 147.362 69.7561 146.367 69.8341C149.53 69.2749 145.277 69.2183 142.333 69.4503C141.851 69.4883 141.404 69.5341 141.029 69.5873C140.803 69.4011 140.578 69.215 140.352 69.0287C141.013 69.0452 141.673 69.0596 142.331 69.0707C145.124 69.1186 147.887 69.1072 150.684 68.9538C150.909 69.0215 151.134 69.0891 151.359 69.1567C150.59 69.2703 149.812 69.3835 149.039 69.4962C151.916 69.64 150.182 69.1138 154.013 69.5474C154.129 69.3352 154.245 69.1229 154.361 68.9107C158.024 68.9353 161.692 68.9488 165.358 68.953C167.258 68.4995 174.311 68.5107 173.033 69.0839C175.88 69.0608 172.36 68.8463 175.024 68.6547C176.181 68.5715 178.454 68.5023 179.016 68.6359C178.788 69.1631 175.391 69.3066 174.373 69.6861C174.999 69.8002 190.787 69.0255 189.393 69.6646C190.658 69.7025 190.071 69.4054 192.34 69.2601C198.706 68.8562 208.596 69.1519 213.702 68.1886C207.661 67.9677 205.904 68.484 201.277 68.651C198.332 68.772 180.347 69.338 184.351 68.6753C183.694 68.7623 183.035 68.8492 182.377 68.9357C181.705 68.7886 181.032 68.6413 180.359 68.4936C182.246 68.424 184.116 68.3527 186.003 68.279C186.457 68.4306 186.911 68.5821 187.364 68.7335C187.568 68.6112 187.772 68.4888 187.975 68.3664C188.763 68.3217 189.559 68.2765 190.351 68.2311C190.132 68.3776 189.913 68.5242 189.694 68.6707C190.919 68.6606 192.136 68.6499 193.357 68.6383C193.021 68.4605 192.689 68.2824 192.356 68.1044C198.11 67.8887 196.155 68.0628 199.362 68.3155C201.742 68.2765 197.707 68.0439 202.745 67.7918C208.589 67.4933 204.775 68.1967 212.354 67.8123C212.46 67.715 212.565 67.6176 212.671 67.5203C214.341 67.5551 216.016 67.5885 217.683 67.6211C217.458 67.5129 217.228 67.4048 217.007 67.2965C220.47 67.2161 225.168 66.8135 226.35 67.2238C222.839 67.14 222.923 67.9333 223.829 68.0456C225.715 68.297 253.363 66.856 258.736 66.5671C260.093 66.4996 261.457 66.4428 262.685 66.3958C267.733 66.1958 272.038 66.0232 276.959 65.2236C274.404 65.3022 268.028 65.8149 262.669 66.044C259.148 66.2057 256.167 66.3296 255.011 66.2935C254.719 66.2849 254.783 65.5507 253.021 66.453C247.193 66.5756 240.285 67.1091 233.031 67.3796C233.245 67.1603 233.459 66.9411 233.672 66.7219C238.144 66.9876 242.231 65.8285 241.68 66.6702C242.545 66.6333 243.465 66.5938 244.344 66.5558C244.338 66.4152 244.332 66.2745 244.326 66.1339C245.639 66.0772 247.015 66.0171 248.33 65.9592C248.336 66.0999 248.342 66.2405 248.348 66.3812C249.447 66.3328 250.583 66.2824 251.665 66.234C251.771 66.0888 251.882 65.9433 251.993 65.7978C254.445 65.905 261.279 65.2209 262.634 65.2884C262.95 65.303 262.99 65.3556 262.642 65.4637C262.451 65.5255 262.136 65.6054 261.669 65.707C262 65.6917 262.327 65.6765 262.651 65.6614C263.915 65.6025 265.065 65.5435 266.326 65.472C266.315 65.3696 266.304 65.2671 266.293 65.1646C266.97 65.1123 267.594 65.0611 268.281 65.0039C268.065 65.1109 267.842 65.2181 267.637 65.3239C270.681 64.9728 273.614 65.2311 275.579 64.7227C274.242 64.7766 272.908 64.8165 271.612 64.8436C274.156 64.8023 278.76 64.056 279.17 63.9956C280.425 63.8494 281.127 63.9732 282.477 63.7995C283.718 63.6344 283.508 63.4988 283.735 63.4717C290.333 62.5393 288.01 63.7809 290.798 62.1107C291.152 62.1662 291.486 62.224 291.851 62.2695C292.242 62.0417 292.623 61.8104 293.001 61.572C294.835 61.0187 296.599 60.34 298.176 59.4073C297.566 59.5693 296.94 59.6995 296.325 59.7935C298.716 58.5681 299.78 57.9491 300.021 57.7993C300.251 57.6199 300.413 57.4412 300.53 57.2882C300.676 57.0806 300.719 56.9171 300.798 56.8341C302.311 55.17 302.483 53.426 302.702 52.484C302.88 51.4956 302.943 51.1072 303.039 50.9126C303.206 50.5024 303.512 50.8885 303.96 47.8833C303.634 45.725 303.313 47.9143 302.977 48.2064C303.047 47.0822 303.059 46.2475 303.063 45.4618C303.051 44.451 302.96 43.5656 302.431 42.1237C302.199 41.5052 302.003 40.7718 301.771 40.392C301.58 40.0561 300.739 39.1743 300.102 38.4613C299.067 37.2579 297.512 35.6688 295.709 34.1764C294.492 33.1404 290.961 30.5054 287.937 27.9997C287.411 27.564 286.855 27.199 286.294 26.8839C284.89 26.14 285.247 26.1879 284.87 26.0077C284.706 25.9302 283.432 25.6143 282.373 25.2743C278.894 24.1439 275.136 23.2852 271.394 22.4409C266.018 21.2749 260.348 20.6608 254.776 20.1332C249.863 19.6821 244.87 19.3952 239.893 19.068C238.174 18.9552 236.455 18.8463 234.743 18.7336C233.329 18.641 234.086 18.5492 233.468 18.5059C233.256 18.4922 232.986 18.7164 230.802 18.4912C230.011 18.4104 230.932 18.2931 230.154 18.24C229.776 18.2149 229.603 18.4164 227.385 18.3441C223.353 18.216 221.199 17.8277 220.839 17.817C220.158 17.7991 220.351 17.9853 219.449 17.9462C215.048 17.7541 211.363 17.6058 207.413 17.3556C207.41 17.3554 207.406 17.3552 207.403 17.355C205.484 17.3161 192.898 16.0427 192.238 15.971C190.704 15.7589 192.17 15.522 190.189 15.3571C189.634 15.4016 189.069 15.4464 188.503 15.4921C189.377 15.6369 190.257 15.7849 191.125 15.9348C188.708 15.5954 185.958 15.5428 184.154 15.4014C184.049 15.393 183.669 15.3467 183.129 15.2838C182.021 15.1533 180.278 14.9581 179.212 14.8984C179.887 14.875 180.539 14.8506 181.222 14.8294C180.991 14.754 180.751 14.678 180.527 14.6033C177.389 14.4749 174.094 14.2613 170.877 14.0489C169.726 13.9733 170.117 13.8539 168.95 13.7773C162.123 13.3336 163.813 14.0332 157.307 12.5311C159.52 12.7598 167.623 13.0986 168.797 13.2104C169.613 13.2857 172.736 14.4273 171.629 13.3864C178.184 13.8067 172.457 13.9728 178.583 14.2587C178.468 14.1323 178.353 14.0059 178.237 13.8795C180.361 13.9477 181.933 13.9995 183.201 14.2952C183.214 14.298 183.226 14.3009 183.238 14.3038C183.725 13.7553 190.94 14.654 194.901 15.0266C198.895 15.3844 203.264 15.7794 207.495 16.0032C209.333 16.1049 211.156 16.191 212.886 16.2777C214.859 16.3761 215.955 16.6561 216.206 16.6686C216.563 16.6853 217.588 16.54 218.309 16.5749C221.001 16.7016 229.152 17.4561 231.214 17.0369C223.321 16.568 215.417 16.2666 207.512 15.7511C199.406 15.1895 191.386 14.1397 183.305 13.6061C183.564 13.6598 183.521 13.6871 183.245 13.6939C181.422 13.7229 169.033 12.9512 168.321 12.9049C167.561 12.8466 168.212 12.697 167.987 12.6718C166.316 12.489 164.861 12.6766 164.331 12.645C163.924 12.6207 163.111 12.4434 161.664 12.3609C161.399 12.3456 161.317 12.477 161.032 12.4606C159.145 12.3496 157.283 12.239 155.39 12.1299C155.275 12.1218 154.807 11.8958 154.33 11.8678C153.854 11.8402 153.364 12.0105 153.244 12.0042C151.732 11.9152 149.143 11.6362 147.705 11.5514C147.203 11.5223 147.542 11.6876 146.982 11.6537C145.262 11.5501 145.846 11.2992 143.717 11.2481C142.994 11.2303 143.041 11.4513 141.669 11.3414C140.711 11.2642 140.83 10.8827 140.678 10.8596C140.523 10.8381 138.751 10.8879 137.365 10.7961C136.808 10.7593 136.351 10.7038 136.038 10.6129C138.456 10.0923 133.442 10.4153 133.653 10.7102C132.335 10.5542 131.023 10.3964 129.707 10.237C129.247 10.278 128.792 10.3192 128.341 10.3607C123.206 9.70078 120.006 9.66408 115.056 9.47872C114.888 9.47225 114.715 9.46551 114.538 9.4585C114.283 9.44091 109.864 9.22356 110.07 9.13029C111.828 9.02874 113.595 9.01443 115.064 9.12615C115.815 9.18271 116.49 9.27132 117.052 9.39582C119.863 8.88183 119.894 9.34961 124.394 9.54008C125.9 9.60845 126.017 9.45184 126.192 9.46094C129.37 9.62845 133.577 9.87202 137.405 10.1537C140.624 10.3921 143.564 10.6685 145.354 10.9953C146.466 10.929 142.5 10.6451 144.045 10.6388C144.892 10.6365 165.204 11.6598 158.686 11.84C159.359 11.8639 160.034 11.888 160.708 11.9121C161.412 11.4252 164.754 11.7443 164.342 12.2458C164.665 12.1574 164.988 12.0691 165.313 11.981C165.945 11.9278 166.69 11.9237 167.731 11.9579C169.735 12.0266 176.704 12.4584 183.299 12.9627C189.853 13.4545 196.003 14.1158 196.635 14.1412C196.676 14.0202 196.717 13.8992 196.758 13.7782C192.282 13.2595 187.837 12.8929 183.327 12.5809C177.357 12.1685 171.242 11.8066 164.75 11.2136C165.073 11.3499 165.401 11.4865 165.725 11.6229C161.179 11.1863 156.636 10.759 152.089 10.3319C156.92 10.3994 164.605 10.6686 169.652 11.1543C170.554 11.2409 169.882 11.3627 170.088 11.3952C170.625 11.4797 171.223 11.2329 173.165 11.3277C175.109 11.4202 179.968 11.9441 180.42 11.9725C180.974 12.0031 182.207 11.9462 183.375 11.9364C184.003 11.9329 184.588 11.94 185.099 11.9806C187.026 12.1356 185.719 12.235 186.106 12.2693C187.705 12.4148 189.146 12.4366 190.396 12.5618C192.256 12.7428 196.085 13.4732 197.431 13.093C196.109 12.9352 194.778 12.7781 193.457 12.6285C198.662 12.9939 202.958 13.7967 207.625 14.094C209.434 14.2135 211.309 14.2706 213.298 14.2353C214.943 13.6985 209.085 13.4634 214.046 13.4661C213.149 13.4275 212.249 13.3873 211.351 13.3449C211.132 13.4636 210.921 13.5827 210.699 13.7009C209.69 13.5802 208.682 13.4564 207.677 13.3264C207.145 13.2579 206.624 13.1883 206.1 13.1165C206.527 13.2658 206.96 13.4142 207.388 13.561C201.943 13.2781 196.41 12.7514 194.543 11.957C194.415 12.097 194.289 12.2372 194.161 12.3773C190.445 11.874 185.336 11.7755 183.408 11.4861C182.706 11.3781 182.424 11.2382 182.833 11.0382C182.589 11.0654 182.333 11.0918 182.093 11.1196C179.023 10.7307 180.299 11.1713 179.148 11.1318C178.81 11.1165 172.825 10.5484 175.496 10.4698C169.651 9.90538 171.411 10.8112 169.792 10.7447C166.066 10.1224 159.291 10.3127 162.161 9.86275C161.604 9.80662 161.048 9.75063 160.491 9.69469C158.629 10.0723 156.853 9.41791 154.876 9.11904C154.206 9.06916 153.529 9.01894 152.859 8.96914C152.402 9.1065 151.936 9.24337 151.477 9.3807C145.196 8.23716 147.068 10.4782 144.282 8.52384C144.735 8.44317 145.203 8.36332 145.653 8.28233C146.725 8.29389 147.802 8.30542 148.867 8.31622C145.097 8.05611 141.318 7.7957 137.566 7.52453C137.014 7.48474 136.503 7.44721 135.954 7.40696C130.522 6.57319 127.431 6.85277 121.284 6.11804C120.703 6.13653 120.123 6.15762 119.541 6.18124C120.147 5.80388 122.396 5.95074 118.214 5.60326C117.862 5.30197 120.705 5.37047 121.981 5.66528C122.288 5.73495 119.637 5.81515 122.603 5.98057C124.606 6.10728 121.007 5.52973 126.975 6.04352C126.757 5.95883 126.547 5.87476 126.327 5.79003C126.971 5.83467 127.623 5.88041 128.262 5.92539C128.829 6.12577 129.382 6.32527 129.949 6.52546C131.43 6.38932 132.284 6.12035 135.628 6.40192C134.713 6.44559 135.929 6.84931 137.591 6.94583C137.598 6.82886 137.605 6.7119 137.612 6.59494C137.616 6.59509 137.62 6.59524 137.623 6.5954C141.631 6.76397 140.228 7.02234 143.592 6.95251C143.928 7.06558 144.25 7.17776 144.581 7.29044C146.436 7.0149 153.167 7.14241 151.909 7.6462C153.828 7.19683 157.778 7.67884 159.226 8.21195C159.346 8.1024 159.467 7.99286 159.587 7.88332C160.373 7.90571 161.159 7.92828 161.945 7.951C162.379 8.04712 162.814 8.1433 163.247 8.23951C163.806 8.20216 164.369 8.16513 164.928 8.12801C165.256 8.26454 165.587 8.40138 165.916 8.53808C166.816 8.45189 167.722 8.36636 168.624 8.28115C169.169 8.40769 169.703 8.53376 170.25 8.66079C170.318 8.41953 175.75 8.7053 177.257 8.96747C177.719 8.92697 178.17 8.88592 178.627 8.84562C178.843 8.97632 179.057 9.10697 179.27 9.23759C179.611 9.16767 179.952 9.09797 180.299 9.02885C181.064 9.17449 181.84 9.32184 182.608 9.47008C182.968 9.43272 183.283 9.40559 183.562 9.387C185.845 9.24354 185.968 9.65176 186.61 9.69859C187.95 9.7914 192.562 9.83864 193.322 9.93525C194.085 10.0261 194.429 10.2646 195.047 10.3444C205.093 11.6785 200.973 10.7057 202.991 10.8137C204.067 10.8636 204.807 11.1164 205.756 11.1694C206.136 11.1906 206.888 11.2275 207.818 11.2648C210.818 11.3891 215.768 11.4955 216.134 11.5338C216.831 11.6051 215.143 12.4178 217.422 12.3023C217.519 11.825 222.353 12.5554 220.116 11.7697C222.114 11.9294 224.118 12.0898 226.119 12.2547C225.922 11.6725 228.378 12.1678 231.08 12.2923C233.419 12.398 237.564 12.5072 240.356 12.7352C242.118 12.8769 243.336 13.0505 243.197 13.2686C244.119 13.2021 245.044 13.1366 245.968 13.0722C252.214 13.741 258.384 14.0452 264.71 14.8538C267.325 15.1956 269.99 15.5932 272.75 16.1897C278.805 17.8083 284.827 17.9347 292.028 23.1521C295.171 25.8534 298.538 28.3477 301.973 31.4675C305.262 34.3762 309.419 39.4487 309.237 45.4362C309.231 47.1136 309.252 48.8709 309.137 50.7649C309.067 51.7687 308.884 51.6103 308.806 52.352C308.553 54.0858 308.238 58.4012 304.483 61.7896C301.637 64.4891 297.518 66.2386 295.032 66.9636C293.436 67.4478 292.64 67.44 292.143 67.5598C290.465 67.9368 290.892 68.0783 290.135 68.2396C288.908 68.5545 282.501 69.3502 280.354 69.5297C279.261 69.6462 278.026 69.9751 276.766 70.0359C276.658 70.0414 276.836 69.8218 276.745 69.827C274.459 70.0166 275.838 70.062 275.067 70.1229C271.176 70.4197 267.07 70.6617 262.892 70.8361C261.239 70.9048 259.535 70.9747 257.804 71.0418C256.37 71.097 254.106 71.0574 252.853 71.1001C252.373 71.1169 253.231 71.2316 251.58 71.2927C251.02 71.3134 250.818 71.1233 250.176 71.1389C247.414 71.2069 246.499 71.8863 244.13 71.4743C239.551 71.7072 231.601 72.1986 227.425 72.3639C226.44 72.403 225.952 72.3044 225.002 72.3432C224.342 72.3701 223.179 72.5967 222.131 72.6384C221.069 72.6807 219.454 72.5679 217.428 72.6483C215.337 72.7312 212.694 72.9275 212.229 72.943C211.655 72.9631 211.38 72.7537 210.804 72.7765C209.059 72.8447 204.427 73.2152 202.184 73.3093C199.779 73.4109 198.335 73.3487 197.508 73.3761C196.747 73.4023 195.868 73.6134 195.52 73.6254C194.979 73.6443 194.845 73.4324 194.157 73.4545C193.027 73.4912 191.885 73.6601 190.197 73.711C174.115 74.1953 158.184 74.495 142.36 74.533C128.342 74.5643 114.444 74.4178 100.573 74.1097C97.2845 74.0349 95.4168 74.1536 90.5688 73.9771C88.6022 73.904 89.4544 73.701 87.9076 73.7063C87.2221 73.7087 87.39 73.8881 86.5283 73.8752C82.7079 73.8181 78.2861 73.5253 76.6225 73.4756C75.9744 73.4563 75.2126 73.6316 73.8663 73.5905C63.8578 73.2835 52.0015 72.7443 41.1916 72.071C40.9014 72.0528 40.6072 72.0343 40.3105 72.0155C34.5472 71.6137 26.5443 71.243 19.8406 69.7996C17.1353 69.2277 13.3105 67.9052 10.8485 65.3445C9.93602 64.4569 8.84673 63.4901 7.74365 61.9779C6.62961 60.5029 5.74825 58.2114 5.71332 56.1921C5.63171 51.4503 4.69327 46.4515 6.79002 40.2377C10.0429 32.2645 12.9532 24.8077 18.7988 17.9222C19.7878 16.9291 20.7875 15.825 22.9721 14.9628C35.636 10.6134 47.9649 10.1187 60.3127 9.18483C71.826 8.48992 83.3218 8.01098 94.8283 7.63724C84.9109 7.63476 71.9361 8.15271 60.2903 8.81066C58.2321 8.92848 56.2968 9.05271 54.3431 9.19191C44.1107 10.0537 33.6338 10.664 22.794 14.469C18.3295 16.5329 17.4413 18.7807 15.8062 20.8534C14.3662 22.9555 13.186 25.0507 12.0791 27.1679C9.88526 31.3983 8.02804 35.686 6.34314 40.0653C4.19536 46.5251 5.19503 51.4846 5.27792 56.2098C5.31606 58.3021 6.23908 60.698 7.39203 62.2194C8.53346 63.7805 9.64185 64.7572 10.5586 65.647C15.7353 70.4933 21.505 70.4691 26.1232 71.2649C30.9161 71.8589 35.6057 72.2059 40.276 72.525C42.7444 72.6904 45.1926 72.8378 47.6404 72.9753C61.037 73.7312 77.8194 74.2892 92.4453 74.7095C93.1007 74.7285 94.4784 74.6045 95.9165 74.6487C96.2091 74.6591 99.9914 75.0081 101.254 75.0306C100.06 74.5155 105.022 75.0379 106.577 75.0452C108.501 75.0562 112.575 74.86 117.107 75.0364C121.229 75.1946 120.09 75.3751 120.317 75.3892C121.779 75.4757 122.291 75.1708 123.404 75.1452C125.95 75.0903 134.289 75.1423 142.363 75.1338C148.824 75.131 155.097 75.0885 158.01 75.0513C159.705 75.0296 159.754 75.2238 160.136 75.2188C161.145 75.2046 162.582 74.9886 164.2 74.9618C167.117 74.9145 170.482 75.0318 172.086 74.9986C175.928 74.9226 183.206 74.5317 188.195 74.3891C189.592 74.3496 189.518 74.5549 190.153 74.5365C192.943 74.4571 200.221 73.9983 203.691 73.8812C209.325 73.6948 215.124 73.6227 220.843 73.3416C221.205 73.4189 221.575 73.4958 221.944 73.5726C222.516 73.4558 223.086 73.3389 223.654 73.2219C233.344 72.9247 243.166 72.3073 252.801 71.8881C253.901 71.8409 259.427 71.7628 260.31 71.7221C261.076 71.6868 261.83 71.4293 262.918 71.4089C262.925 71.4088 262.931 71.4087 262.937 71.4085C264.557 71.3763 263.086 71.8805 265.661 71.624C266.375 71.5516 265.681 71.4077 267.095 71.2698C267.549 71.2595 276.608 70.5063 277.113 70.4241C277.932 70.3654 278.713 70.6765 278.919 70.6628C280.006 70.5886 279.956 70.2896 280.679 70.1771C282.843 69.8465 285.745 69.6065 286.093 69.5387C290.34 68.8047 298.783 66.8907 303.462 63.1678C304.068 62.7178 304.132 62.9447 304.24 62.8675C304.517 62.6624 304.716 62.4482 304.882 62.2431C305.24 61.8413 305.53 61.4322 305.937 60.9605C310.117 56.1154 309.54 49.1246 309.681 45.8399C309.681 45.7324 309.673 45.5934 309.66 45.4345C309.627 44.8069 309.514 43.9635 309.411 43.2051C308.963 40.2737 308.416 39.3765 308.394 39.0725C308.326 38.775 308.533 39.1133 308.469 38.9588C308.166 38.2274 307.353 37.0618 306.214 35.557C303.211 31.4763 297.173 27.13 294.175 24.5782C293.06 23.6585 292.551 23.1461 292.288 22.8436C291.859 22.3991 291.85 22.3184 291.734 22.2245C291.263 21.8514 289.701 20.9518 287.447 20.0153C283.194 18.3822 283.825 18.5603 282.151 18.0378C282.013 18.0019 282.192 18.2362 280.396 17.7764C278.592 17.3167 275.687 16.5873 272.808 15.9222C269.972 15.2692 267.226 14.8364 265.439 14.5973C264.004 14.4098 263.644 14.5515 262.185 14.3823C259.87 14.1047 254.706 13.4176 254.299 13.3877C254.185 13.3775 253.908 13.5656 253.238 13.5069C252.497 13.4422 251.78 13.2717 251.231 13.2267C248.094 12.9639 242.694 12.9364 244.244 12.2917C243.23 12.4033 242.217 12.5162 241.205 12.6296C240.926 12.6076 240.647 12.5857 240.368 12.5642C234.091 12.0793 227.981 11.8229 221.785 11.546C220.33 11.4808 219.123 11.2766 217.898 11.2216C216.671 11.1694 211.275 11.1219 210.385 11.0668C209.962 11.0434 209.016 10.9904 207.842 10.9139C204.588 10.7192 199.52 10.2149 198.671 10.1147C196.461 9.85645 194.315 9.33002 193.394 9.30572C192.659 9.28634 193.317 9.52417 191.918 9.44564C189.482 9.30503 185.399 8.75595 184.658 8.70667C184.423 8.69023 184.697 8.78705 183.609 8.74982C183.255 8.73857 182.714 8.70992 181.974 8.66001C180.381 8.55304 179.545 8.34531 178.968 8.30699C178.787 8.29628 179.044 8.55671 175.904 8.31886C173.741 8.15586 172.826 7.90952 172.602 7.89454C172.264 7.87211 171.426 8.02226 170.057 7.93104C166.861 7.71549 161.029 7.13803 157.995 6.94416C157.409 6.90653 157.593 7.16196 155.254 7.00365C153.584 6.89059 153.883 6.71312 153.259 6.66913C152.267 6.59969 150.771 6.75184 148.58 6.6171C147.353 6.54073 142.622 6.21912 137.669 5.85503C131.482 5.40058 124.931 4.8457 124.315 4.78232C123.595 4.69431 122.752 4.64304 122.397 4.51794C122.711 4.43377 123.028 4.35037 123.341 4.26729C126.505 4.8171 125.238 4.33499 126.085 4.36244C127.305 4.4046 131.836 4.76294 132.933 4.74206C133.323 4.73455 132.448 4.46192 134.554 4.4857C136.073 4.50262 136.988 4.70641 137.739 4.69887C138.091 4.69412 138.402 4.63844 138.711 4.48393C141.867 5.26016 144.987 4.82103 141.29 4.437C140.837 4.39002 139.559 4.28915 137.773 4.15188C131.718 3.70354 119.524 2.66017 115.209 2.64023C114.943 2.63196 114.704 2.625 114.5 2.61933C111.063 2.51311 104.638 2.6486 100.412 2.70182C97.9296 2.70573 91.7849 2.92704 92.0274 2.64838C89.8031 2.72507 92.1694 2.88408 91.7046 2.94651C90.943 3.04049 86.4766 3.1923 83.9373 3.38755C83.2563 3.43602 82.7277 3.47789 82.4525 3.50536C76.0315 4.1256 68.0155 5.51024 61.8982 6.06212C62.1697 5.94681 62.4384 5.83198 62.7124 5.71649C64.0581 5.37268 70.4877 4.67853 71.1797 4.23938C61.8445 5.36153 52.1296 7.38863 44.3742 7.4597C44.3868 7.48793 44.3192 7.51301 44.1883 7.53388C42.5075 7.64515 32.4398 7.87888 31.8318 7.90888C32.0393 7.74473 32.2592 7.58052 32.4607 7.41833C39.492 7.60574 38.8102 6.98081 43.3937 7.37829C43.7278 7.38355 43.9871 7.38059 44.1911 7.37146C44.8914 7.32148 44.7097 7.14837 45.2986 7.10265C52.9143 6.17814 45.3127 7.72162 51.4402 6.91085C49.4982 6.78442 54.6397 6.04488 57.0699 5.62862C57.5877 5.54888 64.9083 4.56374 65.8066 4.43861C70.5638 3.71481 78.7572 2.53056 83.8383 2.27187C84.0047 2.26246 84.168 2.25394 84.328 2.24633C88.3408 1.93741 90.5051 1.57231 94.1017 1.36059C96.8264 1.21307 96.0497 1.42319 97.3314 1.38507C100.015 1.31599 100.89 0.764544 102.614 1.49463C104.427 1.37757 106.237 1.27451 108.053 1.18454C108.053 1.30173 108.052 1.41891 108.052 1.53609C109.19 1.53864 110.327 1.54636 111.465 1.55939C111.805 1.44651 112.134 1.33394 112.476 1.22203C116.055 1.43986 114.607 1.69809 115.223 2.03685C115.229 2.04012 115.235 2.0434 115.242 2.04669C116.025 2.08713 116.809 2.13045 117.595 2.17785C118.211 1.94226 118.834 1.70933 119.458 1.47935C123.022 1.63972 126.498 1.91321 129.877 2.15803C130.086 2.28911 130.308 2.42094 130.512 2.55164C130.527 2.43559 130.542 2.31955 130.557 2.2035C132.995 2.35615 135.419 2.50209 137.866 2.6419C141.164 2.83011 144.481 3.00958 147.796 3.18836C149.341 3.09135 140.117 2.41064 139.426 2.3541C139.001 2.3214 138.453 2.28432 137.89 2.24794C133.363 1.96208 125.264 1.50893 125.236 1.14537C123.37 1.25105 118.448 1.01106 115.251 0.785585C114.247 0.709022 113.41 0.622968 112.851 0.52562C113.656 0.542998 114.456 0.563038 115.255 0.586079C117.983 0.662623 120.804 0.787355 123.548 0.969384C123.441 0.823306 123.336 0.677365 123.228 0.531383C127.601 1.35894 128.186 1.38731 132.609 1.14285C132.601 1.32988 132.593 1.51692 132.585 1.70396C134.122 1.48329 136.168 1.71952 137.91 1.91969C139.687 2.12482 141.106 2.29175 141.213 1.89014C142.839 2.05218 144.467 2.21284 146.098 2.37311C149.636 2.48078 144.178 1.54464 158.006 2.58943C158.959 2.66194 158.749 2.85466 160.184 2.92459C160.599 2.94509 162.986 2.78459 167.524 3.08916C168.234 3.13707 168.271 3.31719 169.009 3.38475C170.705 3.54094 174.111 3.40277 172.54 3.87783C179.259 4.47126 176.509 3.82844 178.611 3.7785C180.025 3.74914 179.704 4.06687 180.932 4.07423C182.042 4.08111 181.74 3.85111 183.96 3.97461C184.751 4.01977 185.813 4.10578 187.379 4.27145C186.706 4.24096 186.023 4.21096 185.341 4.18247C185.682 4.30135 186.005 4.41927 186.341 4.53854C189.803 4.58998 189.459 4.89472 191.131 4.51569C193.621 4.969 195.82 5.20268 199.178 5.50258C205.181 6.01284 202.728 5.31052 208.158 6.26851C208.546 6.33471 208.989 6.40903 209.476 6.49101C210.661 6.45931 211.857 6.42171 213.057 6.38125C215.012 6.71038 213.401 6.90553 216.349 7.11529C214.061 6.44598 220.297 6.96536 221.391 6.52711C221.496 6.64977 221.603 6.77251 221.708 6.89515C222.371 6.92867 223.038 6.96251 223.707 6.9968C223.714 6.90304 223.721 6.80927 223.728 6.71551C224.61 6.83119 225.499 6.94782 226.385 7.06512C227.061 7.00757 227.735 6.95041 228.411 6.894C229.506 7.15058 230.596 7.40862 231.692 7.66924C232.385 7.72303 233.078 7.77773 233.774 7.83359C233.562 7.68045 233.35 7.52739 233.138 7.37447C234.03 7.47492 234.92 7.5769 235.813 7.68096C234.786 7.38675 235.455 7.15354 238.248 7.34892C240.089 7.48097 238.783 7.69576 240.712 7.85661C241.192 7.89726 241.875 7.93452 242.864 7.96729C243.209 7.98031 243.828 7.67503 248.483 7.98423C254.082 8.37168 251.344 8.40268 252.343 8.49253C252.54 8.51057 254.268 8.48429 255.887 8.60978C256.803 8.68015 257.677 8.90488 257.8 8.91667C258.371 8.96641 258.553 8.78661 259.345 8.86053C261.351 9.04751 264.06 9.45411 266.081 9.72013C266.994 9.83863 267.889 9.85257 268.305 9.91439C268.948 10.0098 269.751 10.3183 270.409 10.4306C271.41 10.6 272.652 10.7295 273.89 10.9356C275.469 11.186 276.946 11.5124 277.472 12.1345C279.809 11.8694 284.463 14.088 284.269 13.5332C286.445 14.3795 290.383 14.9953 295.502 19.0345C299.772 22.4825 305.406 26.9291 304.81 27.2514C308.222 29.387 307.669 29.7018 308.946 31.1027C310.402 32.8628 309.772 31.8233 310.904 33.4135C313.119 36.55 314.711 41.2354 314.63 45.414C314.628 45.876 314.629 46.3569 314.63 46.861C314.512 46.3987 314.393 45.9528 314.275 45.522C314.235 48.556 314.574 47.3618 314.482 51.0834C314.313 54.7602 313.72 56.4527 313.587 56.7271C313.413 57.0682 313.463 56.3877 313.125 57.0441C313.454 56.6328 312.044 62.489 307.998 65.7924C306.974 66.7026 305.824 67.5322 305.548 67.7061C305.292 67.8732 305.655 67.4922 305.463 67.5274C305.273 67.5298 304.524 68.1374 301.929 69.556C302.272 69.5128 302.598 69.4736 302.956 69.4102C300.357 70.8277 294.452 72.8112 293.53 72.9343C293.051 73.0422 290.528 72.6704 288.607 73.7666C288.343 73.6958 288.078 73.6245 287.809 73.5525C285.551 74.0866 283.332 74.535 281.125 74.9378C280.749 74.7705 280.369 74.6024 279.985 74.4336C279.287 74.5115 278.606 74.5833 277.889 74.6551C278.382 74.7935 278.867 74.931 279.346 75.0673C274.998 75.4601 269.851 76.0888 268.926 75.5136C268.01 75.6883 267.148 75.856 266.223 76.0236C265.606 75.8476 265.038 75.6674 264.434 75.4878C263.946 75.5183 263.508 75.5466 263.112 75.5736C260.276 75.7699 259.931 75.9182 257.459 76.2289C257.559 76.0605 257.659 75.8922 257.759 75.7239C255.722 76.0472 251.961 76.4312 248.968 76.5918C247.574 76.6667 245.104 76.5484 244.783 76.5825C244.445 76.619 241.161 77.6459 240.766 76.8948C235.889 77.4405 233.711 77.1804 231.728 77.269C230.448 77.326 229.849 77.5341 228.398 77.6103C226.324 77.7195 224.208 77.7117 223.01 77.7698C222.319 77.8038 222.196 77.988 221.718 78.0117C219.479 78.1229 220.792 77.8906 218.419 77.9902C218.192 78.0006 216.486 78.2824 214.525 78.3241C213.424 78.3481 210.611 78.1997 210.354 78.2089C209.24 78.2511 210.157 78.7137 206.355 78.2722C206.469 78.3621 206.582 78.4519 206.695 78.5418C202.035 78.9337 201.273 78.5377 200.335 78.5388C200.215 78.5403 199.083 78.737 198.399 78.7357C197.242 78.7332 196.778 78.5262 196.523 78.5241C195.629 78.5176 192.604 78.7041 190.625 78.5457C191.057 79.1639 184.136 79.5758 182.587 78.9003C181.364 79.0715 180.141 79.2418 178.92 79.4112C178.362 79.3072 177.805 79.203 177.247 79.0987C176.912 79.2232 176.576 79.3477 176.242 79.472C174.452 79.2553 172.656 79.0368 170.865 78.816C170.756 79.0759 170.648 79.3357 170.539 79.5955C170.038 79.5763 169.537 79.557 169.036 79.5375C168.641 79.3405 168.246 79.1434 167.852 78.9462C167.227 78.9971 166.602 79.0478 165.977 79.0982C165.825 79.2491 165.672 79.4 165.52 79.5509C162.159 79.7791 163.865 78.3433 157.472 79.6796C156.472 79.5768 155.477 79.4731 154.475 79.3688C153.351 79.9513 151.244 79.6312 149.533 79.7114C148.331 79.7677 148.398 79.9932 146.764 80.0116C145.123 80.0294 145.18 79.8124 145.052 79.812C144.01 79.8089 143.171 79.9272 142.388 79.9638C142.166 79.9742 141.948 79.978 141.731 79.9707C141.583 79.9658 141.21 79.7115 139.963 79.7002C138.718 79.6888 137.966 79.9643 136.104 79.9166C135.152 79.8923 134.878 79.6766 134.036 79.6582C130.003 79.5689 125.953 80.6514 122.936 79.3384C122.262 79.5009 117.313 80.045 115.201 79.9908C111.919 79.9069 113.18 79.6638 111.877 79.6037C111.688 79.5943 110.694 79.6711 107.931 79.6203C107.439 79.6112 107.552 79.7563 107.481 79.7573C104.263 79.7145 98.0249 79.4985 94.4971 79.404C94.1758 79.3951 92.532 79.7637 89.7349 79.1608C85.5842 79.4671 77.7771 78.4007 72.307 78.8123C71.537 78.7991 70.6208 78.6239 70.2868 78.617C67.3955 78.556 68.4366 79.0399 61.9142 78.1399C62.4319 78.383 60.9039 78.5222 58.7333 78.4098C55.4784 78.2386 57.8017 77.93 55.1967 77.8428C55.1912 77.9595 55.1857 78.0761 55.1802 78.1928C49.156 77.5843 47.948 78.0251 41.877 77.6519C41.2684 77.6131 40.5933 77.5499 39.9406 77.4779C38.1127 77.2805 36.3179 77.0068 35.928 76.9759C35.7169 76.9626 33.275 77.0473 33.0494 77.0276C31.7324 76.9223 30.9997 76.724 29.8713 76.6122C26.1547 76.2761 21.2513 75.872 22.2317 75.3448C21.0916 75.2997 19.9106 75.2251 18.6524 75.0825C14.4194 73.7134 8.41394 71.0891 8.13392 69.6174C7.8384 69.416 7.56405 69.2222 7.30833 69.0396C6.9085 68.7911 6.47309 68.5103 5.98696 68.1643C5.05607 67.2141 3.78302 65.944 2.5289 63.8486C1.26107 61.787 0.390718 58.8362 0.339968 56.4109C0.369186 51.743 -0.941547 46.757 1.82897 38.3235C3.59603 33.8229 5.52402 29.4402 7.85454 25.0036C9.03392 22.7795 10.293 20.5585 11.912 18.2132C12.733 17.0368 13.6331 15.8277 14.8567 14.5078C16.172 13.2212 17.3906 11.6118 21.2106 10.0791C21.3662 10.0238 21.5534 9.95717 21.7269 9.89613C22.3045 9.29005 30.3768 7.23789 30.6863 7.32109C32.5214 7.11929 30.7312 7.93314 34.3125 7.17844C34.6712 6.90186 35.0477 6.62439 35.4 6.35272C39.8946 5.59164 37.7537 6.14009 39.5293 6.03341C40.2496 5.91149 40.0224 5.7744 40.989 5.63951C45.5529 4.97977 54.0409 4.22842 59.995 3.88222C61.0177 3.81895 62.015 3.75951 62.8539 3.71009C64.0003 3.64277 63.8444 3.8059 64.1925 3.78696C65.157 3.73213 67.0836 3.43408 69.0304 3.33451C81.1115 2.71198 98.1578 2.13251 110.264 1.84095C111.088 1.82115 111.2 2.00051 111.754 1.98889C112.512 1.9723 114.239 1.75957 115.039 1.7455C115.809 1.73108 116.298 1.85245 117.108 1.83892C120.859 1.77688 125.828 1.36252 129.843 1.63018C129.875 1.63238 129.941 1.63978 130.034 1.65143C130.96 1.75996 134.397 2.24562 134.475 2.28664C135.031 2.55443 131.344 3.13803 137.459 3.34042C132.025 3.90189 133.749 4.48944 140.833 4.55377C137.29 4.76204 133.748 4.97048 130.193 5.17941C130.19 5.25646 130.188 5.3335 130.185 5.41054C133.45 5.67521 136.642 5.68796 141.553 5.54798C141.391 5.625 141.259 5.70098 141.106 5.77769C137.564 6.19548 133.428 6.44029 130.219 6.84705C129.54 6.93604 128.842 7.03529 128.264 7.14409C128.907 7.16982 129.6 7.1938 130.233 7.21995C134.442 7.38024 138.64 7.54091 142.83 7.70225C142.604 7.76649 142.343 7.83198 142.113 7.89638C139.787 8.12523 134.727 8.39171 132.808 8.59638C125.456 9.37797 139.279 8.75334 137.002 9.15127C134.793 9.22693 132.544 9.30404 130.31 9.38063C124.788 9.56971 119.217 9.76222 113.675 9.96074C113.514 10.0929 122.354 10.0141 130.334 10.0442C137.064 10.0662 143.197 10.1557 143.066 10.4812C140.631 10.6152 138.193 10.7495 135.739 10.8844C136.851 11.0234 137.923 11.1639 139.025 11.3033C138.737 11.3702 138.438 11.4374 138.128 11.5051C135.566 11.6834 132.998 11.8619 130.405 12.0414C128.886 12.1478 127.309 12.2562 125.781 12.3632C127.421 12.2858 129.003 12.215 130.409 12.1571C139.783 11.7722 144.67 11.8373 147.073 12.9712C147.193 12.9711 147.133 12.9725 147.14 12.9737C147.133 12.9751 147.125 12.9765 147.115 12.9779C147.092 12.9809 147.079 12.9836 147.054 12.9867C147.018 12.9924 146.973 12.9984 146.932 13.0043C146.848 13.0162 146.765 13.028 146.679 13.04C146.516 13.0637 146.335 13.088 146.174 13.1116C144.178 12.5435 136.918 12.7772 130.443 13.1098C128.013 13.2349 125.67 13.3754 123.814 13.4907C124.815 13.639 128.172 13.4689 130.454 13.4012C131.395 13.373 132.098 13.3633 132.48 13.3937C132.847 13.4251 131.579 13.6494 132.43 13.7106C134.615 13.8707 143.884 13.8463 142.551 14.1859C142.004 14.3249 135.745 14.6965 130.51 14.97C127.57 15.1241 124.93 15.2481 123.878 15.279C126.071 15.3084 128.296 15.3124 130.522 15.3101C135.242 15.304 139.932 15.2705 144.591 15.3822C140.669 16.043 137.169 16.7956 130.588 17.1602C129.984 17.1942 129.294 17.2266 128.62 17.2535C127.913 17.3677 128.893 17.4316 130.599 17.4702C134.72 17.559 143.029 17.5018 143.313 17.6068C140.423 17.8853 137.568 18.1628 134.674 18.4417C137.123 18.3074 139.549 18.1739 141.992 18.0399C142.002 18.0982 142.011 18.1565 142.021 18.2147C138.19 18.5167 134.547 18.8961 130.661 19.1976C128.161 19.392 125.545 19.5546 122.703 19.6442C122.936 19.9458 127.265 19.7589 129.375 19.6865ZM81.2565 1.81599C81.1374 1.64682 82.4279 1.48642 83.7579 1.36677C84.333 1.31476 84.9157 1.27129 85.3833 1.23578C85.1439 1.20781 84.9068 1.18011 84.6659 1.15322C88.0275 0.897764 94.1662 0.721895 94.3732 0.224744C96.7219 0.0758104 95.6977 0.549068 96.4552 0.572638C96.7518 0.580958 99.8052 0.23924 102.247 0.516777C102.825 0.507609 103.406 0.49984 103.983 0.493519C104.094 0.32896 104.205 0.164457 104.316 6.67572e-06C105.122 0.192196 105.936 0.387057 106.738 0.584581C99.1453 0.635194 91.5504 0.862847 83.776 1.57095C82.9284 1.64971 82.1149 1.72896 81.2691 1.81476C81.2649 1.81517 81.2607 1.81558 81.2565 1.81599ZM164.529 3.38771C167.519 3.65692 172.117 4.08688 171.213 3.58248C169.313 3.48853 167.414 3.39708 165.518 3.30731C165.188 3.33406 164.859 3.36089 164.529 3.38771ZM171.207 78.3903C168.686 78.0004 166.379 78.4276 162.49 78.4127C162.497 78.5058 162.503 78.5989 162.51 78.692C164.097 78.4428 168.301 78.5164 171.207 78.3903ZM4.92736 20.7113C4.54055 21.3353 4.2011 21.9337 3.89024 22.5021C4.71616 19.8518 5.07661 19.3653 7.86562 16.2071C8.04843 16.0192 7.90388 16.0025 7.96889 15.9371C8.73429 15.1759 9.6255 14.6402 10.4413 14.0955C10.6352 13.966 10.8266 13.8416 11.0199 13.7196C11.9467 13.134 12.8369 12.4694 14.7582 11.5847C16.4633 10.8319 16.5655 11.0662 17.1699 10.824C17.6471 10.5562 22.6898 8.40626 25.8843 8.27161C30.2792 8.14981 18.6037 8.9901 11.1708 13.9689C6.65682 16.8184 5.27955 20.3008 4.92736 20.7113ZM0.0971107 39.6119C0.0594158 39.0368 0.0264506 38.4543 0.000728607 37.8602C0.444265 39.5759 0.0933104 36.2205 0.333818 33.0331C0.519697 33.3444 0.430417 39.1762 0.782322 41.4194C0.549564 40.8251 0.320541 40.2231 0.0971107 39.6119ZM58.3093 6.76226C56.2718 7.08957 56.5563 6.63783 56.624 6.50719C57.2722 6.41519 57.9244 6.32114 58.5704 6.22732C58.483 6.40571 58.396 6.58402 58.3093 6.76226ZM43.7356 8.29C43.8217 8.25645 43.9727 8.22637 44.1771 8.19984C45.2309 8.0455 48.4857 7.76652 50.2465 7.53847C50.3341 7.52794 49.799 7.74138 51.2166 7.56948C51.6275 7.53361 55.8627 6.41792 54.9984 7.15929C51.1924 7.74345 47.4315 8.27057 44.1756 8.28978C44.0304 8.28971 43.8859 8.28982 43.742 8.29009C43.7399 8.29006 43.7378 8.29003 43.7356 8.29ZM38.9917 8.12235C39.878 8.02397 40.7813 7.9337 41.6534 7.85021C42.1101 7.9806 42.5777 8.11295 43.0222 8.24676C42.0224 8.26855 41.0224 8.29822 40.0023 8.33783C39.6652 8.26491 39.3399 8.19291 38.9917 8.12235ZM32.6025 10.336C32.3671 10.2408 32.1505 10.1426 31.9032 10.0512C31.0788 10.0996 27.2445 11.6312 28.5357 11.4431C29.895 11.0341 31.2532 10.6698 32.6025 10.336ZM48.8315 8.45533C49.6554 8.44878 50.4044 8.45237 51.2213 8.45298C52.0965 8.14409 53.0021 7.83674 53.8806 7.53515C49.9352 7.66908 45.6895 7.92723 46.4432 8.54433C45.5625 8.63415 44.6304 8.73433 43.7288 8.8372C44.479 8.4677 44.3392 8.37824 41.9449 8.48397C41.4704 8.94342 38.9979 9.03625 36.1492 9.58027C38.2257 9.27186 40.2922 9.01417 42.3421 8.78978C42.3505 8.85926 42.3589 8.92874 42.3673 8.99822C37.7873 9.55453 43.5384 9.24366 46.4452 8.68646C46.6862 8.75553 46.9291 8.82472 47.1739 8.89405C47.7497 8.74372 48.2671 8.60094 48.8315 8.45533ZM260.321 72.9375C259.778 72.8921 259.225 72.847 258.665 72.8023C256.763 73.7119 260.063 72.9474 263.001 73.197C263.358 73.2252 263.707 73.2667 264.04 73.3257C262.97 72.831 267.79 72.6013 268.044 72.5401C267.49 72.388 266.928 72.2348 266.359 72.0808C265.206 72.2491 264.136 72.4075 262.972 72.5658C262.114 72.6886 261.217 72.8132 260.321 72.9375ZM244.635 73.0066C246.574 73.3816 237.153 73.8136 233.99 73.8386C233.218 73.8454 231.831 73.6501 231.286 73.7037C230.955 73.8098 230.622 73.9159 230.289 74.022C229.857 73.7194 223.735 74.3201 221.286 74.5832C221.055 74.475 220.823 74.3668 220.591 74.2586C219.711 74.3379 218.826 74.4171 217.935 74.4962C218.043 74.3758 218.151 74.2553 218.258 74.1349C217.586 74.2997 216.926 74.4638 216.263 74.6279C213.637 74.8781 215.234 74.1861 213.26 74.4543C211.078 74.7511 214.683 75.0021 214.632 75.2496C216.417 75.123 220.465 74.8321 222.279 74.7559C223.324 74.7121 222.152 75.1992 226.622 74.5196C227.616 74.599 228.575 74.6794 229.581 74.7575C231.384 74.4983 233.176 74.2382 234.97 73.9769C235.311 74.1262 235.65 74.2756 235.991 74.4249C236.206 74.4421 240.329 73.8989 240.119 73.7847C241.828 74.0249 245.284 73.9332 248.938 73.7877C249.278 73.6839 249.641 73.5791 249.989 73.4749C246.463 73.8223 248.861 73.4307 247.803 73.3073C247.194 73.2361 245.311 73.1256 244.635 73.0066ZM10.4521 27.9204C13.1238 22.1124 11.2473 25.7737 15.2254 19.6596C14.7493 19.963 14.2774 20.2799 13.8159 20.5968C12.0877 23.8434 9.46653 28.6148 10.4492 27.9262C10.4502 27.9243 10.4512 27.9223 10.4521 27.9204ZM71.3495 6.36339C67.9532 6.66298 69.6811 6.89979 65.3695 7.23478C65.3675 7.23489 65.3654 7.235 65.3634 7.23511C67.5915 7.13784 69.8414 7.04599 72.058 6.96012C71.8212 6.7612 71.585 6.56229 71.3495 6.36339ZM113.693 76.6281C116.945 76.7503 116.319 76.5807 119.269 76.9301C123.683 76.5609 119.945 76.5936 119.949 76.2328C118.941 76.3319 117.942 76.4304 116.926 76.5278C114.485 76.1698 116.803 76.0198 116.804 75.9873C116.802 75.9873 116.8 75.9873 116.798 75.9872C116.799 75.8789 116.877 75.857 115.941 75.7835C115.189 76.0654 114.452 76.3471 113.693 76.6281ZM127.653 76.2691C126.537 76.5054 126.028 76.8126 128.971 76.9726C128.973 76.9726 128.975 76.9727 128.978 76.9727C129.222 76.4382 132.027 76.8736 133.32 76.8365C133.658 76.7782 134 76.7197 134.334 76.6612C132.098 76.5344 129.885 76.4037 127.653 76.2691ZM176.823 75.2489C176.849 75.8398 174.382 75.9526 177.868 76.4176C178.542 76.3913 179.215 76.3648 179.888 76.338C180.326 76.1975 180.765 76.057 181.205 75.9163C189.78 76.7648 192.276 74.8879 177.856 75.9258C177.854 75.9263 177.852 75.9267 177.85 75.9272C177.508 75.7011 177.165 75.475 176.823 75.2489ZM161.773 75.5946C161.67 75.9067 161.566 76.2189 161.463 76.5311C159.564 75.8122 157.134 76.5647 153.422 76.0806C153.088 76.179 152.754 76.2772 152.42 76.3754C151.546 76.2551 145.728 76.2404 142.369 76.3421C140.427 76.4022 139.303 76.5084 140.378 76.6786C140.888 76.7591 141.636 76.7611 142.372 76.7341C143.484 76.693 144.564 76.584 144.71 76.5868C145.527 76.6047 146.6 76.8637 147.976 76.8362C148.771 76.82 150.458 76.4908 152.08 76.4732C155.719 76.4365 162.371 77.1816 167.137 76.2933C167.483 76.3804 167.829 76.4674 168.175 76.5544C171.722 76.4277 170.529 76.1552 173.839 76.4387C176.087 74.9246 160.573 76.7706 163.789 75.5109C163.787 75.511 163.784 75.511 163.782 75.511C163.113 75.5392 162.443 75.5671 161.773 75.5946ZM64.0707 74.9961C63.8673 74.7247 59.7388 74.9616 60.7292 74.3676C59.3548 74.5304 58.0262 74.6929 56.6579 74.8511C56.6655 74.9105 56.673 74.9699 56.6805 75.0293C58.0337 75.0451 59.3457 75.0566 60.7057 75.0679C60.7069 75.1617 60.7082 75.2554 60.7094 75.3491C62.7034 75.1027 71.0295 75.5595 70.7454 75.8763C71.1937 75.7519 71.6445 75.6274 72.0977 75.5027C76.0571 76.0177 79.4832 75.7162 83.8018 76.2034C84.1405 76.0964 84.4802 75.9892 84.821 75.8821C85.0381 75.9813 85.2589 76.0806 85.4708 76.1796C87.0288 76.2311 88.6326 76.2815 90.1928 76.3288C95.3475 76.0678 85.368 75.355 84.1599 75.3715C83.999 75.375 84.015 75.618 83.0119 75.6291C81.2216 75.6554 71.2471 75.1069 68.1476 75.1434C68.1268 74.9818 68.106 74.8202 68.0852 74.6586C66.7576 74.7735 65.3969 74.8851 64.0707 74.9961ZM195.901 75.375C196.13 75.5318 196.36 75.6885 196.589 75.8452C200.475 75.5643 202.918 75.6268 201.905 75.1184C201.903 75.1185 201.901 75.1185 201.899 75.1186C199.907 75.2058 197.89 75.2918 195.901 75.375ZM149.699 5.12667C149.78 5.45705 151.624 5.68547 154.031 5.59142C153.921 5.49048 153.811 5.38955 153.701 5.28862C152.441 5.49291 150.909 4.92126 147.062 4.76218C147.053 4.92547 147.043 5.08876 147.034 5.25206C147.919 5.21016 148.806 5.16828 149.699 5.12667ZM192.545 75.4028C191.361 75.2444 188.044 75.9218 190.237 75.8896C191.912 75.8645 193.181 75.4879 192.545 75.4028ZM84.7331 6.05817C83.8563 6.06227 82.971 6.06715 82.0963 6.07199C81.6465 6.23137 81.1912 6.39111 80.7408 6.55076C80.7429 6.55066 80.7449 6.55057 80.747 6.55048C82.081 6.38513 83.4024 6.22141 84.7331 6.05817ZM102.542 76.5116C105.513 76.5384 108.506 76.5582 111.486 76.5708C111.517 76.4804 111.547 76.39 111.578 76.2996C108.592 76.5974 107.387 76.2228 106.699 76.1919C106.702 76.192 106.705 76.192 106.708 76.1921C104.459 76.0896 102.34 76.004 100.224 75.8593C100.992 76.0772 101.765 76.2946 102.542 76.5116ZM92.3314 75.7485C92.8102 76.399 93.4814 76.4928 98.06 76.1274C97.8795 76.0452 97.6993 75.9629 97.5194 75.8806C95.1597 75.8838 93.7525 76.0016 94.181 75.6762C93.5615 75.7006 92.945 75.7247 92.3314 75.7485ZM139.02 76.3689C138.476 76.168 134.103 76.3814 134.346 76.483C134.432 76.5258 140.097 76.7666 139.02 76.3689ZM116.549 3.3404C117.572 3.41499 118.603 3.49595 119.629 3.5851C118.257 3.59812 116.881 3.62603 115.53 3.66382C115.864 3.5553 116.214 3.44771 116.549 3.3404ZM105.365 4.13622C104.64 4.06127 106.994 3.45956 102.654 3.35336C105.813 3.30126 108.973 3.29096 112.128 3.32064C110.65 3.39408 109.166 3.47655 107.685 3.56786C107.945 3.73379 108.203 3.9 108.459 4.06646C107.424 4.08538 106.398 4.10861 105.365 4.13622ZM101.973 3.74722C103.681 4.14201 94.7309 4.36993 93.8887 4.38681C93.7021 4.38142 92.8015 4.08817 92.4707 4.03265C93.8292 3.96865 95.1859 3.91575 96.5412 3.87225C96.0852 3.78213 95.6264 3.69314 95.169 3.60522C96.7571 3.51136 98.3419 3.43108 99.9276 3.36226C99.2529 3.4813 98.5769 3.60247 97.9015 3.72588C99.2603 3.72429 100.617 3.73174 101.973 3.74722ZM137.714 4.94526C136.597 4.86575 135.493 4.78556 134.39 4.70397C134.61 4.88192 134.806 5.05835 135.02 5.2358C135.695 5.27864 136.353 5.31988 137.009 5.36045C137.241 5.22191 137.476 5.08351 137.714 4.94526ZM114.823 3.89337C114.933 3.84355 115.055 3.80503 115.184 3.77636C117.045 3.3718 120.606 4.9484 115.706 4.21016C115.521 4.18267 115.334 4.1439 115.176 4.1021C114.901 4.02631 114.721 3.94032 114.823 3.89337ZM90.516 4.45476C87.011 5.24022 87.73 3.91743 91.0996 4.10067C91.2687 4.11157 90.7788 4.39766 90.516 4.45476ZM64.2507 7.30683C63.9727 7.34285 63.4186 7.0067 60.825 7.7808C60.3748 7.79936 59.9364 7.81618 59.4933 7.83351C60.4591 7.4923 69.2916 6.11336 68.1264 6.69731C66.7686 6.89045 65.6508 7.11803 64.2507 7.30683ZM73.0273 7.64643C74.3675 7.4669 75.686 7.29769 77.0266 7.13449C76.568 7.05698 76.1131 6.98002 75.6617 6.90353C76.3053 6.79275 76.9761 6.68088 77.6206 6.5741C78.7711 6.66945 79.9185 6.77133 81.0657 6.87974C78.1711 7.20385 75.2572 7.5745 72.3805 7.97669C72.5969 7.8663 72.8104 7.75647 73.0273 7.64643ZM108.728 5.88992C106.147 5.71969 102.988 5.89711 98.7926 5.97035C98.7905 5.96999 98.7884 5.96964 98.7864 5.96928C98.5781 5.9726 98.2016 5.80498 97.5276 5.81716C96.9566 5.76548 85.6061 6.56129 86.4654 6.25992C90.8603 5.67228 92.5196 6.03886 93.5472 5.32116C93.7678 5.45222 93.9881 5.58356 94.208 5.71517C98.4405 5.79766 99.6301 5.30318 101.999 5.08361C101.991 5.18953 101.983 5.29545 101.976 5.40136C103.559 5.3886 105.142 5.38685 106.72 5.39525C106.499 5.32598 106.276 5.25691 106.052 5.18805C106.611 5.18625 107.174 5.18576 107.729 5.18653C109.094 5.50171 110.817 5.58784 108.728 5.88992ZM66.9781 8.27634C65.8581 9.19245 53.8756 10.5764 48.7166 11.1354C51.4058 10.4424 55.7737 10.1751 58.8672 9.72796C64.8465 8.86454 60.6714 9.17502 61.667 8.89869C62.1649 8.76043 65.6394 8.77457 66.9781 8.27634ZM118.169 5.91805C117.005 5.8535 116.034 5.84013 115.138 5.82729C113.685 5.80723 112.4 5.78771 110.773 5.58905C110.995 5.53261 111.21 5.47628 111.436 5.42029C111.836 5.44853 113.537 5.5169 115.143 5.60982C117.142 5.72235 119.024 5.87852 118.169 5.91805ZM40.9736 11.0805C42.5621 11.1573 43.5095 11.1784 44.1273 11.1635C45.6043 11.0987 44.716 10.8423 46.7911 11.161C45.8876 11.2231 44.9976 11.2607 44.1256 11.2628C43.0621 11.2628 42.0151 11.2717 40.9738 11.2905C40.9737 11.2205 40.9737 11.1505 40.9736 11.0805ZM185.782 72.5697C183.323 72.6166 180.571 72.5381 179.111 72.8755C180.779 72.8825 182.458 72.8876 184.126 72.8914C184.676 72.7844 185.23 72.6771 185.782 72.5697ZM255.715 67.0253C255.127 66.9795 252.957 67.2918 252.71 67.3028C252.272 67.3224 252.387 67.2117 252.379 67.1844C249.545 67.3302 252.178 67.5403 250.082 67.7048C249.695 67.7342 244.794 67.7877 242.764 67.8872C239.692 68.0394 236.599 68.1465 235.436 68.1999C233.509 68.2887 229.873 68.6816 226.686 68.8184C225.364 68.8747 224.885 68.6965 223.569 68.7518C215.05 69.1206 198.271 69.9521 190.708 70.0295C188.833 70.0515 187.051 69.8421 186.061 69.8894C185.284 70.004 184.505 70.1184 183.73 70.2323C181.314 69.4475 180.528 70.2198 177.948 70.3596C176.306 70.4478 175.533 70.214 175.313 70.2196C173.852 70.2571 173.133 70.3918 171.985 70.4357C170.697 70.4847 168.843 70.4082 168.383 70.4374C168.1 70.4556 169.009 70.7755 164.009 70.8581C158.912 70.9396 153.879 70.9736 148.695 71.0057C150.437 71.9956 151.915 71.2917 154.033 71.2293C154.602 71.2124 154.243 71.3766 154.738 71.3634C156.132 71.3273 158.805 71.1326 159.96 71.1525C161.208 71.1742 160.787 71.5512 162.368 71.3889C162.448 71.3805 162.192 71.2318 162.564 71.2001C166.3 70.8834 167.53 71.1279 172.258 71.038C175.393 70.9975 194.412 70.3433 195.068 70.4088C198.488 70.8539 178.439 71.4145 176.093 71.4047C175.273 71.4084 176.129 71.2203 175.381 71.2046C175.065 71.1988 172.22 71.5843 169.403 71.6664C165.996 71.7689 159.147 71.6633 155.898 71.711C151.37 71.7816 146.852 71.8291 142.346 71.8517C119.039 71.9628 95.9168 71.5425 72.5785 70.7617C71.9758 70.7412 71.1814 70.908 69.2541 70.8388C59.7324 70.4906 50.1184 70.0563 40.4877 69.3989C31.3386 68.198 21.4333 69.8242 12.7908 63.3172C11.0351 61.6502 8.5604 59.3023 8.53215 56.0773C8.41531 51.3172 7.66903 46.3619 9.42926 41.2561C13.1623 32.9192 15.3097 23.8428 23.9275 17.6112C25.2571 17.1217 26.6726 16.6548 28.0543 16.2738C35.9499 14.1652 43.8544 13.1954 51.9342 12.6253C52.9001 12.4034 53.9196 12.182 54.8942 11.9685C52.3382 12.2594 47.6367 12.3756 47.1926 12.424C47.0413 12.4383 46.0736 12.6923 44.5267 12.8573C42.3148 13.0965 41.3497 13.0915 41.1541 13.1153C40.5879 13.189 40.9754 13.2855 40.4431 13.3559C36.4627 13.8949 33.3726 14.4479 29.7292 15.3159C27.1705 15.9354 25.3323 16.4358 23.7135 17.0182C22.2299 17.5876 21.3696 18.4569 20.5529 19.4449C20.2098 19.6346 19.8597 19.8521 19.5341 20.0566C17.8571 22.1414 11.6233 34.1355 9.73227 39.2961C9.11113 40.8298 9.01524 40.5761 8.82372 41.0224C8.81395 41.0457 8.80399 41.0707 8.79382 41.0976C8.75575 41.4912 8.53233 41.4828 7.97869 46.2295C7.7981 48.598 7.65545 49.1968 7.66854 50.3617C7.68551 50.9906 7.87552 50.885 7.90476 51.7802C7.95811 53.3051 8.03112 54.7282 8.07795 56.0958C8.11364 59.5424 10.6627 61.9689 12.4372 63.6862C13.0107 64.2466 13.6816 64.8277 14.4455 65.3275C15.8472 66.1979 15.8205 66.2712 16.1479 66.4367C17.3819 66.9893 19.5436 67.3927 22.5246 67.9163C27.2161 68.802 36.1973 69.4943 40.4544 69.8905C40.6487 69.9091 40.8345 69.9273 41.0103 69.945C41.5812 70.0028 42.0729 70.2293 42.4953 70.2534C43.1306 70.2889 43.4021 70.1025 43.5157 70.1085C45.7003 70.2386 44.3594 70.3459 45.8229 70.3869C46.6318 70.4092 47.4277 70.2245 49.253 70.2973C51.6628 70.3914 51.1651 70.6384 52.1686 70.6626C52.2762 70.6636 52.311 70.4748 53.3129 70.5182C57.0326 70.6822 62.4595 70.8714 65.9932 71.0058C67.0285 71.0454 67.7424 71.2009 69.1771 71.255C72.0231 71.3857 88.2477 71.7652 89.5757 71.8507C89.7162 71.8616 88.2704 72.1101 90.5639 72.1541C91.2322 72.052 91.9169 71.9498 92.5798 71.8468C93.6827 72.058 94.8026 72.2686 95.9193 72.478C95.8824 71.8319 102.452 71.8483 102.383 72.5072C103.112 72.5457 103.814 72.5834 104.535 72.6209C106.043 72.1849 107.029 72.3689 109.933 72.1351C110.388 72.2809 110.831 72.4264 111.279 72.5718C111.394 72.4795 111.508 72.3871 111.622 72.2948C113.159 72.8194 115.7 72.3335 116.005 72.3331C117.185 72.332 118.087 72.4677 118.633 72.4676C120.697 72.4705 125.197 72.3159 127.607 72.4031C127.721 72.4076 127.608 72.6242 128.297 72.6526C129.539 72.7034 129.669 72.3864 131.317 72.7606C131.651 72.6672 131.985 72.5737 132.319 72.4801C132.674 72.5286 133.03 72.5769 133.386 72.6252C135.477 72.5994 137.584 72.57 139.668 72.5372C137.77 72.9108 139.951 73.1095 142.032 72.8099C142.216 72.7833 142.309 72.7485 142.35 72.711C142.396 72.6695 142.378 72.6248 142.35 72.5842C142.306 72.5216 142.239 72.4688 142.344 72.4531C142.346 72.4529 142.347 72.4527 142.349 72.4525C142.742 72.4129 152.073 72.4479 152.687 72.5783C153.131 72.5028 153.575 72.4272 154.019 72.3513C154.246 72.4894 154.473 72.6274 154.701 72.7653C154.946 72.713 155.19 72.6606 155.435 72.6082C157.883 72.8275 164.226 72.1562 165.376 72.1782C165.991 72.1908 165.448 72.8022 168.395 72.6848C168.495 72.5181 168.594 72.3513 168.693 72.1846C169.367 72.1479 170.041 72.1108 170.715 72.0735C171.981 72.0626 173.831 72.3084 173.894 72.5023C174.288 72.3766 174.681 72.2507 175.073 72.1248C176.142 72.4845 181.81 72.2153 184.08 71.9133C184.746 72.0113 185.419 72.1088 186.089 72.2063C186.982 72.0426 187.873 71.8785 188.761 71.714C190.838 71.6144 188.649 71.9078 189.092 71.9149C190.035 71.9302 194.782 71.3997 194.486 71.8975C195.137 71.8796 195.787 71.8614 196.435 71.8431C196.765 71.6931 197.091 71.5431 197.422 71.393C198.561 71.8408 200.475 71.6129 204.446 71.6594C204.773 71.5376 205.1 71.4157 205.427 71.2937C206.663 71.4109 207.893 71.5275 209.116 71.6437C209.359 71.4513 209.605 71.2589 209.852 71.0664C210.386 71.0216 210.919 70.9767 211.45 70.9317C212.543 71.306 214.471 70.7922 215.467 70.9262C216.914 71.122 215.819 71.4582 213.132 71.6104C213.356 71.9048 221.306 71.4777 223.16 71.3827C223.037 71.3288 222.913 71.2749 222.789 71.221C220.89 71.3395 219.041 71.4547 217.145 71.5703C215.544 70.8737 220.649 70.8901 223.003 70.7022C223.222 70.6845 224.402 70.354 226.783 70.2878C227.687 70.2636 231.291 70.5386 231.957 70.5346C237.48 70.5007 233.392 70.0712 238.799 70.3705C237.662 70.0167 240.769 70.221 243.987 70.0045C244.53 69.9685 249.152 69.4411 249.472 69.418C251.434 69.2787 249.326 69.7273 252.131 69.5098C252.473 69.4012 252.813 69.2927 253.15 69.1843C253.815 69.1544 254.45 69.1257 255.116 69.0955C259.143 69.7439 260.038 69.0894 261.479 68.9443C262.048 68.8862 261.335 69.1362 262.792 69.0226C262.797 69.0223 262.802 69.0218 262.807 69.0214C263.377 68.9747 264.017 68.7685 265.484 68.6777C270.237 68.3686 271.899 69.0279 276.201 67.8312C276.869 67.8848 277.563 67.9326 278.246 67.9774C278.683 67.7909 279.102 67.6046 279.553 67.4128C283.06 67.4029 281.749 67.1336 283.005 66.9735C286.294 66.6195 293.041 65.1951 293.742 65.2287C296.356 63.7247 299.994 62.8565 301.048 62.0204C301.615 61.5226 302.149 60.9903 302.635 60.4554C302.779 60.3578 302.92 60.2611 303.057 60.1658C303.699 59.7029 304.294 59.1463 304.81 58.5262C304.362 58.5044 305.048 57.5806 305.592 56.4837C306.157 55.3943 306.597 54.1733 306.645 53.9587C306.917 53.4471 307.042 48.076 306.905 45.4459C306.899 45.0503 306.88 44.711 306.856 44.4084C306.891 41.5716 304.501 37.3065 304.208 37.097C303.978 36.6363 300.937 33.571 298.503 31.6324C297.439 30.6969 293.678 27.6691 290.503 24.959C286.598 21.845 282.853 21.3218 283.338 21.516C284.339 21.9367 285.789 22.5365 287.04 23.1906C287.666 23.5248 288.869 24.126 290.222 25.2919C294.185 29.448 306.629 35.853 306.325 45.4483C306.321 47.3502 306.309 48.9638 306.25 50.0458C306.086 53.1782 305.593 57.0992 302.622 59.6706C294.905 66.0498 285.02 66.1816 276.283 67.2606C275.578 67.3231 275.441 67.1393 274.83 67.1894C273.929 67.2666 271.601 67.6466 270.672 67.7053C268.005 67.8832 264.898 68.0301 262.765 68.1163C262.211 68.139 261.72 68.1595 261.33 68.1765C257.268 68.3546 254.492 68.3628 251.409 68.4815C250.459 68.5186 245.606 68.9756 242.263 69.0155C241.665 68.9861 241.062 68.9568 240.454 68.9275C242.144 68.7924 246.676 68.4308 248.736 68.3203C251.861 68.1548 253.492 68.2394 254.619 68.1857C255.605 68.1395 260.488 67.7355 262.712 67.6272C262.722 67.6267 262.732 67.6263 262.742 67.6259C263.426 67.5984 263.584 67.7895 264.171 67.7596C267.4 67.5973 271.649 67.3103 274.425 66.8621C273.26 67.0502 280.451 66.4763 280.792 66.3948C281.463 66.3112 282.082 66.0428 283.417 65.8527C285.921 65.4722 285.666 65.9447 288.717 64.9448C289.514 64.9013 290.314 64.8435 291.102 64.7718C290.975 64.4228 300.068 62.4168 302.178 59.1648C302.327 58.9963 302.445 58.838 302.541 58.6881C302.54 58.6739 302.387 58.8219 302.091 59.0658C300.472 61.3293 290.777 64.3568 289.868 64.2916C283.659 65.6575 274.311 66.6223 268.157 66.8977C267.091 66.9492 264.67 66.9689 262.712 66.9643C261.38 66.9594 260.217 66.9583 260.046 66.9687C259.353 67.0098 259.988 67.1663 259.689 67.1868C253.456 67.6108 256.551 67.095 255.715 67.0253ZM102.016 6.27607C103.934 6.26994 105.851 6.27994 107.762 6.3047C107.622 6.42168 107.485 6.53874 107.347 6.65588C106.467 6.61002 105.596 6.56727 104.716 6.52778C104.044 6.60243 103.37 6.67899 102.697 6.75752C102.471 6.5968 102.244 6.43632 102.016 6.27607ZM97.3076 6.87011C95.6493 6.97969 95.5591 6.73936 95.1752 6.74056C94.0288 6.74648 93.0427 6.88891 91.931 6.94032C93.1832 6.28691 95.9298 6.44886 97.3076 6.87011ZM131.52 7.89483C131.148 7.8431 128.725 7.04573 125.865 7.44533C123.763 7.11991 121.648 6.80463 119.514 6.53076C123.148 6.95855 128.116 7.02906 129.866 7.15123C130.524 7.19946 130.651 7.40233 131.173 7.44002C134.246 7.65983 137.219 7.40211 137.51 8.06353C134.628 7.70003 131.985 7.96004 131.52 7.89483ZM112.91 6.75633C112.422 6.61436 111.925 6.47332 111.432 6.33335C112.664 6.34756 113.898 6.36806 115.125 6.39562C115.692 6.40837 116.241 6.42217 116.805 6.43823C116.311 6.56013 115.826 6.68369 115.341 6.80836C115.266 6.80648 115.191 6.80462 115.116 6.80277C114.385 6.78487 113.647 6.76942 112.91 6.75633ZM249.315 15.9979C248.222 15.908 247.126 15.8205 246.033 15.735C246.086 15.837 247.337 15.9333 247.793 16.0358C247.791 16.0356 247.789 16.0354 247.787 16.0353C248.293 16.1502 248.066 16.2583 248.994 16.3884C249.101 16.2582 249.207 16.128 249.315 15.9979ZM56.2597 12.2907C56.754 12.2578 58.3795 12.145 60.4822 12.013C65.9809 11.6605 74.6637 11.173 73.5887 10.9658C72.8535 10.8207 67.0603 11.2689 65.3502 11.3629C64.2799 11.4193 62.2682 11.4437 60.454 11.5423C58.3876 11.6538 56.5296 11.8682 56.2597 12.2907ZM86.2845 10.8047C86.5647 10.4323 75.9691 10.8512 74.9372 10.9691C75.1639 11.0091 75.5012 11.106 75.7955 11.1176C77.2343 11.1694 83.9957 10.804 86.2845 10.8047ZM304.36 39.9157C304.096 39.0212 303.735 38.1472 303.314 37.3071C303.278 37.644 303.232 37.9755 303.176 38.3007C303.602 38.8082 304 39.3424 304.36 39.9157ZM239.768 69.0652C225.542 69.6535 211.334 70.1729 197.094 70.5945C198.346 70.4592 199.598 70.3231 200.84 70.1865C213.105 69.8345 226.162 69.4417 238.002 68.796C238.591 68.8858 239.165 68.9762 239.768 69.0652ZM135.446 9.20354C136.13 9.24723 136.788 9.28248 137.456 9.31582C140.255 9.45423 142.885 9.53744 146.071 9.94517C142.532 9.98716 140.678 9.53453 137.438 9.61317C137.212 9.61806 136.983 9.62555 136.751 9.63596C136.749 9.63584 136.746 9.63571 136.744 9.63559C136.323 9.49249 135.869 9.34721 135.446 9.20354ZM216.616 14.8635C215.5 14.9703 214.386 15.0763 213.272 15.1801C214.604 15.2519 215.934 15.3203 217.265 15.3879C217.049 15.2131 216.831 15.0382 216.616 14.8635ZM115.645 70.7234C111.826 71.0536 102.084 70.2742 98.9801 70.6416C98.7793 70.6661 100.626 70.881 97.6283 71.1774C99.898 71.1477 101.464 71.0993 101.643 70.8264C102.31 70.9309 102.987 71.0352 103.646 71.1389C104.749 71.085 105.868 71.0303 106.977 70.9744C106.855 71.2474 106.938 71.2346 108.642 71.0682C109.415 71.1475 110.207 71.2266 110.973 71.3049C111.302 71.1922 111.631 71.0795 111.961 70.9667C112.631 71.1367 113.303 71.3064 113.978 71.4757C116.594 71.3238 115.004 70.9934 115.645 70.7234ZM128.995 70.862C128.389 70.8194 110.684 70.8947 118.726 71.5002C120.809 71.4978 122.902 71.492 124.992 71.4828C123.267 70.5694 128.95 71.4006 129.425 71.4182C131.657 71.5108 134.517 71.2934 136.134 71.3011C137.53 71.3082 138.366 71.4683 139.342 71.4606C140.241 71.4535 141.284 71.4458 142.344 71.4303C145.198 71.3887 148.169 71.2851 148.695 71.0057C146.612 71.0186 144.485 71.0304 142.342 71.0453C141.813 71.0489 141.282 71.0528 140.75 71.057C137.898 71.0782 135.377 70.7344 130.013 71.2152C128.679 71.161 129.156 70.8778 128.995 70.862ZM209.947 14.9537C210.008 14.8017 208.908 14.6614 207.594 14.5464C205.708 14.3849 203.365 14.2491 203.334 14.3334C203.311 14.4215 205.498 14.6015 205.805 14.655C205.807 14.6552 205.809 14.6553 205.811 14.6555C205.94 14.6796 205.268 14.7741 206.294 14.8912C206.719 14.9017 207.138 14.9105 207.569 14.919C208.358 14.9336 209.15 14.9447 209.947 14.9537ZM30.1195 16.5515C30.9994 16.0779 51.6889 13.4072 52.3199 13.4716C52.482 13.43 52.2451 13.3563 52.3056 13.2976C47.4855 13.9804 40.5562 14.3795 35.9736 15.1522C34.7111 15.3621 35.1028 15.4496 35.0348 15.4635C35.0318 15.464 35.0287 15.4646 35.0256 15.4651C34.3121 15.5774 30.9661 15.8766 30.1195 16.5515ZM92.3067 70.6822C93.1832 70.7602 94.0662 70.8376 94.9554 70.9145C95.1837 70.8023 95.4123 70.69 95.6413 70.5777C95.6393 70.5777 95.6372 70.5776 95.6352 70.5776C94.5161 70.6133 93.4064 70.6482 92.3067 70.6822ZM61.6347 69.3429C61.8446 69.434 62.0553 69.525 62.2668 69.616C64.5176 69.7205 66.7221 69.8171 68.9563 69.9095C68.7282 69.9477 68.5008 69.9858 68.2741 70.0239C71.6451 70.2709 73.0479 70.0267 74.8437 70.1268C74.8416 70.1268 74.8396 70.1267 74.8375 70.1266C75.0297 70.1376 75.2686 70.3168 75.9823 70.3451C77.6134 70.4119 82.364 70.6117 82.9256 70.4529C84.1596 70.1233 74.6298 70.0228 72.8642 69.9384C72.0639 69.9039 71.0942 69.7204 70.6121 69.6999C70.0844 69.678 69.3473 69.8547 68.043 69.8004C67.6731 69.7859 63.4563 69.3862 61.6347 69.3429ZM22.3437 66.5604C22.9971 66.8756 24.452 66.9266 24.9703 67.0293C25.0938 67.0545 24.1066 67.0678 25.2722 67.2835C25.6312 67.2275 25.9702 67.1667 26.3184 67.1056C24.9927 66.9559 23.6667 66.7828 22.3437 66.5604ZM198.655 14.2023C198.844 14.2643 202.445 14.602 202.621 14.5871C204.809 14.4567 197.35 13.7771 198.655 14.2023ZM107.395 9.08258C109.06 9.46597 89.2998 9.3837 87.392 9.74611C87.464 9.41927 92.1832 9.44887 89.6966 9.1713C92.0586 9.23912 98.5516 8.89021 100.084 8.94355C101.014 8.96558 101.252 9.22944 101.393 9.23534C101.942 9.24729 106.807 8.90043 107.395 9.08258ZM71.1248 11.256C72.9945 11.0686 74.8648 10.8949 76.7378 10.7378C74.54 11.0266 72.3454 11.3387 70.1553 11.6682C70.4756 11.5308 70.7987 11.3933 71.1248 11.256ZM68.7997 11.7108C68.8952 11.9913 62.5642 12.6672 60.9079 12.9845C62.7046 12.2076 65.8925 12.2219 68.7997 11.7108ZM174.649 13.0171C177.566 13.4037 178.888 12.5771 175.294 12.7406C175.187 12.7467 174.528 12.9988 174.649 13.0171ZM114.753 69.4311C114.251 69.4234 108.024 69.0571 107.666 69.1964C106.515 69.6492 110.622 69.5148 111.975 69.7046C114.179 70.013 110.937 70.2188 116.325 70.0958C116.103 70.1875 115.882 70.2792 115.661 70.3708C118.819 70.4286 117.798 69.7709 118.361 69.6921C118.532 69.6683 120.501 69.7363 120.86 69.6969C125.323 69.2024 115.206 69.4461 114.753 69.4311ZM247.173 18.2168C252.975 18.9619 250.505 18.337 256.474 18.9131C256.698 18.7069 247.944 18.0797 247.173 18.2168ZM171.682 69.4604C165.637 69.6662 160.662 69.4813 155.027 69.9156C155.398 70.4869 173.257 69.586 171.682 69.4604ZM99.7215 12.7813C87.379 12.7591 74.0586 13.1458 60.5956 13.9052C48.4024 14.7424 35.8558 15.4684 24.6865 19.3375C24.6452 19.3524 24.605 19.3668 24.5658 19.3809C22.5613 20.3906 22.3086 20.8023 21.6746 21.4429C21.2786 21.9287 21.479 21.9583 20.9638 22.6195C16.708 28.4688 13.8325 35.2713 11.2108 41.9435C9.69456 46.2988 10.334 51.2376 10.5006 55.9971C10.5254 58.3593 12.3282 60.1313 14.1787 61.8685C21.1789 67.3332 31.6699 66.2464 40.6302 67.2937C46.8301 67.7085 53.0695 68.034 59.2957 68.3311C61.1637 68.4293 70.2897 69.1636 72.2438 68.646C73.73 68.2616 67.1646 68.3728 66.0778 68.3228C65.2528 68.2882 65.2276 68.0817 64.6837 68.0596C64.1089 68.0361 64.5771 68.195 63.9125 68.1706C61.0472 68.0659 57.935 67.8747 55.3627 67.764C50.426 67.5509 45.5241 67.3026 40.651 66.9862C31.6413 65.9815 21.052 66.9257 14.4122 61.6248C12.547 59.8646 10.8755 58.1797 10.8658 55.9823C10.7095 51.2059 10.1253 46.2607 11.6061 42.096C12.842 38.9061 14.1964 35.7419 15.6869 32.6463C17.0149 29.9339 16.906 30.5796 16.9699 30.4404C16.9705 30.4384 16.971 30.4364 16.9716 30.4344C19.0334 26.6223 21.4251 21.7634 24.765 19.9333C35.839 15.9651 48.6671 15.1534 60.6242 14.3835C61.1092 14.3576 61.6013 14.3322 62.1 14.3073C74.2776 13.7246 86.4739 13.3246 98.6665 12.9455C99.0167 12.8908 99.3694 12.836 99.7215 12.7813ZM127.659 70.0876C126.146 69.4623 125.795 70.0922 120.338 69.8071C119.892 69.9101 119.448 70.0129 119.005 70.1155C121.891 70.1128 124.787 70.1036 127.668 70.0877C127.665 70.0877 127.662 70.0877 127.659 70.0876ZM91.6031 69.424C90.7087 68.5753 78.4743 68.8625 72.9972 68.5053C71.965 68.895 79.9667 68.9615 81.8521 69.0522C82.7762 69.1009 87.8294 69.6681 91.6536 69.5106C91.6368 69.4817 91.62 69.4528 91.6031 69.424ZM127.971 11.0381C128.859 11.0733 129.746 11.1084 130.638 11.1431C128.428 10.9042 126.212 10.6565 124.004 10.4256C127.53 10.7086 131.07 11.02 134.607 11.302C133.947 11.4342 133.273 11.5649 132.594 11.6949C131.058 11.4786 129.51 11.2582 127.971 11.0381ZM139.472 11.685C138.414 11.6326 137.714 11.5855 137.319 11.5475C136.587 11.478 136.754 11.4341 137.327 11.4187C138.301 11.3904 140.492 11.444 141.304 11.6011C142.222 11.7797 140.103 11.7161 139.472 11.685ZM155.593 12.9254C152.681 13.0618 146.832 12.7446 148.947 12.2567C152.058 12.7229 154.087 12.6018 158.61 13.0302C157.94 13.1081 157.274 13.1862 156.604 13.2642C156.601 13.264 156.598 13.2638 156.595 13.2636C156.26 13.1508 155.926 13.0381 155.593 12.9254ZM136.612 11.8801C135.012 11.6415 135.888 11.6317 137.31 11.7056C139.452 11.8168 142.863 12.1165 140.619 12.1229C140.486 12.123 138.4 12.0019 137.296 11.9295C136.912 11.9045 136.652 11.886 136.612 11.8801ZM73.7626 14.5406C74.2428 14.3175 71.1237 14.474 70.0789 14.5147C67.2424 14.6218 63.8955 14.8211 60.6629 15.0283C58.7256 15.1523 56.8884 15.2811 55.143 15.4006C55.4982 15.4399 55.8616 15.4791 56.2205 15.5192C57.6845 15.4159 59.1662 15.3202 60.675 15.2308C65.0156 14.9743 69.4024 14.7499 73.7626 14.5406ZM40.6472 16.8659C37.4745 17.3002 34.3501 17.8114 31.2698 18.5167C30.9795 18.5802 29.7014 19.0697 30.6898 18.8713C33.9262 18.024 37.2797 17.3984 40.6472 16.8659ZM148.004 68.8342C145.534 68.7456 152.643 68.1074 152.327 68.72C150.89 68.7598 149.444 68.798 148.004 68.8342ZM170.99 68.2464C169.442 68.3364 167.893 68.4247 166.345 68.5114C166.342 68.4411 166.338 68.3708 166.335 68.3004C167.887 68.2841 169.439 68.266 170.99 68.2464ZM86.4271 14.1023C84.7792 13.9319 80.865 14.1422 78.4244 14.251C80.1196 14.379 84.1167 14.0979 86.4271 14.1023ZM110.992 68.5316C111.188 68.7037 101.362 68.5252 104.767 68.2844C106.853 68.3704 108.911 68.4525 110.992 68.5316ZM91.0389 67.9536C93.1619 67.9652 94.7713 68.0534 94.3381 68.3026C93.2188 68.2687 92.1146 68.2341 90.9874 68.1979C91.0046 68.1165 91.0218 68.0351 91.0389 67.9536ZM166.572 14.0646C170.119 14.2554 173.67 14.452 177.212 14.6628C177.076 14.7243 176.939 14.7858 176.802 14.8473C173.39 14.6459 169.967 14.457 166.547 14.2734C166.555 14.2038 166.563 14.1342 166.572 14.0646ZM88.4616 14.6478C90.8982 14.4979 93.3334 14.3508 95.7709 14.2057C93.3276 14.2578 90.8864 14.3119 88.4435 14.3688C88.4475 14.4623 88.4515 14.5558 88.4555 14.6493C88.4575 14.6488 88.4595 14.6483 88.4616 14.6478ZM117.977 12.0941C126.445 12.7508 119.599 12.6326 114.99 12.403C113.802 12.3397 112.752 12.2595 112.173 12.1524C112.17 12.1527 112.167 12.1531 112.164 12.1535C111.913 12.1074 112.448 11.9085 112.03 11.8196C113.019 11.9171 114.01 12.0188 114.996 12.1252C115.103 12.1366 115.209 12.148 115.314 12.1594C116.316 12.0669 117.309 11.9793 118.31 11.8995C118.637 11.9569 118.963 12.0151 119.286 12.074C118.851 12.0793 118.412 12.0859 117.977 12.0941ZM74.6975 14.0284C64.9986 15.2544 74.8472 13.3905 79.7023 13.3059C79.6716 13.3977 75.5847 13.9152 74.6975 14.0284ZM100.115 12.0697C101.652 11.991 103.191 11.9234 104.729 11.8658C104.923 11.9234 105.124 11.9812 105.32 12.0392C104.139 12.104 102.959 12.1748 101.78 12.2518C101.225 12.1897 100.671 12.129 100.115 12.0697ZM150.802 15.037C153.288 15.2458 156.51 14.7752 148.492 14.4838C148.492 14.5543 148.492 14.6248 148.492 14.6953C148.813 14.7027 149.753 14.691 149.803 14.6992C149.949 14.7252 149.76 14.9498 150.802 15.037ZM56.9343 18.378C56.6519 18.44 56.6196 19.2122 53.534 18.824C52.6423 18.9796 51.7242 19.1303 50.8114 19.2673C50.5535 19.1284 50.2984 18.9883 50.046 18.8469C53.6227 18.6248 53.9191 18.2082 54.174 18.179C55.319 18.0016 54.4918 18.2794 55.2347 18.185C57.1514 17.9441 61.411 17.204 59.5377 17.9673C58.8643 18.2412 57.2201 18.3124 56.9343 18.378ZM63.6391 17.8381C63.2226 17.8362 64.5008 17.4303 64.1851 17.4143C63.9149 17.3992 59.8074 17.7759 60.8572 17.2516C61.524 17.17 62.2053 17.0858 62.8677 17.0046C63.1082 17.071 63.3503 17.1372 63.5932 17.2033C64.2154 17.0187 64.86 16.8313 65.4828 16.6477C66.6082 16.7354 68.9493 16.7284 66.2471 17.3172C67.244 17.1528 68.2469 16.9898 69.2509 16.83C69.7474 16.6415 70.2625 16.4514 70.7605 16.2647C70.5167 16.4801 70.2636 16.6971 70.0156 16.9136C67.895 17.2087 65.7724 17.5204 63.6391 17.8381ZM31.7325 20.1531C31.8407 20.0496 31.9518 19.9461 32.0612 19.843C28.4986 20.2358 23.4963 21.4237 26.2711 20.2514C30.7801 19.3594 35.7027 19.0883 40.6355 19.0168C40.9753 19.0861 41.2872 19.1566 41.6179 19.228C37.9411 18.9701 39.0784 20.1078 35.9185 19.8779C35.39 19.8508 36.9022 19.3527 33.5927 19.7981C33.7159 19.8843 33.8395 19.9707 33.9636 20.0573C33.2169 20.0795 32.4731 20.1108 31.7325 20.1531ZM12.3421 33.0769C12.4215 32.6917 12.4913 32.5286 12.5757 32.3296C12.6595 32.1385 12.754 31.9548 12.8204 31.8425L12.684 32.1518C12.857 31.8718 12.8688 31.9315 12.777 32.1965L12.9162 31.8811C12.7615 32.4673 12.6797 32.8323 12.5393 33.752C12.4955 34.0191 12.4524 34.2487 12.4023 34.3824C12.4024 34.3809 12.4025 34.3793 12.4026 34.3777C11.954 35.7159 11.8587 34.8116 11.9613 33.695C12.0141 33.1599 12.1127 32.7395 12.2124 32.4738C12.3087 32.2062 12.4589 31.8888 12.4879 31.8115C12.4981 31.7847 12.507 31.7547 12.516 31.7198L12.3881 32.0096C12.6263 31.3895 12.8688 29.7228 14.6414 27.6917C14.0253 28.9622 13.3819 30.4977 12.5982 32.1106L12.7322 31.807C12.4817 32.4271 12.4306 32.5975 12.3421 33.0769ZM21.9258 22.0253C21.5077 22.1918 21.6951 21.9762 21.5144 22.0434C21.5128 22.044 21.5112 22.0446 21.5097 22.0452C20.4259 22.4471 18.8755 23.162 17.3159 24.1174C16.7174 24.4766 16.2333 24.9665 15.7385 25.6091C15.2554 26.2352 14.8366 26.8955 14.6161 27.0274C15.0431 26.118 15.9801 24.3984 17.1172 23.7893C19.7749 22.1149 22.7757 21.3007 23.1621 21.3743C22.7376 21.5829 22.3216 21.8011 21.9258 22.0253ZM44.1396 19.4764C45.1136 19.6024 44.7991 19.682 43.9835 19.7128C42.9453 19.7519 41.0587 19.7237 40.3298 19.6492C40.1057 19.622 41.9068 19.1509 43.9879 19.4563C44.0382 19.4628 44.0888 19.4695 44.1396 19.4764ZM205.501 20.8887C206.404 20.9229 206.91 20.9231 207.161 20.906C207.439 20.8855 207.376 20.841 207.169 20.7849C206.589 20.6314 204.927 20.3777 206.217 20.3076C205.31 20.2656 204.401 20.2178 203.493 20.1644C204.157 20.4086 204.832 20.6505 205.501 20.8887ZM214.824 62.6642C213.738 62.6703 214.258 62.8212 214.164 62.8271C213.448 62.8479 212.773 62.7337 212.503 62.7578C207.471 63.2121 210.829 63.2374 210.883 63.2688C210.995 63.4326 209.675 63.6748 211.52 63.8023C212.629 63.7042 213.743 63.6053 214.86 63.5057C215.418 63.579 215.973 63.6521 216.527 63.7252C218.731 63.4448 215.836 63.4956 215.5 63.2421C215.369 63.1425 217.445 62.9427 214.824 62.6642ZM213.924 21.9674C214.695 21.7134 216.568 21.4377 214.764 21.0482C214.762 21.0481 214.76 21.048 214.758 21.0479C214.421 20.9764 213.057 20.8744 212.632 20.7749C209.594 20.9977 210.728 21.4723 213.924 21.9674ZM234.8 61.3663C236.611 61.3607 238.377 61.3558 240.207 61.3472C240.184 61.5249 240.16 61.7026 240.137 61.8804C239.162 61.874 238.207 61.8664 237.245 61.8589C236.911 61.9534 236.576 62.048 236.239 62.1425C237.459 62.2936 238.62 62.4466 239.85 62.5962C241.293 62.4648 242.718 62.3335 244.162 62.2006C243.499 62.136 242.826 62.0717 242.154 62.0072C245.693 61.7522 244.923 62.2151 247.848 62.2514C248.808 62.0454 249.846 61.8357 250.818 61.6287C252.256 61.7291 253.716 61.8279 255.171 61.9265C257.603 61.739 257.78 61.6053 256.164 61.4915C257.328 61.2241 258.715 61.4977 260.134 61.3448C260.256 61.3321 260.016 61.1413 260.124 61.1338C261.018 61.0767 261.778 61.0346 262.434 61.0044C267.498 60.7588 267.298 61.159 268.369 61.1173C269.205 61.085 272.469 60.4842 272.514 60.3534C272.554 60.1717 265.73 60.1191 276.348 59.1767C270.848 59.2833 264.507 60.0564 268.669 60.4691C267.649 60.5011 264.891 60.701 262.427 60.8473C260.486 60.9653 258.754 61.0726 258.536 61.0738C257.795 61.0781 258.037 60.8174 257.106 60.8534C256.578 60.8738 255.148 61.5111 250.799 61.2067C250.256 61.3246 249.707 61.4427 249.152 61.5609C248.617 61.5076 248.111 61.453 247.592 61.3988C248.62 61.0791 249.714 60.7562 250.753 60.4353C246.547 60.9211 242.999 60.5135 240.466 61.0931C238.214 61.1335 237.167 61.1224 238.099 60.8421C237.437 60.8699 236.769 60.8977 236.096 60.9255C235.659 61.0727 235.226 61.2197 234.8 61.3663ZM227.591 22.2501C229.774 22.6439 230.597 22.1019 230.257 22.0484C228.34 21.754 226.456 22.0461 227.591 22.2501ZM218.847 62.8315C221.279 62.8938 223.725 62.9532 226.18 63.0099C226.173 62.8232 226.166 62.6366 226.158 62.45C223.711 62.5799 221.272 62.7072 218.847 62.8315ZM204.772 21.2537C204.55 21.0958 204.336 20.9382 204.116 20.7797C201.326 21.0655 198.713 20.0556 197.388 20.0748C197.099 20.0788 197.648 20.383 198.192 20.4912C198.506 20.5665 204.272 21.2804 204.772 21.2537ZM94.2969 15.3421C95.2656 15.2078 96.2387 15.0789 97.2122 14.955C97.1629 15.1141 97.1137 15.2731 97.0645 15.4322C96.585 15.4765 96.1031 15.5221 95.6243 15.5689C95.1819 15.4922 94.7395 15.4166 94.2969 15.3421ZM105.42 14.8438C107.167 14.8475 108.918 14.8642 110.671 14.8936C103.992 15.005 109.471 15.0924 105.422 15.3015C105.421 15.1489 105.42 14.9963 105.42 14.8438ZM123.016 15.5713C122.797 15.6523 122.578 15.7335 122.361 15.8152C120.631 15.7149 118.926 15.6384 117.2 15.5847C118.278 15.945 119.35 16.3136 120.413 16.6919C121.039 16.723 121.667 16.7574 122.298 16.7946C122.535 16.3864 122.775 15.9787 123.016 15.5713ZM166.888 63.3041C165.816 63.3195 162.094 63.6686 162.254 63.7703C163.807 63.8737 165.356 63.9753 166.908 64.0753C166.912 63.888 166.916 63.7008 166.919 63.5135C167.14 63.6026 167.361 63.6916 167.581 63.7806C168.461 63.6938 169.341 63.6066 170.22 63.5188C170.668 63.6734 171.115 63.8278 171.562 63.9821C172.004 63.7861 172.447 63.59 172.889 63.3937C168.629 63.1521 168.782 63.4771 167.897 63.4913C167.448 63.4983 167.162 63.3878 167.001 63.3325C166.964 63.323 166.926 63.3136 166.888 63.3041ZM220.482 61.5785C215.389 61.722 212.526 62.3157 208.822 62.0305C211.205 62.8354 226.422 61.3691 231.799 61.8757C232.352 61.7125 232.912 61.5489 233.464 61.3855C230.538 61.6302 228.488 61.4208 227.079 61.4343C225.948 61.4454 226.07 61.5882 225.984 61.5895C225.98 61.5896 225.975 61.5898 225.971 61.59C223.302 61.6328 222.5 61.521 220.482 61.5785ZM200.84 21.6019C202.211 21.9597 204.682 22.1403 204.734 21.8164C203.37 21.615 202.011 21.4002 200.666 21.177C200.937 21.2864 200.605 21.5414 200.84 21.6019ZM124.989 16.6042C126.033 16.7778 128.559 16.8556 127.49 16.5026C127.297 16.4394 124.794 16.4704 126.286 16.0623C123.857 15.9094 124.401 16.5057 124.989 16.6042ZM297.947 52.8977C298.053 52.5276 298.151 52.0125 298.216 51.3971C298.104 51.2379 297.989 51.0779 297.873 50.9157C297.939 51.7226 297.955 52.4041 297.947 52.8977ZM189.375 20.7151C188.257 19.9734 186.209 20.4273 184.033 19.7343C183.628 19.7015 183.227 19.6696 182.809 19.6368C182.409 19.6054 181.997 19.5735 181.582 19.5418C181.58 19.5417 181.578 19.5416 181.576 19.5414C181.542 19.7144 181.507 19.8873 181.473 20.0603C181.908 20.093 182.348 20.1266 182.77 20.1594C184.991 20.3315 187.176 20.5139 189.375 20.7151ZM251.422 60.6511C251.978 60.7077 252.548 60.7635 253.102 60.8201C254.071 60.6816 255.059 60.5419 256.041 60.4023C255.507 60.3586 254.965 60.3152 254.42 60.2718C253.443 60.3975 252.433 60.5244 251.422 60.6511ZM175.002 19.7099C177.879 19.9779 178.997 19.4939 175.316 19.2507C173.768 19.1505 171.99 19.4327 175.002 19.7099ZM111.728 63.7276C112.713 63.7861 113.713 63.8439 114.699 63.9007C115.035 63.7867 115.372 63.6726 115.709 63.5584C114.392 63.6163 113.05 63.6726 111.728 63.7276ZM111.633 16.0285C111.749 15.9128 111.862 15.7971 111.978 15.6814C112.847 15.7167 113.718 15.7552 114.584 15.7974C114.363 15.909 114.14 16.0209 113.923 16.1331C113.157 16.0956 112.398 16.0608 111.633 16.0285ZM118.389 63.8611C119.176 63.8893 119.965 63.9171 120.757 63.9444C121.289 63.8907 121.828 63.8368 122.357 63.7827C121.619 63.7222 120.871 63.6612 120.133 63.5998C119.55 63.6872 118.969 63.7742 118.389 63.8611ZM147.632 18.0214C148.738 18.2267 153.208 18.0457 149.21 17.702C146.658 17.483 147.466 17.9903 147.632 18.0214ZM141.613 17.8104C145.847 18.3271 142.746 16.7854 137.612 17.3593C142.736 17.5469 141.362 17.7785 141.613 17.8104ZM104.797 16.9227C104.693 16.9229 104.606 16.7267 103.77 16.7274C100.766 16.7266 96.8092 16.755 94.6777 16.8341C92.6413 16.9042 88.9383 17.1282 85.1894 17.4904C79.3616 18.0382 73.2455 18.8306 72.0798 18.6418C71.6783 18.5746 72.5192 18.1051 72.359 18.1077C71.8905 18.1151 69.2762 18.6446 69.729 18.3192C72.3205 17.9651 74.9083 17.635 77.4875 17.3395C76.8806 17.5955 76.2601 17.855 75.6534 18.1148C82.0653 17.2662 79.9343 17.5439 81.7502 16.9432C82.8476 16.9891 83.95 17.0407 85.0573 17.0985C85.0893 17.0935 85.1213 17.0885 85.1533 17.0836C87.423 16.7271 89.7319 16.4193 92.0566 16.1458C91.5259 16.2898 90.998 16.4356 90.4706 16.5833C94.034 16.6056 93.0399 16.5231 94.9819 16.1562C94.9905 16.2728 94.999 16.3893 95.0075 16.5058C98.4477 16.0939 99.1396 16.4442 99.8941 16.4283C101.439 16.4091 103.423 14.9578 109.366 16.3568C111.881 15.7144 111.806 17.0633 113.284 16.4022C117.497 17.2298 109.467 16.7862 105.651 16.8043C105.649 16.8043 105.647 16.8043 105.645 16.8043C105.358 16.8037 105.816 16.9261 104.797 16.9227ZM126.467 16.8671C123.808 17.298 134.142 18.0445 130.776 16.9423C130.267 16.8802 129.756 16.8176 129.252 16.7554C128.321 16.7927 127.388 16.8291 126.461 16.8667C126.463 16.8668 126.465 16.867 126.467 16.8671ZM223.524 23.7925C233.05 24.0508 227.664 23.4104 224.421 23.5811C223.777 23.6153 223.415 23.6895 223.524 23.7925ZM213.204 61.3772C213.065 61.455 212.931 61.5326 212.794 61.6103C216.011 61.4301 222.194 61.4797 222.106 60.9908C219.134 61.1234 216.184 61.2516 213.204 61.3772ZM238.543 60.0722C237.871 60.071 235.036 60.1185 235.383 60.2879C236.625 60.367 237.839 60.4468 239.058 60.5258C239.629 60.4203 240.196 60.3149 240.759 60.2095C239.971 60.2153 238.718 60.0726 238.543 60.0722Z" fill="#FD9AAE"/>
</svg>
