<svg width="315" height="81" viewBox="0 0 315 81" fill="none" xmlns="http://www.w3.org/2000/svg">
<path d="M129.374 19.6865C112.639 22.036 101.14 20.6023 85.5861 20.9773C77.867 21.1698 69.5765 21.4655 61.0758 21.9274C49.6222 22.6543 36.8552 23.4509 27.2742 26.8911C28.0827 26.5844 28.2275 26.4019 28.26 26.3933C28.278 26.3795 28.1409 26.5007 27.9708 26.6902C27.6201 27.0739 27.1274 27.7143 26.646 28.4268C25.6691 29.8688 24.6795 31.6168 23.7488 33.4229C21.8832 37.0554 20.1934 40.979 18.7174 44.8401C18.1745 45.9252 18.2545 50.9218 18.5344 55.67C18.533 55.5296 18.4858 55.2078 18.3833 54.9329C18.2847 54.6553 18.1608 54.4766 18.1753 54.4979C18.1819 54.5366 18.8136 55.2152 19.728 56.0758C20.0104 56.3455 20.1004 56.4078 20.1673 56.4554C20.2333 56.5001 20.3181 56.5534 20.527 56.6468C24.3025 58.1462 33.6948 58.8515 41.1639 59.4046C59.5649 60.6573 78.3632 61.3104 96.768 61.7494C98.1096 61.7799 98.9184 61.9859 99.5329 61.9992C105.273 62.1285 114.938 62.0692 120.646 62.1248C126.489 62.1883 134.406 62.2108 142.295 62.1881C150.617 62.1671 158.902 62.0849 164.562 62.0767C169.237 62.0711 174.036 61.998 175.862 62.4126C177.573 62.397 178.496 61.9625 178.941 61.9295C178.946 61.9297 178.951 61.93 178.957 61.9303C180.388 61.8273 184.03 62.0243 184.828 61.9848C184.948 61.9787 184.203 61.7 186.15 61.7386C186.323 61.7416 186.17 61.9492 187.805 61.9077C188.228 61.8981 193.694 61.4322 195.261 61.3649C200.463 61.1536 212.897 60.9821 219.134 60.7407C220.087 60.7053 220.615 60.5667 221.633 60.5262C222.155 60.5052 222.939 60.6044 223.098 60.5976C223.788 60.567 226.839 59.8628 225.781 61.0598C228.973 60.8619 228.007 60.5171 228.073 60.2665C231.556 60.0929 233.24 60.5678 234.123 59.9548C243.522 59.6087 252.953 59.2282 262.333 58.8298C269.839 58.5008 277.351 58.0142 284.308 56.9098C284.297 56.8163 284.286 56.7228 284.276 56.6293C288.878 56.2089 290.074 55.1754 292.293 54.9993C293.487 54.4428 294.417 53.8529 295.071 53.2601C295.426 53.0263 295.756 52.7772 296.219 52.379C296.134 52.4523 296.037 52.6497 296.107 52.5301C296.167 52.4217 296.309 51.9952 296.403 51.3297C296.606 49.9858 296.607 47.8715 296.602 45.4885C297.861 44.3072 290.671 38.4137 283.82 32.879C282.784 31.7019 275.569 29.8511 270.035 28.6999C260.809 26.8731 249.911 26.2773 239.422 25.5026C228.745 24.746 218.057 24.423 206.968 23.7344C203.051 23.4807 199.105 23.0771 195.403 22.7008C193.527 22.5144 193.088 22.2638 190.026 21.9847C187.969 21.7996 185.395 21.6739 182.668 21.5408C180.919 21.4553 179.101 21.3651 177.328 21.246C173.363 20.9782 167.494 20.4284 163.044 20.1352C162.04 20.0693 161.305 20.1528 161.192 20.1455C160.527 20.1013 160.505 19.8992 159.86 19.8556C159.088 19.8039 158.147 19.8976 157.255 19.8364C153.922 19.609 150.283 19.4502 149.858 19.422C147.822 19.2852 147.388 19.0635 147.217 19.0514C144.958 18.8962 145.787 19.1216 145.225 19.0787C142.476 18.8668 140.498 18.357 136.896 18.4456C136.666 18.4507 136.433 18.4583 136.197 18.4685C136.317 18.3116 136.437 18.1547 136.557 17.9979C133.48 17.714 135.489 18.2755 134.857 18.3151C134.605 18.3328 127.96 17.8426 127.464 17.7989C125.704 17.6525 125.671 17.4326 125.518 17.4194C125.134 17.3849 120.778 17.3495 118.611 17.0887C116.015 16.7701 119.099 16.4363 118.455 16.3303C118.347 16.3077 115.603 16.2691 115.23 16.1257C114.825 15.9651 117.207 16.0308 117.175 15.9699C117.159 15.9446 115.892 15.7969 114.916 15.6481C114.179 15.5337 113.616 15.4151 113.95 15.3315C114.079 15.2892 114.445 15.2735 114.925 15.2752C116.716 15.2738 120.176 15.5555 121.069 15.5331C121.257 15.5266 120.917 15.2524 121.084 15.2515C121.668 15.2093 134.39 16.0767 134.988 16.1414C134.311 16.2158 133.639 16.29 132.971 16.364C133.853 16.4327 134.74 16.5008 135.619 16.5675C134.359 16.5826 133.098 16.5958 131.834 16.6069C132.866 17.2229 135.135 17.2885 136.976 17.1418C138.35 17.0297 139.48 16.7976 139.587 16.5968C139.696 16.3814 136.305 15.6046 139.518 15.4652C139.026 15.3787 138.555 15.2932 138.069 15.2066C137.738 15.2169 137.412 15.2275 137.092 15.2383C136.398 15.259 135.724 15.2805 135.046 15.3012C135.706 15.4018 136.364 15.5018 137.04 15.6024C136.785 15.6536 136.533 15.7049 136.286 15.7565C134.417 15.748 132.527 15.7339 130.646 15.7165C129.693 15.6039 129.901 15.4202 129.243 15.3381C121.081 14.3168 126.358 15.2592 121.086 14.8654C120.343 14.7212 119.602 14.5815 118.857 14.4463C119.068 14.8411 117.321 14.5981 114.939 14.6297C114.627 14.634 114.282 14.6427 113.951 14.6588C114.276 14.5272 114.623 14.3965 114.948 14.266C114.957 14.2624 114.966 14.2589 114.975 14.2553C114.966 14.2553 114.957 14.2553 114.948 14.2552C110.828 14.206 102.483 13.5533 104.745 14.3217C103.798 14.2616 102.856 14.2053 101.908 14.1531C101.114 14.2931 100.316 14.436 99.5253 14.5818C98.425 14.5923 97.3242 14.6087 96.2271 14.6315C96.2197 14.5625 96.2123 14.4936 96.2049 14.4246C97.0807 14.3943 97.9575 14.368 98.8353 14.3456C98.1716 14.1514 97.5067 13.9594 96.8403 13.7698C96.1936 13.8254 95.5471 13.8832 94.9011 13.9434C97.6227 14.0429 94.0552 14.4962 93.2091 14.819C90.9387 15.0266 89.4715 14.7614 88.7106 14.7951C88.3465 14.799 84.222 15.7735 85.8016 14.9415C85.5236 14.9757 85.2469 15.0106 84.9719 15.046C83.0781 15.2885 81.1915 15.55 79.308 15.8295C78.4545 15.8684 77.5916 15.9121 76.7417 15.9577C78.5487 15.4162 73.1438 15.6597 77.0779 15.0582C80.0149 14.6199 80.7832 14.8558 82.176 14.7134C83.2596 14.6058 83.875 14.398 84.9018 14.2565C85.0737 14.2326 85.2574 14.211 85.4573 14.1927C94.615 13.3975 102.249 13.3319 111.084 13.4904C112.539 13.5211 113.885 13.478 114.965 13.4874C115.189 13.4894 115.397 13.4935 115.591 13.5006C116.913 13.5513 115.253 13.7638 116.93 13.7483C118.692 13.7366 119.074 13.5473 119.539 13.5618C119.826 13.5714 120.73 13.8014 121.57 13.8469C125.01 14.0328 130.23 14.2251 130.721 14.2523C131.033 14.2743 134.243 14.5393 137.121 14.7672C139.433 14.9511 141.551 15.1173 141.764 15.1439C142.02 15.1758 141.447 15.8422 143.697 15.2282C144.38 15.2544 145.073 15.2809 145.759 15.307C145.639 15.4398 145.52 15.5727 145.4 15.7055C149.508 15.4144 148.08 15.6277 152.008 15.8135C160.659 16.226 173.096 17.0207 182.95 17.7135C183.801 17.7741 184.612 17.8327 185.409 17.8911C187.679 18.0596 188.555 17.9627 191.232 18.1926C193.705 18.3995 200.206 19.5727 198.854 18.7385C203.701 19.7443 205.144 19.1208 207.256 19.4986C207.57 19.5542 207.919 19.6331 208.281 19.7411C208.631 19.6697 208.982 19.5979 209.33 19.5254C212.388 20.1103 213.346 19.804 216.686 19.9272C218.121 19.9788 216.451 20.3222 219.367 19.993C219.92 20.0563 220.467 20.1192 221.021 20.1827C220.887 20.2794 220.752 20.3761 220.619 20.4728C223.833 20.5507 224.036 20.6167 223.69 20.2112C225.235 20.3614 226.778 20.5134 228.319 20.6691C228.52 20.553 228.717 20.4368 228.916 20.3207C228.509 20.1347 217.855 19.7227 207.279 19.1603C198.42 18.5876 190.189 17.6993 187.97 17.6315C186.598 17.4467 184.882 17.2787 182.992 17.131C177.128 16.6718 169.627 16.4116 166.12 16.1481C164.265 16.0091 163.461 15.6733 160.758 15.4795C158.057 15.2859 154.636 15.3487 153.196 15.2746C150.273 15.1249 140.715 14.5607 137.153 14.2447C135.542 14.1028 135.168 14.0208 137.164 14.0647C138.008 14.0823 139.316 14.1238 141.138 14.1898C140.712 14.0242 140.256 13.8569 139.828 13.6911C138.693 13.7108 137.837 13.7204 137.185 13.7224C134.204 13.7246 134.961 13.571 130.781 13.2568C128.634 13.0923 123.525 13.0648 123.856 12.454C127.818 12.5874 132.058 13.0894 135.527 13.2937C135.66 13.3016 136.308 13.3013 137.211 13.3096C138.69 13.322 140.794 13.3524 142.114 13.4796C144.009 13.663 142.669 14.1923 146.854 13.7542C149.898 14.5968 151.709 14.0972 152.529 14.0805C153.94 14.0509 154.074 14.3873 155.479 14.5071C157.006 14.6381 158.072 14.4822 158.282 14.493C160.381 14.6067 171.306 15.2337 171.797 15.4027C171.357 15.4334 170.907 15.4638 170.469 15.495C173.297 15.7646 172.729 15.394 173.474 15.4007C174.022 15.4367 174.589 15.4742 175.137 15.5107C174.914 15.5661 174.691 15.6214 174.466 15.6768C177.812 15.8797 175.269 15.4663 180.014 15.7939C181.057 15.8673 182.137 15.9775 183.069 16.0882C184.832 16.296 186.207 16.5147 186.39 16.5164C186.474 16.5175 185.546 16.2636 186.775 16.3379C188.799 16.4573 192.292 16.7804 192.66 17.0626C193.649 17.122 193.594 16.8779 193.724 16.8849C194.274 16.9057 204.268 17.8575 206.103 17.9261C206.519 17.9535 206.93 17.9801 207.358 18.0072C212.025 18.298 217.078 18.5695 222.002 18.7852C222.553 18.8093 222.193 18.9441 222.746 18.9674C223.635 19.0032 228.196 19.0041 228.875 19.0274C230.574 19.0766 235.02 19.443 235.724 19.4229C235.824 19.4195 234.373 19.1181 236.089 19.1655C237.995 19.2213 236.953 19.4309 237.056 19.4404C238.076 19.5345 238.997 19.6045 239.849 19.6598C242.233 19.8147 244.079 19.8396 246.027 19.962C246.884 20.0157 248.448 20.3484 249.659 20.3858C249.798 20.3901 249.539 20.1749 249.676 20.1765C251.508 20.2242 253.179 20.7316 253.965 20.8265C255.884 21.0593 254.86 20.6999 254.961 20.707C256.245 20.818 257.954 21.0785 259.897 21.2792C263.976 21.7069 267.699 22.1751 271.287 22.9318C275.413 23.847 279.703 24.7163 283.966 26.3389C284.979 26.73 285.934 27.4543 286.05 27.5303C286.431 27.7679 286.482 27.4708 287.5 28.2579C287.543 28.2935 287.586 28.3293 287.629 28.3653C290.186 30.54 292.644 32.4279 295.117 34.4772C295.626 34.9015 295.704 35.2338 296.079 35.5612C297.461 36.5766 301.441 40.2133 300.729 40.6894C302.275 42.2682 302.444 43.8897 302.345 45.4647C302.313 46.0776 302.292 46.6891 302.294 47.3166C302.303 50.5945 302.279 54.9518 300.065 56.7591C297.498 59.1663 294.125 60.3169 291.226 61.0585C289.978 61.3691 289.32 61.3355 288.617 61.4789C287.367 61.822 279.844 63.0096 279.427 62.9793C278.623 63.0123 279.044 62.247 275.058 63.2813C272.699 63.5376 272.941 63.2005 272.44 63.2259C268.622 63.4074 264.9 64.2781 265.561 63.6161C264.476 63.7169 263.505 63.8169 262.569 63.9068C259.743 64.183 257.666 64.3695 256.286 63.9872C256.32 64.2724 254.215 64.5406 251.619 64.5474C254.25 63.9473 253.899 63.6575 260.244 63.4537C260.346 63.4504 260.16 63.6663 260.263 63.663C260.798 63.6463 261.655 63.5753 262.55 63.5078C263.239 63.4568 263.952 63.4055 264.593 63.3769C266.104 63.3079 265.281 63.4933 265.895 63.457C266.461 63.4222 266.434 63.2257 267.235 63.1752C269.888 63.0086 272.142 62.781 273.667 62.6476C274.574 62.5692 275.682 62.6416 276.38 62.5725C279.198 62.3143 285.066 61.4423 288.428 60.7053C289.108 60.5595 288.893 60.822 290.407 60.4694C290.581 60.4245 291.183 60.078 292.437 59.6523C293.683 59.2237 294.636 58.9602 295.357 58.6182C295.945 58.3236 295.653 58.2959 296.775 57.6716C297.056 57.5032 298.011 56.9897 299.288 55.8735C301.483 54.9561 301.273 46.5474 301.303 46.0299C301.31 45.827 301.322 45.6415 301.338 45.4689C301.415 44.8833 301.544 44.5257 301.45 44.1159C301.428 44.0306 301.163 43.9275 301.077 43.6512C300.738 40.4207 293.137 34.7001 286.805 29.3415C285.146 27.8704 282.294 26.9496 280.117 26.306C277.161 25.455 274.096 24.7679 271.032 24.1085C261.022 22.1513 250.484 21.6582 239.761 20.8714C236.754 20.6662 233.709 20.4855 230.61 20.3167C230.297 20.3414 229.985 20.3663 229.674 20.3915C231.429 20.4926 233.183 20.5989 234.935 20.7126C234.938 20.8287 234.942 20.9447 234.946 21.0607C237.311 21.2325 237.015 20.9422 236.96 20.7723C237.831 20.9013 238.701 21.0323 239.57 21.1656C239.613 21.1466 239.671 21.1307 239.743 21.1177C240.993 20.8937 246.37 21.5296 249.213 21.764C251.171 21.9219 253.509 21.9732 254.535 22.0809C256.703 22.3079 256.619 22.5547 256.79 22.5744C257.076 22.6069 260.121 22.6922 262.272 22.9687C265.445 23.3961 265.764 23.7694 270.005 24.2266C270.318 24.3008 270.646 24.3798 270.956 24.4572C276.056 25.7808 282.464 26.923 285.945 29.1215C285.594 29.0647 285.949 29.3009 286.48 29.7263C287.745 30.7731 289.864 32.3366 291.031 33.2758C295.761 37.1259 301.175 41.2175 300.819 45.471C300.899 50.1467 300.59 54.5399 298.989 55.5335C295.908 58.3651 291.155 59.45 286.478 60.3121C284.619 60.6376 283.159 60.638 282.101 60.7929C281.51 60.8775 281.326 61.1501 280.502 61.2215C280.352 61.2327 280.244 61.0218 278.734 61.1605C275.021 61.5504 265.579 62.5538 263.138 62.1995C262.924 62.211 262.708 62.2223 262.491 62.2335C249.544 62.9038 236.546 63.536 223.57 64.0988C223.237 64.0179 222.902 63.937 222.567 63.8561C220.079 64.4323 210.155 64.5115 205.322 64.6898C196.831 65.014 185.969 65.472 178.526 65.661C176.907 65.7028 175.576 65.5973 174.045 65.6336C173.385 65.6494 172.569 65.8428 171.882 65.8581C164.18 66.0365 153.745 66.0152 145.991 66.0736C144.757 66.0835 143.532 66.0919 142.315 66.0986C126.049 66.1842 110.533 66.0507 93.9256 65.718C76.1816 65.3429 58.4335 64.8083 40.8733 63.6964C32.2024 62.9118 20.5896 62.906 16.6766 59.2607C15.749 58.3809 14.9625 57.6054 14.5841 57.068C14.2044 56.5109 14.1636 56.3602 14.1202 55.8497C13.9002 51.0267 13.5373 46.0951 14.6123 43.2561C16.1847 39.1753 17.9477 35.1247 19.9279 31.3107C20.9201 29.4094 21.9735 27.5596 23.1 25.916C23.6606 25.0997 24.2477 24.3314 24.8042 23.7299C25.3188 23.1336 26.0121 22.7009 25.8066 22.8222C36.3512 19.1267 48.8099 18.4461 60.8173 17.6136C65.0261 17.3659 69.2783 17.1502 73.5198 16.9502C74.3144 16.9128 74.2853 17.1168 74.9064 17.0883C78.5573 16.9191 86.7217 16.3892 90.8513 16.2279C94.1449 16.0959 99.3808 16.1953 100.505 15.8397C88.7844 15.8358 76.4263 16.3862 64.2764 16.9246C63.4057 16.964 63.2939 16.7781 63.1872 16.7806C61.5692 16.8183 62.1216 16.9577 60.7868 17.105C60.4966 17.1367 60.1214 17.1691 59.6295 17.202C58.6815 17.237 49.9181 17.3063 51.0048 17.8469C48.8762 17.6719 34.2876 19.3578 31.7444 20.275C30.9456 20.4857 31.557 20.5296 31.3987 20.5758C30.7148 20.7793 30.3528 20.6131 29.7308 20.7707C28.7719 21.0097 27.0639 21.5934 25.5832 22.203C25.6144 22.2057 25.4085 22.3339 25.2369 22.4891C25.0586 22.6436 24.8975 22.8044 24.8061 22.8906C23.7662 23.631 20.5111 28.3182 19.4358 30.6206C18.4057 32.6974 18.8389 32.4307 17.9833 34.2544C17.3269 35.7056 17.8402 34.0218 16.3159 37.2551C15.8517 38.2474 14.8062 40.8387 14.0147 43.0256C13.6912 43.9284 13.5483 44.9942 13.4841 45.4719C13.3126 46.7353 13.088 48.2776 13.139 50.3056C13.1657 51.6105 13.2934 53.6468 13.4155 55.8784C13.472 56.5457 13.6233 56.8919 14.0989 57.5254C14.5691 58.1349 15.3314 58.8479 15.9434 59.418C16.0074 59.4777 16.1467 59.5455 16.3144 59.6388C16.4682 59.7136 16.6364 59.7966 16.7616 59.9096C17.2501 60.3338 16.9391 60.4009 17.3043 60.6931C17.4202 60.8481 19.355 61.9433 22.6517 62.5229C25.805 63.1367 29.4016 63.4823 30.4252 63.5944C31.8557 63.7429 32.849 63.6817 33.6503 63.7539C34.2861 63.8108 34.3106 64.0223 34.9547 64.0784C35.1634 64.0962 36.8568 64.0532 38.529 64.1781C39.0219 64.2152 39.8126 64.2875 40.8271 64.3777C43.2089 64.5931 46.3543 64.8641 46.875 64.8944C47.3275 64.9209 46.8298 64.7447 48.1844 64.8242C49.4427 64.8979 50.2035 65.1308 50.928 65.1717C52.5502 65.2631 54.3794 65.1894 56.1326 65.2708C61.1106 65.4978 60.8477 65.7166 61.151 65.7391C61.9741 65.7956 62.3122 65.5908 62.5853 65.5975C63.749 65.6281 66.5665 65.6979 67.5867 65.7268C68.8525 65.7633 69.4186 65.9916 70.7553 66.0395C71.7698 66.075 73.8104 65.9427 76.1335 66.0058C81.3254 66.1471 87.5416 66.271 92.6507 66.387C94.1665 66.4215 94.4018 66.6153 94.8689 66.6298C97.324 66.7051 98.6916 66.5169 99.4013 66.5324C104.381 66.6445 113.287 67.0872 117.921 67.1461C119.797 67.1756 128.064 67.0656 132.721 67.0872C133.255 67.09 132.754 67.2387 133.349 67.2152C134.776 67.1586 134.634 66.8559 135.354 66.8641C135.701 66.8689 136.492 67.0382 137.507 67.0524C139.298 67.0777 140.887 67.0753 142.32 67.0609C145.063 67.033 147.176 66.9596 148.749 66.9512C171.727 66.8244 195.178 66.2345 216.642 65.4824C219.043 65.3979 222.003 65.1079 225.62 65.1425C225.735 65.2321 225.851 65.3217 225.966 65.4113C226.089 65.314 226.212 65.2168 226.335 65.1196C230.414 64.9099 231.977 64.728 236.149 64.674C236.513 64.6688 237.634 65.0517 238.285 64.491C242.453 64.7019 240.145 64.4099 243.227 64.2422C246.269 64.0756 249.309 64.0609 252.268 63.955C253.905 64.0734 247.078 64.8182 246.632 64.8351C245.903 64.8652 245.147 64.6329 244.46 64.6485C242.394 64.6957 240.436 64.989 239.957 64.7725C237.291 65.1351 240.619 64.8699 240.292 65.109C238.49 65.092 236.747 65.0714 234.963 65.0515C234.093 65.857 224.278 65.2459 224.966 65.8006C224.183 65.7139 223.41 65.6267 222.625 65.5397C219.229 66.4003 217.217 65.9599 212.647 65.9039C212.977 65.9859 213.306 66.068 213.641 66.1497C213.545 66.1927 209.543 66.4821 210.963 66.0337C206.859 66.7007 206.995 65.8215 203.333 66.5735C201.14 66.7249 202.444 66.3175 198.522 66.4462C196.19 66.5219 193.306 66.7996 190.711 66.8862C190.112 66.9056 189.845 66.7005 189.31 66.7154C188.775 66.7303 188.523 66.9456 187.879 66.9684C186.549 67.016 184.808 66.9156 183.979 66.951C183.233 66.9822 182.172 67.1933 180.369 67.2663C174.087 67.5183 175.977 67.2082 174.984 67.1428C173.916 67.0719 173.155 67.4348 171.028 67.4386C170.814 67.4387 171.362 67.2121 170.668 67.2347C170.109 67.2526 169.833 67.4929 167.981 67.5724C167.243 67.6116 155.79 67.8483 154.047 67.8647C151.375 67.9063 145.412 67.7626 142.651 67.7762C142.543 67.7768 142.434 67.7794 142.324 67.7835C141.35 67.8195 140.326 67.9756 139.311 67.9781C135.554 67.9891 129.545 67.9758 124.785 67.9457C120.5 67.9239 112.971 67.4422 110.629 67.7864C104.609 67.7628 103.152 67.4118 102.698 67.4019C101.464 67.3702 100.892 67.573 99.3555 67.5559C81.5958 67.3541 58.7919 66.5717 40.7609 65.3561C38.4534 65.1983 36.2305 65.0322 34.1115 64.8526C27.4 64.0881 19.2458 64.0535 15.5461 60.4407C13.6038 58.6159 12.4919 57.3964 12.4916 55.916C12.3003 51.1147 11.8222 46.1766 13.0966 42.6713C16.2113 34.8764 20.4376 24.7568 25.256 21.2958C36.1993 17.477 48.6369 16.835 60.7195 15.9821C69.1482 15.4853 77.6329 15.1025 86.0926 14.7496C86.2069 14.6506 86.3212 14.5516 86.4356 14.4525C81.2181 14.6171 75.0689 14.7355 69.9198 14.9616C67.1858 15.0815 63.9214 15.3059 60.6922 15.5265C55.7627 15.8583 50.9311 16.2452 47.8765 16.1646C49.8926 15.9021 53.2261 15.8753 53.1361 15.5532C49.5085 15.8218 45.8908 16.1478 42.2706 16.5804C42.3958 16.7183 42.5214 16.8564 42.6474 16.9944C38.9026 17.5077 35.0773 18.0567 31.4489 18.9051C30.8322 19.0515 31.2949 19.0854 30.7509 19.2156C30.1536 19.3614 30.5248 19.126 30.4116 19.1524C28.8591 19.5383 28.4677 19.8185 28.2739 19.8692C27.81 20.0035 28.13 19.7508 26.7659 20.149C26.1413 20.3356 25.574 20.5479 25.0588 20.7491C24.7362 20.8841 24.3197 21.2372 24.0765 21.408C23.8254 21.5847 23.6837 21.5988 23.6814 21.295C23.132 21.7852 22.5947 22.3899 22.085 23.0329C22.0828 23.2989 22.0776 23.5743 22.0858 23.8362C18.571 27.6539 18.5644 30.5931 16.4255 32.7914C16.1257 33.7341 15.84 34.6786 15.5652 35.6275C15.1894 36.0618 14.8153 36.5013 14.4444 36.9422C14.53 37.097 14.6156 37.2523 14.7016 37.4069C13.9528 39.0458 13.2478 40.7563 12.5943 42.4775C11.584 45.229 11.7398 48.8487 11.843 52.1282C11.9052 53.8116 11.9497 54.9072 11.9771 55.937C12.0159 56.7117 12.0943 57.2877 12.7899 58.2959C14.2383 60.1109 14.8744 60.5475 14.7618 60.594C14.7183 60.6549 14.2935 60.3951 14.8871 61.1286C15.1108 61.4043 15.4665 61.8295 16.1189 62.3447C16.0052 62.0579 15.9111 61.7704 15.8293 61.4802C16.4761 61.932 17.1332 62.2537 17.8896 62.5211C18.3392 62.8749 18.8502 63.2078 19.3975 63.5216C22.2093 63.5835 23.9845 64.3706 24.3738 64.4511C24.6937 64.4933 25.8292 64.2647 29.2404 65.0187C27.8655 64.2687 31.878 65.2956 32.2305 65.3205C32.521 65.3573 36.564 65.5674 38.1908 65.6845C38.8158 65.7324 39.6873 65.824 40.7224 65.9241C41.8383 66.034 43.1094 66.1504 44.1343 66.2099C45.8292 66.3076 45.6642 66.0923 45.7898 66.098C47.8999 66.2037 46.5549 66.2845 48.0701 66.3779C49.594 66.4706 50.7529 66.3571 51.0949 66.3905C51.2577 66.4073 50.7063 66.5684 51.4451 66.6251C53.464 66.7809 57.1035 66.7884 59.4192 66.8936C60.2299 66.9307 61.2797 67.1365 62.1749 67.1786C63.5718 67.2434 64.2446 67.0562 65.0473 67.0942C65.3301 67.108 67.1166 67.5086 69.3725 67.5391C69.8117 67.5447 71.0565 66.8911 72.7129 67.9364C72.8445 67.8016 72.9762 67.6668 73.1081 67.532C80.6344 67.4334 82.6989 68.6088 86.0784 67.694C91.5475 67.94 87.7816 68.2387 88.3791 68.3134C88.7777 68.361 90.5409 68.2943 90.7422 68.3047C91.0893 68.3245 91.0266 68.4486 91.4084 68.4564C98.3786 68.5809 95.2919 68.2767 97.497 68.1704C102.749 67.9077 106.84 68.7672 97.7076 68.3721C97.7063 68.442 97.705 68.512 97.7037 68.582C99.963 68.5597 105.658 68.6785 103.751 69.0041C102.242 69.2727 88.6991 68.8217 96.369 69.3661C98.0999 69.4878 99.0183 69.2432 102.022 69.7851C104.029 69.8437 104.304 69.2105 107.015 69.5039C106.58 69.2755 106.129 69.0466 105.688 68.8178C109.366 68.5809 113.928 69.0187 116.742 68.9165C117.715 68.883 121.168 67.8449 120.358 68.9003C121.983 68.8487 129.583 69.0707 131.001 68.9726C131.336 68.9488 131.792 68.3895 136.704 68.5778C137.046 68.6479 137.389 68.7178 137.733 68.7876C133.224 69.0048 141.183 69.1925 139.024 69.7345C138.297 69.497 134.711 69.3577 134.146 69.2361C133.163 69.0281 136.093 68.758 132.359 68.8328C130.011 69.7294 136.725 69.3139 135.699 70.1642C140.597 69.7567 141.075 70.1283 142.19 70.1395C142.239 70.1399 142.288 70.1403 142.337 70.1407C146.979 70.1751 149.947 70.0597 154.366 70.1045C155.451 69.9195 147.362 69.7561 146.367 69.8341C149.529 69.2749 145.276 69.2183 142.333 69.4503C141.851 69.4883 141.403 69.5341 141.029 69.5873C140.803 69.4011 140.577 69.215 140.352 69.0287C141.013 69.0452 141.672 69.0596 142.331 69.0707C145.123 69.1186 147.886 69.1072 150.684 68.9538C150.909 69.0215 151.134 69.0891 151.359 69.1567C150.589 69.2703 149.811 69.3835 149.039 69.4962C151.915 69.64 150.182 69.1138 154.012 69.5474C154.128 69.3352 154.244 69.1229 154.36 68.9107C158.023 68.9353 161.692 68.9488 165.357 68.953C167.258 68.4995 174.311 68.5107 173.032 69.0839C175.88 69.0608 172.36 68.8463 175.023 68.6547C176.181 68.5715 178.453 68.5023 179.016 68.6359C178.788 69.1631 175.391 69.3066 174.372 69.6861C174.998 69.8002 190.786 69.0255 189.392 69.6646C190.658 69.7025 190.071 69.4054 192.34 69.2601C198.706 68.8562 208.596 69.1519 213.701 68.1886C207.661 67.9677 205.903 68.484 201.277 68.651C198.332 68.772 180.347 69.338 184.35 68.6753C183.693 68.7623 183.035 68.8492 182.376 68.9357C181.704 68.7886 181.031 68.6413 180.359 68.4936C182.245 68.424 184.115 68.3527 186.003 68.279C186.457 68.4306 186.91 68.5821 187.363 68.7335C187.567 68.6112 187.771 68.4888 187.975 68.3664C188.763 68.3217 189.558 68.2765 190.35 68.2311C190.131 68.3776 189.913 68.5242 189.693 68.6707C190.918 68.6606 192.135 68.6499 193.357 68.6383C193.02 68.4605 192.689 68.2824 192.355 68.1044C198.109 67.8887 196.154 68.0628 199.361 68.3155C201.742 68.2765 197.707 68.0439 202.744 67.7918C208.588 67.4933 204.775 68.1967 212.354 67.8123C212.459 67.715 212.565 67.6176 212.67 67.5203C214.341 67.5551 216.015 67.5885 217.683 67.6211C217.457 67.5129 217.228 67.4048 217.007 67.2965C220.469 67.2161 225.168 66.8135 226.35 67.2238C222.839 67.14 222.923 67.9333 223.828 68.0456C225.715 68.297 253.362 66.856 258.736 66.5671C260.093 66.4996 261.456 66.4428 262.685 66.3958C267.732 66.1958 272.038 66.0232 276.958 65.2236C274.403 65.3022 268.028 65.8149 262.668 66.044C259.147 66.2057 256.166 66.3296 255.01 66.2935C254.719 66.2849 254.782 65.5507 253.02 66.453C247.193 66.5756 240.284 67.1091 233.03 67.3796C233.245 67.1603 233.458 66.9411 233.671 66.7219C238.144 66.9876 242.23 65.8285 241.68 66.6702C242.545 66.6333 243.465 66.5938 244.344 66.5558C244.338 66.4152 244.331 66.2745 244.325 66.1339C245.638 66.0772 247.015 66.0171 248.329 65.9592C248.335 66.0999 248.341 66.2405 248.348 66.3812C249.447 66.3328 250.582 66.2824 251.665 66.234C251.77 66.0888 251.881 65.9433 251.993 65.7978C254.444 65.905 261.279 65.2209 262.633 65.2884C262.949 65.303 262.989 65.3556 262.641 65.4637C262.45 65.5255 262.136 65.6054 261.669 65.707C262 65.6917 262.327 65.6765 262.65 65.6614C263.915 65.6025 265.065 65.5435 266.326 65.472C266.315 65.3696 266.304 65.2671 266.293 65.1646C266.969 65.1123 267.593 65.0611 268.281 65.0039C268.065 65.1109 267.841 65.2181 267.637 65.3239C270.68 64.9728 273.613 65.2311 275.579 64.7227C274.242 64.7766 272.908 64.8165 271.611 64.8436C274.156 64.8023 278.759 64.056 279.17 63.9956C280.425 63.8494 281.126 63.9732 282.477 63.7995C283.718 63.6344 283.507 63.4988 283.735 63.4717C290.333 62.5393 288.009 63.7809 290.798 62.1107C291.152 62.1662 291.485 62.224 291.851 62.2695C292.242 62.0417 292.622 61.8104 293.001 61.572C294.834 61.0187 296.598 60.34 298.176 59.4073C297.566 59.5693 296.94 59.6995 296.325 59.7935C298.715 58.5681 299.779 57.9491 300.021 57.7993C300.25 57.6199 300.413 57.4412 300.53 57.2882C300.675 57.0806 300.719 56.9171 300.798 56.8341C302.311 55.17 302.482 53.426 302.702 52.484C302.88 51.4956 302.943 51.1072 303.039 50.9126C303.206 50.5024 303.512 50.8885 303.959 47.8833C303.634 45.725 303.312 47.9143 302.977 48.2064C303.046 47.0822 303.059 46.2475 303.062 45.4618C303.05 44.451 302.96 43.5656 302.43 42.1237C302.199 41.5052 302.003 40.7718 301.77 40.392C301.58 40.0561 300.739 39.1743 300.101 38.4613C299.066 37.2579 297.512 35.6688 295.708 34.1764C294.492 33.1404 290.96 30.5054 287.937 27.9997C287.411 27.564 286.855 27.199 286.293 26.8839C284.889 26.14 285.247 26.1879 284.869 26.0077C284.706 25.9302 283.431 25.6143 282.373 25.2743C278.894 24.1439 275.135 23.2852 271.393 22.4409C266.017 21.2749 260.347 20.6608 254.775 20.1332C249.863 19.6821 244.869 19.3952 239.893 19.068C238.173 18.9552 236.455 18.8463 234.743 18.7336C233.328 18.641 234.085 18.5492 233.468 18.5059C233.256 18.4922 232.985 18.7164 230.802 18.4912C230.011 18.4104 230.932 18.2931 230.154 18.24C229.776 18.2149 229.603 18.4164 227.385 18.3441C223.352 18.216 221.199 17.8277 220.839 17.817C220.158 17.7991 220.351 17.9853 219.448 17.9462C215.048 17.7541 211.362 17.6058 207.412 17.3556C207.409 17.3554 207.406 17.3552 207.402 17.355C205.484 17.3161 192.897 16.0427 192.238 15.971C190.704 15.7589 192.169 15.522 190.188 15.3571C189.633 15.4016 189.069 15.4464 188.503 15.4921C189.377 15.6369 190.256 15.7849 191.125 15.9348C188.707 15.5954 185.958 15.5428 184.153 15.4014C184.048 15.393 183.668 15.3467 183.128 15.2838C182.021 15.1533 180.277 14.9581 179.212 14.8984C179.887 14.875 180.538 14.8506 181.221 14.8294C180.991 14.754 180.75 14.678 180.526 14.6033C177.388 14.4749 174.093 14.2613 170.877 14.0489C169.725 13.9733 170.117 13.8539 168.949 13.7773C162.122 13.3336 163.813 14.0332 157.306 12.5311C159.52 12.7598 167.622 13.0986 168.797 13.2104C169.613 13.2857 172.735 14.4273 171.629 13.3864C178.184 13.8067 172.457 13.9728 178.582 14.2587C178.468 14.1323 178.352 14.0059 178.236 13.8795C180.36 13.9477 181.932 13.9995 183.201 14.2952C183.213 14.298 183.225 14.3009 183.238 14.3038C183.725 13.7553 190.939 14.654 194.901 15.0266C198.895 15.3844 203.264 15.7794 207.494 16.0032C209.333 16.1049 211.155 16.191 212.886 16.2777C214.858 16.3761 215.954 16.6561 216.205 16.6686C216.563 16.6853 217.588 16.54 218.309 16.5749C221.001 16.7016 229.152 17.4561 231.214 17.0369C223.32 16.568 215.416 16.2666 207.512 15.7511C199.405 15.1895 191.386 14.1397 183.305 13.6061C183.563 13.6598 183.52 13.6871 183.245 13.6939C181.422 13.7229 169.033 12.9512 168.321 12.9049C167.56 12.8466 168.212 12.697 167.987 12.6718C166.315 12.489 164.86 12.6766 164.33 12.645C163.924 12.6207 163.11 12.4434 161.663 12.3609C161.398 12.3456 161.316 12.477 161.031 12.4606C159.145 12.3496 157.282 12.239 155.39 12.1299C155.274 12.1218 154.807 11.8958 154.33 11.8678C153.854 11.8402 153.364 12.0105 153.244 12.0042C151.731 11.9152 149.142 11.6362 147.705 11.5514C147.203 11.5223 147.541 11.6876 146.982 11.6537C145.262 11.5501 145.846 11.2992 143.717 11.2481C142.994 11.2303 143.04 11.4513 141.668 11.3414C140.71 11.2642 140.83 10.8827 140.678 10.8596C140.523 10.8381 138.75 10.8879 137.365 10.7961C136.807 10.7593 136.351 10.7038 136.038 10.6129C138.455 10.0923 133.442 10.4153 133.652 10.7102C132.335 10.5542 131.023 10.3964 129.706 10.237C129.246 10.278 128.791 10.3192 128.341 10.3607C123.205 9.70078 120.005 9.66408 115.055 9.47872C114.887 9.47225 114.715 9.46551 114.538 9.4585C114.282 9.44091 109.864 9.22356 110.07 9.13029C111.827 9.02874 113.594 9.01443 115.063 9.12615C115.814 9.18271 116.489 9.27132 117.051 9.39582C119.863 8.88183 119.894 9.34961 124.394 9.54008C125.899 9.60845 126.017 9.45184 126.192 9.46094C129.369 9.62845 133.577 9.87202 137.404 10.1537C140.623 10.3921 143.563 10.6685 145.354 10.9953C146.465 10.929 142.5 10.6451 144.045 10.6388C144.891 10.6365 165.204 11.6598 158.685 11.84C159.359 11.8639 160.034 11.888 160.707 11.9121C161.411 11.4252 164.753 11.7443 164.342 12.2458C164.665 12.1574 164.988 12.0691 165.312 11.981C165.945 11.9278 166.689 11.9237 167.73 11.9579C169.735 12.0266 176.704 12.4584 183.299 12.9627C189.852 13.4545 196.003 14.1158 196.634 14.1412C196.675 14.0202 196.716 13.8992 196.757 13.7782C192.281 13.2595 187.836 12.8929 183.327 12.5809C177.357 12.1685 171.242 11.8066 164.75 11.2136C165.073 11.3499 165.4 11.4865 165.724 11.6229C161.178 11.1863 156.636 10.759 152.088 10.3319C156.92 10.3994 164.604 10.6686 169.652 11.1543C170.553 11.2409 169.881 11.3627 170.087 11.3952C170.625 11.4797 171.223 11.2329 173.165 11.3277C175.109 11.4202 179.968 11.9441 180.419 11.9725C180.973 12.0031 182.207 11.9462 183.374 11.9364C184.002 11.9329 184.588 11.94 185.099 11.9806C187.026 12.1356 185.719 12.235 186.105 12.2693C187.704 12.4148 189.145 12.4366 190.396 12.5618C192.255 12.7428 196.085 13.4732 197.43 13.093C196.108 12.9352 194.778 12.7781 193.457 12.6285C198.662 12.9939 202.958 13.7967 207.625 14.094C209.433 14.2135 211.308 14.2706 213.298 14.2353C214.943 13.6985 209.084 13.4634 214.046 13.4661C213.149 13.4275 212.248 13.3873 211.351 13.3449C211.132 13.4636 210.921 13.5827 210.698 13.7009C209.689 13.5802 208.682 13.4564 207.677 13.3264C207.145 13.2579 206.623 13.1883 206.099 13.1165C206.526 13.2658 206.959 13.4142 207.388 13.561C201.943 13.2781 196.409 12.7514 194.542 11.957C194.415 12.097 194.289 12.2372 194.161 12.3773C190.445 11.874 185.336 11.7755 183.407 11.4861C182.706 11.3781 182.424 11.2382 182.833 11.0382C182.589 11.0654 182.332 11.0918 182.092 11.1196C179.022 10.7307 180.298 11.1713 179.147 11.1318C178.81 11.1165 172.825 10.5484 175.495 10.4698C169.651 9.90538 171.41 10.8112 169.791 10.7447C166.065 10.1224 159.29 10.3127 162.161 9.86275C161.604 9.80662 161.048 9.75063 160.491 9.69469C158.628 10.0723 156.852 9.41791 154.876 9.11904C154.205 9.06916 153.529 9.01894 152.858 8.96914C152.401 9.1065 151.935 9.24337 151.477 9.3807C145.195 8.23716 147.067 10.4782 144.281 8.52384C144.735 8.44317 145.203 8.36332 145.652 8.28233C146.725 8.29389 147.801 8.30542 148.867 8.31622C145.097 8.05611 141.318 7.7957 137.566 7.52453C137.013 7.48474 136.503 7.44721 135.954 7.40696C130.522 6.57319 127.43 6.85277 121.283 6.11804C120.702 6.13653 120.123 6.15762 119.54 6.18124C120.146 5.80388 122.396 5.95074 118.213 5.60326C117.861 5.30197 120.704 5.37047 121.981 5.66528C122.288 5.73495 119.636 5.81515 122.602 5.98057C124.605 6.10728 121.007 5.52973 126.975 6.04352C126.757 5.95883 126.547 5.87476 126.326 5.79003C126.971 5.83467 127.622 5.88041 128.261 5.92539C128.828 6.12577 129.381 6.32527 129.948 6.52546C131.43 6.38932 132.284 6.12035 135.628 6.40192C134.712 6.44559 135.928 6.84931 137.59 6.94583C137.598 6.82886 137.605 6.7119 137.612 6.59494C137.616 6.59509 137.619 6.59524 137.623 6.5954C141.631 6.76397 140.227 7.02234 143.592 6.95251C143.928 7.06558 144.249 7.17776 144.58 7.29044C146.436 7.0149 153.167 7.14241 151.909 7.6462C153.828 7.19683 157.778 7.67884 159.226 8.21195C159.346 8.1024 159.466 7.99286 159.586 7.88332C160.372 7.90571 161.159 7.92828 161.945 7.951C162.379 8.04712 162.813 8.1433 163.246 8.23951C163.806 8.20216 164.369 8.16513 164.928 8.12801C165.255 8.26454 165.587 8.40138 165.915 8.53808C166.816 8.45189 167.721 8.36636 168.624 8.28115C169.169 8.40769 169.703 8.53376 170.25 8.66079C170.318 8.41953 175.75 8.7053 177.256 8.96747C177.719 8.92697 178.169 8.88592 178.627 8.84562C178.843 8.97632 179.057 9.10697 179.269 9.23759C179.61 9.16767 179.951 9.09797 180.298 9.02885C181.064 9.17449 181.839 9.32184 182.607 9.47008C182.968 9.43272 183.283 9.40559 183.561 9.387C185.844 9.24354 185.968 9.65176 186.61 9.69859C187.95 9.7914 192.561 9.83864 193.321 9.93525C194.085 10.0261 194.429 10.2646 195.046 10.3444C205.092 11.6785 200.972 10.7057 202.99 10.8137C204.067 10.8636 204.806 11.1164 205.755 11.1694C206.135 11.1906 206.887 11.2275 207.817 11.2648C210.817 11.3891 215.768 11.4955 216.133 11.5338C216.83 11.6051 215.142 12.4178 217.421 12.3023C217.519 11.825 222.353 12.5554 220.115 11.7697C222.114 11.9294 224.118 12.0898 226.119 12.2547C225.922 11.6725 228.377 12.1678 231.08 12.2923C233.419 12.398 237.563 12.5072 240.355 12.7352C242.117 12.8769 243.335 13.0505 243.196 13.2686C244.118 13.2021 245.044 13.1366 245.968 13.0722C252.214 13.741 258.383 14.0452 264.709 14.8538C267.324 15.1956 269.989 15.5932 272.749 16.1897C278.805 17.8083 284.826 17.9347 292.027 23.1521C295.17 25.8534 298.538 28.3477 301.972 31.4675C305.261 34.3762 309.418 39.4487 309.236 45.4362C309.231 47.1136 309.251 48.8709 309.136 50.7649C309.067 51.7687 308.884 51.6103 308.805 52.352C308.552 54.0858 308.237 58.4012 304.483 61.7896C301.637 64.4891 297.517 66.2386 295.031 66.9636C293.435 67.4478 292.639 67.44 292.143 67.5598C290.464 67.9368 290.891 68.0783 290.134 68.2396C288.908 68.5545 282.5 69.3502 280.353 69.5297C279.261 69.6462 278.026 69.9751 276.765 70.0359C276.658 70.0414 276.835 69.8218 276.745 69.827C274.459 70.0166 275.838 70.062 275.067 70.1229C271.175 70.4197 267.07 70.6617 262.891 70.8361C261.238 70.9048 259.534 70.9747 257.804 71.0418C256.37 71.097 254.106 71.0574 252.852 71.1001C252.372 71.1169 253.231 71.2316 251.579 71.2927C251.019 71.3134 250.818 71.1233 250.176 71.1389C247.413 71.2069 246.499 71.8863 244.13 71.4743C239.551 71.7072 231.6 72.1986 227.424 72.3639C226.439 72.403 225.951 72.3044 225.002 72.3432C224.341 72.3701 223.178 72.5967 222.131 72.6384C221.068 72.6807 219.454 72.5679 217.428 72.6483C215.336 72.7312 212.693 72.9275 212.228 72.943C211.655 72.9631 211.38 72.7537 210.804 72.7765C209.059 72.8447 204.427 73.2152 202.183 73.3093C199.778 73.4109 198.334 73.3487 197.507 73.3761C196.746 73.4023 195.868 73.6134 195.519 73.6254C194.979 73.6443 194.845 73.4324 194.156 73.4545C193.026 73.4912 191.884 73.6601 190.197 73.711C174.115 74.1953 158.183 74.495 142.36 74.533C128.342 74.5643 114.444 74.4178 100.572 74.1097C97.284 74.0349 95.4163 74.1536 90.5684 73.9771C88.6017 73.904 89.4539 73.701 87.9071 73.7063C87.2216 73.7087 87.3895 73.8881 86.5278 73.8752C82.7074 73.8181 78.2857 73.5253 76.622 73.4756C75.9739 73.4563 75.2121 73.6316 73.8658 73.5905C63.8573 73.2835 52.001 72.7443 41.1912 72.071C40.9009 72.0528 40.6067 72.0343 40.31 72.0155C34.5468 71.6137 26.5438 71.243 19.8401 69.7996C17.1348 69.2277 13.31 67.9052 10.848 65.3445C9.93553 64.4569 8.84625 63.4901 7.74316 61.9779C6.62913 60.5029 5.74776 58.2114 5.71284 56.1921C5.63122 51.4503 4.69279 46.4515 6.78953 40.2377C10.0424 32.2645 12.9527 24.8077 18.7983 17.9222C19.7873 16.9291 20.787 15.825 22.9717 14.9628C35.6355 10.6134 47.9645 10.1187 60.3122 9.18483C71.8255 8.48992 83.3213 8.01098 94.8279 7.63724C84.9104 7.63476 71.9356 8.15271 60.2898 8.81066C58.2316 8.92848 56.2964 9.05271 54.3427 9.19191C44.1102 10.0537 33.6333 10.664 22.7936 14.469C18.329 16.5329 17.4408 18.7807 15.8057 20.8534C14.3657 22.9555 13.1855 25.0507 12.0786 27.1679C9.88478 31.3983 8.02755 35.686 6.34265 40.0653C4.19488 46.5251 5.19455 51.4846 5.27743 56.2098C5.31557 58.3021 6.23859 60.698 7.39155 62.2194C8.53297 63.7805 9.64136 64.7572 10.5581 65.647C15.7348 70.4933 21.5045 70.4691 26.1227 71.2649C30.9156 71.8589 35.6052 72.2059 40.2755 72.525C42.7439 72.6904 45.1921 72.8378 47.64 72.9753C61.0366 73.7312 77.8189 74.2892 92.4448 74.7095C93.1003 74.7285 94.4779 74.6045 95.916 74.6487C96.2086 74.6591 99.991 75.0081 101.254 75.0306C100.06 74.5155 105.022 75.0379 106.576 75.0452C108.501 75.0562 112.575 74.86 117.107 75.0364C121.228 75.1946 120.089 75.3751 120.317 75.3892C121.779 75.4757 122.29 75.1708 123.403 75.1452C125.949 75.0903 134.289 75.1423 142.363 75.1338C148.824 75.131 155.097 75.0885 158.009 75.0513C159.705 75.0296 159.754 75.2238 160.136 75.2188C161.145 75.2046 162.581 74.9886 164.199 74.9618C167.116 74.9145 170.481 75.0318 172.086 74.9986C175.927 74.9226 183.206 74.5317 188.194 74.3891C189.592 74.3496 189.518 74.5549 190.152 74.5365C192.943 74.4571 200.22 73.9983 203.69 73.8812C209.324 73.6948 215.124 73.6227 220.843 73.3416C221.204 73.4189 221.575 73.4958 221.943 73.5726C222.516 73.4558 223.086 73.3389 223.653 73.2219C233.343 72.9247 243.165 72.3073 252.801 71.8881C253.901 71.8409 259.427 71.7628 260.31 71.7221C261.076 71.6868 261.829 71.4293 262.918 71.4089C262.924 71.4088 262.93 71.4087 262.937 71.4085C264.557 71.3763 263.086 71.8805 265.66 71.624C266.374 71.5516 265.68 71.4077 267.095 71.2698C267.548 71.2595 276.608 70.5063 277.112 70.4241C277.931 70.3654 278.713 70.6765 278.918 70.6628C280.005 70.5886 279.955 70.2896 280.678 70.1771C282.842 69.8465 285.745 69.6065 286.093 69.5387C290.339 68.8047 298.783 66.8907 303.462 63.1678C304.068 62.7178 304.131 62.9447 304.239 62.8675C304.517 62.6624 304.715 62.4482 304.881 62.2431C305.24 61.8413 305.529 61.4322 305.936 60.9605C310.116 56.1154 309.539 49.1246 309.68 45.8399C309.681 45.7324 309.672 45.5934 309.66 45.4345C309.627 44.8069 309.513 43.9635 309.411 43.2051C308.962 40.2737 308.415 39.3765 308.393 39.0725C308.326 38.775 308.532 39.1133 308.468 38.9588C308.165 38.2274 307.352 37.0618 306.214 35.557C303.211 31.4763 297.172 27.13 294.174 24.5782C293.06 23.6585 292.55 23.1461 292.288 22.8436C291.858 22.3991 291.849 22.3184 291.734 22.2245C291.263 21.8514 289.701 20.9518 287.447 20.0153C283.193 18.3822 283.824 18.5603 282.15 18.0378C282.012 18.0019 282.191 18.2362 280.395 17.7764C278.591 17.3167 275.686 16.5873 272.807 15.9222C269.971 15.2692 267.226 14.8364 265.438 14.5973C264.003 14.4098 263.644 14.5515 262.184 14.3823C259.869 14.1047 254.705 13.4176 254.299 13.3877C254.184 13.3775 253.908 13.5656 253.237 13.5069C252.497 13.4422 251.779 13.2717 251.231 13.2267C248.094 12.9639 242.693 12.9364 244.243 12.2917C243.229 12.4033 242.217 12.5162 241.204 12.6296C240.925 12.6076 240.647 12.5857 240.368 12.5642C234.09 12.0793 227.981 11.8229 221.785 11.546C220.329 11.4808 219.123 11.2766 217.898 11.2216C216.671 11.1694 211.274 11.1219 210.385 11.0668C209.961 11.0434 209.015 10.9904 207.841 10.9139C204.587 10.7192 199.519 10.2149 198.671 10.1147C196.461 9.85645 194.315 9.33002 193.393 9.30572C192.658 9.28634 193.317 9.52417 191.917 9.44564C189.482 9.30503 185.398 8.75595 184.658 8.70667C184.423 8.69023 184.697 8.78705 183.608 8.74982C183.254 8.73857 182.713 8.70992 181.974 8.66001C180.381 8.55304 179.544 8.34531 178.968 8.30699C178.786 8.29628 179.043 8.55671 175.903 8.31886C173.74 8.15586 172.825 7.90952 172.601 7.89454C172.263 7.87211 171.425 8.02226 170.057 7.93104C166.86 7.71549 161.028 7.13803 157.994 6.94416C157.408 6.90653 157.592 7.16196 155.253 7.00365C153.584 6.89059 153.883 6.71312 153.258 6.66913C152.267 6.59969 150.771 6.75184 148.579 6.6171C147.352 6.54073 142.622 6.21912 137.668 5.85503C131.482 5.40058 124.931 4.8457 124.314 4.78232C123.595 4.69431 122.751 4.64304 122.396 4.51794C122.711 4.43377 123.028 4.35037 123.341 4.26729C126.505 4.8171 125.238 4.33499 126.085 4.36244C127.305 4.4046 131.835 4.76294 132.933 4.74206C133.323 4.73455 132.447 4.46192 134.553 4.4857C136.073 4.50262 136.987 4.70641 137.739 4.69887C138.091 4.69412 138.401 4.63844 138.711 4.48393C141.867 5.26016 144.987 4.82103 141.29 4.437C140.836 4.39002 139.559 4.28915 137.773 4.15188C131.717 3.70354 119.523 2.66017 115.209 2.64023C114.943 2.63196 114.704 2.625 114.499 2.61933C111.063 2.51311 104.637 2.6486 100.411 2.70182C97.9291 2.70573 91.7844 2.92704 92.0269 2.64838C89.8026 2.72507 92.1689 2.88408 91.7041 2.94651C90.9425 3.04049 86.4761 3.1923 83.9368 3.38755C83.2558 3.43602 82.7273 3.47789 82.452 3.50536C76.031 4.1256 68.0151 5.51024 61.8977 6.06212C62.1692 5.94681 62.438 5.83198 62.7119 5.71649C64.0576 5.37268 70.4872 4.67853 71.1792 4.23938C61.8441 5.36153 52.1291 7.38863 44.3737 7.4597C44.3863 7.48793 44.3187 7.51301 44.1878 7.53388C42.5071 7.64515 32.4394 7.87888 31.8313 7.90888C32.0388 7.74473 32.2587 7.58052 32.4602 7.41833C39.4915 7.60574 38.8097 6.98081 43.3932 7.37829C43.7273 7.38355 43.9866 7.38059 44.1906 7.37146C44.8909 7.32148 44.7092 7.14837 45.2981 7.10265C52.9138 6.17814 45.3122 7.72162 51.4397 6.91085C49.4978 6.78442 54.6392 6.04488 57.0694 5.62862C57.5872 5.54888 64.9079 4.56374 65.8061 4.43861C70.5633 3.71481 78.7567 2.53056 83.8378 2.27187C84.0042 2.26246 84.1675 2.25394 84.3275 2.24633C88.3403 1.93741 90.5047 1.57231 94.1012 1.36059C96.8259 1.21307 96.0492 1.42319 97.3309 1.38507C100.014 1.31599 100.889 0.764544 102.614 1.49463C104.426 1.37757 106.236 1.27451 108.052 1.18454C108.052 1.30173 108.052 1.41891 108.052 1.53609C109.189 1.53864 110.326 1.54636 111.464 1.55939C111.804 1.44651 112.133 1.33394 112.475 1.22203C116.055 1.43986 114.607 1.69809 115.222 2.03685C115.228 2.04012 115.235 2.0434 115.241 2.04669C116.024 2.08713 116.808 2.13045 117.595 2.17785C118.21 1.94226 118.833 1.70933 119.458 1.47935C123.022 1.63972 126.498 1.91321 129.876 2.15803C130.086 2.28911 130.307 2.42094 130.512 2.55164C130.527 2.43559 130.542 2.31955 130.556 2.2035C132.994 2.35615 135.418 2.50209 137.865 2.6419C141.163 2.83011 144.481 3.00958 147.795 3.18836C149.341 3.09135 140.117 2.41064 139.425 2.3541C139 2.3214 138.452 2.28432 137.889 2.24794C133.362 1.96208 125.264 1.50893 125.235 1.14537C123.37 1.25105 118.447 1.01106 115.25 0.785585C114.246 0.709022 113.409 0.622968 112.851 0.52562C113.655 0.542998 114.455 0.563038 115.255 0.586079C117.983 0.662623 120.804 0.787355 123.547 0.969384C123.441 0.823306 123.335 0.677365 123.227 0.531383C127.6 1.35894 128.186 1.38731 132.609 1.14285C132.601 1.32988 132.593 1.51692 132.584 1.70396C134.122 1.48329 136.167 1.71952 137.91 1.91969C139.687 2.12482 141.105 2.29175 141.212 1.89014C142.838 2.05218 144.466 2.21284 146.098 2.37311C149.636 2.48078 144.177 1.54464 158.005 2.58943C158.958 2.66194 158.749 2.85466 160.184 2.92459C160.599 2.94509 162.985 2.78459 167.523 3.08916C168.234 3.13707 168.27 3.31719 169.009 3.38475C170.704 3.54094 174.11 3.40277 172.54 3.87783C179.259 4.47126 176.509 3.82844 178.611 3.7785C180.025 3.74914 179.704 4.06687 180.931 4.07423C182.041 4.08111 181.739 3.85111 183.959 3.97461C184.75 4.01977 185.812 4.10578 187.378 4.27145C186.706 4.24096 186.022 4.21096 185.341 4.18247C185.681 4.30135 186.004 4.41927 186.341 4.53854C189.803 4.58998 189.458 4.89472 191.131 4.51569C193.621 4.969 195.82 5.20268 199.178 5.50258C205.181 6.01284 202.728 5.31052 208.158 6.26851C208.546 6.33471 208.988 6.40903 209.475 6.49101C210.66 6.45931 211.856 6.42171 213.056 6.38125C215.011 6.71038 213.401 6.90553 216.348 7.11529C214.06 6.44598 220.296 6.96536 221.39 6.52711C221.496 6.64977 221.603 6.77251 221.708 6.89515C222.371 6.92867 223.038 6.96251 223.707 6.9968C223.714 6.90304 223.72 6.80927 223.727 6.71551C224.609 6.83119 225.499 6.94782 226.384 7.06512C227.06 7.00757 227.734 6.95041 228.411 6.894C229.506 7.15058 230.596 7.40862 231.691 7.66924C232.384 7.72303 233.078 7.77773 233.773 7.83359C233.561 7.68045 233.349 7.52739 233.138 7.37447C234.03 7.47492 234.92 7.5769 235.812 7.68096C234.786 7.38675 235.454 7.15354 238.248 7.34892C240.089 7.48097 238.783 7.69576 240.712 7.85661C241.192 7.89726 241.875 7.93452 242.864 7.96729C243.209 7.98031 243.827 7.67503 248.482 7.98423C254.081 8.37168 251.343 8.40268 252.342 8.49253C252.539 8.51057 254.267 8.48429 255.887 8.60978C256.803 8.68015 257.676 8.90488 257.8 8.91667C258.37 8.96641 258.552 8.78661 259.345 8.86053C261.351 9.04751 264.06 9.45411 266.081 9.72013C266.993 9.83863 267.888 9.85257 268.304 9.91439C268.947 10.0098 269.751 10.3183 270.409 10.4306C271.409 10.6 272.652 10.7295 273.889 10.9356C275.468 11.186 276.945 11.5124 277.472 12.1345C279.809 11.8694 284.463 14.088 284.268 13.5332C286.444 14.3795 290.383 14.9953 295.502 19.0345C299.771 22.4825 305.405 26.9291 304.809 27.2514C308.221 29.387 307.669 29.7018 308.946 31.1027C310.402 32.8628 309.771 31.8233 310.904 33.4135C313.118 36.55 314.711 41.2354 314.629 45.414C314.628 45.876 314.629 46.3569 314.63 46.861C314.512 46.3987 314.393 45.9528 314.274 45.522C314.235 48.556 314.573 47.3618 314.482 51.0834C314.313 54.7602 313.72 56.4527 313.587 56.7271C313.413 57.0682 313.463 56.3877 313.124 57.0441C313.453 56.6328 312.043 62.489 307.998 65.7924C306.973 66.7026 305.823 67.5322 305.548 67.7061C305.291 67.8732 305.655 67.4922 305.462 67.5274C305.273 67.5298 304.524 68.1374 301.928 69.556C302.272 69.5128 302.598 69.4736 302.956 69.4102C300.356 70.8277 294.452 72.8112 293.529 72.9343C293.051 73.0422 290.528 72.6704 288.607 73.7666C288.343 73.6958 288.077 73.6245 287.809 73.5525C285.551 74.0866 283.331 74.535 281.125 74.9378C280.748 74.7705 280.368 74.6024 279.984 74.4336C279.287 74.5115 278.606 74.5833 277.889 74.6551C278.381 74.7935 278.866 74.931 279.345 75.0673C274.997 75.4601 269.851 76.0888 268.925 75.5136C268.01 75.6883 267.147 75.856 266.223 76.0236C265.605 75.8476 265.038 75.6674 264.433 75.4878C263.945 75.5183 263.507 75.5466 263.112 75.5736C260.275 75.7699 259.93 75.9182 257.459 76.2289C257.559 76.0605 257.659 75.8922 257.759 75.7239C255.721 76.0472 251.96 76.4312 248.967 76.5918C247.574 76.6667 245.103 76.5484 244.783 76.5825C244.445 76.619 241.16 77.6459 240.766 76.8948C235.889 77.4405 233.711 77.1804 231.728 77.269C230.448 77.326 229.849 77.5341 228.397 77.6103C226.324 77.7195 224.208 77.7117 223.009 77.7698C222.319 77.8038 222.196 77.988 221.718 78.0117C219.478 78.1229 220.791 77.8906 218.418 77.9902C218.191 78.0006 216.485 78.2824 214.525 78.3241C213.423 78.3481 210.61 78.1997 210.353 78.2089C209.239 78.2511 210.156 78.7137 206.355 78.2722C206.468 78.3621 206.581 78.4519 206.694 78.5418C202.035 78.9337 201.272 78.5377 200.334 78.5388C200.214 78.5403 199.083 78.737 198.399 78.7357C197.242 78.7332 196.778 78.5262 196.522 78.5241C195.628 78.5176 192.604 78.7041 190.625 78.5457C191.056 79.1639 184.136 79.5758 182.587 78.9003C181.364 79.0715 180.141 79.2418 178.919 79.4112C178.362 79.3072 177.804 79.203 177.246 79.0987C176.912 79.2232 176.576 79.3477 176.242 79.472C174.451 79.2553 172.655 79.0368 170.864 78.816C170.756 79.0759 170.647 79.3357 170.539 79.5955C170.038 79.5763 169.536 79.557 169.035 79.5375C168.64 79.3405 168.246 79.1434 167.851 78.9462C167.226 78.9971 166.601 79.0478 165.976 79.0982C165.824 79.2491 165.672 79.4 165.52 79.5509C162.158 79.7791 163.865 78.3433 157.472 79.6796C156.471 79.5768 155.476 79.4731 154.475 79.3688C153.35 79.9513 151.243 79.6312 149.533 79.7114C148.331 79.7677 148.398 79.9932 146.764 80.0116C145.122 80.0294 145.179 79.8124 145.052 79.812C144.009 79.8089 143.17 79.9272 142.388 79.9638C142.165 79.9742 141.947 79.978 141.73 79.9707C141.583 79.9658 141.209 79.7115 139.962 79.7002C138.717 79.6888 137.965 79.9643 136.104 79.9166C135.151 79.8923 134.878 79.6766 134.036 79.6582C130.002 79.5689 125.953 80.6514 122.935 79.3384C122.262 79.5009 117.312 80.045 115.2 79.9908C111.919 79.9069 113.18 79.6638 111.876 79.6037C111.688 79.5943 110.693 79.6711 107.931 79.6203C107.439 79.6112 107.551 79.7563 107.48 79.7573C104.263 79.7145 98.0244 79.4985 94.4966 79.404C94.1753 79.3951 92.5315 79.7637 89.7344 79.1608C85.5837 79.4671 77.7766 78.4007 72.3065 78.8123C71.5365 78.7991 70.6203 78.6239 70.2863 78.617C67.395 78.556 68.4361 79.0399 61.9137 78.1399C62.4314 78.383 60.9034 78.5222 58.7329 78.4098C55.4779 78.2386 57.8012 77.93 55.1963 77.8428C55.1907 77.9595 55.1852 78.0761 55.1797 78.1928C49.1555 77.5843 47.9475 78.0251 41.8765 77.6519C41.2679 77.6131 40.5929 77.5499 39.9402 77.4779C38.1123 77.2805 36.3174 77.0068 35.9276 76.9759C35.7164 76.9626 33.2745 77.0473 33.049 77.0276C31.7319 76.9223 30.9992 76.724 29.8708 76.6122C26.1542 76.2761 21.2508 75.872 22.2312 75.3448C21.0911 75.2997 19.9101 75.2251 18.6519 75.0825C14.419 73.7134 8.41345 71.0891 8.13343 69.6174C7.83792 69.416 7.56356 69.2222 7.30784 69.0396C6.90801 68.7911 6.4726 68.5103 5.98647 68.1643C5.05558 67.2141 3.78253 65.944 2.52841 63.8486C1.26058 61.787 0.39023 58.8362 0.339479 56.4109C0.368698 51.743 -0.942036 46.757 1.82848 38.3235C3.59555 33.8229 5.52353 29.4402 7.85405 25.0036C9.03343 22.7795 10.2926 20.5585 11.9115 18.2132C12.7325 17.0368 13.6326 15.8277 14.8562 14.5078C16.1715 13.2212 17.3901 11.6118 21.2101 10.0791C21.3657 10.0238 21.5529 9.95717 21.7264 9.89613C22.304 9.29005 30.3764 7.23789 30.6858 7.32109C32.5209 7.11929 30.7307 7.93314 34.312 7.17844C34.6707 6.90186 35.0472 6.62439 35.3995 6.35272C39.8941 5.59164 37.7533 6.14009 39.5288 6.03341C40.2491 5.91149 40.0219 5.7744 40.9885 5.63951C45.5524 4.97977 54.0404 4.22842 59.9945 3.88222C61.0172 3.81895 62.0145 3.75951 62.8534 3.71009C63.9998 3.64277 63.8439 3.8059 64.192 3.78696C65.1565 3.73213 67.0831 3.43408 69.0299 3.33451C81.111 2.71198 98.1573 2.13251 110.263 1.84095C111.087 1.82115 111.199 2.00051 111.753 1.98889C112.512 1.9723 114.239 1.75957 115.039 1.7455C115.809 1.73108 116.298 1.85245 117.108 1.83892C120.859 1.77688 125.828 1.36252 129.843 1.63018C129.874 1.63238 129.94 1.63978 130.033 1.65143C130.959 1.75996 134.396 2.24562 134.475 2.28664C135.03 2.55443 131.343 3.13803 137.458 3.34042C132.024 3.90189 133.749 4.48944 140.832 4.55377C137.29 4.76204 133.748 4.97048 130.192 5.17941C130.19 5.25646 130.187 5.3335 130.185 5.41054C133.449 5.67521 136.642 5.68796 141.553 5.54798C141.391 5.625 141.258 5.70098 141.105 5.77769C137.564 6.19548 133.428 6.44029 130.219 6.84705C129.54 6.93604 128.842 7.03529 128.264 7.14409C128.907 7.16982 129.6 7.1938 130.232 7.21995C134.441 7.38024 138.639 7.54091 142.829 7.70225C142.604 7.76649 142.343 7.83198 142.112 7.89638C139.787 8.12523 134.726 8.39171 132.807 8.59638C125.456 9.37797 139.278 8.75334 137.002 9.15127C134.792 9.22693 132.543 9.30404 130.31 9.38063C124.788 9.56971 119.216 9.76222 113.675 9.96074C113.513 10.0929 122.354 10.0141 130.333 10.0442C137.064 10.0662 143.197 10.1557 143.065 10.4812C140.63 10.6152 138.193 10.7495 135.739 10.8844C136.851 11.0234 137.923 11.1639 139.025 11.3033C138.736 11.3702 138.437 11.4374 138.127 11.5051C135.566 11.6834 132.998 11.8619 130.405 12.0414C128.885 12.1478 127.308 12.2562 125.78 12.3632C127.42 12.2858 129.003 12.215 130.409 12.1571C139.783 11.7722 144.669 11.8373 147.072 12.9712C147.192 12.9711 147.133 12.9725 147.14 12.9737C147.132 12.9751 147.124 12.9765 147.115 12.9779C147.092 12.9809 147.079 12.9836 147.053 12.9867C147.017 12.9924 146.972 12.9984 146.931 13.0043C146.847 13.0162 146.765 13.028 146.678 13.04C146.515 13.0637 146.334 13.088 146.173 13.1116C144.178 12.5435 136.918 12.7772 130.443 13.1098C128.013 13.2349 125.67 13.3754 123.813 13.4907C124.814 13.639 128.172 13.4689 130.453 13.4012C131.395 13.373 132.098 13.3633 132.48 13.3937C132.847 13.4251 131.578 13.6494 132.429 13.7106C134.614 13.8707 143.884 13.8463 142.55 14.1859C142.004 14.3249 135.744 14.6965 130.509 14.97C127.569 15.1241 124.93 15.2481 123.878 15.279C126.071 15.3084 128.296 15.3124 130.522 15.3101C135.242 15.304 139.931 15.2705 144.591 15.3822C140.668 16.043 137.168 16.7956 130.588 17.1602C129.984 17.1942 129.293 17.2266 128.619 17.2535C127.913 17.3677 128.892 17.4316 130.599 17.4702C134.719 17.559 143.029 17.5018 143.313 17.6068C140.423 17.8853 137.567 18.1628 134.674 18.4417C137.122 18.3074 139.549 18.1739 141.992 18.0399C142.001 18.0982 142.011 18.1565 142.02 18.2147C138.19 18.5167 134.546 18.8961 130.661 19.1976C128.161 19.392 125.544 19.5546 122.703 19.6442C122.936 19.9458 127.265 19.7589 129.374 19.6865ZM81.256 1.81599C81.1369 1.64682 82.4274 1.48642 83.7574 1.36677C84.3325 1.31476 84.9152 1.27129 85.3828 1.23578C85.1434 1.20781 84.9063 1.18011 84.6654 1.15322C88.027 0.897764 94.1657 0.721895 94.3727 0.224744C96.7214 0.0758104 95.6972 0.549068 96.4548 0.572638C96.7513 0.580958 99.8047 0.23924 102.247 0.516777C102.824 0.507609 103.406 0.49984 103.983 0.493519C104.094 0.32896 104.205 0.164457 104.316 6.67572e-06C105.122 0.192196 105.936 0.387057 106.738 0.584581C99.1448 0.635194 91.5499 0.862847 83.7756 1.57095C82.9279 1.64971 82.1144 1.72896 81.2686 1.81476C81.2644 1.81517 81.2602 1.81558 81.256 1.81599ZM164.528 3.38771C167.518 3.65692 172.117 4.08688 171.213 3.58248C169.313 3.48853 167.414 3.39708 165.517 3.30731C165.187 3.33406 164.858 3.36089 164.528 3.38771ZM171.206 78.3903C168.685 78.0004 166.379 78.4276 162.489 78.4127C162.496 78.5058 162.503 78.5989 162.509 78.692C164.097 78.4428 168.301 78.5164 171.206 78.3903ZM4.92687 20.7113C4.54006 21.3353 4.20061 21.9337 3.88975 22.5021C4.71567 19.8518 5.07612 19.3653 7.86513 16.2071C8.04794 16.0192 7.90339 16.0025 7.9684 15.9371C8.7338 15.1759 9.62501 14.6402 10.4408 14.0955C10.6347 13.966 10.8261 13.8416 11.0194 13.7196C11.9462 13.134 12.8364 12.4694 14.7577 11.5847C16.4628 10.8319 16.565 11.0662 17.1694 10.824C17.6466 10.5562 22.6893 8.40626 25.8838 8.27161C30.2787 8.14981 18.6032 8.9901 11.1703 13.9689C6.65633 16.8184 5.27906 20.3008 4.92687 20.7113ZM0.0966225 39.6119C0.0589275 39.0368 0.0259624 38.4543 0.000240326 37.8602C0.443777 39.5759 0.0928221 36.2205 0.33333 33.0331C0.519208 33.3444 0.429928 39.1762 0.781834 41.4194C0.549076 40.8251 0.320053 40.2231 0.0966225 39.6119ZM58.3089 6.76226C56.2713 7.08957 56.5559 6.63783 56.6236 6.50719C57.2717 6.41519 57.9239 6.32114 58.57 6.22732C58.4825 6.40571 58.3955 6.58402 58.3089 6.76226ZM43.7351 8.29C43.8212 8.25645 43.9723 8.22637 44.1766 8.19984C45.2304 8.0455 48.4852 7.76652 50.246 7.53847C50.3336 7.52794 49.7986 7.74138 51.2162 7.56948C51.627 7.53361 55.8622 6.41792 54.9979 7.15929C51.1919 7.74345 47.431 8.27057 44.1751 8.28978C44.0299 8.28971 43.8854 8.28982 43.7415 8.29009C43.7394 8.29006 43.7373 8.29003 43.7351 8.29ZM38.9913 8.12235C39.8775 8.02397 40.7808 7.9337 41.653 7.85021C42.1096 7.9806 42.5772 8.11295 43.0217 8.24676C42.0219 8.26855 41.0219 8.29822 40.0018 8.33783C39.6647 8.26491 39.3394 8.19291 38.9913 8.12235ZM32.602 10.336C32.3666 10.2408 32.15 10.1426 31.9027 10.0512C31.0783 10.0996 27.244 11.6312 28.5352 11.4431C29.8945 11.0341 31.2528 10.6698 32.602 10.336ZM48.831 8.45533C49.6549 8.44878 50.4039 8.45237 51.2209 8.45298C52.096 8.14409 53.0016 7.83674 53.8801 7.53515C49.9347 7.66908 45.689 7.92723 46.4428 8.54433C45.562 8.63415 44.6299 8.73433 43.7283 8.8372C44.4785 8.4677 44.3387 8.37824 41.9444 8.48397C41.4699 8.94342 38.9974 9.03625 36.1487 9.58027C38.2252 9.27186 40.2917 9.01417 42.3416 8.78978C42.35 8.85926 42.3584 8.92874 42.3668 8.99822C37.7868 9.55453 43.5379 9.24366 46.4447 8.68646C46.6857 8.75553 46.9286 8.82472 47.1734 8.89405C47.7492 8.74372 48.2666 8.60094 48.831 8.45533ZM260.321 72.9375C259.777 72.8921 259.225 72.847 258.664 72.8023C256.763 73.7119 260.063 72.9474 263.001 73.197C263.358 73.2252 263.707 73.2667 264.04 73.3257C262.97 72.831 267.789 72.6013 268.043 72.5401C267.489 72.388 266.928 72.2348 266.358 72.0808C265.205 72.2491 264.136 72.4075 262.972 72.5658C262.114 72.6886 261.216 72.8132 260.321 72.9375ZM244.635 73.0066C246.573 73.3816 237.153 73.8136 233.989 73.8386C233.217 73.8454 231.83 73.6501 231.285 73.7037C230.954 73.8098 230.622 73.9159 230.289 74.022C229.856 73.7194 223.734 74.3201 221.286 74.5832C221.054 74.475 220.822 74.3668 220.59 74.2586C219.71 74.3379 218.825 74.4171 217.935 74.4962C218.042 74.3758 218.15 74.2553 218.258 74.1349C217.585 74.2997 216.926 74.4638 216.262 74.6279C213.636 74.8781 215.234 74.1861 213.26 74.4543C211.077 74.7511 214.682 75.0021 214.631 75.2496C216.416 75.123 220.464 74.8321 222.278 74.7559C223.324 74.7121 222.152 75.1992 226.622 74.5196C227.616 74.599 228.575 74.6794 229.581 74.7575C231.383 74.4983 233.175 74.2382 234.97 73.9769C235.311 74.1262 235.65 74.2756 235.99 74.4249C236.205 74.4421 240.329 73.8989 240.118 73.7847C241.828 74.0249 245.283 73.9332 248.937 73.7877C249.278 73.6839 249.641 73.5791 249.989 73.4749C246.462 73.8223 248.861 73.4307 247.802 73.3073C247.193 73.2361 245.31 73.1256 244.635 73.0066ZM10.4517 27.9204C13.1234 22.1124 11.2468 25.7737 15.2249 19.6596C14.7488 19.963 14.2769 20.2799 13.8154 20.5968C12.0872 23.8434 9.46604 28.6148 10.4487 27.9262C10.4497 27.9243 10.4507 27.9223 10.4517 27.9204ZM71.3491 6.36339C67.9527 6.66298 69.6806 6.89979 65.369 7.23478C65.367 7.23489 65.3649 7.235 65.3629 7.23511C67.5911 7.13784 69.8409 7.04599 72.0575 6.96012C71.8207 6.7612 71.5845 6.56229 71.3491 6.36339ZM113.692 76.6281C116.945 76.7503 116.319 76.5807 119.268 76.9301C123.683 76.5609 119.945 76.5936 119.949 76.2328C118.941 76.3319 117.941 76.4304 116.925 76.5278C114.484 76.1698 116.802 76.0198 116.803 75.9873C116.801 75.9873 116.799 75.9873 116.797 75.9872C116.798 75.8789 116.877 75.857 115.941 75.7835C115.189 76.0654 114.451 76.3471 113.692 76.6281ZM127.652 76.2691C126.537 76.5054 126.027 76.8126 128.971 76.9726C128.973 76.9726 128.975 76.9727 128.977 76.9727C129.221 76.4382 132.027 76.8736 133.32 76.8365C133.657 76.7782 134 76.7197 134.334 76.6612C132.098 76.5344 129.885 76.4037 127.652 76.2691ZM176.823 75.2489C176.848 75.8398 174.382 75.9526 177.867 76.4176C178.541 76.3913 179.215 76.3648 179.887 76.338C180.326 76.1975 180.765 76.057 181.205 75.9163C189.78 76.7648 192.275 74.8879 177.856 75.9258C177.854 75.9263 177.852 75.9267 177.85 75.9272C177.507 75.7011 177.165 75.475 176.823 75.2489ZM161.773 75.5946C161.669 75.9067 161.566 76.2189 161.462 76.5311C159.563 75.8122 157.133 76.5647 153.421 76.0806C153.087 76.179 152.753 76.2772 152.419 76.3754C151.545 76.2551 145.727 76.2404 142.369 76.3421C140.426 76.4022 139.303 76.5084 140.378 76.6786C140.887 76.7591 141.636 76.7611 142.371 76.7341C143.483 76.693 144.563 76.584 144.709 76.5868C145.527 76.6047 146.6 76.8637 147.976 76.8362C148.771 76.82 150.458 76.4908 152.079 76.4732C155.719 76.4365 162.37 77.1816 167.137 76.2933C167.482 76.3804 167.828 76.4674 168.175 76.5544C171.722 76.4277 170.529 76.1552 173.838 76.4387C176.086 74.9246 160.573 76.7706 163.788 75.5109C163.786 75.511 163.784 75.511 163.782 75.511C163.113 75.5392 162.442 75.5671 161.773 75.5946ZM64.0702 74.9961C63.8668 74.7247 59.7383 74.9616 60.7287 74.3676C59.3543 74.5304 58.0257 74.6929 56.6575 74.8511C56.665 74.9105 56.6725 74.9699 56.68 75.0293C58.0332 75.0451 59.3452 75.0566 60.7052 75.0679C60.7064 75.1617 60.7077 75.2554 60.7089 75.3491C62.7029 75.1027 71.029 75.5595 70.7449 75.8763C71.1932 75.7519 71.644 75.6274 72.0973 75.5027C76.0566 76.0177 79.4827 75.7162 83.8013 76.2034C84.14 76.0964 84.4798 75.9892 84.8205 75.8821C85.0376 75.9813 85.2585 76.0806 85.4703 76.1796C87.0283 76.2311 88.6321 76.2815 90.1924 76.3288C95.347 76.0678 85.3675 75.355 84.1594 75.3715C83.9985 75.375 84.0145 75.618 83.0115 75.6291C81.2211 75.6554 71.2466 75.1069 68.1471 75.1434C68.1263 74.9818 68.1055 74.8202 68.0847 74.6586C66.7571 74.7735 65.3964 74.8851 64.0702 74.9961ZM195.9 75.375C196.13 75.5318 196.359 75.6885 196.589 75.8452C200.475 75.5643 202.917 75.6268 201.905 75.1184C201.903 75.1185 201.901 75.1185 201.899 75.1186C199.906 75.2058 197.889 75.2918 195.9 75.375ZM149.699 5.12667C149.779 5.45705 151.623 5.68547 154.03 5.59142C153.92 5.49048 153.81 5.38955 153.7 5.28862C152.441 5.49291 150.908 4.92126 147.062 4.76218C147.052 4.92547 147.043 5.08876 147.033 5.25206C147.918 5.21016 148.806 5.16828 149.699 5.12667ZM192.544 75.4028C191.36 75.2444 188.043 75.9218 190.236 75.8896C191.912 75.8645 193.181 75.4879 192.544 75.4028ZM84.7326 6.05817C83.8559 6.06227 82.9705 6.06715 82.0958 6.07199C81.6461 6.23137 81.1907 6.39111 80.7403 6.55076C80.7424 6.55066 80.7444 6.55057 80.7465 6.55048C82.0805 6.38513 83.4019 6.22141 84.7326 6.05817ZM102.541 76.5116C105.513 76.5384 108.505 76.5582 111.486 76.5708C111.516 76.4804 111.547 76.39 111.577 76.2996C108.591 76.5974 107.386 76.2228 106.699 76.1919C106.702 76.192 106.705 76.192 106.708 76.1921C104.459 76.0896 102.34 76.004 100.224 75.8593C100.992 76.0772 101.764 76.2946 102.541 76.5116ZM92.3309 75.7485C92.8097 76.399 93.4809 76.4928 98.0595 76.1274C97.879 76.0452 97.6988 75.9629 97.5189 75.8806C95.1592 75.8838 93.752 76.0016 94.1805 75.6762C93.561 75.7006 92.9445 75.7247 92.3309 75.7485ZM139.019 76.3689C138.476 76.168 134.102 76.3814 134.346 76.483C134.431 76.5258 140.096 76.7666 139.019 76.3689ZM116.548 3.3404C117.572 3.41499 118.602 3.49595 119.629 3.5851C118.257 3.59812 116.881 3.62603 115.529 3.66382C115.864 3.5553 116.213 3.44771 116.548 3.3404ZM105.365 4.13622C104.639 4.06127 106.994 3.45956 102.653 3.35336C105.813 3.30126 108.972 3.29096 112.128 3.32064C110.649 3.39408 109.166 3.47655 107.684 3.56786C107.944 3.73379 108.203 3.9 108.458 4.06646C107.424 4.08538 106.397 4.10861 105.365 4.13622ZM101.973 3.74722C103.68 4.14201 94.7304 4.36993 93.8882 4.38681C93.7016 4.38142 92.801 4.08817 92.4702 4.03265C93.8287 3.96865 95.1854 3.91575 96.5407 3.87225C96.0847 3.78213 95.626 3.69314 95.1685 3.60522C96.7566 3.51136 98.3414 3.43108 99.9271 3.36226C99.2524 3.4813 98.5764 3.60247 97.901 3.72588C99.2598 3.72429 100.617 3.73174 101.973 3.74722ZM137.713 4.94526C136.597 4.86575 135.493 4.78556 134.39 4.70397C134.609 4.88192 134.806 5.05835 135.019 5.2358C135.695 5.27864 136.353 5.31988 137.009 5.36045C137.24 5.22191 137.475 5.08351 137.713 4.94526ZM114.822 3.89337C114.933 3.84355 115.054 3.80503 115.183 3.77636C117.045 3.3718 120.605 4.9484 115.706 4.21016C115.52 4.18267 115.333 4.1439 115.176 4.1021C114.9 4.02631 114.72 3.94032 114.822 3.89337ZM90.5155 4.45476C87.0105 5.24022 87.7295 3.91743 91.0992 4.10067C91.2682 4.11157 90.7783 4.39766 90.5155 4.45476ZM64.2502 7.30683C63.9722 7.34285 63.4181 7.0067 60.8245 7.7808C60.3743 7.79936 59.9359 7.81618 59.4928 7.83351C60.4586 7.4923 69.2911 6.11336 68.1259 6.69731C66.7681 6.89045 65.6503 7.11803 64.2502 7.30683ZM73.0268 7.64643C74.367 7.4669 75.6855 7.29769 77.0261 7.13449C76.5676 7.05698 76.1126 6.98002 75.6612 6.90353C76.3048 6.79275 76.9756 6.68088 77.6201 6.5741C78.7706 6.66945 79.918 6.77133 81.0652 6.87974C78.1706 7.20385 75.2567 7.5745 72.3801 7.97669C72.5964 7.8663 72.8099 7.75647 73.0268 7.64643ZM108.727 5.88992C106.147 5.71969 102.987 5.89711 98.7921 5.97035C98.79 5.96999 98.788 5.96964 98.7859 5.96928C98.5776 5.9726 98.2012 5.80498 97.5271 5.81716C96.9561 5.76548 85.6056 6.56129 86.4649 6.25992C90.8598 5.67228 92.5191 6.03886 93.5467 5.32116C93.7673 5.45222 93.9876 5.58356 94.2075 5.71517C98.44 5.79766 99.6296 5.30318 101.998 5.08361C101.991 5.18953 101.983 5.29545 101.975 5.40136C103.558 5.3886 105.141 5.38685 106.72 5.39525C106.498 5.32598 106.275 5.25691 106.051 5.18805C106.611 5.18625 107.173 5.18576 107.729 5.18653C109.094 5.50171 110.816 5.58784 108.727 5.88992ZM66.9776 8.27634C65.8576 9.19245 53.8751 10.5764 48.7161 11.1354C51.4053 10.4424 55.7733 10.1751 58.8667 9.72796C64.846 8.86454 60.671 9.17502 61.6665 8.89869C62.1644 8.76043 65.6389 8.77457 66.9776 8.27634ZM118.168 5.91805C117.004 5.8535 116.033 5.84013 115.137 5.82729C113.684 5.80723 112.399 5.78771 110.772 5.58905C110.995 5.53261 111.209 5.47628 111.436 5.42029C111.836 5.44853 113.537 5.5169 115.142 5.60982C117.142 5.72235 119.024 5.87852 118.168 5.91805ZM40.9731 11.0805C42.5616 11.1573 43.509 11.1784 44.1268 11.1635C45.6038 11.0987 44.7155 10.8423 46.7906 11.161C45.8872 11.2231 44.9971 11.2607 44.1251 11.2628C43.0616 11.2628 42.0146 11.2717 40.9733 11.2905C40.9733 11.2205 40.9732 11.1505 40.9731 11.0805ZM185.782 72.5697C183.323 72.6166 180.57 72.5381 179.111 72.8755C180.778 72.8825 182.458 72.8876 184.126 72.8914C184.676 72.7844 185.229 72.6771 185.782 72.5697ZM255.715 67.0253C255.127 66.9795 252.957 67.2918 252.71 67.3028C252.272 67.3224 252.386 67.2117 252.379 67.1844C249.544 67.3302 252.177 67.5403 250.082 67.7048C249.695 67.7342 244.794 67.7877 242.764 67.8872C239.692 68.0394 236.598 68.1465 235.436 68.1999C233.508 68.2887 229.872 68.6816 226.685 68.8184C225.364 68.8747 224.885 68.6965 223.568 68.7518C215.05 69.1206 198.271 69.9521 190.708 70.0295C188.832 70.0515 187.051 69.8421 186.061 69.8894C185.283 70.004 184.504 70.1184 183.73 70.2323C181.314 69.4475 180.527 70.2198 177.947 70.3596C176.305 70.4478 175.533 70.214 175.313 70.2196C173.852 70.2571 173.133 70.3918 171.984 70.4357C170.697 70.4847 168.843 70.4082 168.382 70.4374C168.1 70.4556 169.009 70.7755 164.009 70.8581C158.912 70.9396 153.879 70.9736 148.694 71.0057C150.436 71.9956 151.915 71.2917 154.033 71.2293C154.601 71.2124 154.243 71.3766 154.738 71.3634C156.132 71.3273 158.805 71.1326 159.96 71.1525C161.207 71.1742 160.787 71.5512 162.367 71.3889C162.447 71.3805 162.192 71.2318 162.564 71.2001C166.3 70.8834 167.529 71.1279 172.258 71.038C175.392 70.9975 194.412 70.3433 195.068 70.4088C198.488 70.8539 178.438 71.4145 176.093 71.4047C175.273 71.4084 176.129 71.2203 175.381 71.2046C175.064 71.1988 172.219 71.5843 169.403 71.6664C165.995 71.7689 159.146 71.6633 155.898 71.711C151.37 71.7816 146.852 71.8291 142.345 71.8517C119.039 71.9628 95.9163 71.5425 72.578 70.7617C71.9753 70.7412 71.181 70.908 69.2536 70.8388C59.7319 70.4906 50.1179 70.0563 40.4872 69.3989C31.3381 68.198 21.4328 69.8242 12.7903 63.3172C11.0347 61.6502 8.55991 59.3023 8.53166 56.0773C8.41482 51.3172 7.66854 46.3619 9.42877 41.2561C13.1618 32.9192 15.3092 23.8428 23.927 17.6112C25.2566 17.1217 26.6722 16.6548 28.0538 16.2738C35.9494 14.1652 43.8539 13.1954 51.9337 12.6253C52.8996 12.4034 53.9191 12.182 54.8937 11.9685C52.3377 12.2594 47.6362 12.3756 47.1921 12.424C47.0408 12.4383 46.0731 12.6923 44.5262 12.8573C42.3143 13.0965 41.3492 13.0915 41.1536 13.1153C40.5875 13.189 40.9749 13.2855 40.4426 13.3559C36.4622 13.8949 33.3722 14.4479 29.7287 15.3159C27.17 15.9354 25.3318 16.4358 23.7131 17.0182C22.2294 17.5876 21.3691 18.4569 20.5524 19.4449C20.2094 19.6346 19.8592 19.8521 19.5336 20.0566C17.8566 22.1414 11.6228 34.1355 9.73179 39.2961C9.11064 40.8298 9.01475 40.5761 8.82323 41.0224C8.81346 41.0457 8.80351 41.0707 8.79333 41.0976C8.75527 41.4912 8.53184 41.4828 7.9782 46.2295C7.79761 48.598 7.65496 49.1968 7.66805 50.3617C7.68503 50.9906 7.87503 50.885 7.90427 51.7802C7.95763 53.3051 8.03063 54.7282 8.07746 56.0958C8.11315 59.5424 10.6622 61.9689 12.4367 63.6862C13.0102 64.2466 13.6811 64.8277 14.445 65.3275C15.8467 66.1979 15.82 66.2712 16.1474 66.4367C17.3814 66.9893 19.5431 67.3927 22.5241 67.9163C27.2156 68.802 36.1968 69.4943 40.4539 69.8905C40.6482 69.9091 40.834 69.9273 41.0098 69.945C41.5807 70.0028 42.0724 70.2293 42.4948 70.2534C43.1302 70.2889 43.4016 70.1025 43.5152 70.1085C45.6998 70.2386 44.3589 70.3459 45.8224 70.3869C46.6314 70.4092 47.4272 70.2245 49.2525 70.2973C51.6623 70.3914 51.1646 70.6384 52.1681 70.6626C52.2757 70.6636 52.3106 70.4748 53.3124 70.5182C57.0321 70.6822 62.459 70.8714 65.9928 71.0058C67.028 71.0454 67.7419 71.2009 69.1766 71.255C72.0227 71.3857 88.2472 71.7652 89.5752 71.8507C89.7157 71.8616 88.27 72.1101 90.5634 72.1541C91.2317 72.052 91.9164 71.9498 92.5793 71.8468C93.6822 72.058 94.8021 72.2686 95.9188 72.478C95.8819 71.8319 102.452 71.8483 102.382 72.5072C103.111 72.5457 103.814 72.5834 104.534 72.6209C106.042 72.1849 107.028 72.3689 109.933 72.1351C110.387 72.2809 110.831 72.4264 111.279 72.5718C111.393 72.4795 111.507 72.3871 111.622 72.2948C113.159 72.8194 115.7 72.3335 116.004 72.3331C117.185 72.332 118.087 72.4677 118.633 72.4676C120.696 72.4705 125.196 72.3159 127.607 72.4031C127.721 72.4076 127.608 72.6242 128.296 72.6526C129.539 72.7034 129.668 72.3864 131.316 72.7606C131.65 72.6672 131.984 72.5737 132.319 72.4801C132.674 72.5286 133.03 72.5769 133.386 72.6252C135.476 72.5994 137.583 72.57 139.667 72.5372C137.769 72.9108 139.951 73.1095 142.031 72.8099C142.216 72.7833 142.309 72.7485 142.35 72.711C142.395 72.6695 142.377 72.6248 142.349 72.5842C142.306 72.5216 142.238 72.4688 142.344 72.4531C142.345 72.4529 142.347 72.4527 142.349 72.4525C142.741 72.4129 152.073 72.4479 152.686 72.5783C153.13 72.5028 153.574 72.4272 154.019 72.3513C154.246 72.4894 154.473 72.6274 154.7 72.7653C154.946 72.713 155.19 72.6606 155.434 72.6082C157.882 72.8275 164.226 72.1562 165.375 72.1782C165.99 72.1908 165.448 72.8022 168.395 72.6848C168.494 72.5181 168.593 72.3513 168.692 72.1846C169.366 72.1479 170.041 72.1108 170.715 72.0735C171.98 72.0626 173.831 72.3084 173.894 72.5023C174.287 72.3766 174.68 72.2507 175.073 72.1248C176.142 72.4845 181.81 72.2153 184.079 71.9133C184.746 72.0113 185.419 72.1088 186.089 72.2063C186.981 72.0426 187.872 71.8785 188.761 71.714C190.837 71.6144 188.648 71.9078 189.092 71.9149C190.035 71.9302 194.781 71.3997 194.486 71.8975C195.136 71.8796 195.786 71.8614 196.434 71.8431C196.764 71.6931 197.091 71.5431 197.422 71.393C198.561 71.8408 200.474 71.6129 204.445 71.6594C204.773 71.5376 205.1 71.4157 205.426 71.2937C206.662 71.4109 207.893 71.5275 209.116 71.6437C209.359 71.4513 209.604 71.2589 209.851 71.0664C210.386 71.0216 210.918 70.9767 211.45 70.9317C212.542 71.306 214.47 70.7922 215.467 70.9262C216.914 71.122 215.819 71.4582 213.132 71.6104C213.355 71.9048 221.306 71.4777 223.16 71.3827C223.036 71.3288 222.912 71.2749 222.788 71.221C220.889 71.3395 219.04 71.4547 217.144 71.5703C215.544 70.8737 220.649 70.8901 223.002 70.7022C223.221 70.6845 224.402 70.354 226.782 70.2878C227.686 70.2636 231.291 70.5386 231.956 70.5346C237.48 70.5007 233.392 70.0712 238.799 70.3705C237.662 70.0167 240.768 70.221 243.986 70.0045C244.53 69.9685 249.152 69.4411 249.471 69.418C251.433 69.2787 249.326 69.7273 252.131 69.5098C252.473 69.4012 252.812 69.2927 253.149 69.1843C253.814 69.1544 254.45 69.1257 255.116 69.0955C259.142 69.7439 260.038 69.0894 261.479 68.9443C262.047 68.8862 261.335 69.1362 262.792 69.0226C262.797 69.0223 262.802 69.0218 262.807 69.0214C263.376 68.9747 264.016 68.7685 265.483 68.6777C270.236 68.3686 271.899 69.0279 276.201 67.8312C276.869 67.8848 277.562 67.9326 278.245 67.9774C278.682 67.7909 279.101 67.6046 279.553 67.4128C283.06 67.4029 281.749 67.1336 283.005 66.9735C286.293 66.6195 293.041 65.1951 293.741 65.2287C296.355 63.7247 299.994 62.8565 301.048 62.0204C301.615 61.5226 302.149 60.9903 302.635 60.4554C302.779 60.3578 302.92 60.2611 303.057 60.1658C303.698 59.7029 304.294 59.1463 304.81 58.5262C304.361 58.5044 305.047 57.5806 305.591 56.4837C306.157 55.3943 306.596 54.1733 306.644 53.9587C306.917 53.4471 307.041 48.076 306.905 45.4459C306.899 45.0503 306.879 44.711 306.856 44.4084C306.89 41.5716 304.501 37.3065 304.207 37.097C303.978 36.6363 300.937 33.571 298.503 31.6324C297.438 30.6969 293.677 27.6691 290.503 24.959C286.598 21.845 282.853 21.3218 283.338 21.516C284.338 21.9367 285.788 22.5365 287.039 23.1906C287.665 23.5248 288.868 24.126 290.222 25.2919C294.185 29.448 306.629 35.853 306.324 45.4483C306.321 47.3502 306.308 48.9638 306.249 50.0458C306.085 53.1782 305.592 57.0992 302.622 59.6706C294.905 66.0498 285.02 66.1816 276.282 67.2606C275.578 67.3231 275.44 67.1393 274.829 67.1894C273.928 67.2666 271.6 67.6466 270.671 67.7053C268.004 67.8832 264.897 68.0301 262.765 68.1163C262.21 68.139 261.719 68.1595 261.329 68.1765C257.267 68.3546 254.492 68.3628 251.408 68.4815C250.459 68.5186 245.606 68.9756 242.262 69.0155C241.664 68.9861 241.061 68.9568 240.453 68.9275C242.143 68.7924 246.675 68.4308 248.735 68.3203C251.861 68.1548 253.491 68.2394 254.619 68.1857C255.604 68.1395 260.488 67.7355 262.712 67.6272C262.722 67.6267 262.732 67.6263 262.742 67.6259C263.426 67.5984 263.583 67.7895 264.17 67.7596C267.399 67.5973 271.648 67.3103 274.425 66.8621C273.26 67.0502 280.451 66.4763 280.792 66.3948C281.463 66.3112 282.082 66.0428 283.416 65.8527C285.92 65.4722 285.665 65.9447 288.716 64.9448C289.513 64.9013 290.314 64.8435 291.101 64.7718C290.975 64.4228 300.067 62.4168 302.178 59.1648C302.326 58.9963 302.444 58.838 302.54 58.6881C302.539 58.6739 302.387 58.8219 302.091 59.0658C300.472 61.3293 290.776 64.3568 289.867 64.2916C283.659 65.6575 274.311 66.6223 268.156 66.8977C267.091 66.9492 264.67 66.9689 262.711 66.9643C261.379 66.9594 260.216 66.9583 260.045 66.9687C259.353 67.0098 259.988 67.1663 259.688 67.1868C253.455 67.6108 256.55 67.095 255.715 67.0253ZM102.016 6.27607C103.933 6.26994 105.85 6.27994 107.762 6.3047C107.622 6.42168 107.485 6.53874 107.346 6.65588C106.466 6.61002 105.595 6.56727 104.715 6.52778C104.043 6.60243 103.369 6.67899 102.696 6.75752C102.471 6.5968 102.244 6.43632 102.016 6.27607ZM97.3071 6.87011C95.6489 6.97969 95.5586 6.73936 95.1748 6.74056C94.0283 6.74648 93.0422 6.88891 91.9305 6.94032C93.1827 6.28691 95.9293 6.44886 97.3071 6.87011ZM131.52 7.89483C131.148 7.8431 128.724 7.04573 125.864 7.44533C123.763 7.11991 121.647 6.80463 119.514 6.53076C123.148 6.95855 128.116 7.02906 129.866 7.15123C130.523 7.19946 130.651 7.40233 131.172 7.44002C134.246 7.65983 137.219 7.40211 137.509 8.06353C134.627 7.70003 131.984 7.96004 131.52 7.89483ZM112.909 6.75633C112.421 6.61436 111.925 6.47332 111.431 6.33335C112.663 6.34756 113.897 6.36806 115.124 6.39562C115.691 6.40837 116.24 6.42217 116.804 6.43823C116.311 6.56013 115.826 6.68369 115.34 6.80836C115.266 6.80648 115.191 6.80462 115.115 6.80277C114.384 6.78487 113.647 6.76942 112.909 6.75633ZM249.314 15.9979C248.221 15.908 247.125 15.8205 246.032 15.735C246.085 15.837 247.336 15.9333 247.792 16.0358C247.79 16.0356 247.788 16.0354 247.786 16.0353C248.293 16.1502 248.065 16.2583 248.994 16.3884C249.101 16.2582 249.207 16.128 249.314 15.9979ZM56.2592 12.2907C56.7535 12.2578 58.379 12.145 60.4817 12.013C65.9804 11.6605 74.6632 11.173 73.5882 10.9658C72.853 10.8207 67.0598 11.2689 65.3497 11.3629C64.2794 11.4193 62.2677 11.4437 60.4535 11.5423C58.3871 11.6538 56.5291 11.8682 56.2592 12.2907ZM86.284 10.8047C86.5642 10.4323 75.9686 10.8512 74.9368 10.9691C75.1634 11.0091 75.5007 11.106 75.795 11.1176C77.2338 11.1694 83.9952 10.804 86.284 10.8047ZM304.359 39.9157C304.096 39.0212 303.734 38.1472 303.313 37.3071C303.278 37.644 303.232 37.9755 303.176 38.3007C303.602 38.8082 303.999 39.3424 304.359 39.9157ZM239.767 69.0652C225.541 69.6535 211.333 70.1729 197.094 70.5945C198.346 70.4592 199.597 70.3231 200.84 70.1865C213.104 69.8345 226.161 69.4417 238.002 68.796C238.591 68.8858 239.164 68.9762 239.767 69.0652ZM135.445 9.20354C136.129 9.24723 136.787 9.28248 137.456 9.31582C140.254 9.45423 142.884 9.53744 146.071 9.94517C142.531 9.98716 140.677 9.53453 137.437 9.61317C137.212 9.61806 136.983 9.62555 136.75 9.63596C136.748 9.63584 136.746 9.63571 136.744 9.63559C136.322 9.49249 135.869 9.34721 135.445 9.20354ZM216.615 14.8635C215.5 14.9703 214.386 15.0763 213.272 15.1801C214.603 15.2519 215.934 15.3203 217.265 15.3879C217.049 15.2131 216.83 15.0382 216.615 14.8635ZM115.645 70.7234C111.826 71.0536 102.083 70.2742 98.9796 70.6416C98.7788 70.6661 100.625 70.881 97.6279 71.1774C99.8975 71.1477 101.463 71.0993 101.643 70.8264C102.31 70.9309 102.987 71.0352 103.645 71.1389C104.748 71.085 105.867 71.0303 106.977 70.9744C106.855 71.2474 106.937 71.2346 108.642 71.0682C109.415 71.1475 110.206 71.2266 110.973 71.3049C111.301 71.1922 111.631 71.0795 111.96 70.9667C112.63 71.1367 113.302 71.3064 113.977 71.4757C116.594 71.3238 115.004 70.9934 115.645 70.7234ZM128.994 70.862C128.388 70.8194 110.684 70.8947 118.725 71.5002C120.809 71.4978 122.902 71.492 124.992 71.4828C123.266 70.5694 128.95 71.4006 129.424 71.4182C131.656 71.5108 134.517 71.2934 136.133 71.3011C137.529 71.3082 138.365 71.4683 139.342 71.4606C140.241 71.4535 141.283 71.4458 142.343 71.4303C145.197 71.3887 148.168 71.2851 148.694 71.0057C146.611 71.0186 144.485 71.0304 142.341 71.0453C141.812 71.0489 141.282 71.0528 140.75 71.057C137.898 71.0782 135.377 70.7344 130.013 71.2152C128.679 71.161 129.155 70.8778 128.994 70.862ZM209.946 14.9537C210.007 14.8017 208.908 14.6614 207.594 14.5464C205.707 14.3849 203.365 14.2491 203.334 14.3334C203.311 14.4215 205.497 14.6015 205.805 14.655C205.807 14.6552 205.809 14.6553 205.811 14.6555C205.94 14.6796 205.268 14.7741 206.293 14.8912C206.719 14.9017 207.137 14.9105 207.568 14.919C208.357 14.9336 209.15 14.9447 209.946 14.9537ZM30.119 16.5515C30.9989 16.0779 51.6884 13.4072 52.3194 13.4716C52.4815 13.43 52.2446 13.3563 52.3051 13.2976C47.485 13.9804 40.5558 14.3795 35.9731 15.1522C34.7106 15.3621 35.1023 15.4496 35.0344 15.4635C35.0313 15.464 35.0282 15.4646 35.0251 15.4651C34.3116 15.5774 30.9656 15.8766 30.119 16.5515ZM92.3062 70.6822C93.1827 70.7602 94.0657 70.8376 94.9549 70.9145C95.1832 70.8023 95.4118 70.69 95.6408 70.5777C95.6388 70.5777 95.6367 70.5776 95.6347 70.5776C94.5156 70.6133 93.406 70.6482 92.3062 70.6822ZM61.6342 69.3429C61.8441 69.434 62.0548 69.525 62.2664 69.616C64.5171 69.7205 66.7216 69.8171 68.9558 69.9095C68.7277 69.9477 68.5003 69.9858 68.2736 70.0239C71.6446 70.2709 73.0474 70.0267 74.8432 70.1268C74.8411 70.1268 74.8391 70.1267 74.837 70.1266C75.0292 70.1376 75.2681 70.3168 75.9819 70.3451C77.6129 70.4119 82.3635 70.6117 82.9251 70.4529C84.1591 70.1233 74.6293 70.0228 72.8637 69.9384C72.0634 69.9039 71.0937 69.7204 70.6116 69.6999C70.0839 69.678 69.3468 69.8547 68.0425 69.8004C67.6726 69.7859 63.4558 69.3862 61.6342 69.3429ZM22.3432 66.5604C22.9966 66.8756 24.4516 66.9266 24.9698 67.0293C25.0933 67.0545 24.1061 67.0678 25.2717 67.2835C25.6307 67.2275 25.9697 67.1667 26.3179 67.1056C24.9922 66.9559 23.6662 66.7828 22.3432 66.5604ZM198.654 14.2023C198.843 14.2643 202.445 14.602 202.62 14.5871C204.808 14.4567 197.35 13.7771 198.654 14.2023ZM107.394 9.08258C109.06 9.46597 89.2993 9.3837 87.3916 9.74611C87.4635 9.41927 92.1827 9.44887 89.6961 9.1713C92.0581 9.23912 98.5511 8.89021 100.083 8.94355C101.013 8.96558 101.252 9.22944 101.392 9.23534C101.941 9.24729 106.806 8.90043 107.394 9.08258ZM71.1243 11.256C72.994 11.0686 74.8643 10.8949 76.7373 10.7378C74.5395 11.0266 72.3449 11.3387 70.1548 11.6682C70.4751 11.5308 70.7982 11.3933 71.1243 11.256ZM68.7992 11.7108C68.8947 11.9913 62.5637 12.6672 60.9075 12.9845C62.7041 12.2076 65.892 12.2219 68.7992 11.7108ZM174.649 13.0171C177.565 13.4037 178.887 12.5771 175.294 12.7406C175.186 12.7467 174.528 12.9988 174.649 13.0171ZM114.753 69.4311C114.251 69.4234 108.023 69.0571 107.665 69.1964C106.515 69.6492 110.621 69.5148 111.974 69.7046C114.178 70.013 110.937 70.2188 116.324 70.0958C116.103 70.1875 115.881 70.2792 115.66 70.3708C118.819 70.4286 117.798 69.7709 118.361 69.6921C118.532 69.6683 120.5 69.7363 120.86 69.6969C125.322 69.2024 115.206 69.4461 114.753 69.4311ZM247.172 18.2168C252.975 18.9619 250.504 18.337 256.474 18.9131C256.697 18.7069 247.944 18.0797 247.172 18.2168ZM171.682 69.4604C165.637 69.6662 160.661 69.4813 155.026 69.9156C155.398 70.4869 173.257 69.586 171.682 69.4604ZM99.7211 12.7813C87.3785 12.7591 74.0581 13.1458 60.5951 13.9052C48.4019 14.7424 35.8553 15.4684 24.686 19.3375C24.6447 19.3524 24.6045 19.3668 24.5653 19.3809C22.5608 20.3906 22.3081 20.8023 21.6741 21.4429C21.2781 21.9287 21.4785 21.9583 20.9633 22.6195C16.7075 28.4688 13.832 35.2713 11.2103 41.9435C9.69407 46.2988 10.3335 51.2376 10.5001 55.9971C10.5249 58.3593 12.3277 60.1313 14.1782 61.8685C21.1784 67.3332 31.6694 66.2464 40.6297 67.2937C46.8296 67.7085 53.069 68.034 59.2952 68.3311C61.1632 68.4293 70.2892 69.1636 72.2433 68.646C73.7295 68.2616 67.1641 68.3728 66.0773 68.3228C65.2523 68.2882 65.2271 68.0817 64.6832 68.0596C64.1084 68.0361 64.5766 68.195 63.912 68.1706C61.0468 68.0659 57.9346 67.8747 55.3622 67.764C50.4255 67.5509 45.5236 67.3026 40.6505 66.9862C31.6408 65.9815 21.0515 66.9257 14.4117 61.6248C12.5465 59.8646 10.8751 58.1797 10.8653 55.9823C10.709 51.2059 10.1248 46.2607 11.6056 42.096C12.8416 38.9061 14.1959 35.7419 15.6864 32.6463C17.0144 29.9339 16.9056 30.5796 16.9694 30.4404C16.97 30.4384 16.9706 30.4364 16.9711 30.4344C19.0329 26.6223 21.4246 21.7634 24.7645 19.9333C35.8385 15.9651 48.6666 15.1534 60.6237 14.3835C61.1087 14.3576 61.6008 14.3322 62.0995 14.3073C74.2771 13.7246 86.4734 13.3246 98.666 12.9455C99.0162 12.8908 99.3689 12.836 99.7211 12.7813ZM127.659 70.0876C126.145 69.4623 125.794 70.0922 120.337 69.8071C119.892 69.9101 119.448 70.0129 119.004 70.1155C121.891 70.1128 124.787 70.1036 127.668 70.0877C127.665 70.0877 127.662 70.0877 127.659 70.0876ZM91.6026 69.424C90.7083 68.5753 78.4739 68.8625 72.9967 68.5053C71.9645 68.895 79.9662 68.9615 81.8516 69.0522C82.7757 69.1009 87.8289 69.6681 91.6532 69.5106C91.6363 69.4817 91.6195 69.4528 91.6026 69.424ZM127.97 11.0381C128.858 11.0733 129.745 11.1084 130.638 11.1431C128.428 10.9042 126.212 10.6565 124.004 10.4256C127.53 10.7086 131.07 11.02 134.607 11.302C133.947 11.4342 133.272 11.5649 132.593 11.6949C131.058 11.4786 129.51 11.2582 127.97 11.0381ZM139.472 11.685C138.413 11.6326 137.714 11.5855 137.319 11.5475C136.587 11.478 136.754 11.4341 137.327 11.4187C138.3 11.3904 140.492 11.444 141.304 11.6011C142.222 11.7797 140.103 11.7161 139.472 11.685ZM155.592 12.9254C152.68 13.0618 146.831 12.7446 148.946 12.2567C152.058 12.7229 154.087 12.6018 158.61 13.0302C157.94 13.1081 157.274 13.1862 156.603 13.2642C156.6 13.264 156.597 13.2638 156.594 13.2636C156.26 13.1508 155.926 13.0381 155.592 12.9254ZM136.611 11.8801C135.011 11.6415 135.887 11.6317 137.309 11.7056C139.452 11.8168 142.862 12.1165 140.618 12.1229C140.486 12.123 138.4 12.0019 137.295 11.9295C136.912 11.9045 136.651 11.886 136.611 11.8801ZM73.7621 14.5406C74.2423 14.3175 71.1232 14.474 70.0784 14.5147C67.2419 14.6218 63.895 14.8211 60.6624 15.0283C58.7251 15.1523 56.8879 15.2811 55.1425 15.4006C55.4977 15.4399 55.8611 15.4791 56.22 15.5192C57.684 15.4159 59.1657 15.3202 60.6745 15.2308C65.0152 14.9743 69.4019 14.7499 73.7621 14.5406ZM40.6467 16.8659C37.474 17.3002 34.3496 17.8114 31.2693 18.5167C30.979 18.5802 29.7009 19.0697 30.6893 18.8713C33.9258 18.024 37.2792 17.3984 40.6467 16.8659ZM148.004 68.8342C145.533 68.7456 152.642 68.1074 152.327 68.72C150.889 68.7598 149.443 68.798 148.004 68.8342ZM170.989 68.2464C169.442 68.3364 167.893 68.4247 166.345 68.5114C166.341 68.4411 166.338 68.3708 166.335 68.3004C167.886 68.2841 169.438 68.266 170.989 68.2464ZM86.4266 14.1023C84.7787 13.9319 80.8645 14.1422 78.4239 14.251C80.1191 14.379 84.1162 14.0979 86.4266 14.1023ZM110.992 68.5316C111.188 68.7037 101.362 68.5252 104.767 68.2844C106.852 68.3704 108.91 68.4525 110.992 68.5316ZM91.0384 67.9536C93.1615 67.9652 94.7708 68.0534 94.3376 68.3026C93.2183 68.2687 92.1141 68.2341 90.9869 68.1979C91.0041 68.1165 91.0213 68.0351 91.0384 67.9536ZM166.571 14.0646C170.118 14.2554 173.669 14.452 177.212 14.6628C177.075 14.7243 176.938 14.7858 176.801 14.8473C173.39 14.6459 169.966 14.457 166.546 14.2734C166.554 14.2038 166.563 14.1342 166.571 14.0646ZM88.4611 14.6478C90.8978 14.4979 93.3329 14.3508 95.7705 14.2057C93.3271 14.2578 90.8859 14.3119 88.4431 14.3688C88.447 14.4623 88.451 14.5558 88.455 14.6493C88.457 14.6488 88.4591 14.6483 88.4611 14.6478ZM117.977 12.0941C126.445 12.7508 119.599 12.6326 114.989 12.403C113.801 12.3397 112.752 12.2595 112.173 12.1524C112.17 12.1527 112.167 12.1531 112.163 12.1535C111.913 12.1074 112.447 11.9085 112.03 11.8196C113.018 11.9171 114.01 12.0188 114.996 12.1252C115.103 12.1366 115.209 12.148 115.314 12.1594C116.315 12.0669 117.309 11.9793 118.31 11.8995C118.636 11.9569 118.962 12.0151 119.285 12.074C118.851 12.0793 118.412 12.0859 117.977 12.0941ZM74.697 14.0284C64.9981 15.2544 74.8467 13.3905 79.7019 13.3059C79.6711 13.3977 75.5842 13.9152 74.697 14.0284ZM100.114 12.0697C101.651 11.991 103.19 11.9234 104.728 11.8658C104.923 11.9234 105.123 11.9812 105.32 12.0392C104.139 12.104 102.958 12.1748 101.779 12.2518C101.225 12.1897 100.671 12.129 100.114 12.0697ZM150.801 15.037C153.287 15.2458 156.51 14.7752 148.491 14.4838C148.491 14.5543 148.491 14.6248 148.491 14.6953C148.812 14.7027 149.752 14.691 149.802 14.6992C149.948 14.7252 149.76 14.9498 150.801 15.037ZM56.9338 18.378C56.6514 18.44 56.6191 19.2122 53.5335 18.824C52.6419 18.9796 51.7237 19.1303 50.8109 19.2673C50.5531 19.1284 50.2979 18.9883 50.0456 18.8469C53.6222 18.6248 53.9186 18.2082 54.1735 18.179C55.3185 18.0016 54.4913 18.2794 55.2342 18.185C57.1509 17.9441 61.4105 17.204 59.5372 17.9673C58.8638 18.2412 57.2196 18.3124 56.9338 18.378ZM63.6386 17.8381C63.2221 17.8362 64.5003 17.4303 64.1846 17.4143C63.9144 17.3992 59.8069 17.7759 60.8567 17.2516C61.5235 17.17 62.2048 17.0858 62.8672 17.0046C63.1077 17.071 63.3498 17.1372 63.5927 17.2033C64.2149 17.0187 64.8595 16.8313 65.4823 16.6477C66.6077 16.7354 68.9488 16.7284 66.2466 17.3172C67.2435 17.1528 68.2464 16.9898 69.2504 16.83C69.7469 16.6415 70.262 16.4514 70.76 16.2647C70.5162 16.4801 70.2631 16.6971 70.0151 16.9136C67.8945 17.2087 65.7719 17.5204 63.6386 17.8381ZM31.732 20.1531C31.8402 20.0496 31.9513 19.9461 32.0607 19.843C28.4981 20.2358 23.4958 21.4237 26.2706 20.2514C30.7796 19.3594 35.7022 19.0883 40.635 19.0168C40.9748 19.0861 41.2867 19.1566 41.6174 19.228C37.9406 18.9701 39.0779 20.1078 35.918 19.8779C35.3895 19.8508 36.9017 19.3527 33.5922 19.7981C33.7154 19.8843 33.839 19.9707 33.9631 20.0573C33.2164 20.0795 32.4726 20.1108 31.732 20.1531ZM12.3416 33.0769C12.421 32.6917 12.4908 32.5286 12.5752 32.3296C12.659 32.1385 12.7536 31.9548 12.8199 31.8425L12.6835 32.1518C12.8565 31.8718 12.8683 31.9315 12.7765 32.1965L12.9157 31.8811C12.761 32.4673 12.6792 32.8323 12.5388 33.752C12.495 34.0191 12.4519 34.2487 12.4019 34.3824C12.4019 34.3809 12.402 34.3793 12.4021 34.3777C11.9536 35.7159 11.8582 34.8116 11.9608 33.695C12.0136 33.1599 12.1122 32.7395 12.2119 32.4738C12.3082 32.2062 12.4584 31.8888 12.4874 31.8115C12.4976 31.7847 12.5065 31.7547 12.5155 31.7198L12.3876 32.0096C12.6258 31.3895 12.8683 29.7228 14.641 27.6917C14.0249 28.9622 13.3814 30.4977 12.5977 32.1106L12.7317 31.807C12.4812 32.4271 12.4301 32.5975 12.3416 33.0769ZM21.9253 22.0253C21.5072 22.1918 21.6946 21.9762 21.5139 22.0434C21.5123 22.044 21.5107 22.0446 21.5092 22.0452C20.4254 22.4471 18.875 23.162 17.3154 24.1174C16.7169 24.4766 16.2329 24.9665 15.738 25.6091C15.2549 26.2352 14.8361 26.8955 14.6156 27.0274C15.0426 26.118 15.9796 24.3984 17.1167 23.7893C19.7745 22.1149 22.7752 21.3007 23.1616 21.3743C22.7371 21.5829 22.3211 21.8011 21.9253 22.0253ZM44.1391 19.4764C45.1132 19.6024 44.7986 19.682 43.9831 19.7128C42.9448 19.7519 41.0582 19.7237 40.3293 19.6492C40.1053 19.622 41.9063 19.1509 43.9874 19.4563C44.0378 19.4628 44.0883 19.4695 44.1391 19.4764ZM205.501 20.8887C206.404 20.9229 206.91 20.9231 207.16 20.906C207.438 20.8855 207.376 20.841 207.169 20.7849C206.588 20.6314 204.927 20.3777 206.217 20.3076C205.309 20.2656 204.4 20.2178 203.492 20.1644C204.157 20.4086 204.832 20.6505 205.501 20.8887ZM214.823 62.6642C213.738 62.6703 214.257 62.8212 214.163 62.8271C213.448 62.8479 212.772 62.7337 212.503 62.7578C207.471 63.2121 210.829 63.2374 210.883 63.2688C210.995 63.4326 209.675 63.6748 211.52 63.8023C212.629 63.7042 213.743 63.6053 214.86 63.5057C215.417 63.579 215.973 63.6521 216.526 63.7252C218.73 63.4448 215.836 63.4956 215.499 63.2421C215.369 63.1425 217.444 62.9427 214.823 62.6642ZM213.923 21.9674C214.695 21.7134 216.568 21.4377 214.763 21.0482C214.761 21.0481 214.759 21.048 214.757 21.0479C214.421 20.9764 213.056 20.8744 212.632 20.7749C209.594 20.9977 210.728 21.4723 213.923 21.9674ZM234.799 61.3663C236.61 61.3607 238.376 61.3558 240.206 61.3472C240.183 61.5249 240.16 61.7026 240.137 61.8804C239.161 61.874 238.206 61.8664 237.244 61.8589C236.91 61.9534 236.575 62.048 236.239 62.1425C237.458 62.2936 238.619 62.4466 239.85 62.5962C241.292 62.4648 242.718 62.3335 244.162 62.2006C243.499 62.136 242.825 62.0717 242.153 62.0072C245.693 61.7522 244.922 62.2151 247.847 62.2514C248.808 62.0454 249.846 61.8357 250.818 61.6287C252.256 61.7291 253.716 61.8279 255.17 61.9265C257.602 61.739 257.779 61.6053 256.163 61.4915C257.328 61.2241 258.714 61.4977 260.134 61.3448C260.256 61.3321 260.016 61.1413 260.124 61.1338C261.017 61.0767 261.777 61.0346 262.434 61.0044C267.498 60.7588 267.297 61.159 268.368 61.1173C269.205 61.085 272.469 60.4842 272.513 60.3534C272.553 60.1717 265.73 60.1191 276.347 59.1767C270.848 59.2833 264.507 60.0564 268.669 60.4691C267.648 60.5011 264.89 60.701 262.427 60.8473C260.485 60.9653 258.753 61.0726 258.536 61.0738C257.794 61.0781 258.037 60.8174 257.106 60.8534C256.578 60.8738 255.147 61.5111 250.799 61.2067C250.256 61.3246 249.706 61.4427 249.151 61.5609C248.616 61.5076 248.11 61.453 247.591 61.3988C248.62 61.0791 249.714 60.7562 250.752 60.4353C246.547 60.9211 242.999 60.5135 240.465 61.0931C238.214 61.1335 237.166 61.1224 238.099 60.8421C237.436 60.8699 236.769 60.8977 236.096 60.9255C235.659 61.0727 235.225 61.2197 234.799 61.3663ZM227.591 22.2501C229.774 22.6439 230.596 22.1019 230.257 22.0484C228.339 21.754 226.456 22.0461 227.591 22.2501ZM218.847 62.8315C221.278 62.8938 223.724 62.9532 226.18 63.0099C226.172 62.8232 226.165 62.6366 226.158 62.45C223.71 62.5799 221.271 62.7072 218.847 62.8315ZM204.772 21.2537C204.55 21.0958 204.335 20.9382 204.115 20.7797C201.325 21.0655 198.713 20.0556 197.388 20.0748C197.099 20.0788 197.648 20.383 198.192 20.4912C198.506 20.5665 204.272 21.2804 204.772 21.2537ZM94.2965 15.3421C95.2651 15.2078 96.2382 15.0789 97.2117 14.955C97.1624 15.1141 97.1132 15.2731 97.064 15.4322C96.5845 15.4765 96.1026 15.5221 95.6238 15.5689C95.1814 15.4922 94.739 15.4166 94.2965 15.3421ZM105.419 14.8438C107.166 14.8475 108.918 14.8642 110.67 14.8936C103.991 15.005 109.471 15.0924 105.421 15.3015C105.421 15.1489 105.42 14.9963 105.419 14.8438ZM123.016 15.5713C122.796 15.6523 122.577 15.7335 122.36 15.8152C120.63 15.7149 118.925 15.6384 117.199 15.5847C118.278 15.945 119.349 16.3136 120.413 16.6919C121.039 16.723 121.666 16.7574 122.298 16.7946C122.535 16.3864 122.775 15.9787 123.016 15.5713ZM166.887 63.3041C165.816 63.3195 162.093 63.6686 162.254 63.7703C163.806 63.8737 165.356 63.9753 166.908 64.0753C166.912 63.888 166.915 63.7008 166.919 63.5135C167.139 63.6026 167.36 63.6916 167.581 63.7806C168.461 63.6938 169.34 63.6066 170.22 63.5188C170.667 63.6734 171.114 63.8278 171.562 63.9821C172.004 63.7861 172.447 63.59 172.889 63.3937C168.628 63.1521 168.782 63.4771 167.896 63.4913C167.447 63.4983 167.161 63.3878 167.001 63.3325C166.963 63.323 166.925 63.3136 166.887 63.3041ZM220.482 61.5785C215.388 61.722 212.526 62.3157 208.821 62.0305C211.205 62.8354 226.422 61.3691 231.798 61.8757C232.352 61.7125 232.912 61.5489 233.463 61.3855C230.537 61.6302 228.488 61.4208 227.079 61.4343C225.948 61.4454 226.069 61.5882 225.983 61.5895C225.979 61.5896 225.975 61.5898 225.971 61.59C223.302 61.6328 222.499 61.521 220.482 61.5785ZM200.839 21.6019C202.21 21.9597 204.681 22.1403 204.734 21.8164C203.369 21.615 202.011 21.4002 200.666 21.177C200.936 21.2864 200.605 21.5414 200.839 21.6019ZM124.988 16.6042C126.032 16.7778 128.558 16.8556 127.49 16.5026C127.296 16.4394 124.794 16.4704 126.285 16.0623C123.857 15.9094 124.4 16.5057 124.988 16.6042ZM297.946 52.8977C298.053 52.5276 298.151 52.0125 298.216 51.3971C298.103 51.2379 297.988 51.0779 297.872 50.9157C297.939 51.7226 297.955 52.4041 297.946 52.8977ZM189.374 20.7151C188.257 19.9734 186.209 20.4273 184.033 19.7343C183.627 19.7015 183.226 19.6696 182.808 19.6368C182.409 19.6054 181.996 19.5735 181.582 19.5418C181.58 19.5417 181.578 19.5416 181.576 19.5414C181.541 19.7144 181.507 19.8873 181.473 20.0603C181.907 20.093 182.348 20.1266 182.77 20.1594C184.99 20.3315 187.176 20.5139 189.374 20.7151ZM251.421 60.6511C251.978 60.7077 252.548 60.7635 253.102 60.8201C254.071 60.6816 255.059 60.5419 256.04 60.4023C255.507 60.3586 254.965 60.3152 254.42 60.2718C253.442 60.3975 252.432 60.5244 251.421 60.6511ZM175.002 19.7099C177.879 19.9779 178.996 19.4939 175.315 19.2507C173.767 19.1505 171.989 19.4327 175.002 19.7099ZM111.728 63.7276C112.712 63.7861 113.712 63.8439 114.698 63.9007C115.034 63.7867 115.371 63.6726 115.708 63.5584C114.392 63.6163 113.05 63.6726 111.728 63.7276ZM111.633 16.0285C111.748 15.9128 111.861 15.7971 111.978 15.6814C112.847 15.7167 113.717 15.7552 114.583 15.7974C114.363 15.909 114.139 16.0209 113.922 16.1331C113.157 16.0956 112.398 16.0608 111.633 16.0285ZM118.389 63.8611C119.175 63.8893 119.965 63.9171 120.757 63.9444C121.289 63.8907 121.828 63.8368 122.356 63.7827C121.618 63.7222 120.871 63.6612 120.132 63.5998C119.55 63.6872 118.968 63.7742 118.389 63.8611ZM147.631 18.0214C148.737 18.2267 153.208 18.0457 149.209 17.702C146.658 17.483 147.466 17.9903 147.631 18.0214ZM141.613 17.8104C145.846 18.3271 142.746 16.7854 137.612 17.3593C142.736 17.5469 141.362 17.7785 141.613 17.8104ZM104.796 16.9227C104.693 16.9229 104.605 16.7267 103.77 16.7274C100.765 16.7266 96.8087 16.755 94.6772 16.8341C92.6408 16.9042 88.9378 17.1282 85.1889 17.4904C79.3611 18.0382 73.245 18.8306 72.0793 18.6418C71.6778 18.5746 72.5187 18.1051 72.3585 18.1077C71.89 18.1151 69.2757 18.6446 69.7285 18.3192C72.32 17.9651 74.9078 17.635 77.487 17.3395C76.8801 17.5955 76.2596 17.855 75.6529 18.1148C82.0648 17.2662 79.9339 17.5439 81.7497 16.9432C82.8471 16.9891 83.9495 17.0407 85.0568 17.0985C85.0888 17.0935 85.1208 17.0885 85.1528 17.0836C87.4225 16.7271 89.7314 16.4193 92.0561 16.1458C91.5254 16.2898 90.9975 16.4356 90.4702 16.5833C94.0335 16.6056 93.0394 16.5231 94.9814 16.1562C94.99 16.2728 94.9985 16.3893 95.007 16.5058C98.4472 16.0939 99.1391 16.4442 99.8936 16.4283C101.438 16.4091 103.423 14.9578 109.366 16.3568C111.881 15.7144 111.806 17.0633 113.284 16.4022C117.496 17.2298 109.467 16.7862 105.65 16.8043C105.648 16.8043 105.647 16.8043 105.645 16.8043C105.358 16.8037 105.815 16.9261 104.796 16.9227ZM126.467 16.8671C123.808 17.298 134.141 18.0445 130.776 16.9423C130.267 16.8802 129.755 16.8176 129.252 16.7554C128.321 16.7927 127.387 16.8291 126.46 16.8667C126.463 16.8668 126.465 16.867 126.467 16.8671ZM223.524 23.7925C233.05 24.0508 227.663 23.4104 224.421 23.5811C223.777 23.6153 223.415 23.6895 223.524 23.7925ZM213.204 61.3772C213.065 61.455 212.93 61.5326 212.794 61.6103C216.01 61.4301 222.194 61.4797 222.105 60.9908C219.134 61.1234 216.183 61.2516 213.204 61.3772ZM238.542 60.0722C237.87 60.071 235.036 60.1185 235.382 60.2879C236.625 60.367 237.838 60.4468 239.057 60.5258C239.629 60.4203 240.196 60.3149 240.758 60.2095C239.971 60.2153 238.717 60.0726 238.542 60.0722Z" fill="#74A5B6"/>
</svg>
