<svg width="1318" height="16" viewBox="0 0 1318 16" fill="none" xmlns="http://www.w3.org/2000/svg">
<path d="M29.5338 0.350604C57.1196 -0.581338 75.8827 0.607828 101.477 0.888423C138.017 1.28833 181.983 1.40274 224.479 1.50469C247.115 1.55851 269.331 1.60873 289.68 1.69817C333.123 1.88935 377.465 2.13724 420.858 2.36638C423.1 2.37807 424.485 2.49844 425.454 2.50367C434.706 2.55326 450.94 2.51233 460.198 2.56358C479.884 2.67195 514.67 2.78939 532.53 2.96663C540.205 3.04212 548.281 3.09255 551.194 3.37758C553.978 3.40235 555.505 3.16098 556.235 3.15036C556.243 3.15064 556.251 3.15092 556.26 3.15119C558.606 3.11857 564.566 3.31513 565.888 3.30947C566.086 3.30855 564.87 3.1247 568.073 3.19126C568.359 3.19702 568.093 3.31778 570.796 3.33002C571.484 3.33312 580.595 3.18177 583.156 3.18031C591.552 3.17578 612.24 3.40278 622.38 3.43966C623.936 3.4457 624.834 3.37795 626.481 3.38308C627.332 3.38565 628.609 3.46794 628.871 3.46854C630.018 3.47024 635.052 3.13861 633.243 3.82463C638.503 3.80111 636.957 3.56599 637.075 3.41764C642.796 3.41838 645.571 3.75555 647.073 3.41546C675.016 3.56574 703.157 3.71675 731.218 3.86741C731.227 3.81105 731.235 3.75468 731.244 3.69832C739.483 3.95555 742.331 3.58559 747.062 3.9311C749.982 3.87041 752.908 3.80974 755.839 3.7491C830.557 4.26096 905.288 4.28699 979.253 4.57456C982.382 4.58669 983.162 4.70972 988.332 4.7306C994.025 4.75351 1001.97 4.64485 1009.47 4.67558C1016.03 4.70228 1025.78 4.8536 1033.1 4.89973C1034.75 4.90992 1035.94 4.83854 1036.13 4.83969C1037.22 4.84689 1037.27 4.96743 1038.33 4.97494C1039.6 4.98366 1041.13 4.90047 1042.6 4.91164C1048.07 4.95272 1054.05 4.94518 1054.75 4.94996C1058.1 4.97433 1058.84 5.09487 1059.11 5.09724C1062.84 5.12605 1061.45 5.01442 1062.37 5.02419C1067.19 5.07541 1070.62 5.35381 1077.17 5.12475C1076.99 5.22244 1076.81 5.32013 1076.63 5.41782C1081.66 5.49267 1078.34 5.21837 1079.37 5.17501C1079.79 5.15909 1090.62 5.233 1091.46 5.24091C1094.37 5.26911 1094.45 5.40015 1094.7 5.40289C1095.32 5.4095 1102.66 5.28954 1106.42 5.41828C1110.88 5.5708 1105.63 5.81643 1106.74 5.87067C1106.92 5.87983 1111.6 5.8707 1112.22 5.95634C1112.91 6.0486 1108.88 6.03108 1108.94 6.06888C1108.99 6.09486 1115.66 6.30536 1114.38 6.42468C1113.37 6.54541 1104.27 6.35033 1102.35 6.40149C1102.03 6.40996 1102.63 6.56612 1102.35 6.57067C1101.21 6.58697 1080.32 6.51064 1079.38 6.48165C1080.46 6.41579 1081.55 6.34993 1082.63 6.28407C1081.19 6.2714 1079.75 6.25872 1078.3 6.24605C1080.35 6.19785 1082.41 6.14966 1084.46 6.10147C1081.41 5.51271 1072.23 6.06197 1071.85 6.34848C1071.68 6.48099 1077.29 6.84533 1072.07 7.02462C1072.87 7.06188 1073.66 7.09913 1074.45 7.13638C1076.09 7.08657 1077.73 7.03677 1079.36 6.98696C1078.27 6.94734 1077.18 6.90771 1076.09 6.86809C1076.49 6.82961 1076.9 6.79113 1077.3 6.75264C1080.36 6.70029 1083.42 6.64796 1086.48 6.59563C1088.06 6.63132 1087.73 6.74826 1088.82 6.77531C1102.34 7.11557 1093.52 6.71508 1102.38 6.80223C1103.64 6.87061 1104.91 6.93899 1106.18 7.00738C1105.72 6.7431 1109.68 6.92327 1114.4 6.82831C1113.83 6.91108 1113.27 6.99385 1112.7 7.07662C1119.55 7.05791 1133.47 7.54018 1129.71 7.05684C1131.28 7.10297 1132.86 7.14911 1134.43 7.19524C1135.76 7.12374 1137.09 7.05223 1138.42 6.98073C1140.26 6.99665 1142.1 7.01256 1143.94 7.02848C1143.95 7.07002 1143.96 7.11155 1143.97 7.15309C1142.5 7.14765 1141.03 7.14221 1139.56 7.13677C1140.66 7.26749 1141.77 7.39822 1142.87 7.52895C1143.95 7.51215 1145.03 7.49535 1146.12 7.47855C1141.57 7.34134 1147.56 7.16919 1149.01 7.00786C1152.85 6.96104 1155.28 7.18715 1156.56 7.20189C1157.16 7.20887 1164.25 6.85398 1161.47 7.26339C1165.11 7.2265 1168.76 7.18962 1172.42 7.15274C1173.84 7.1905 1175.27 7.22826 1176.7 7.26602C1173.6 7.44972 1182.58 7.72035 1175.96 7.77586C1171.02 7.81758 1169.81 7.62988 1167.46 7.62207C1165.35 7.61478 1164.24 7.7337 1161.94 7.73029C1146.52 7.70521 1133.83 7.63342 1119.18 7.52213C1116.29 7.49994 1113.65 7.55016 1111.71 7.53418C1109.51 7.5159 1112.27 7.37203 1109.46 7.39875C1106.5 7.42707 1105.86 7.55074 1105.09 7.55026C1104.6 7.54981 1103.06 7.43037 1101.65 7.42489C1095.84 7.40239 1087.34 7.47919 1086.52 7.47537C1085.58 7.47046 1069.23 7.30471 1068.42 7.28294C1068.01 7.27117 1068.87 6.85544 1065.25 7.2882C1064.11 7.29211 1062.98 7.29603 1061.85 7.29995C1062.04 7.21692 1062.22 7.1339 1062.4 7.05087C1055.71 7.34237 1058.01 7.17369 1051.56 7.17365C1036.18 7.17405 1013.35 7.01498 996.535 6.9794C992.773 6.97159 991.373 7.06643 986.886 7.05625C982.724 7.04646 971.9 6.70532 974.254 7.12886C965.037 6.73428 963.563 7.34738 958.963 6.94361C958.406 6.9976 957.85 7.0516 957.293 7.10559C952.304 6.84531 950.779 7.05115 945.281 7.05902C942.917 7.06254 945.642 6.81683 940.872 7.08367C939.961 7.0589 939.05 7.03413 938.14 7.00936C938.352 6.94817 938.564 6.88698 938.776 6.82579C933.485 6.85601 933.148 6.82239 933.749 7.05679C931.198 7.00466 928.65 6.95255 926.104 6.90044C925.788 6.97538 925.471 7.05033 925.154 7.12527C926.376 7.2753 984.236 7.28051 992.356 7.24225C1001.76 7.45111 1020.76 7.30921 1028.44 7.3799C1031.51 7.40831 1032.83 7.5857 1037.27 7.62363C1041.71 7.66151 1047.3 7.52671 1049.67 7.5303C1057.57 7.5415 1094.92 7.72062 1069.54 7.83657C1070.28 7.9234 1071.01 8.01021 1071.73 8.09702C1081.8 7.84948 1078.16 8.01175 1086.53 8.07378C1090.05 8.10006 1098.45 7.94506 1097.98 8.32469C1091.42 8.37029 1084.46 8.22142 1078.78 8.20488C1078.21 8.20327 1071.51 8.35147 1068.01 8.2906C1064.87 8.23523 1067.03 7.87997 1060.2 8.2618C1055.13 7.84332 1052.21 8.19381 1050.87 8.2271C1048.56 8.28484 1048.31 8.08702 1046 8.05515C1043.49 8.02009 1041.76 8.14406 1041.42 8.14358C1037.99 8.13326 1020.01 8.08138 1019.18 7.99878C1019.9 7.96668 1020.62 7.93457 1021.35 7.90247C1016.67 7.82816 1017.65 8.03323 1016.42 8.05256C1015.51 8.04828 1014.59 8.044 1013.68 8.03973C1014.04 7.99938 1014.4 7.95904 1014.77 7.9187C1009.25 7.90621 1013.47 8.06761 1005.65 8.03351C1000.69 8.01171 995.575 7.83253 995.094 7.84245C994.952 7.84528 996.51 7.95877 994.492 7.96536C991.168 7.97614 985.341 7.95082 984.693 7.80213C983.046 7.81644 983.186 7.96002 982.967 7.96243C982.003 7.97264 965.589 7.95765 962.667 7.95477C954.56 7.9466 945.486 7.88092 936.641 7.87072C935.733 7.86961 936.313 7.78007 935.403 7.7795C933.94 7.77853 926.452 7.89355 925.338 7.8994C922.547 7.91351 915.228 7.82799 914.08 7.86527C913.916 7.87056 916.322 8.00395 913.509 8.03151C910.387 8.06197 912.068 7.90162 911.898 7.8993C905.492 7.81739 901.437 7.91761 897.072 7.9231C895.657 7.9248 893.048 7.7891 891.055 7.81847C890.825 7.8218 891.28 7.93961 891.054 7.94444C888.042 7.99363 885.23 7.76735 883.929 7.74836C880.748 7.70192 882.48 7.86758 882.314 7.86807C880.196 7.86493 877.346 7.79654 874.133 7.79167C859.674 7.76941 847.902 7.73346 832.66 7.66377C830.724 7.655 828.431 7.53399 828.135 7.5327C827.222 7.53 827.482 7.66276 824.843 7.64956C819.28 7.62122 814.138 7.60764 808.662 7.58387C807.56 7.57906 807.091 7.45516 806.251 7.44927C803.428 7.43071 793.863 7.71325 793.667 7.31476C788.022 7.64494 784.286 7.32699 779.768 7.31283C769.079 7.27897 752.383 7.28591 741.672 7.19869C739.427 7.18019 738.376 7.0742 737.129 7.06387C734.879 7.04503 722.169 7.05262 721.49 7.03393C720.167 6.99794 720.954 6.55222 714.156 6.91684C710.175 6.92925 710.648 6.7469 709.825 6.73378C703.419 6.63493 697.228 7.02196 698.387 6.64982C690.959 6.72326 686.247 6.9131 683.145 6.54889C683.184 6.72091 679.657 6.8103 675.426 6.72839C679.744 6.45646 679.285 6.27017 689.688 6.36337C689.851 6.36484 689.539 6.48792 689.702 6.4894C691.182 6.50353 694.272 6.45279 696.803 6.46936C699.336 6.48595 697.929 6.56545 698.944 6.56775C699.872 6.56967 699.842 6.45062 701.187 6.45415C705.551 6.46644 709.429 6.44871 711.925 6.45629C713.497 6.46116 715.259 6.5725 716.483 6.57725C721.272 6.59498 731.1 6.55153 737.09 6.58619C738.335 6.59369 737.811 6.70891 740.537 6.7292C740.855 6.73157 742.016 6.61381 744.407 6.59774C746.799 6.58167 748.657 6.64959 750.197 6.64292C751.484 6.63735 750.946 6.52664 753.588 6.53011C755.897 6.53357 780.502 6.7073 781.909 6.73009C783.851 6.7626 784.775 6.91874 785.962 6.90474C786.171 6.90157 786.525 6.75561 787.25 6.74788C799.24 6.62028 825.45 6.92296 839.093 6.97463C867.449 7.0825 893.722 7.0977 922.374 7.17455C922.884 7.15089 923.394 7.12724 923.905 7.10358C921.012 7.09139 918.124 7.07921 915.239 7.06705C915.221 6.99764 915.202 6.92824 915.184 6.85883C911.285 6.83273 911.802 6.99872 911.911 7.09809C910.47 7.05051 909.001 7.00282 907.547 6.95519C906.287 7.19193 896.585 6.99361 891.605 6.97468C888.363 6.9621 884.513 7.03928 882.808 7.02552C879.207 6.99677 879.304 6.84805 879.021 6.84458C878.53 6.83929 873.554 6.95149 869.878 6.93216C864.474 6.90397 863.888 6.67276 856.514 6.83859C847.038 6.68306 836.77 6.70301 826.486 6.68257C828.429 6.4785 819.283 6.6433 815.179 6.62406C790.255 6.50666 759.341 6.2963 733.921 6.11394C730.668 6.09075 728.217 5.95657 726.41 5.95369C725.431 5.952 725.003 6.09731 723.644 6.07259C723.397 6.06789 723.267 5.92996 720.688 5.89925C714.276 5.82237 698.466 5.99034 694.503 5.71117C672.796 5.66767 651.203 5.62458 629.421 5.58074C628.877 5.52248 628.334 5.46422 627.792 5.40596C623.725 5.67711 607.397 5.44505 599.431 5.4276C585.565 5.39781 567.541 5.41697 555.404 5.37951C552.756 5.37133 550.624 5.28163 548.098 5.27347C547.001 5.27005 545.638 5.37028 544.499 5.36641C531.672 5.32456 514.8 5.15022 501.869 5.10244C473.045 4.99578 445.53 4.87264 416.26 4.76321C352.366 4.52484 287.971 4.34256 224.47 4.12308C189.703 4.00267 155.37 3.87207 121.018 3.71311C119.672 3.70689 119.741 3.58582 118.708 3.58084C112.682 3.5509 99.4861 3.5981 92.4707 3.56435C87.2642 3.5392 78.3683 3.3177 76.7231 3.49786C95.7017 3.85754 116.22 3.91829 136.233 4.07692C137.72 4.08839 137.843 4.20425 138.022 4.20707C141.177 4.25969 139.156 4.09279 143.806 4.10407C145.381 4.10794 159.923 4.53386 158.16 4.16026C161.61 4.32063 186.29 4.49147 190.858 4.46087C192.272 4.45166 191.271 4.3391 191.552 4.33471C192.773 4.31554 193.328 4.46748 194.429 4.47569C197.301 4.49632 205.126 4.40567 206.394 4.41151C209.548 4.42523 219.354 4.58573 223.851 4.57468C224.07 4.57413 224.275 4.57316 224.468 4.5718C227.678 4.54713 227.198 4.40442 230.395 4.40338C233.075 4.40299 230.13 4.523 236.161 4.58643C239.176 4.61772 249.743 4.56506 252.179 4.57459C254.694 4.58446 257.512 4.68913 261.056 4.69583C266.329 4.70636 276.985 4.69599 282.217 4.68646C282.525 4.68598 283.278 4.56724 284.042 4.57276C285.625 4.58406 285.149 4.73249 286.347 4.75244C287.77 4.77323 307.828 4.83336 311.511 4.84944C313.936 4.85977 315.678 4.77705 316.943 4.78279C317.963 4.78762 318.072 4.91324 319.116 4.91872C319.439 4.91999 322.193 4.82201 324.972 4.83541C327.573 4.84813 337.673 4.991 338.873 4.99666C339.643 5.00009 338.798 4.90783 341.077 4.91884C343.094 4.9289 344.397 5.0495 345.546 5.05568C348.203 5.06982 351.192 4.98299 354.048 4.99367C362.276 5.02453 361.888 5.1661 362.378 5.17267C363.76 5.19099 364.317 5.06209 364.772 5.06117C366.737 5.05785 371.312 5.05149 372.978 5.05291C375.058 5.05468 375.941 5.1827 378.164 5.19179C379.821 5.19817 383.176 5.08982 387.002 5.09883C395.775 5.1191 405.667 5.13474 414.164 5.17251C416.686 5.18361 417.076 5.29882 417.849 5.30479C421.909 5.33622 424.245 5.21819 425.36 5.2242C433.398 5.26694 448.131 5.52379 455.803 5.57057C458.843 5.58917 472.335 5.54961 480.095 5.5963C480.98 5.60146 480.151 5.68737 481.137 5.67726C483.495 5.65299 483.278 5.47063 484.477 5.48079C485.067 5.4863 486.332 5.59355 487.98 5.61015C496.507 5.69617 502.456 5.63975 506.407 5.66061C544.161 5.86035 582.668 6.05758 618.036 6.21106C621.932 6.22789 626.778 6.13872 632.712 6.26661C632.895 6.32371 633.077 6.38082 633.26 6.43792C633.468 6.38331 633.676 6.3287 633.884 6.27409C640.617 6.27023 643.172 6.20882 650.102 6.30632C650.712 6.31461 652.483 6.57894 653.597 6.2635C660.35 6.52138 656.642 6.27345 661.669 6.27141C666.7 6.2694 671.61 6.35986 676.528 6.39503C679.219 6.52004 667.921 6.74038 667.197 6.73672C666.015 6.73111 664.789 6.56736 663.653 6.5545C660.289 6.51616 657.047 6.62973 656.296 6.48492C651.968 6.61813 657.355 6.5641 656.815 6.69713C653.914 6.62996 651.077 6.56303 648.112 6.49561C646.595 6.94934 630.475 6.28733 631.606 6.6417C630.328 6.56667 629.053 6.49164 627.778 6.41663C622.159 6.83385 619.021 6.5125 611.431 6.35238C611.975 6.41065 612.519 6.46891 613.063 6.52718C612.905 6.55 606.258 6.61396 608.635 6.384C601.831 6.67273 602.12 6.14961 596.057 6.50504C592.463 6.53969 594.616 6.32793 588.204 6.3068C584.425 6.29423 579.676 6.39087 575.356 6.38211C574.365 6.37974 573.935 6.25061 573.055 6.24719C572.175 6.24382 571.745 6.36712 570.68 6.36613C568.48 6.36434 565.638 6.26556 564.27 6.2687C563.044 6.27115 561.291 6.37455 558.349 6.38044C548.09 6.40183 551.202 6.25652 549.583 6.19695C547.848 6.13356 546.543 6.33588 543.025 6.29816C542.672 6.29425 543.586 6.16856 542.438 6.16917C541.512 6.16954 541.044 6.3082 537.986 6.3225C536.723 6.32817 518.028 6.28554 515.169 6.27697C510.711 6.26343 500.881 6.10628 496.362 6.08954C494.617 6.08277 492.755 6.18831 490.91 6.18038C484.914 6.15451 474.763 6.10545 467.006 6.06975C460.02 6.03745 447.656 5.74034 443.745 5.94987C433.823 5.94038 431.485 5.7392 430.738 5.73367C428.742 5.71871 427.818 5.84235 425.314 5.83851C392.307 5.78387 349.058 5.53101 317.844 5.41911C286.723 5.30797 255.544 5.20472 224.466 5.09653C182.802 4.95123 141.531 4.79834 100.214 4.60326C100.025 4.65889 99.8355 4.71453 99.6465 4.77016C108.108 4.84048 118.301 4.97919 126.728 5.03516C138.16 5.11029 154.816 4.94149 163.065 5.35959C159.646 5.37987 154.285 5.21083 154.388 5.40946C160.158 5.44648 166.608 5.48617 172.384 5.52316C172.209 5.43092 172.033 5.33868 171.858 5.24643C177.898 5.24368 184.861 5.29113 190.825 5.30155C191.903 5.30365 191.139 5.21752 192.08 5.22081C193.135 5.22467 192.42 5.30643 192.617 5.30789C195.29 5.31927 196.116 5.23695 196.444 5.23948C197.293 5.24621 196.626 5.32503 199.085 5.35755C203.701 5.41838 206.913 5.21463 205.856 5.57099C207.273 5.57657 208.699 5.58219 210.136 5.58784C210.508 5.49116 210.881 5.39449 211.255 5.29782C217.125 5.58297 221.031 5.38306 224.466 5.38025C226.123 5.37841 227.67 5.4283 229.32 5.62154C230.927 5.54363 232.546 5.46576 234.175 5.38794C235.094 5.48969 236.015 5.59145 236.941 5.69323C237.121 5.60971 237.302 5.52619 237.483 5.44268C246.602 5.54059 255.461 5.47424 264.12 5.51789C270.184 5.54842 271.309 5.58608 276.516 5.60015C288.068 5.63102 276.554 5.75306 286.231 5.97144C285.725 5.86619 285.219 5.76094 284.714 5.6557C286.321 5.62415 287.936 5.59263 289.559 5.56114C290.701 5.64984 291.795 5.73835 292.874 5.8268C297.687 5.40876 300.864 5.77383 301.528 5.77643C302.071 5.77779 303.896 5.52194 309.765 5.76764C307.326 5.39853 314.255 5.78309 314.825 5.78743C315.403 5.79115 321.891 5.73623 324.599 5.7502C326.708 5.761 331.241 5.85612 334.442 5.86483C337.267 5.8725 336.985 5.74932 337.191 5.74886C340.685 5.75237 338.493 5.83865 341.027 5.8532C343.489 5.86746 345.377 5.7708 345.91 5.78219C346.177 5.78818 345.285 5.89841 346.506 5.91415C349.78 5.95689 355.765 5.8807 359.599 5.89862C360.956 5.90484 362.671 6.008 364.193 6.01689C366.514 6.03016 367.661 5.90651 368.952 5.91535C369.409 5.91881 372.322 6.1281 375.982 6.11197C376.678 6.10859 378.725 5.69776 381.46 6.3018C381.671 6.21913 381.883 6.13646 382.094 6.05379C394.524 5.89556 398.017 6.58747 403.433 6.00664C412.365 6.10869 406.232 6.31926 407.211 6.35901C407.845 6.38418 410.77 6.33112 411.094 6.33606C411.664 6.34547 411.566 6.42035 412.192 6.42237C423.704 6.45329 418.603 6.29131 422.267 6.21555C430.885 6.03482 437.522 6.53648 422.623 6.33559C422.623 6.37758 422.623 6.41957 422.623 6.46156C426.368 6.43602 435.58 6.49097 432.495 6.69191C430.167 6.85066 407.706 6.6536 420.42 6.93856C423.32 7.00312 424.825 6.8514 429.702 7.16589C432.946 7.19456 433.412 6.81358 437.835 6.98444C437.107 6.84807 436.381 6.71169 435.655 6.57532C441.673 6.4247 449.19 6.68748 453.91 6.63105C455.484 6.61168 461.096 5.99685 459.786 6.6283C462.394 6.59877 474.882 6.76464 477.241 6.71676C477.793 6.70513 478.573 6.36927 486.67 6.51909C487.224 6.56373 487.779 6.60837 488.334 6.65301C481.027 6.74799 493.936 6.92376 490.428 7.2317C489.232 7.0825 483.448 6.97182 482.45 6.89524C480.822 6.76378 485.672 6.62139 479.493 6.6413C475.595 7.16362 486.74 6.95967 485.034 7.46339C492.959 7.25599 493.778 7.4865 495.582 7.50298C503.319 7.57155 508.232 7.53657 515.649 7.625C517.445 7.52715 504.056 7.32373 502.431 7.36264C508.495 7.01467 498.051 6.95722 493.697 7.16093C493.331 7.0472 492.965 6.93348 492.599 6.81975C498.277 6.90272 503.858 6.95571 509.565 6.88577C509.937 6.92921 510.308 6.97264 510.68 7.01608C509.398 7.07433 508.119 7.13258 506.841 7.19084C511.583 7.31283 508.731 6.97426 515.074 7.28586C515.272 7.16016 515.469 7.03447 515.666 6.90877C521.645 6.97402 527.594 7.03915 533.623 7.10459C536.743 6.86314 548.422 7.00302 546.285 7.32302C551.007 7.36456 545.196 7.16723 549.59 7.10443C551.473 7.07709 555.167 7.08171 556.082 7.17361C555.682 7.48471 550.168 7.50207 548.487 7.71023C549.454 7.78326 575.323 7.66062 573.049 8.01739C575.132 8.06945 574.172 7.87736 577.936 7.84377C588.429 7.75013 604.487 8.18482 613.039 7.75094C603.068 7.45222 600.147 7.71622 592.589 7.69784C587.885 7.68675 558.156 7.61552 564.804 7.31079C563.72 7.34857 562.637 7.38635 561.555 7.42414C560.463 7.3215 559.371 7.21887 558.281 7.11625C561.354 7.11404 564.438 7.11187 567.531 7.10973C568.27 7.21075 569.009 7.31176 569.748 7.41278C570.09 7.34404 570.431 7.2753 570.773 7.20656C572.079 7.19772 573.386 7.18889 574.696 7.18006C574.327 7.26286 573.96 7.34565 573.592 7.42845C575.608 7.45069 577.628 7.47295 579.653 7.49522C579.109 7.38056 578.564 7.2659 578.02 7.15124C587.536 7.15992 584.249 7.21763 589.474 7.44843C593.362 7.48507 586.788 7.24319 595.026 7.22026C604.64 7.19381 598.305 7.51309 610.829 7.48821C611.01 7.43276 611.191 7.37731 611.372 7.32186C614.136 7.38875 616.896 7.45563 619.596 7.52227C619.238 7.45105 618.879 7.37984 618.52 7.30862C624.117 7.35742 631.893 7.25437 633.769 7.53558C628.042 7.38145 628.104 7.85997 629.588 7.95366C632.692 8.14613 678.034 8.15439 686.978 8.17727C698.146 8.20542 706.656 8.39166 717.003 8.19643C709.915 7.97584 685.629 8.03973 680.876 7.88772C680.413 7.87281 680.543 7.43488 677.568 7.91662C667.951 7.79561 656.75 7.89188 644.753 7.83093C645.12 7.70613 645.487 7.58134 645.853 7.45655C653.279 7.75381 659.89 7.18989 658.971 7.67668C660.42 7.68231 661.871 7.68794 663.323 7.69358C663.324 7.60911 663.324 7.52464 663.324 7.44017C665.514 7.44867 667.707 7.45719 669.905 7.46573C669.904 7.5502 669.904 7.63467 669.904 7.71914C671.724 7.7262 673.547 7.73328 675.372 7.74037C675.562 7.65688 675.753 7.57339 675.943 7.48991C681.473 7.68632 699.936 7.29025 691.816 7.76174C694.358 7.7716 696.904 7.78149 699.456 7.7914C699.448 7.7296 699.44 7.6678 699.432 7.60601C700.529 7.60196 701.627 7.59793 702.725 7.59389C702.363 7.64839 702.001 7.70289 701.64 7.7574C706.672 7.67676 711.463 7.98969 714.79 7.80918C712.596 7.75843 710.406 7.70769 708.22 7.65697C712.409 7.75346 720.171 7.61736 720.87 7.61965C723.001 7.62708 724.069 7.75609 726.339 7.77125C728.383 7.7846 728.103 7.68756 728.484 7.69241C739.531 7.83296 735.322 8.33607 740.498 7.74124C741.049 7.82736 741.601 7.91349 742.152 7.99961C742.887 7.93239 743.622 7.86518 744.358 7.79797C747.64 7.8173 750.93 7.83666 754.227 7.85604C753.127 7.7468 752.029 7.63756 750.931 7.52832C755.867 7.50062 758.179 7.72007 758.658 7.72676C760 7.74421 760.608 7.61445 761.022 7.61582C780.94 7.70452 768.838 7.77388 778.823 8.3089C782.393 8.128 778.782 7.91875 778.277 7.71866C783.022 7.83002 784.506 7.78091 789.534 7.81141C790.843 7.81948 792.251 7.93183 793.078 7.93648C793.79 7.94051 796.051 7.83569 797.734 7.84176C800.564 7.85189 804.335 7.93423 808.225 7.94764C811.456 7.95848 821.379 7.91675 828.341 7.94291C831.311 7.95444 830.622 8.04677 831.389 8.04995C831.706 8.05118 834.038 7.94641 835.909 7.95323C851.23 8.01012 867.293 8.14444 882.704 8.2021C893.599 8.24308 904.822 8.19507 915.755 8.24676C918.079 8.25789 916.849 8.33666 917.864 8.34356C918.213 8.34566 918.631 8.20149 922.23 8.27407C923.53 8.30024 922.035 8.39641 923.313 8.40644C923.936 8.41127 924.2 8.28449 927.842 8.26946C934.465 8.2419 938.037 8.42612 938.629 8.42334C939.747 8.41787 939.421 8.31083 940.903 8.31277C948.166 8.32234 954.19 8.32776 960.618 8.3438C963.609 8.35117 984.401 8.41039 985.559 8.43389C988.12 8.48609 985.734 8.6977 989.021 8.70292C989.945 8.6506 990.858 8.59823 991.77 8.54586C990.325 8.49778 988.858 8.44961 987.396 8.40146C991.439 8.48815 995.932 8.40511 998.902 8.42043C999.449 8.42342 1004.49 8.5431 1007.06 8.54214C1005.97 8.5794 1004.87 8.61666 1003.78 8.65393C1004.17 8.69083 1004.55 8.72773 1004.94 8.76462C1010.08 8.73089 1015.53 8.75339 1020.82 8.78151C1022.73 8.7915 1022.08 8.875 1024.02 8.88545C1035.3 8.94732 1032.4 8.57849 1043.2 9.29156C1039.55 9.21659 1026.29 9.25057 1024.32 9.22062C1022.97 9.19973 1017.74 8.61227 1019.66 9.20179C1008.86 9.15741 1018.23 8.87269 1008.16 8.90383C1008.36 8.97565 1008.57 9.04747 1008.77 9.1193C1005.25 9.15046 1002.66 9.17632 1000.53 9.0427C999.81 9.38456 987.92 9.13683 981.324 9.1345C971.833 9.13069 961.149 9.17333 951.818 9.15195C948.599 9.14448 946.742 9.00221 946.34 9.00107C945.745 8.99974 944.073 9.11156 942.887 9.1078C938.451 9.09398 925.018 8.84191 921.69 9.15745C947.968 9.25934 974.234 9.36117 1000.5 9.463C997.194 9.28873 1023.76 9.37594 1025.14 9.38928C1026.39 9.40135 1025.33 9.51061 1025.7 9.51893C1028.47 9.57828 1030.84 9.42313 1031.71 9.42649C1032.38 9.42909 1033.72 9.51141 1036.09 9.5189C1036.52 9.52035 1036.65 9.43927 1037.11 9.44084C1040.2 9.45282 1043.26 9.46582 1046.37 9.47744C1046.56 9.47897 1047.34 9.60112 1048.13 9.60437C1048.91 9.60742 1049.69 9.49143 1049.89 9.49183C1052.38 9.50231 1056.64 9.59625 1059.01 9.60629C1059.84 9.60944 1059.27 9.52001 1060.19 9.52441C1063.02 9.5375 1062.09 9.70464 1065.59 9.67425C1066.77 9.664 1066.69 9.53313 1068.94 9.55906C1070.53 9.5775 1070.36 9.80953 1070.61 9.81897C1070.96 9.83053 1076.43 9.66794 1078.22 9.82719C1074.3 10.2141 1082.49 9.86474 1082.1 9.69356C1084.27 9.74469 1086.44 9.79582 1088.61 9.84696C1089.35 9.80686 1090.09 9.76677 1090.83 9.72667C1099.59 9.95422 1104.97 9.85882 1113.59 9.95183C1114 9.95639 1121.25 10.08 1120.92 10.1391C1116.57 10.2263 1112.26 10.2143 1109.46 10.0113C1104.87 10.36 1104.79 10.0676 1097.39 10.0875C1094.91 10.0944 1094.73 10.1931 1094.45 10.1933C1084.8 10.2054 1069.46 10.1887 1062.92 9.87265C1061.1 9.94421 1067.65 10.0008 1065.11 10.0488C1063.69 10.0751 1030.36 10.0387 1041 9.74522C1039.9 9.75022 1038.8 9.75522 1037.69 9.76022C1036.59 10.0721 1031.11 9.97857 1031.73 9.66606C1031.21 9.7285 1030.69 9.79094 1030.17 9.85337C1029.14 9.90389 1027.91 9.92836 1026.2 9.93905C1019.58 9.97933 980.768 9.71919 978.631 9.75613C978.584 9.83065 978.536 9.90517 978.489 9.9797C995.79 10.1313 1012.31 10.0097 1031.16 10.2967C1030.62 10.2245 1030.08 10.1523 1029.53 10.0801C1036.99 10.2072 1044.45 10.3343 1051.94 10.4614C1044 10.5574 1031.5 10.6155 1023.12 10.4786C1021.64 10.4543 1022.72 10.3607 1022.38 10.3476C1021.49 10.3134 1020.54 10.4792 1017.34 10.4833C1014.15 10.4874 1006.14 10.3362 1005.41 10.3367C1004 10.3382 1000.18 10.5174 997.782 10.5056C994.625 10.49 996.741 10.3782 996.108 10.3732C993.485 10.3512 991.152 10.4017 989.081 10.3848C986.009 10.3597 979.641 10.1238 977.5 10.4256C979.688 10.4482 981.877 10.4708 984.068 10.4935C972.189 10.5586 962.938 10.1265 951.323 10.3871C948.682 10.7522 958.282 10.7387 950.163 10.8674C951.642 10.8678 953.11 10.8681 954.586 10.8685C954.931 10.7912 955.277 10.7139 955.623 10.6366C958.163 10.7026 960.705 10.7686 963.249 10.8347C962.523 10.7618 961.798 10.6889 961.072 10.616C970.087 10.5981 979.234 10.5617 982.397 10.9506C982.584 10.8603 982.771 10.77 982.958 10.6796C991.422 10.8232 1003.91 10.4856 1001.58 10.9833C1001.98 10.9579 1002.38 10.9326 1002.77 10.9073C1007.84 11.0305 1005.67 10.8126 1007.58 10.7963C1008.12 10.7917 1017.99 10.9382 1013.61 11.0716C1023.24 11.2239 1020.28 10.7389 1022.93 10.7284C1029.13 10.987 1040.15 10.6778 1035.51 11.0306C1036.43 11.048 1037.34 11.0655 1038.26 11.0829C1041.26 10.8029 1044.23 11.1444 1047.49 11.2674C1048.59 11.2783 1049.7 11.2891 1050.81 11.3C1051.55 11.2048 1052.29 11.1095 1053.03 11.0142C1063.45 11.5217 1060.15 10.2315 1064.91 11.3232C1064.17 11.3845 1063.43 11.4459 1062.69 11.5072C1060.92 11.5309 1059.17 11.5546 1057.41 11.5783C1064.5 11.6341 1071.62 11.69 1078.67 11.7457C1087.64 12.0813 1092.76 11.7747 1102.77 12.0514C1103.7 12.0265 1104.64 12.0016 1105.58 11.9767C1104.62 12.216 1100.99 12.1662 1107.76 12.3015C1108.34 12.4756 1103.76 12.4801 1101.68 12.3402C1101.18 12.3061 1105.45 12.191 1100.65 12.1677C1097.38 12.1518 1103.31 12.3813 1093.53 12.2669C1093.89 12.3103 1094.25 12.3536 1094.62 12.397C1093.56 12.3917 1092.5 12.3864 1091.44 12.3811C1090.5 12.2802 1089.55 12.1794 1088.61 12.0786C1086.19 12.2096 1084.83 12.401 1079.31 12.3377C1080.81 12.2827 1078.78 12.0797 1076.05 12.0724C1076.05 12.1427 1076.05 12.213 1076.05 12.2833C1069.44 12.3029 1071.72 12.1055 1066.2 12.2452C1065.64 12.1871 1065.09 12.1291 1064.54 12.071C1061.53 12.2897 1050.46 12.4036 1052.48 12.066C1049.38 12.3896 1042.87 12.213 1040.46 11.9352C1040.27 12.0043 1040.09 12.0734 1039.9 12.1425C1038.62 12.1517 1037.33 12.1609 1036.05 12.17C1035.33 12.125 1034.61 12.08 1033.9 12.035C1032.99 12.0737 1032.07 12.1124 1031.16 12.1511C1030.62 12.0789 1030.07 12.0067 1029.51 11.9345C1028.04 12.0128 1026.56 12.0911 1025.09 12.1693C1024.19 12.1099 1023.29 12.0505 1022.39 11.9911C1022.29 12.1369 1013.38 12.1349 1010.89 12.0293C1010.15 12.0689 1009.41 12.1086 1008.67 12.1482C1008.31 12.0772 1007.95 12.0062 1007.59 11.9352C1007.03 11.9887 1006.48 12.0423 1005.93 12.0958C1004.66 12.0352 1003.39 11.9746 1002.13 11.9141C996.954 12.2351 996.791 11.9352 995.611 11.9328C993.436 11.9282 985.958 12.1129 984.699 12.097C983.447 12.0811 982.844 11.9563 981.834 11.9409C965.208 11.6841 972.048 12.0391 968.715 12.0782C966.919 12.0996 965.65 11.9805 964.064 11.987C961.341 11.9975 947.71 12.0958 946.88 12.0778C945.727 12.052 948.443 11.5239 944.695 11.6482C944.568 11.9369 936.567 11.614 940.306 12.0318C937.011 11.9836 933.72 11.9355 930.434 11.8873C930.805 12.2316 926.752 11.9954 922.348 11.9974C916.132 11.9999 902.017 12.1706 902.528 11.8209C901.025 11.8959 899.522 11.9709 898.021 12.0458C887.729 11.8952 877.786 11.9727 867.562 11.9372C837.269 11.8329 804.711 11.6302 774.495 11.4437C773.052 11.4346 773.26 11.3206 772.222 11.314C766.785 11.2802 752.587 11.3064 744.885 11.2511C742.428 11.2335 741.235 11.1169 740.457 11.1087C737.817 11.0803 738.44 11.2303 737.226 11.2214C735.302 11.2071 725.213 11.0309 721.741 11.0031C719.996 10.9892 717.933 11.0985 715.896 11.0544C715.721 11.0508 716.045 10.9311 715.897 10.9284C712.185 10.8992 714.417 11.0124 713.162 11.002C704.21 10.928 694.734 10.8888 685.128 10.8265C682.707 10.8108 679.011 10.7112 676.943 10.6951C676.154 10.6892 677.568 10.7865 674.842 10.7683C673.909 10.7621 673.59 10.6415 672.538 10.6297C668.006 10.5796 666.493 10.957 662.617 10.6337C655.187 10.6251 642.054 10.6725 635.193 10.648C633.572 10.642 632.783 10.5685 631.241 10.5638C630.147 10.5604 628.223 10.6621 626.522 10.6568C624.82 10.6514 622.136 10.5371 618.878 10.5282C615.492 10.5189 611.081 10.5635 610.312 10.5601C609.363 10.5564 608.922 10.4234 607.974 10.4214C605.104 10.4145 597.464 10.5138 593.812 10.5136C589.882 10.5131 587.536 10.4403 586.199 10.4364C584.962 10.4333 583.521 10.5385 582.957 10.5373C582.082 10.5356 581.87 10.4053 580.731 10.4019C578.871 10.3968 576.956 10.4708 574.179 10.4622C524.457 10.3091 475.694 10.0482 427.462 9.766C422.176 9.73484 418.935 9.813 411.007 9.74068C407.787 9.71123 409.143 9.5829 406.645 9.59843C405.532 9.60551 405.813 9.71168 404.409 9.7113C398.259 9.7093 390.931 9.58308 388.188 9.57407C387.106 9.57035 385.869 9.68487 383.663 9.678C367.394 9.62807 348.019 9.51893 330.209 9.47005C320.953 9.44487 306.635 9.4497 296.036 9.41625C272.258 9.34109 247.237 9.22898 224.453 9.13906C218.495 9.11555 212.843 9.0941 207.522 9.07553C166.587 8.93161 126.02 8.88165 85.4143 8.58734C104.407 8.95273 130.355 9.03211 151.636 9.14774C175.447 9.27695 199.751 9.36878 224.452 9.44833C262.9 9.57183 302.465 9.66541 340.911 9.81947C362.409 9.90556 390.529 10.0086 414.102 10.1673C415.191 10.1745 417.453 10.0915 419.825 10.1105C420.334 10.1147 426.573 10.3065 428.588 10.316C426.636 10.0108 434.702 10.3075 437.226 10.3101C440.393 10.3131 447.039 10.1903 454.578 10.3037C461.237 10.4058 459.408 10.5131 459.773 10.5217C462.138 10.5773 462.967 10.3961 464.787 10.3845C472.266 10.3392 510.696 10.596 521.457 10.6446C524.205 10.657 524.285 10.7746 524.905 10.7774C526.548 10.7846 528.892 10.6779 531.539 10.6889C536.309 10.7092 541.846 10.8414 544.501 10.8521C550.906 10.8783 562.601 10.7932 570.852 10.8228C573.16 10.831 573.019 10.9525 574.066 10.9561C578.738 10.9721 590.557 10.8743 596.238 10.8951C605.422 10.9286 615.147 11.0453 624.384 11.041C624.975 11.0978 625.567 11.1545 626.16 11.2113C627.094 11.1578 628.03 11.1043 628.966 11.0508C644.876 11.1561 660.97 11.096 676.8 11.1655C678.615 11.1734 687.721 11.313 689.162 11.319C690.402 11.3238 691.623 11.1937 693.464 11.2207C696.045 11.2583 693.613 11.5057 697.834 11.4486C698.97 11.4332 697.869 11.3189 700.152 11.2935C700.893 11.285 715.595 11.2975 716.401 11.3083C717.723 11.3262 718.903 11.5663 719.245 11.5727C721.022 11.6062 720.947 11.4252 722.14 11.4133C725.6 11.3774 730.137 11.5166 730.702 11.5161C737.521 11.5092 750.361 11.4148 757.622 11.5283C758.624 11.5441 758.504 11.6783 758.68 11.6833C759.805 11.7156 760.497 11.565 761.563 11.5656C767.295 11.5705 776.314 11.7087 782.135 11.7575C782.805 11.7629 784.219 11.6947 785.417 11.7065C792.191 11.7742 789.996 11.884 790.38 11.8905C791.294 11.9066 792.902 11.7824 795.338 11.7838C801.543 11.7863 813.444 11.8512 820.15 11.8874C825.167 11.9149 825.095 12.064 825.424 12.0682C826.128 12.0763 828.086 11.9646 831.402 11.964C837.772 11.9621 837.007 12.0765 839.612 12.0815C839.83 12.0824 839.45 11.966 842.331 11.9654C847.891 11.9641 860.446 12.1258 866.46 12.1432C868.771 12.15 869.313 12.0414 871.682 12.0484C875.406 12.0591 883.793 12.2114 884.461 12.2137C884.647 12.2144 885.064 12.0886 886.158 12.0929C887.361 12.0975 888.544 12.1677 889.442 12.1708C894.55 12.1888 903.389 12.0007 900.932 12.446C902.576 12.3401 904.221 12.2342 905.868 12.1283C916.633 12.1924 926.929 12.1874 937.584 12.2058C939.976 12.21 941.974 12.3039 943.997 12.3076C946.029 12.3113 954.92 12.2032 956.389 12.2062C959.023 12.2118 974.075 12.2551 975.958 12.2726C979.622 12.3062 983.182 12.508 984.677 12.477C985.876 12.4521 984.768 12.3419 987.055 12.3207C991.038 12.2842 997.676 12.446 998.889 12.4486C999.402 12.4497 998.44 12.3635 1003.25 12.3762C1005.84 12.3828 1007.23 12.4792 1008.18 12.4824C1008.47 12.4831 1008.03 12.3339 1013.17 12.3736C1016.72 12.4013 1018.24 12.521 1018.61 12.5229C1019.17 12.5258 1020.52 12.4096 1022.78 12.4226C1028.06 12.4536 1037.61 12.6299 1042.59 12.6598C1043.55 12.6656 1043.23 12.5176 1047.07 12.546C1049.81 12.5664 1049.33 12.6812 1050.36 12.6899C1052 12.7034 1054.43 12.5699 1058.04 12.5885C1062.62 12.6122 1096.22 12.8907 1097.99 12.936C1099.16 12.9663 1100.53 12.9732 1101.11 13.0389C1100.61 13.0977 1100.11 13.1566 1099.61 13.2155C1094.45 12.9821 1096.53 13.234 1095.16 13.2444C1093.18 13.2591 1085.71 13.199 1083.9 13.2461C1083.26 13.2632 1084.73 13.3986 1081.27 13.452C1077.57 13.509 1075.92 13.2716 1074.45 13.5815C1069.21 13.2108 1064.1 13.5629 1070.23 13.686C1073.6 13.7545 1107.02 14.0091 1113.86 14.0551C1119.38 14.0921 1129.73 14.0383 1136.54 14.0888C1140.54 14.1186 1150.4 14.1732 1149.99 14.3394C1153.55 14.3743 1149.78 14.1926 1150.53 14.1723C1152.1 14.1298 1163.14 14.288 1165.24 14.2915C1175.56 14.3096 1188.66 14.1727 1198.69 14.4233C1198.22 14.4665 1197.75 14.5096 1197.29 14.5527C1195.05 14.6264 1184.55 14.4679 1183.36 14.6789C1198.73 14.7384 1213.96 14.7975 1229.32 14.857C1229.05 14.6725 1248.02 14.7484 1248.92 14.8348C1248.59 14.9223 1248.25 15.0099 1247.92 15.0975C1237.19 14.7187 1238.17 15.1683 1230.95 14.9036C1228.01 14.8888 1228.9 15.0391 1227.45 15.0614C1213.04 15.2828 1227.22 14.7592 1216.19 14.8479C1219.51 15.0737 1210.48 15.1165 1206.45 15.128C1205.52 15.1303 1193.46 15.0296 1192.02 15.0274C1183.94 15.0151 1170.08 15.0781 1162.09 14.9304C1155.79 14.8921 1152.33 15.0304 1146.58 15.0432C1142.23 15.053 1143.48 14.9512 1141.43 14.9419C1137.13 14.9223 1135.71 15.2414 1132.96 14.778C1130.05 14.8231 1127.14 14.8683 1124.23 14.9134C1124.23 14.8431 1124.23 14.7728 1124.23 14.7025C1122.41 14.6954 1120.58 14.6883 1118.76 14.6812C1118.22 14.7492 1117.68 14.8172 1117.15 14.8852C1111.36 14.7668 1113.77 14.6069 1112.69 14.4036C1111.45 14.3851 1110.19 14.3665 1108.93 14.348C1107.96 14.497 1106.98 14.6461 1106.01 14.7952C1100.4 14.761 1094.79 14.7268 1089.2 14.6926C1088.84 14.6212 1088.47 14.5497 1088.11 14.4782C1088.1 14.5483 1088.09 14.6183 1088.08 14.6883C1078.6 14.666 1069.16 14.6438 1059.64 14.6213C1057.11 14.7239 1072.36 14.8682 1073.48 14.8793C1079.85 14.9412 1096.84 14.8943 1096.87 15.1442C1100.84 14.9732 1112.87 15.0661 1116.56 15.304C1110.93 15.2688 1105.24 15.2333 1099.58 15.198C1099.77 15.2824 1099.95 15.3669 1100.13 15.4513C1093.08 15.0863 1092.05 15.1009 1084.81 15.392C1084.81 15.2796 1084.8 15.1673 1084.79 15.055C1079.75 15.4259 1070.85 14.729 1070.6 15.2102C1067.9 15.1606 1065.2 15.1111 1062.51 15.0616C1056.7 15.0979 1065.7 15.5035 1042.98 15.2701C1041.42 15.2539 1041.74 15.1323 1039.39 15.1317C1038.71 15.1316 1034.86 15.2953 1027.4 15.2478C1026.24 15.2403 1026.15 15.1334 1024.94 15.1152C1022.15 15.0723 1016.6 15.2615 1019.12 14.9279C1008.08 14.7849 1012.66 15.0845 1009.24 15.1833C1006.96 15.2488 1007.42 15.0474 1005.45 15.0858C1003.01 15.1335 1004.79 15.3452 995.054 15.2132C996.147 15.2036 997.24 15.1939 998.333 15.1842C997.783 15.1264 997.233 15.0686 996.684 15.0108C991.123 15.1228 991.665 14.9298 989.025 15.2324C984.954 15.0771 981.435 15.0523 975.884 15.0562C965.11 15.0639 970.622 15.4223 958.36 14.9209C956.375 14.9769 954.391 15.0329 952.409 15.0889C949.15 14.9423 951.796 14.7849 946.891 14.7321C950.729 15.078 940.38 14.9172 938.637 15.2055C938.454 15.1344 938.271 15.0634 938.089 14.9924C936.995 14.9882 935.903 14.9839 934.81 14.9797C934.807 15.0361 934.803 15.0925 934.8 15.1488C933.345 15.101 931.891 15.0531 930.439 15.0052C929.346 15.0569 928.253 15.1086 927.161 15.1602C925.367 15.0354 923.574 14.9105 921.782 14.7856C920.657 14.7732 919.533 14.7608 918.409 14.7484C918.764 14.8337 919.12 14.9191 919.475 15.0045C918.03 14.9708 916.586 14.9371 915.143 14.9034C916.822 15.0478 915.764 15.2052 911.274 15.1836C907.533 15.1657 911.745 14.8944 903.703 14.9829C903.144 14.9892 902.144 15.1905 894.566 15.1928C885.487 15.1956 889.899 15.0641 888.282 15.0527C887.964 15.0506 885.195 15.1431 882.606 15.1479C881.137 15.1506 879.723 15.0618 879.529 15.0612C878.624 15.0615 878.359 15.1784 877.105 15.1778C873.934 15.1756 869.626 15.1012 866.475 15.0948C865.045 15.0918 863.7 15.1565 863.063 15.1548C862.074 15.1518 860.82 15.0403 859.821 15.0368C856.131 15.0247 850.545 15.3571 848.841 14.8587C845.304 15.2972 837.926 14.7219 838.466 15.0272C829.025 14.8761 803.733 15.1501 804.514 14.6436C799.181 15.0585 799.661 14.7449 797.432 14.7428C794.943 14.7403 796.226 14.8298 794.224 14.8182C789.538 14.7912 785.072 14.7375 780.433 14.7179C781.161 14.6509 781.89 14.5839 782.619 14.5169C777.748 14.4756 779.423 14.6446 774.464 14.6566C765.358 14.6783 769.199 14.5636 767.856 14.3754C768.199 14.5534 757.552 14.4846 756.396 14.4569C755.74 14.4401 758.618 14.2236 751.99 14.2713C752.352 14.3428 752.714 14.4143 753.077 14.4857C750.054 14.3782 741.881 14.468 740.501 14.4391C739.865 14.4257 736.47 13.8474 733.368 14.2825C732.994 14.211 732.62 14.1395 732.246 14.068C728.804 14.1388 725.375 14.2098 721.943 14.2807C721.387 14.1523 720.832 14.0239 720.276 13.8955C719.171 13.8913 718.067 13.887 716.964 13.8827C717.696 13.9976 718.428 14.1125 719.16 14.2274C712.338 14.1502 704.064 14.2948 702.674 13.9114C701.225 13.9759 699.778 14.0403 698.332 14.1048C697.391 13.9754 696.452 13.846 695.512 13.7166C688.821 13.7224 688.767 13.8062 684.144 13.9223C684.325 13.8248 684.507 13.7274 684.688 13.6299C681.271 13.7545 675.054 13.8586 670.165 13.857C667.839 13.856 663.859 13.7053 663.313 13.7154C662.759 13.7262 657.335 14.2365 656.751 13.7741C648.837 13.9472 645.179 13.7249 641.932 13.7173C639.808 13.7125 638.839 13.8191 636.446 13.8212C633.022 13.8244 629.589 13.7577 627.624 13.7577C626.499 13.758 626.289 13.8648 625.515 13.8652C621.857 13.8674 623.998 13.7657 620.149 13.7579C619.779 13.7577 617.034 13.8784 613.78 13.8489C611.975 13.8326 607.324 13.6667 606.917 13.6655C605.102 13.661 606.544 13.962 600.355 13.5968C600.535 13.6537 600.714 13.7105 600.893 13.7673C593.242 13.8801 592.057 13.6251 590.518 13.6018C590.322 13.5996 588.471 13.6892 587.366 13.6716C585.499 13.6415 584.749 13.5061 584.336 13.4987C582.919 13.4729 577.896 13.5116 574.65 13.3709C575.323 13.7506 563.957 13.8405 561.47 13.4039C559.471 13.4804 557.476 13.5568 555.486 13.6333C554.586 13.5595 553.687 13.4857 552.789 13.4119C552.242 13.4799 551.696 13.5478 551.15 13.6157C548.299 13.4504 545.276 13.2843 542.349 13.1186C542.161 13.2724 541.973 13.4262 541.785 13.5801C540.961 13.5593 540.138 13.5385 539.316 13.5177C538.674 13.3924 538.033 13.2671 537.393 13.1418C536.366 13.1613 535.341 13.1807 534.317 13.2002C534.064 13.2881 533.81 13.3759 533.556 13.4638C528.068 13.5449 530.864 12.7082 520.471 13.4129C518.851 13.3366 517.272 13.2604 515.62 13.1839C513.754 13.5176 510.271 13.2976 507.473 13.325C505.502 13.3444 505.608 13.4803 502.929 13.4729C500.252 13.4654 500.35 13.3362 500.142 13.3346C497.964 13.3181 496.327 13.426 494.736 13.397C494.497 13.3927 493.896 13.2365 491.874 13.2189C489.853 13.2013 488.635 13.3602 485.64 13.3177C484.105 13.2961 483.62 13.1646 482.231 13.1477C475.577 13.066 468.947 13.6966 464.048 12.8989C462.907 12.9931 455.043 13.3078 451.486 13.2741C446.06 13.2212 448.154 13.0767 446.003 13.0403C445.696 13.0349 444.042 13.08 439.538 13.0532C438.733 13.0484 438.919 13.1354 438.804 13.136C433.526 13.1138 423.56 13.0069 417.636 12.9715C417.118 12.9682 414.391 13.198 409.825 12.8569C403.091 13.0694 390.361 12.5067 381.373 12.8316C380.135 12.8344 378.639 12.7426 378.093 12.7434C373.37 12.7516 375.225 13.0198 364.492 12.5958C365.369 12.7324 362.828 12.8426 359.277 12.8186C353.95 12.7826 357.729 12.5491 353.465 12.5528C353.465 12.6228 353.465 12.6929 353.464 12.763C343.699 12.5364 341.865 12.8288 331.88 12.7915C328.315 12.7779 323.123 12.6024 322.292 12.5987C321.966 12.5979 318.149 12.7519 317.79 12.7518C315.767 12.7489 314.548 12.6663 312.722 12.6587C306.669 12.6334 299.627 12.8256 300.905 12.4316C299.279 12.5094 297.661 12.5873 296.05 12.6653C290.086 12.2158 285.206 12.784 283.95 12.3652C282.836 12.4463 281.725 12.5274 280.619 12.6085C262.201 12.5057 242.827 12.3991 224.442 12.2961C216.455 12.2522 209.116 12.2108 201.322 12.1675C200.188 12.2962 188.692 12.2036 188.171 12.1808C185.492 12.0764 188.447 11.7977 182.754 11.8416C182.127 11.9663 181.503 12.091 180.881 12.2158C173.863 12.2295 177.246 12.1163 174.507 12.0192C173.372 12.0304 173.736 12.1306 172.209 12.1317C163.808 12.1378 146.28 12.0731 137.349 12.0456C135.426 12.0396 135.72 11.9485 135.126 11.9459C133.495 11.9403 130.311 12.0439 127.178 12.0314C107.611 11.9527 79.6186 11.7749 59.7725 11.5959C58.4991 11.584 58.2673 11.473 57.3383 11.4636C56.025 11.4511 53.2143 11.5285 51.9495 11.514C50.7981 11.5008 49.8699 11.4134 48.5288 11.3981C42.5803 11.3278 34.188 11.434 27.6973 11.1597C27.1794 11.1368 20.2801 10.6637 20.1195 10.6339C19.2232 10.4574 25.2458 10.2133 15.351 9.91679C24.2107 9.73576 21.4115 9.33557 9.89058 9.09161C15.6286 9.06995 21.5372 9.04655 27.3497 9.02249C27.3579 8.97639 27.366 8.93028 27.3742 8.88418C22.0305 8.63232 16.8018 8.53439 8.73113 8.47443C8.98392 8.43294 9.24475 8.39149 9.51394 8.35006C16.6754 8.17101 25.1926 8.16784 30.6097 7.89973C22.6059 7.64981 14.7675 7.4012 6.77045 7.14556C7.15254 7.11383 7.64503 7.08261 7.97979 7.05058C11.7747 6.98226 20.0529 6.96763 23.2671 6.89992C35.4583 6.64173 12.6542 6.62073 16.3968 6.44697C29.1759 6.51095 41.9739 6.57059 54.6553 6.62972C55.0993 6.49312 6.03622 5.90043 6.55943 5.47311C10.6399 5.46563 14.5533 5.45489 18.6309 5.44476C16.7128 5.32906 15.0703 5.21449 13.2211 5.09879C13.702 5.06707 14.2018 5.03543 14.7215 5.00386C21.4362 4.95112 28.2257 4.89685 34.9779 4.84212C14.4564 4.8372 4.88518 4.74022 -1.87391e-05 3.85007C0.551342 3.83467 1.09581 3.81811 1.66271 3.80079C6.16363 4.3637 27.0281 4.28027 38.314 4.22262C35.8822 4.05786 26.3504 4.13685 24.0745 4.03384C23.4904 4.00465 25.5302 3.90615 24.1742 3.84532C20.634 3.68812 5.36412 3.43322 7.66719 3.26832C9.07118 3.16574 33.5875 3.11811 38.3179 3.14892C27.0293 2.89873 15.593 2.79467 4.38942 2.49009C11.4742 2.18574 17.7735 1.79373 30.6425 1.8304C34.556 1.66815 7.21073 1.30042 6.58886 1.19525C11.3676 1.11437 16.0327 1.02979 20.7797 0.945543C16.8063 0.956116 12.8122 0.966366 8.77371 0.974756C8.76207 0.939543 8.75045 0.90433 8.73885 0.869118C19.0416 0.755449 28.7897 0.496524 40.4687 0.565934C40.1063 0.378448 33.0733 0.36746 29.5338 0.350604ZM1166.88 15.3753C1167.12 15.5304 1162.77 15.4883 1160.32 15.4758C1160.68 15.5053 1161.05 15.5348 1161.42 15.5643C1156.2 15.5149 1146.45 15.4179 1146.08 15.7158C1142.34 15.7385 1143.99 15.4846 1142.78 15.4504C1142.31 15.4367 1137.43 15.5692 1133.53 15.3698C1132.6 15.367 1131.68 15.3641 1130.75 15.3612C1130.57 15.4587 1130.39 15.5561 1130.21 15.6536C1128.92 15.5294 1127.63 15.4053 1126.34 15.2811C1139.83 15.3124 1153.39 15.344 1166.86 15.3752C1166.87 15.3752 1166.87 15.3752 1166.88 15.3753ZM1032.27 14.9803C1027.36 14.9059 1019.78 14.7891 1021.31 15.0638C1024.43 15.0617 1027.55 15.0597 1030.66 15.0576C1031.2 15.0318 1031.73 15.0061 1032.27 14.9803ZM542.927 12.8697C538.789 12.589 534.983 12.8031 528.647 12.7306C528.655 12.7866 528.663 12.8425 528.671 12.8985C531.258 12.7743 538.131 12.8903 542.927 12.8697ZM1288.94 14.8368C1289.85 14.861 1290.75 14.8853 1291.66 14.9095C1287.98 15.1958 1287.32 14.9815 1283.16 14.9945C1282.91 14.9954 1282.99 15.0645 1282.91 15.0646C1281.89 15.0653 1280.95 14.9788 1280.03 14.9765C1278.25 14.9722 1276.81 15.0505 1273.66 15.0354C1271.23 15.0234 1271.21 14.8914 1270.35 14.8914C1269.62 14.8919 1262.4 15.2268 1257.76 15.0521C1248.92 14.7194 1286.26 14.7985 1288.94 14.8368ZM1315.12 15.1865C1314.24 15.1843 1313.37 15.1821 1312.5 15.18C1315.12 14.9874 1309.82 14.9977 1305.93 14.9868C1306.05 14.7928 1314.28 14.9079 1317.97 14.8643C1317.02 14.9717 1316.07 15.0791 1315.12 15.1865ZM1204.69 14.3419C1208.1 14.3353 1207.53 14.5758 1207.39 14.6475C1206.3 14.6433 1205.21 14.6391 1204.13 14.6348C1204.31 14.5372 1204.5 14.4395 1204.69 14.3419ZM1230.39 14.3572C1229.33 14.518 1221.9 14.5613 1218.38 14.5612C1218.23 14.5606 1219.19 14.4739 1216.71 14.4727C1215.96 14.4724 1208.61 14.7732 1210.23 14.4058C1216.94 14.3896 1223.66 14.3734 1230.38 14.3572C1230.38 14.3572 1230.39 14.3572 1230.39 14.3572ZM1237.89 14.4837C1236.49 14.53 1235.1 14.5764 1233.69 14.6227C1232.97 14.5425 1232.25 14.4623 1231.52 14.3821C1233.12 14.3688 1234.71 14.3554 1236.3 14.342C1236.83 14.3892 1237.36 14.4365 1237.89 14.4837ZM186.282 10.1746C186.596 10.2586 186.912 10.3427 187.227 10.4267C188.433 10.4822 194.487 10.1457 192.571 10.0684C190.451 10.1037 188.355 10.1391 186.282 10.1746ZM160.285 9.89831C159.013 9.85152 157.751 9.80478 156.499 9.75807C155.052 9.89271 153.654 10.0276 152.198 10.1622C158.356 10.2812 165.242 10.4176 164.139 9.99925C165.618 10.0051 167.11 10.011 168.616 10.017C167.32 10.183 167.624 10.2406 171.295 10.3637C172.11 10.1288 175.96 10.2654 180.531 10.231C177.209 10.204 173.95 10.1772 170.751 10.1507C170.751 10.1087 170.751 10.0667 170.752 10.0247C177.861 10.068 169.206 9.76739 164.159 9.91438C163.778 9.85696 163.398 9.79955 163.019 9.74214C162.103 9.79418 161.191 9.84623 160.285 9.89831ZM689.085 12.0474C688.185 12.0017 687.286 11.956 686.388 11.9103C682.879 12.4467 689.997 11.9525 695.061 12.4075C693.385 12.0703 701.122 12.1142 701.57 12.0937C700.678 11.9789 699.787 11.8641 698.896 11.7494C695.618 11.8487 692.347 11.948 689.085 12.0474ZM663.331 11.568C666.426 11.8544 651.182 11.812 645.885 11.731C644.615 11.7112 642.357 11.5518 641.443 11.5673C640.889 11.6208 640.335 11.6743 639.781 11.7278C639.12 11.5328 628.989 11.7098 625.031 11.7979C624.658 11.7264 624.285 11.6549 623.912 11.5834C622.467 11.6056 621.024 11.6278 619.583 11.6501C619.764 11.5809 619.945 11.5118 620.127 11.4427C619.036 11.5225 617.946 11.6022 616.857 11.682C612.534 11.7586 615.197 11.3883 611.931 11.4944C608.297 11.6121 614.25 11.8619 614.141 12.009C617.112 11.9825 623.655 11.9228 626.628 11.9301C628.329 11.9344 626.391 12.1912 633.735 11.916C635.345 11.993 636.959 12.0701 638.574 12.1472C641.54 12.0461 644.514 11.9452 647.496 11.8442C648.052 11.9442 648.608 12.0443 649.164 12.1444C649.523 12.1611 656.278 11.965 655.923 11.8901C658.673 12.0879 664.33 12.1433 670.327 12.176C670.904 12.125 671.482 12.0741 672.06 12.0231C666.259 12.1155 670.214 11.9596 668.487 11.851C667.489 11.7884 664.444 11.6611 663.331 11.568ZM226.588 10.1188C225.764 10.1362 225.059 10.1509 224.449 10.1631C217.685 10.2899 221.892 10.1421 212.28 10.1042C213.009 10.2336 213.74 10.3629 214.474 10.4923C217.502 10.3686 221.757 10.3822 224.449 10.3439C226.23 10.3165 227.264 10.2635 226.598 10.1188C226.594 10.1188 226.591 10.1188 226.588 10.1188ZM123.743 10.1325C129.173 10.0777 126.38 9.86988 133.485 9.83516C133.488 9.83517 133.491 9.83519 133.495 9.8352C129.77 9.80622 126.231 9.77797 122.634 9.74946C123.018 9.87721 123.394 10.0049 123.743 10.1325ZM448.945 11.2552C454.333 11.3311 453.317 11.2288 458.088 11.4439C465.229 11.2333 459.183 11.2434 459.184 11.027C457.553 11.0841 455.926 11.1413 454.303 11.1984C450.251 10.9802 454.094 10.8933 454.095 10.8739C454.092 10.8739 454.088 10.8738 454.085 10.8738C454.085 10.8089 454.216 10.7957 452.662 10.7504C451.42 10.9186 450.182 11.0869 448.945 11.2552ZM471.735 11.0766C469.903 11.2132 469.073 11.3945 473.897 11.5054C473.901 11.5054 473.904 11.5054 473.908 11.5055C474.294 11.1857 478.933 11.4631 481.061 11.4498C481.619 11.4171 482.177 11.3843 482.736 11.3516C479.05 11.2598 475.383 11.1682 471.735 11.0766ZM552.253 11.0947C552.273 11.4496 548.274 11.4678 553.9 11.8167C554.994 11.8146 556.089 11.8125 557.185 11.8104C557.905 11.7353 558.626 11.6602 559.347 11.5852C573.328 12.2816 577.447 11.2043 553.901 11.5215C553.898 11.5217 553.895 11.522 553.891 11.5222C553.345 11.3797 552.799 11.2372 552.253 11.0947ZM527.56 11.0287C527.383 11.2143 527.205 11.3999 527.028 11.5854C523.933 11.1241 520.058 11.5377 513.952 11.1969C513.398 11.2514 512.844 11.3059 512.29 11.3604C509.946 11.2266 487.761 11.1044 492.574 11.4097C494.659 11.5429 499.23 11.3907 499.626 11.3961C500.961 11.4153 502.703 11.5821 504.968 11.5817C506.276 11.5812 509.039 11.4038 511.726 11.4146C517.826 11.4392 528.41 11.9854 536.308 11.538C536.873 11.5964 537.438 11.6547 538.003 11.7131C543.84 11.7015 541.889 11.516 547.343 11.7494C551.074 10.8791 525.518 11.7082 530.85 11.0115C530.847 11.0114 530.843 11.0114 530.84 11.0114C529.745 11.0172 528.652 11.0229 527.56 11.0287ZM367.852 10.6717C367.487 10.5114 360.663 10.7299 362.269 10.3555C360.046 10.4794 357.835 10.6033 355.633 10.7273C355.65 10.7628 355.667 10.7982 355.683 10.8337C357.871 10.8144 360.069 10.7951 362.278 10.7759C362.286 10.8321 362.294 10.8883 362.302 10.9445C365.718 10.7547 379.062 10.8952 378.69 11.0927C379.413 11.0115 380.137 10.9303 380.862 10.8492C387.302 11.103 393.17 10.8827 400.085 11.1329C400.627 11.0654 401.169 10.998 401.712 10.9305C402.065 10.988 402.419 11.0456 402.773 11.1031C405.328 11.1201 407.895 11.1372 410.474 11.1543C418.885 10.961 402.547 10.6046 400.629 10.6304C400.369 10.634 400.408 10.7795 398.786 10.796C395.986 10.8252 379.352 10.6156 374.437 10.6923C374.394 10.5957 374.351 10.4991 374.308 10.4025C372.147 10.4922 370.008 10.582 367.852 10.6717ZM583.486 11.5955C583.85 11.695 584.215 11.7946 584.58 11.8942C590.884 11.8207 594.889 11.9219 593.262 11.591C593.259 11.591 593.255 11.591 593.252 11.591C589.986 11.5924 586.731 11.5939 583.486 11.5955ZM1056.34 13.5136C1056.18 13.3178 1053.13 13.2331 1049.2 13.3577C1049.39 13.4151 1049.58 13.4725 1049.77 13.5298C1051.82 13.3717 1054.37 13.6711 1060.7 13.6572C1060.7 13.559 1060.7 13.4609 1060.7 13.3628C1059.25 13.413 1057.8 13.4633 1056.34 13.5136ZM577.97 11.5316C576.011 11.4082 570.536 11.738 574.139 11.7694C576.895 11.7932 579.02 11.5978 577.97 11.5316ZM101.773 9.85501C103.189 9.8812 104.626 9.90747 106.083 9.93381C106.842 9.85336 107.607 9.77293 108.378 9.69251C108.374 9.6925 108.371 9.69249 108.368 9.69247C106.122 9.74647 103.924 9.80065 101.773 9.85501ZM430.7 11.2002C435.532 11.2068 440.402 11.2136 445.31 11.2205C445.359 11.1663 445.408 11.112 445.458 11.0578C440.542 11.2373 438.589 11.0155 437.45 10.998C437.455 10.998 437.46 10.998 437.465 10.9981C433.814 10.9407 430.357 10.8955 426.943 10.8172C428.192 10.9448 429.445 11.0725 430.7 11.2002ZM413.948 10.7914C414.778 11.1793 415.83 11.2282 423.43 10.9873C423.128 10.9388 422.827 10.8902 422.527 10.8417C418.589 10.8547 416.313 10.9346 417 10.7367C415.981 10.7549 414.964 10.7732 413.948 10.7914ZM490.37 11.2121C489.484 11.0862 482.405 11.1816 482.756 11.2447C482.978 11.2701 492.096 11.4589 490.37 11.2121ZM1110.55 13.6387C1108.9 13.6042 1107.25 13.5698 1105.6 13.5353C1107.8 13.5021 1110 13.4688 1112.18 13.4356C1111.64 13.5033 1111.1 13.571 1110.55 13.6387ZM1128.58 13.1614C1129.75 13.215 1125.93 13.5461 1132.94 13.6625C1127.84 13.65 1122.75 13.6376 1117.66 13.6252C1120.04 13.5786 1122.43 13.5319 1124.82 13.4853C1124.4 13.3843 1123.99 13.2833 1123.57 13.1823C1125.24 13.1754 1126.91 13.1684 1128.58 13.1614ZM1134.05 13.4361C1131.3 13.1626 1145.78 13.1989 1147.13 13.2363C1147.43 13.2451 1148.86 13.4499 1149.39 13.4948C1147.2 13.4865 1145.01 13.4783 1142.82 13.4701C1143.55 13.5356 1144.28 13.6012 1145.02 13.6668C1142.46 13.6784 1139.9 13.6899 1137.34 13.7015C1138.43 13.6428 1139.53 13.584 1140.62 13.5253C1138.43 13.4955 1136.24 13.4658 1134.05 13.4361ZM1076.04 13.275C1077.87 13.2887 1079.69 13.3023 1081.52 13.316C1081.15 13.2164 1080.79 13.1169 1080.42 13.0173C1079.33 13.0131 1078.24 13.0089 1077.15 13.0046C1076.78 13.0947 1076.41 13.1849 1076.04 13.275ZM1113.31 13.2927C1110.66 13.755 1103.38 12.6937 1111.88 13.1092C1112.73 13.1514 1113.56 13.248 1113.31 13.2927ZM1152.56 13.3137C1158.23 12.9912 1156.96 13.7469 1151.59 13.5033C1151.32 13.4904 1152.14 13.3375 1152.56 13.3137ZM1195.18 13.4679C1195.64 13.4722 1196.45 13.7216 1200.84 13.5044C1201.56 13.5353 1202.29 13.5662 1203.01 13.5971C1201.32 13.705 1186.79 13.7168 1188.8 13.4805C1191.02 13.4853 1192.89 13.4514 1195.18 13.4679ZM1181.1 12.5022C1178.92 12.5006 1176.74 12.499 1174.56 12.4974C1175.27 12.5773 1175.99 12.6572 1176.71 12.7372C1175.64 12.754 1174.57 12.7708 1173.49 12.7877C1171.66 12.6475 1169.83 12.5074 1168 12.3672C1172.73 12.3643 1177.47 12.3614 1182.22 12.3586C1181.85 12.4065 1181.47 12.4543 1181.1 12.5022ZM1123.13 12.0871C1127.32 12.2002 1132.46 12.117 1139.28 12.16C1139.28 12.1602 1139.28 12.1605 1139.29 12.1607C1139.63 12.1632 1140.23 12.2715 1141.32 12.28C1142.26 12.287 1160.68 12.242 1159.23 12.416C1152.13 12.5495 1149.46 12.2943 1147.75 12.6872C1147.4 12.6016 1147.05 12.516 1146.7 12.4304C1139.84 12.258 1137.89 12.542 1134.04 12.6341C1134.06 12.5706 1134.07 12.5072 1134.09 12.4438C1131.52 12.4275 1128.95 12.4112 1126.39 12.3949C1126.75 12.4381 1127.11 12.4812 1127.47 12.5244C1126.56 12.5209 1125.66 12.5173 1124.75 12.5138C1122.54 12.3172 1119.74 12.2625 1123.13 12.0871ZM1191.01 12.6453C1193.04 12.1717 1212.64 12.5775 1221.62 12.5113C1216.91 12.7829 1209.61 12.5549 1204.48 12.532C1194.56 12.4881 1201.42 12.6921 1199.73 12.7634C1198.9 12.7986 1193.29 12.4682 1191.01 12.6453ZM1107.82 12.112C1112.8 12.1702 1115.53 12.07 1119.81 12.2633C1119.46 12.297 1119.1 12.3308 1118.74 12.3646C1117.28 12.3267 1105.32 12.1788 1107.82 12.112ZM1234.79 12.6883C1225.21 12.4783 1229.93 12.9325 1224.96 12.5864C1228.23 12.5784 1231.51 12.5703 1234.79 12.5623C1234.79 12.6043 1234.79 12.6463 1234.79 12.6883ZM566.974 9.67758C562.938 9.65088 558.456 9.5456 556.063 9.71793C558.783 9.75658 561.511 9.79526 564.248 9.83397C565.156 9.78184 566.064 9.72971 566.974 9.67758ZM681.968 8.34971C681.041 8.30257 677.38 8.41685 676.996 8.41536C676.28 8.41258 676.476 8.35004 676.466 8.33347C671.785 8.32677 676.101 8.53985 672.641 8.5691C672.046 8.57383 663.938 8.44531 660.66 8.44055C655.595 8.43314 650.636 8.40116 648.679 8.39695C645.45 8.38993 639.472 8.51398 634.214 8.50116C632.045 8.49562 631.29 8.37478 629.116 8.36929C615.31 8.33554 587.596 8.38972 575.198 8.26671C572.11 8.23611 569.177 8.07032 567.553 8.0766C566.272 8.12801 564.993 8.17943 563.716 8.23086C559.792 7.70794 558.48 8.15437 554.272 8.18536C551.6 8.20489 550.358 8.04965 550 8.04863C547.631 8.04238 546.392 8.10917 544.5 8.11367C542.365 8.11847 539.31 8.03875 538.551 8.04806C538.089 8.05448 539.558 8.26011 531.352 8.2244C523 8.18798 514.865 8.1352 506.247 8.09232C509.095 8.70698 511.558 8.30347 515.071 8.2951C516.014 8.29285 515.416 8.38636 516.237 8.38533C518.507 8.38273 522.841 8.30543 524.728 8.3356C526.763 8.36813 526.065 8.58753 528.651 8.51565C528.782 8.51193 528.368 8.41859 528.977 8.40559C535.102 8.27766 537.108 8.44501 544.93 8.48008C550.093 8.50353 581.208 8.53346 582.387 8.59787C587.997 8.94094 554.918 8.81455 551.221 8.7748C549.889 8.76071 551.285 8.66486 550.072 8.6407C549.601 8.6311 544.83 8.80568 540.191 8.80369C534.558 8.80122 523.364 8.62594 518.114 8.61016C472.403 8.47249 427.107 8.1794 381.389 7.99851C380.415 7.99471 379.129 8.1054 375.976 8.09311C326.429 7.89801 274.844 7.63193 224.459 7.44529C214.336 7.40769 205.129 7.37645 195.162 7.34596C182.375 7.30739 169.096 7.36375 155.935 7.22536C154.305 7.30338 152.814 7.38194 151.066 7.45948C155.258 7.40894 162.801 7.62988 163.566 7.6357C163.822 7.63756 165.425 7.54866 168.068 7.56416C171.642 7.58506 173.152 7.67362 173.455 7.67481C174.359 7.67865 173.766 7.58847 174.631 7.59231C181.073 7.62157 186.426 7.61776 192.201 7.6397C198.856 7.66512 202.642 7.84365 207.389 7.6827C207.934 7.75491 208.481 7.82713 209.029 7.89936C210.839 7.7548 217.165 7.71236 224.458 7.7136C231.284 7.71307 239.03 7.75587 243.584 7.78177C246.477 7.79824 245.912 7.91908 246.849 7.92276C247.448 7.92496 247.164 7.76272 254.438 7.8229C258.117 7.85339 259.101 7.97462 260.969 7.97814C261.987 7.97989 261.821 7.86284 263.288 7.86859C271.836 7.90209 278.284 7.96512 286.658 8.01946C288.996 8.03453 289.026 8.13181 289.551 8.13259C291.551 8.13608 294.662 7.98372 299.469 8.00296C307.381 8.03476 323.248 8.09736 329.684 8.20239C330.639 8.21796 331.432 8.33762 332.138 8.33869C333.206 8.33988 333.627 8.21992 333.815 8.22C337.401 8.2319 335.242 8.33655 337.651 8.31848C338.928 8.30866 340.396 8.17569 343.277 8.17127C347.149 8.16568 346.39 8.32735 348.015 8.31721C348.187 8.31531 348.237 8.20102 349.84 8.20349C355.875 8.21353 364.987 8.22266 370.71 8.24541C372.351 8.25181 373.573 8.33365 375.875 8.34393C380.482 8.36446 407.191 8.4195 409.302 8.4721C409.532 8.47764 407.167 8.6373 410.935 8.64692C412.031 8.58088 413.129 8.51485 414.229 8.44882C416.068 8.56854 417.912 8.68827 419.763 8.80803C419.742 8.41909 430.481 8.40089 430.349 8.79801C431.516 8.81867 432.685 8.83934 433.856 8.86002C436.298 8.5948 437.92 8.70254 442.676 8.55967C443.418 8.64678 444.16 8.7339 444.903 8.82102C445.091 8.7656 445.278 8.71018 445.466 8.65476C448.009 8.96896 452.212 8.6798 452.725 8.6801C454.716 8.68111 456.105 8.76387 457.014 8.76492C460.362 8.76993 467.671 8.69181 471.652 8.75673C471.839 8.76 471.654 8.88936 472.786 8.90983C474.828 8.94679 475.027 8.75712 477.76 8.99145C478.313 8.93744 478.866 8.88345 479.419 8.82945C480.006 8.86079 480.594 8.89212 481.182 8.92347C484.692 8.92224 488.043 8.92039 491.455 8.91877C488.36 9.12696 491.915 9.2638 495.296 9.10364C496.44 9.04932 495.426 8.91131 495.807 8.8925C496.306 8.86696 511.755 8.99534 512.81 9.0861C513.547 9.04673 514.285 9.00736 515.023 8.968C515.396 9.05392 515.769 9.13984 516.143 9.22577C516.557 9.19784 516.943 9.1698 517.343 9.14181C521.289 9.30594 531.653 9.005 533.551 9.03933C534.561 9.05764 533.646 9.41412 538.496 9.3962C538.665 9.29799 538.833 9.19977 539.002 9.10155C540.114 9.09171 541.227 9.08188 542.342 9.07206C544.433 9.089 547.487 9.27224 547.585 9.3898C548.241 9.32204 548.903 9.25431 549.538 9.18646C551.252 9.42221 560.471 9.37686 564.215 9.24645C565.306 9.31979 566.399 9.39313 567.493 9.46647C568.964 9.38821 570.437 9.30995 571.913 9.2317C575.332 9.2197 571.719 9.34528 572.448 9.35976C573.983 9.38982 581.872 9.18463 581.354 9.47641C582.44 9.48136 583.473 9.4861 584.533 9.49096C585.077 9.40909 585.62 9.32722 586.164 9.24535C587.978 9.54195 591.113 9.45191 597.598 9.58275C598.142 9.51821 598.687 9.45368 599.232 9.38915C601.24 9.49168 603.252 9.59422 605.268 9.69678C605.682 9.58804 606.097 9.4793 606.512 9.37056C607.389 9.3581 608.268 9.34565 609.147 9.33319C610.931 9.58732 614.146 9.33269 615.786 9.44102C618.132 9.59893 616.338 9.76927 611.891 9.78623C612.285 9.96779 625.259 9.93554 628.278 9.93412C628.079 9.8982 627.881 9.86227 627.682 9.82634C624.607 9.84223 621.54 9.85814 618.482 9.87409C615.921 9.41141 624.224 9.5651 628.064 9.52168C628.415 9.51745 630.399 9.35364 634.276 9.38468C635.775 9.39684 641.648 9.67036 642.774 9.68868C651.84 9.83837 645.245 9.45453 654.024 9.80269C652.2 9.55508 657.225 9.77446 662.489 9.74841C663.381 9.74393 670.999 9.57853 671.519 9.57547C674.736 9.55668 671.231 9.75567 675.891 9.71842C676.451 9.66469 677.012 9.61096 677.573 9.55723C678.659 9.56145 679.747 9.56567 680.835 9.5699C687.467 10.0939 688.926 9.73264 691.255 9.69458C692.191 9.67919 690.985 9.8045 693.414 9.78646C694.329 9.77979 695.343 9.67558 697.81 9.67755C705.536 9.68392 708.169 10.1571 715.324 9.70306C716.423 9.77715 717.522 9.85124 718.623 9.92533C719.365 9.84448 720.109 9.76363 720.853 9.68277C726.492 9.94765 724.443 9.69082 726.473 9.70166C731.809 9.72998 742.811 9.82032 743.781 10.0244C748.432 9.58225 754.014 10.1231 755.859 10.1123C756.952 10.0607 758.055 10.009 759.143 9.95735C760.411 10.0184 761.681 10.0795 762.952 10.1406C762.334 9.68623 768.922 10.1562 769.558 10.1655C770.285 10.1751 780.458 10.0808 784.267 10.0981C788.061 10.1153 794.701 10.2635 795.288 10.2661C795.976 10.2687 802.359 10.1706 807.39 10.1914C811.741 10.2096 838.017 10.4861 836.317 10.278C834.627 10.2157 832.178 10.1578 830.062 10.1234C823.443 10.0174 785.226 9.76624 775.375 9.69589C755.883 9.55643 735.22 9.48808 715.548 9.36775C714.381 9.36069 714.204 9.24286 713.203 9.23634C711.684 9.22706 707.836 9.32937 706.346 9.32105C700.772 9.28926 694.03 9.24397 691.072 9.22952C684.512 9.19813 679.805 9.1093 674.772 9.07835C673.186 9.06881 665.198 9.183 659.762 9.10062C658.776 9.06383 657.791 9.02705 656.807 8.99027C659.601 8.96265 666.966 8.89173 670.403 8.89366C675.513 8.89704 678.193 9.00246 680.088 9.00817C681.691 9.01312 689.76 8.93624 693.392 8.94776C694.525 8.95132 694.757 9.07507 695.728 9.07841C700.995 9.0959 707.967 9.11968 712.578 9.01712C710.686 9.04909 722.476 9.17022 723.07 9.1721C724.113 9.17612 725.245 9.06556 727.379 9.07384C731.485 9.08984 730.962 9.32824 736.108 9.10772C737.383 9.18274 738.658 9.25775 739.935 9.33277C739.992 9.01268 756.219 9.51135 760.802 9.13984C760.968 9.09652 739.855 8.88984 738.162 8.87693C727.839 8.79841 712.41 8.81706 702.33 8.72173C699.292 8.69303 689.806 8.46147 689.097 8.46235C687.945 8.46337 688.985 8.5788 688.488 8.58083C678.224 8.6238 683.331 8.41976 681.968 8.34971ZM1134.04 11.9185C1130.93 11.8932 1127.81 11.868 1124.7 11.8427C1124.92 11.7733 1125.15 11.7039 1125.37 11.6344C1126.8 11.6673 1128.23 11.7002 1129.66 11.733C1130.75 11.6953 1131.85 11.6576 1132.95 11.6198C1133.31 11.7194 1133.68 11.8189 1134.04 11.9185ZM1141.73 11.6539C1144.44 11.629 1144.57 11.7777 1145.2 11.7874C1147.06 11.8166 1148.68 11.7629 1150.49 11.772C1148.4 12.1161 1143.96 11.9375 1141.73 11.6539ZM1085.89 11.3108C1086.5 11.33 1090.56 11.7249 1095.2 11.39C1098.66 11.5155 1102.13 11.641 1105.6 11.7665C1099.7 11.5725 1091.56 11.7189 1088.68 11.701C1087.59 11.6941 1087.38 11.577 1086.5 11.5717C1081.47 11.5429 1076.58 11.7876 1076.07 11.4001C1080.82 11.5306 1085.11 11.287 1085.89 11.3108ZM1116.32 11.5656C1117.12 11.6493 1117.93 11.733 1118.73 11.8167C1115.82 11.8054 1112.93 11.7942 1110.01 11.7829C1110.8 11.7044 1111.59 11.6259 1112.37 11.5474C1113.69 11.5535 1115 11.5596 1116.32 11.5656ZM892.192 10.4303C893.989 10.4382 895.788 10.4461 897.588 10.4541C897.489 10.395 895.43 10.3873 894.673 10.3447C894.676 10.3447 894.679 10.3447 894.683 10.3447C893.839 10.2966 894.2 10.2224 892.666 10.1831C892.508 10.2655 892.35 10.3479 892.192 10.4303ZM148.838 7.19869C145.679 7.18201 118.263 7.07246 120.398 7.29504C121.798 7.40758 130.939 7.35075 133.897 7.36419C137.919 7.38237 147.731 7.6529 148.838 7.19869ZM99.6292 6.96073C99.0364 7.17177 116.492 7.2756 118.162 7.2451C117.798 7.21322 117.239 7.14326 116.758 7.12597C114.503 7.04343 103.219 7.03348 99.6292 6.96073ZM791.611 9.42417C793.02 9.53755 794.43 9.65092 795.841 9.76431C795.47 9.62249 795.099 9.48067 794.729 9.33886C793.689 9.36729 792.65 9.39573 791.611 9.42417ZM655.688 9.05111C632.282 8.95337 608.913 8.85575 585.672 8.75858C587.707 8.70814 589.746 8.65772 591.79 8.60731C611.941 8.70634 633.266 8.84826 652.83 8.8342C653.782 8.9065 654.735 8.9788 655.688 9.05111ZM1079.33 10.6533C1073.36 10.628 1068.37 10.7118 1061.84 10.5225C1068.06 10.3877 1071.14 10.6455 1077.14 10.4346C1077.15 10.4346 1077.15 10.4346 1077.15 10.4346C1077.88 10.5075 1078.6 10.5804 1079.33 10.6533ZM945.811 10.0932C947.634 10.0022 949.474 9.91116 951.285 9.82004C949.104 9.81158 946.894 9.80301 944.701 9.79451C945.071 9.89409 945.441 9.99366 945.811 10.0932ZM452.106 7.71385C445.728 7.90322 429.762 7.45332 424.793 7.69167C424.448 7.70724 427.512 7.82793 422.572 8.01919C426.332 7.99074 428.82 7.95644 429.113 7.792C430.197 7.85237 431.283 7.91276 432.371 7.97314C434.176 7.9377 435.986 7.90227 437.802 7.86687C437.605 8.03096 437.745 8.02272 440.541 7.92075C441.817 7.96747 443.095 8.01419 444.375 8.06092C444.918 7.99322 445.461 7.92551 446.005 7.8578C447.115 7.95978 448.227 8.06177 449.341 8.16376C453.69 8.07476 451.043 7.87523 452.106 7.71385ZM473.93 7.8391C472.82 7.7985 444.116 7.80513 457.155 8.18467C460.539 8.18735 463.941 8.1901 467.36 8.19291C464.526 7.63742 473.855 8.16064 474.636 8.1751C478.313 8.2426 483.075 8.13166 485.731 8.14871C487.991 8.16342 489.337 8.26633 490.933 8.27003C496.362 8.28271 505.043 8.31292 506.247 8.09232C501.963 8.07096 497.634 8.0517 493.229 8.0402C488.576 8.02801 484.514 7.79956 475.602 8.05655C473.412 8.01668 474.194 7.84943 473.93 7.8391ZM956.738 9.86388C956.516 10.0893 967.562 10.078 967.636 9.98889C967.658 9.93656 964.057 9.92384 963.544 9.90198C963.54 9.90197 963.537 9.90196 963.533 9.90194C963.319 9.89243 964.407 9.81002 962.716 9.77939C960.722 9.80755 958.729 9.83571 956.738 9.86388ZM192.06 6.86352C190.922 6.73212 156.201 6.64055 155.425 6.69821C155.157 6.71403 155.53 6.77121 155.424 6.80294C163.307 6.65501 174.643 6.9119 182.288 6.95606C184.442 6.96834 183.802 6.87585 183.923 6.87463C183.928 6.87465 183.933 6.87467 183.938 6.87469C185.268 6.87972 190.462 7.12 192.06 6.86352ZM413.736 7.75185C415.195 7.79294 416.658 7.83404 418.125 7.87515C418.497 7.80654 418.87 7.73792 419.243 7.66931C419.24 7.6693 419.236 7.66928 419.233 7.66927C417.395 7.69677 415.563 7.7243 413.736 7.75185ZM363.434 7.32494C363.792 7.37565 364.15 7.42637 364.509 7.47708C368.286 7.49866 371.797 7.5192 375.444 7.54026C375.078 7.56667 374.713 7.59307 374.347 7.61948C379.829 7.71527 382.132 7.55094 385.088 7.58741C385.084 7.58739 385.081 7.58738 385.078 7.58737C385.396 7.59151 385.781 7.69576 386.968 7.70387C389.675 7.72246 397.58 7.79153 398.429 7.69144C400.502 7.47892 384.691 7.52197 381.818 7.50068C380.503 7.4909 378.927 7.39484 378.131 7.38962C377.26 7.38425 376.072 7.50104 373.96 7.48906C373.336 7.48536 366.53 7.31595 363.434 7.32494ZM298.809 7.21962C299.926 7.33517 302.273 7.23697 303.139 7.25854C303.346 7.26364 301.738 7.35041 303.687 7.38592C304.239 7.32461 304.792 7.26329 305.346 7.20199C303.153 7.20781 300.974 7.21369 298.809 7.21962ZM975.317 9.82897C974.997 9.80388 969.052 9.78956 968.768 9.80359C965.206 9.99268 977.518 10.0184 975.317 9.82897ZM1125.3 10.1781C1122.54 9.87251 1155.05 10.2884 1158.16 10.2849C1158 10.4696 1150.3 10.2535 1154.33 10.5235C1150.48 10.3687 1139.79 10.4015 1137.28 10.3513C1135.76 10.3208 1135.38 10.1592 1135.15 10.1533C1134.24 10.1317 1126.26 10.2858 1125.3 10.1781ZM1184.95 10.5147C1181.86 10.4676 1178.78 10.4205 1175.69 10.3734C1179.33 10.3665 1182.97 10.3596 1186.62 10.3527C1186.06 10.4067 1185.5 10.4607 1184.95 10.5147ZM1188.83 10.4455C1188.74 10.2655 1199.2 10.4429 1201.94 10.4121C1198.84 10.7057 1193.69 10.3976 1188.83 10.4455ZM1014.74 9.51818C1009.92 9.3807 1007.84 9.92029 1013.71 9.7046C1013.89 9.69741 1014.94 9.52525 1014.74 9.51818ZM450.601 6.93749C449.756 6.93082 439.478 6.71323 438.9 6.7989C437.027 7.0721 443.737 6.98574 446.007 7.1005C449.666 7.28638 444.268 7.40677 453.229 7.3381C452.861 7.39282 452.494 7.44754 452.127 7.50226C457.363 7.54125 455.605 7.14543 456.543 7.09906C456.822 7.08494 460.026 7.13012 460.607 7.10756C467.826 6.8223 451.493 6.94358 450.601 6.93749ZM895.412 9.01381C885.814 8.81174 889.936 9.06962 880.115 9.01675C879.78 9.13888 894.153 9.11715 895.412 9.01381ZM544.035 7.52301C534.026 7.53267 525.885 7.33958 516.742 7.52086C517.252 7.85679 546.565 7.61908 544.035 7.52301ZM77.7611 5.35432C116.278 6.10494 160.934 6.08589 201.99 6.23837C206.654 6.25589 206.857 6.38909 208.496 6.38117C209.539 6.37597 209.356 6.26861 210.749 6.27359C215.239 6.28972 219.81 6.30519 224.462 6.32023C270.292 6.46711 314.997 6.53133 359.495 6.76319C362.679 6.77985 377.536 7.06684 380.735 6.73402C383.142 6.48145 372.431 6.64391 370.686 6.63475C369.359 6.62788 369.304 6.50455 368.421 6.50067C367.479 6.49657 368.261 6.58374 367.139 6.58063C362.363 6.5679 357.211 6.51492 352.984 6.5056C311.489 6.41247 270.93 6.23412 229.63 6.06001C224.712 6.03941 225.74 5.9448 225.489 5.94339C225.486 5.94363 225.483 5.94386 225.479 5.94409C225.141 5.94264 224.802 5.94122 224.464 5.93985C197.916 5.83211 167.375 5.92618 139.526 5.73206C119.595 5.58498 99.4061 5.4365 79.4548 5.28794C78.8861 5.31005 78.3215 5.33218 77.7611 5.35432ZM471.732 7.36767C469.238 6.98597 468.649 7.35874 459.76 7.17237C459.037 7.23304 458.316 7.2937 457.595 7.35437C462.28 7.3587 466.997 7.36315 471.747 7.36773C471.742 7.36771 471.737 7.36769 471.732 7.36767ZM412.543 7.00161C410.986 6.49314 391.109 6.77071 381.961 6.6392C380.278 6.88494 393.505 6.82319 396.629 6.86193C398.143 6.88093 406.31 7.17228 412.628 7.05321C412.6 7.03601 412.571 7.01881 412.543 7.00161ZM1091.36 9.30832C1089.9 9.31732 1088.45 9.32632 1086.99 9.33532C1090.63 9.40511 1094.28 9.47491 1097.94 9.54473C1092.11 9.48626 1086.29 9.42782 1080.48 9.36942C1081.56 9.26937 1082.65 9.16932 1083.73 9.06927C1086.27 9.14895 1088.82 9.22863 1091.36 9.30832ZM1072.51 9.28871C1082.67 9.28884 1072.07 9.52682 1069.52 9.39284C1067.99 9.31252 1071.47 9.28894 1072.51 9.28871ZM1045.96 9.0064C1050.71 8.84178 1060.33 8.86647 1056.91 9.21875C1051.77 9.02762 1048.45 9.15703 1041.02 9.02971C1042.1 8.96385 1043.19 8.89799 1044.28 8.83214C1044.28 8.83216 1044.29 8.83218 1044.29 8.8322C1044.85 8.89026 1045.41 8.94833 1045.96 9.0064ZM1077.15 9.08552C1083.81 9.32134 1064.52 9.17478 1070.59 9.0601C1070.88 9.05486 1076.89 9.07647 1077.15 9.08552ZM120.406 5.14765C119.589 5.26384 124.832 5.28252 126.436 5.29693C133.823 5.36186 143.194 5.34713 151.084 5.39489C150.487 5.35322 149.893 5.31156 149.301 5.2699C139.615 5.22904 129.992 5.18834 120.406 5.14765ZM175.082 5.49061C180.275 5.51114 185.927 5.53345 190.973 5.55335C191.456 5.55526 193.747 5.46179 192.045 5.43014C186.606 5.45117 180.657 5.47017 175.082 5.49061ZM505.145 6.78142C501.068 6.69866 512.814 6.40151 512.295 6.76675C509.904 6.77161 507.521 6.7765 505.145 6.78142ZM542.932 6.78192C540.367 6.80685 537.81 6.83182 535.26 6.85681C535.257 6.81457 535.254 6.77232 535.251 6.73007C537.803 6.74732 540.364 6.76461 542.932 6.78192ZM99.636 4.98032C102.153 5.13496 108.906 5.13977 112.743 5.15806C110.228 5.02383 103.208 5.05678 99.636 4.98032ZM444.36 6.39684C444.66 6.4965 428.572 6.40904 434.14 6.25741C437.528 6.30382 440.935 6.35029 444.36 6.39684ZM411.568 6.12331C415.035 6.11528 417.744 6.15967 417.025 6.31157C415.174 6.29777 413.33 6.28399 411.492 6.27023C411.517 6.22126 411.543 6.17228 411.568 6.12331ZM1027.9 8.64195C1022.04 8.63317 1016.2 8.62444 1010.37 8.61574C1010.58 8.57435 1010.8 8.53295 1011.02 8.49155C1016.64 8.49968 1022.27 8.50785 1027.92 8.51606C1027.91 8.55802 1027.9 8.59998 1027.9 8.64195ZM96.333 4.58767C92.1415 4.59842 88.511 4.61139 84.2932 4.62195C88.514 4.66731 92.1478 4.71026 96.3427 4.75543C96.3429 4.69928 96.3431 4.64313 96.3433 4.58698C96.3399 4.58721 96.3364 4.58744 96.333 4.58767ZM1107.79 8.40449C1089.93 8.13828 1112.76 8.01855 1117.41 8.32603C1117.41 8.3258 1117.42 8.32558 1117.42 8.32535C1117.83 8.35253 1116.96 8.47288 1117.65 8.52544C1115.84 8.46252 1114.03 8.39961 1112.22 8.33669C1110.57 8.39988 1108.91 8.463 1107.25 8.52616C1106.7 8.4967 1106.16 8.46724 1105.61 8.43778C1106.34 8.42668 1107.07 8.41559 1107.79 8.40449ZM1179.69 8.57323C1195.87 8.65876 1179.31 8.90396 1171.32 8.62867C1171.37 8.57235 1178.2 8.56535 1179.69 8.57323ZM1137.35 8.4758C1134.8 8.494 1132.25 8.51221 1129.71 8.53042C1129.38 8.49376 1129.06 8.4571 1128.73 8.42044C1130.68 8.39286 1132.64 8.36528 1134.59 8.3377C1135.51 8.38373 1136.43 8.42976 1137.35 8.4758ZM1053.61 7.60493C1049.52 7.55016 1044.28 7.9235 1057.45 7.87101C1057.44 7.82874 1057.44 7.78648 1057.43 7.74422C1056.9 7.74893 1055.36 7.78258 1055.28 7.7791C1055.04 7.7676 1055.32 7.62767 1053.61 7.60493ZM1209.61 7.57665C1210.07 7.56236 1210.32 7.11782 1215.11 7.5972C1216.55 7.57473 1218 7.55227 1219.45 7.5298C1219.82 7.62939 1220.19 7.72898 1220.57 7.82857C1214.97 7.73078 1214.37 7.92705 1213.97 7.92971C1212.11 7.94108 1213.49 7.84428 1212.28 7.83822C1209.18 7.82283 1202.15 7.86414 1205.34 7.585C1206.49 7.48504 1209.15 7.59093 1209.61 7.57665ZM1198.68 7.28087C1199.36 7.32068 1197.17 7.44254 1197.68 7.48135C1198.13 7.51521 1204.87 7.67428 1203.04 7.88737C1201.94 7.87381 1200.83 7.86025 1199.72 7.84668C1199.35 7.78493 1198.98 7.72318 1198.6 7.66142C1197.53 7.71293 1196.46 7.76445 1195.39 7.81596C1193.59 7.66019 1189.73 7.45249 1194.31 7.34889C1192.63 7.35509 1190.94 7.36124 1189.26 7.36742C1188.39 7.43533 1187.52 7.50324 1186.65 7.57115C1187.1 7.46428 1187.56 7.35741 1188.02 7.25054C1191.58 7.26068 1195.13 7.27079 1198.68 7.28087ZM1250.73 7.5243C1250.52 7.57966 1250.32 7.63502 1250.11 7.69037C1256.28 7.60987 1265.89 7.60741 1260.43 7.93835C1252.07 7.93526 1243.72 7.93221 1235.38 7.92918C1234.83 7.88481 1234.27 7.84041 1233.72 7.79602C1239.95 7.98289 1238.02 7.28298 1243.44 7.50264C1244.35 7.53986 1241.7 7.77174 1247.44 7.639C1247.24 7.58182 1247.03 7.52463 1246.83 7.46744C1248.13 7.48639 1249.43 7.50535 1250.73 7.5243ZM1303.75 7.81397C1293.19 7.69188 1304.82 7.53205 1306.78 7.70996C1306.77 7.70995 1306.77 7.70994 1306.77 7.70992C1312.11 8.1968 1300.61 7.92703 1299.91 7.92727C1298.98 7.92779 1296.81 8.2531 1291.74 7.74694C1295.75 7.76928 1299.75 7.79162 1303.75 7.81397ZM1269.28 7.5969C1270.17 7.58935 1269.67 7.6722 1270.06 7.67243C1270.06 7.67245 1270.06 7.67246 1270.07 7.67247C1275.74 7.67627 1289.16 7.65238 1290.62 7.93154C1286.44 7.93816 1267.72 7.92473 1266.58 7.7344C1267.48 7.68856 1268.38 7.64273 1269.28 7.5969ZM1229.5 7.64639C1226.03 7.45585 1233.86 7.46261 1235.9 7.55254C1236.29 7.5718 1233.1 7.84378 1229.5 7.64639ZM963.285 6.15765C955.665 6.23463 965.676 6.37975 962.21 6.53286C963.665 6.52435 965.121 6.51583 966.578 6.50732C965.479 6.39076 964.382 6.2742 963.285 6.15765ZM615.228 4.47093C613.43 4.44427 614.282 4.54925 614.125 4.55014C612.945 4.54272 611.834 4.45558 611.381 4.46258C603.029 4.59733 608.583 4.7043 608.666 4.72448C608.842 4.82575 606.647 4.93493 609.687 5.0617C611.534 5.03323 613.383 5.00477 615.236 4.97633C616.166 5.03585 617.049 5.09518 617.955 5.15461C621.565 5.04869 616.84 4.99743 616.308 4.8362C616.096 4.77282 619.512 4.71119 615.228 4.47093ZM949.644 5.76785C948.399 5.93972 945.351 6.15081 948.343 6.33995C948.347 6.33996 948.35 6.33997 948.354 6.33999C948.908 6.37462 951.161 6.40122 951.842 6.44946C956.734 6.23302 954.87 5.98253 949.644 5.76785ZM648.099 4.28223C651.112 4.33519 653.994 4.38764 656.942 4.44035C656.892 4.54611 656.842 4.65187 656.791 4.75763C655.219 4.72296 653.649 4.6883 652.082 4.65364C651.53 4.69984 650.988 4.74607 650.427 4.79223C652.383 4.92068 654.323 5.04906 656.275 5.17749C658.626 5.14438 660.982 5.1113 663.342 5.07823C662.258 5.01811 661.174 4.95799 660.091 4.89788C665.854 4.85854 664.598 5.11132 669.384 5.22839C671.024 5.13662 672.667 5.04486 674.312 4.9531C676.692 5.06098 679.077 5.16887 681.467 5.27678C685.485 5.2463 685.841 5.17257 683.134 5.04962C685.141 4.92891 687.307 5.13942 689.672 5.09624C689.868 5.09278 689.5 4.97032 689.672 4.96953C701.944 4.93559 701.317 5.25096 703.281 5.27212C704.669 5.28679 710.235 5.09393 710.325 5.02115C710.437 4.92304 698.835 4.4894 717.005 4.54978C707.587 4.24442 696.984 4.47687 703.85 4.89787C700.877 4.84665 687.889 4.89461 687.074 4.87961C685.871 4.85708 686.296 4.70912 684.763 4.69926C683.859 4.69363 681.447 5.02626 674.312 4.69969C673.401 4.7523 672.49 4.80492 671.58 4.85754C670.727 4.80808 669.875 4.75863 669.023 4.70918C670.778 4.55145 672.535 4.39372 674.294 4.23601C667.326 4.38774 661.586 4.02957 657.382 4.29631C653.749 4.24925 651.992 4.20986 653.549 4.07122C652.457 4.06698 651.382 4.0628 650.277 4.05851C649.551 4.13308 648.825 4.20765 648.099 4.28223ZM927.162 5.93337C923.533 5.75502 922.23 6.10439 922.794 6.12664C925.973 6.24925 929.051 6.02616 927.162 5.93337ZM621.781 4.68462C625.762 4.79139 629.758 4.89822 633.768 5.00511C633.768 4.89305 633.768 4.78099 633.769 4.66894C629.758 4.67411 625.762 4.67934 621.781 4.68462ZM964.4 5.91002C964.768 5.99543 965.136 6.08084 965.504 6.16625C969.891 5.87649 974.253 6.33354 976.426 6.25107C976.898 6.23304 975.946 6.08106 975.048 6.04578C974.486 6.02373 965.174 5.8847 964.4 5.91002ZM1147.23 6.6589C1145.59 6.70894 1143.95 6.75898 1142.31 6.80903C1142.4 6.7149 1142.49 6.62077 1142.58 6.52665C1143.39 6.5122 1144.2 6.49776 1145.01 6.48332C1145.75 6.54185 1146.49 6.60037 1147.23 6.6589ZM1128.6 6.73685C1125.68 6.71798 1122.77 6.69911 1119.85 6.68026C1130.97 6.63668 1121.84 6.55903 1128.6 6.4622C1128.6 6.55375 1128.6 6.6453 1128.6 6.73685ZM1099.06 6.43124C1099.42 6.37624 1099.78 6.32124 1100.14 6.26624C1103.06 6.27756 1105.99 6.28889 1108.92 6.30024C1107.07 6.09727 1105.22 5.89431 1103.37 5.69135C1102.3 5.6867 1101.23 5.68207 1100.15 5.67743C1099.79 5.9287 1099.43 6.17997 1099.06 6.43124ZM536.324 3.74309C534.551 3.73281 528.422 3.88008 528.686 3.94409C531.227 4.03137 533.776 4.11867 536.333 4.20601C536.345 4.09375 536.357 3.9815 536.369 3.86924C536.73 3.92655 537.092 3.98387 537.453 4.04118C538.909 4.00485 540.367 3.96853 541.827 3.93221C542.563 4.03322 543.299 4.13422 544.036 4.23523C544.777 4.12606 545.519 4.01688 546.261 3.90771C539.194 3.68156 539.451 3.88113 537.984 3.87332C537.242 3.86949 536.773 3.79813 536.511 3.76213C536.449 3.75578 536.386 3.74944 536.324 3.74309ZM624.537 3.9805C616.27 3.92048 611.412 4.19727 605.343 3.92643C609.339 4.46865 634.181 4.02114 643.11 4.49502C644.032 4.41413 644.955 4.33325 645.879 4.25236C641.036 4.30877 637.698 4.12183 635.351 4.08769C633.487 4.06058 633.682 4.14986 633.539 4.14803C633.532 4.14801 633.526 4.14798 633.519 4.14796C629.161 4.09468 627.818 4.00425 624.537 3.9805ZM970.607 5.521C968.36 5.37883 964.435 5.37697 964.391 5.57161C966.575 5.63648 968.761 5.70134 970.948 5.76622C970.499 5.7146 970.99 5.54532 970.607 5.521ZM1095.67 5.87391C1093.91 5.8037 1089.77 5.84321 1091.56 6.01838C1091.88 6.04948 1096.01 5.94721 1093.58 6.24156C1097.61 6.25244 1096.67 5.91422 1095.67 5.87391ZM767.371 4.93421C768.84 4.93429 770.31 4.93438 771.781 4.93448C772.124 4.8572 772.468 4.77991 772.811 4.70263C770.996 4.77982 769.182 4.85701 767.371 4.93421ZM989.608 5.4599C991.569 5.85223 994.899 5.49074 998.57 5.82129C999.925 5.82899 1001.28 5.83669 1002.64 5.84439C1002.64 5.8444 1002.65 5.84441 1002.65 5.84443C1002.69 5.73959 1002.72 5.63476 1002.76 5.52992C998.369 5.50656 993.995 5.48325 989.608 5.4599ZM675.393 4.38749C676.305 4.43986 677.217 4.49223 678.13 4.5446C679.756 4.49403 681.385 4.44347 683.015 4.39291C682.133 4.34872 681.252 4.30453 680.372 4.26034C678.71 4.30271 677.051 4.3451 675.393 4.38749ZM1013.46 5.5194C1008.7 5.45277 1006.91 5.78029 1013 5.8047C1015.56 5.81464 1018.45 5.58908 1013.46 5.5194ZM445.503 3.51414C447.143 3.54909 448.786 3.58405 450.434 3.61904C450.996 3.55091 451.558 3.48279 452.12 3.41467C449.907 3.4478 447.701 3.48095 445.503 3.51414ZM1118.23 5.99942C1118.04 6.06899 1117.85 6.13856 1117.66 6.20813C1116.21 6.18835 1114.76 6.16858 1113.31 6.1488C1113.67 6.08039 1114.04 6.01198 1114.4 5.94357C1115.68 5.96219 1116.95 5.9808 1118.23 5.99942ZM456.53 3.60029C457.815 3.61873 459.103 3.63717 460.394 3.65563C461.261 3.62482 462.13 3.59403 462.999 3.56323C461.789 3.52458 460.58 3.48594 459.374 3.44731C458.424 3.4983 457.476 3.54929 456.53 3.60029ZM1058.53 5.72633C1056.7 5.63468 1049.39 5.86974 1055.98 5.9625C1060.17 6.02145 1058.81 5.74025 1058.53 5.72633ZM1068.42 5.68041C1061.42 5.49223 1066.7 6.33011 1074.98 5.83256C1066.64 5.87286 1068.82 5.69169 1068.42 5.68041ZM1129.66 5.49588C1129.84 5.49698 1129.98 5.61508 1131.38 5.62485C1136.42 5.65959 1143.08 5.73185 1146.69 5.75303C1155.38 5.80402 1181.87 5.69419 1184.99 6.04647C1185.64 6.12042 1184.15 6.3281 1184.41 6.34012C1185.19 6.37376 1189.63 6.28742 1188.81 6.44138C1184.45 6.42325 1180.09 6.40513 1175.73 6.38702C1176.8 6.28033 1177.87 6.17364 1178.94 6.06695C1168.08 6.08405 1171.68 6.09115 1168.55 6.32041C1166.72 6.21979 1164.88 6.11918 1163.05 6.01856C1159.05 6.09707 1155.07 6.17563 1151.07 6.25412C1151.98 6.18758 1152.88 6.12102 1153.79 6.05446C1147.76 5.90135 1149.43 5.9929 1146.13 6.15002C1146.12 6.07993 1146.12 6.00984 1146.11 5.93974C1140.28 6.08794 1139.15 5.87356 1137.88 5.86609C1135.27 5.85186 1131.94 6.66796 1122.01 5.8046C1117.82 6.1851 1117.92 5.37839 1115.46 5.77922C1108.38 5.30506 1121.84 5.5189 1128.23 5.55844C1128.23 5.55846 1128.24 5.55847 1128.24 5.55848C1128.72 5.56162 1127.96 5.48343 1129.66 5.49588ZM1093.2 5.76548C1097.5 5.41795 1080.53 5.31811 1086.15 5.86556C1086.98 5.88589 1087.82 5.90622 1088.65 5.92655C1090.17 5.87287 1091.69 5.81919 1093.21 5.76552C1093.21 5.7655 1093.21 5.76549 1093.2 5.76548ZM933.726 4.90562C918.011 4.99433 926.942 5.23845 932.267 5.0545C933.33 5.01804 933.912 4.96467 933.726 4.90562ZM612.631 3.65446C612.4 3.69726 612.168 3.74006 611.936 3.78286C617.312 3.76285 627.326 3.97032 627.221 3.67526C622.336 3.66824 617.6 3.66181 612.631 3.65446ZM654.334 3.62383C653.218 3.60173 648.604 3.54186 649.152 3.65424C651.198 3.74031 653.142 3.82599 655.141 3.91188C656.068 3.86665 656.996 3.82143 657.924 3.7762C656.628 3.75456 654.638 3.62966 654.334 3.62383Z" fill="#74A5B6"/>
</svg>
