<svg width="94" height="114" viewBox="0 0 94 114" fill="none" xmlns="http://www.w3.org/2000/svg">
<path d="M92.1742 26.169C90.5967 29.3585 87.6024 27.5284 84.6171 28.2698C78.1109 29.8998 70.1388 34.7272 63.6929 38.0437C63.6034 38.0895 63.5145 38.135 63.4262 38.18C58.8123 40.5307 54.2381 43.0614 50.03 45.8446C49.8162 45.9863 49.5249 45.8407 49.4253 45.9072C48.5025 46.5183 47.1706 47.8317 46.2904 48.4703C44.4112 49.8008 41.4324 52.3946 39.6136 53.7057C39.1024 54.0685 38.5898 54.476 38.0761 54.6526C37.897 54.6629 37.7016 54.6278 37.4828 54.5118C37.3027 54.6363 37.6551 55.1593 37.641 55.2209C37.6401 55.221 37.6392 55.221 37.6383 55.221C37.5897 55.4151 36.9523 55.4584 36.8978 55.5601C36.8903 55.575 37.2866 55.8037 37.0136 55.9041C36.9896 55.9138 36.777 55.6933 36.6258 55.8582C36.5846 55.8988 36.4495 56.781 36.3359 56.9751C35.949 57.5824 34.5524 58.9287 34.0276 59.8199C33.9463 59.952 34.0518 60.1211 33.9699 60.2633C33.9279 60.3364 33.6965 60.3473 33.6839 60.3706C33.6296 60.474 34.1357 61.3517 32.7272 60.3266C32.5514 60.853 33.1313 60.9957 33.4483 61.1899C33.2123 61.7171 32.3593 61.5846 33.0482 62.1289C31.5922 64.6255 30.2825 67.4279 29.1594 70.3387C29.2923 70.3858 29.4251 70.433 29.558 70.4802C28.7255 71.1652 29.5349 71.7635 28.5963 72.0104C28.6704 72.3703 28.7443 72.7385 28.8242 73.095C28.2575 74.5915 27.7855 76.1258 27.4216 77.6172C26.8637 80.2553 27.1608 80.9988 28.619 83.3153L25.6326 80.0217C27.0251 81.0182 28.469 81.8365 30.1735 82.6593C30.4362 82.7848 30.3801 83.092 30.8321 83.2995C31.3406 83.532 32.2078 83.522 32.9232 83.8048C33.5517 84.0555 34.4156 84.6721 35.1634 84.9701C35.3307 85.0367 35.5165 84.8981 35.5355 84.9055C35.6479 84.9506 35.5594 85.2382 35.6699 85.2835C35.7991 85.3359 36.0268 85.1755 36.1774 85.2382C36.7495 85.4743 37.4061 85.5917 37.4852 85.6207C37.8442 85.758 37.8352 86.0612 37.8657 86.0737C38.262 86.227 38.1845 85.9274 38.2818 85.9717C38.7976 86.2048 38.985 86.9467 39.8988 86.5345C39.815 86.7667 39.7311 86.9988 39.647 87.2309C40.1769 87.5163 39.9719 86.7846 40.1179 86.7012C40.1735 86.6725 41.3886 87.0702 41.4826 87.104C41.8074 87.2293 41.7396 87.5489 41.7676 87.5604C41.8457 87.5913 42.76 87.434 43.1449 87.8175C43.5852 88.2688 42.8239 88.7724 42.9228 88.924C42.9418 88.9504 43.4977 89.0107 43.5265 89.2307C43.5571 89.4678 43.084 89.3528 43.0706 89.446C43.0578 89.5098 43.7481 90.1432 43.5272 90.4109C43.3301 90.6865 42.348 90.046 42.0826 90.1314C42.0392 90.1459 42.0202 90.537 41.9835 90.5426C41.8361 90.5671 39.3685 89.9548 39.2785 89.858C39.4497 89.7223 39.6212 89.5864 39.7931 89.4504C39.6282 89.3889 39.465 89.3273 39.3036 89.2658C39.5759 89.1934 39.8506 89.1207 40.1278 89.0477C40.1304 87.5599 38.7167 88.692 38.472 89.37C38.3612 89.6851 38.8005 90.6933 38.0497 91.0048C38.1208 91.113 38.1927 91.2213 38.2653 91.3296C38.5015 91.2485 38.7219 91.1624 38.9522 91.0785C38.8467 90.9588 38.7425 90.8392 38.6395 90.7197C38.7121 90.6357 38.7846 90.5515 38.8571 90.4674C39.2524 90.4074 39.6592 90.3485 40.0605 90.2862C40.2249 90.4049 40.1136 90.6814 40.2264 90.7692C41.663 91.8723 40.8311 90.7208 41.8516 91.106C41.9658 91.2967 42.0816 91.4876 42.1992 91.6785C42.3012 91.0281 42.6661 91.5389 43.304 91.3947C43.1879 91.586 43.0717 91.7772 42.9555 91.9684C43.8167 92.0543 45.2834 93.4674 45.0749 92.2227C45.2451 92.3619 45.4119 92.5001 45.5832 92.6389C45.7849 92.4859 45.9872 92.3328 46.19 92.1795C46.4105 92.2482 46.6391 92.3181 46.8533 92.3847C46.8334 92.4865 46.8136 92.5883 46.7937 92.6902C46.6179 92.6546 46.4347 92.6173 46.2532 92.58C46.3236 92.9177 46.4009 93.2566 46.4688 93.5935C46.6107 93.5692 46.7532 93.5449 46.8962 93.5205C46.4024 93.1141 47.2297 92.7853 47.4912 92.412C47.9915 92.3558 48.1949 92.9481 48.3429 93.0022C48.4126 93.0283 49.4702 92.2602 48.9267 93.2246C49.404 93.1873 49.886 93.1493 50.3558 93.1076C50.5171 93.2198 50.6797 93.3321 50.8436 93.4443C50.3654 93.8535 51.3874 94.6418 50.5182 94.6876C49.8712 94.7221 49.8096 94.2443 49.52 94.1926C49.2524 94.1439 49.0538 94.4195 48.764 94.3774C46.8223 94.0882 45.2861 93.7113 43.5155 93.1741C43.1672 93.0676 42.8055 93.1395 42.5748 93.0643C42.314 92.9786 42.7344 92.6798 42.3754 92.6926C42.0024 92.7073 41.846 92.9939 41.7501 92.9777C41.6897 92.967 41.5682 92.6462 41.3978 92.6051C40.7084 92.44 39.6054 92.4423 39.5156 92.4167C39.3968 92.3876 37.5127 91.6161 37.4398 91.5422C37.3973 91.5038 37.7843 90.5249 37.0585 91.4801C36.9184 91.4618 36.7793 91.4434 36.6411 91.425C36.7208 91.2301 36.8004 91.0352 36.8798 90.8403C35.8813 91.3757 36.2754 91.0295 35.5084 90.8628C33.6858 90.472 31.1847 89.415 29.4065 88.7256C29.0059 88.5725 28.7569 88.7378 28.2886 88.5454C27.8461 88.3674 27.1069 87.1674 26.8781 88.2091C26.3782 86.9511 25.5102 88.2298 25.5348 87.1408C25.4134 87.2335 25.2899 87.3249 25.1669 87.4164C24.9927 86.6214 24.5856 86.996 24.0391 86.7422C23.8047 86.6313 24.3978 86.2509 23.5808 86.5735C23.526 86.4746 23.4724 86.3759 23.42 86.2773C23.5247 86.1608 23.6292 86.0441 23.7334 85.9271C23.1974 85.7229 23.2109 85.6287 22.9363 86.1451C22.7676 85.9011 22.6043 85.656 22.445 85.4091C22.3053 85.5429 22.1652 85.6763 22.0246 85.8093C21.8284 86.3106 27.671 89.0915 28.6909 89.1764C29.5064 90.0187 31.8109 90.3222 32.6372 90.7064C32.9746 90.8667 32.9767 91.3232 33.4799 91.5445C33.9708 91.7618 34.7533 91.5978 35.0229 91.6657C35.9319 91.9228 40.3851 93.2133 37.2015 92.9015C37.2319 93.1279 37.2634 93.3546 37.2959 93.5813C38.7082 93.2236 38.136 93.5261 39.1434 93.8656C39.5534 94.0053 40.7048 93.8076 40.4137 94.7173C39.5621 94.6915 38.7923 94.1792 38.0969 94.0075C38.0337 93.9928 37.0922 94.1893 36.7099 93.9579C36.3664 93.7483 36.8719 92.9491 35.7704 93.6927C35.457 92.5622 34.8414 93.3192 34.6557 93.3631C34.3315 93.4379 34.4546 92.9608 34.1943 92.8192C33.9135 92.6645 33.6123 92.9103 33.571 92.8993C33.1578 92.784 31.0614 92.1029 31.0373 91.8732C31.1504 91.8218 31.2637 91.7702 31.3772 91.7185C30.8882 91.3907 30.8289 91.9035 30.6672 91.9079C30.564 91.8674 30.4626 91.8273 30.36 91.7864C30.4387 91.7046 30.5153 91.622 30.5928 91.5397C29.9622 91.3223 30.3017 91.845 29.4292 91.4902C28.8656 91.2585 28.4622 90.6519 28.3974 90.6558C28.3782 90.6568 28.4442 90.9776 28.2074 90.9149C27.8221 90.8148 27.1836 90.5168 27.2749 90.1552C27.0758 90.1198 26.9393 90.4504 26.9122 90.4468C26.7879 90.4392 24.9981 89.6817 24.6929 89.5232C23.8241 89.1156 22.9577 88.5074 22.0774 87.9876C21.9873 87.9342 22.1707 87.7812 22.0806 87.7291C21.9329 87.6471 21.0173 87.4407 20.8971 87.3803C20.7479 87.3098 20.5182 87.1133 20.3128 86.9361L21.2182 87.9347C21.0929 87.7063 20.9834 87.5027 20.9059 87.4733C20.8832 87.4641 20.7551 87.8573 20.5102 87.6311C20.2409 87.3784 20.6987 87.336 20.6923 87.317C20.4686 86.6359 20.0185 86.3792 19.7641 85.9679C19.6819 85.8343 19.8542 85.4504 19.6875 85.2909C19.6682 85.2721 19.4196 85.4295 19.397 85.4124C19.1279 85.1643 19.5233 84.685 19.5105 84.5472C19.4779 84.2034 19.1647 84.5065 19.1561 84.4915C19.0683 84.2801 19.1084 83.9467 18.9962 83.626C18.5041 82.1873 18.3026 80.953 18.3437 79.3179C18.3497 79.1107 18.6402 78.879 18.6422 78.8489C18.645 78.753 18.313 78.7637 18.3386 78.4805C18.3965 77.8835 18.4483 77.3232 18.5552 76.7244C18.5771 76.6032 18.8869 76.6049 18.9097 76.5163C18.9454 76.3708 18.8267 76.0136 18.8188 75.6965C18.8153 75.3372 18.9266 75.0287 19.4258 75.1359C18.7277 74.2599 19.5792 73.9848 19.7114 73.4424C20.0218 72.1536 20.4412 70.1008 20.9711 68.8726C21.0816 68.6153 21.3647 68.5727 21.4271 68.4302C21.5363 68.1711 21.9306 66.6286 22.0007 66.5654C22.1303 66.4383 23.1453 66.9184 22.5235 65.7972C22.633 65.3144 23.0429 65.5344 23.1022 65.4493C23.5554 64.7906 22.8977 63.6946 23.714 64.1844C23.8234 63.247 23.5884 62.4914 24.5431 62.5099C24.1481 62.3411 24.0866 61.842 24.4521 61.4413C24.8889 62.2239 25.3318 62.3445 24.7084 63.4487C24.6987 63.4661 24.4282 63.3086 24.4184 63.326C24.3275 63.484 24.3243 63.8929 24.1907 64.1717C24.0572 64.4505 23.9263 64.2113 23.883 64.3274C23.8439 64.434 24.1205 64.5428 24.063 64.6956C23.8733 65.1945 23.7803 65.6595 23.6761 65.9456C23.6106 66.1246 23.2907 66.2316 23.2387 66.3704C23.0359 66.9106 22.8184 68.1217 22.56 68.8068C22.5053 68.9489 22.2472 68.7952 22.1191 69.1037C22.1045 69.1393 22.3493 69.3713 22.3195 69.6686C22.2897 69.9664 22.0783 70.1315 22.0515 70.3225C22.0298 70.4805 22.308 70.4993 22.2299 70.8098C22.1498 71.0634 21.144 73.9144 21.0759 74.0678C20.957 74.2802 20.5605 74.2937 20.5707 74.4447C20.5741 74.4721 20.921 74.6032 20.9255 74.6949C20.9458 75.0917 20.8769 75.5922 20.7676 76.1316C20.4938 77.4215 20.0873 79.0105 20.1326 79.9536C20.2227 82.5142 21.1636 84.6634 22.7188 86.9981L21.3914 85.5342C21.4896 85.6051 21.5886 85.6759 21.6886 85.7468C21.7723 85.7295 21.8559 85.7119 21.9393 85.694C21.7971 85.5868 21.6566 85.4789 21.5176 85.3703L22.8942 86.8886C22.8259 86.7771 22.7594 86.6662 22.6948 86.5557C22.8427 86.4653 22.9906 86.3749 23.1386 86.2846C22.9685 85.9428 22.6408 86.1896 22.4309 86.3222C22.4502 86.1447 22.472 85.9681 22.4979 85.7954C21.902 85.9746 21.828 84.9435 21.6583 84.5218C21.54 84.2446 21.1991 83.9915 21.1629 83.8341C21.0867 83.5048 21.4476 83.3985 21.4445 83.3723C21.439 83.3316 20.9877 82.9948 20.9199 82.6705C20.8215 82.1889 21.3682 82.0412 20.7828 81.4866C20.9477 80.6228 20.7515 79.7395 20.7571 78.7951C21.2729 79.002 20.825 78.1464 20.8917 77.7505C20.9644 77.2698 21.0717 76.76 21.214 76.2312C21.8545 73.7661 22.826 71.049 23.7731 68.8109C23.9251 68.449 24.3176 68.2739 24.3812 68.0648C24.4161 67.9512 24.0873 67.7794 24.1889 67.6414C24.2076 67.6175 24.537 67.7155 24.6902 67.4477C25.0649 66.7834 25.2289 64.816 26.0264 64.6364C26.9226 62.2362 27.9477 59.9086 29.1148 57.7337C29.2671 57.7519 29.4192 57.7707 29.5711 57.7902C29.1881 57.0145 30.5309 55.6838 31.009 54.9759C31.8377 53.6904 32.8827 52.1023 33.745 51.2243C33.931 51.0318 34.2296 51.027 34.4053 50.858C34.4379 50.8264 34.4411 50.7563 34.4409 50.6805C34.4566 50.5655 34.4667 50.4397 34.5281 50.3824C35.7335 49.2468 37.4892 48.0308 38.6782 47.0103C41.3838 44.6794 44.0494 42.6698 47.013 40.5874C51.3638 37.5337 55.9139 34.7273 60.645 32.1815C66.9392 28.8033 73.3002 25.5669 79.7383 22.8774C79.8901 22.8142 79.9997 23.0974 80.1202 23.0479C80.8278 22.7579 82.2773 21.8802 83.0648 21.58C83.7005 21.3335 84.8512 21.3831 84.8939 20.8675C82.4241 21.0577 80.0759 22.1039 77.6745 22.9529C77.5025 23.014 77.3641 22.76 77.3414 22.7643C76.9193 22.8427 77.3243 23.0965 76.7875 23.3568C76.6064 23.4425 74.5413 23.3716 75.1213 24.1154C74.5695 23.9596 71.6368 25.1309 71.1509 25.5032C70.9999 25.6164 71.2353 25.8048 71.2081 25.8331C71.0901 25.956 70.8631 25.6497 70.7294 25.7031C70.38 25.8445 69.6478 26.536 69.4783 26.6164C69.1042 26.7939 67.8226 27.0822 67.3645 27.3895C66.9373 27.6739 67.1965 27.982 66.8153 28.2115C66.515 28.3915 66.7033 27.9298 65.9701 28.1848C65.6066 28.3114 64.5026 29.1305 64.2143 29.2773C63.924 29.4244 63.4845 29.3851 63.094 29.6044C62.5306 29.9196 61.3246 30.6862 60.7721 31.0577C60.7388 31.0797 60.7928 31.3943 60.7029 31.4339C60.5165 31.5162 60.3976 31.1546 60.2433 31.1918C60.2293 31.1952 60.1974 31.2086 60.1505 31.2306C59.6862 31.4422 57.7949 32.4964 57.4519 32.6852C57.1838 32.8299 57.11 33.1267 56.9638 33.2055C56.8489 33.2669 56.6846 33.0002 56.5669 33.0618C56.5295 33.0826 56.3633 33.4866 56.0501 33.6563C55.7551 33.8137 54.5426 34.2133 54.4128 34.2878C54.3304 34.3346 54.5317 34.4745 54.2881 34.6109C54.0658 34.7348 53.7786 34.569 53.6495 34.6405C53.3503 34.8065 53.152 35.2117 52.8493 35.3957C51.9699 35.9318 51.8297 35.602 51.7707 35.6238C51.6082 35.6858 51.7225 36.0004 51.6788 36.0353C51.4957 36.1803 51.0268 36.5443 50.8582 36.666C50.6447 36.8193 50.3891 36.6125 50.1482 36.7646C49.9701 36.8784 49.7806 37.36 49.3942 37.6291C48.5134 38.2428 47.4935 38.997 46.6298 39.5827C46.3717 39.758 46.1678 39.5541 46.0852 39.6028C45.649 39.8605 45.6108 40.2782 45.4881 40.3603C44.644 40.9218 42.8817 41.6047 42.1002 42.1549C41.7775 42.3773 40.5895 43.5967 39.8276 44.1679C39.7392 44.2343 39.6787 43.9962 39.6055 44.1008C39.4315 44.3507 39.741 44.684 39.6193 44.7661C39.5596 44.8047 39.2754 44.7071 39.0963 44.8224C38.1877 45.4039 37.749 46.044 37.3731 46.3504C36.0809 47.4043 34.8086 48.4996 33.4965 49.6485C31.5554 51.3221 29.8094 53.4911 28.3643 55.729C28.1148 56.1157 28.0473 56.74 27.4695 57.2134C27.3367 57.1613 27.2038 57.1095 27.0708 57.0578C27.1783 57.1486 27.286 57.2393 27.3937 57.3298C27.0631 58.0587 27.0751 58.4063 26.5356 59.0462C26.49 59.1008 25.818 58.9965 26.4664 59.4831C25.58 59.9431 26.302 59.8119 26.0805 60.3749C25.8609 60.9394 25.4464 61.3946 25.1631 61.9152C24.7643 62.0929 24.7436 60.5711 24.7894 60.4898C24.8546 60.3604 25.2774 60.3997 25.357 60.2855C25.593 59.9472 25.4907 59.4526 25.8483 59.5323C25.7545 58.8929 25.6224 59.5615 25.3513 59.3503C25.6365 59.0979 25.9229 58.8502 26.211 58.6068C25.2777 57.8949 27.5376 56.935 26.7163 56.6221C26.9453 56.5773 27.1739 56.5346 27.4021 56.494C26.8059 55.3553 27.6803 55.4061 28.432 54.8545C28.28 54.83 28.1277 54.8063 27.9752 54.7832C27.9343 54.7355 28.1829 53.9583 28.524 54.5244C28.3222 53.4179 29.3758 54.1998 29.0199 53.0727C29.1718 52.6616 29.463 53.1862 29.9053 52.5894C30.1672 52.2395 30.2847 51.633 30.5872 51.2454C30.6576 51.1567 30.9314 51.3268 30.9958 51.2521C31.06 51.1775 30.856 50.9359 30.9297 50.8401C31.0815 50.6411 31.4611 50.5497 31.549 50.4243C31.6286 50.3122 31.5621 49.9787 31.7647 49.7088C32.4754 48.7789 32.5066 49.3174 32.7256 49.2878C32.8591 49.272 32.8353 49.1149 32.8496 48.9416C32.873 48.7973 32.921 48.6408 33.0871 48.5242C33.1257 48.4974 33.2549 48.8172 33.3582 48.7054C33.4397 48.6174 33.2412 48.3228 33.493 48.0042C33.5892 47.8758 35.3212 46.2121 35.591 45.9735C36.006 45.5933 37.1331 45.0127 37.5677 44.645C37.7355 44.5032 37.7395 44.1316 37.9175 43.9856C38.5218 43.4883 39.5 42.7221 40.2823 42.1251C40.986 41.5831 42.6044 41.1355 42.6546 40.4008C43.6117 39.5998 44.148 39.8119 44.2234 39.7641C44.4378 39.6318 44.3472 39.3051 44.6018 39.1055C47.8632 36.5311 52.6489 33.8027 56.0942 31.8789C57.2307 31.237 58.3551 30.6203 59.5131 30.0046C66.6308 26.2317 73.8446 22.5477 81.2154 19.6132C81.185 19.4733 81.1546 19.3333 81.1243 19.1933C80.0872 19.5208 78.7894 19.8065 77.7759 20.188C76.4121 20.6994 74.6935 22.1223 73.3149 21.6997C73.6665 21.4438 74.4764 21.4798 74.2557 21.036C73.5275 21.3294 72.8182 21.6183 72.0888 21.9203C72.2065 22.1179 72.3241 22.3156 72.4418 22.5132C71.7463 22.9117 70.9642 23.2263 70.2479 23.6051C70.1221 23.6712 70.3025 23.8152 70.1913 23.8696C70.0665 23.9302 70.06 23.6989 70.0358 23.7086C69.7168 23.8591 69.7168 24.0966 69.6775 24.1121C69.5765 24.1513 69.5644 23.9311 69.2579 24.0155C68.688 24.172 68.5424 24.8447 68.2736 23.9731C68.1004 24.0573 67.9341 24.1382 67.7654 24.2205C67.8294 24.4623 67.8934 24.7041 67.9574 24.9459C66.4759 24.5675 66.7715 26.3608 65.5816 25.412C65.4853 25.695 65.3845 25.9804 65.2934 26.2612C65.0782 26.0944 64.8626 25.9278 64.6465 25.7616C64.7199 25.9602 64.7934 26.1589 64.8669 26.3576C63.774 26.7307 62.8049 27.5048 61.8271 27.9775C61.1467 28.3067 60.9336 28.3229 60.3513 28.6409C59.0383 29.3604 60.1706 28.3036 58.8504 28.4799C59.0276 28.6788 59.2047 28.8778 59.3816 29.0768C59.3114 29.1664 59.2411 29.2561 59.1706 29.3459C59.1012 29.4354 59.0322 29.5249 58.9634 29.6143C58.74 29.4936 58.5164 29.373 58.2929 29.2528C58.2485 30.5105 57.4826 29.9216 57.4037 29.9639C57.3434 29.9987 57.4434 30.6896 56.5316 30.5527C57.2314 31.1945 56.0386 30.8286 55.9725 30.8598C55.9089 30.8902 55.273 31.4734 54.9648 31.6387C54.723 31.7676 54.1265 31.8845 53.7835 32.0937C53.4758 32.2813 53.6615 32.5268 53.6403 32.5427C53.2734 32.7855 53.3916 32.4422 53.1123 32.5919C52.8334 32.7418 52.7583 33.0886 52.6853 33.1047C52.6491 33.1118 52.6042 32.8079 52.4533 32.8655C52.0442 33.0205 51.5279 33.6212 51.1046 33.8716C50.9567 33.9593 50.6464 33.8668 50.4809 33.9603C50.2293 34.1033 50.2784 34.4501 50.1288 34.5322C50.0765 34.5599 49.4904 34.3421 49.1378 34.6558C49.0708 34.7164 49.4101 35.741 48.3156 34.681C48.4057 34.8712 48.4959 35.0613 48.5862 35.2514C47.5505 36.5355 46.2449 35.376 46.5051 37.0141C45.4679 37.5157 45.7843 36.592 45.6309 36.5875C45.5305 36.5871 45.3124 36.932 45.274 36.9475C45.2041 36.9738 45.1075 36.8119 45.0428 36.8578C43.8597 37.7221 44.5976 37.6435 44.3513 38.0912C43.7678 39.1628 42.3783 38.697 44.1439 37.8746C44.0832 37.7889 44.0226 37.7032 43.962 37.6175C43.6303 37.9727 42.6383 38.6324 42.6493 37.9672C42.6463 37.4409 45.1602 36.0124 43.4886 36.4658C43.1127 36.5679 43.1821 37.0005 42.2316 36.7738C41.8678 36.9867 42.3747 37.8006 41.6881 37.8273C41.9612 38.041 42.234 38.2551 42.5065 38.4695C42.1443 39.2718 41.0316 39.376 40.6686 39.889C40.5472 40.0609 40.9454 41.7643 40.1059 40.4022C39.8997 40.6831 38.4627 41.4459 38.3226 41.7464C38.2909 41.8174 38.7446 42.5349 37.77 42.954C37.6464 42.9184 37.5229 42.8827 37.3996 42.8469C37.9368 42.0019 36.4421 42.8327 36.2786 41.924C36.6294 42.1011 37.3516 41.7911 37.5599 41.8564C37.9185 41.9677 37.6947 42.6701 38.2357 42.0876C37.7735 40.7312 37.0615 42.1092 36.4214 40.9857C35.9941 42.1104 35.56 41.738 35.3598 41.8747C34.5273 42.4523 34.136 42.9696 33.3207 43.4886C33.3165 43.8388 34.8701 42.9838 34.9521 42.7691C34.9685 43.9797 36.0056 43.1423 36.088 42.3555C36.3054 42.5396 36.5234 42.7231 36.7387 42.9091C36.0733 43.2679 35.4877 43.6654 35.0846 44.3216C34.9803 44.2733 34.876 44.2249 34.7717 44.1765C34.7892 43.9515 34.8089 43.725 34.8309 43.4969C34.1974 43.7042 35.0216 44.0708 33.9324 44.0722C34.1225 44.326 34.3128 44.5797 34.5033 44.8332C33.8532 45.2662 33.2084 45.7043 32.5622 46.1498C32.6914 46.8879 31.4155 47.7367 31.0677 46.9422C31.0578 46.9496 31.0484 46.9569 31.0396 46.9639C30.6417 47.2814 31.4129 47.1424 31.1686 47.6378C31.0607 47.857 30.7584 48.1881 30.5244 48.1112C30.0007 47.5266 30.4323 46.9685 30.2252 46.4316C29.9688 46.3677 28.1165 49.1595 27.6444 48.3618C27.3856 48.4952 27.8214 48.7071 27.6057 49.1531C27.0099 50.3745 25.0235 51.5522 25.414 53.1094C26.6467 52.4207 26.2911 51.7392 26.8439 50.9422C27.1537 50.4013 29.5365 47.5086 29.5973 48.7053C29.6107 48.5359 29.6251 48.367 29.6418 48.1969C29.9145 48.2668 30.1852 48.3403 30.4537 48.4175C30.2171 48.7103 29.9888 49.0056 29.7637 49.308C29.5216 49.2102 29.2779 49.1146 29.0333 49.0208C29.1365 49.1684 29.2403 49.3156 29.3445 49.4624C29.2661 49.6044 29.1885 49.7473 29.1119 49.891C28.9805 49.7205 28.8498 49.5493 28.7197 49.3776C28.5298 49.5434 28.3399 49.7139 28.1539 49.884C28.4143 50.0102 28.6737 50.1379 28.9321 50.2671C28.2588 51.2046 28.3717 50.7906 27.5557 50.9835C27.2197 51.3398 28.1395 51.0116 27.6412 51.9119C27.0801 52.9682 26.8214 51.8266 26.0971 53.2268C26.2018 53.323 26.3066 53.419 26.4115 53.5148C26.1075 53.7211 25.8029 53.9354 25.5014 54.1521C25.6735 54.2062 25.8453 54.2609 26.0169 54.316C25.5813 54.8751 25.3772 55.8792 24.6674 55.7423C25.3134 55.286 24.2859 54.6821 23.9984 54.7345C23.3423 54.8114 21.0125 60.2463 20.6576 61.325C20.1149 62.6714 19.3473 63.5604 19.43 65.0128C20.1784 64.3361 21.0148 61.2822 21.5811 60.8802C21.6358 60.839 22.6259 61.3077 21.6598 60.4536C22.3553 59.4333 22.6779 57.971 23.4377 56.6468C23.6929 56.8381 23.9485 57.0288 24.2045 57.2188C23.171 57.7196 24.1033 59.1565 23.0628 58.4957C22.9797 58.6609 22.8974 58.8265 22.8158 58.9926C23.0053 59.0857 23.1949 59.1789 23.3844 59.272C23.2626 59.5198 23.1426 59.7683 23.0239 60.0182C22.8332 59.9276 22.6424 59.837 22.4517 59.7464C22.3524 59.9554 22.2543 60.1648 22.1574 60.3747C22.3385 60.4849 22.5196 60.5948 22.7009 60.7045C22.0027 61.1482 22.1624 63.7697 21.4082 62.3279C21.281 62.6271 21.1552 62.929 21.0322 63.2298C21.1755 63.2872 21.3188 63.3447 21.4621 63.4022C21.4288 63.5385 21.3958 63.6751 21.363 63.8124C21.2504 63.7176 21.138 63.6226 21.0258 63.5274C21.0181 64.2137 20.1129 64.515 20.4151 65.0829C20.6119 64.8611 20.8109 64.6382 21.0096 64.4199C20.6267 64.8429 20.6745 65.905 20.6466 65.9874C20.557 66.2381 20.2162 66.2622 20.1035 66.5304C20.0027 66.7732 20.2413 66.8189 20.217 66.862C19.5259 68.1053 18.4685 67.1978 19.7182 68.3047C19.497 68.3046 19.2757 68.3055 19.054 68.3076C19.1911 68.4519 19.3285 68.5955 19.4664 68.7383C19.3226 69.1285 19.1815 69.5213 19.0438 69.9142C19.3353 69.8588 19.6269 69.8042 19.9186 69.7507C19.8465 70.3754 19.2626 70.4975 19.2328 70.5537C19.1545 70.709 19.4494 70.8771 19.4352 70.9274C18.7161 73.3401 18.8549 71.7877 17.3239 72.6938C17.6784 73.2634 18.2688 72.9329 18.7634 73.0009C18.386 73.5254 18.4748 73.7319 18.2974 74.3424C18.2515 74.5 17.9518 74.6051 17.924 74.7074C17.8998 74.7958 18.1124 75.135 18.0669 75.3417C18.0545 75.3984 18.0369 75.4569 18.016 75.5172C17.9125 75.8078 17.7232 76.1478 17.6628 76.5223C17.5967 76.8972 17.6419 78.0511 17.6187 78.8249C17.6053 79.1554 17.3722 79.0725 17.369 79.1591C17.3678 79.1966 17.647 79.4598 17.65 79.6697C17.6638 81.3827 17.7905 83.1515 18.3866 84.809C18.8041 85.9775 19.566 87.0213 20.1977 88.1165C20.3328 88.3502 20.0806 88.3367 20.1365 88.4423C20.1477 88.4625 20.2584 88.4245 20.3708 88.4637L19.7036 87.7279C19.7982 87.7269 19.9104 87.7702 20.0242 87.9362C20.1185 88.0729 19.8202 88.1681 19.9377 88.2717C19.9956 88.3218 20.2108 88.0865 20.6075 88.2834C21.3279 88.6365 21.45 89.2208 21.5175 89.2516C21.6442 89.3057 21.756 89.063 21.9111 89.1526C22.6645 89.5852 23.309 89.9153 24.0004 90.2748C24.3136 90.4621 26.5876 91.5359 26.7099 91.6246C26.9483 91.8498 26.4533 92.2316 26.8314 92.3817C26.9928 92.3009 27.1553 92.2202 27.3155 92.138C27.1924 91.9678 27.0705 91.797 26.953 91.627C27.331 91.994 27.9375 91.9822 28.2759 92.1338C28.3328 92.1608 28.8147 92.6306 29.1238 92.7225C28.9632 92.7705 28.7929 92.814 28.6278 92.859C28.6395 92.9593 28.6515 93.0596 28.664 93.16C29.3094 93.275 29.9424 93.5205 30.5641 93.7667C30.7907 93.8557 30.6373 94.0289 30.8629 94.1175C32.1997 94.6334 32.1216 93.6623 32.9131 95.6842C32.5213 95.4052 30.8302 95.057 30.6192 94.917C30.471 94.8238 30.3306 93.2628 30.0604 94.7133C28.7768 94.2275 30.1726 93.8986 28.9226 93.6038C28.881 93.7783 28.8396 93.9528 28.7984 94.1275C28.3503 94.0719 27.9953 94.0239 27.8698 93.6328C27.459 94.3993 26.2404 93.3331 25.4732 93.0254C24.3507 92.5862 23.0521 92.1388 22.003 91.5551C21.639 91.3526 21.6255 90.9452 21.5797 90.9182C21.5145 90.8807 21.1776 91.0185 21.0499 90.9392C20.5569 90.6477 19.4679 89.2747 18.6392 89.6644C21.3322 91.7049 24.3264 93.3055 27.4646 94.6025C27.2186 94.0845 30.416 95.2878 30.5782 95.3416C30.7232 95.412 30.5016 95.6342 30.5409 95.6663C30.8381 95.9002 31.2654 95.612 31.3681 95.647C31.4488 95.6745 31.5497 95.9127 31.8449 96.0064C31.899 96.0237 31.9781 95.8352 32.0363 95.8538C32.4194 95.9803 32.7843 96.1007 33.1752 96.2223C33.198 96.2316 33.2082 96.5468 33.3029 96.5768C33.399 96.6067 33.5823 96.3518 33.6068 96.3584C33.9077 96.4537 34.3937 96.8018 34.6789 96.8874C34.7803 96.917 34.7713 96.6871 34.8843 96.7224C35.2336 96.8294 34.9982 97.206 35.4704 97.2266C35.6265 97.2323 35.7037 96.9152 35.9694 97.0344C36.1579 97.1189 35.9816 97.6735 36.0074 97.7026C36.0423 97.7394 36.8611 97.4874 36.9796 97.9125C36.2296 98.7524 37.5036 98.1068 37.5628 97.6827C37.8103 97.8583 38.0599 98.0332 38.3026 98.2055C38.4219 98.125 38.5413 98.0446 38.6608 97.964C39.655 98.7134 40.4042 98.5942 41.4538 98.9898C41.5044 99.0098 42.3808 99.4532 42.3013 99.5896C41.7 99.7216 41.1251 99.6012 40.8891 99.0524C40.1084 99.8097 40.2435 99.0931 39.2894 98.985C38.9703 98.9489 38.881 99.1825 38.8451 99.1769C37.5987 98.9986 35.5974 98.5678 34.9902 97.632C34.7045 97.7547 35.5148 98.0675 35.1513 98.1143C34.9425 98.1637 30.7044 97.0754 32.2908 96.6978C32.1465 96.6755 32.0091 96.6551 31.8608 96.6307C31.4724 97.3361 30.8438 96.9333 31.1775 96.2146C31.062 96.3455 30.9465 96.4762 30.8307 96.6068C30.6584 96.6917 30.48 96.7073 30.2539 96.6737C29.3656 96.5987 24.7426 94.3736 24.4791 94.3013C24.3923 94.4668 24.3054 94.6322 24.2184 94.7976C26.2068 95.9913 28.4185 96.3758 30.5967 97.6879C30.5853 97.4989 30.5773 97.311 30.5642 97.1211C31.4069 97.6716 32.2898 98.2144 33.1586 98.7355C32.0634 98.7366 30.3787 98.4656 29.4112 97.8375C29.243 97.7276 29.4605 97.5462 29.4284 97.5032C29.3473 97.3921 29.0754 97.7455 28.6603 97.6356C28.2502 97.5302 27.3495 96.8556 27.2593 96.8262C27.0732 96.7709 26.4178 97.0272 26.1171 96.8929C25.7217 96.716 26.1067 96.5533 26.0294 96.5136C25.7138 96.3467 25.3683 96.3572 25.1183 96.2208C24.752 96.0226 24.2031 95.181 23.6079 95.7508C23.8587 95.9126 24.1103 96.0716 24.3697 96.2312C22.7663 95.7869 22.1243 94.3352 20.3623 94.1773C19.5572 94.7904 20.8004 95.3817 19.598 95.1322C19.786 95.23 19.9761 95.327 20.1625 95.42C20.3038 95.2749 20.4447 95.1294 20.585 94.9835C20.8265 95.285 21.0669 95.5806 21.3174 95.8766C21.3104 95.6734 21.3051 95.4707 21.3014 95.2685C22.4686 95.7661 23.6719 96.145 23.6684 97.1827C23.789 96.9879 23.9094 96.7929 24.0294 96.5977C24.9679 97.3515 26.933 97.1136 26.1518 98.161C26.2279 98.1197 26.3039 98.0783 26.38 98.0368C26.9349 98.5408 26.8527 97.9418 27.1143 97.9825C27.1831 97.9955 28.3518 98.7304 27.66 98.8695C28.7889 99.6 28.8297 98.3468 29.1765 98.4186C29.7642 99.257 31.4702 98.8931 30.5773 99.5733C30.6849 99.6458 30.7935 99.7184 30.9029 99.7909C31.5115 99.2231 31.637 100.13 31.9859 100.528C32.1222 100.587 32.2594 100.647 32.3977 100.707C32.5654 100.501 32.7328 100.296 32.8999 100.09C33.9189 101.614 34.3732 98.4145 34.2532 101.173C34.1115 101.3 33.9698 101.426 33.8281 101.552C33.5763 101.559 33.3264 101.565 33.0781 101.571C33.9782 101.912 34.8939 102.242 35.8007 102.557C36.794 103.599 37.6754 102.981 38.8333 103.873C38.9734 103.834 39.1139 103.794 39.2547 103.754C38.9874 104.315 38.5253 104.113 39.3608 104.592C39.3433 105.029 38.7146 104.938 38.5183 104.551C38.4712 104.457 39.1112 104.273 38.4815 104.109C38.0539 103.995 38.7166 104.691 37.469 104.185C37.4918 104.299 37.5148 104.413 37.538 104.527C37.3967 104.489 37.2561 104.451 37.1163 104.412C37.0507 104.145 36.9864 103.878 36.9233 103.611C36.5238 103.871 36.2121 104.3 35.5052 104.004C35.7428 103.91 35.5975 103.367 35.2402 103.279C35.1943 103.449 35.1484 103.618 35.1026 103.788C34.186 103.655 34.6277 103.242 33.7957 103.426C33.7631 103.272 33.7244 103.115 33.6896 102.96C33.1299 103.403 31.5453 103.337 32.0637 102.59C31.4119 103.27 30.6422 102.631 30.5348 101.89C30.4566 102.048 30.3783 102.206 30.2998 102.364C30.1215 102.343 29.9344 102.319 29.7503 102.295C29.6869 102.163 29.6244 102.03 29.5627 101.898C29.4078 101.957 29.2531 102.017 29.0986 102.075C29.0821 101.885 29.069 101.695 29.0506 101.503C28.7845 101.633 28.5186 101.763 28.2529 101.892C28.1799 101.717 28.1081 101.543 28.0378 101.369C27.9004 101.711 26.6884 101.351 26.4342 100.992C26.2967 101.053 26.1592 101.113 26.0216 101.173C26.0369 100.992 26.0528 100.811 26.0691 100.631C25.9451 100.732 25.8225 100.833 25.6964 100.932C25.5754 100.734 25.457 100.536 25.3412 100.338C24.3329 100.845 24.5865 100.136 24.4307 100.076C24.1411 99.9655 22.9195 100.004 22.7681 99.9005C22.6108 99.7971 22.6592 99.4817 22.5376 99.3925C20.5534 97.8936 21.0914 99.0554 20.5849 98.9486C20.3108 98.8854 20.2818 98.5465 20.0541 98.4596C19.6695 98.3274 17.6717 97.5967 17.5933 97.4906C17.4723 97.3525 18.5295 96.4254 17.8686 96.4214C17.4654 97.0264 16.8427 95.7504 16.7692 96.9063C16.3919 96.5545 16.0236 96.1976 15.6646 95.8362C15.2197 96.5708 15.0194 95.7583 14.4497 95.389C14.3266 95.3093 14.1754 95.2217 14.0104 95.1277C13.6765 94.7639 12.6362 93.8648 12.4505 93.4073C11.7207 92.5428 10.6666 91.1433 11.3725 90.8725C11.0789 90.7389 10.7861 90.5997 10.4927 90.4511C9.99357 88.7421 9.11816 87.1741 8.67842 85.3832C7.69143 81.5 7.91605 77.1156 8.88357 73.4782C9.18795 72.3186 9.51764 71.1938 9.86018 70.1043C9.92219 69.9082 10.1916 70.0123 10.2368 69.8712C10.4651 69.1384 10.8374 67.157 11.2354 66.1512C11.361 65.8281 11.681 65.7536 11.7268 65.6558C11.8862 65.32 11.509 65.2853 11.5735 65.1263C11.6739 64.872 12.4675 63.6353 12.6716 63.1916C12.7713 62.9704 12.5976 62.5946 12.7824 62.3611C12.7979 62.3408 13.0649 62.4895 13.0771 62.472C13.2947 62.001 12.9404 62.1994 13.0156 62.0401C13.5544 60.9035 14.0659 59.6613 14.6736 58.4341C14.8246 58.1293 15.2319 57.7429 15.3719 57.4864C15.4249 57.3882 15.1327 57.4738 15.3113 57.1321C15.3728 57.015 15.6622 57.1 15.7426 56.9738C16.0874 56.4318 15.3203 55.8173 16.2569 55.6588C16.6765 54.6791 17.3397 52.9065 17.8355 52.0421C17.9515 51.8379 18.1616 51.8266 18.2717 51.632C18.3498 51.4941 18.2575 51.1138 18.3834 50.8981C18.5098 50.6818 18.9363 50.4798 19.1835 50.0693C19.4441 49.6355 19.6635 49.0209 19.7284 48.9257C19.8052 48.81 20.1146 48.9378 20.1885 48.8206C20.4097 48.4674 20.7958 47.3537 21.0997 46.8904C21.4243 46.3899 21.7711 46.2046 21.8929 46.0429C22.0045 45.8926 21.9264 45.5457 21.9791 45.476C22.0608 45.3672 22.3329 45.5453 22.4384 45.4109C22.6104 45.1914 22.6375 44.8381 22.9107 44.5098C23.8234 43.4134 24.8167 42.3549 25.9072 41.3556C29.793 37.7396 34.1962 34.2495 38.6734 31.2996C39.2976 30.8867 39.5012 30.4631 40.4555 29.9303C40.8433 29.7152 40.8783 30.0962 41.1279 29.8493C41.2393 29.7389 41.0603 29.543 41.2114 29.4251C41.8858 28.9007 42.8521 28.5569 43.1618 28.3504C43.2855 28.2682 43.2634 27.9265 43.5119 27.7609C45.3759 26.5144 47.6929 25.202 49.7508 23.9685C50.8512 23.3052 52.4515 22.2477 53.7391 21.5447C54.0906 21.352 54.449 21.1589 54.8135 20.9656C57.9809 19.2839 61.353 17.6436 64.2452 16.2081C69.122 13.7928 73.934 11.2639 79.2453 9.50738C76.5316 9.79817 73.3334 11.2412 70.7015 12.3556C65.2521 14.6575 59.8591 17.525 54.5262 20.4131C52.3588 21.5858 50.2174 22.8007 48.113 24.0276C45.5214 25.5324 42.3295 27.5647 39.5193 29.3174C39.394 29.3953 39.264 29.7651 38.9866 29.9304C38.9284 29.9636 37.9887 30.116 37.7508 30.2826C38.4054 30.7279 37.106 30.846 36.8323 31.0708C36.4935 31.3479 35.9805 32.1884 35.0295 32.6507C34.1748 33.0664 34.1996 32.6885 34.1488 32.7044C33.8139 32.8171 34.0076 33.251 33.8387 33.4424C33.1131 34.2066 28.8481 37.4147 27.7639 38.402C27.4826 38.6473 27.2727 38.4423 27.2095 38.4975C27.04 38.6469 26.9946 39.0774 26.7279 39.3165C26.242 39.7511 25.5248 40.033 25.2653 40.2691C25.205 40.3239 25.1426 40.385 25.0791 40.4507C24.2917 41.2291 23.2996 42.6259 22.543 43.508C22.3056 43.7824 22.0898 43.5671 21.9826 43.6934C21.4985 44.2518 20.6281 45.9321 20.1319 46.6372C19.3063 47.7809 18.3502 48.8707 17.708 50.1186C17.5456 50.1236 17.383 50.1293 17.2203 50.1356C17.2702 50.3295 17.3212 50.5226 17.3731 50.7151C16.0758 52.69 15.2717 54.9274 14.31 56.9776C14.1963 57.2132 13.434 58.2892 13.3499 58.4888C13.2789 58.6538 13.52 58.9472 13.3716 59.1714C13.1646 59.4869 12.7063 58.9165 12.6428 59.5492C12.6266 59.7191 12.9404 59.6778 12.8963 60.0121C12.8752 60.1222 12.2179 62.1082 12.1678 62.2058C12.0729 62.3675 11.4622 62.321 11.4334 62.3622C11.2835 62.5764 11.7116 62.722 11.6926 62.894C11.6391 63.3989 11.1368 63.9124 11.117 63.9903C10.8694 64.941 10.6518 66.7774 10.1588 67.6913C10.0894 67.8189 9.77196 67.7062 9.7543 67.7271C9.64127 67.862 9.98024 68.0667 9.94596 68.2148C9.75499 69.0123 9.16526 70.1815 8.89599 70.976C8.86519 71.0673 8.99413 71.3079 8.93594 71.4671C8.60159 72.3874 8.392 72.0105 8.36579 72.0615C8.30478 72.1811 8.56851 72.4792 8.50887 72.8266C8.48176 72.9871 8.4462 73.1719 8.40563 73.3715C8.17631 74.4431 7.89838 75.9749 7.79117 76.9387C7.69044 77.8132 7.32945 77.7836 7.31592 77.8405C7.29508 77.9659 7.56804 78.3337 7.58691 78.9253C7.63605 80.0676 7.35655 79.9429 7.37892 80.4208C7.38113 80.4608 7.6618 80.3825 7.71645 80.9052C7.79884 81.9085 7.8312 84.2372 8.12125 85.309C8.2231 85.7204 8.51568 85.7492 8.63033 86.1593C8.80214 86.8115 9.00861 88.3461 9.05985 88.4577C9.07167 88.4895 9.39595 88.4494 9.46489 88.6307C9.54078 88.8301 9.46653 89.0873 9.52753 89.2345C9.86793 90.0918 11.0447 91.2095 9.83778 91.3315C10.2181 91.4682 10.5982 91.5946 10.977 91.7103C11.3109 92.3907 11.6871 93.0281 12.0874 93.634C12.2852 94.1215 13.3936 95.0794 13.7493 95.467C14.5272 96.0321 15.3387 96.5499 16.1632 97.0594C16.4794 97.2548 16.624 97.6047 16.8947 97.7639C17.1706 97.9333 18.5292 98.3335 18.7295 98.4344C19.0854 98.6431 21.1262 99.6794 21.368 99.8118C21.8421 100.1 22.1182 100.748 22.3663 100.762C22.5579 100.769 22.52 100.46 22.8574 100.532C23.4468 100.66 24.2125 101.357 24.3857 101.423C24.4563 101.449 24.4029 101.206 25.0599 101.459C25.4175 101.595 25.5212 101.88 25.6482 101.929C25.6893 101.943 25.7596 101.578 26.442 101.893C26.9057 102.107 27.0109 102.448 27.0618 102.468C27.1359 102.497 27.43 102.282 27.7252 102.399C28.415 102.678 29.6156 103.451 30.2698 103.685C30.399 103.732 30.4635 103.369 30.9771 103.566C31.335 103.703 31.1852 103.961 31.3195 104.015C31.531 104.098 31.9726 103.86 32.4466 104.012C33.0611 104.236 37.4515 105.782 37.6713 105.914C37.8107 106.015 37.9906 106.063 38.0309 106.236C37.9287 106.367 37.8264 106.499 37.724 106.63C37.1667 105.945 37.2975 106.604 37.1025 106.596C36.8122 106.583 35.8429 106.256 35.5557 106.32C35.4556 106.344 35.5743 106.711 35.0603 106.748C34.5077 106.787 34.4481 106.172 34.032 106.876C33.538 105.834 32.6104 106.536 33.3705 107.008C33.8076 107.296 38.2851 108.756 39.192 108.993C39.9446 109.207 41.3923 109.287 42.2861 109.536C42.8271 109.688 44.1283 109.995 43.9939 110.395C44.4642 110.543 44.0377 110.031 44.1502 109.995C44.3938 109.921 45.806 110.493 46.0986 110.536C47.326 110.723 48.8768 110.631 50.0984 111.122C50.2193 111.166 50.61 111.176 50.7336 111.212C50.9102 111.268 51.0805 111.336 51.2431 111.417C51.166 111.522 51.0886 111.626 51.011 111.731C50.9399 111.767 50.8203 111.776 50.6732 111.771C50.5424 111.734 50.1291 111.722 50.0012 111.676C49.4618 111.626 48.581 111.371 48.3823 111.768C48.8935 111.861 49.4115 111.953 49.9365 112.045C50.0691 112.093 50.4975 112.105 50.633 112.144C52.2531 112.319 53.8669 112.462 55.4663 112.58C55.4648 112.125 58.0942 112.305 58.2032 112.514C58.1444 112.733 58.0854 112.952 58.0262 113.171C56.5914 112.239 56.6516 113.358 55.6864 112.697C55.2774 112.659 55.374 113.034 55.166 113.088C53.089 113.62 55.1946 112.338 53.621 112.538C54.0433 113.108 52.7538 113.193 52.1723 113.204C52.0755 113.206 51.1226 113.042 50.5466 112.944C50.4008 112.902 49.9401 112.89 49.7975 112.838C49.6021 112.791 49.4533 112.757 49.4019 112.751C48.3068 112.607 46.4032 112.552 45.3636 112.052C44.5227 111.853 43.9743 112.131 43.179 112.058C42.5781 112.003 42.8055 111.778 42.5255 111.717C41.9361 111.586 41.575 112.339 41.4394 111.153C41.0235 111.208 40.5837 111.257 40.1568 111.307C40.1947 111.135 40.2326 110.963 40.2705 110.792C40.0213 110.737 39.7738 110.682 39.5282 110.626C39.4188 110.781 39.3026 110.934 39.1897 111.088C38.4397 110.671 38.8717 110.335 38.8343 109.816C38.6712 109.743 38.509 109.67 38.3479 109.598C38.1297 109.939 37.9127 110.28 37.6873 110.619C36.9145 110.404 36.1602 110.187 35.3892 109.958C35.3826 109.776 35.3763 109.594 35.3703 109.411C35.3252 109.58 35.2802 109.75 35.2351 109.919C33.9063 109.616 32.5905 109.296 31.2369 108.937C30.8024 109.106 32.8804 109.923 33.0399 109.978C33.9129 110.321 36.3446 110.645 36.2007 111.249C36.8568 110.933 38.4795 111.436 38.8744 112.096C38.0947 111.884 37.3273 111.67 36.548 111.445C36.5237 111.655 36.4995 111.864 36.4754 112.074C35.7075 111.017 35.5394 111.023 34.3352 111.536C34.4048 111.264 34.4745 110.992 34.5441 110.72C33.5786 111.48 32.7626 109.54 32.4036 110.69C32.0497 110.49 31.7022 110.291 31.3416 110.085C30.4688 109.976 31.52 111.285 28.3375 109.915C28.1185 109.818 28.2591 109.541 27.9157 109.452C27.8214 109.427 27.1084 109.669 26.0313 109.245C25.8621 109.178 25.9375 108.922 25.7725 108.827C25.4012 108.612 24.3892 108.8 25.0603 108.132C23.5378 107.297 23.9449 108.198 23.3377 108.265C22.9294 108.304 23.1892 107.861 22.8499 107.849C22.4259 107.829 22.5104 108.431 21.1156 107.583C21.2958 107.623 21.4767 107.662 21.6583 107.701C21.6277 107.537 21.5978 107.373 21.5687 107.209C20.5937 107.155 20.8754 106.742 20.1521 107.276C19.6778 106.68 19.156 106.409 18.2781 106.048C16.5764 105.324 17.0117 106.513 15.6669 104.478C15.2798 104.442 14.896 104.404 14.5096 104.361C14.1756 103.77 14.7934 103.656 14.1038 103.135C14.2466 104.198 12.8467 102.971 12.1716 103.398C12.2405 103.233 12.3098 103.068 12.3795 102.903C12.2142 102.794 12.0533 102.685 11.8881 102.573C11.8082 102.689 11.7283 102.805 11.6484 102.921C11.4864 102.683 11.3286 102.445 11.1748 102.208C10.9333 102.208 10.6866 102.204 10.4428 102.2C10.3493 101.769 10.2625 101.338 10.1817 100.908C10.0604 100.796 9.94033 100.684 9.82154 100.572C9.13702 99.8263 7.00389 97.9827 6.62317 97.0447C6.60389 97.0066 6.58466 96.9685 6.5655 96.9303C6.48143 97.0325 6.39764 97.1349 6.31411 97.2376C6.70517 98.2011 8.89626 100.095 9.59938 100.861C9.56814 100.944 9.53703 101.027 9.50606 101.11C9.48972 101.088 9.47343 101.067 9.45717 101.046C8.74215 100.267 6.51396 98.3409 6.11628 97.3611C6.02978 97.1031 5.94595 96.8444 5.86487 96.5851C5.74648 97.0534 5.28513 97.0893 4.82275 96.2618C4.44731 95.5661 5.4949 96.0121 4.4401 94.6537C4.37102 94.5506 3.79812 94.6283 3.02693 93.123C2.13375 91.2827 2.8754 92.0499 2.74568 91.7103C2.72096 91.6434 2.24968 91.1539 2.01477 90.5979C1.8811 90.2844 1.97484 89.9046 1.96049 89.8627C1.88591 89.6661 1.58619 89.699 1.48748 89.4198C1.23732 88.7113 1.11088 87.6926 0.932262 86.9725C0.85005 86.6452 0.613596 86.3691 0.581034 86.2202C0.531373 85.9888 0.736839 85.6456 0.694042 85.4135C0.527997 84.5699 -0.517719 83.3265 0.670868 82.7996C-0.552217 82.0605 0.747347 80.2322 -0.000102997 80.3933C0.0916691 78.1371 -0.0127201 72.4696 1.26791 72.9218C0.72021 72.077 0.84646 71.8746 1.0216 71.7228C1.11417 71.6634 1.22455 71.6152 1.24679 71.4906C1.31744 71.1003 1.06556 71.2535 1.14659 70.9461C1.33593 70.2326 1.59143 69.5768 1.777 68.878C1.91727 69.0324 2.058 69.1859 2.19919 69.3385C2.44272 68.6189 1.98322 68.769 2.10675 68.0051C2.34414 66.5996 2.49965 67.2659 2.99536 67.1885C2.55236 67.1202 3.08098 65.5476 3.18978 65.4022C3.25336 65.3167 3.66825 65.901 3.78873 64.8853C3.60506 64.8861 3.42136 64.8872 3.23764 64.8885C3.60113 64.5148 3.69469 63.2336 3.82027 63.0479C3.87765 62.9615 5.3786 62.924 4.47671 62.11C4.66098 62.1128 4.84521 62.1158 5.02941 62.1191C5.00184 61.5545 4.98228 60.9805 4.96602 60.4109C5.29155 60.4394 5.61693 60.4685 5.94216 60.4984C5.99994 60.3414 6.05876 60.183 6.11722 60.0268C5.81625 60.0317 5.51423 60.04 5.21259 60.0479C5.68969 59.1175 5.75311 57.7615 6.71148 57.914C6.63271 57.6405 6.55449 57.3679 6.47805 57.0931C6.82443 57.0773 7.17064 57.0628 7.51669 57.0496C7.84444 56.0648 7.65988 55.9688 7.64086 55.1777C7.85398 55.3025 8.06725 55.4269 8.28059 55.5512C8.1746 54.935 8.28165 53.9202 8.57415 53.2049C8.7128 52.8641 9.29288 52.4452 9.30384 52.3546C9.31011 52.2656 8.51339 50.8885 9.58366 51.324C9.71408 49.9489 10.4555 49.6849 10.6957 49.2195C10.854 48.9152 10.6895 48.6434 10.8577 48.2886C11.0983 47.7811 11.5029 47.3567 11.654 47.0673C11.7399 46.901 11.5273 46.7324 11.5875 46.6164C11.8731 46.0684 11.9183 46.5198 12.2455 45.9584C12.2742 45.9067 12.2489 45.3265 12.5821 44.8913C12.7663 44.6476 13.5132 44.1948 13.5526 44.1372C13.7225 43.8788 12.9694 43.66 14.2829 43.2721C14.1503 43.2165 14.0176 43.1611 13.8848 43.1059C14.3723 41.8046 15.0202 42.0053 15.2158 41.8139C15.2393 41.7884 15.2474 41.378 15.3962 41.2407C15.6472 41.0098 15.993 41.1077 16.0505 41.0582C16.2523 40.8825 16.6979 40.0992 17.3298 39.8544C16.5112 39.3472 17.6888 37.5019 18.8059 37.8968C18.9162 37.4749 19.0352 37.0511 19.1634 36.6257C19.4126 36.6254 19.6622 36.6262 19.9122 36.6282C19.8674 36.4274 19.824 36.2259 19.7821 36.0236C20.1425 35.959 20.503 35.8991 20.8633 35.8441C21.114 35.8628 21.3711 35.8756 21.6342 35.883C21.392 35.5809 21.1483 35.2802 20.9055 34.9787C21.0139 34.9391 21.1242 34.8978 21.2363 34.8549C21.5071 35.0232 21.7823 35.1877 22.0517 35.3575C22.113 35.2222 22.1768 35.0848 22.2432 34.9452C22.1199 34.757 21.9968 34.5687 21.874 34.3801C22.2712 33.6753 23.3859 35.5188 23.257 33.1355C23.5473 33.1117 23.8451 33.0819 24.1326 33.062C23.7672 32.2474 24.4861 32.3039 24.729 31.9669C24.9038 31.7262 24.669 31.4812 24.9591 31.2222C25.252 30.9614 25.4537 31.2157 25.4781 31.1976C25.7348 31.0049 25.7294 30.6356 25.9484 30.5256C25.9799 30.5102 26.3013 30.7421 26.5415 30.573C26.7829 30.4031 26.6629 29.9704 27.0575 29.745C27.2568 29.6317 27.5132 29.8405 27.6882 29.7345C28.5196 29.2348 28.2642 27.3415 30.0416 28.4228C30.0104 28.1326 30.4236 26.721 30.8602 26.4543C31.5442 26.0365 31.5241 26.5309 31.8167 26.3985C31.8581 26.381 31.9745 26.1312 32.5194 25.758C32.616 25.6921 32.4665 25.5345 32.4783 25.5222C33.1004 25.0673 34.4161 24.3322 35.1202 23.8799C35.1834 23.8397 35.1677 23.1166 36.1725 23.407C36.6557 22.3482 38.9034 22.3899 39.501 20.94C39.6419 20.8269 39.9426 20.8899 40.0062 20.8407C40.5507 20.4172 39.9851 19.9964 41.8054 19.9907C41.5254 19.7727 41.6704 19.329 42.1215 19.0832C42.8004 18.7147 42.6591 19.5264 43.1538 19.1681C43.0634 19.0181 42.9731 18.868 42.8827 18.718C44.3394 18.3941 44.1951 17.6102 45.4289 16.8937C45.867 16.6404 46.7203 16.6046 46.8262 16.5467C46.8652 16.5232 47.142 15.8847 47.1878 15.8559C47.4435 15.6993 47.6864 15.7876 47.9149 15.663C48.6609 15.2565 49.3013 14.2911 49.6103 15.2572C49.7204 14.9593 49.8237 14.6657 49.9313 14.3703C50.6876 14.684 50.9622 14.2485 51.1986 14.0129C51.349 13.8573 51.4816 13.7957 51.7389 14.1368C51.7731 13.8784 51.8072 13.6201 51.8411 13.362C55.0536 11.8212 58.2985 10.3085 61.5991 8.83258C61.5803 8.4708 63.0562 7.89358 63.1516 7.90656C63.587 7.95927 63.5453 8.78247 64.1548 8.30971C64.0955 7.98598 64.0362 7.66223 63.9771 7.33848C64.8016 6.83514 64.5182 7.31877 64.9503 7.3539C65.0753 7.25202 64.925 7.04988 65.1087 6.94411C66.123 6.35867 68.2916 5.35348 69.4605 4.81535C69.6982 4.7052 69.7552 4.93234 69.8295 4.90005C70.0346 4.80694 70.3057 4.36951 70.7233 4.18713C73.2533 3.07908 77.0075 1.7091 79.9477 0.92678C80.1492 0.872832 80.2671 1.12304 80.4038 1.0893C80.5947 1.04066 80.9234 0.690808 81.1284 0.645489C81.3234 0.601136 81.5102 0.758435 81.7164 0.714981C82.6585 0.518275 83.8275 -0.221022 85.1105 0.0649071C85.2208 0.0842953 86.6772 0.848843 86.7357 0.913505C86.996 1.29711 86.0912 2.20163 87.9968 2.40539C86.5744 3.31266 87.2272 4.11202 89.398 4.16036C88.3461 4.48176 87.4502 4.83242 86.5891 5.19563C86.6185 5.30719 86.6479 5.41874 86.6773 5.53029C87.6455 5.86192 88.4538 5.83447 89.8731 5.628C89.848 5.74092 89.8234 5.85387 89.7994 5.96685C88.668 6.71448 87.4451 7.1458 86.8844 8.06444C88.1533 8.26325 89.419 8.49575 90.7535 8.82342C90.7044 8.91663 90.6495 9.01118 90.6077 9.1038C90.0538 9.41286 88.9194 9.80672 88.5413 10.1206C87.1084 11.3006 90.1155 10.3207 89.7191 10.921C88.0039 11.2963 86.3567 11.8041 84.7501 12.3422C84.7819 12.6087 91.394 11.7038 91.4459 12.9441C90.9697 13.0917 90.4874 13.265 90.0154 13.4499C90.2873 13.6606 90.5752 13.8706 90.8337 14.0906C90.7943 14.1855 90.7548 14.2806 90.7152 14.376C89.9711 14.7508 89.2281 15.1689 88.4878 15.6084C90.8321 14.6823 92.0775 14.7041 92.5885 16.7759C92.5577 16.8325 92.5252 16.8897 92.491 16.9474C92.087 15.6159 89.765 16.5592 88.5663 17.2405C88.9509 17.5216 89.9594 16.9196 90.2529 17.088C90.3335 17.1357 90.1796 17.4538 90.3621 17.5478C90.8849 17.7632 92.3958 17.931 92.2299 18.4152C92.2596 18.6527 89.9336 19.6277 89.3612 19.8043C90.6961 19.9142 92.0219 19.7355 92.735 20.262C92.4753 21.1679 92.2572 22.2644 91.066 22.6503C90.9353 22.9225 91.5958 23.0058 92.1696 23.115C92.772 23.2157 93.1159 23.3838 93.1268 23.5061C93.0125 23.7899 92.75 24.1118 92.4621 24.4549C92.7463 24.3118 92.9923 24.1878 93.1433 24.09C93.1591 24.1765 93.1749 24.263 93.1907 24.3494C92.8215 24.8287 92.1877 25.7584 91.0759 26.0575C91.2514 26.4885 91.8892 26.2431 92.1742 26.169ZM45.8173 113.224C45.7778 113.609 45.1902 113.433 44.8599 113.361C44.8965 113.439 44.9332 113.518 44.97 113.596C44.2808 113.39 42.9689 112.974 42.7736 113.697C42.2475 113.684 42.6033 113.093 42.4556 112.987C42.4026 112.946 41.6412 113.175 41.2083 112.611C41.0818 112.585 40.9557 112.56 40.8301 112.535C40.7542 112.77 40.6782 113.004 40.6021 113.239C40.4855 112.909 40.3677 112.579 40.2531 112.249C42.1157 112.603 43.9711 112.926 45.8145 113.224C45.8154 113.224 45.8163 113.224 45.8173 113.224ZM26.9751 108.813C26.3054 108.442 25.2872 107.84 25.2766 108.551C25.7405 108.681 26.2094 108.809 26.6762 108.931C26.7758 108.892 26.8754 108.852 26.9751 108.813ZM22.0009 36.3987C22.8434 36.5246 22.8466 35.7451 23.5813 35.2423C23.4868 35.1394 23.3922 35.0364 23.2977 34.9335C23.2484 35.4293 22.394 35.9051 22.0009 36.3987ZM63.6553 112.383C63.7743 112.44 63.8933 112.496 64.0122 112.552C63.4928 113.285 63.4241 112.753 62.8623 112.804C62.8283 112.807 62.8333 112.979 62.8215 112.98C62.6839 112.986 62.5653 112.774 62.4412 112.772C62.2017 112.769 61.9979 112.971 61.5721 112.945C61.2426 112.924 61.254 112.594 61.1377 112.598C61.0399 112.602 60.0137 113.463 59.3942 113.038C58.2345 112.237 63.3166 112.312 63.6553 112.383ZM67.0967 113.123C66.9824 113.122 66.8677 113.122 66.753 113.121C67.114 112.626 66.4173 112.68 65.9039 112.673C65.9367 112.188 67.0117 112.432 67.4962 112.303C67.3631 112.576 67.2299 112.85 67.0967 113.123ZM52.1111 111.241C52.5932 111.238 52.4571 111.834 52.4198 112.012C52.2667 111.997 52.1142 111.983 51.9609 111.968C52.0112 111.725 52.0612 111.483 52.1111 111.241ZM55.7071 111.334C55.5314 111.736 54.4848 111.837 53.9897 111.828C53.9682 111.827 54.1219 111.613 53.7733 111.604C53.67 111.603 52.5657 112.33 52.8775 111.42C53.8256 111.401 54.7691 111.372 55.7057 111.334C55.7062 111.334 55.7066 111.334 55.7071 111.334ZM56.7263 111.65C56.525 111.766 56.3223 111.882 56.1194 111.997C56.0328 111.797 55.9464 111.597 55.8602 111.397C56.0839 111.364 56.3069 111.331 56.5298 111.297C56.5952 111.414 56.6608 111.532 56.7263 111.65ZM65.5373 12.305C65.4092 12.1368 65.2809 11.9687 65.1526 11.8006C64.9459 11.7582 64.586 12.9292 64.8984 12.973C65.1127 12.7492 65.3257 12.5266 65.5373 12.305ZM68.8796 11.2197C69.0819 11.2415 69.2834 11.2639 69.4839 11.2869C69.5185 10.8851 69.553 10.4836 69.5873 10.0824C68.7051 10.2233 67.753 10.3642 68.3238 11.2403C68.1461 11.3225 67.9675 11.4054 67.788 11.4888C67.7582 11.0309 67.6805 10.9111 67.0926 10.8858C67.2397 11.4742 66.6387 11.4201 66.1389 11.801C66.5584 11.6413 66.9667 11.4881 67.3849 11.3313C67.4293 11.4264 67.4737 11.5215 67.5181 11.6167C66.6083 12.0004 68.0031 12.0819 68.4105 11.4342C68.515 11.5398 68.6194 11.6456 68.7236 11.7514C68.7757 11.574 68.8256 11.3978 68.8796 11.2197ZM11.6811 57.7579C11.8308 57.6774 11.9806 57.5973 12.1306 57.5177C11.0784 56.4935 11.8501 57.9745 10.5593 58.2452C11.4159 58.3367 10.9491 59.3739 10.9784 59.455C11.2855 59.4379 11.5919 59.4234 11.8985 59.4093C11.8196 58.8632 11.7477 58.3113 11.6811 57.7579ZM14.1214 54.7234C13.2951 54.8404 14.2819 52.7633 14.7966 52.1518C14.9191 52.0024 15.4106 51.8885 15.4349 51.7466C15.3531 51.607 15.2717 51.4669 15.1907 51.3265C15.6544 51.4746 15.94 49.8846 16.0449 49.2238C16.2247 49.2652 16.4042 49.3071 16.5836 49.3494C16.6399 49.1237 16.6978 48.8978 16.7574 48.6718C16.8904 48.7882 17.0236 48.9045 17.1569 49.0206C17.0675 48.7674 16.9795 48.5134 16.8942 48.2566C17.0595 47.5666 17.6349 48.4302 17.6587 47.8501C17.6904 47.2026 16.7133 47.656 16.4125 47.4448C16.2378 47.8848 15.8721 48.8738 15.6474 49.2728C15.5198 49.4999 15.0948 48.9093 15.1824 50.2683C14.9058 50.3937 14.6303 50.52 14.3548 50.6492C14.3778 51.183 14.4089 51.7121 14.4474 52.2369C14.1925 52.1947 13.9373 52.1533 13.6818 52.1128C13.6224 52.1388 13.6403 53.3108 13.8316 53.344C13.2261 53.4999 12.7664 54.2291 12.3627 55.0273C12.446 55.1621 12.5297 55.2965 12.6138 55.4305C12.7223 54.5291 12.8581 55.2432 13.1978 55.1218C13.3938 55.0517 13.8496 54.7726 14.1214 54.7234ZM60.9008 15.1538C61.7987 14.0442 61.2955 14.8407 62.5627 14.2194C62.3357 13.9785 62.1082 13.7378 61.8804 13.4974C61.5022 14.3253 60.3232 14.4809 60.8996 15.1544C60.9 15.1542 60.9004 15.154 60.9008 15.1538ZM73.0551 8.31236C72.4311 8.79245 72.9684 9.09359 72.1602 9.62128C72.1598 9.62147 72.1594 9.62165 72.1589 9.62183C72.6222 9.45602 73.1003 9.28555 73.57 9.12094C73.3986 8.85127 73.227 8.58174 73.0551 8.31236ZM34.1821 30.2391C33.4902 30.5902 33.7644 30.6909 32.9203 30.7196C32.4732 31.8193 33.1083 31.2208 33.4386 31.6495C33.5279 31.38 33.6135 31.1141 33.7009 30.8478C34.4551 30.9093 34.1845 31.4355 34.2149 31.4736C34.2153 31.4733 34.2156 31.473 34.216 31.4727C34.3146 31.6018 34.3206 31.64 34.5508 31.5882C34.4252 31.1401 34.303 30.6898 34.1821 30.2391ZM32.0445 32.7411C32.0179 32.3034 31.8295 31.8626 31.1483 32.1118C31.1479 32.1121 31.1476 32.1124 31.1472 32.1127C31.6027 32.7763 30.6987 32.6718 30.4949 32.908C30.4889 33.0255 30.4834 33.1427 30.4782 33.2596C31.0057 33.0781 31.5163 32.9146 32.0445 32.7411ZM24.014 40.7128C23.3903 40.0824 23.846 39.5231 22.5595 39.6326C22.4326 39.7796 22.3083 39.9261 22.1848 40.0739C22.235 40.3002 22.287 40.5256 22.3408 40.7499C19.5448 41.4113 21.0464 43.733 23.0768 40.1588C23.0768 40.1579 23.0768 40.1571 23.0768 40.1562C23.3908 40.3396 23.7033 40.5251 24.014 40.7128ZM26.5369 38.2922C26.2429 37.9302 25.949 37.5681 25.6554 37.2059C26.7196 37.7596 26.4234 36.5848 27.5788 36.6244C27.543 36.4674 27.5078 36.31 27.4732 36.1521C27.904 36.1755 30.3484 34.2204 29.3724 34.1107C28.9389 34.0651 28.7225 34.8055 28.6755 34.8334C28.507 34.9307 28.0579 34.7882 27.8353 35.0106C27.7066 35.1398 27.7146 35.7547 27.4402 35.9936C26.8142 36.5357 24.8279 36.6184 24.8536 38.2143C24.703 38.1617 24.5553 38.1064 24.4034 38.055C23.9123 38.6137 24.325 38.7843 23.6283 38.8655C23.5815 38.8779 23.5307 38.8907 23.4756 38.9042C23.679 39.3188 23.9117 39.4586 24.1533 39.4391C24.9613 39.5043 25.7144 37.2 26.2509 38.6516C26.2513 38.6513 26.2516 38.651 26.2519 38.6507C26.3446 38.533 26.4436 38.4099 26.5369 38.2922ZM43.9597 24.3533C44.2152 24.6612 44.6824 23.653 44.9956 24.5781C45.0807 24.1368 45.1704 23.6939 45.2641 23.2497C45.2163 23.1752 45.1685 23.1007 45.1207 23.0262C44.8923 23.2458 44.6668 23.4649 44.4441 23.6834C44.3696 23.5644 44.2951 23.4454 44.2206 23.3265C44.1035 23.99 42.3789 24.8154 42.1563 24.3709C42.1827 24.6031 42.2097 24.8351 42.2374 25.0667C41.1662 25.0752 40.8409 26.0142 39.7014 26.1061C39.734 26.2937 39.7671 26.481 39.8006 26.6682C39.6808 26.5796 39.5609 26.4912 39.4409 26.4028C39.1351 26.5878 38.8186 26.782 38.5099 26.9727C37.8607 28.1059 40.1624 27.4101 40.3406 27.1965C40.3647 27.1664 40.1568 26.868 40.3173 26.6919C40.6031 26.3743 42.7053 25.4342 43.1775 24.8589C43.3114 25.0595 43.4453 25.2601 43.5791 25.4607C43.702 25.0928 43.8288 24.7237 43.9597 24.3533ZM19.8624 43.8955C19.6332 43.7895 19.4034 43.6844 19.1731 43.5801C18.7205 44.5501 18.1754 44.9441 18.9816 45.2157C18.9819 45.2152 18.9822 45.2148 18.9825 45.2144C19.2674 44.7713 19.5572 44.3356 19.8624 43.8955ZM31.5587 106.178C31.6739 105.703 31.3042 105.404 30.6678 105.573C30.6517 105.716 30.6358 105.859 30.62 106.003C31.0167 105.69 31.1774 106.498 32.0618 106.656C32.1304 106.421 32.199 106.185 32.2677 105.95C32.0307 106.026 31.7944 106.102 31.5587 106.178ZM20.508 43.2697C20.9275 43.2134 20.8513 41.9584 20.43 42.3818C20.1061 42.7103 20.28 43.302 20.508 43.2697ZM76.0181 7.57166C75.8166 7.59946 75.6138 7.62822 75.4096 7.65795C75.394 7.89069 75.3784 8.12351 75.3629 8.35644C75.3633 8.35626 75.3637 8.35608 75.3642 8.35589C75.5841 8.09275 75.8021 7.83135 76.0181 7.57166ZM36.2303 28.6788C35.6876 29.1079 35.1565 29.5356 34.6171 29.9767C34.6931 30.0898 34.7691 30.2029 34.8451 30.3161C35.1036 29.5033 35.644 29.7721 35.7915 29.7043C35.7909 29.7047 35.7903 29.7051 35.7898 29.7055C36.2696 29.4873 36.7115 29.2656 37.2008 29.1158C36.8772 28.9697 36.5537 28.824 36.2303 28.6788ZM38.6465 28.022C38.0107 27.2936 37.8025 27.2974 37.3406 28.4521C37.4427 28.5249 37.5447 28.5978 37.6467 28.6707C38.0458 28.3018 38.1843 27.9356 38.3918 28.4022C38.476 28.2756 38.565 28.1461 38.6465 28.022ZM29.9134 34.2744C30.2056 34.4279 30.7844 33.5528 30.6453 33.4683C30.5909 33.4314 29.3375 33.9715 29.9134 34.2744ZM38.9718 107.906C38.7664 107.786 38.5699 107.668 38.3579 107.546C38.6851 107.516 38.9894 107.48 39.3085 107.447C39.1963 107.6 39.0841 107.753 38.9718 107.906ZM41.6928 107.117C41.8223 107.27 41.1358 108.007 42.0194 108.425C41.3419 108.299 40.6362 108.163 39.9573 108.027C40.3106 107.964 40.6543 107.898 41.0064 107.832C41.0039 107.577 41.0017 107.322 40.9999 107.068C41.2294 107.084 41.4604 107.1 41.6928 107.117ZM42.2867 107.892C42.0553 107.173 43.9996 107.531 44.1538 107.642C44.1895 107.668 44.2801 108.195 44.3293 108.314C44.0375 108.256 43.7481 108.197 43.4612 108.139C43.5254 108.312 43.5902 108.486 43.6554 108.659C43.3107 108.643 42.9492 108.623 42.5951 108.603C42.7744 108.48 42.9541 108.357 43.134 108.234C42.8487 108.12 42.5663 108.006 42.2867 107.892ZM34.4555 106.181C34.6949 106.263 34.9365 106.345 35.1804 106.426C35.1934 106.176 35.2067 105.925 35.2205 105.675C35.0734 105.636 34.9271 105.597 34.7815 105.558C34.673 105.766 34.5644 105.974 34.4555 106.181ZM39.543 107.123C38.9155 108.191 38.5467 105.452 39.4509 106.645C39.5427 106.766 39.6024 107.02 39.543 107.123ZM44.8491 107.926C45.7735 107.231 45.2425 109.065 44.6244 108.374C44.594 108.337 44.7793 107.977 44.8491 107.926ZM51.0015 109.023C51.064 109.036 51.1117 109.662 51.779 109.141C51.872 109.221 51.965 109.301 52.0581 109.381C51.9325 109.507 51.3998 109.565 50.9159 109.523C50.814 109.493 50.4916 109.484 50.3918 109.448C49.8813 109.37 49.4465 109.185 49.6406 108.897C49.9276 108.939 50.1857 108.886 50.4793 108.949C50.5728 108.983 50.8748 108.991 50.9703 109.018C50.9807 109.02 50.9911 109.022 51.0015 109.023ZM49.0558 106.382C48.762 106.346 48.4698 106.309 48.1802 106.273C48.2394 106.48 48.299 106.687 48.3591 106.894C48.2076 106.92 48.0564 106.945 47.9058 106.97C47.7259 106.598 47.5486 106.226 47.374 105.855C47.9941 105.918 48.634 105.983 49.2663 106.044C49.1961 106.157 49.126 106.269 49.0558 106.382ZM41.5325 104.386C42.0338 104.745 42.7595 104.639 43.6481 104.868C43.6484 104.868 43.6487 104.869 43.6491 104.87C43.6935 104.882 43.7191 105.158 43.8629 105.198C43.9779 105.235 46.4571 105.435 46.1769 105.835C45.1809 106.05 44.9271 105.372 44.5096 106.307C44.5058 106.091 44.5022 105.876 44.4988 105.66C43.6886 105.122 43.2604 105.776 42.7032 105.931C42.7383 105.776 42.7733 105.622 42.8084 105.467C42.4768 105.38 42.1433 105.292 41.8035 105.201C41.8292 105.314 41.8551 105.426 41.8811 105.539C41.76 105.512 41.6393 105.486 41.5192 105.459C41.3275 104.935 40.9872 104.747 41.5325 104.386ZM50.3018 106.872C50.4136 106.606 50.6332 106.471 50.9225 106.421C50.984 106.444 51.1829 106.449 51.2458 106.467C52.1823 106.244 53.9124 106.847 54.856 106.726C54.1616 107.398 53.2141 106.813 52.5215 106.737C51.1788 106.589 52.0626 107.123 51.8146 107.294C51.7417 107.343 51.476 107.071 51.1964 106.924C51.1277 106.905 50.9103 106.899 50.843 106.874C50.6557 106.759 50.4591 106.705 50.3018 106.872ZM39.4767 104.132C40.0954 104.377 40.5331 104.193 40.9969 104.75C40.931 104.825 40.8651 104.901 40.7993 104.976C40.6148 104.854 39.104 104.242 39.4767 104.132ZM56.6038 107.173C55.3473 106.65 55.9011 107.782 55.2924 106.917C55.7375 106.899 56.1822 106.88 56.6255 106.858C56.6182 106.963 56.611 107.068 56.6038 107.173ZM25.047 44.9448C25.4676 44.5198 26.087 44.1945 26.0207 43.6192C25.6812 43.8603 25.3421 44.1122 25.0134 44.3636C25.0229 44.5579 25.0342 44.7517 25.047 44.9448ZM20.4795 60.5402C20.627 60.4758 20.5299 59.9118 20.5514 59.8658C20.5902 59.7812 20.7235 59.8704 20.7616 59.8864C20.9901 59.3235 20.3088 59.6262 20.403 59.1712C20.4187 59.092 21.0951 58.2373 21.2717 57.8443C21.5401 57.2355 21.8767 56.6629 21.9861 56.4397C22.1691 56.0643 22.2197 55.2012 22.5505 54.5897C22.6876 54.3376 22.9924 54.4 23.1314 54.1503C23.9878 52.5356 25.7537 49.3042 27.0038 48.1841C27.304 47.9015 27.8471 47.8712 27.9667 47.6918C27.9746 47.4725 27.9847 47.2527 27.9972 47.0325C29.2755 47.5248 28.5715 46.6281 28.8917 46.1429C29.097 45.8359 29.479 45.994 29.5122 45.9609C29.6469 45.8273 29.6983 45.6894 29.7539 45.5589C29.7884 45.4744 29.8249 45.3926 29.8893 45.3177C30.0758 45.1024 30.476 44.9662 30.5321 44.8735C30.565 44.8162 30.079 44.5809 30.8835 43.863C31.702 43.1344 32.5504 42.4504 33.4119 41.7369C32.1366 40.8448 32.5748 41.8325 32.2651 42.1784C32.1833 42.2702 32.0829 42.0394 32.0104 42.1173C31.8013 42.3396 31.5326 42.8941 31.303 43.0237C31.0605 43.1587 30.7602 42.6819 30.6427 43.0636C30.6367 43.0832 30.8316 43.2163 30.7967 43.2995C30.4584 44.1171 29.9862 44.0085 29.2326 44.6827C29.1945 44.7167 29.143 44.7648 29.0812 44.8239C28.2193 45.5576 25.9674 48.4027 25.811 48.4388C24.6589 48.519 27.6409 45.0474 28.1465 44.7709C28.2985 44.6566 28.3303 44.976 28.4875 44.8936C28.5213 44.8755 28.5737 44.6578 28.6818 44.3874C28.7653 44.1474 28.9099 43.8452 29.1091 43.6365C29.6147 43.1065 30.945 42.3471 31.4629 41.8755C35.9375 37.7647 40.9418 34.3632 46.0302 31.1068C46.1386 31.0373 46.127 30.7006 46.4853 30.4731C49.7638 28.3967 53.2218 26.483 56.7518 24.6937C60.3523 22.8689 63.9652 21.0766 67.5384 19.2834C69.081 18.5097 70.5139 17.5352 72.187 17.0069C72.296 16.7248 72.4042 16.4434 72.5118 16.1626C72.0855 16.54 70.9514 16.5362 70.8707 16.5662C70.8397 16.5783 70.7509 16.8816 70.4374 17.0134C69.995 17.2005 69.7196 17.1019 69.685 17.118C69.5761 17.1682 69.7405 17.3337 69.6362 17.3814C68.8535 17.7382 68.2786 18.08 67.5653 18.4237C66.7564 18.8136 66.1822 18.6374 65.7846 19.33C65.6425 19.2043 65.5005 19.0786 65.3582 18.9531C65.2576 19.8416 62.627 21.0459 61.5684 21.5371C61.2302 21.693 61.1504 21.3888 61.0406 21.4441C60.9699 21.4804 61.1829 21.8231 60.2863 22.1889C59.834 22.3735 59.5828 22.1723 59.3739 22.2895C59.2594 22.3542 59.4108 22.6036 59.2425 22.6896C58.2621 23.1908 57.4295 23.5138 56.4413 23.9665C56.4218 23.9755 56.4031 23.9828 56.3852 23.9886C56.1448 24.0671 56.0413 23.8846 55.9856 23.917C55.7647 24.0448 55.5662 24.6129 55.006 24.9109C54.0631 25.4077 52.2386 26.4169 51.3821 26.6804C51.2575 26.7174 51.0218 26.5167 50.9433 26.5666C50.825 26.6432 50.9293 26.934 50.9088 26.9477C50.498 27.191 50.6047 26.8028 50.3631 27.0224C50.2332 27.1408 50.253 27.5302 49.9338 27.7635C49.5131 28.0717 49.387 27.6686 49.2195 27.816C49.2029 27.8334 49.3429 28.083 49.1628 28.2016C48.4835 28.6456 47.5109 29.3184 46.8509 29.7319C46.663 29.8497 46.4208 29.7743 46.1601 29.9357C45.615 30.2575 42.7326 32.3132 42.4325 32.3997C42.4004 32.4076 42.4232 31.8798 42.0138 32.1764C41.9928 32.4041 41.9732 32.6314 41.9548 32.858C41.5939 32.7659 41.228 32.6782 40.8657 32.5889C41.4308 33.3774 40.3482 34.3322 39.7807 33.5183C39.6298 33.5775 39.4798 33.6363 39.3254 33.6987C39.4595 34.4507 39.1387 34.3701 38.8664 35.0742C38.6609 34.9645 38.4554 34.855 38.2499 34.7456C38.3138 34.8731 38.3779 35.0005 38.442 35.1278C37.7171 34.7194 37.728 35.6694 37.6784 35.7127C37.4819 35.8834 37.2116 35.8471 37.1201 35.9253C36.7643 36.2228 36.1541 37.0378 35.6672 37.269C35.6434 37.2798 35.4623 37.0083 35.3164 37.0734C35.0548 37.1897 35.3323 37.5773 34.6993 37.3696C34.7307 37.5247 34.763 37.6791 34.7948 37.8341C34.6875 37.8277 34.5803 37.8212 34.4734 37.8147C34.1389 38.1353 33.8067 38.4577 33.4788 38.7801C33.4446 38.092 32.8857 38.1562 32.8072 38.7891C32.7833 39.0014 33.1046 39.1689 33.0978 39.241C33.0898 39.3319 31.41 40.5511 31.1695 40.4795C31.1647 40.6241 31.1608 40.7681 31.1577 40.9115C30.9814 40.7854 30.805 40.6593 30.6286 40.5333C30.6375 40.624 30.6467 40.7144 30.6561 40.8047C29.9997 40.8861 29.5389 42.4501 29.3151 42.564C29.1915 42.628 28.6713 41.8836 28.2638 42.38C28.4139 42.5777 28.564 42.7754 28.7142 42.9729C28.6291 43.0987 28.5471 43.2217 28.4663 43.3436C28.3222 43.4561 28.0295 43.4725 27.788 43.4108C27.6486 43.3855 27.5249 43.3373 27.4514 43.2653C27.5003 43.4595 27.5507 43.6529 27.6026 43.8456C27.02 43.5975 26.1823 44.7171 26.0937 45.3582C25.8604 45.3558 25.6262 45.3559 25.3912 45.3586C25.4033 45.6586 25.4205 45.9559 25.442 46.2509C25.1733 46.6583 25.2436 46.0431 25.1543 46.1019C24.9573 46.2301 24.7047 47.4607 24.1831 46.9427C24.0855 47.0604 23.9885 47.1787 23.8922 47.2977C24.0081 47.4896 24.1249 47.6809 24.2432 47.8705C23.5154 47.6282 23.434 48.1424 22.6827 48.731C22.7726 48.8912 22.8631 49.0509 22.9543 49.21C22.5971 49.3032 22.2412 49.3992 21.8846 49.5008C22.079 49.705 22.2742 49.9085 22.47 50.1112C22.4342 50.2343 22.399 50.3576 22.3643 50.4808C21.7117 50.3444 22.0264 51.0832 21.6914 51.1342C21.2008 51.2126 20.9605 50.7585 21.2311 50.1889C20.8229 49.9767 19.9981 51.667 19.8187 52.0511C19.9086 52.0719 19.9985 52.0928 20.0883 52.1138C20.2509 51.7059 20.4204 51.2965 20.5945 50.8902C21.7438 51.1887 20.8631 52.0161 20.7183 52.5517C20.7053 52.6013 20.9322 53.0552 20.632 53.4964C20.5153 53.6642 19.5738 54.0623 19.4688 54.1842C18.6217 55.1492 19.8455 54.7562 18.5837 55.4735C19.2351 55.5239 18.4664 55.9154 18.2486 56.621C18.2087 56.7418 18.1952 57.8939 18.1794 57.9619C18.0646 58.3913 17.7842 57.7338 17.6426 58.3684C17.7377 58.4961 17.8329 58.6238 17.9284 58.751C17.8673 58.8848 17.8067 59.0187 17.7465 59.1527C16.244 59.4616 17.001 60.0323 16.9858 60.366C16.9794 60.5025 16.7447 60.223 16.6782 60.5567C16.653 60.6827 16.848 60.9154 16.7375 61.2328C16.3963 62.222 15.1846 62.1434 15.9662 63.4767C15.7507 63.5532 15.5357 63.6297 15.3199 63.7095C15.4811 63.8768 15.6428 64.0433 15.8049 64.209C14.9728 64.7179 15.6533 64.6698 15.5529 64.9272C15.2866 65.6058 14.7061 66.9708 14.1898 66.9473C15.0904 67.8964 13.6312 68.2232 13.6016 68.4767C13.693 68.6567 13.7833 68.8418 13.8751 69.023C13.691 69.1496 13.5073 69.2763 13.3241 69.4033C14.4325 69.6348 13.1163 70.194 13.0777 70.274C13.0333 70.3608 12.9915 71.7939 12.8637 72.29C12.7299 72.7878 12.2255 73.5916 12.207 73.6733C12.1975 73.7146 12.2134 73.9362 12.2212 74.2234C12.2226 74.5904 12.2178 75.0581 12.1471 75.4523C11.9442 76.053 11.271 80.0153 11.8427 79.7711C11.9794 79.51 12.1035 79.1481 12.1798 78.837C12.2995 78.2867 12.5756 76.2341 13.1118 74.4222C13.4845 73.1226 13.8755 71.8954 14.0558 71.3604C14.8936 68.8557 15.7058 66.2366 16.742 63.8011C16.8028 63.6582 17.085 63.74 17.1384 63.6184C17.2176 63.4332 17.1302 62.8483 17.2098 62.6655C17.5065 61.9801 17.8992 61.1619 18.0634 60.7982C18.428 59.9832 18.8402 59.4975 19.1487 58.8979C19.2429 58.7113 19.3719 57.5858 19.841 56.9962C19.9743 56.914 20.1078 56.8324 20.2414 56.7514C20.1538 57.1316 19.9423 58.1247 19.775 58.5493C19.5225 59.1797 19.1616 59.4038 19.0616 59.6347C18.976 59.8275 18.7915 60.9182 18.6113 61.368C18.5546 61.5083 18.2593 61.4184 18.2102 61.5388C17.9455 62.1908 17.6102 63.0567 17.6742 63.7343C17.6692 63.4655 16.9463 64.8536 16.9229 64.9324C16.8753 65.064 17.0948 65.3017 16.9991 65.5712C16.817 66.0875 16.2718 65.8227 16.6188 66.6679C16.3985 66.7722 16.1785 66.8772 15.9589 66.9828C16.7115 67.2388 15.0194 68.9543 15.7865 69.8229C15.8789 69.8603 17.0001 67.3191 17.0978 67.1157C17.6171 65.8529 18.132 63.8869 18.7628 62.7108C18.9488 62.3539 19.8821 61.3912 19.9122 61.3046C19.9596 61.1601 19.6497 61.1754 19.6666 61.1112C20.0167 59.7943 20.2602 60.638 20.4795 60.5402ZM43.0761 104.182C42.6816 104.064 42.2749 103.942 41.8731 103.82C41.9406 103.655 42.008 103.489 42.0754 103.324C42.2475 103.432 42.4211 103.54 42.5961 103.648C42.7627 103.576 42.9234 103.504 43.0877 103.431C43.0836 103.681 43.0797 103.932 43.0761 104.182ZM44.2359 103.673C44.6039 103.659 44.5446 104.025 44.6221 104.059C44.8521 104.163 45.0918 104.058 45.3278 104.111C44.8793 104.919 44.3832 104.406 44.2359 103.673ZM37.0424 101.687C37.1079 101.748 37.3976 102.802 38.2233 102.098C38.6064 102.481 38.9834 102.861 39.3789 103.243C38.7034 102.644 37.5388 102.812 37.1656 102.698C37.0252 102.656 37.0707 102.367 36.9594 102.333C36.3024 102.14 35.4946 102.605 35.6815 101.657C36.2191 102.093 36.9552 101.611 37.0424 101.687ZM40.9141 102.978C40.975 103.198 41.0397 103.42 41.0993 103.64C40.7147 103.553 40.3294 103.464 39.9522 103.376C40.1007 103.202 40.2492 103.027 40.3976 102.852C40.5687 102.894 40.7408 102.936 40.9141 102.978ZM13.741 87.9647C13.8435 88.2108 13.9511 88.4572 14.0613 88.6985C14.1877 88.6231 14.0603 88.3484 14.1058 88.2055C14.106 88.2059 14.1062 88.2064 14.1064 88.2068C14.1586 88.048 14.3521 88.0197 14.3405 87.783C14.1409 87.8442 13.9411 87.9049 13.741 87.9647ZM73.0333 16.6178C73.3997 16.4542 76.7605 14.9785 76.2606 14.6184C76.0157 14.4317 74.9421 15.1534 74.6086 15.2974C74.1425 15.496 72.6815 15.5177 73.0333 16.6178ZM79.043 14.1277C78.8988 13.6062 76.7444 14.4168 76.569 14.5975C76.6435 14.6483 76.7786 14.7746 76.8527 14.7847C77.2108 14.8298 78.5327 14.1777 79.043 14.1277ZM14.3345 73.6638C14.0299 73.7782 13.7227 73.9068 13.4178 74.0291C13.7709 74.0593 14.124 74.0902 14.477 74.1217C14.4289 73.9697 14.3824 73.813 14.3345 73.6638ZM20.1649 56.5428C21.6096 53.7607 23.2635 51.062 25.2403 48.5631C25.183 48.8728 25.1296 49.1823 25.0798 49.4917C23.4112 51.6235 21.7911 54.0313 20.7988 56.436C20.5876 56.4704 20.3763 56.5061 20.1649 56.5428ZM36.5903 99.935C35.8347 99.7279 35.1226 99.799 34.3999 99.1634C35.3101 99.0122 35.5208 99.7087 36.4493 99.3532C36.4497 99.3533 36.4501 99.3534 36.4505 99.3535C36.4963 99.5473 36.5429 99.7411 36.5903 99.935ZM20.0744 93.2034C20.4165 93.1277 20.7485 93.043 21.0846 92.958C20.8322 92.8071 20.5888 92.6578 20.3386 92.5002C20.2496 92.7341 20.1615 92.9685 20.0744 93.2034ZM39.2014 37.5818C39.5318 36.6517 41.797 36.1934 41.9685 35.2871C41.9793 35.2277 41.4959 35.2372 41.7177 34.4346C41.3821 34.804 41.1637 35.0969 41.3771 35.4532C41.1785 35.4231 40.9803 35.393 40.7824 35.3629C40.6477 35.5917 40.5153 35.8196 40.3859 36.0462C40.1635 35.6984 40.1591 35.7283 40.0339 36.1713C39.8366 36.1873 39.6368 36.2056 39.4395 36.2225C39.4865 36.4051 39.5341 36.5875 39.582 36.7697C39.3198 36.661 39.0592 36.5514 38.7957 36.4445C38.4969 37.0025 39.0623 37.168 39.2014 37.5818ZM36.8762 39.2677C37.0244 39.2461 39.8596 36.6866 37.99 37.088C37.6382 37.3916 37.3103 37.6802 36.9624 37.9878C38.0967 38.826 36.3853 38.6278 36.2823 38.6761C35.8223 38.8742 35.5422 39.5203 35.2661 39.7264C35.0237 39.907 34.7263 39.8368 34.5684 39.9766C34.0234 40.4566 33.1593 41.2096 33.4119 41.7369C33.8408 41.3818 34.2769 41.018 34.7195 40.6284C35.179 40.225 35.9327 40.2867 36.3747 38.9941C36.6482 38.8748 36.8346 39.2713 36.8762 39.2677ZM21.6859 93.3755C21.3774 93.8581 22.755 94.4602 22.8658 94.2587C22.9282 94.1441 22.5062 93.923 22.4672 93.8445C22.4668 93.8442 22.4664 93.844 22.466 93.8438C22.4513 93.8111 22.6819 93.6901 22.5125 93.5293C22.2358 93.4804 21.9654 93.4321 21.6859 93.3755ZM68.4199 20.1644C68.7315 20.3576 72.7246 18.3615 72.7955 18.1722C72.8105 18.1189 72.7072 18.0131 72.6866 17.9341C71.9135 18.7791 70.3588 18.9188 69.4373 19.3171C69.1794 19.4288 69.3544 19.5948 69.3411 19.6058C69.3405 19.6061 69.3399 19.6063 69.3393 19.6066C69.2009 19.6726 68.3263 19.4806 68.4199 20.1644ZM42.9977 34.2494C42.794 34.2828 42.5802 34.3238 42.3729 34.3609C42.4334 34.5324 42.4941 34.7037 42.5551 34.8749C42.5555 34.8746 42.5559 34.8744 42.5562 34.8741C42.7008 34.6668 42.8535 34.4547 42.9977 34.2494ZM48.8418 31.1205C48.7379 31.0397 48.634 30.9589 48.5301 30.8782C48.1159 31.1139 47.691 31.3595 47.2817 31.5985C47.285 31.5141 47.2884 31.4296 47.2919 31.3451C46.5792 31.576 46.5536 32.1087 46.1995 32.2634C46.1999 32.2632 46.2003 32.2629 46.2006 32.2627C46.1616 32.2794 45.9821 32.0895 45.8455 32.168C45.5284 32.3488 44.635 32.8253 44.6704 33.1136C44.7607 33.713 46.3257 32.3656 46.6578 32.1878C46.809 32.1043 47.1057 32.1815 47.1976 32.1293C47.298 32.0711 47.2678 31.7304 47.5072 31.5902C47.5739 31.5511 48.5444 31.3644 48.8418 31.1205ZM56.003 26.5912C55.7417 26.4155 55.5921 26.8003 55.4709 26.8141C55.4417 26.8176 55.5184 26.5121 55.2588 26.5728C55.2701 26.7469 55.2817 26.921 55.2937 27.095C55.5279 26.9273 55.7662 26.7584 56.003 26.5912ZM23.9913 94.3009C23.9784 94.2299 23.2716 93.8951 23.2192 93.9084C22.5612 94.1415 24.0523 94.8417 23.9913 94.3009ZM42.8472 99.767C42.664 98.9822 46.6391 100.559 47.0588 100.589C46.9526 101.041 46.0501 100.387 46.4492 101.114C46.0075 100.671 44.6236 100.577 44.3126 100.406C44.1297 100.305 44.1641 99.9033 44.1374 99.8847C44.0339 99.8175 42.9174 100.049 42.8472 99.767ZM50.4424 101.546C50.0684 101.389 49.6816 101.229 49.3 101.069C49.7812 101.105 50.2574 101.138 50.7299 101.17C50.6341 101.295 50.5382 101.421 50.4424 101.546ZM50.9771 101.428C51.0126 101.19 51.3982 101.245 51.813 101.342L51.7993 101.34C52.1571 101.399 52.5331 101.485 52.7036 101.454C52.4269 101.87 52.1085 101.783 51.7654 101.653C51.5107 101.54 51.2529 101.406 50.9771 101.428ZM29.1783 95.2801C28.7023 94.7815 27.9496 95.9571 28.886 95.6784C28.9154 95.6686 29.1968 95.3039 29.1783 95.2801ZM40.5202 38.9991C40.6108 38.9387 41.9324 38.5068 41.859 38.2903C41.638 37.582 41.1068 38.3227 40.7165 38.2854C40.084 38.2243 40.429 37.5194 39.6615 38.4257C39.6139 38.2856 39.5665 38.1452 39.5193 38.0048C38.9536 38.3773 39.7232 39.0142 39.7039 39.1862C39.7002 39.2367 39.313 39.4321 39.2925 39.5267C39.0313 40.7202 40.431 39.0524 40.5202 38.9991ZM17.1891 86.9323C17.0923 85.6621 16.7233 86.3821 16.3363 85.1872C16.0109 85.2503 16.8601 86.9163 17.1891 86.9323ZM30.9281 46.3625C31.8045 45.3949 32.8547 44.9851 33.3954 43.7841C32.7739 43.204 30.5318 46.4268 30.9281 46.3625ZM83.1064 16.5937C77.9174 16.9979 72.7693 19.8747 67.9792 22.2194C67.4542 22.476 67.2521 22.2066 67.0821 22.3292C66.969 22.4102 67.1075 22.6393 66.9439 22.7205C63.9164 24.2232 61.0239 25.8025 58.1483 27.3795C55.3752 28.9014 52.69 30.462 49.9885 32.0195C49.6422 32.2139 47.6956 32.7562 47.8066 33.7153C47.8968 34.4342 48.7915 33.2579 48.9918 33.1419C49.1419 33.0529 49.3113 33.3101 49.4106 33.2494C49.5162 33.1849 49.3182 33.0605 49.4389 32.9817C49.9393 32.6531 50.5547 32.3737 51.0079 32.0802C53.4145 30.5251 55.863 29.1276 58.3762 27.8179C60.5811 26.6692 62.8042 25.5562 65.0582 24.4515C65.6455 24.1635 65.6332 24.4452 65.6634 24.4314C65.6636 24.4306 65.6637 24.4299 65.6638 24.4291C68.7959 22.9036 72.1539 20.6869 75.6121 19.3774C78.0625 18.471 80.5051 17.6166 82.9645 16.8448C83.012 16.761 83.0593 16.6773 83.1064 16.5937ZM37.8237 39.9919C38.6502 40.5239 38.1319 39.7324 39.2758 39.3243C39.2537 39.1408 39.2323 38.9569 39.2116 38.7725C38.7407 39.1788 38.2771 39.5862 37.8222 39.9931C37.8227 39.9927 37.8232 39.9923 37.8237 39.9919ZM44.1849 35.6946C45.055 36.613 46.6897 34.4347 47.8079 34.0104C47.6475 33.3613 46.3729 34.526 46.0115 34.6909C45.8234 34.7758 44.5717 34.8334 44.103 35.5954C44.1303 35.6285 44.1576 35.6615 44.1849 35.6946ZM38.9844 96.9617C38.7932 96.9513 38.6034 96.9407 38.4148 96.93C38.8265 97.1796 39.2628 97.4326 39.6826 97.6789C38.9675 97.411 38.274 97.142 37.5622 96.8607C37.7639 96.6445 37.9655 96.4281 38.1671 96.2113C38.4482 96.4651 38.7064 96.7115 38.9844 96.9617ZM36.6023 96.4727C37.9 96.7237 36.3861 97.0371 36.1536 96.6486C36.0158 96.417 36.4689 96.4472 36.6023 96.4727ZM33.4765 95.0867C34.184 94.8323 35.3669 95.1493 34.6908 95.9019C34.1752 95.3012 33.6768 95.5229 32.8421 94.996C33.0268 94.8716 33.2115 94.7468 33.3965 94.6217C33.3971 94.6219 33.3977 94.6221 33.3983 94.6223C33.4238 94.777 33.4498 94.9318 33.4765 95.0867ZM37.3254 96.0963C38.0136 96.8274 35.6672 96.0009 36.5115 95.8739C36.548 95.8683 37.3041 96.0705 37.3254 96.0963ZM78.3848 19.5488C78.3613 19.2336 77.7615 19.4987 77.5485 19.57C76.6368 19.8701 75.574 20.4857 74.6449 20.8629C74.7533 20.9215 74.8595 20.9813 74.9702 21.039C76.1121 20.5286 77.2434 20.0339 78.3848 19.5488ZM71.8169 22.167C71.1984 22.4572 70.5768 22.7517 69.9594 23.0469C69.9016 23.0745 69.7401 23.4359 69.9693 23.3953C70.585 22.9829 71.2001 22.5737 71.8169 22.167ZM35.6545 44.1163C36.1525 43.9068 35.5908 45.5261 35.0382 44.7923C35.2419 44.567 35.446 44.3427 35.6545 44.1163ZM32.2787 47.6233C32.4614 47.3378 32.6518 47.0454 32.8317 46.7635C32.9032 46.8413 32.9746 46.9191 33.046 46.9969C32.7949 47.2007 32.533 47.4154 32.2787 47.6233ZM80.9257 18.7068C80.4746 18.501 79.7207 18.8753 79.2533 19.0661C79.691 19.2171 80.4249 18.7441 80.9257 18.7068ZM41.9281 39.5561C41.7472 39.3784 43.4456 38.2132 43.1238 38.9848C42.7208 39.1754 42.3308 39.3594 41.9281 39.5561ZM45.5289 37.4234C45.2024 37.7138 44.8695 37.8438 44.7235 37.4739C44.9279 37.3513 45.1268 37.2335 45.3279 37.1149C45.3949 37.2177 45.4619 37.3205 45.5289 37.4234ZM31.5366 93.6697C30.8347 93.4619 30.1433 93.2456 29.4488 93.0133C29.5121 92.9246 29.5754 92.8359 29.6386 92.7471C30.3034 92.9675 30.9688 93.1745 31.6426 93.3731C31.6073 93.4719 31.572 93.5708 31.5366 93.6697ZM81.6773 19.424C82.1163 19.1705 82.5725 18.9132 83.0119 18.6662C82.5209 18.7833 82.0114 18.9114 81.5178 19.0362C81.5708 19.1662 81.6238 19.2962 81.6768 19.4262C81.677 19.4254 81.6771 19.4247 81.6773 19.424ZM41.5972 95.1091C39.5135 94.1042 42.4218 94.269 42.8502 95.1018C42.851 95.1013 42.8517 95.1009 42.8525 95.1004C42.8901 95.1745 42.7122 95.4513 42.7709 95.5926C42.5732 95.4045 42.3784 95.2165 42.1864 95.0286C41.9433 95.1509 41.7012 95.2729 41.4602 95.3947C41.4086 95.3123 41.3552 95.2294 41.3031 95.1468C41.4013 95.1344 41.5026 95.1226 41.5972 95.1091ZM50.6352 96.6995C52.655 97.1231 50.4379 97.5116 49.5367 96.7189C49.5683 96.5814 50.4435 96.6594 50.6352 96.6995ZM45.2861 95.8195C44.9524 95.8209 44.6249 95.8228 44.2955 95.8233C44.273 95.7279 44.2507 95.6325 44.2285 95.5371C44.4971 95.5055 44.7473 95.4693 45.0095 95.4353C45.101 95.5633 45.1932 95.6914 45.2861 95.8195ZM35.4401 91.9481C34.992 91.7093 34.0786 92.4634 35.7135 92.6854C35.7427 92.5839 35.7719 92.4824 35.8011 92.381C35.7365 92.3795 35.5251 92.4198 35.517 92.4091C35.496 92.3752 35.6302 92.0475 35.4401 91.9481ZM54.3588 94.4176C54.4199 94.3826 54.5486 93.2772 55.0341 94.4763C55.2185 94.4219 55.4018 94.367 55.5859 94.3118C55.6117 94.5601 55.6378 94.8085 55.6641 95.0568C54.9876 94.8101 54.8718 95.2967 54.8205 95.3031C54.5863 95.329 54.7792 95.0898 54.6311 95.073C54.2488 95.0311 53.3654 95.1171 53.8288 94.4299C53.9943 94.1839 54.2985 94.4524 54.3588 94.4176ZM53.0839 93.6559C53.1568 93.757 52.8571 94.0533 52.9097 94.1514C52.9546 94.2376 53.7482 94.6515 53.4702 95.1767C53.3361 95.1401 53.2022 95.1032 53.0681 95.0661C53.0372 94.9114 53.0064 94.7567 52.9762 94.602C52.8307 94.7267 52.6845 94.8512 52.5376 94.9754C52.5247 94.9474 52.5105 94.9187 52.4956 94.8895L52.9333 94.9514C52.7525 94.5556 52.4479 94.0591 53.0336 93.8763C52.815 93.8701 52.5978 93.8639 52.382 93.8577C52.2418 94.0137 52.1018 94.1697 51.9619 94.3256C52.0667 94.0685 52.1714 93.8114 52.2761 93.5542C52.566 93.6 52.8587 93.6458 53.1542 93.6915L52.6329 93.6177C52.7834 93.6308 52.9337 93.6435 53.0839 93.6559ZM59.4857 94.2636C59.4522 94.4023 59.4187 94.541 59.385 94.6797C60.171 94.4642 61.3867 94.4236 60.6548 95.2687C59.5959 95.2886 58.543 95.3008 57.4955 95.3024C57.4335 95.1923 57.3714 95.0822 57.3099 94.972C58.0597 95.4312 57.9332 93.6877 58.575 94.2261C58.6838 94.317 58.3152 94.9015 59.0564 94.5579C59.0392 94.4156 59.022 94.2734 59.0049 94.1311C59.165 94.1755 59.325 94.2197 59.4857 94.2636ZM66.2203 94.7629C64.8629 94.5133 66.3821 94.053 66.6215 94.487C66.6211 94.4869 66.6207 94.4869 66.6202 94.4869C67.2743 95.6749 65.8028 95.0621 65.7133 95.0661C65.5932 95.0723 65.2816 95.8966 64.6741 94.6573C65.1875 94.6932 65.7028 94.7282 66.2203 94.7629ZM61.8168 94.3839C61.9303 94.3616 61.8586 94.5704 61.9072 94.5695C61.9076 94.5695 61.9081 94.5695 61.9085 94.5695C62.6244 94.5578 64.3483 94.4346 64.5121 95.1241C63.9691 95.1637 61.5769 95.2111 61.4589 94.7377C61.5783 94.6198 61.6975 94.5019 61.8168 94.3839ZM56.8113 94.6022C56.4152 94.1291 57.3837 94.1414 57.6245 94.3624C57.6701 94.41 57.2243 95.0924 56.8113 94.6022ZM26.9055 85.6056C26.0876 85.4596 26.8685 86.1927 26.3521 86.3841C26.5043 86.4272 26.6598 86.4707 26.8108 86.5107C26.8403 86.2086 26.8717 85.9068 26.9055 85.6056ZM32.177 57.7904C32.3192 57.6609 32.0581 57.5967 32.0637 57.5811C32.1365 57.4818 32.3726 57.4996 32.3798 57.4489C32.5098 56.5013 32.0164 56.8557 31.9685 56.8373C31.7487 56.7137 31.6355 56.3538 31.2155 56.4647C31.1803 56.6783 31.1466 56.8925 31.1142 57.1074C30.9434 57.1145 30.7721 57.123 30.6005 57.1328C30.642 57.6294 30.9893 57.2321 31.3557 57.3989C31.4986 57.4658 31.4625 57.8699 32.177 57.7904ZM26.1355 84.193C25.8052 84.5097 25.2511 84.8223 25.2751 85.3583C25.2754 85.3585 25.2757 85.3587 25.276 85.3588C25.281 85.4574 25.456 85.6153 25.4602 85.7502C26.1989 85.5016 26.3242 84.8735 26.1355 84.193ZM31.0953 61.2071C30.8541 61.4402 30.6142 61.6778 30.3753 61.9202C30.1417 61.7952 29.9081 61.6702 29.6745 61.5452C29.8181 61.4205 29.9619 61.2973 30.1059 61.1756C30.027 61.0655 29.9485 60.955 29.8703 60.8442C29.5013 60.8964 29.1317 60.9531 28.7612 61.0146C28.7332 61.302 28.7073 61.5896 28.6836 61.8773C28.8635 61.8281 29.0433 61.7801 29.2229 61.7332C29.0723 62.3843 28.5575 61.9723 28.0978 62.3608C28.2384 62.6361 28.3809 62.9099 28.525 63.1821C28.188 63.3224 27.8504 63.4684 27.5133 63.6178C27.4307 64.0859 27.5881 64.1967 27.9693 64.0294C28.1714 64.3658 27.6083 64.3919 27.6198 64.6969C27.6205 64.7219 27.9153 64.8021 27.9108 64.8219C27.5462 66.2024 26.8489 65.8397 26.7292 66.0397C26.6457 66.1831 26.9101 66.9777 27.0776 67.0534C27.3066 67.1486 28.6783 66.2813 27.9685 68.2074C28.9658 67.4539 28.7862 66.0953 27.5784 66.4507C27.7925 66.1692 28.1438 64.7004 28.2128 64.6264C28.3091 64.5173 28.6323 64.7115 28.7106 64.5579C28.7558 64.4703 28.0837 63.8657 29.0996 63.4489C29.0152 63.2972 28.9314 63.145 28.8482 62.9923C28.9935 62.9544 29.1388 62.9172 29.284 62.8807C29.5706 63.2353 29.8599 63.5867 30.1517 63.935C30.0713 63.0471 31.1035 62.8544 30.6783 62.1282C30.9322 61.8103 31.0932 61.6802 31.3364 61.9962C31.3906 61.8916 31.4449 61.7875 31.4997 61.6836C31.3643 61.5254 31.2295 61.3666 31.0953 61.2071ZM23.9599 83.5087C23.9159 82.9694 23.2827 83.5995 23.2974 83.6736C23.3932 84.0899 23.9876 83.7917 23.9599 83.5087ZM31.4068 58.1293C30.9867 58.3745 30.5674 58.6315 30.1479 58.9019C30.3906 59.0419 30.6333 59.1819 30.8759 59.3218C31.0486 58.9186 31.225 58.5219 31.4068 58.1293ZM27.3063 85.1063C27.2399 85.3091 27.1738 85.5119 27.1079 85.7147C27.8592 85.2472 27.7611 86.4288 28.0744 86.3294C28.1413 86.3069 28.2137 85.9296 28.1657 85.8169C28.131 85.748 27.4025 85.0819 27.3063 85.1063ZM47.4429 91.5297C47.2156 91.6273 46.9896 91.7249 46.7647 91.8223C46.8234 91.5933 46.8821 91.3642 46.9407 91.1351C47.0463 91.1121 47.1522 91.089 47.2584 91.0659C47.3194 91.2205 47.3808 91.3751 47.4429 91.5297ZM45.1045 91.4216C44.7502 91.3252 44.4017 91.2288 44.0588 91.1324C45.4423 91.218 44.3646 90.8712 45.2504 90.7507C45.2018 90.9743 45.1531 91.198 45.1045 91.4216ZM41.6705 90.1408C41.746 90.0141 41.8215 89.8874 41.8969 89.7606C42.2371 89.8433 42.5969 89.9292 42.9361 90.0087C42.8347 89.4822 42.7218 88.9524 42.6199 88.4245C42.4944 88.3932 42.3697 88.3618 42.2458 88.3304C42.0546 88.934 41.8628 89.5375 41.6705 90.1408ZM37.9827 52.615C38.1536 52.4701 38.426 51.6463 38.2987 51.5495C37.9325 51.6194 37.571 51.6864 37.2022 51.7607C37.3903 51.9692 37.5784 52.1776 37.7664 52.3861C37.6391 52.313 37.512 52.2398 37.3849 52.1666C37.3194 52.3685 37.251 52.5732 37.1877 52.7735C36.9554 52.6534 36.7149 52.541 36.4793 52.424C36.5975 52.6956 36.7163 52.9667 36.8355 53.2373C37.8506 52.9813 37.4753 52.6522 37.6221 52.5252C37.693 52.4636 37.8516 52.5543 37.9348 52.5968C37.9508 52.6029 37.9668 52.6089 37.9827 52.615ZM32.778 59.3116C33.2811 58.6222 32.9316 57.8107 33.7829 57.6587C32.4601 57.2217 32.2359 60.1432 30.8391 60.46C30.9766 60.6486 31.115 60.8363 31.2541 61.0233C31.3346 60.4783 31.89 60.3805 32.0654 60.1993C32.2056 60.0546 32.0041 59.9617 32.0142 59.9502C32.0146 59.9496 32.015 59.949 32.0153 59.9484C32.3244 59.5967 32.5785 59.588 32.778 59.3116ZM28.3367 84.4817C28.2871 84.0819 27.9449 83.9367 27.7068 84.3612C27.8288 84.5872 27.9538 84.8122 28.0892 85.04C28.1053 84.9081 28.345 84.5501 28.3367 84.4817ZM41.5998 88.7224C41.4291 88.5172 40.9142 88.5304 41.0191 88.9906C41.0375 89.0725 41.5963 88.9072 41.1264 89.5726C41.6077 89.6803 41.6952 88.8397 41.5998 88.7224ZM25.7219 73.5422C25.6892 73.7092 25.6577 73.8743 25.6267 74.0398C25.8056 74.1303 25.9847 74.2204 26.1639 74.3101C26.0161 74.0522 25.8673 73.8016 25.7219 73.5422ZM30.2072 85.0039C30.0084 85.9686 30.6918 85.2469 30.7509 86.1292C30.8818 86.1908 31.0125 86.2515 31.1464 86.3128C31.1467 86.313 31.1471 86.3131 31.1474 86.3132C31.2503 86.0718 31.3532 85.8303 31.456 85.5888C31.034 85.3994 30.6138 85.203 30.2072 85.0039ZM29.7669 63.8902C29.6139 63.9304 29.4606 63.9718 29.3074 64.0137C29.3617 64.2375 29.4173 64.4606 29.4741 64.683C29.6068 64.6353 29.7395 64.5882 29.8722 64.5418C29.836 64.3251 29.801 64.1075 29.7669 63.8902ZM32.5743 85.8897C32.1354 85.5923 31.647 86.2991 32.2708 86.5422C32.5361 86.6432 33.0312 86.1966 32.5743 85.8897ZM46.1348 45.4229C45.9361 45.4822 45.7444 45.537 45.5423 45.6004C45.5951 45.7808 45.6484 45.961 45.7021 46.1409C45.8474 45.8995 45.9903 45.6612 46.1348 45.4229ZM44.2368 89.4439C44.1749 89.6101 44.1129 89.7763 44.0509 89.9425C43.8826 89.868 43.7158 89.7936 43.5507 89.7192C43.6334 89.5592 43.7161 89.3991 43.7987 89.2389C43.9434 89.3072 44.0895 89.3755 44.2368 89.4439ZM45.0325 46.1224C44.8903 46.1892 44.7436 46.26 44.6008 46.3282C44.5706 46.4597 44.5413 46.5907 44.5127 46.7214C44.6779 46.7001 44.8438 46.6787 45.0106 46.657C45.0169 46.4793 45.027 46.299 45.0325 46.1224ZM37.3571 87.5693C37.2239 87.3106 36.2049 87.6909 36.8997 88.0754C37.3354 88.316 37.3782 87.6088 37.3571 87.5693ZM38.5204 87.6845C37.8547 87.0767 37.8692 89.2101 39.1846 88.1964C38.1739 88.1076 38.5627 87.7207 38.5204 87.6845ZM45.8937 88.4077C45.9147 88.4133 45.8704 88.7045 46.0325 88.7505C46.6139 88.915 47.4082 89.1988 47.8288 89.3025C48.8697 89.5668 52.1979 89.6527 52.4304 90.5533C52.4777 90.7433 52.201 91.2356 52.2283 91.2685C52.3081 91.361 52.9015 91.2042 52.7314 91.5728C52.1925 91.4735 51.6643 91.3743 51.121 91.2704C51.3036 91.0225 51.4864 90.7745 51.6693 90.5264C50.3035 90.4239 50.7554 90.4892 50.2623 91.0106C50.0841 90.7389 49.8951 90.4647 49.7155 90.1919C49.1782 90.3275 48.6635 90.4657 48.1187 90.5959C48.2643 90.4465 48.4101 90.2971 48.5561 90.1475C47.8803 89.6815 48.0462 89.9314 47.5622 90.2665C47.5964 90.0947 47.6306 89.9229 47.6649 89.7512C46.8881 90.0279 46.8437 89.4811 46.6948 89.4436C46.3849 89.3671 45.5473 91.3116 44.797 89.0329C44.0865 89.8904 44.5405 87.9239 44.0192 88.8574C43.4311 87.5764 44.9255 88.3361 45.6847 88.5366C45.6851 88.5367 45.6855 88.5368 45.6859 88.5368C45.7434 88.5526 45.6909 88.3488 45.8937 88.4077ZM41.3693 88.4103C42.0812 87.6523 40.1628 87.0753 40.4764 88.512C40.5608 88.5779 40.6459 88.6439 40.7316 88.7099C40.9435 88.6103 41.1564 88.5105 41.3705 88.4106C41.3701 88.4105 41.3697 88.4104 41.3693 88.4103ZM25.9797 81.7115C24.6194 81.2052 24.9587 82.0925 25.6525 81.955C25.7891 81.9264 25.9109 81.8411 25.9797 81.7115ZM34.0102 58.6688C33.9311 58.5901 33.8521 58.5113 33.7733 58.4324C33.5723 58.9163 32.6707 59.5868 33.3115 59.9549C33.54 59.5152 33.7726 59.0867 34.0102 58.6688ZM32.2985 62.5874C32.3921 62.5011 32.7092 62.1237 32.4387 62.0463C32.168 62.14 31.897 62.2373 31.6257 62.3383C31.6888 62.4826 31.7525 62.6265 31.8167 62.7701C31.9163 62.6647 32.2735 62.6103 32.2985 62.5874Z" fill="white"/>
</svg>
