<svg width="105" height="90" viewBox="0 0 105 90" fill="none" xmlns="http://www.w3.org/2000/svg">
<path d="M3.46641 1.10448C6.43032 -1.30795 8.51191 0.879438 11.151 1.58655C11.3662 1.64597 11.5894 1.69494 11.8219 1.72985C18.3712 2.71832 27.0136 1.86404 33.7285 1.97139C38.8097 2.05223 43.9804 2.27613 49.0526 2.48655C49.3159 2.4971 49.468 2.78642 49.5862 2.79152C50.6964 2.83878 52.5642 2.60442 53.6816 2.66105C54.137 2.68443 54.7036 2.70504 55.269 2.72498C57.7343 2.80044 60.962 2.97511 62.8469 3.3488C63.8519 3.54185 64.8976 3.69344 65.2201 4.41592C65.5832 4.48909 65.8524 3.89743 65.9587 3.87544C65.9598 3.87617 65.9609 3.87691 65.9619 3.87764C66.2983 3.80934 67.0444 4.3368 67.2189 4.33286C67.2484 4.33253 67.132 3.8655 67.557 4.05733C67.5944 4.07411 67.5198 4.37073 67.8853 4.42462C67.9791 4.43624 69.2658 4.15033 69.6347 4.18318C70.8236 4.26348 73.6381 5.18374 75.1259 5.57465C75.3522 5.63225 75.5238 5.49273 75.7652 5.55354C75.8934 5.58563 76.0321 5.82368 76.0708 5.83324C76.2416 5.87115 77.2184 5.23794 76.476 6.82749C77.2651 6.94322 77.2137 6.33391 77.3355 5.98109C78.202 6.18705 78.3562 7.10335 78.8551 6.35799C83.0056 7.82269 87.6375 10.396 91.1141 13.5116C91.2055 13.4043 91.297 13.297 91.3884 13.1897C92.0537 14.4874 92.9948 14.0715 92.9588 15.1485C92.9762 15.1549 92.9937 15.1612 93.0111 15.1675C93.612 15.4903 94.209 15.8472 94.7976 16.2392C102.12 25.9339 101.205 32.31 102.645 37.3098C102.689 37.4248 102.696 37.8007 102.734 37.9177C103.239 41.3642 103.729 44.8013 104.087 48.2476C104.125 48.6163 103.836 48.7396 103.896 49.3445C103.963 50.0198 104.404 50.9229 104.487 51.8122C104.56 52.5849 104.388 53.76 104.424 54.634C104.433 54.8308 104.635 54.9547 104.636 54.9768C104.641 55.1069 104.342 55.141 104.345 55.2669C104.349 55.4177 104.587 55.577 104.59 55.7541C104.6 56.4131 104.738 57.1064 104.741 57.1924C104.748 57.5941 104.462 57.7067 104.462 57.7398C104.464 58.1841 104.714 57.9956 104.708 58.1067C104.676 58.6779 104.051 59.1479 104.749 59.8707C104.502 59.8698 104.256 59.869 104.009 59.8682C103.92 60.4749 104.539 60.0282 104.667 60.1406C104.715 60.1904 104.74 61.4827 104.736 61.5837C104.721 61.9365 104.396 61.9707 104.394 62.0012C104.389 62.0778 104.826 62.9122 104.575 63.3891C104.278 63.9451 103.568 63.37 103.453 63.5111C103.434 63.5354 103.543 64.0833 103.341 64.1717C103.123 64.2697 103.093 63.7933 103 63.8072C102.936 63.8187 102.533 64.6389 102.213 64.5117C101.893 64.4141 102.212 63.3123 102.048 63.0911C102.021 63.0558 101.643 63.155 101.626 63.1232C101.567 62.9985 101.36 60.5307 101.411 60.4095C101.597 60.5245 101.782 60.6394 101.967 60.7541C101.971 60.5814 101.974 60.4073 101.978 60.2343C102.138 60.467 102.298 60.7007 102.457 60.9326C103.866 60.4511 102.318 59.4833 101.597 59.4997C101.263 59.509 100.465 60.2415 99.9167 59.6679C99.8394 59.7687 99.7621 59.8693 99.6847 59.9697C99.8407 60.1509 99.9963 60.3284 100.152 60.5119C100.23 60.3736 100.308 60.2412 100.385 60.1053C100.489 60.1441 100.592 60.1829 100.696 60.2217C100.886 60.5682 101.076 60.9222 101.265 61.2695C101.206 61.4608 100.908 61.4459 100.861 61.5775C100.27 63.2313 101.101 62.1208 101.05 63.1706C100.903 63.3332 100.756 63.4958 100.609 63.6574C101.26 63.5556 100.884 64.0514 101.206 64.5871C100.99 64.5344 100.773 64.4847 100.556 64.4335C100.73 65.2423 99.773 66.9596 100.912 66.4365C100.825 66.6303 100.737 66.8231 100.65 67.0148C100.851 67.1578 101.053 67.3029 101.254 67.4505C101.247 67.672 101.239 67.8921 101.23 68.1109C101.127 68.1184 101.023 68.1258 100.92 68.1333C100.908 67.9602 100.897 67.7862 100.885 67.6114C100.578 67.7629 100.271 67.9135 99.9633 68.0633C100.024 68.1877 100.084 68.3118 100.144 68.4354C100.41 67.8851 100.941 68.5511 101.368 68.7061C101.55 69.1565 101.026 69.4765 101.01 69.629C101.002 69.6952 102.005 70.501 100.937 70.2237C101.089 70.6539 101.239 71.0774 101.389 71.5139C101.317 71.6894 101.245 71.8637 101.173 72.0367C100.666 71.6928 100.129 72.7877 99.8885 72.0122C99.7078 71.436 100.156 71.2608 100.139 70.9814C100.123 70.7329 99.8083 70.6175 99.7794 70.3446C99.5904 68.5113 99.5501 67.0209 99.5635 65.2781C99.5665 64.9338 99.3929 64.6283 99.3974 64.4011C99.4027 64.1414 99.812 64.4366 99.6939 64.1142C99.569 63.7749 99.2487 63.7226 99.2355 63.6312C99.2277 63.5749 99.4967 63.3689 99.4842 63.2048C99.4329 62.5283 99.0791 61.5427 99.073 61.4498C99.0684 61.3402 99.1643 59.3943 99.2017 59.2957C99.2228 59.245 100.275 59.2557 99.1261 58.9268C99.0941 58.7971 99.0621 58.6672 99.03 58.537C99.2404 58.5403 99.4509 58.5437 99.6613 58.547C98.8026 57.8331 99.2682 58.0598 99.1394 57.3117C98.8301 55.5158 98.7535 52.8378 98.4802 50.872C98.419 50.4341 98.1524 50.2887 98.0812 49.7709C98.0166 49.2926 98.6276 47.9459 97.6261 48.3305C98.4054 47.1647 96.8475 47.1503 97.7492 46.5116C97.6026 46.4617 97.456 46.4118 97.3094 46.3619C97.845 45.7143 97.2987 45.588 97.1561 44.9602C97.0942 44.6896 97.7661 44.9352 96.9956 44.4601C97.0366 44.3484 97.0775 44.2365 97.1184 44.1246C97.2753 44.132 97.4321 44.1395 97.5889 44.1469C97.3939 43.5442 97.4693 43.4948 96.9008 43.6304C96.9724 43.3221 97.0437 43.0139 97.1147 42.7046C96.9213 42.6893 96.7279 42.674 96.5344 42.6587C96.1978 42.8383 97.4775 49.5251 97.7366 50.452C97.4204 51.594 98.1738 53.7684 98.1544 54.6659C98.1471 55.0293 97.7332 55.2282 97.7295 55.7516C97.7255 56.2701 98.1749 56.8982 98.2133 57.1713C98.349 58.0929 98.6265 62.4696 97.8445 59.5433C97.6426 59.6469 97.4406 59.7502 97.2386 59.8534C98.0507 60.9704 97.5763 60.5852 97.582 61.5708C97.5835 61.9796 98.1284 62.936 97.173 62.9519C96.9365 62.1955 97.1756 61.3652 97.1064 60.6931C97.0996 60.6272 96.6007 59.8804 96.6836 59.4615C96.7596 59.0836 97.6875 59.2606 96.6018 58.5541C97.5437 57.8757 96.6118 57.6107 96.5023 57.4656C96.3123 57.212 96.7998 57.1387 96.8326 56.8637C96.8691 56.5639 96.5252 56.3898 96.5194 56.3497C96.4768 55.952 96.2352 53.8598 96.4225 53.745C96.5175 53.821 96.6125 53.897 96.7074 53.973C96.795 53.4148 96.3049 53.5764 96.2312 53.4387C96.2226 53.3314 96.2141 53.2247 96.2057 53.1188C96.3136 53.1507 96.4216 53.1826 96.5295 53.2145C96.4452 52.5769 96.1324 53.1031 96.0522 52.1907C96.001 51.6071 96.3378 50.9764 96.3026 50.9215C96.2926 50.9058 96.0437 51.1148 95.984 50.8827C95.8857 50.4976 95.8233 49.822 96.1791 49.71C96.108 49.5245 95.7539 49.5775 95.7432 49.553C95.6977 49.445 95.3767 47.552 95.318 47.2107C95.159 46.2725 95.1193 45.2097 94.9445 44.1918C94.9267 44.0869 95.1623 44.1287 95.1431 44.0237C95.1123 43.8533 94.6562 43.0275 94.6159 42.8997C94.517 42.5819 94.5604 41.7131 94.4411 41.5913C94.4242 41.574 94.1487 41.8901 94.0151 41.5735C93.867 41.2219 94.3042 41.3695 94.306 41.3492C94.361 40.5901 94.0178 40.1577 93.9017 39.6586C93.866 39.504 94.1161 39.1864 94.0334 38.9659C94.0222 38.9313 94.0202 38.8203 94.0073 38.7864C94.0029 38.7763 93.9979 38.7665 93.9921 38.757C93.9772 38.7321 93.7002 38.8338 93.6817 38.81C93.4718 38.485 93.9484 38.0788 93.9562 37.9181C93.9767 37.5344 93.6197 37.8031 93.6136 37.7842C93.5593 37.5432 93.643 37.1855 93.5593 36.8166C93.1803 35.1574 92.9146 33.7858 92.5225 31.9258C92.4735 31.6962 92.6783 31.3468 92.67 31.3115C92.6406 31.1994 92.3303 31.3136 92.2565 30.9862C92.1021 30.3018 91.9111 29.668 91.6979 28.9729C91.6547 28.8328 91.9252 28.6779 91.8959 28.5676C91.802 28.1894 90.5885 27.2518 91.4886 26.8499C90.372 26.4612 90.8344 25.6785 90.4988 25.0755C89.8653 23.9003 88.5311 22.3 87.374 21.2288C87.1914 21.0523 87.0174 20.8784 86.8632 20.7142C86.6675 20.5053 86.7328 20.2238 86.6187 20.1056C86.428 19.8898 85.0211 18.9263 84.9634 18.8455C84.8718 18.6812 85.6327 17.837 84.3061 18.0823C83.8282 17.8285 84.1368 17.4865 84.0583 17.4014C83.4254 16.7413 82.151 17.1805 82.7772 16.4578C81.759 16.1419 80.9392 16.3064 80.9767 15.3353C80.7854 15.7203 80.244 15.7307 79.8046 15.3449C80.6358 14.946 80.7947 14.4832 82.0329 15.2985C82.0522 15.3115 81.8639 15.5625 81.883 15.5755C82.052 15.6918 82.5152 15.7731 82.8126 15.9706C83.1081 16.1676 82.8293 16.2481 82.954 16.3189C83.0684 16.3839 83.2208 16.1283 83.3855 16.2259C83.9124 16.5412 84.4128 16.7824 84.7071 16.9821C84.8928 17.1082 84.9362 17.4612 85.075 17.563C85.6095 17.9426 86.8189 18.6481 87.4001 19.2031C87.5219 19.3188 87.2779 19.4933 87.5304 19.7507C87.5595 19.7808 87.8779 19.6546 88.153 19.8203C88.2797 19.8965 88.3628 19.9961 88.4314 20.0918C88.5423 20.2319 88.6285 20.3648 88.7394 20.45C88.9108 20.5837 89.041 20.3246 89.3685 20.641C89.7632 20.8355 92.0285 24.4483 91.9584 24.6714C92.0477 24.9781 91.769 25.2774 91.8901 25.4206C91.9129 25.4451 92.269 25.3354 92.3415 25.4276C93.6309 27.0029 94.1252 30.7123 94.4402 32.3313C94.9119 34.54 95.3266 36.5111 95.7539 38.4878C95.773 38.5382 95.7761 38.7027 95.7927 38.7539C95.9852 39.9324 96.175 41.1205 96.3481 42.351C96.4186 42.4033 96.4891 42.4556 96.5596 42.5079C96.5233 42.1695 96.4868 41.8316 96.4502 41.4946C96.6221 41.4725 96.794 41.4504 96.9659 41.4282C96.9402 40.9688 96.5399 41.0767 96.2957 41.1182C96.3803 40.9372 96.4648 40.7561 96.5492 40.5746C95.9321 40.4978 96.1984 39.3292 96.1271 38.7468C96.1258 38.736 96.1243 38.7251 96.1226 38.7142C96.105 38.6598 96.1017 38.4852 96.0815 38.4318C96.0059 38.0635 95.7206 37.682 95.704 37.4832C95.6684 37.0589 96.0378 37.0083 96.0379 36.9738C96.036 36.9128 95.6115 36.3882 95.5475 35.9546C95.453 35.3213 96.0049 35.1484 95.3633 34.3574C95.4419 33.1678 95.0381 31.9062 94.6698 30.6079C95.2469 30.7352 94.4674 29.6663 94.3116 29.1123C93.6272 26.417 92.0785 22.2339 89.1195 19.352C88.6999 18.9126 88.261 18.4698 87.8225 18.0485C87.4904 17.7304 87.4172 17.2687 87.2027 17.1097C87.0885 17.025 86.8121 17.2744 86.6872 17.1146C86.6654 17.0861 86.8597 16.7996 86.5931 16.5305C85.9378 15.8362 83.6609 15.0309 83.4725 14.1858C80.5936 12.6307 77.6152 11.6246 74.7519 10.9414C74.7174 10.7863 74.6819 10.6312 74.6456 10.4759C73.9202 11.0108 71.9031 10.0975 70.8708 9.94435C69.0475 9.64602 66.7658 9.55122 65.2296 9.40958C64.8969 9.37802 64.6528 9.14771 64.3353 9.11997C64.1991 9.10841 64.0037 9.35441 63.8611 9.34224C62.2886 9.20919 60.1929 8.79762 58.6143 8.73671C57.4515 8.68955 56.3125 8.65381 55.1598 8.62905C52.9518 8.5815 50.738 8.53555 48.4517 8.51668C36.9115 8.4295 25.4795 8.7847 14.0776 8.601C13.9235 8.59855 13.932 8.29519 13.8134 8.29281C13.2299 8.27874 11.9537 8.46022 11.1364 8.50066C10.9986 8.5071 10.8733 8.50994 10.7639 8.50782C10.1427 8.49594 9.14958 8.03 8.92145 8.49662C9.65204 8.72754 10.3728 8.87841 11.1354 8.98389C12.6818 9.20341 14.2703 9.22585 15.8422 9.3631C16.0059 9.37741 16.026 9.66587 16.0462 9.6712C16.4224 9.77231 16.1832 9.37455 16.7356 9.35794C16.9127 9.35231 18.6048 10.2774 18.402 9.36038C18.8053 9.72794 21.6462 9.91938 22.2039 9.79987C22.3693 9.76341 22.2532 9.49151 22.286 9.47787C22.4288 9.41836 22.4922 9.79294 22.6202 9.80303C22.96 9.82736 23.8398 9.52665 24.0013 9.52933C24.3807 9.53387 25.5241 9.84275 26.0269 9.77287C26.4891 9.70912 26.407 9.31771 26.8033 9.28334C27.117 9.25728 26.7732 9.58485 27.4746 9.68702C27.8253 9.73701 29.0384 9.50685 29.3367 9.50818C29.6341 9.5095 29.9589 9.74499 30.3674 9.72893C30.9566 9.70627 32.2332 9.58226 32.8322 9.51041C32.8679 9.50637 32.9564 9.20261 33.0443 9.20941C33.2263 9.22313 33.1696 9.59856 33.307 9.63744C33.4447 9.67604 35.8278 9.64368 36.2338 9.6506C36.5129 9.65444 36.707 9.43185 36.861 9.4348C36.9819 9.43768 36.9929 9.75073 37.1161 9.75503C37.1541 9.75527 37.4823 9.48554 37.8074 9.49405C38.1143 9.5024 39.2793 9.76901 39.4147 9.77248C39.5026 9.77418 39.4079 9.55108 39.6677 9.55825C39.9045 9.56542 40.0574 9.85535 40.1921 9.86058C40.5071 9.87232 40.8602 9.62877 41.1923 9.6302C42.1451 9.63457 42.0982 9.99209 42.1544 10.0041C42.3136 10.0378 42.38 9.71065 42.4323 9.70433C42.6542 9.6787 43.1897 9.62276 43.3902 9.61182C43.6364 9.59814 43.7377 9.91047 43.9978 9.91388C44.1926 9.91543 44.5813 9.61538 45.029 9.60488C46.0278 9.57953 47.2082 9.5345 48.1975 9.55749C48.4896 9.56401 48.5303 9.84875 48.619 9.85719C49.0845 9.90167 49.3595 9.58725 49.492 9.59304C50.441 9.63302 52.155 10.1554 53.039 10.2119C53.3138 10.229 54.2976 10.1162 55.1328 10.0862C55.42 10.0768 55.6903 10.0766 55.916 10.0921C56.0218 10.0989 55.9173 10.3193 56.0358 10.2873C56.3186 10.2109 56.3046 9.75672 56.4464 9.77434C56.5147 9.78427 56.6634 10.0444 56.8597 10.0759C57.919 10.2414 58.6091 10.0746 59.1079 10.1126C63.6949 10.4725 68.429 11.0862 72.8564 12.1938C73.3578 12.3193 74.038 12.2128 74.7205 12.6804C74.7046 12.8225 74.6884 12.9645 74.672 13.1065C74.7359 12.9807 74.8001 12.8551 74.8646 12.7295C75.7417 12.9096 76.1218 12.8421 76.9329 13.308C77.0001 13.347 77.0164 14.0355 77.43 13.3355C78.09 14.1985 77.8157 13.4711 78.4858 13.6754C79.1426 13.8798 79.6989 14.3159 80.3 14.6452C80.5061 15.0543 78.8411 15.0153 78.7551 14.9866C78.6087 14.9215 78.6108 14.4919 78.478 14.4148C78.0826 14.1844 77.5556 14.3226 77.5905 13.957C76.9169 14.1068 77.6582 14.1821 77.4699 14.4731C77.1661 14.2089 76.8363 13.9421 76.5263 13.6887C75.9811 14.7007 74.4285 12.6632 74.324 13.5537C74.2144 13.3407 74.1014 13.1277 73.985 12.9148C73.0084 13.7901 72.7986 12.9386 71.9418 12.4099C71.9788 12.5621 72.015 12.7141 72.0504 12.8662C72.0207 12.9178 71.1476 12.9569 71.5696 12.4369C70.5826 13.0329 70.8608 11.7533 69.9385 12.5422C69.4763 12.5814 69.8469 12.0863 69.036 11.9559C68.5759 11.883 67.9311 12.0727 67.4134 12.0186C67.2942 12.0051 67.287 11.6822 67.1798 11.6672C67.0726 11.6523 66.9774 11.9545 66.8463 11.9445C66.5756 11.9245 66.2484 11.6612 66.0846 11.6621C65.934 11.6615 65.6892 11.9086 65.3222 11.9096C64.0444 11.9204 64.475 11.5758 64.2878 11.4211C64.0883 11.2586 63.8845 11.7587 63.4591 11.6584C63.4167 11.6481 63.5572 11.3367 63.4173 11.3364C63.3066 11.3363 63.2207 11.6806 62.8498 11.7141C62.6989 11.721 60.4244 11.6296 60.0775 11.6225C59.5628 11.6003 58.3811 11.2453 57.8462 11.2281C57.636 11.2199 57.3998 11.4934 57.1739 11.4839C56.6252 11.4605 55.8721 11.4254 55.1085 11.3989C54.848 11.3895 54.5874 11.3804 54.3407 11.3725C53.5147 11.345 52.0892 10.701 51.6239 11.2565C50.4776 11.3133 50.1914 10.8299 50.1078 10.8222C49.8758 10.8012 49.764 11.1179 49.4677 11.1291C45.6269 11.2656 40.5853 11.0147 36.9579 11.0174C28.5421 11.0254 20.0969 11.1756 11.6531 11.0292C11.6302 11.1701 11.6073 11.311 11.5845 11.452C12.5886 11.545 13.7498 11.7924 14.7377 11.8507C16.0513 11.9275 18.0118 11.3453 18.9634 12.3116C18.5693 12.3951 17.9436 12.0239 17.9488 12.5195C18.6413 12.5567 19.3526 12.594 20.0423 12.6314C20.0221 12.4025 20.002 12.1735 19.9818 11.9446C20.7165 11.8801 21.4529 11.9322 22.1938 11.9018C22.3198 11.8968 22.2312 11.6888 22.341 11.6881C22.464 11.6877 22.3799 11.8989 22.403 11.9007C22.7142 11.9038 22.8099 11.6902 22.8479 11.6934C22.946 11.7022 22.8687 11.9055 23.152 11.9635C23.6811 12.0719 24.0527 11.5322 23.9279 12.4331C24.0964 12.4336 24.2654 12.4342 24.4348 12.4348C24.4796 12.1896 24.5244 11.9444 24.5692 11.6992C25.6103 12.6935 26.0931 10.9578 26.6656 12.3388C26.8553 12.1289 27.0454 11.9191 27.236 11.7093C27.3419 11.9551 27.448 12.2009 27.5542 12.4467C27.5759 12.2362 27.5977 12.0257 27.6194 11.8152C28.6418 11.9747 29.7313 11.7267 30.7096 11.7556C31.3923 11.7758 31.5529 11.8597 32.1573 11.847C33.5006 11.818 32.165 12.2288 33.2778 12.6859C33.2211 12.4275 33.1644 12.169 33.1077 11.9105C33.2929 11.8169 33.4782 11.7233 33.6635 11.6297C33.791 11.841 33.9186 12.0522 34.0461 12.2635C34.6228 11.1745 34.9875 12.0583 35.0651 12.0587C35.1281 12.0572 35.3467 11.4009 36.0195 11.9619C35.7448 11.0613 36.535 11.9598 36.5984 11.9655C36.6587 11.9695 37.4341 11.7737 37.7489 11.7843C37.9968 11.7923 38.5201 11.9894 38.8899 11.9825C39.2157 11.9764 39.1847 11.671 39.2085 11.668C39.609 11.6455 39.3565 11.8808 39.6455 11.8945C39.9344 11.9082 40.159 11.6498 40.2221 11.6735C40.2535 11.6862 40.1459 11.9696 40.2901 11.9981C40.6782 12.0759 41.3756 11.8324 41.8181 11.8434C41.9756 11.847 42.1717 12.0898 42.3462 12.0986C42.6137 12.1114 42.741 11.7922 42.8958 11.803C42.9488 11.8076 43.2906 12.3053 43.7217 12.2332C43.8034 12.2187 44.0533 11.1738 44.3565 12.6601C44.3829 12.4516 44.4092 12.2431 44.4356 12.0346C45.8845 11.5314 46.2636 13.2315 46.9209 11.7334C47.9577 11.9127 47.2383 12.4911 47.3515 12.5822C47.4224 12.6397 47.7705 12.4824 47.8073 12.492C47.8737 12.5107 47.8602 12.6987 47.9331 12.6985C49.2625 12.6789 48.6744 12.317 49.1023 12.0969C50.1161 11.5736 50.8763 12.7729 49.14 12.394C49.1387 12.499 49.1375 12.604 49.1362 12.7089C49.5707 12.6137 50.6554 12.6755 50.2849 13.2031C49.9961 13.6183 47.4128 13.314 48.8665 13.9197C49.2005 14.0569 49.3805 13.6651 49.942 14.4109C50.3172 14.4559 50.3941 13.4997 50.9028 13.8907C50.8228 13.5558 50.7425 13.2208 50.6618 12.8858C51.3657 12.46 52.2374 13.0564 52.7721 12.8777C52.9618 12.8168 53.6495 11.236 53.4691 12.8246C53.6889 12.755 54.5554 12.9094 55.08 12.941C55.2799 12.9525 55.4376 12.9485 55.5116 12.9125C55.5768 12.88 55.6922 12.0323 56.6343 12.3552C56.6968 12.4633 56.7591 12.5715 56.821 12.6797C55.9473 12.9615 57.4717 13.323 57.0274 14.1134C56.8872 13.7467 56.2236 13.5067 56.1134 13.3224C55.9313 13.0049 56.5096 12.6161 55.7825 12.708C55.2967 14.0401 56.6086 13.4544 56.3729 14.7252C57.316 14.1572 57.4108 14.7321 57.617 14.763C58.505 14.894 59.1056 14.7879 59.9355 14.9854C60.164 14.7344 58.6342 14.2722 58.4284 14.379C59.1826 13.484 57.9654 13.3845 57.4256 13.9185C57.3922 13.6363 57.3585 13.3542 57.3244 13.0721C58.0026 13.2485 58.6397 13.3544 59.3332 13.1601C59.3714 13.2672 59.4095 13.3744 59.4473 13.4816C59.2891 13.6314 59.1307 13.7815 58.972 13.9318C59.5141 14.2189 59.2297 13.3832 59.9196 14.1407C59.9605 13.8264 60.0016 13.5121 60.0429 13.1979C60.761 13.3456 61.446 13.4982 62.1623 13.6612C62.5885 13.0564 63.9417 13.4209 63.611 14.2148C64.1589 14.3275 63.5187 13.8244 64.0579 13.6781C64.2945 13.6149 64.7254 13.6372 64.8182 13.8701C64.6743 14.6399 64.0275 14.6676 63.7738 15.1823C63.8624 15.35 66.9636 15.1693 66.5645 16.0497C66.7863 16.1922 66.7417 15.7094 67.1884 15.6535C68.4707 15.4982 70.1443 16.7597 71.3687 15.8488C70.3518 14.9558 69.8561 15.5652 68.9832 15.4333C68.417 15.323 64.9454 14.9609 65.8239 14.2499C65.6847 14.3381 65.5453 14.4267 65.4057 14.5155C65.3068 14.2558 65.2058 13.9962 65.1027 13.7367C65.4789 13.7445 65.8382 13.7531 66.2137 13.7664C66.2712 14.0214 66.3274 14.2763 66.3822 14.5313C66.446 14.3631 66.51 14.195 66.5742 14.027C66.7339 14.0137 66.8927 14.0007 67.0505 13.9882C66.9776 14.1905 66.9051 14.3929 66.8329 14.5953C67.063 14.6642 67.2851 14.7332 67.5225 14.8058C67.5007 14.5178 67.4778 14.2298 67.4538 13.9418C68.6023 14.0467 68.1808 14.1612 68.7153 14.784C69.1721 14.9188 68.479 14.2456 69.4876 14.2873C70.6568 14.3493 69.7516 15.039 71.251 15.1712C71.3027 15.0389 71.3546 14.9066 71.4066 14.7744C71.7056 14.985 71.9806 15.1935 72.2795 15.4114C72.2782 15.2314 72.2762 15.0512 72.2737 14.871C72.9305 15.0969 73.9491 15.0338 73.9732 15.7558C73.3955 15.2477 73.0825 16.4062 73.197 16.6646C73.4478 17.1017 78.6326 18.5257 79.5465 19.1387C80.7665 19.7528 81.3923 20.6086 82.738 20.8627C82.3637 19.9251 79.5685 18.7173 79.197 18.2109C79.1645 18.1586 79.6495 17.1737 78.7896 18.128C77.8247 17.4317 76.4016 17.2289 75.056 16.751C75.1965 16.4651 75.3381 16.1795 75.4806 15.8944C76.1043 16.8067 77.4071 15.7371 76.8604 16.8393C77.0301 16.905 77.1974 16.9715 77.3625 17.0387C77.4421 16.8431 77.5217 16.6475 77.6014 16.4519C77.8511 16.5535 78.1145 16.6648 78.3663 16.7754C78.2814 16.9688 78.1964 17.1621 78.1115 17.3555C78.3149 17.4448 78.5208 17.538 78.7265 17.6342C78.837 17.4535 78.948 17.2729 79.0593 17.0926C79.4895 17.7456 82.1147 17.8896 80.5906 18.473C80.873 18.6321 81.1445 18.7918 81.4197 18.9605C81.4995 18.8283 81.5793 18.6961 81.6591 18.5639C81.7905 18.6201 81.9206 18.6769 82.0496 18.7343C81.9358 18.8276 81.8225 18.9213 81.7097 19.0155C82.3857 19.1439 82.4644 20.0926 83.0755 19.9375C82.9181 19.6939 82.7456 19.445 82.5785 19.2052C82.9071 19.6618 83.9365 19.9086 84.006 19.9643C84.2213 20.1265 84.1409 20.4598 84.3518 20.6488C84.5446 20.8214 84.6682 20.6138 84.7005 20.6508C85.6181 21.7349 84.3369 22.3613 85.8404 21.6341C85.7513 21.8361 85.661 22.0373 85.5697 22.2377C85.7534 22.1676 85.938 22.0987 86.1227 22.0303C86.2109 22.1179 86.2982 22.2054 86.3846 22.2927C86.6081 22.5161 86.8226 22.7457 87.0298 22.9835C87.1177 22.6934 87.1969 22.3979 87.2686 22.0987C87.8669 22.5347 87.6828 23.1473 87.7167 23.2018C87.8178 23.3675 88.1283 23.2266 88.1677 23.2738C89.8582 25.624 88.6158 24.4141 88.2478 26.1693C88.8967 26.3404 89.1026 25.6979 89.494 25.3856C89.6133 26.0814 89.8238 26.1959 90.0846 26.8309C90.1505 26.9955 89.9801 27.2766 90.0178 27.3761C90.0508 27.4619 90.4277 27.6331 90.5091 27.8434C90.6485 28.1995 90.6539 28.7195 90.8099 29.1955C90.9458 29.5877 91.4855 30.7449 91.6808 31.5756C91.7654 31.9308 91.5144 31.9045 91.5349 31.9942C91.5436 32.0311 91.8838 32.241 91.9353 32.4701C92.3463 34.3105 92.4884 36.1853 92.8022 37.9704C92.8606 38.3052 92.9317 38.624 93.0121 38.9565C93.0214 38.9811 93.0229 39.0616 93.031 39.0866C93.2096 40.0221 93.4408 40.9543 93.5326 41.8947C93.5586 42.1653 93.3346 42.0464 93.3408 42.165C93.3437 42.206 93.7114 42.2118 93.614 42.6482C93.5789 42.8056 93.3056 42.6606 93.3101 42.8108C93.3124 42.8838 93.6335 42.8784 93.754 43.2929C93.9734 44.0443 93.5963 44.5075 93.6165 44.5742C93.6554 44.7009 93.9139 44.6337 93.9425 44.8041C94.0817 45.6344 94.2033 46.3353 94.3056 47.078C94.3553 47.4286 94.6616 49.8347 94.6267 49.9711C94.5519 50.2775 93.9744 50.0582 94.0319 50.4357C94.1819 50.5284 94.3318 50.6211 94.4817 50.7137C94.5702 50.5338 94.6583 50.3513 94.7468 50.1728C94.618 50.657 94.9214 51.1619 94.9463 51.5063C94.9505 51.5692 94.7599 52.1817 94.8166 52.4789C94.7008 52.3617 94.585 52.2444 94.469 52.1271C94.3855 52.1809 94.3019 52.2348 94.2183 52.2886C94.4111 52.8754 94.4688 53.5032 94.5089 54.1218C94.5236 54.3436 94.3024 54.2893 94.3163 54.5134C94.3939 55.8186 95.254 55.4127 93.6974 56.8173C93.8112 56.3809 93.4544 54.8532 93.4885 54.6279C93.5128 54.4692 94.866 53.7263 93.4388 54.0881C93.324 52.8331 94.2287 53.8453 93.94 52.6949C93.7656 52.7357 93.5911 52.7763 93.4166 52.817C93.2653 52.4211 93.1457 52.1254 93.433 51.8485C92.5679 51.854 92.9297 50.4159 92.7932 49.6666C92.5973 48.5758 92.2568 47.3632 92.1014 46.2833C92.0481 45.9104 92.3602 45.6609 92.3541 45.6147C92.3441 45.5467 92.029 45.3871 92.0117 45.2508C91.9472 44.7414 92.2683 43.132 91.4076 42.8384C91.7563 45.874 92.0836 48.9128 92.3869 51.9501C92.7517 51.5257 93.093 54.6045 93.0854 54.7605C93.0811 54.9061 92.7875 54.8117 92.7745 54.8561C92.6834 55.184 93.1184 55.4227 93.1278 55.5239C93.135 55.6016 92.9577 55.7764 92.9874 56.0509C92.9926 56.1013 93.1969 56.0965 93.2025 56.1507C93.2354 56.5074 93.2651 56.8649 93.2987 57.226C93.2987 57.2482 93.0104 57.366 93.018 57.4569C93.0262 57.5481 93.3305 57.6115 93.3335 57.6344C93.357 57.9204 93.2081 58.4343 93.2299 58.7091C93.2383 58.8044 93.4498 58.7194 93.457 58.8263C93.4801 59.1541 93.0456 59.0835 93.1896 59.4766C93.238 59.6077 93.5627 59.5732 93.542 59.8381C93.5272 60.0258 92.9458 60.0546 92.9272 60.0857C92.9053 60.1286 93.4163 60.7252 93.0536 60.962C92.0145 60.5925 93.0424 61.4641 93.4613 61.3852C93.3755 61.6468 93.2893 61.907 93.2028 62.1657C93.3167 62.2427 93.4305 62.3186 93.5444 62.3964C93.1426 63.4566 93.4795 64.0539 93.4037 65.0599C93.4 65.1084 93.2224 65.9732 93.0686 65.9426C92.7738 65.4572 92.7251 64.953 93.1807 64.5979C92.2276 64.1373 92.9548 64.0651 92.7682 63.2245C92.7048 62.9411 92.4553 62.9396 92.4496 62.9069C92.24 61.8022 91.9847 60.0279 92.6434 59.2149C92.4295 59.0225 92.4165 59.7814 92.2472 59.5014C92.1585 59.3523 91.5788 55.5098 92.5236 56.6665C92.4889 56.5414 92.4541 56.4162 92.4192 56.2907C91.6205 56.2361 91.7414 55.5832 92.5319 55.5819C92.3658 55.5364 92.1997 55.4908 92.0336 55.4453C91.8867 55.3384 91.8006 55.2032 91.739 55.0113C91.5083 54.2697 91.3306 49.7459 91.1892 49.5191C91.0029 49.533 90.8165 49.5469 90.6302 49.5608C90.6264 51.5659 91.2802 53.4468 90.9506 55.6632C91.1191 55.5838 91.2876 55.5042 91.4561 55.4246C91.2932 56.3149 91.1278 57.2012 90.96 58.084C90.5636 57.2012 90.1644 55.7686 90.3329 54.7886C90.363 54.614 90.6181 54.7156 90.6438 54.6736C90.7106 54.564 90.2783 54.4946 90.2018 54.1299C90.1253 53.7635 90.3343 52.8164 90.3171 52.7304C90.2836 52.568 89.7573 52.1754 89.7356 51.8988C89.7074 51.5339 90.0306 51.7478 90.0295 51.6741C90.0284 51.3684 89.8528 51.1111 89.8505 50.8705C89.8476 50.5159 90.297 49.7307 89.5002 49.5636C89.4913 49.8195 89.4822 50.0748 89.4729 50.3294C89.0554 48.9929 89.9272 47.8223 89.021 46.5625C88.0548 46.3594 88.302 47.4548 87.8014 46.5606C87.8334 46.7295 87.8654 46.8982 87.8972 47.0667C88.0969 47.0853 88.2966 47.104 88.4963 47.1226C88.3886 47.4312 88.2803 47.736 88.1724 48.0462C88.3375 47.9437 88.5027 47.8409 88.6678 47.7384C88.9115 48.7672 89.1993 49.7966 88.3002 50.2573C88.5289 50.2552 88.7575 50.2532 88.9862 50.2512C88.8108 51.2418 89.9155 52.5972 88.6279 52.4509C88.6992 52.4897 88.7706 52.5293 88.842 52.5685C88.6424 53.1796 89.1388 52.8778 89.2194 53.0918C89.2426 53.1542 89.0832 54.3096 88.6603 53.8457C88.4813 54.9807 89.6265 54.5264 89.7075 54.8265C89.1909 55.5844 90.1852 56.7855 89.2127 56.3333C89.1878 56.4419 89.1628 56.5503 89.1378 56.6585C89.8955 56.9345 89.1055 57.3575 88.8644 57.7562C88.8594 57.8848 88.8544 58.0132 88.8492 58.1412C89.1012 58.2042 89.3531 58.2672 89.605 58.3302C88.5475 59.6333 91.6954 58.9771 89.0692 59.7526C88.9021 59.6818 88.7348 59.6109 88.5676 59.5399C88.4742 59.3455 88.3807 59.1505 88.287 58.9549C88.2875 59.7727 88.2867 60.5972 88.2825 61.409C87.6179 62.5063 88.4783 63.028 87.972 64.2125C88.0514 64.3152 88.1308 64.4177 88.2101 64.5199C87.5958 64.4554 87.6537 64.0329 87.44 64.8287C87.0166 64.9272 86.9219 64.4068 87.2323 64.1443C87.3081 64.0806 87.6733 64.5419 87.6433 63.9953C87.6228 63.6228 87.1609 64.3404 87.2645 63.2075C87.1631 63.2573 87.0617 63.3071 86.9603 63.3568C86.9538 63.2351 86.9473 63.1132 86.9407 62.9908C87.1742 62.8621 87.408 62.7376 87.6415 62.6108C87.2697 62.3628 86.7676 62.2494 86.8197 61.6043C86.9855 61.7652 87.4523 61.4884 87.4184 61.179C87.2432 61.1936 87.068 61.2081 86.8928 61.2227C86.717 60.4764 87.2528 60.6942 86.7977 60.0942C86.9316 60.0197 87.0655 59.9452 87.1994 59.8705C86.5969 59.5804 86.0945 58.3443 86.975 58.501C86.1081 58.2237 86.4179 57.4436 87.0605 57.1037C86.8847 57.0984 86.709 57.0931 86.5332 57.0879C86.4845 56.9445 86.4358 56.8008 86.3869 56.6568C86.4845 56.565 86.582 56.473 86.6795 56.3808C86.5646 56.2859 86.4497 56.191 86.3348 56.0959C86.5033 56.0162 86.6717 55.9365 86.8401 55.8566C86.6151 55.7061 86.3905 55.5602 86.1656 55.4123C86.295 55.2967 86.4244 55.1809 86.5537 55.0648C86.1893 55.09 86.01 54.0747 86.2209 53.7701C86.1069 53.6958 85.9929 53.6215 85.8789 53.5472C86.048 53.4888 86.217 53.4303 86.386 53.3718C86.2413 53.3222 86.0966 53.2727 85.9519 53.2231C86.076 53.0638 86.2 52.9041 86.3239 52.744C85.4164 52.2376 86.1587 52.1439 86.1398 52.009C86.105 51.7591 85.4862 50.9558 85.4989 50.8123C85.5117 50.6671 85.8091 50.5668 85.8258 50.4487C86.1056 48.4961 85.3699 49.3663 85.2006 48.9986C85.1085 48.8008 85.3769 48.625 85.3259 48.4462C85.2405 48.1386 84.6946 46.6157 84.7208 46.52C84.7594 46.3832 86.1318 46.5442 85.7398 46.1561C85.0198 46.2219 85.6434 45.2285 84.6889 45.7668C84.735 45.3817 84.7804 44.9934 84.826 44.6096C83.9792 44.7485 84.4747 44.2246 84.3695 43.7245C84.2218 43.0172 83.4729 41.4742 84.3527 41.4306C84.1319 41.2834 83.9109 41.1363 83.6899 40.9892C83.7195 40.7259 83.7221 40.4666 83.7065 40.21L83.7544 40.539C83.6522 39.6206 83.3238 38.7618 83.1597 37.888C82.5523 34.565 81.9751 31.1986 81.2439 29.7962C81.2101 29.7249 81.4593 29.582 81.4329 29.5288C81.305 29.2641 80.8137 28.8942 80.5115 28.6077C80.4476 28.5462 80.3891 28.4872 80.3374 28.4311C80.1729 28.253 80.2749 27.9688 80.2272 27.9087C80.0667 27.705 79.8676 28.0223 79.7879 27.9382C79.6651 27.8025 79.1705 26.9434 78.9411 26.7288C78.8281 26.6194 78.5097 26.7468 78.4191 26.5689C78.4109 26.5539 78.612 26.3263 78.6044 26.3143C78.3616 26.0934 78.3687 26.4208 78.2876 26.346C77.7088 25.8148 77.0064 25.373 76.2764 24.922C76.1001 24.8112 75.8917 24.4699 75.7336 24.373C75.6721 24.3361 75.69 24.5976 75.475 24.4759C75.4009 24.4344 75.4987 24.1511 75.4166 24.0926C75.0692 23.8476 74.5628 24.6747 74.5278 23.828C73.858 23.6045 72.5955 23.4345 71.9465 23.2554C71.7936 23.2115 71.7716 23.0219 71.6237 22.9834C71.519 22.9561 71.2624 23.1683 71.0954 23.1273C70.9323 23.0872 70.7438 22.7692 70.4139 22.6986C70.0693 22.6239 69.6167 22.6807 69.536 22.6623C69.4416 22.6415 69.4668 22.3111 69.3692 22.2943C69.0924 22.2439 68.242 22.4034 67.8723 22.3737C67.4652 22.3375 67.2386 22.1389 67.1049 22.1199C66.977 22.1031 66.7832 22.3525 66.7242 22.3457C66.6321 22.3354 66.6606 22.0122 66.5421 21.9965C66.3473 21.9718 66.1169 22.1429 65.8336 22.1079C62.2822 21.6742 58.6275 21.4013 54.9271 21.2102C53.1548 21.1213 51.3753 21.0264 49.5995 20.9291C48.9769 20.895 48.6211 21.1176 47.7031 21.0037C47.3293 20.9573 47.4866 20.625 47.199 20.685C47.0704 20.7121 47.1001 20.9752 46.9373 20.9861C46.2142 21.0333 45.374 20.7809 45.0604 20.7821C44.9358 20.7822 44.7905 21.0791 44.5335 21.0811C42.6333 21.097 40.3872 20.9954 38.3402 21.0332C37.2572 21.0532 35.6144 21.1949 34.3709 21.2081C30.9312 21.2445 27.2387 21.1598 24.0967 21.1785C19.7618 21.2031 15.4394 21.4279 11.1096 21.2069C10.6961 21.1866 10.3221 21.1627 9.91426 21.1345C10.3018 21.2578 10.6763 21.3587 11.1091 21.4416C13.1232 21.8465 15.5591 21.8213 17.6002 21.8915C24.7119 22.1339 32.2841 21.7423 39.5617 21.8108C42.0916 21.8344 45.2785 21.8451 48.0494 22.044C48.1747 22.0529 48.4362 21.8264 48.704 21.8539C48.7635 21.8602 49.4766 22.2875 49.7134 22.2948C49.4945 21.5479 50.4289 22.223 50.7208 22.2091C51.082 22.1906 51.8631 21.8295 52.7099 22.053C53.4918 22.2555 53.2669 22.5383 53.3108 22.5569C53.5837 22.6774 53.6773 22.2177 53.8954 22.1748C54.0889 22.137 54.457 22.1244 54.9101 22.1284C56.4984 22.1332 59.2358 22.4238 60.1313 22.5046C60.4314 22.5287 60.4181 22.8221 60.485 22.8277C60.6634 22.8422 60.9239 22.5706 61.2152 22.5953C61.7395 22.6401 62.2784 22.9664 62.5642 22.995C63.2361 23.06 64.5103 22.8726 65.3619 22.985C65.6 23.0158 65.5421 23.316 65.6481 23.3299C66.1099 23.3867 67.3856 23.2274 67.947 23.3332C68.8769 23.5017 69.7363 23.8913 70.645 24.0236C70.6656 24.1696 70.6851 24.3155 70.7038 24.4612C70.8285 24.3465 70.9532 24.2322 71.0782 24.1184C72.5081 24.6223 73.9893 24.8247 75.2166 25.4308C75.3585 25.4959 75.9193 26.0752 76.0223 26.1377C76.113 26.1874 76.3628 25.9403 76.4763 26.0626C76.6295 26.2312 76.134 26.6839 76.5193 26.6996C76.6233 26.7046 76.6889 26.4223 76.8959 26.4489C76.9664 26.4463 78.0435 27.0378 78.083 27.1034C78.1555 27.1962 77.8814 27.7266 77.8954 27.7531C77.9706 27.8931 78.2389 27.5297 78.3449 27.5592C78.6576 27.6436 78.7752 28.1345 78.8164 28.1607C79.133 28.3564 79.6778 28.6251 80.1586 28.9873C80.3192 29.0822 80.4365 29.2024 80.4563 29.3506C80.4633 29.404 80.2038 29.6186 80.2003 29.6312C80.1762 29.7104 80.4896 29.4882 80.5272 29.5207C80.7264 29.6937 80.744 30.193 80.8307 30.5095C80.841 30.5445 81.0424 30.5338 81.0576 30.606C81.1409 31.0248 80.8112 31.0264 80.8101 31.0517C80.8039 31.1154 81.1439 31.0781 81.2259 31.2279C81.4389 31.5923 81.6967 32.5403 81.8269 33.1511C81.9249 33.6026 81.5593 33.6922 81.5599 33.7227C81.5632 33.7921 81.8961 33.8934 82.0029 34.2042C82.2074 34.8014 81.9035 34.7983 81.9719 35.054C81.9763 35.0755 82.2501 34.9797 82.3396 35.2634C82.5148 35.8126 82.49 37.2019 82.6207 37.859C82.6713 38.1124 82.9537 38.1191 83.0053 38.3812C83.0877 38.7921 82.9557 39.791 82.9699 39.8698C82.9735 39.891 83.2959 39.8854 83.3169 40.0082C83.3401 40.1438 83.2016 40.3064 83.2202 40.4091C83.2321 40.4757 83.252 40.5468 83.2763 40.6207L83.2249 40.268C83.3841 40.8412 83.794 41.5639 82.7639 41.4354C83.0649 41.589 83.3657 41.7423 83.6666 41.8965C83.7552 43.1277 84.0031 44.301 84.1957 45.5076C84.2388 45.7793 84.0501 46.0306 84.0859 46.259C84.1218 46.4854 84.5876 47.4658 84.6123 47.6337C84.6571 47.9325 84.878 49.6535 84.8744 49.8687C84.87 50.2938 84.4444 50.7472 84.5533 50.9074C84.6409 51.0358 84.8914 50.883 84.9927 51.1347C85.1682 51.5725 84.9072 52.3746 84.926 52.5102C84.934 52.569 85.1284 52.4367 85.198 52.9867C85.236 53.2839 85.0253 53.4655 85.037 53.573C85.0414 53.6061 85.4038 53.5209 85.4115 54.1112C85.4161 54.5179 85.1498 54.7219 85.1528 54.7639C85.157 54.828 85.4741 54.9537 85.488 55.211C85.5186 55.8086 85.2747 56.943 85.2996 57.5115C85.3043 57.6224 85.6664 57.5524 85.6724 57.9951C85.6764 58.3112 85.3808 58.2821 85.3796 58.4003C85.3783 58.587 85.7588 58.8325 85.7835 59.2473C85.818 59.763 85.7641 63.6364 85.6795 63.8436C85.6255 63.9817 85.6333 64.1358 85.4802 64.2134C85.3244 64.1688 85.1686 64.1242 85.0127 64.0795C85.4993 63.454 84.9097 63.7364 84.8586 63.584C84.7852 63.3602 84.7953 62.5077 84.6436 62.3125C84.5889 62.243 84.2793 62.4375 84.0808 62.0565C83.8681 61.6446 84.4284 61.4149 83.628 61.3119C84.4511 60.6415 83.4748 60.1389 83.2866 60.8571C83.185 61.2522 83.1757 65.0702 83.1776 65.8363C83.1849 66.4695 83.5006 67.6231 83.4895 68.3859C83.4843 68.8476 83.511 69.9452 83.0893 69.9282C83.0605 70.3308 83.4521 69.8832 83.5151 69.9635C83.6476 70.1324 83.4307 71.3901 83.4538 71.6207C83.5716 72.7727 84.1072 74.2041 83.6168 75.3237C83.5027 75.2759 83.3886 75.2281 83.2745 75.1801C83.0608 74.948 83.3068 73.7746 82.7618 73.6724C82.8373 75.3544 82.8931 77.0399 82.9087 78.628C83.3724 78.6117 83.3634 80.5449 83.1476 80.6087C82.9261 80.5728 82.7046 80.5371 82.483 80.5015C83.3395 79.4631 82.2208 79.5411 82.8095 78.7992C82.8152 78.491 82.4489 78.5915 82.3775 78.4425C81.6611 76.9398 83.133 78.4105 82.7816 77.248C82.2573 77.6125 82.0415 76.6624 81.9594 76.222C81.9431 76.1276 82.0316 74.8098 82.0156 74.6548C81.9341 73.7759 81.5681 72.2593 81.8094 71.3594C81.8045 70.6451 81.404 70.2973 81.2768 69.6558C81.1806 69.1797 81.455 69.3 81.4439 69.0717C81.4205 68.5891 80.6002 68.4835 81.7094 68.1038C81.5472 67.7895 81.3839 67.4667 81.2207 67.1517C81.3961 67.1396 81.5714 67.1274 81.7468 67.1152C81.7327 66.9119 81.7183 66.7072 81.7036 66.5013C81.5246 66.4532 81.3455 66.405 81.1665 66.3568C81.3583 65.6817 81.8004 65.9284 82.2879 65.7695C82.3117 65.6269 82.3355 65.4838 82.3591 65.34C81.97 65.259 81.5808 65.178 81.1916 65.0969C81.1749 64.4587 81.1578 63.8346 81.1382 63.1969C81.3096 63.1424 81.481 63.0879 81.6523 63.0333C81.4776 63.046 81.3029 63.0586 81.1282 63.0713C81.007 62.0069 80.8809 60.9329 80.7523 59.8707C80.4481 59.6108 80.3833 61.3429 80.3765 61.4739C80.3452 62.1989 80.7782 64.0946 80.1548 64.1446C80.6544 64.5514 80.6399 65.9086 80.1116 66.3659C80.0995 65.7296 80.0857 65.0923 80.0706 64.4569C79.8634 64.4934 79.6563 64.5298 79.4491 64.5661C80.2303 63.7159 80.174 63.592 79.3138 62.8486C79.5936 62.8252 79.8734 62.8019 80.1531 62.7785C79.1343 62.2865 80.7008 61.1496 79.497 61.2197C79.5687 60.9076 79.64 60.5951 79.7113 60.2859C79.5074 59.6462 78.676 60.7379 78.8085 58.1474C78.8176 57.968 79.1266 57.9751 79.0814 57.7134C79.068 57.6376 78.5837 57.243 78.5507 56.396C78.5458 56.2651 78.81 56.2302 78.8308 56.0915C78.8813 55.7714 78.2965 55.1941 79.1784 55.3969C79.3071 54.1248 78.6558 54.7124 78.3394 54.3534C78.1292 54.1146 78.6398 54.1165 78.5032 53.9047C78.3335 53.643 77.8446 53.8935 77.9685 52.7705C78.0156 52.8907 78.0626 53.0108 78.1096 53.1307C78.2418 53.0548 78.3741 52.9787 78.5063 52.9026C78.1106 52.3066 78.6017 52.316 77.7934 52.0974C78.0936 51.6052 78.0806 51.208 77.9518 50.5859C77.7009 49.3842 76.9293 50.0969 77.9086 48.5872C77.726 48.3799 77.5432 48.1723 77.3603 47.9645C77.6527 47.5579 78.1022 47.8117 78.1254 47.2492C77.3505 47.7706 77.5222 46.5761 76.7668 46.4605C76.9391 46.4204 77.1115 46.3802 77.2839 46.34C77.2701 46.2167 77.2563 46.0932 77.2424 45.9696C77.1022 45.985 76.9621 46.0004 76.8219 46.0158C76.9083 45.8389 76.9949 45.6644 77.0812 45.4886C76.9284 45.3811 76.7755 45.2737 76.6226 45.1663C76.8924 44.9303 77.1621 44.6937 77.4316 44.4567C77.4369 44.3268 77.4422 44.1962 77.4475 44.0671C77.2436 44.1315 77.0397 44.1957 76.8357 44.26C76.8867 44.0887 76.9375 43.9173 76.9882 43.7457C76.668 43.9756 76.2531 43.9028 76.2042 43.3927C76.1634 42.9715 76.9333 43.3608 76.5298 42.4919C76.5011 42.4313 75.9792 42.3809 75.7984 41.5368C75.7655 41.3832 75.7473 41.2633 75.7402 41.1697L75.8453 41.8909C75.7779 41.3587 76.1012 41.6531 76.0852 41.4949C76.0809 41.4575 75.7737 41.1923 75.6869 40.9061C75.6379 40.7451 75.8164 40.5547 75.8122 40.5335C75.7857 40.4362 75.4898 40.4549 75.4553 40.3186C75.3698 39.9737 75.4308 39.4863 75.3577 39.1622C75.3245 39.0126 75.1277 38.9057 75.1138 38.8412C75.0938 38.7418 75.3325 38.5643 75.3127 38.4631C75.2383 38.0874 74.2666 37.7209 75.4407 37.3227C74.2671 37.2072 75.4689 36.2843 74.7371 36.491C74.7908 36.0547 74.4746 35.4043 74.3191 34.9896C74.1615 34.5608 74.1706 34.3377 74.7775 34.1411C73.6817 34.3052 74.438 34.083 74.3981 34.0226C74.3594 33.9728 74.1737 34.0781 74.1684 34.0395C74.1586 33.957 74.2324 33.9085 74.2589 33.9486C74.4089 33.859 74.5612 33.7736 74.7157 33.6924C74.7757 33.6852 74.4092 33.8649 74.3885 33.9826C74.3866 34.2445 74.6133 33.9936 75.0032 33.7548C74.624 33.9905 74.8885 34.2197 74.9581 34.2027C74.9962 34.191 75.3696 33.7593 75.349 34.0042C75.2177 34.1204 75.0849 34.2351 74.9508 34.3484C75.0511 34.3066 75.0972 34.3471 75.1216 34.4033C74.9212 34.2624 74.7002 34.1806 74.6818 34.1187C74.6711 34.072 75.4148 32.8431 74.5354 33.5631C74.6307 33.4142 74.7256 33.2651 74.82 33.1155C74.516 33.1347 74.2281 33.1732 73.9539 33.2276C74.1231 32.9597 74.291 32.6908 74.4573 32.4209C74.4084 32.3838 74.3597 32.3474 74.311 32.3115C74.1773 32.561 74.0413 32.8089 73.9031 33.0555C73.6917 32.7362 73.13 32.898 73.5767 32.0635C73.4209 32.172 73.2673 32.2829 73.1156 32.3958C73.2396 32.1034 73.36 31.8092 73.4758 31.5127C73.1235 31.4005 73.0135 31.5829 72.644 31.7669C72.765 31.5533 72.8865 31.3399 73.0086 31.1269C72.6808 31.3439 72.2348 31.4829 71.9567 31.4087C71.8279 31.3731 71.7298 30.9663 71.6861 30.982C71.638 30.9963 70.8428 32.1113 71.2179 31.0246C70.5547 31.3204 70.4942 30.7573 70.2654 30.6966C70.1206 30.6597 69.9735 30.903 69.7987 30.8803C69.5469 30.8479 69.3416 30.6525 69.1869 30.6305C69.0996 30.619 69.013 30.8746 68.9555 30.8682C68.676 30.838 68.9054 30.6126 68.6056 30.5559C68.577 30.552 68.28 30.8168 68.0449 30.7197C67.916 30.6654 67.6121 30.2212 67.5825 30.2164C67.4318 30.1917 67.4132 30.9396 67.0636 30.0002C67.0518 30.141 67.0398 30.2817 67.0276 30.4224C66.3229 30.648 66.3315 30.0182 66.2021 29.9507C66.1863 29.9442 65.9776 30.1537 65.8892 30.1052C65.7377 30.022 65.7234 29.6844 65.689 29.664C65.5717 29.5932 65.0917 29.6659 64.8521 29.3087C64.7819 30.2489 63.7096 30.4416 63.6051 29.3568C63.3921 29.5432 63.1778 29.7303 62.962 29.9181C62.8922 29.7335 62.8308 29.55 62.7633 29.366C62.6928 29.5346 62.6224 29.7033 62.5522 29.872C62.3177 29.4596 62.0692 29.0475 61.8144 28.6367C61.761 29.0197 61.7079 29.4028 61.6551 29.786C61.5816 29.7351 61.5074 29.6843 61.4326 29.6336C61.3981 29.3224 61.3626 29.0111 61.326 28.6999C61.2205 28.7497 61.1145 28.7996 61.008 28.8497C60.9647 29.069 60.9216 29.2884 60.8787 29.5079C60.3099 29.7208 60.7561 27.6261 59.577 29.4135C59.4256 29.2282 59.2624 29.0426 59.1149 28.8584C58.883 29.6986 58.5688 29.164 58.2779 29.2454C58.0735 29.303 58.0683 29.6416 57.7922 29.6364C57.5256 29.6318 57.5479 29.3088 57.5272 29.3058C57.308 29.2765 57.1288 29.5552 56.9669 29.4922C56.9423 29.4828 56.8952 29.096 56.6835 29.0642C56.4713 29.0326 56.3273 29.437 56.0227 29.3509C55.8649 29.3072 55.8274 28.9821 55.6851 28.9497C55.3866 28.8805 55.0743 29.1567 54.777 29.3221C54.3824 29.5324 54.0061 29.5612 53.7031 28.4656C53.5762 28.7099 52.639 29.558 52.2462 29.5026C51.6384 29.4142 51.8778 29.0359 51.6343 28.9624C51.6022 28.9514 51.3993 29.0774 50.8937 29.0472C50.8021 29.0417 50.8203 29.2576 50.8071 29.2603C50.2045 29.2476 49.0377 29.0627 48.3728 29.0243C48.3138 29.0205 48.0007 29.6177 47.4799 28.8036C46.6963 29.3918 45.2397 28.0941 44.198 28.9845C44.0558 29.0022 43.8847 28.7857 43.8214 28.7925C43.2772 28.8542 43.4646 29.5082 42.2459 28.5426C42.3427 28.8762 42.0526 29.1742 41.6434 29.1455C41.0314 29.1026 41.4716 28.4855 40.9796 28.5323C40.9782 28.7075 40.9769 28.8827 40.9755 29.0578C39.844 28.5779 39.6169 29.3252 38.4766 29.3214C38.0688 29.3196 37.4665 28.9275 37.3687 28.9258C37.3308 28.9267 36.8798 29.3461 36.8375 29.349C36.5969 29.3601 36.4623 29.1646 36.2544 29.1622C35.567 29.1538 34.7442 29.6985 34.8983 28.7018C34.7081 28.9113 34.518 29.1208 34.3278 29.3303C33.6198 28.261 33.0776 29.7263 32.9336 28.6909C32.8048 28.9039 32.6761 29.1168 32.5475 29.3298C29.4846 29.2058 26.4179 29.0853 23.3545 28.967C23.2265 29.2994 21.9 29.1769 21.8254 29.125C21.5101 28.8893 21.8445 28.1644 21.2021 28.3284C21.1303 28.6462 21.0586 28.9639 20.987 29.2817C20.1806 29.3828 20.5672 29.0676 20.2486 28.8511C20.1149 28.8899 20.1571 29.1368 19.9769 29.1542C18.9984 29.2496 17.0002 29.2561 15.922 29.2736C15.708 29.2773 15.7412 29.0467 15.675 29.046C15.4968 29.0477 15.1188 29.3375 14.7533 29.3368C13.6738 29.3333 12.3946 29.2938 11.0927 29.2269C9.62263 29.1516 8.1335 29.0417 6.92123 28.9099C6.77168 28.8927 6.74515 28.6175 6.63893 28.6036C6.48587 28.5854 6.17427 28.8071 6.01267 28.7835C5.86432 28.7621 5.77148 28.5529 5.61927 28.5282C4.90533 28.4126 3.96308 28.7637 3.19548 28.146C3.13443 28.0939 2.33902 26.9846 2.32125 26.9119C2.21544 26.4806 2.92525 25.8046 1.76483 25.1714C2.8054 24.6229 2.48217 23.6489 1.13748 23.1707C1.8139 23.0493 2.48836 22.928 3.16299 22.8067C3.1642 22.6914 3.16541 22.576 3.16662 22.4607C2.55154 21.8877 1.94721 21.6962 1.00811 21.6416C1.03656 21.5348 1.06586 21.428 1.09605 21.3213C1.91972 20.7892 2.92558 20.6926 3.55087 19.9658C2.63193 19.425 1.70304 18.8842 0.787563 18.3435C0.832626 18.2594 0.876393 18.1752 0.924758 18.0911C1.36825 17.8732 2.33341 17.7467 2.70149 17.5435C4.10787 16.7686 1.46974 16.959 1.91063 16.4854C3.39178 16.5055 4.86942 16.5256 6.35451 16.5458C6.41823 16.1965 0.707792 15.2196 0.768269 14.1651C1.23446 14.0952 1.69769 14.0253 2.16618 13.9555C1.9572 13.6871 1.75369 13.4188 1.54387 13.1504C1.60237 13.0657 1.66253 12.981 1.71659 12.8962C2.50365 12.6897 3.29206 12.4832 4.07498 12.2767C1.68503 12.481 0.584767 12.3267 0 10.2164C0.0661923 10.1626 0.135671 10.109 0.201094 10.0554C0.715683 11.376 3.16323 10.9541 4.46236 10.6937C4.19329 10.3065 3.0533 10.6028 2.81084 10.3698C2.74148 10.303 2.98465 10.0352 2.82359 9.89746C2.41281 9.53942 0.643717 9.07638 0.90094 8.6394C1.07077 8.35855 3.90828 7.97865 4.46791 8.00942C3.16952 7.50162 1.82605 7.35265 0.525007 6.7363C1.34812 5.88181 2.08971 4.8358 3.58323 4.79235C4.04851 4.34416 0.860058 3.71548 0.789401 3.47028C1.34521 3.20826 1.89131 2.94631 2.44218 2.68437C1.97425 2.75361 1.51696 2.82288 1.04518 2.89216C1.04402 2.80427 1.04287 2.71638 1.04172 2.62849C2.2564 2.22293 3.35237 1.47647 4.73401 1.53006C4.68929 1.06497 3.86825 1.10953 3.46641 1.10448ZM80.7739 71.9454C80.3904 71.9924 80.428 71.5134 80.4199 71.2386C80.3521 71.2836 80.2843 71.3285 80.2165 71.3732C80.2576 70.7868 80.3398 69.6977 79.5902 69.7044C79.4719 69.2995 80.1325 69.4401 80.1981 69.3023C80.2245 69.2511 79.8115 68.7217 80.2429 68.2646C80.2342 68.162 80.2255 68.059 80.2167 67.9557C79.9706 67.9521 79.7244 67.9486 79.4783 67.9451C79.7657 67.7809 80.053 67.6157 80.3401 67.4494C80.496 68.952 80.6422 70.4566 80.7738 71.9432C80.7739 71.944 80.7739 71.9447 80.7739 71.9454ZM79.3151 56.8797C79.4008 56.3058 79.5377 55.4412 78.885 55.6752C78.9539 56.0237 79.0218 56.3653 79.0902 56.7168C79.1652 56.7711 79.2401 56.8254 79.3151 56.8797ZM61.9286 28.0165C61.5893 27.3209 61.1581 27.8571 60.524 27.6898C60.5144 27.8292 60.5049 27.9687 60.4953 28.1081C60.7792 27.7921 61.4636 28.0711 61.9286 28.0165ZM83.2523 82.9865C83.1876 83.0318 83.1211 83.0828 83.0542 83.1335C82.3916 82.6937 82.914 82.7859 82.8891 82.5604C82.8871 82.5475 82.718 82.516 82.7178 82.5117C82.7162 82.4634 82.9272 82.4643 82.9315 82.425C82.9394 82.3486 82.7424 82.2617 82.7678 82.1395C82.7881 82.0419 83.1154 82.0775 83.1121 82.036C83.1093 82.0013 82.2472 81.5389 82.6612 81.159C83.0556 80.7801 83.2492 81.5207 83.3212 81.992C83.3573 82.2303 83.3667 82.4017 83.3474 82.584C83.3289 82.7619 83.2803 82.9463 83.2523 82.9865ZM81.9663 85.1871C81.992 85.0932 82.018 84.9985 82.0425 84.9082C82.4427 85.3313 82.5418 84.7491 82.6465 84.3624C83.1116 84.5068 82.6559 85.2901 82.668 85.7381C82.4351 85.5513 82.2012 85.3676 81.9663 85.1871ZM83.9006 75.9697C83.9618 76.3418 83.3532 76.2993 83.1722 76.2886C83.1686 76.1692 83.1649 76.0485 83.1612 75.9334C83.4077 75.9455 83.6542 75.9576 83.9006 75.9697ZM84.1694 78.7287C83.7571 78.6265 83.5667 77.8347 83.5244 77.4669C83.524 77.4501 83.7524 77.5503 83.7256 77.2823C83.7177 77.1965 82.8744 76.4335 83.8125 76.5805C83.9379 77.2986 84.0579 78.0313 84.1694 78.7276C84.1694 78.7279 84.1694 78.7283 84.1694 78.7287ZM83.9289 79.5102C83.7996 79.3632 83.67 79.2267 83.5399 79.0813C83.7331 79.0057 83.9261 78.9286 84.119 78.8503C84.1691 79.0194 84.2186 79.1849 84.2676 79.3466C84.1547 79.4006 84.0418 79.4535 83.9289 79.5102ZM21.6136 24.1275C21.6508 24.3345 21.688 24.5415 21.7253 24.7485C21.8733 24.8758 22.5853 23.9772 22.3614 23.8021C22.1171 23.9106 21.8619 24.019 21.6136 24.1275ZM18.6129 23.6849C18.4658 23.5801 18.3193 23.4754 18.1736 23.3706C18.0057 23.7211 17.8286 24.0716 17.6576 24.4221C18.4028 24.6607 19.1782 24.9355 19.0573 23.9003C19.227 23.9008 19.4008 23.9013 19.5661 23.9017C19.4243 24.3292 19.4415 24.4702 19.8807 24.7431C19.9771 24.1479 20.4392 24.4526 20.9614 24.3233C20.585 24.2873 20.1949 24.2514 19.8177 24.2155C19.818 24.1106 19.8183 24.0056 19.8186 23.9006C20.6639 23.941 19.6204 23.2721 19.0603 23.6879C19.0168 23.5481 18.9734 23.4082 18.93 23.2683C18.8239 23.4071 18.7182 23.546 18.6129 23.6849ZM75.1433 27.7334C75.1349 27.6086 75.1246 27.4831 75.1123 27.3571C74.2345 28.4496 75.3356 27.5508 75.1039 28.6786C75.4155 27.9013 75.8835 28.2209 75.9396 28.1938C76.0324 27.9235 76.1217 27.6514 76.2071 27.3775C75.847 27.486 75.4885 27.6028 75.1433 27.7334ZM73.7115 26.0102C73.6954 26.7392 72.4959 26.3106 72.1102 26.0346C72.0191 25.9649 71.9419 25.5442 71.8525 25.566C71.7642 25.684 71.6763 25.8023 71.5888 25.9209C71.6782 25.4418 70.6469 25.7016 70.2274 25.8637C70.2393 25.6858 70.2504 25.5077 70.2609 25.3295C70.1144 25.3635 69.9664 25.3979 69.817 25.4328C69.8754 25.2674 69.9339 25.1021 69.9927 24.9368C69.8413 25.1156 69.6874 25.2944 69.5401 25.4751C69.0993 25.6116 69.5546 24.7404 69.1876 24.9614C68.7798 25.2081 69.2049 25.8839 69.1067 26.2406C69.3813 26.2048 70.0343 26.1472 70.2862 26.205C70.4366 26.2406 70.101 26.8295 70.9251 26.2742C71.0089 26.4827 71.0988 26.6942 71.1771 26.9033C71.4985 26.7075 71.8255 26.5171 72.1556 26.3319C72.1215 26.5788 72.0857 26.8252 72.0481 27.0712C72.055 27.1122 72.7781 26.7826 72.8136 26.6012C72.8615 27.1182 73.2523 27.3587 73.6627 27.5665C73.7565 27.4624 73.8507 27.3587 73.9454 27.2555C73.4211 27.3374 73.8724 27.0691 73.8491 26.7807C73.835 26.6141 73.7142 26.2505 73.7115 26.0102ZM26.2998 23.6072C25.1653 24.2 25.8712 23.7099 24.6489 23.7055C24.7333 24.0219 24.8178 24.3384 24.9024 24.6548C25.5012 24.0793 26.4891 24.4673 26.3009 23.6072C26.3005 23.6072 26.3001 23.6072 26.2998 23.6072ZM14.3598 24.6229C14.998 24.4331 14.6731 23.9407 15.5012 23.7851C15.5016 23.7851 15.502 23.7851 15.5024 23.7851C15.0695 23.7487 14.6555 23.7123 14.231 23.676C14.2738 23.9916 14.3168 24.3073 14.3598 24.6229ZM52.0348 24.4764C52.6399 24.6229 52.5275 24.3751 53.0783 24.8752C53.9114 24.2927 53.2141 24.3655 53.2223 23.8246C53.0308 23.9802 52.8377 24.1358 52.6428 24.2915C52.1907 23.7785 52.628 23.5305 52.6313 23.4819C52.6309 23.4819 52.6305 23.4819 52.6301 23.4819C52.6334 23.3195 52.6456 23.2855 52.4727 23.1847C52.3274 23.6152 52.1814 24.0458 52.0348 24.4764ZM54.6669 23.8511C54.4566 24.1996 54.3578 24.648 54.859 24.8918C54.8689 24.8968 54.8792 24.9016 54.8896 24.9064C54.89 24.9064 54.8903 24.9064 54.8907 24.9064C54.9493 24.1042 55.4436 24.7626 55.6697 24.7146C55.7314 24.6289 55.793 24.5431 55.8546 24.4574C55.5347 24.2887 55.2086 24.1212 54.8763 23.9548C54.8068 23.9202 54.737 23.8857 54.6669 23.8511ZM63.3239 23.6051C63.23 24.4873 62.818 24.5282 63.3007 25.4018C63.4093 25.3977 63.5293 25.3951 63.6427 25.392C63.7387 25.207 63.8349 25.0222 63.9314 24.8374C65.1254 26.6058 65.9115 23.9378 63.3805 24.6683C63.3801 24.6689 63.3797 24.6694 63.3793 24.67C63.3619 24.3151 63.3434 23.9601 63.3239 23.6051ZM60.7244 23.4488C60.6718 23.9119 60.6195 24.375 60.5674 24.8381C60.3299 23.6947 59.821 24.7336 59.2331 23.9059C59.1672 24.044 59.1014 24.1821 59.0357 24.3202C58.8173 23.9888 56.4247 23.8019 56.9168 24.5397C57.1344 24.8601 57.638 24.4552 57.6792 24.4667C57.8208 24.5079 57.9792 24.9152 58.2276 24.9038C58.3687 24.8964 58.6876 24.4414 58.969 24.4578C59.5967 24.4931 60.6367 25.8264 61.5546 24.706C61.6014 24.8508 61.6477 24.9957 61.6934 25.1405C62.2918 25.1075 62.1379 24.6467 62.6455 25.2288C63.2487 23.0575 60.3832 25.1386 61.0776 23.4C61.0772 23.4 61.0769 23.4 61.0765 23.4C60.9532 23.4155 60.8424 23.4323 60.7244 23.4488ZM42.6675 23.703C42.6311 23.3054 41.8461 23.9118 42.0371 22.9616C41.7794 23.2909 41.5204 23.6202 41.2652 23.9496C41.2664 24.0381 41.2677 24.1266 41.2689 24.2152C41.5204 24.1476 41.7757 24.0801 42.0296 24.0126C42.0294 24.1529 42.0292 24.2933 42.0291 24.4337C42.4099 23.9288 43.9804 24.1639 43.9274 24.6607C44.0131 24.4515 44.0986 24.2423 44.1841 24.0332C44.9313 24.6118 45.5777 24.0102 46.3955 24.5767C46.4608 24.4034 46.526 24.2302 46.5912 24.0569C46.631 24.1977 46.6708 24.3385 46.7104 24.4793C47.0083 24.5002 47.2997 24.521 47.6021 24.5421C48.5816 23.9878 46.7007 23.2349 46.4721 23.3159C46.4415 23.3272 46.4426 23.6906 46.2512 23.7457C45.9097 23.8421 44.028 23.4621 43.44 23.6969C43.4371 23.4557 43.4342 23.2146 43.4313 22.9735C43.1753 23.2166 42.9204 23.4597 42.6675 23.703ZM66.3626 24.9617C66.3599 25.2097 66.3565 25.4577 66.3526 25.7056C66.9971 25.562 67.352 25.8475 67.3376 25.0196C67.3373 25.0196 67.337 25.0195 67.3366 25.0195C67.0129 24.9971 66.6856 24.9775 66.3626 24.9617ZM83.4464 59.2575C83.9306 59.1958 84.0817 58.8315 83.6937 58.4179C83.5546 58.452 83.4154 58.4861 83.2763 58.5202C83.7106 58.7146 83.0158 59.0703 83.1741 59.7806C83.4186 59.7594 83.663 59.7382 83.9074 59.717C83.7539 59.5642 83.6002 59.411 83.4464 59.2575ZM65.8325 24.7723C65.6824 24.4567 65.0227 25.2505 65.3692 25.3431C65.6295 25.4132 65.9133 24.9416 65.8325 24.7723ZM11.8134 24.1431C11.9817 24.1948 12.1557 24.2464 12.3163 24.298C12.4023 24.0895 12.4888 23.8809 12.5759 23.6724C12.5755 23.6724 12.5751 23.6724 12.5747 23.6724C12.3223 23.8293 12.0745 23.9862 11.8134 24.1431ZM49.9296 24.4876C50.5015 24.4644 51.049 24.4414 51.6197 24.4191C51.6273 24.283 51.6349 24.147 51.6425 24.011C51.0616 24.4994 50.8576 23.9614 50.7237 23.9268C50.7242 23.9268 50.7248 23.9268 50.7254 23.9268C50.3057 23.8133 49.8987 23.7288 49.5063 23.5612C49.6482 23.87 49.7893 24.1788 49.9296 24.4876ZM48.0141 23.6056C48.1004 24.5683 48.2127 24.6814 49.093 24.0157C49.06 23.8968 49.027 23.778 48.9939 23.6592C48.537 23.7245 48.2829 23.9436 48.365 23.443C48.2484 23.4972 48.1314 23.5514 48.0141 23.6056ZM56.6906 24.0592C56.5929 23.749 55.8296 24.0345 55.8639 24.1903C55.8807 24.251 56.8559 24.6647 56.6906 24.0592ZM84.1565 65.3901C84.2129 65.1995 84.269 65.0079 84.3249 64.8153C84.4477 65.0567 84.5702 65.2967 84.6923 65.5353C84.5137 65.4869 84.3351 65.4385 84.1565 65.3901ZM85.6659 67.3398C85.5525 67.4806 84.6612 67.1096 84.4917 67.9159C84.4351 67.3411 84.3769 66.7653 84.3174 66.1891C84.4762 66.451 84.6346 66.7112 84.7926 66.9695C85.0372 66.9056 85.2817 66.8415 85.5263 66.7772C85.5727 66.961 85.6195 67.152 85.6659 67.3398ZM85.0754 68.0021C85.711 67.6442 85.8669 69.2885 85.7945 69.4378C85.7775 69.4728 85.2902 69.6669 85.187 69.7329C85.1711 69.4813 85.1557 69.2413 85.1395 68.9943C84.9881 69.0866 84.8367 69.1784 84.6853 69.27C84.6139 68.9873 84.5419 68.7018 84.4693 68.4136C84.6346 68.5281 84.7997 68.6423 84.9648 68.7561C85.002 68.505 85.0385 68.249 85.0754 68.0021ZM84.4222 61.4279C84.4229 61.6352 84.4237 61.8457 84.4243 62.0562C84.6655 61.9945 84.9066 61.9327 85.1477 61.8707C85.1374 61.7452 85.127 61.6194 85.1168 61.4963C84.8853 61.4735 84.6537 61.4507 84.4222 61.4279ZM85.0686 65.6358C83.8689 65.4243 86.3832 64.4095 85.5005 65.4414C85.4107 65.5449 85.1845 65.6558 85.0686 65.6358ZM85.691 70.0631C86.5883 70.6523 84.6817 70.6196 85.202 69.9827C85.2297 69.9504 85.6246 70.0187 85.691 70.0631ZM85.9554 74.8473C85.9508 74.8977 85.3395 75.0099 85.9418 75.4804C85.8744 75.5634 85.807 75.6459 85.7394 75.7278C85.4495 75.5517 85.2161 73.945 85.8336 74.1393C85.8536 74.3903 85.9648 74.5934 85.9554 74.8473ZM88.1643 73.1716C88.1357 72.9226 88.1068 72.676 88.0776 72.4323C87.889 72.5229 87.7003 72.6131 87.5116 72.7027C87.4533 72.5855 87.395 72.4676 87.3365 72.3492C87.6583 72.1256 87.9798 71.899 88.3008 71.6697C88.3828 72.2171 88.4616 72.7367 88.5396 73.2816C88.4146 73.2449 88.2895 73.2083 88.1643 73.1716ZM88.2498 66.5365C88.0416 67.0306 88.3391 67.6028 88.3481 68.3849C88.3475 68.3853 88.347 68.3858 88.3464 68.3862C88.3461 68.4254 88.0861 68.5117 88.0835 68.6373C88.0837 68.7435 88.4989 70.8203 88.0398 70.6851C87.592 69.9012 88.1836 69.5601 87.175 69.4236C87.3827 69.3706 87.5904 69.3184 87.7982 69.2665C88.1143 68.4731 87.3709 68.2803 87.0759 67.8686C87.2344 67.8598 87.3928 67.8511 87.5513 67.8423C87.5479 67.5506 87.5439 67.2562 87.5394 66.9592C87.4382 67.0081 87.3369 67.0569 87.2356 67.1056C87.2285 67.0018 87.2212 66.8946 87.2141 66.7933C87.6659 66.5112 87.7527 66.1832 88.2498 66.5365ZM87.9514 74.3015C89.1658 74.4774 88.4212 76.7299 88.6863 77.7172C87.953 77.2145 88.4318 76.3872 88.4202 75.8029C88.3965 74.6897 87.979 75.4745 87.7783 75.2925C87.6791 75.1996 88.4268 74.5405 87.9514 74.3015ZM87.9134 64.7998C87.8584 65.3717 88.1577 65.6691 87.752 66.1917C87.6614 66.1569 87.5709 66.1222 87.4803 66.0874C87.549 65.9107 87.7019 64.5301 87.9134 64.7998ZM88.387 79.1783C88.8128 78.11 87.7262 78.6577 88.5366 78.0937C88.5937 78.4556 88.6489 78.8177 88.7019 79.1774C88.5969 79.1777 88.492 79.178 88.387 79.1783ZM65.3203 20.1293C64.893 20.0457 64.4278 19.7699 64.1081 20.1912C64.4036 20.295 64.6927 20.4 64.9753 20.5061C65.0903 20.3803 65.2 20.254 65.3203 20.1293ZM78.8018 19.2929C78.7522 19.1449 78.2271 19.2463 78.1888 19.229C78.1142 19.1935 78.2021 19.0602 78.2188 19.0223C77.7097 18.8162 77.9612 19.4739 77.5513 19.4032C77.4902 19.3911 76.7263 18.7946 76.3621 18.6773C75.806 18.4897 75.2568 18.2632 75.0537 18.2028C74.6974 18.094 73.9402 18.2347 73.3512 18.0843C73.1152 18.0234 73.1123 17.7163 72.8664 17.6561C71.2876 17.246 68.1072 17.0486 66.7224 16.6806C66.3848 16.5849 66.0978 16.157 65.9033 16.1633C65.7324 16.2832 65.575 16.4052 65.4122 16.527C65.12 15.2124 64.8249 16.3141 64.324 16.3778C64.0133 16.4192 63.9073 16.0306 63.8657 16.0272C63.5893 16.0063 63.4341 16.171 63.2117 16.1795C62.9551 16.1879 62.6363 15.9892 62.544 16.0121C62.4872 16.0286 62.622 16.5383 61.6717 16.4527C60.7228 16.3691 59.7707 16.2566 58.7914 16.1851C59.0458 17.7084 59.3751 16.6916 59.7724 16.6595C59.8782 16.6509 59.7976 16.8862 59.8893 16.8811C60.1529 16.8678 60.6791 16.6662 60.8894 16.7384C61.118 16.8162 60.9991 17.3643 61.3052 17.1814C61.3207 17.172 61.2911 16.9398 61.3625 16.9066C62.0997 16.5827 62.2944 16.9977 63.1746 17.092C63.7626 17.1331 67.3136 17.3611 67.4185 17.5523C67.9118 18.4251 64.254 17.9182 63.8193 17.8356C63.6711 17.7978 63.8554 17.5624 63.7226 17.4998C63.6697 17.4746 63.0783 17.8994 62.5638 17.8942C61.9348 17.8845 60.6926 17.4617 60.0738 17.4371C58.3882 17.3656 56.7043 17.2944 55.0006 17.2359C51.4524 17.115 47.8951 16.9402 44.3097 16.9023C44.197 16.9012 44.0465 17.1891 43.6774 17.1858C36.7916 17.1194 29.6631 16.8582 22.6832 16.9716C21.1609 16.9963 19.6553 17.264 18.1234 17.0444C17.9311 17.255 17.7371 17.4657 17.546 17.6764C18.0422 17.5097 18.9212 17.9898 19.0065 17.997C19.0351 17.9992 19.225 17.7616 19.5214 17.7751C19.9357 17.7931 20.12 18.0001 20.1542 18.0002C20.2608 18.0012 20.1915 17.7814 20.2935 17.7828C21.0602 17.7945 21.6358 17.7339 22.3368 17.734C23.1166 17.7345 23.5248 18.1449 24.0924 17.6978C24.1565 17.8732 24.2206 18.0486 24.2848 18.224C24.721 17.4678 27.2596 17.5612 28.2945 17.6059C28.6191 17.62 28.561 17.9275 28.6702 17.9279C28.7402 17.9279 28.7136 17.5249 29.5668 17.6078C29.9941 17.6499 30.1054 17.9438 30.3203 17.9353C30.4372 17.9303 30.4196 17.6392 30.5876 17.64C31.5586 17.6446 32.3509 17.743 33.3 17.8019C33.567 17.8182 33.5687 18.0611 33.6285 18.0582C33.8486 18.0486 34.2338 17.6393 34.7932 17.6436C35.7133 17.6509 37.5501 17.6639 38.3007 17.8689C38.4109 17.8992 38.5003 18.1912 38.5814 18.1876C38.7047 18.181 38.7556 17.8773 38.7772 17.8758C39.1902 17.8734 38.9398 18.1544 39.2166 18.0877C39.3656 18.0517 39.5234 17.7061 39.8685 17.6694C40.3232 17.621 40.2328 18.032 40.4237 17.9922C40.444 17.9859 40.4523 17.6997 40.6401 17.6917C41.3495 17.6633 42.3857 17.6056 43.0532 17.6125C43.2467 17.6142 43.3904 17.8081 43.6601 17.8137C44.1965 17.8242 47.2928 17.7325 47.5387 17.8469C47.5654 17.8588 47.2846 18.2779 47.7249 18.2701C47.8545 18.0957 47.9837 17.9214 48.1125 17.7471C48.3214 18.0309 48.5288 18.3147 48.7351 18.5985C48.7424 17.6263 49.9944 17.4916 49.9654 18.4855C50.0975 18.5275 50.2395 18.5697 50.3755 18.6117C50.6709 17.9288 50.8575 18.1848 51.4068 17.789C51.4908 18.0007 51.5746 18.2125 51.6579 18.4243C51.6817 18.2842 51.7054 18.1442 51.7292 18.0041C52.0144 18.769 52.5011 18.0125 52.5581 18.0091C52.7825 17.9957 52.953 18.1918 53.0581 18.1872C53.4499 18.1733 54.3107 17.9212 54.7619 18.0531C54.7829 18.0599 54.7564 18.3846 54.8838 18.4271C54.9197 18.4391 54.9507 18.4376 54.9785 18.4287C55.1323 18.3807 55.1966 18.1167 55.4488 18.5941C55.5146 18.4551 55.5804 18.3162 55.6463 18.1773C55.711 18.2515 55.7754 18.3257 55.8396 18.4C56.2333 18.3726 56.6025 18.3462 57.0068 18.3228C56.6295 18.8611 57.0328 19.1816 57.4317 18.7633C57.5672 18.6214 57.4649 18.2821 57.5102 18.233C57.5698 18.1633 59.3111 18.4154 59.4076 18.6414C59.4948 18.5405 59.582 18.4397 59.6691 18.3391C59.6978 18.5523 59.7261 18.7655 59.754 18.9787C59.8027 18.9076 59.8508 18.8365 59.9021 18.7657C60.3445 19.1633 61.5425 18.3951 61.7657 18.4824C61.8759 18.5277 61.7051 19.4156 62.2458 19.3697C62.2857 19.1251 62.3257 18.8804 62.3659 18.6358C62.4915 18.6113 62.6166 18.587 62.741 18.5629C62.974 18.6063 63.2734 19.0663 63.2537 19.3589C63.3431 19.1911 63.4327 19.0235 63.5225 18.856C63.6528 19.4433 64.7041 19.3552 65.1541 19.0486C65.2519 19.2349 65.3452 19.421 65.4465 19.6084C65.6368 19.4215 65.8271 19.2353 66.0173 19.0497C66.3987 19.0391 65.9569 19.3297 66.0324 19.3697C66.1875 19.4504 67.1314 18.9958 66.9633 19.7142C67.0791 19.7341 67.194 19.7542 67.308 19.7746C67.4003 19.5768 67.4931 19.3793 67.5863 19.1818C67.6552 19.9275 68.0634 19.7342 68.6941 20.122C68.781 19.969 68.8727 19.8169 68.9637 19.6648C69.1378 19.9397 69.3052 20.2148 69.4657 20.4901C69.5647 20.2289 69.6643 19.9679 69.7646 19.7071C69.8642 19.6876 69.9646 19.6685 70.0687 19.6506C70.1285 20.2957 70.6104 19.7202 70.7219 20.0085C70.8795 20.4286 70.5922 20.8135 70.1194 20.7944C70.0588 21.2369 71.4331 21.3555 71.7442 21.4134C71.747 21.323 71.7497 21.2327 71.7521 21.1423C71.4168 21.1239 71.0974 21.1141 70.7584 21.1034C70.7549 19.9376 71.5589 20.4447 71.9916 20.4143C72.0307 20.4107 72.3568 20.0533 72.7407 20.2064C72.8978 20.267 73.3106 21.0495 73.4024 21.1173C74.2123 21.6871 73.8433 20.614 74.4497 21.6621C74.4787 21.0335 74.7948 21.6752 75.3438 21.7721C75.4317 21.7826 76.3521 21.6449 76.404 21.6577C76.7374 21.723 76.1921 22.0569 76.6823 22.1319C76.7933 22.0297 76.905 21.928 77.0173 21.8268C77.1172 21.8747 77.2174 21.9236 77.3193 21.9743C77.3534 23.3858 77.8961 22.6457 78.1672 22.6601C78.2739 22.6657 78.0055 22.8867 78.2563 22.9506C78.3496 22.9749 78.5767 22.7929 78.8016 22.9059C79.524 23.2793 79.0693 24.369 80.3564 23.8076C80.3453 24.015 80.333 24.2227 80.3167 24.4285C80.5017 24.3054 80.688 24.1838 80.8756 24.0636C80.9686 24.9031 81.181 24.2828 81.3444 24.4215C81.7759 24.7831 82.5801 25.6572 82.3165 26.0998C82.604 25.9701 82.7932 25.9616 82.9165 26.0218C83.2387 26.1591 82.9206 26.872 83.0149 26.9267C83.1779 26.8985 83.3426 26.8743 83.5094 26.8551C83.473 27.0293 83.4311 27.2005 83.3846 27.369C84.2474 26.632 83.7053 27.7665 83.7063 27.8081C83.7278 27.8531 84.4708 28.4244 84.6162 28.7559C84.7692 29.0674 84.7272 29.7585 84.7446 29.8095C84.7682 29.8635 85.2796 30.3309 85.4328 30.8239C85.5969 31.2202 85.8334 34.028 86.2736 33.7657C86.3694 33.5516 86.4289 33.2656 86.4398 33.0263C86.5323 32.2304 85.5528 28.3326 85.0238 27.5866C84.6336 26.7886 84.1052 26.0717 83.4596 25.4378C82.6119 24.6088 81.7463 23.8488 80.8682 23.1406C80.7724 23.0634 80.9275 22.8143 80.8432 22.7464C80.713 22.6425 80.207 22.6514 80.0781 22.5599C79.5971 22.2086 78.9954 21.7995 78.717 21.6376C78.0987 21.2768 77.7329 20.9001 77.2481 20.642C77.0867 20.5549 76.1604 20.5395 75.6606 20.184C75.588 20.0672 75.5161 19.9513 75.4449 19.8364C75.7682 19.8525 76.6223 19.9298 76.9835 20.0618C77.5188 20.2543 77.6806 20.6 77.8676 20.6869C78.0275 20.758 78.941 20.9282 79.2971 21.1307C79.4089 21.1925 79.2766 21.471 79.3688 21.5239C79.8734 21.8098 80.5106 22.2148 81.1002 22.2643C80.8802 22.2222 81.8072 23.1326 81.8569 23.181C81.9485 23.2524 82.2246 23.1034 82.4122 23.255C82.7727 23.5502 82.3352 23.9662 83.1643 23.886C83.1566 24.1112 83.1499 24.3385 83.1388 24.5633C83.3827 24.2938 83.6474 24.5632 83.9515 24.9089C84.2905 25.2945 84.617 25.7887 85.1958 25.6615C85.2524 25.627 84.8687 24.9465 84.4236 24.4012C84.0997 23.9994 83.7908 23.6497 83.7328 23.5901C82.9074 22.72 81.3943 21.8109 80.4976 21.0934C80.2359 20.8686 79.5245 19.8972 79.4411 19.8684C79.3157 19.8157 79.2899 20.1187 79.2341 20.0996C78.0954 19.7323 78.8685 19.5116 78.8018 19.2929ZM88.8609 67.7505C88.8704 67.3947 88.8788 67.0315 88.8869 66.6711C89.064 66.6846 89.2411 66.6981 89.4183 66.7117C89.3615 66.8822 89.3046 67.0519 89.2475 67.2207C89.3608 67.3398 89.474 67.4585 89.5871 67.5769C89.345 67.635 89.103 67.6928 88.8609 67.7505ZM89.6525 68.5845C89.7604 68.8887 89.3913 68.926 89.3776 68.9982C89.3358 69.2111 89.4969 69.3901 89.5042 69.5984C88.6108 69.4084 88.9827 68.8839 89.6525 68.5845ZM89.5038 62.1482C89.4675 62.2228 88.5598 62.7593 89.4809 63.2267C89.2329 63.6486 88.9833 64.0588 88.7343 64.4829C89.1105 63.7737 88.5935 62.8736 88.5839 62.5431C88.5804 62.4179 88.8685 62.3708 88.8652 62.2703C88.842 61.691 88.1378 61.1784 89.0936 61.0422C88.8597 61.609 89.5483 62.0564 89.5038 62.1482ZM89.4291 65.6672C89.2349 65.7749 89.0406 65.8821 88.8463 65.989C88.8225 65.6537 88.7981 65.3181 88.7737 64.987C88.9836 65.062 89.1935 65.1369 89.4034 65.2118C89.4119 65.3613 89.4205 65.5144 89.4291 65.6672ZM87.5641 39.8478C87.5866 40.0548 87.6089 40.2616 87.6311 40.4683C87.7755 40.4396 87.7467 40.2034 87.8347 40.1046C87.8347 40.1049 87.8348 40.1053 87.8348 40.1057C87.9344 39.9953 88.1271 40.0144 88.1887 39.8279C87.9805 39.8345 87.7723 39.8411 87.5641 39.8478ZM17.2949 17.0459C16.9457 17.0343 13.7256 17.0258 13.9881 17.5617C14.1362 17.8294 15.2239 17.5987 15.5627 17.6038C15.9896 17.6102 17.188 18.1921 17.2949 17.0459ZM11.5718 16.9285C11.5137 17.4618 13.5465 17.551 13.7319 17.4586C13.6902 17.3825 13.6264 17.213 13.5711 17.1745C13.3092 16.99 12.0133 17.0752 11.5718 16.9285ZM86.5139 28.6763C86.3256 28.9212 86.1315 29.1577 85.9344 29.3922C86.2464 29.2271 86.5575 29.0599 86.8674 28.8905C86.7496 28.8161 86.6325 28.7465 86.5139 28.6763ZM75.2727 19.9458C72.8772 19.036 70.3292 18.4226 67.7292 17.9769C67.9754 17.8696 68.2354 17.7658 68.4918 17.6631C70.7293 18.109 73.0431 18.8277 75.1496 19.3527C75.1934 19.5508 75.2344 19.7485 75.2727 19.9458ZM91.0169 61.2603C90.9657 60.5754 90.6595 60.0106 91.0036 59.2317C91.4607 59.906 90.8791 60.3243 91.5198 60.965C91.5198 60.9654 91.5199 60.9657 91.5199 60.9661C91.3522 61.0639 91.1845 61.1609 91.0169 61.2603ZM89.6284 45.8546C89.8953 46.0358 90.1624 46.2206 90.4293 46.4037C90.4016 46.1509 90.3738 45.8977 90.346 45.6466C90.1068 45.716 89.8676 45.7853 89.6284 45.8546ZM52.5248 15.5987C51.7992 16.1228 49.9392 15.1284 49.3495 15.7659C49.3106 15.8077 49.6596 16.0838 49.0836 16.6031C49.5162 16.5006 49.8166 16.3945 49.8537 15.9809C49.9784 16.1229 50.1004 16.2649 50.2289 16.4069C50.4439 16.3035 50.6574 16.2002 50.8694 16.0968C50.8407 16.5086 50.8587 16.4869 51.1838 16.2092C51.3277 16.3156 51.4747 16.422 51.6233 16.5285C51.6891 16.3549 51.7547 16.1813 51.8203 16.0076C51.9455 16.2536 52.0699 16.4996 52.1936 16.7456C52.6921 16.4882 52.398 16.0107 52.5248 15.5987ZM55.0637 15.7421C55.0584 15.7379 55.0464 15.7344 55.0284 15.7315C54.6705 15.6702 51.6359 15.9275 53.0976 16.7357C53.4982 16.7158 53.8845 16.696 54.2908 16.6768C54.0347 15.5382 54.7345 16.206 55.0146 16.4783C55.0735 16.5328 55.1157 16.5716 55.1306 16.5766C55.5581 16.7177 56.1032 16.4076 56.4051 16.4334C56.6639 16.4557 56.8117 16.7048 57.0008 16.7049C57.645 16.7044 58.6134 16.7395 58.7914 16.1851C58.2826 16.1485 57.812 16.1225 57.2909 16.1177C56.7348 16.1132 56.298 15.5658 55.2492 16.2731C54.9953 16.1897 55.0941 15.7659 55.0637 15.7421ZM90.4416 47.0415C89.8766 47.0764 90.1482 48.3388 90.3711 48.3235C90.5017 48.3123 90.4543 47.8963 90.4972 47.8313C90.4972 47.8309 90.4971 47.8305 90.4971 47.8301C90.516 47.8029 90.7448 47.906 90.7837 47.7034C90.6695 47.4805 90.5558 47.2624 90.4416 47.0415ZM22.3262 15.795C22.1503 15.4767 18.1746 15.5794 18.066 15.7314C18.0336 15.7735 18.0782 15.9129 18.0653 15.9932C18.983 15.5477 20.3079 16.0816 21.1844 16.1192C21.4286 16.1294 21.3564 15.9042 21.3702 15.9C21.3708 15.9 21.3714 15.9 21.372 15.9C21.509 15.8999 22.143 16.4513 22.3262 15.795ZM48.0753 16.009C48.243 16.0994 48.4099 16.1898 48.5761 16.2803C48.6205 16.1056 48.665 15.931 48.7094 15.7563C48.709 15.7563 48.7086 15.7563 48.7082 15.7563C48.4984 15.8405 48.2874 15.9247 48.0753 16.009ZM42.2324 15.3753C42.2725 15.4989 42.3126 15.6225 42.3526 15.7462C42.7774 15.7668 43.1994 15.7875 43.6271 15.8084C43.5835 15.8776 43.54 15.9468 43.4964 16.016C44.1399 16.2077 44.4028 15.7769 44.748 15.8425C44.7476 15.8425 44.7472 15.8425 44.7468 15.8425C44.7838 15.8501 44.8263 16.1074 44.9637 16.1174C45.2808 16.1405 46.1715 16.245 46.2878 15.9877C46.5207 15.4385 44.7104 15.6822 44.3706 15.6541C44.219 15.641 44.0378 15.4146 43.9451 15.4085C43.8434 15.4026 43.7022 15.7049 43.4535 15.6934C43.3787 15.6895 42.5812 15.3254 42.2324 15.3753ZM34.7268 15.6914C34.8563 15.97 35.1314 15.7032 35.2316 15.7492C35.2556 15.7601 35.0675 15.9916 35.2934 16.0627C35.3584 15.9044 35.4233 15.7461 35.4883 15.5878C35.2346 15.6223 34.9807 15.6568 34.7268 15.6914ZM90.9361 49.1581C90.9916 49.1145 90.8978 48.4334 90.8565 48.4039C90.3089 48.0478 90.513 49.4577 90.9361 49.1581ZM93.049 66.4517C93.7671 66.0893 93.2884 69.9032 93.3413 70.2574C92.8779 70.265 93.2909 69.3501 92.6833 69.8531C93.007 69.3846 92.7448 68.1655 92.8262 67.8628C92.8757 67.6798 93.2724 67.6127 93.2832 67.5847C93.3219 67.4799 92.798 66.5841 93.049 66.4517ZM93.185 73.3846C93.2573 73.0292 93.3277 72.6524 93.3984 72.2993C93.4712 72.7115 93.5438 73.1458 93.6141 73.5571C93.4711 73.4996 93.3281 73.4421 93.185 73.3846ZM93.4147 73.8241C93.8639 73.7984 93.5698 75.0222 93.683 75.3414C92.9074 75.0053 93.6054 74.3857 93.4147 73.8241ZM92.5491 53.598C92.7907 53.0138 91.4047 52.9079 92.0637 53.5254C92.0853 53.544 92.5357 53.6227 92.5491 53.598ZM52.3829 13.6702C52.2926 13.6602 51.0985 13.1991 51.0328 13.4182C50.8076 14.1164 51.5835 13.8458 51.8477 14.1146C52.2627 14.5498 51.6438 14.894 52.6658 14.6505C52.6223 14.7902 52.5788 14.93 52.5352 15.0697C53.1373 15.1254 52.9575 14.1502 53.0676 14.0268C53.1021 13.9893 53.4778 14.0771 53.5456 14.0162C54.4062 13.2467 52.4631 13.6774 52.3829 13.6702ZM91.1554 39.7926C91.2065 39.5784 91.2295 39.4224 91.2324 39.3033C91.2298 39.2953 91.2294 39.2696 91.2264 39.2617C91.2125 38.733 90.8484 38.9511 90.7192 38.0234C90.5044 38.033 90.6647 38.8065 90.8806 39.3208C90.8824 39.3255 90.8826 39.3406 90.8842 39.3453C90.969 39.5779 91.0672 39.758 91.1554 39.7926ZM63.2961 14.7088C62.1336 14.7218 61.2081 14.2482 60.076 14.7223C60.1111 15.5462 63.5653 14.9377 63.2961 14.7088ZM9.03948 13.1275C9.71835 13.3541 10.4027 13.5354 11.1255 13.68C15.0776 14.4893 19.4218 14.144 23.4785 14.138C23.9991 14.1377 24.0457 14.4689 24.2344 14.4336C24.3578 14.4107 24.3371 14.1441 24.5014 14.1434C30.4299 14.1212 36.1112 13.8004 41.7888 14.0057C42.1493 14.019 43.8843 14.6065 44.2627 13.7469C44.5501 13.0946 43.2956 13.5938 43.0846 13.5862C42.9289 13.5807 42.9249 13.2728 42.8209 13.2709C42.7105 13.2689 42.8 13.4799 42.6717 13.482C42.128 13.4922 41.5298 13.4051 41.0394 13.4193C36.2042 13.554 31.5021 13.4806 26.698 13.432C26.1168 13.4265 26.2357 13.1804 26.2068 13.1792C26.2064 13.1799 26.206 13.1805 26.2056 13.1811C23.0889 13.1458 19.5194 13.6884 16.2172 13.4691C14.5185 13.341 12.8158 13.2134 11.1267 13.0859C10.4865 13.0389 9.86092 12.9918 9.24697 12.9448C9.17751 13.0057 9.10811 13.0666 9.03948 13.1275ZM54.8335 14.5805C54.5663 13.6456 54.4721 14.5812 53.4441 14.1848C53.3571 14.3421 53.2698 14.4994 53.1823 14.6568C53.7291 14.6307 54.2901 14.6054 54.8353 14.5805C54.8347 14.5805 54.8341 14.5805 54.8335 14.5805ZM47.9578 14.1435C47.7868 12.8852 45.4599 13.7481 44.4069 13.4992C44.2052 14.128 45.7407 13.8593 46.0946 13.9294C46.2806 13.9641 47.2217 14.6226 47.9663 14.2718C47.9635 14.2291 47.9606 14.1863 47.9578 14.1435ZM94.597 62.3753C94.547 62.2067 94.4973 62.0439 94.4472 61.8773C94.3421 62.3073 94.2374 62.7502 94.1313 63.1829C94.1683 62.4973 94.2041 61.8184 94.2378 61.131C94.508 61.2365 94.778 61.3419 95.048 61.4472C94.8982 61.7587 94.7476 62.0649 94.597 62.3753ZM94.285 60.1932C94.4811 61.365 93.6837 60.1932 93.9673 59.8693C94.1376 59.676 94.2643 60.0734 94.285 60.1932ZM94.4634 57.0733C94.9692 57.5835 95.0986 58.7 94.1533 58.382C94.5266 57.7414 94.1394 57.3997 94.3051 56.5049C94.4912 56.6163 94.6772 56.7275 94.8632 56.8386C94.8632 56.8392 94.8633 56.8398 94.8633 56.8404C94.73 56.9181 94.5967 56.9958 94.4634 57.0733ZM94.881 60.6867C94.4222 61.5033 94.4138 59.2471 94.8171 59.9232C94.8359 59.9558 94.8987 60.6553 94.881 60.6867ZM14 12.1933C13.9039 12.4917 14.5111 12.4874 14.702 12.5079C15.5623 12.5986 16.6761 12.4714 17.5604 12.5148C17.4931 12.4164 17.4259 12.318 17.359 12.2195C16.2424 12.2106 15.1183 12.2019 14 12.1933ZM20.361 12.5243C20.9856 12.5261 21.585 12.5279 22.2091 12.5299C22.2658 12.5301 22.5335 12.2747 22.3353 12.2117C21.6725 12.3158 21.0263 12.42 20.361 12.5243ZM58.8191 12.9161C58.3379 12.725 59.7881 11.9388 59.6706 12.8538C59.3895 12.8736 59.1057 12.8944 58.8191 12.9161ZM63.3359 12.8625C63.0278 12.9215 62.7212 12.9822 62.4094 13.0439C62.4177 12.9387 62.426 12.8334 62.4343 12.7281C62.7388 12.7717 63.0372 12.8163 63.3359 12.8625ZM11.5822 11.9775C11.9002 12.3395 12.6362 12.2854 13.1117 12.2938C12.7814 11.9827 12.0308 12.1337 11.5822 11.9775ZM51.6804 12.3689C51.708 12.6152 49.8385 12.5281 50.4938 12.1035C50.895 12.1919 51.2774 12.2801 51.6804 12.3689ZM47.8686 11.9562C48.274 11.9069 48.582 11.9951 48.4953 12.3809C48.2833 12.3619 48.0701 12.343 47.8556 12.3241C47.86 12.2015 47.8643 12.0788 47.8686 11.9562ZM95.0021 54.8999C94.9042 54.2312 94.8035 53.5464 94.7031 52.8781C94.8106 52.8929 94.9182 52.9077 95.0257 52.9225C95.1231 53.5672 95.2208 54.2278 95.3159 54.8727C95.2113 54.8817 95.1067 54.8908 95.0021 54.8999ZM11.2063 11.0282C11.1812 11.032 11.1561 11.0358 11.131 11.0395C10.6715 11.1037 10.2638 11.168 9.80507 11.2322C10.2635 11.2999 10.6709 11.3676 11.1302 11.4354C11.1556 11.4394 11.1811 11.4435 11.2066 11.4475C11.2069 11.3071 11.2072 11.1668 11.2075 11.0264C11.2071 11.027 11.2067 11.0276 11.2063 11.0282ZM97.156 64.1073C97.4888 61.9777 98.2109 64.6084 97.5268 65.213C97.5275 65.2135 97.5281 65.2141 97.5288 65.2146C97.4685 65.2677 97.1526 65.1873 97.0339 65.2768C97.1581 65.054 97.2818 64.8269 97.4059 64.6078C97.2183 64.428 97.0306 64.2477 96.8427 64.0667C96.9061 63.9977 96.9694 63.9287 97.0328 63.8595C97.0739 63.9422 97.115 64.0248 97.156 64.1073ZM97.9546 72.5489C97.9831 74.4648 97.126 72.5359 97.6867 71.571C97.8287 71.5747 97.9516 72.3633 97.9546 72.5489ZM97.5059 67.5651C97.4164 67.2693 97.3269 66.9807 97.2365 66.6851C97.3223 66.6409 97.408 66.5966 97.4936 66.5522C97.597 66.7768 97.7 67.0001 97.8027 67.2221C97.7038 67.3363 97.6047 67.4481 97.5059 67.5651ZM98.1064 57.644C98.1609 57.1601 97.1267 56.6335 97.5205 58.1497C97.6256 58.1397 97.7307 58.1297 97.8358 58.1197C97.8136 58.0597 97.6991 57.8875 97.706 57.8768C97.7298 57.8462 98.084 57.8487 98.1064 57.644ZM100.871 76.0324C100.912 76.0875 102.027 76.0865 100.89 76.7005C100.964 76.8789 101.038 77.0558 101.112 77.2311C100.867 77.2816 100.623 77.3317 100.379 77.3815C100.555 76.6977 100.056 76.6275 100.044 76.5796C99.9923 76.3589 100.252 76.5168 100.252 76.3729C100.251 76.0008 100.052 75.1459 100.793 75.5093C101.058 75.6428 100.829 75.9783 100.871 76.0324ZM101.461 74.6795C101.371 74.7661 101.036 74.5095 100.946 74.5758C100.868 74.6371 100.564 75.4625 100.006 75.2601C100.025 75.1268 100.044 74.9926 100.062 74.8575C100.211 74.8067 100.36 74.7556 100.509 74.7044C100.365 74.5786 100.221 74.4511 100.078 74.3309C100.441 74.1032 100.904 73.6196 101.229 74.1571C101.19 73.9572 101.15 73.7555 101.109 73.5522C100.927 73.4543 100.744 73.3524 100.562 73.2591C100.836 73.3012 101.109 73.3437 101.383 73.3886C101.411 73.8268 101.436 74.2403 101.461 74.6795ZM101.433 81.1855C101.293 81.1562 101.154 81.127 101.014 81.098C101.022 81.1253 101.03 81.153 101.038 81.1812C101.044 81.2154 101.027 81.3204 101.032 81.3548C101.243 82.1379 101.204 83.4509 100.413 82.6231C100.417 82.1656 100.411 81.7372 100.402 81.3259C100.397 81.2945 100.413 81.1983 100.407 81.167C100.377 80.5133 100.337 79.8522 100.29 79.2132C100.396 79.1446 100.501 79.0754 100.607 79.0057C100.201 79.7693 101.933 79.5562 101.431 80.2368C101.346 80.3556 100.746 79.9958 101.123 80.7555C101.264 80.7312 101.406 80.7067 101.547 80.682C101.51 80.8522 101.472 81.02 101.433 81.1855ZM99.8819 89.2411C100.465 87.9668 100.527 89.5922 100.049 89.6916C100.049 89.6912 100.049 89.6908 100.05 89.6904C98.7424 89.9894 99.6938 88.7821 99.7149 88.6714C99.7403 88.542 99.0122 88.0741 100.377 87.6726C100.209 88.243 100.045 88.7517 99.8819 89.2411ZM101.226 84.0527C101.237 84.2026 101.036 84.0967 101.031 84.1601C101.031 84.1607 101.031 84.1612 101.031 84.1618C100.998 85.1146 100.679 87.4193 99.9609 87.3934C100.1 86.8534 100.48 83.6633 100.904 83.583C101.013 83.7339 101.12 83.8933 101.226 84.0527ZM100.936 78.4735C101.375 78.0371 101.443 79.0206 101.237 79.2754C101.193 79.323 100.482 78.9322 100.936 78.4735ZM99.7989 46.8031C99.4379 45.9363 99.3 47.1407 98.8423 46.7779C98.8958 46.9453 98.9493 47.1124 99.0027 47.2794C99.2681 47.1209 99.5335 46.9622 99.7989 46.8031ZM73.4862 7.9002C73.2566 7.79635 73.3134 8.07058 73.2917 8.06936C73.1357 8.0261 73.0308 7.79034 72.9645 7.79798C71.7419 7.9591 72.4489 8.33175 72.4499 8.38226C72.4196 8.63305 72.0646 8.85714 72.4101 9.22621C72.6749 9.19296 72.9382 9.16115 73.2003 9.13082C73.2897 9.29524 73.3711 9.45816 73.4639 9.62428C74.0284 9.45287 73.3969 9.21441 73.4235 8.81274C73.4304 8.65365 73.9337 8.58032 73.4862 7.9002ZM100.462 45.1095C100.007 45.0119 99.4143 44.7177 99.0116 45.1153C99.0116 45.1157 99.0117 45.1161 99.0117 45.1165C98.9381 45.1901 98.9226 45.458 98.818 45.551C99.4657 46.0621 100.047 45.7775 100.462 45.1095ZM78.3116 8.45129C78.6922 8.69011 79.0999 8.94594 79.4803 9.20016C79.3795 9.44523 79.2788 9.69036 79.1783 9.93553C78.9832 9.78558 78.7845 9.63649 78.5821 9.48836C78.4628 9.57405 78.34 9.65878 78.2254 9.74669C78.4015 10.1285 78.5756 10.5131 78.7356 10.8958C79.0877 10.915 79.4667 10.9496 79.8295 10.9834C79.7326 10.7931 79.6329 10.6027 79.5302 10.4123C80.4009 10.5936 79.9769 11.1173 80.5413 11.6274C80.8648 11.5009 81.186 11.3761 81.5238 11.2618C81.7574 11.6414 81.9671 12.0159 82.188 12.4023C82.7835 12.5745 82.9196 12.437 82.6795 11.9964C83.0994 11.8501 83.169 12.4576 83.5569 12.5216C83.589 12.5272 83.6838 12.234 83.7095 12.244C85.5193 13.0317 84.9958 13.6945 85.2373 13.8766C85.4064 14.008 86.429 14.0484 86.5451 13.9094C86.7092 13.7312 85.6939 11.826 88.1403 13.5192C87.2855 12.0455 85.3943 11.7031 85.8203 13.1324C85.482 12.7744 83.5447 11.943 83.4387 11.8702C83.2884 11.7398 83.5213 11.4396 83.313 11.3197C83.1863 11.2509 82.4713 11.8286 81.7894 10.6867C81.6003 10.7539 81.4094 10.8214 81.2276 10.8938C81.1563 10.7355 81.083 10.5771 81.0078 10.4186C81.4225 10.1503 81.8357 9.88452 82.2725 9.63309C81.0773 9.57354 80.5506 8.46056 79.6725 8.88334C79.1787 8.60834 78.9401 8.43946 79.2952 8.18251C79.1347 8.12412 78.9672 8.06443 78.81 8.00944C78.6429 8.15597 78.4768 8.30326 78.3116 8.45129ZM99.541 42.553C99.9006 42.0812 99.0026 42.0286 98.9604 42.1007C98.7293 42.5051 99.3538 42.7982 99.541 42.553ZM74.2773 8.57639C74.7588 8.93305 75.2609 9.30492 75.7317 9.679C75.8096 9.40991 75.8875 9.14082 75.9654 8.87174C75.4069 8.76389 74.8272 8.6614 74.2773 8.57639ZM100.439 46.8672C100.235 46.9329 100.031 46.9985 99.8267 47.064C100.644 47.4989 99.6034 48.1212 99.8562 48.3535C99.9113 48.4037 100.268 48.2534 100.336 48.1393C100.379 48.0694 100.52 46.9521 100.439 46.8672ZM102.208 68.4388C102.056 68.2547 101.903 68.0699 101.75 67.8841C101.986 67.88 102.223 67.8759 102.459 67.8718C102.509 67.9653 102.559 68.0586 102.609 68.1516C102.475 68.2477 102.342 68.3434 102.208 68.4388ZM101.69 66.2502C101.685 65.8973 101.681 65.5557 101.675 65.2079C101.983 66.5075 102.013 65.417 102.375 66.2036C102.147 66.2191 101.919 66.2347 101.69 66.2502ZM101.913 62.7138C102.057 62.7453 102.2 62.7767 102.344 62.8082C102.37 63.1478 102.397 63.5034 102.423 63.8476C102.895 63.5927 103.366 63.336 103.838 63.0775C103.829 62.9476 103.821 62.8238 103.812 62.6968C103.179 62.7023 102.546 62.708 101.913 62.7138ZM63.1889 5.28733C62.9627 5.25885 62.1254 5.62324 62.1561 5.78401C62.4605 6.00067 62.7862 6.22052 63.093 6.44055C63.1181 6.16092 63.1432 5.88128 63.1683 5.60165C63.2029 5.74483 63.2374 5.88803 63.2715 6.03123C63.4659 5.94252 63.6597 5.8543 63.853 5.76657C63.9219 6.01925 63.9959 6.27253 64.0682 6.52581C64.1904 6.25597 64.3132 5.98633 64.4365 5.71689C63.56 5.13406 63.5661 5.63638 63.3755 5.61382C63.281 5.60327 63.2355 5.42498 63.2091 5.33497C63.2023 5.31909 63.1956 5.30321 63.1889 5.28733ZM75.1029 6.94313C73.9322 6.56947 73.1129 7.14719 72.4105 6.36741C72.6518 7.73524 76.4638 7.26609 77.4186 8.76654C77.6154 8.60809 77.8133 8.45068 78.0123 8.29437C77.2526 8.24039 76.9293 7.69019 76.5987 7.52693C76.3441 7.40039 76.3149 7.62295 76.2947 7.61367C76.2937 7.6134 76.2928 7.61313 76.2919 7.61286C75.7086 7.35122 75.5543 7.0901 75.1029 6.94313ZM101.544 47.4869C101.848 47.1887 101.765 46.7295 101.28 46.7761C101.167 47.0485 101.055 47.3201 100.941 47.5911C101.06 47.5254 101.492 47.5379 101.544 47.4869ZM103.238 62.2071C103.38 61.9868 103.202 61.5021 102.8 61.7489C102.729 61.7935 103.062 62.2613 102.282 62.0328C102.331 62.5093 103.156 62.3325 103.238 62.2071ZM94.2449 20.0941C94.4385 20.3423 94.6254 20.593 94.8054 20.8455C95.0097 20.7993 95.2146 20.7549 95.4202 20.7123C95.033 20.4943 94.6413 20.2884 94.2449 20.0941ZM102.11 49.679C101.177 50.0079 102.148 50.3085 101.405 50.8189C101.414 50.9791 101.424 51.1371 101.434 51.2989C101.434 51.2993 101.434 51.2997 101.434 51.3001C101.696 51.2784 101.957 51.2568 102.219 51.2352C102.183 50.7169 102.147 50.2004 102.11 49.679ZM82.2788 10.0419C82.3598 10.2145 82.4385 10.387 82.5148 10.5594C82.8026 10.5403 83.1109 10.5344 83.4082 10.5264C83.3276 10.3709 83.2449 10.2152 83.1601 10.0596C82.8579 10.0462 82.5734 10.0449 82.2788 10.0419ZM102.472 52.4831C102.538 51.9132 101.685 51.785 101.753 52.4984C101.782 52.7973 102.404 53.0818 102.472 52.4831ZM51.9169 5.15374C52.1085 5.22791 52.2985 5.30213 52.4871 5.37638C52.5543 5.20159 52.6214 5.02681 52.6884 4.85203C52.4338 4.95253 52.1766 5.0531 51.9169 5.15374ZM103.343 64.8944C103.166 64.8841 102.989 64.8738 102.812 64.8635C102.835 64.6882 102.858 64.5084 102.881 64.3352C103.058 64.3657 103.235 64.3953 103.412 64.4271C103.39 64.5835 103.367 64.7392 103.343 64.8944ZM53.2029 5.28119C53.3565 5.31719 53.5091 5.35321 53.6605 5.38926C53.7641 5.3055 53.8671 5.22174 53.9697 5.138C53.8303 5.05082 53.6898 4.96366 53.5483 4.87652C53.4337 5.01139 53.3185 5.14628 53.2029 5.28119ZM102.883 57.8085C103.075 57.5732 102.342 56.7641 102.244 57.5595C102.181 58.0657 102.854 57.8436 102.883 57.8085ZM103.193 58.9553C103.524 58.0941 101.542 58.8893 102.943 59.7604C102.679 58.7864 103.173 59.0053 103.193 58.9553ZM104.805 66.1667C104.805 66.1877 104.513 66.2251 104.513 66.3934C104.516 66.9915 104.452 67.8107 104.46 68.2365C104.486 69.2783 105.183 72.4682 104.345 72.8955C104.17 72.9815 103.629 72.8253 103.603 72.8583C103.531 72.9534 103.813 73.4827 103.416 73.4C103.397 72.8713 103.375 72.3379 103.353 71.814C103.636 71.929 103.919 72.0412 104.202 72.1618C103.99 70.8573 104.027 71.2887 103.406 70.94C103.627 70.7052 103.849 70.4762 104.07 70.241C103.809 69.7677 103.547 69.3041 103.284 68.8377C103.465 68.9364 103.646 69.0349 103.828 69.1333C104.108 68.3909 103.907 68.5979 103.46 68.2317C103.634 68.2201 103.809 68.2085 103.984 68.1969C103.515 67.5316 104.029 67.3585 104.026 67.2049C104.015 66.8873 101.923 66.6374 103.898 65.3085C102.873 64.88 104.886 64.7468 103.842 64.5243C104.894 63.5934 104.609 65.2396 104.623 66.0058C104.623 66.0062 104.623 66.0066 104.623 66.007C104.624 66.0652 104.805 65.9605 104.805 66.1667ZM103.462 61.8943C104.41 62.3329 104.334 60.3111 103.077 61.083C103.043 61.1853 103.008 61.2874 102.973 61.3893C103.136 61.5554 103.299 61.7256 103.462 61.8955C103.462 61.8951 103.462 61.8947 103.462 61.8943ZM102.244 43.0248C101.663 41.2226 101.262 42.3313 101.841 42.8972C101.956 43.0101 102.102 43.063 102.244 43.0248ZM73.5825 5.8538C73.5259 5.953 73.4695 6.05227 73.4132 6.15159C74.1665 6.20956 75.5141 6.99373 75.6885 6.28164C74.986 6.12389 74.2662 5.97794 73.5825 5.8538ZM79.7991 7.16773C79.643 7.06114 78.9795 6.71725 78.9759 7.00871C79.2013 7.29315 79.4486 7.5889 79.6743 7.88082C79.8546 7.81741 80.0352 7.75495 80.2162 7.69348C80.0402 7.58135 79.842 7.19561 79.7991 7.16773Z" fill="white"/>
</svg>
