<svg width="447" height="137" viewBox="0 0 447 137" fill="none" xmlns="http://www.w3.org/2000/svg">
<path d="M214.931 45.5337C212.895 45.718 210.928 45.8639 208.991 45.9769C191.887 46.9864 179.027 45.3961 162.214 45.3097C150.211 45.2615 137.078 45.3951 123.615 45.958C106.446 46.6992 88.9628 48.2267 72.5208 52.2823C57.4187 55.8886 42.9025 60.5781 31.5826 66.6498C30.9876 66.972 30.3844 67.3096 29.8128 67.6413C24.5745 70.6609 21.0269 74.7374 19.6855 79.5864C18.6236 83.3037 18.847 87.3331 20.242 90.8858C20.3796 92.1435 25.5693 96.3034 30.7479 98.8517C36.0704 101.637 41.993 104.134 47.9808 106.628C51.1769 107.97 55.4246 108.947 59.8704 109.953C60.859 110.176 61.589 110.419 62.1752 110.61C62.5011 110.718 62.7817 110.808 63.0268 110.861C68.977 112.301 80.3162 113.011 87.1201 113.473C95.7997 114.084 108.492 114.661 120.152 115.118C127.605 115.413 134.662 115.672 139.863 115.899C145.516 116.147 151.259 116.334 153.473 116.871C155.512 116.949 156.657 116.545 157.197 116.535C157.203 116.536 157.209 116.536 157.215 116.537C158.977 116.509 163.307 116.92 164.296 116.924C164.441 116.925 163.561 116.59 165.891 116.741C166.1 116.754 165.898 116.962 167.874 117.012C168.402 117.026 175.003 116.85 176.885 116.87C183.16 116.946 198.16 117.496 205.661 117.614C206.808 117.633 207.472 117.52 208.684 117.538C209.311 117.547 210.248 117.697 210.441 117.7C211.285 117.709 214.984 117.152 213.641 118.344C217.494 118.326 216.365 117.907 216.457 117.649C220.64 117.674 222.644 118.272 223.747 117.682C244.303 118.035 264.875 118.292 285.396 118.329C285.402 118.23 285.408 118.132 285.414 118.033C289.918 118.317 292.247 118.009 294.513 118.062C295.318 118.08 296.116 118.14 296.997 118.28C299.089 118.138 301.272 117.992 303.357 117.842C329.334 117.675 355.2 117.079 380.384 113.811C397.722 111.472 415.871 108.297 428.421 100.042C428.619 99.8782 428.342 100.12 428.312 100.236C428.269 100.332 428.408 100.07 428.406 98.9034C428.473 100.81 428.892 101.002 428.807 100.963C428.772 100.898 428.501 100.52 428.145 100.126C427.412 99.3008 426.319 98.2886 425.143 97.306C422.757 95.3146 419.984 93.3336 417.163 91.4335C415.333 90.2139 415.025 89.7451 411.935 87.7917C408.523 85.6411 403.473 82.9142 398.778 80.2427C394.668 77.8909 388.613 74.3359 383.918 71.7955C382.869 71.2267 382.037 70.9352 381.917 70.8707C381.419 70.6016 381.304 70.42 381.036 70.2051L381.776 70.5532C381.663 70.4781 381.524 70.4 381.32 70.3144C380.47 69.9568 379.408 69.6923 378.429 69.289C374.796 67.7861 370.775 66.3352 370.298 66.1543C368.056 65.2969 367.63 64.9284 367.441 64.8553C364.942 63.9203 365.805 64.4339 365.191 64.2004C361.957 62.9839 359.783 61.7293 355.133 60.6377C355.311 60.5159 355.489 60.394 355.667 60.2721C352.238 59.0253 354.38 60.2225 353.647 60.0656C353.342 59.9841 345.904 57.515 345.315 57.3325C343.309 56.6674 343.318 56.4333 343.148 56.3763C342.73 56.2337 337.57 54.9069 335.009 53.9319C331.966 52.7696 335.766 53.4258 335.017 53.1096C334.885 53.0528 331.64 52.1319 331.23 51.8602C330.795 51.5667 333.61 52.4081 333.577 52.3305C333.574 52.2794 328.988 50.5835 329.947 50.6415C330.718 50.6356 336.966 52.796 338.345 53.117C338.57 53.1679 338.234 52.7838 338.432 52.8338C339.242 53.0039 353.73 57.5914 354.36 57.893C353.567 57.7593 352.781 57.6294 351.994 57.5009C352.979 57.8363 353.989 58.1828 354.968 58.5221C353.529 58.1462 352.08 57.7731 350.623 57.4031C352.418 59.0359 359.074 60.195 359.487 59.8131C359.673 59.6287 356.01 57.7492 359.712 58.6412C359.187 58.3981 358.665 58.1574 358.13 57.9129C356.973 57.6248 355.794 57.3333 354.645 57.0558C355.373 57.3625 356.115 57.6756 356.846 57.9868C356.548 57.9605 356.248 57.9337 355.946 57.9066C353.807 57.3096 351.63 56.7136 349.486 56.1407C348.397 55.7358 348.705 55.6176 347.964 55.3384C338.73 51.8952 344.659 54.4289 338.529 52.4401C337.686 52.0666 336.817 51.6869 335.981 51.3185C336.161 51.8533 333.506 50.7471 330.133 49.96C330.57 49.934 331.006 49.9076 331.439 49.8808C327.82 48.8651 321.547 46.6386 319.622 46.2417C318.996 46.1126 318.852 46.183 319.449 46.565C318.378 46.1885 317.281 45.8067 316.187 45.4269C315.225 45.2966 314.254 45.1646 313.272 45.0309C311.987 44.6574 310.701 44.2858 309.4 43.9116C309.413 43.84 309.427 43.7683 309.44 43.6967C310.477 43.9816 311.519 44.2692 312.541 44.5523C311.832 44.1259 311.116 43.6982 310.393 43.2693C309.605 43.09 308.857 42.9225 308.08 42.7475C311.212 43.8248 306.921 43 305.81 43.0009C303.098 42.3728 301.459 41.5382 300.562 41.2781C300.127 41.1509 294.949 40.4548 297.104 40.2715C294.484 39.6617 291.88 39.0612 289.281 38.466C288.281 38.1431 287.28 37.8206 286.289 37.5013C288.569 37.7474 282.315 35.6743 287.036 36.7703C290.574 37.5932 291.329 38.1262 293.006 38.5698C294.508 38.9679 295.336 38.9653 296.98 39.3956C305.249 41.5643 312.388 43.5311 319.782 45.6774C322.195 46.3784 324.589 47.086 327.103 47.8416C329.12 48.4481 331.011 48.8957 332.372 49.3151C333.913 49.7913 331.906 49.4759 333.881 49.9961C335.962 50.5461 336.474 50.4721 337.01 50.6294C337.343 50.7273 338.379 51.2491 339.35 51.5465C343.396 52.7763 349.371 54.4801 349.934 54.6677C350.591 54.851 361.863 58.8082 362.378 59.0571C362.661 59.1759 361.814 59.6521 364.56 59.7903C365.321 60.0441 366.125 60.3154 366.883 60.5731C366.711 60.6667 366.538 60.7603 366.365 60.8538C371.115 61.985 369.435 61.6957 373.829 63.3044C376.677 64.358 379.889 65.6111 383.246 66.9973L382.838 66.8052C391.51 71.3858 401.3 76.8534 408.931 81.3995C411.257 82.7877 412.26 83.1888 414.974 84.8851C417.56 86.4482 423.556 91.2482 422.6 89.713C427.478 94.015 428.881 93.9173 430.563 96.463C430.879 96.6432 431.177 96.8148 431.481 97.0057C432.038 97.8367 432.385 98.4195 432.597 98.8004C432.818 99.1566 432.829 99.4079 432.847 98.9394C432.886 99.7104 432.907 100.465 432.751 101.225C432.642 101.704 432.54 101.616 432.473 101.68C432.388 101.736 432.412 101.927 432.185 102.734C431.977 102.968 431.739 103.177 431.455 103.375C431.444 103.241 431.425 103.111 431.4 102.983C431.193 103.206 430.969 103.39 430.76 103.542C429.071 104.71 428.973 104.751 429.442 104.867C427.932 105.712 426.381 106.473 424.789 107.166C424.655 107.38 424.517 107.594 424.374 107.809C424.601 107.755 427.448 106.556 431.129 104.094C432.577 103.058 433.263 102.04 433.261 98.9427C433.276 99.2555 433.278 98.995 433.054 98.6286C432.835 98.2419 432.496 97.7757 432.067 97.2734C431.218 96.2788 430.135 95.258 429.001 94.2852C426.716 92.3294 424.178 90.504 421.858 88.9191C417.176 85.7367 413.206 83.398 411.782 82.5568C406.12 78.668 393.865 72.2384 388.976 69.5511C387.034 68.4704 386.306 67.7353 383.447 66.1758C383.376 66.1373 383.305 66.0987 383.233 66.06L383.569 66.2179C380.629 64.9744 376.911 63.7922 375.34 63.2011C370.061 61.0035 344.262 52.3011 361.919 57.8803C361.472 57.5698 361.018 57.2578 360.556 56.9441C353.421 55.0562 356.053 55.6156 350.248 53.6687C347.805 52.8497 341.856 51.3379 342.379 50.8051C346.998 52.1031 351.77 53.8581 355.72 55.1627C356.107 55.2865 360.879 56.5686 363.239 57.4871C365.363 58.3153 363.673 58.3773 368.59 59.3881C371.807 61.3 374.021 61.4724 374.952 61.7551C376.57 62.2507 376.615 62.6376 378.163 63.2878C379.845 63.9978 381.104 64.2623 381.333 64.3528C381.82 64.5487 382.756 64.9262 383.907 65.4005L383.647 65.2784C387.832 67.4745 395.083 71.4444 395.443 71.7797C394.95 71.5764 394.454 71.3729 393.968 71.1753C396.908 72.9086 396.45 72.2581 397.249 72.6529C397.835 72.9811 398.421 73.3103 398.999 73.6366C398.734 73.5713 398.468 73.5058 398.201 73.4402C401.696 75.3929 399.17 73.657 404.111 76.4969C407.249 78.3084 410.304 80.4732 410.613 80.6379C410.704 80.6861 409.834 79.9401 411.099 80.6757C413.215 81.8984 416.77 84.151 417.013 84.6205C418.025 85.2302 418.085 84.9738 418.219 85.0535C418.875 85.3391 428.607 92.0409 429.962 93.5063C431.039 94.4434 432.092 95.4438 432.977 96.4936C433.864 97.4787 434.516 98.8445 434.426 98.9522C434.434 101.845 433.745 103.666 431.844 104.99C431.814 105.011 431.787 105.028 431.763 105.043C431.382 105.275 431.559 104.995 431.066 105.323C430.27 105.936 425.82 108.669 425.073 108.976C423.35 109.907 418.435 111.711 417.668 112.02C417.563 112.068 419.272 111.694 417.383 112.431C415.266 113.231 416.331 112.558 416.209 112.598C411.838 113.932 409.086 114.84 406.023 115.631C405.046 115.881 403.166 116.088 401.748 116.455C401.589 116.496 401.954 116.626 401.794 116.67C399.703 117.227 397.596 117.245 396.674 117.391C394.393 117.749 395.675 117.796 395.56 117.82C394.033 118.105 391.996 118.353 389.651 118.73C386.718 119.202 383.931 119.599 381.153 119.957C374.221 120.853 367.578 121.547 359.614 122.128C358.215 122.231 356.516 122.151 356.319 122.164C355.665 122.209 355.867 122.429 353.945 122.548C349.911 122.792 346.155 123.003 342.145 123.182C341.338 123.218 340.957 123.021 340.361 123.042C338.282 123.127 331.293 123.938 331.122 123.242C327.047 123.991 324.307 123.532 320.998 123.617C313.659 123.811 302.405 124.075 294.55 124.063C294.054 124.063 293.57 124.062 293.099 124.06C291.463 124.051 290.679 123.876 289.752 123.87C288.154 123.864 278.716 123.973 278.245 123.941C277.287 123.886 277.865 123.104 272.902 123.778C270.007 123.819 270.341 123.497 269.739 123.478C265.067 123.333 260.492 124.024 261.353 123.37C255.882 123.517 252.351 123.852 250.138 123.217C250.169 123.518 247.59 123.677 244.506 123.532C247.668 123.056 247.286 122.734 254.944 122.886C255.064 122.888 254.833 123.104 254.953 123.106C256.043 123.129 258.321 123.035 260.191 123.058C262.052 123.081 261.018 123.223 261.761 123.225C262.443 123.226 262.415 123.017 263.405 123.02C266.634 123.028 269.44 122.981 271.279 122.983C272.432 122.984 273.693 123.17 274.595 123.171C278.052 123.178 285.363 123.034 289.719 123.034C290.643 123.035 290.264 123.243 292.265 123.25C292.473 123.251 293.175 123.077 294.543 123.001C294.714 122.991 294.895 122.984 295.086 122.978C296.859 122.922 298.201 123.017 299.306 122.985C300.258 122.958 299.868 122.772 301.795 122.741C303.4 122.743 321.558 122.57 322.545 122.545C323.951 122.553 324.634 122.802 325.508 122.745C325.661 122.734 325.913 122.469 326.437 122.436C335.09 121.931 354.37 121.425 364.204 120.509C369.913 120.026 375.468 119.416 380.996 118.702C395.276 116.779 409.359 114.38 422.668 108.702C422.976 108.518 423.272 108.336 423.581 108.146C421.752 108.98 419.889 109.727 417.976 110.418C417.922 110.308 417.869 110.199 417.816 110.089C415.232 110.985 415.638 111.121 415.772 111.266C414.794 111.514 413.792 111.755 412.779 111.983C412.07 112.682 405.347 114.213 401.83 114.923C399.573 115.415 396.841 116.1 395.649 116.302C393.066 116.74 393.106 116.457 392.898 116.49C392.528 116.551 389.019 117.364 386.387 117.726C383.899 118.071 382.836 118.036 380.939 118.248C379.922 118.36 378.647 118.547 376.782 118.886C369.969 119.478 362.408 120.255 355.028 120.771C356.406 120.313 349.808 121.089 346.81 121.228C330.826 122.042 311.584 122.29 294.539 122.261C292.153 122.257 289.696 122.249 287.405 122.237C285.002 122.226 283.205 122.009 281.874 122.017C281.15 122.022 280.835 122.279 279.821 122.245C279.642 122.238 279.519 121.998 277.664 121.96C273.007 121.871 261.429 122.221 258.499 121.736C242.596 121.704 226.694 121.582 210.791 121.398C210.394 121.294 209.995 121.189 209.597 121.084C206.567 121.54 194.63 121.035 188.803 120.94C178.557 120.782 165.49 120.641 156.487 120.425C154.532 120.378 152.958 120.195 151.093 120.148C150.297 120.128 149.308 120.286 148.49 120.264C140.064 120.048 128.917 119.556 120.004 119.204C119.061 119.167 118.157 119.133 117.295 119.101C98.1043 118.178 79.3378 118.147 61.2977 114.595C59.436 114.184 57.5821 113.779 55.7477 113.353C52.395 112.572 49.182 111.749 46.3526 110.585C34.8381 105.661 20.2108 100.371 16.1055 92.5403C14.3203 88.0875 14.0198 83.0353 15.3192 78.3784C16.9705 72.2011 21.5352 67.0888 27.4917 63.6542C40.7396 56.123 56.1418 51.486 71.4761 47.8158C88.388 43.7109 105.808 42.2425 123.413 41.4476C131.526 41.0903 139.702 40.8784 147.864 40.7276C148.823 40.7102 148.78 40.9235 149.525 40.9109C153.928 40.8322 163.759 40.5251 168.736 40.4943C172.702 40.4633 179.002 40.7497 180.363 40.4169C166.269 39.9975 151.38 40.1891 136.745 40.4623C135.702 40.4824 135.565 40.2849 135.437 40.2849C133.075 40.287 134.562 40.5161 131.144 40.6423C130.433 40.6677 126.267 40.5803 123.378 40.6698C121.484 40.7268 120.176 40.848 120.678 41.0752C118.13 40.8579 100.341 42.0077 96.9764 42.602C95.9471 42.7447 96.6997 42.8507 96.4955 42.8835C95.6029 43.0283 95.1876 42.8139 94.3825 42.9052C92.2606 43.13 86.942 44.117 85.9323 44.2954C83.6014 44.636 76.6049 45.75 73.5725 46.5176C72.3605 46.8107 71.7867 47.0103 71.3287 47.1856C70.7222 47.4176 70.3196 47.6069 68.9605 47.9509C67.0594 48.4409 69.081 47.6857 64.8268 48.6995C62.7042 49.182 55.4986 51.4074 53.753 51.9885C52.0084 52.5345 50.0222 53.0039 47.641 53.8468C44.1938 55.0183 36.916 58.0124 33.6809 59.67C33.4856 59.7657 33.1022 60.1843 32.6201 60.4153C31.63 60.893 31.8046 60.5135 31.0514 60.8646C30.7949 60.9882 29.1534 61.8058 27.1084 62.9957C23.1033 65.1117 18.7513 69.7064 18.0327 70.9679C17.1442 72.2026 16.7755 73.1916 16.3927 73.9196C16.0972 74.4964 15.8696 74.4633 15.5926 75.0718C15.5152 75.2438 15.0595 76.6677 14.6693 78.1986C14.6315 78.3439 14.5938 78.489 14.5565 78.6332C13.8928 80.2003 13.5282 86.5131 13.8328 87.2454C13.9013 87.7189 13.9582 87.1852 14.1946 88.568C14.4305 89.8238 14.4741 90.6894 14.6922 91.3927C14.8477 91.8865 15.0415 92.3875 15.2606 92.8782C15.6522 93.7346 16.3215 94.6204 17.0707 95.4914C20.4944 99.039 20.631 98.9186 20.7777 99.1529C21.501 99.707 21.9438 99.7223 22.196 99.888C23.2487 100.603 26.0378 102.194 27.0986 102.737C28.4041 103.426 28.8641 103.908 30.2881 104.616C31.3532 105.145 33.6061 105.988 36.1188 107.092C39.1877 108.444 42.6392 109.869 46.0719 111.267C48.6466 112.318 51.4694 113.07 54.1311 113.721C55.8729 114.141 56.1089 114.392 56.6467 114.521C58.7218 115.012 60.1734 115.212 61.1291 115.36C61.4732 115.412 61.7578 115.458 61.9701 115.504C67.5152 116.855 77.9879 118.123 83.5644 118.534C85.7853 118.725 95.7032 119.161 101.304 119.44C101.954 119.474 101.352 119.601 102.056 119.61C103.734 119.63 103.604 119.306 104.477 119.355C104.921 119.381 105.821 119.6 107.044 119.671C112.925 120.011 117.043 120.048 119.969 120.146C120.18 120.153 120.385 120.16 120.583 120.168C148.231 121.238 176.506 121.95 202.372 122.438C205.263 122.491 208.838 122.363 213.191 122.614C213.323 122.715 213.456 122.816 213.588 122.917C213.742 122.822 213.896 122.727 214.05 122.633C218.986 122.656 220.847 122.558 225.887 122.75C226.321 122.766 227.637 123.234 228.464 122.685C233.454 123.154 230.719 122.711 234.419 122.718C238.131 122.723 241.729 122.887 245.313 122.949C247.284 123.169 239.006 123.549 238.478 123.54C237.612 123.529 236.714 123.241 235.878 123.216C233.395 123.144 231.012 123.335 230.457 123.08C227.253 123.302 231.24 123.221 230.836 123.452C228.699 123.328 226.57 123.202 224.436 123.075C223.335 123.868 211.559 122.643 212.369 123.265C211.433 123.128 210.498 122.99 209.561 122.852C205.434 123.553 203.021 122.972 197.541 122.643C197.935 122.749 198.332 122.854 198.725 122.96C198.611 122.999 193.761 123.067 195.501 122.68C190.541 123.138 190.744 122.224 186.294 122.799C183.641 122.83 185.237 122.478 180.514 122.386C177.696 122.33 174.22 122.455 171.085 122.398C170.365 122.384 170.063 122.154 169.42 122.139C168.773 122.124 168.452 122.335 167.672 122.322C166.055 122.296 164.01 122.094 162.984 122.083C162.079 122.074 160.781 122.235 158.631 122.212C151.029 122.125 153.355 121.907 152.147 121.782C150.853 121.649 149.932 121.987 147.374 121.875C147.114 121.863 147.791 121.656 146.948 121.641C146.271 121.629 145.914 121.866 143.698 121.849C142.791 121.847 129.007 121.481 126.903 121.407C125.272 121.356 122.547 121.21 119.936 121.063C117.331 120.919 114.829 120.773 113.195 120.709C111.962 120.66 110.504 120.798 109.176 120.741C104.675 120.55 97.4466 120.201 91.724 119.857C86.5746 119.571 77.6468 118.466 74.8309 118.553C67.6755 117.877 66.1091 117.142 65.5803 117.073C64.1719 116.816 63.5014 116.919 61.7127 116.549C61.4497 116.494 61.1727 116.435 60.905 116.378C55.8816 115.264 50.4834 114.267 45.6431 112.309C34.3229 107.356 19.3199 102.395 14.448 93.2033C12.4351 88.1444 12.3089 82.6229 13.6421 77.9144C14.0283 76.5184 14.5363 75.1904 15.1397 73.9474C17.5119 69.0157 21.6893 65.0301 26.6264 62.1677C40.1461 54.4992 55.625 49.8614 71.088 46.1569C88.1146 42.0253 105.673 40.5402 123.336 39.737C136.541 39.1579 149.815 38.9267 163.073 38.7893C163.214 38.689 163.356 38.5887 163.497 38.4884C157.206 38.4952 149.817 38.4403 143.608 38.5437C137.639 38.6391 129.602 39.0792 123.313 39.2292C120.854 39.2864 118.708 39.2943 116.988 39.2026C119.219 39.0202 122.693 39.0633 123.295 38.8206C123.355 38.7951 123.384 38.7663 123.375 38.7336C123.347 38.7347 123.319 38.7358 123.291 38.7369C118.905 38.909 114.56 39.1259 110.196 39.4124C110.338 39.5629 110.479 39.7135 110.621 39.8641C106.058 40.232 101.39 40.6025 96.8338 41.1374C96.0469 41.2302 96.6193 41.3114 95.9286 41.3915C95.1585 41.4818 95.6634 41.2739 95.5191 41.2896C93.57 41.5185 93.0097 41.747 92.7678 41.7747C92.1546 41.849 92.6232 41.6399 90.8549 41.8383C87.6013 42.2076 85.3405 42.9739 86.0019 42.2255C84.9523 42.3928 83.9077 42.5675 82.8674 42.75C82.625 42.9669 82.3851 43.1839 82.1476 43.401C76.662 43.8069 73.9027 45.238 70.9571 45.597C70.3891 45.6688 69.8184 45.7027 69.2243 45.6865C68.0986 46.1084 66.9912 46.5333 65.8652 46.971C65.1755 46.9687 64.4859 46.969 63.79 46.9736C63.7008 47.1493 63.6121 47.325 63.5239 47.5006C57.3098 49.0192 50.8366 51.1768 45.1099 53.2425C41.1265 54.6985 40.1605 55.0236 36.7213 56.497C29.1595 59.956 36.5139 56.1967 30.1544 58.9266C30.5565 58.9248 30.9543 58.9275 31.3615 58.9276C30.3677 59.4932 29.3837 60.0757 28.4203 60.6735C27.683 60.9094 26.9251 61.169 26.1954 61.4273C26.1783 61.4333 26.1613 61.4394 26.1442 61.4455C23.5923 63.8248 21.6401 64.7467 21.2662 65.0471C21.012 65.3235 20.2077 66.3241 17.4222 69.0934C18.8962 68.2031 15.6304 71.4621 15.5132 71.8564C15.2756 72.112 13.5314 75.8811 13.1268 77.7719C13.1055 77.8497 13.0854 77.9236 13.0666 77.9932C12.6584 79.3595 12.0307 82.3642 12.0975 84.5069C12.1461 86.3908 12.3994 86.1789 12.4003 86.3148C12.6631 88.5969 12.323 87.1905 12.5816 88.8399C12.8812 90.4934 13.4658 91.6727 13.5599 92.0138C13.6094 92.1877 13.2256 91.676 13.475 92.4691C13.5729 92.7719 13.6915 93.1014 13.8314 93.4499C14.5065 95.3314 16.7917 97.6569 18.5268 99.0381C19.234 99.6268 20.063 100.457 20.9323 101.057C22.2635 101.969 23.0351 102.165 23.8425 102.658C24.1175 102.827 25.7633 104.205 28.1572 105.364C28.6145 105.586 30.2507 105.597 31.5981 107.38C31.7982 107.313 31.9984 107.246 32.1987 107.178C39.6818 110.256 42.0052 112.115 45.3989 112.903C45.7475 112.977 46.1115 113.033 46.4944 113.067C52.3855 115.176 48.198 114.199 48.8227 114.484C49.2368 114.664 51.2848 115.121 51.5097 115.18C51.9005 115.296 51.8015 115.406 52.2367 115.517C60.3192 117.429 56.8059 116.305 59.4161 116.742C59.8779 116.815 60.3305 116.893 60.7734 116.975C65.9635 117.872 69.1401 119.093 60.71 117.263C60.3639 117.18 60.0043 117.093 59.623 117C59.6072 117.072 59.5914 117.144 59.5756 117.215C59.8908 117.276 60.2612 117.351 60.6718 117.436C63.6529 118.108 68.5714 118.894 66.5697 118.921C65.8744 118.931 63.1663 118.525 60.5555 117.964C56.2828 117.082 52.3359 116.192 57.8374 117.701C58.8087 117.963 59.5723 118.09 60.483 118.293C61.4655 118.511 62.6173 118.824 64.4128 119.421C66.7566 119.851 67.2048 119.251 70.3638 119.924C69.853 119.626 69.3742 119.329 68.8729 119.026C73.246 119.313 78.6348 120.174 82.031 120.296C83.2066 120.344 87.3999 119.508 86.3641 120.555C88.2996 120.629 97.4205 121.344 99.1404 121.317C99.536 121.31 100.113 120.756 106.009 121.227C106.413 121.319 106.82 121.412 107.232 121.504C101.824 121.484 111.367 122.118 108.752 122.568C107.863 122.279 103.586 121.935 102.895 121.774C101.731 121.5 105.248 121.384 100.775 121.249C97.9019 122.055 105.994 122.003 104.739 122.836C110.646 122.68 111.204 123.092 112.534 123.163C115.31 123.307 117.564 123.386 119.849 123.466C122.123 123.546 124.45 123.629 127.177 123.773C128.16 123.67 122.998 123.316 119.86 123.149C118.735 123.091 117.869 123.056 117.561 123.065C122.037 122.579 114.377 122.27 111.163 122.522C110.897 122.314 110.633 122.107 110.37 121.899C113.599 122.114 116.672 122.283 119.89 122.347C120.842 122.366 121.812 122.374 122.801 122.371C123.071 122.454 123.343 122.537 123.616 122.62C122.664 122.697 121.726 122.775 120.802 122.853C124.223 123.155 122.238 122.513 126.777 123.17C126.928 122.953 127.079 122.737 127.23 122.521C131.625 122.741 136.072 122.952 140.459 123.154C142.807 122.781 151.254 123.179 149.689 123.71C153.116 123.843 148.885 123.424 152.112 123.37C153.538 123.347 156.228 123.4 156.914 123.572C156.596 124.111 152.541 124.074 151.268 124.415C152.024 124.566 171.037 124.642 169.348 125.236C170.862 125.348 170.165 125.002 172.907 124.98C180.591 124.92 192.475 125.809 198.671 125.101C191.413 124.513 189.272 124.952 183.697 124.857C180.134 124.808 158.502 124.38 163.337 123.913C162.534 123.967 161.734 124.021 160.938 124.074C160.139 123.882 159.343 123.69 158.552 123.498C160.787 123.53 163.096 123.561 165.342 123.59C165.876 123.775 166.412 123.959 166.949 124.144C167.202 124.027 167.455 123.91 167.708 123.794C168.664 123.792 169.632 123.79 170.576 123.787C170.306 123.928 170.036 124.07 169.767 124.211C171.226 124.27 172.695 124.328 174.172 124.386C173.778 124.181 173.386 123.975 172.993 123.769C179.927 123.873 177.568 123.944 181.412 124.394C184.273 124.492 179.438 124.013 185.509 124.042C192.561 124.07 187.937 124.584 197.068 124.627C197.202 124.531 197.335 124.435 197.469 124.339C199.482 124.475 201.48 124.608 203.492 124.741C203.228 124.615 202.964 124.488 202.701 124.361C206.849 124.481 212.568 124.34 213.934 124.84C209.735 124.543 209.763 125.38 210.853 125.551C213.103 125.926 246.458 126.065 252.917 126.063C261.185 126.1 267.425 126.399 274.977 126.002C269.854 125.668 251.878 125.834 248.47 125.561C248.131 125.535 248.237 124.769 246.049 125.612C239.061 125.4 230.695 125.549 221.96 125.401C222.23 125.184 222.5 124.966 222.77 124.749C228.135 125.294 233.119 124.321 232.408 125.171C233.476 125.184 234.542 125.197 235.615 125.209C235.616 125.061 235.618 124.914 235.62 124.766C237.234 124.784 238.84 124.802 240.45 124.819C240.448 124.967 240.447 125.115 240.445 125.262C241.784 125.277 243.12 125.29 244.452 125.303C244.592 125.157 244.732 125.011 244.872 124.865C248.877 125.216 262.479 124.491 256.497 125.329C258.363 125.342 260.265 125.354 262.128 125.365C262.122 125.257 262.117 125.148 262.111 125.04C262.91 125.03 263.723 125.02 264.534 125.009C264.266 125.106 263.999 125.202 263.731 125.299C267.44 125.143 270.946 125.669 273.36 125.336C271.772 125.259 270.166 125.18 268.553 125.1C271.648 125.253 277.292 124.971 277.797 124.97C279.323 124.97 280.154 125.188 281.828 125.199C283.336 125.207 283.125 125.039 283.406 125.045C291.562 125.199 288.428 126.113 292.249 125.021C292.653 125.166 293.057 125.311 293.458 125.456C293.826 125.369 294.192 125.283 294.557 125.196C294.727 125.157 294.897 125.118 295.066 125.078C297.501 125.074 299.869 125.066 302.285 125.052C301.486 124.877 300.68 124.701 299.866 124.525C303.49 124.409 305.146 124.755 305.508 124.759C306.499 124.768 306.941 124.531 307.243 124.526C321.923 124.312 313.005 124.662 320.343 125.382C322.984 124.979 320.275 124.701 319.924 124.362C323.418 124.443 324.502 124.32 328.147 124.233C329.117 124.209 330.145 124.364 330.738 124.347C331.228 124.334 332.91 124.079 334.131 124.034C336.23 123.957 339 123.968 341.853 123.836C344.217 123.732 351.475 123.225 356.516 122.869C358.687 122.718 358.187 122.918 358.74 122.879C358.967 122.863 360.631 122.541 362.022 122.429C368.369 121.924 374.813 121.3 381.224 120.524C386.196 119.928 391.075 119.228 395.946 118.341C403.757 116.91 411.627 114.915 419.027 112.229C420.604 111.646 419.823 112.092 420.501 111.839C420.736 111.741 420.935 111.429 423.348 110.506C424.212 110.166 423.312 110.759 424.142 110.399C424.554 110.208 424.66 109.962 426.938 108.757C429.403 107.427 431.152 106.396 432.242 105.76C432.869 105.398 433.194 105.138 433.293 105.043C433.73 104.574 433.486 104.596 433.96 103.948C434.913 102.554 435.153 100.859 435.146 98.958C435.168 97.9008 433.256 95.567 431.48 93.9498C430.232 92.2679 417.849 83.7213 417.082 83.3586C415.552 82.2982 417.209 82.887 415.198 81.6384C414.577 81.3657 413.951 81.0927 413.338 80.8306C414.183 81.4375 415.079 82.0829 415.914 82.6982C413.511 81.0313 410.592 79.4728 408.732 78.3631C408.393 78.1555 405.286 76.1274 403.658 75.2199C404.394 75.559 405.1 75.8825 405.843 76.2307C405.629 76.0349 405.406 75.8335 405.198 75.6418C401.895 73.8377 398.424 71.8834 395.044 70.0074C393.831 69.3358 394.317 69.4302 393.075 68.7453C387.51 65.6909 387.158 65.9361 384.321 64.0073L384.456 64.071C383.577 63.589 382.449 62.9364 380.87 62.014C381.636 62.3564 383.038 62.9302 384.653 63.5952L384.562 63.5524C387.964 65.343 392.327 67.6377 393.156 68.1237C394.024 68.625 396.886 71.3381 396.149 69.7682C403.055 73.6205 396.787 70.7452 403.262 74.272C403.194 74.0898 403.129 73.9092 403.064 73.7291C405.348 74.9433 407.019 75.8462 408.249 76.8248C409.019 76.5628 416.345 81.344 420.337 83.9767C425.97 87.8043 433.177 92.0221 436.307 97.7131C436.501 98.1856 436.576 98.6319 436.551 98.9694C436.481 100.353 436.22 101.084 436.19 101.29C436.141 101.685 436.094 102.842 435.747 103.572C435.372 104.45 434.45 105.789 432.909 106.757C429.533 109.005 424.991 111.089 423.602 112.084C426.912 110.665 430.099 108.995 433.071 107.001C435.764 105.329 436.888 102.131 436.795 98.9714C431.757 88.3494 418.757 82.7761 408.638 76.2004C410.633 77.6131 393.668 67.9957 392.775 67.5861C391.983 67.1405 392.75 67.332 392.518 67.1922C390.779 66.1496 389.123 65.5867 388.555 65.282C388.119 65.0481 387.315 64.4634 385.774 63.6472C385.491 63.497 385.345 63.5812 385.039 63.4194C384.933 63.3633 384.828 63.3072 384.722 63.2511L384.784 63.2801C382.805 62.4616 380.831 61.6635 378.817 60.8734C378.683 60.8193 378.238 60.4207 377.694 60.2091C377.151 59.9978 376.554 59.9913 376.414 59.9382C374.719 59.2812 371.83 58.0559 370.207 57.4643C369.634 57.2554 369.981 57.5441 369.351 57.3135C367.391 56.6018 368.149 56.5542 365.708 55.7701C364.883 55.5072 364.869 55.7426 363.322 55.1722C362.224 54.7687 362.485 54.4287 362.313 54.3537C362.069 54.2471 358.179 53.262 357.001 52.5931C359.962 52.8382 354.017 51.5623 354.215 51.9461C352.716 51.376 351.22 50.8134 349.738 50.2606C349.201 50.1678 348.646 50.0701 348.11 49.9791C342.086 47.7196 338.274 46.7741 332.239 44.8768C331.954 44.7834 326.883 43.1284 327.14 43.0957C330.272 43.8129 333.316 44.704 335.179 45.6125C338.589 45.9674 338.496 46.4634 343.697 47.9796C345.461 48.4971 345.619 48.3663 345.82 48.4266C352.606 50.4344 363.355 53.9649 367.669 56.0792C368.972 56.3966 364.471 54.7393 366.261 55.2667C367.288 55.3756 390.173 64.1953 382.658 61.8627C383.425 62.1561 384.18 62.4477 384.931 62.7404C384.956 62.7349 384.983 62.7307 385.012 62.7278L385.002 62.7231C386.093 62.7288 389.383 64.64 388.74 64.9057C389.131 64.9876 389.522 65.0693 389.911 65.1506C390.614 65.4207 391.436 65.8062 392.551 66.3772C396.913 68.3739 421.495 83.061 422.59 84.1515C422.691 84.0622 422.793 83.973 422.894 83.8839C412.451 76.7069 401.57 70.9993 389.632 64.1276C389.927 64.4251 390.22 64.7221 390.512 65.0186C388.802 64.0267 387.09 63.0419 385.357 62.0532C385.346 62.0472 385.313 62.0322 385.302 62.0272C382.096 60.5823 378.854 59.1791 375.609 57.8285C378.38 58.7609 381.974 60.0603 385.529 61.4773C385.551 61.4869 385.615 61.5159 385.636 61.5275C389.007 63.2565 392.372 65.0704 394.991 66.6086C395.93 67.1599 395.148 66.9267 395.357 67.0649C395.901 67.425 396.66 67.5002 398.724 68.6126C400.796 69.7204 405.811 72.8195 406.274 73.0893C407.178 73.5957 409.789 74.7264 411.3 75.636C413.308 76.8443 411.852 76.2181 412.253 76.4635C413.893 77.4736 415.422 78.2902 416.716 79.1174C418.622 80.3195 422.345 83.1918 423.942 83.6453C422.621 82.7114 421.3 81.8071 419.94 80.8987C427.231 85.8483 433.127 88.9855 438.473 97.3381C440.082 99.6169 436.372 90.6636 439.566 98.4061C439.324 96.5441 438.528 95.3866 437.806 94.3426C437.51 94.1637 437.237 94.0306 436.952 93.8929C435.727 92.2014 434.345 90.7753 432.942 89.4236C433.299 89.8954 433.604 90.3313 433.945 90.8151C428.755 86.2173 423.012 82.7644 421.424 80.896C421.221 80.9539 421.019 81.0119 420.816 81.0698C415.723 77.4828 407.338 73.3917 409.295 73.5089C409.021 73.4025 408.745 73.2957 408.468 73.1886C405.316 71.1474 406.527 72.2773 405.282 71.6076C404.933 71.4073 398.702 67.6841 401.633 69.0304C395.545 65.4003 397.044 67.2001 395.322 66.2899C391.543 63.7397 384.061 60.4719 387.391 61.5063C386.948 61.2497 386.503 60.9925 386.056 60.7346C386.02 60.7147 385.909 60.6645 385.872 60.6481C385.725 60.5811 385.577 60.5137 385.429 60.4461C383.179 60.0715 381.363 58.7191 379.188 57.663C378.421 57.3515 377.677 57.0516 376.911 56.7462C376.348 56.7146 375.76 56.6751 375.195 56.6454C368.286 53.199 369.8 56.1638 367.134 53.2087C367.674 53.2807 368.246 53.3652 368.793 53.442C370.025 53.8267 371.273 54.2229 372.504 54.6195C367.613 52.7648 362.687 51.0016 357.741 49.3042C351.605 46.7203 347.838 46.1227 340.924 43.5695C340.255 43.4177 339.557 43.2582 338.899 43.1116C339.685 42.9057 342.232 43.7389 337.523 42.1188C337.206 41.7088 340.441 42.642 341.835 43.3117C342.172 43.4736 339.108 42.7778 342.473 43.8156C344.781 44.5353 340.71 42.8871 347.546 45.1586C347.307 45.0064 347.082 44.8586 346.85 44.7092C347.579 44.9396 348.352 45.1851 349.086 45.4199C349.684 45.7874 350.314 46.1663 350.92 46.5387C352.68 46.8463 353.763 46.8249 357.617 48.176C356.537 47.9311 357.832 48.7157 359.77 49.3612C359.809 49.2446 359.849 49.128 359.888 49.0113C364.545 50.5067 362.83 50.302 366.775 51.3801C367.131 51.609 367.482 51.8369 367.829 52.0638C370.066 52.4052 377.841 55.0164 376.221 55.0616C378.593 55.3228 382.984 57.3375 384.473 58.4594C384.648 58.3985 384.822 58.3375 384.995 58.2763C385.521 58.4748 386.076 58.6867 386.6 58.8874C386.671 58.9184 386.881 59.0135 386.948 59.0511C387.292 59.2219 387.634 59.3924 387.975 59.5626C388.41 59.8774 388.842 60.1915 389.272 60.5049C389.891 60.7518 390.535 61.0126 391.161 61.2652C391.462 61.5658 391.761 61.8659 392.058 62.1655C393.076 62.5471 394.113 62.9418 395.125 63.3256C395.654 63.7251 396.202 64.1362 396.734 64.5394C396.908 64.3356 402.703 67.479 404.212 68.5403C404.727 68.7467 405.239 68.9521 405.747 69.1565C405.914 69.3923 406.094 69.6357 406.266 69.8748C406.671 69.9946 407.074 70.1139 407.475 70.2327C408.229 70.7796 409.013 71.3475 409.769 71.9033C413.388 73.3367 413.216 73.8615 413.975 74.3106C415.371 75.1269 420.297 77.755 421.067 78.2916C421.831 78.807 422.113 79.2465 422.722 79.6708C432.847 86.9727 428.902 83.7188 431.028 85.1164C432.149 85.9173 432.798 86.694 433.77 87.4853C434.384 87.9955 435.912 89.2084 437.597 90.9431C439.185 92.7618 441.459 94.739 441.705 99.0112C441.727 100.29 441.615 101.391 441.582 101.583C441.35 102.709 440.96 99.9281 440.434 103.605C440.682 103.714 440.059 105.828 439.064 107.267C438.104 108.681 437.263 109.568 438.918 108.196C437.995 109.349 436.889 110.291 435.756 111.018C434.43 111.859 433.029 112.672 431.636 113.403C432.194 113.778 429.187 115.045 426.046 116.437C421.622 118.604 411.395 121.962 411.608 121.207C410.566 121.635 409.481 122.06 408.425 122.465C400.841 124.121 393.469 125.6 385.948 126.648C384.631 126.831 383.389 126.994 382.054 127.162C360.87 129.906 338.158 130.632 317.297 130.965C316.208 130.981 316.384 130.776 315.62 130.786C311.593 130.851 301.144 131.131 295.506 131.115C295.173 131.115 294.87 131.108 294.593 131.097C293.396 131.049 292.723 130.92 292.256 130.915C290.31 130.892 290.767 131.148 289.863 131.145C288.481 131.141 281.005 130.915 278.432 130.886C277.17 130.872 275.664 131.076 274.158 131.009C274.029 131.004 274.268 130.793 274.159 130.789C271.464 130.757 273.085 130.943 272.171 130.932C265.623 130.846 258.625 130.802 251.524 130.701C249.774 130.676 247.069 130.503 245.554 130.474C244.979 130.464 246.01 130.634 244.02 130.601C243.338 130.59 243.107 130.379 242.335 130.358C238.998 130.267 237.9 130.925 235.041 130.353C229.532 130.326 219.932 130.367 214.903 130.292C213.713 130.275 213.136 130.142 212.002 130.126C211.198 130.115 209.779 130.284 208.523 130.265C207.266 130.247 205.295 130.032 202.876 129.997C200.332 129.959 197.176 130.01 196.599 129.998C195.907 129.986 195.589 129.75 194.897 129.74C192.812 129.709 187.21 129.826 184.504 129.794C181.608 129.761 179.877 129.612 178.882 129.593C177.963 129.576 176.892 129.747 176.475 129.74C175.825 129.728 175.682 129.499 174.853 129.482C173.494 129.456 172.092 129.567 170.077 129.524C153.136 129.165 136.338 128.705 119.682 128.07C100.35 127.142 81.4434 126.975 61.9054 123.593C61.0028 123.409 60.195 123.24 59.4287 123.08C56.7957 122.519 54.4867 122.159 49.9311 120.926C47.5393 120.241 48.617 120.304 46.7275 119.772C45.8823 119.52 46.0367 119.769 44.9651 119.404C44.3282 119.182 43.6777 118.936 43.027 118.667C39.2434 117.106 35.3493 115.307 33.7506 114.599C33.02 114.277 32.099 114.101 30.5917 113.412C23.3351 109.589 13.7507 106.89 7.96983 95.7943C6.07808 91.0433 5.41328 85.901 5.93868 81.0039C6.10206 79.4606 6.39772 77.7822 6.87052 76.0411C8.62231 68.6861 14.8206 61.1532 20.7607 57.4292C21.5108 56.9276 22.2615 56.4594 23.039 56.0052C37.7017 47.6675 54.1765 42.916 69.4762 39.2662C74.3334 38.1266 79.1376 37.1553 83.7661 36.3871C96.8656 34.214 109.972 33.2371 123.017 32.6115C140.005 31.8401 156.934 31.6176 173.873 31.6119C159.867 31.2081 140.783 31.4932 125.126 32.0912C124.41 32.1185 123.7 32.1467 122.997 32.1759C105.496 32.9206 87.2514 34.391 69.3538 38.7426C53.5194 42.5704 37.6452 47.2333 22.8214 55.6313C15.3954 59.8624 8.71543 67.044 6.36745 75.9019C5.09352 80.4791 4.8793 85.38 5.74204 90.0286C6.1075 92.0138 6.66577 94.0117 7.45875 95.9987C16.1177 110.945 30.8164 113.493 42.7689 119.294C45.9657 120.62 49.0993 121.469 52.0385 122.208C52.8402 122.409 54.5225 122.637 56.2144 123.031C56.4082 123.076 57.7967 123.474 59.2534 123.876C60.4943 124.221 61.871 124.563 62.5882 124.698C61.187 123.929 67.3093 125.481 69.2015 125.649C71.6121 125.945 76.5623 126.193 82.0501 126.737C87.0412 127.227 85.6383 127.319 85.9158 127.354C87.69 127.551 88.2892 127.264 89.6667 127.315C93.4926 127.479 108.3 128.272 119.658 128.714C124.599 128.915 128.924 129.076 131.309 129.155C133.372 129.224 133.406 129.43 133.862 129.445C135.053 129.483 136.837 129.335 138.759 129.393C142.267 129.501 146.294 129.807 148.242 129.861C152.858 129.991 161.628 129.987 167.626 130.121C169.32 130.16 169.22 130.371 169.976 130.387C173.33 130.463 182.102 130.401 186.283 130.481C193.061 130.614 200.037 130.881 206.935 130.926C207.37 131.029 207.806 131.131 208.241 131.234C208.933 131.145 209.624 131.056 210.316 130.967C221.972 131.231 233.855 131.173 245.443 131.297C246.788 131.313 253.391 131.551 254.503 131.558C255.422 131.565 256.321 131.336 257.678 131.38C259.593 131.44 257.794 131.879 260.91 131.769C261.745 131.739 260.939 131.542 262.612 131.491C263.177 131.478 273.964 131.441 274.531 131.451C275.506 131.475 276.368 131.889 276.618 131.898C277.914 131.946 277.857 131.629 278.721 131.601C281.303 131.516 284.63 131.724 285.056 131.718C287.541 131.685 291.067 131.599 294.596 131.526C298.371 131.449 302.127 131.384 304.837 131.428C305.577 131.439 305.49 131.676 305.62 131.682C306.454 131.72 306.963 131.445 307.743 131.429C312.008 131.342 318.656 131.399 322.941 131.334C323.436 131.326 324.444 131.172 325.347 131.16C330.287 131.093 328.727 131.341 328.998 131.343C329.689 131.344 330.806 131.081 332.625 131.005C337.23 130.82 346.016 130.472 350.977 130.19C354.674 129.986 354.627 130.242 354.867 130.233C355.407 130.207 356.819 129.909 359.255 129.709C363.936 129.313 363.426 129.546 365.355 129.377C365.517 129.362 365.213 129.19 367.355 128.978C370.679 128.657 377.357 128.074 382.097 127.51C383.282 127.372 384.325 127.241 385.177 127.124C386.913 126.884 387.23 126.644 389.001 126.38C391.751 125.99 398.032 125.103 398.503 124.995C398.632 124.971 398.916 124.691 399.725 124.535C400.61 124.363 401.506 124.299 402.174 124.16C405.935 123.421 412.337 121.348 410.732 122.582C411.876 122.081 413.035 121.559 414.19 121.018C421.729 118.849 429.171 115.96 435.978 111.35C436.32 111.12 436.653 110.875 436.981 110.611C439.061 108.953 440.598 106.85 441.32 104.664C441.703 103.687 442.142 101.052 442.042 99.0139C441.938 96.1445 440.85 94.6975 440.177 93.6049C439.461 92.5538 438.894 91.932 438.639 91.6256C437.16 89.3407 427.909 82.3206 426.728 81.6268C424.468 80.0131 422.422 78.2961 421.439 77.7402C420.661 77.3034 421.266 77.9069 419.785 77.0285C417.248 75.5172 413.094 72.7431 412.33 72.3008C412.004 72.1125 412.531 72.5795 409.453 70.7908C407.771 69.8186 406.975 69.1811 406.355 68.8269C406.158 68.7176 406.337 69.105 403.032 67.1993C400.753 65.8905 399.874 65.1805 399.632 65.0449C399.27 64.8431 398.29 64.5427 396.845 63.7422C394.393 62.3814 390.513 60.139 387.316 58.3578C387.235 58.3129 386.984 58.1994 386.9 58.1623C385.611 57.5966 384.426 57.0911 383.47 56.7016C382.809 56.4346 382.936 56.753 380.29 55.6883C378.382 54.9263 378.806 54.8748 378.084 54.5877C376.964 54.1452 375.179 53.7321 372.675 52.8034C369.557 51.474 345.986 43.4329 344.745 43.0899C343.941 42.7938 342.972 42.4929 342.59 42.2601C342.975 42.2668 343.363 42.2748 343.747 42.2815C347.264 43.7595 345.939 42.9052 346.908 43.1775C348.317 43.5705 353.577 45.3048 354.863 45.6306C355.328 45.7466 354.372 45.1931 356.835 45.8779C359.497 46.6236 360.519 47.398 361.738 47.2265C365.249 49.0635 369.003 49.6994 364.779 48.043C362.442 46.9998 338.9 39.2847 334.071 37.9325C331.339 37.105 326.93 35.9004 322.871 34.7846C321.124 34.3039 319.388 33.8229 317.938 33.4048C315.108 32.5834 308.091 30.6332 308.483 30.4383C305.973 29.7169 308.564 30.7249 308.024 30.6201C306.879 30.3919 299.077 28.0809 297.576 27.6929C290.212 25.7664 280.84 23.655 273.786 21.4505C274.138 21.4602 274.488 21.4696 274.839 21.4792C276.502 21.7584 283.869 23.8893 284.827 23.7521C273.927 20.8999 263.023 18.1035 252.115 15.3324C252.239 15.692 238.705 12.263 238.107 11.9656C238.383 11.8747 238.658 11.7837 238.933 11.6928C246.435 14.1949 245.938 13.2658 250.973 14.9696C253.06 15.5057 252.492 15.0964 253.53 15.3099C263.897 17.4493 253.566 15.8607 261.469 17.6405C259.204 16.6766 265.655 18.1848 268.552 18.8822C269.2 19.0357 277.8 21.3547 278.809 21.6135C284.563 23.0706 294.454 25.4605 300.114 27.1919C304.589 28.4167 307.14 28.8325 311.229 29.8877C314.322 30.6883 313.397 30.6285 314.854 31.0329C317.887 31.8778 319.063 31.6181 320.805 32.9304C321.623 33.1208 322.433 33.31 323.236 33.4977C324.543 33.8057 325.796 34.1005 327.093 34.4101C327.059 34.5283 327.025 34.6466 326.991 34.7648C328.302 35.1415 329.578 35.5104 330.89 35.8927C331.307 35.8862 331.721 35.8794 332.133 35.8723C336.22 37.247 334.399 37.0231 335.069 37.5832C335.96 37.872 336.847 38.161 337.717 38.4463C338.479 38.3953 339.258 38.35 340.017 38.2999C343.978 39.5183 347.931 40.764 351.893 42.0512C352.112 42.25 352.33 42.4485 352.547 42.6467C352.593 42.5326 352.638 42.4184 352.684 42.3043C359.384 44.4252 366.088 46.6572 372.763 49.0596C374.617 49.5001 363.964 45.5546 363.153 45.3015C358.665 43.6665 346.56 40.0365 346.681 39.6364C343.757 39.0564 335.295 36.4269 332.754 35.2862C336.766 36.486 340.778 37.7125 344.782 38.97C344.695 38.79 344.608 38.6098 344.521 38.4296C349.348 40.5408 350.079 40.7341 355.378 41.8558C355.322 42.0443 355.266 42.2327 355.21 42.4212C358.999 42.9199 364.918 46.1572 365.387 45.4341C367.266 46.1538 369.128 46.8801 371.008 47.6269C375.127 49.06 369.027 45.9157 384.894 52.3539C385.989 52.8133 385.674 52.916 387.321 53.5719C387.478 53.6347 387.924 53.7772 388.616 54.0123C388.779 54.084 389.263 54.3031 389.419 54.39C390.728 54.9811 392.986 56.0323 396.186 57.7894C396.944 58.206 396.912 58.401 397.682 58.8471C399.482 59.8875 403.265 61.5628 401.335 61.1808C408.418 65.3271 405.693 63.255 408.006 64.3351C409.543 65.0632 409.085 65.2106 410.396 65.873C412.023 66.7125 411.049 65.6753 417.294 69.6038C416.58 69.2008 415.834 68.7823 415.128 68.3905C415.432 68.685 415.734 68.9783 416.047 69.2796C419.772 71.2524 419.232 71.3394 421.238 71.9389C423.721 73.7875 425.971 75.2341 429.549 77.6553C436.53 82.7237 433.278 78.9317 440.895 87.058C442.328 88.4479 443.843 89.8328 445.478 92.7925C446.272 94.6266 446.426 95.8611 446.473 96.4852C446.51 97.2035 446.537 97.5336 446.494 99.05C446.424 99.4929 446.426 100.238 446.194 102.131C446.648 99.8892 446.846 101.614 446.134 104.928C445.538 108.345 442.385 112.63 441.505 113.612C441.206 113.727 440.918 113.823 440.623 113.917C439.989 114.469 439.338 114.96 438.683 115.398C438.308 115.649 437.903 115.914 437.515 116.161C437.565 116.246 437.616 116.331 437.666 116.415C436.561 117.033 435.435 117.617 434.301 118.164C433.531 118.705 432.73 119.239 431.952 119.74C430.489 120.246 429.02 120.699 427.574 121.097C426.719 121.45 425.849 121.792 424.985 122.117C425.314 122.145 425.64 122.173 425.964 122.201C424.842 122.602 423.702 122.983 422.592 123.332C423.954 123.079 423.235 123.702 419.789 124.845C416.922 125.74 419.987 124.329 413.954 126.293C413.533 126.406 412.868 127.054 407.128 128.457C400.263 130.034 403.553 129.028 402.32 129.286C402.081 129.333 400.001 129.935 398.065 130.311C396.931 130.532 395.866 130.567 395.712 130.594C395.032 130.716 394.838 130.959 393.908 131.12C391.483 131.538 388.269 131.911 385.887 132.241C384.833 132.388 383.84 132.638 383.356 132.701C383.167 132.726 382.964 132.74 382.752 132.748C382.159 132.77 381.464 132.751 380.924 132.817C378.188 133.161 374.07 134.234 372.703 133.504C370.114 134.576 364.496 134.103 364.943 134.593C357.825 135.079 339.118 136.636 339.637 135.686C335.696 136.61 336.005 136.04 334.36 136.112C332.511 136.19 333.479 136.304 331.984 136.348C328.567 136.446 325.21 136.477 321.818 136.555C322.358 136.42 322.893 136.284 323.424 136.149C319.812 136.198 321.084 136.453 317.397 136.587C310.675 136.816 313.469 136.532 312.483 136.231C312.776 136.54 304.84 136.607 303.994 136.571C303.507 136.551 305.63 136.132 300.776 136.31C301.045 136.43 301.313 136.55 301.581 136.67C300.062 136.573 296.93 136.658 294.628 136.71C293.539 136.736 292.662 136.754 292.326 136.742C291.861 136.726 289.328 135.749 287.056 136.537C286.779 136.415 286.501 136.293 286.223 136.171C283.649 136.325 281.14 136.474 278.583 136.62C278.18 136.399 277.776 136.178 277.371 135.956C276.566 135.956 275.757 135.954 274.944 135.953C275.483 136.15 276.021 136.347 276.557 136.544C271.561 136.45 265.49 136.732 264.457 136.065C263.38 136.182 262.319 136.299 261.256 136.416C260.565 136.192 259.872 135.968 259.177 135.743C254.231 135.766 254.155 135.912 250.773 136.119C250.906 135.948 251.039 135.778 251.171 135.607C248.691 135.828 244.139 136.011 240.539 136.003C238.832 136 235.906 135.73 235.501 135.747C235.088 135.765 231.079 136.647 230.652 135.836C224.749 136.118 222.158 135.716 219.768 135.691C218.214 135.674 217.502 135.857 215.746 135.85C213.232 135.841 210.707 135.707 209.255 135.697C208.425 135.692 208.267 135.877 207.695 135.874C204.991 135.858 206.58 135.692 203.729 135.656C203.466 135.653 201.375 135.847 199.032 135.776C197.721 135.736 194.323 135.414 194.027 135.409C192.7 135.388 193.755 135.926 189.218 135.241C189.348 135.342 189.478 135.442 189.608 135.543C183.996 135.682 183.096 135.223 181.971 135.17C181.826 135.164 180.461 135.305 179.635 135.264C178.248 135.194 177.697 134.951 177.391 134.934C176.323 134.875 172.667 134.897 170.309 134.618C170.807 135.291 162.466 135.33 160.631 134.535C159.159 134.646 157.687 134.756 156.198 134.866C155.533 134.726 154.87 134.585 154.211 134.445C153.805 134.557 153.399 134.669 152.995 134.781C150.823 134.454 148.724 134.127 146.563 133.797C146.417 134.064 146.272 134.33 146.127 134.597C145.523 134.549 144.922 134.502 144.324 134.454C143.862 134.226 143.402 133.998 142.945 133.77C142.202 133.79 141.425 133.808 140.673 133.827C140.481 133.977 140.29 134.127 140.1 134.277C136.087 134.337 138.165 132.92 130.428 133.981C129.231 133.82 128.069 133.659 126.845 133.496C125.462 134.047 122.949 133.6 120.891 133.593C120.198 133.591 119.861 133.646 119.478 133.696C119.049 133.749 118.563 133.796 117.543 133.761C115.579 133.693 115.676 133.469 115.522 133.462C113.884 133.385 112.673 133.537 111.521 133.451C111.342 133.438 110.885 133.151 109.387 133.071C107.925 132.993 106.937 133.239 104.744 133.087C103.598 133.009 103.252 132.766 102.245 132.699C97.4113 132.378 92.4383 133.263 88.8492 131.678C88.052 131.809 81.9667 132.018 79.3832 131.768C75.364 131.383 76.9141 131.238 75.3309 131.049C75.0978 131.015 73.8524 131.014 70.4078 130.612C69.7772 130.537 69.9097 130.703 69.8192 130.695C67.0907 130.386 62.1971 129.624 58.2006 128.656C56.4963 128.261 54.8711 127.886 53.5327 127.574C53.1444 127.472 51.0915 127.486 47.6042 125.954C45.8477 125.604 43.5377 124.924 40.9139 123.802C36.4759 121.881 31.1422 119.337 26.6754 117.693C25.792 117.292 24.7957 116.639 24.4035 116.45C21.0251 114.706 22.0719 116.18 14.6591 110.711C15.1612 111.303 13.2198 110.39 10.5966 108.196C6.65382 104.569 9.74084 107.019 6.61262 103.611C6.51762 103.688 6.42262 103.766 6.32762 103.843C4.82221 101.886 3.662 99.868 2.857 97.8393C1.00005 92.601 -0.201858 89.8321 0.0281382 82.0589C0.152717 79.6301 0.852584 76.4908 1.49668 74.5544C1.79417 73.6221 2.05276 72.9422 2.13908 72.6854C2.18979 72.3627 3.39815 68.629 3.61292 68.3078C4.54221 66.4138 5.27218 65.4641 6.2653 63.968C9.51803 58.9265 14.7145 54.4691 14.1791 55.7872C15.2716 54.6966 16.413 53.6722 17.588 52.7111C18.5721 52.2247 19.4666 51.7642 20.3099 51.317C23.5867 49.6046 25.6637 47.9898 26.6763 48.1414C27.41 47.6166 28.1431 47.1037 28.8694 46.6036C41.8367 40.7381 54.9808 36.9565 68.2162 33.8794C74.5446 32.4141 81.0814 31.1829 87.559 30.2825C88.3262 29.8961 97.0689 28.9122 97.514 28.9356C99.5816 28.8902 97.4698 29.6022 101.626 29.0889C102.063 28.8251 102.522 28.5602 102.953 28.2988C108.174 27.7838 105.695 28.2191 107.755 28.2077C108.613 28.1161 108.339 27.9625 109.489 27.8674C112.744 27.5976 117.734 27.2764 122.767 27.0416C127.475 26.8185 132.216 26.6576 135.527 26.5544C136.912 26.5114 136.699 26.6795 137.128 26.6678C138.304 26.6335 140.62 26.3687 142.974 26.3148C157.545 25.9664 178.122 25.9302 192.709 26.082C193.695 26.092 193.83 26.2844 194.496 26.293C195.41 26.304 197.493 26.1459 198.464 26.1615C199.396 26.1756 199.954 26.3216 200.953 26.3383C203.329 26.3797 206.163 26.3303 208.996 26.3398C211.502 26.3481 214.022 26.402 216.276 26.6047C216.678 26.6412 221.719 27.4178 221.821 27.4687C222.479 27.7707 218.018 28.2438 225.362 28.6871C218.802 29.0709 220.854 29.7529 229.366 30.0876C225.095 30.1727 220.83 30.2574 216.552 30.3422C216.546 30.4229 216.539 30.5037 216.533 30.5844C220.427 30.9856 224.273 31.1199 230.195 31.158C230.003 31.2327 229.833 31.3075 229.644 31.3822C224.428 31.7548 218.101 31.8221 214.135 32.3307C219.979 32.7095 225.808 33.0884 231.643 33.4666C231.342 33.5255 231.067 33.5844 230.764 33.6433C227.981 33.796 221.853 33.8844 219.54 34.0266C210.67 34.5686 227.3 34.4359 224.572 34.7673C219.379 34.7595 214.192 34.7514 208.994 34.7434C204.84 34.7367 200.638 34.7308 196.461 34.7303C196.322 34.8287 202.109 34.9909 208.994 35.2083C219.27 35.5291 232.025 35.9506 231.803 36.3914C228.863 36.4405 225.913 36.4894 222.969 36.5383C224.274 36.7261 225.597 36.914 226.904 37.1018C226.558 37.1612 226.173 37.2205 225.823 37.2798C220.862 37.4243 215.889 37.5687 210.913 37.713C226.038 37.5708 233.039 37.6784 236.656 39.1551C236.247 39.1927 235.837 39.2303 235.428 39.2679C232.228 38.3625 217.318 38.628 208.993 38.8101C208.829 38.8137 208.668 38.8174 208.508 38.8209C208.638 38.8423 208.802 38.8607 208.993 38.8766C211.292 39.0617 217.535 38.8979 218.93 39.0481C219.354 39.0949 217.871 39.2823 218.857 39.3788C221.493 39.6296 232.639 39.9536 231.026 40.2595C230.009 40.4484 213.446 40.7004 208.992 40.7012C208.81 40.7012 208.647 40.7008 208.507 40.6999C208.67 40.7071 208.832 40.7141 208.992 40.721C217.077 41.0601 225.355 41.1693 233.424 41.5915C228.233 42.1901 223.605 42.9221 214.125 42.9521C211.237 43.2658 231.329 43.7066 231.795 43.8778C228.324 44.0614 224.823 44.2447 221.361 44.428C224.308 44.3796 227.243 44.3312 230.185 44.2826C230.194 44.3441 230.203 44.4056 230.211 44.4672C223.199 44.7281 216.768 45.1897 208.991 45.2339C208.319 45.2379 207.612 45.2385 206.89 45.2354C206.992 45.3614 207.875 45.434 208.991 45.4759C210.823 45.5422 213.382 45.5315 214.931 45.5337ZM296.894 25.56C296.793 25.2536 299.881 26.1222 301.627 26.5969C301.378 26.4793 301.129 26.3616 300.879 26.2437C304.596 27.2887 311.49 29.2755 311.899 28.8474C314.564 29.5117 313.27 29.629 314.119 29.9163C314.454 30.0299 317.999 30.7341 320.676 31.8226C321.343 32.0085 322.004 32.1935 322.659 32.3775C322.833 32.2481 323.006 32.1187 323.179 31.9892C323.32 32.0645 323.46 32.1398 323.599 32.215C324.331 32.6037 325.055 32.9908 325.77 33.3764C325.006 33.1612 324.234 32.9445 323.454 32.7264C314.602 30.2525 305.76 27.8864 296.908 25.5638C296.903 25.5625 296.898 25.5613 296.894 25.56ZM392.768 56.5174C395.937 58.3176 400.782 61.1554 400.012 60.1969C397.976 59.1058 395.926 58.0204 393.892 56.9545C393.518 56.8091 393.144 56.6634 392.768 56.5174ZM147 133.37C143.976 132.822 141.188 133.145 136.525 132.921C136.528 133.019 136.532 133.117 136.535 133.215C138.464 133.039 143.486 133.342 147 133.37ZM209.538 5.07512C208.902 4.87876 208.264 4.68195 207.628 4.48569C210.382 4.63164 210.755 5.10703 213.736 5.79977C213.916 5.84143 213.883 5.7091 213.945 5.724C214.673 5.89779 215.309 6.20627 215.965 6.36793C217.225 6.67885 218.299 6.7961 220.534 7.36149C222.261 7.79877 222.224 8.02755 222.835 8.1745C223.356 8.29924 228.65 8.97227 231.888 10.0693C238.044 12.1518 211.448 5.5971 209.538 5.07512ZM191.003 1.90735e-06C191.626 0.153108 192.248 0.306149 192.87 0.459132C190.914 0.336916 194.702 1.22638 197.472 1.91005C197.304 2.21893 191.482 0.616053 188.834 0.0598893C189.557 0.0399947 190.28 0.0200257 191.003 1.90735e-06ZM269.467 20.5258C267.03 19.9345 267.536 19.6264 267.671 19.5303C268.447 19.7298 269.221 19.9289 269.992 20.1275C269.817 20.2602 269.642 20.393 269.467 20.5258ZM251.136 15.9936C251.962 15.9052 257.267 17.1241 259.786 17.7436C259.895 17.7714 259.171 17.7496 260.942 18.187C261.463 18.3146 266.851 19.1008 265.533 19.438C260.728 18.2816 255.943 17.1378 251.143 15.9954C251.141 15.9948 251.138 15.9942 251.136 15.9936ZM245.842 14.4758C246.861 14.6404 247.878 14.8044 248.891 14.9679C249.372 15.2296 249.857 15.4922 250.338 15.7541C249.192 15.4985 248.056 15.2458 246.916 14.9923C246.558 14.8202 246.2 14.648 245.842 14.4758ZM99.3379 32.2643C99.0869 32.1439 98.8202 32.0254 98.5628 31.9063C97.6249 31.9029 93.1046 33.0585 94.571 33.0126C96.1701 32.7483 97.7374 32.5018 99.3379 32.2643ZM118.581 31.1423C119.518 31.1663 120.489 31.1911 121.421 31.2202C121.921 31.0814 122.426 30.9431 122.936 30.8053C123.5 30.6491 124.069 30.4935 124.644 30.3385C124.064 30.3426 123.484 30.3471 122.916 30.3533C118.773 30.3975 114.988 30.5566 115.741 31.1488C114.64 31.2125 113.591 31.2767 112.49 31.348C113.389 30.9917 113.252 30.8946 110.408 30.8981C109.82 31.357 106.868 31.3476 103.518 31.7333C105.963 31.544 108.421 31.3794 110.851 31.2375C110.856 31.3108 110.861 31.3841 110.866 31.4575C105.437 31.8208 112.204 31.7833 115.735 31.298C116.015 31.3798 116.296 31.4617 116.579 31.5438C117.238 31.4091 117.93 31.274 118.581 31.1423ZM254.438 132.833C253.772 132.754 253.105 132.675 252.436 132.596C249.835 133.538 255.118 132.669 258.854 133.453C257.625 132.867 263.319 132.926 263.651 132.888C262.985 132.689 262.343 132.491 261.688 132.293C259.28 132.475 256.846 132.655 254.438 132.833ZM235.551 131.989C237.853 132.497 226.507 132.392 222.699 132.229C221.773 132.19 220.129 131.903 219.46 131.927C219.053 132.018 218.647 132.11 218.24 132.201C217.764 131.858 210.328 132.123 207.393 132.254C207.119 132.127 206.846 132 206.572 131.872C205.503 131.903 204.439 131.934 203.367 131.964C203.504 131.844 203.64 131.724 203.777 131.604C202.965 131.737 202.154 131.87 201.344 132.003C198.171 132.11 200.141 131.479 197.754 131.644C195.096 131.826 199.437 132.302 199.348 132.558C201.494 132.531 206.388 132.466 208.568 132.494C209.821 132.51 208.396 132.951 213.801 132.504C214.982 132.647 216.164 132.788 217.346 132.93C219.523 132.765 221.693 132.599 223.872 132.432C224.275 132.609 224.678 132.786 225.081 132.963C225.313 132.993 230.341 132.67 230.076 132.537C232.106 132.89 236.29 133 240.685 133.062C241.112 132.973 241.537 132.885 241.963 132.796C237.692 132.952 240.606 132.683 239.339 132.491C238.61 132.381 236.373 132.154 235.551 131.989ZM69.4049 37.5375C76.4502 35.5375 72.0871 36.7879 79.8801 35.2712C79.2937 35.1539 78.7088 35.0384 78.1188 34.9263C74.3403 36.0368 68.0501 37.2328 69.3976 37.5393C69.4 37.5387 69.4025 37.5381 69.4049 37.5375ZM145.653 29.5556C141.551 29.7805 143.621 30.0731 138.421 30.3163C138.419 30.3164 138.417 30.3164 138.414 30.3165C141.101 30.2695 143.799 30.2316 146.482 30.2011C146.205 29.9859 145.929 29.7707 145.653 29.5556ZM77.7851 128.109C81.7447 128.529 80.9927 128.295 84.5515 128.891C89.9279 128.827 85.3768 128.588 85.4259 128.211C84.1789 128.239 82.9845 128.267 81.7299 128.285C78.7967 127.708 81.6321 127.745 81.6202 127.709C81.6177 127.709 81.6152 127.709 81.6128 127.709C81.6172 127.595 81.7312 127.58 80.5929 127.424C79.6459 127.655 78.7319 127.885 77.7851 128.109ZM94.7296 128.767C93.35 128.944 92.7411 129.237 96.2767 129.585C96.2792 129.586 96.2816 129.586 96.2841 129.586C96.6011 129.041 99.9574 129.664 101.541 129.699C101.94 129.657 102.344 129.615 102.752 129.572C100.102 129.315 97.3841 129.045 94.7296 128.767ZM153.916 130.385C153.916 131.006 150.969 130.988 155.101 131.668C155.909 131.678 156.722 131.688 157.539 131.697C158.081 131.575 158.616 131.452 159.146 131.329C169.385 132.701 172.519 130.871 155.114 131.152C155.111 131.152 155.109 131.152 155.107 131.153C154.709 130.897 154.312 130.641 153.916 130.385ZM135.804 129.926C135.663 130.248 135.523 130.57 135.382 130.892C133.153 130.037 130.203 130.696 125.741 129.991C125.336 130.076 124.934 130.162 124.533 130.247C124.052 130.161 121.936 130.035 119.615 129.926C114.506 129.691 107.616 129.482 110.032 129.924C111.622 130.21 114.933 130.042 115.262 130.061C116.248 130.123 117.476 130.45 119.174 130.495C119.297 130.499 119.438 130.497 119.594 130.493C120.622 130.461 122.395 130.272 124.126 130.332C128.496 130.486 136.465 131.622 142.226 130.949C142.647 131.059 143.046 131.169 143.455 131.279C147.696 131.339 146.333 130.989 150.257 131.467C153.053 130.001 134.297 131.093 138.242 129.947C138.239 129.947 138.237 129.947 138.235 129.947C137.448 129.941 136.608 129.933 135.804 129.926ZM18.8283 109.363C18.7337 109.061 13.8828 106.225 15.3603 106.428C13.7431 105.526 12.1047 104.481 10.4935 103.149C10.4599 103.203 10.4264 103.258 10.393 103.312C11.8744 104.769 13.4081 105.966 14.9317 107.026C14.8792 107.11 14.8268 107.193 14.7744 107.277C17.2175 108.918 26.5297 113.977 26.0972 114.059C26.6722 114.177 27.2276 114.282 27.7971 114.39C32.1193 116.877 36.1501 118.116 40.8411 120.483C41.2617 120.525 41.6828 120.567 42.1045 120.609C42.1343 120.636 42.1641 120.664 42.1939 120.691C42.4044 120.869 42.6177 121.045 42.8312 121.219C44.8907 122.036 46.9247 122.669 48.893 123.213C54.5819 124.283 45.806 121.794 42.4062 120.175C42.0148 120.006 41.7157 119.881 41.5523 119.821C41.3685 119.754 41.3043 120.003 40.1611 119.573C38.1477 118.857 27.0013 113.784 23.4351 111.956C23.4836 111.791 23.5323 111.626 23.5812 111.461C22.0029 110.823 20.4196 110.135 18.8283 109.363ZM176.829 131.596C177.095 131.774 177.362 131.951 177.629 132.129C182.331 132.059 185.242 132.267 184.062 131.675C184.06 131.675 184.057 131.675 184.055 131.674C181.652 131.65 179.234 131.624 176.829 131.596ZM374.417 51.7084C374.418 52.0735 376.494 52.9735 379.317 53.8016C379.222 53.6585 379.126 53.5152 379.029 53.3717C377.5 53.0989 375.893 51.9273 371.448 50.3848C371.39 50.5463 371.331 50.7078 371.273 50.8693C372.312 51.1415 373.367 51.4234 374.417 51.7084ZM172.795 131.432C171.371 131.198 167.377 131.72 169.999 131.811C171.998 131.88 173.56 131.558 172.795 131.432ZM161.782 29.6245C160.723 29.6014 159.663 29.5791 158.604 29.5576C158.055 29.7112 157.505 29.8651 156.956 30.0191C156.958 30.0191 156.961 30.0191 156.963 30.019C158.569 29.8856 160.176 29.7541 161.782 29.6245ZM63.9608 126.502C67.7413 127.121 71.4667 127.511 75.0981 127.834C75.1441 127.742 75.1902 127.651 75.2362 127.56C71.5342 127.559 70.0901 126.99 69.2237 126.863C69.2276 126.864 69.2314 126.864 69.2352 126.865C66.4865 126.448 63.7702 125.973 61.1488 125.321C62.076 125.729 63.0177 126.123 63.9608 126.502ZM51.6688 123.243C52.1066 124.037 52.9606 124.35 58.453 125.072C58.2596 124.945 58.0607 124.816 57.8672 124.689C55.0662 124.124 53.3511 123.883 53.9336 123.658C53.1843 123.525 52.4299 123.388 51.6688 123.243ZM108.425 129.527C107.755 129.286 102.5 129.268 102.775 129.386C102.891 129.439 109.72 130.004 108.425 129.527ZM336.222 39.307C337.36 39.697 338.529 40.099 339.667 40.4944C338.101 40.0975 336.541 39.7067 334.958 39.3136C335.382 39.3118 335.803 39.3096 336.222 39.307ZM323.163 36.5063C322.54 36.2612 324.083 36.3162 322.625 35.6525C322.185 35.4507 321.465 35.1823 320.294 34.8145C321.095 35.037 321.889 35.2582 322.674 35.478C325.528 36.2771 328.313 37.0675 331.157 37.8876C329.434 37.4864 327.724 37.0933 325.984 36.696C326.236 36.9491 326.486 37.2019 326.735 37.4544C325.524 37.1306 324.367 36.8242 323.163 36.5063ZM319.392 34.9805C321.227 35.9666 310.94 33.1391 310.009 32.836C309.8 32.7648 308.867 32.1482 308.522 31.9765C310.074 32.3993 311.624 32.8239 313.175 33.2513C312.677 33 312.196 32.7537 311.708 32.5058C313.528 32.9667 315.348 33.4312 317.185 33.904C316.371 33.7917 315.57 33.6835 314.769 33.576C316.288 34.0353 317.873 34.5156 319.392 34.9805ZM360.441 47.3665C359.153 46.921 357.879 46.4856 356.592 46.0504C356.792 46.297 356.993 46.544 357.201 46.7935C357.984 47.0521 358.723 47.2978 359.51 47.561C359.822 47.4964 360.132 47.4316 360.441 47.3665ZM334.087 39.3243C336.22 39.0909 340.812 42.3537 335.016 39.9243C334.417 39.6755 333.89 39.3496 334.087 39.3243ZM306.184 31.6912C301.996 31.1821 303.242 30.139 306.961 31.5517C307.148 31.6239 306.501 31.7311 306.184 31.6912ZM275.876 23.6939C275.55 23.6051 275.077 23.0362 271.854 22.6274C271.349 22.4463 270.843 22.2651 270.336 22.0836C271.608 22.2008 281.962 24.7648 280.432 24.8101C278.842 24.4029 277.51 24.1314 275.876 23.6939ZM285.475 27.8437C287.024 28.2376 288.59 28.6372 290.13 29.0312C289.654 28.7659 289.183 28.5021 288.707 28.2371C289.477 28.402 290.24 28.5653 291.02 28.7334C292.275 29.3059 293.49 29.8687 294.75 30.4446C291.378 29.5867 287.994 28.7329 284.619 27.887C284.905 27.8726 285.19 27.8582 285.475 27.8437ZM326.523 39.3847C325.159 38.9107 323.689 38.4859 321.956 38.0108C319.976 37.4684 317.697 36.8751 315.083 36.133C315.081 36.1319 315.078 36.1309 315.076 36.1298C314.838 36.0616 314.465 35.7656 313.691 35.5439C313.024 35.3394 299.927 31.993 301.014 31.9692C306.151 33.0593 307.916 33.9896 309.317 33.647C309.526 33.857 309.734 34.0669 309.942 34.2767C314.724 35.8535 316.264 35.7566 319.02 36.3337C318.979 36.4377 318.938 36.5416 318.897 36.6455C319.973 36.9541 321.035 37.2604 322.082 37.5642C322.848 37.7859 323.605 38.0062 324.354 38.2251C324.119 38.0821 323.884 37.9389 323.647 37.7955C324.294 37.9797 324.92 38.1589 325.569 38.3452C327.065 39.1164 329.001 39.7571 326.523 39.3847ZM278.489 25.8302C276.852 26.2694 263.024 22.1042 256.589 20.6526C260.078 21.0182 265.166 22.6814 268.828 23.6301C275.894 25.4622 271.086 23.9016 272.319 24.079C272.92 24.1644 276.804 25.7277 278.489 25.8302ZM337.388 42.4249C333.925 41.3157 331.883 40.9181 328.959 39.7451C329.232 39.7603 329.503 39.7753 329.774 39.7901C330.789 40.1333 339.184 42.8181 337.388 42.4249ZM247.287 18.0613C254.028 20.0833 250.838 18.487 254.251 19.9447C251.9 19.384 249.575 18.8309 247.233 18.275C247.251 18.2037 247.269 18.1325 247.287 18.0613ZM164.834 128.077C161.86 127.987 158.602 127.751 156.792 128.023C158.834 128.124 160.794 128.222 162.825 128.321C163.5 128.24 164.171 128.159 164.834 128.077ZM249.26 126.369C248.589 126.287 245.902 126.487 245.625 126.485C245.104 126.48 245.247 126.37 245.24 126.341C241.825 126.328 244.974 126.703 242.442 126.752C242.003 126.761 236.064 126.527 233.638 126.511C229.921 126.489 226.197 126.417 224.808 126.404C222.456 126.382 218.098 126.578 214.237 126.531C212.646 126.512 212.094 126.297 210.495 126.276C200.223 126.154 180.006 126.041 170.9 125.693C168.669 125.61 166.497 125.288 165.32 125.282C164.386 125.359 163.444 125.435 162.496 125.51C159.623 124.551 158.659 125.317 155.53 125.32C153.559 125.321 152.65 125.034 152.377 125.027C150.603 124.985 149.736 125.087 148.366 125.07C146.811 125.051 144.57 124.869 144.025 124.875C143.685 124.879 144.768 125.263 138.745 125.079C132.607 124.89 126.548 124.659 120.321 124.418C122.326 125.547 124.195 124.889 126.718 124.935C127.406 124.948 126.964 125.101 127.565 125.113C129.255 125.15 132.475 125.088 133.86 125.171C135.349 125.26 134.821 125.633 136.741 125.548C136.838 125.543 136.536 125.373 136.989 125.36C141.487 125.229 142.951 125.552 148.659 125.717C152.425 125.84 175.329 126.23 176.123 126.341C180.214 127.001 156.08 126.447 153.258 126.313C152.266 126.272 153.313 126.122 152.406 126.064C152.001 126.04 148.615 126.288 145.183 126.219C141.084 126.14 132.861 125.662 128.95 125.54C125.868 125.445 122.79 125.344 119.785 125.237C99.8007 124.287 79.8477 124.319 60.0181 120.404C54.7312 119.191 49.3337 118.175 44.1045 116.048C39.4827 114.135 34.8532 112.199 30.2872 110.045C29.634 109.733 28.6838 109.522 26.578 108.451C20.6223 105.197 13.8365 101.968 10.4978 94.7832C8.23761 89.113 7.8787 82.6852 9.54455 76.7808C11.6648 68.878 17.6075 62.4586 24.5134 58.5379C38.784 50.5042 54.4924 45.9068 70.1516 42.1534C77.775 40.3486 85.4995 38.9618 93.2288 37.9917C102.807 36.782 112.343 35.9303 122.058 35.6234C122.418 35.5623 122.779 35.5015 123.144 35.4409C123.972 35.3001 124.812 35.1605 125.663 35.022C124.921 35.0803 124.04 35.1201 123.13 35.1481C120.178 35.237 116.781 35.2306 116.396 35.2501C116.222 35.2589 115.043 35.4912 113.165 35.602C110.525 35.76 109.343 35.7072 109.126 35.7221C108.445 35.7719 108.901 35.8921 108.256 35.9398C103.46 36.2997 99.7431 36.6911 95.3457 37.1986C90.3779 37.7877 87.8259 37.8782 84.2666 38.774C83.8437 38.7195 83.4095 38.6682 82.9815 38.6171C81.5239 39.1601 75.8155 40.3023 70.0478 41.7097C65.5379 42.7875 60.9727 43.9782 58.207 44.7506C56.201 45.3111 56.5084 45.0038 55.8313 45.2002C55.4037 45.338 55.6381 45.5074 50.4484 47.0889C47.8412 47.9025 47.0931 47.9513 45.8022 48.4041C45.093 48.6566 45.2827 48.8043 44.2711 49.1659C38.4485 51.2754 33.7187 53.145 28.2434 55.8815C26.7081 56.6633 26.6193 56.5319 26.2751 56.7177C25.745 57.0091 25.0488 57.4558 24.2095 58.0158C23.0686 58.7767 21.6551 59.7697 19.9788 61.0609C16.0609 63.7767 10.495 70.7388 9.09519 76.6565C8.62798 78.2714 8.35541 79.7219 8.18847 80.8296C8.0764 81.5719 7.82436 82.1738 7.79593 82.7332C7.75696 83.5762 7.9743 83.9089 7.9723 84.0547C8.02059 86.846 7.77487 85.1758 7.95415 87.0482C8.08889 88.0522 8.41576 89.0771 8.99182 91.3301C9.84446 94.2791 9.46911 93.7801 9.93946 94.9889C9.9417 94.994 9.9442 94.9989 9.94696 95.0035C10.0252 95.1171 10.19 95.1714 10.7995 96.3211C13.3002 100.984 19.1873 104.705 22.9317 106.831C24.0237 107.449 24.7661 108.01 26.3113 108.808C28.4454 110.006 37.835 114.169 43.8793 116.596C46.6504 117.726 48.7872 118.284 49.2572 118.453C49.4243 118.505 47.6223 118.318 50.3661 119.062C51.1945 119.155 52.015 119.234 52.835 119.305C54.1103 119.816 55.3897 120.309 56.6636 120.796C56.7074 120.5 58.2296 120.646 59.8971 120.954C62.0366 121.363 64.5166 121.942 64.3974 122.314C65.2776 122.495 66.1274 122.658 67.0084 122.815C68.8801 122.595 70.0901 122.944 73.5934 123.026C74.1318 123.229 74.6524 123.428 75.1831 123.627C75.3302 123.542 75.4785 123.457 75.6278 123.373C77.4447 124.081 80.5267 123.79 80.9129 123.815C82.3184 123.911 83.4178 124.124 84.061 124.165C86.5516 124.331 91.9829 124.473 94.8794 124.71C95.0156 124.722 94.8774 124.943 95.7056 125.015C97.1574 125.142 97.3816 124.82 99.3218 125.308C99.7246 125.229 100.132 125.151 100.543 125.072C100.966 125.144 101.425 125.216 101.828 125.286C104.32 125.378 106.876 125.464 109.38 125.542C107.115 125.832 109.668 126.158 112.22 125.956C113.052 125.886 112.326 125.623 112.604 125.598C112.812 125.58 116.421 125.748 119.76 125.923C122.287 126.058 124.745 126.202 125.037 126.279C125.569 126.223 126.105 126.167 126.645 126.111C126.912 126.268 127.18 126.425 127.449 126.582C127.75 126.54 128.052 126.498 128.355 126.456C131.236 126.814 138.97 126.453 140.312 126.537C141.046 126.584 140.383 127.196 143.922 127.233C144.049 127.063 144.176 126.894 144.303 126.724C145.111 126.722 145.925 126.72 146.744 126.718C148.298 126.777 150.461 127.135 150.538 127.342C151.018 127.232 151.499 127.122 151.982 127.012C153.261 127.448 160.065 127.48 162.824 127.292C163.631 127.433 164.427 127.573 165.221 127.713C166.297 127.592 167.379 127.47 168.466 127.349C170.98 127.363 168.32 127.545 168.855 127.578C169.977 127.647 175.727 127.363 175.34 127.869C176.118 127.887 176.898 127.905 177.679 127.924C178.085 127.785 178.491 127.647 178.897 127.509C180.241 128.044 182.549 127.915 187.326 128.196C187.726 128.087 188.128 127.979 188.529 127.87C189.996 128.065 191.474 128.259 192.946 128.453C193.251 128.266 193.557 128.079 193.862 127.891C194.503 127.876 195.144 127.86 195.786 127.844C197.081 128.301 199.431 127.876 200.616 128.075C202.348 128.366 201 128.653 197.775 128.655C198.01 128.976 207.619 128.999 209.837 129.01C209.692 128.946 209.546 128.882 209.401 128.818C207.131 128.83 204.873 128.841 202.6 128.85C200.716 128.025 206.864 128.344 209.69 128.287C209.949 128.281 211.416 128.006 214.261 128.078C215.362 128.106 219.655 128.609 220.475 128.644C227.098 128.937 222.237 128.244 228.709 128.879C227.361 128.441 231.089 128.84 234.963 128.803C235.63 128.798 241.216 128.518 241.603 128.512C243.963 128.481 241.395 128.828 244.801 128.765C245.211 128.671 245.619 128.577 246.029 128.483C246.827 128.49 247.623 128.497 248.418 128.505C253.209 129.418 254.364 128.783 256.066 128.713C256.755 128.684 255.865 128.906 257.654 128.87C258.334 128.856 259.091 128.672 260.906 128.67C266.586 128.66 268.533 129.478 273.745 128.648C274.541 128.771 275.361 128.895 276.163 129.018C276.706 128.873 277.248 128.727 277.787 128.581C281.91 129.008 280.441 128.571 281.934 128.576C285.736 128.59 293.513 128.636 294.58 128.95C294.616 128.96 294.645 128.971 294.667 128.981C298.111 128.156 302.187 129.024 303.511 128.977C304.296 128.87 305.125 128.762 305.919 128.654C306.867 128.741 307.775 128.827 308.729 128.911C308.287 128.128 313.108 128.831 313.616 128.831C314.159 128.838 321.65 128.452 324.412 128.377C327.238 128.31 332.022 128.37 332.494 128.353C332.99 128.337 337.71 127.957 341.413 127.791C344.658 127.731 363.892 126.785 362.652 126.457C361.373 126.462 359.575 126.514 358.046 126.576C353.239 126.931 325.08 127.901 317.883 127.887C310.203 127.989 302.436 128.062 294.575 128.092C287.65 128.118 280.718 128.11 273.907 128.06C273.062 128.053 272.934 127.848 272.205 127.842C271.106 127.833 268.255 128.028 267.181 128.019C263.092 127.985 258.114 127.92 255.935 127.899C251.041 127.854 247.688 127.7 243.994 127.644C242.837 127.628 236.979 127.821 232.964 127.665C232.239 127.598 231.513 127.532 230.786 127.465C232.85 127.424 238.281 127.313 240.794 127.318C244.551 127.329 246.486 127.512 247.879 127.522C249.035 127.531 254.968 127.39 257.645 127.402C258.487 127.406 258.658 127.622 259.376 127.626C263.253 127.646 268.357 127.663 271.75 127.461C270.367 127.528 278.976 127.676 279.399 127.673C280.179 127.673 281.028 127.472 282.6 127.47C285.593 127.467 285.273 127.889 289.027 127.456C289.942 127.576 290.919 127.694 291.852 127.812C291.868 127.642 292.977 127.589 294.572 127.575C298.34 127.546 304.762 127.706 307.122 127.197C307.195 127.144 299.538 127.114 294.568 127.067C292.534 127.049 290.915 127.034 290.538 127.033C282.895 127.002 271.647 127.123 264.235 126.984C262.009 126.946 255.009 126.558 254.485 126.56C253.633 126.563 254.401 126.763 254.033 126.768C246.494 126.853 250.262 126.49 249.26 126.369ZM318.682 37.5394C319.744 37.8491 320.793 38.1564 321.828 38.4613C322.999 38.8059 324.135 39.1425 325.285 39.485C325.09 39.557 324.891 39.6281 324.702 39.7017C323.734 39.3754 322.752 39.0467 321.756 38.7153C321.74 38.7101 321.725 38.7048 321.709 38.6996C320.922 38.5529 320.128 38.4049 319.326 38.2556C319.112 38.017 318.897 37.7783 318.682 37.5394ZM313.109 36.5227C311.16 36.0488 311.153 35.7786 310.712 35.6443C309.41 35.2466 308.22 35.0301 306.953 34.6815C308.575 34.4836 311.647 35.6182 313.109 36.5227ZM352.427 48.415C351.994 48.244 349.363 46.6966 345.919 46.2684C343.529 45.3163 341.174 44.3884 338.779 43.4594C342.825 44.9892 348.659 46.4922 350.673 47.1539C351.439 47.4038 351.51 47.6405 352.133 47.8448C355.668 48.999 359.231 49.709 359.381 50.4717C356.117 49.1662 352.953 48.6231 352.427 48.415ZM331.095 41.6156C330.561 41.312 330.046 41.0146 329.513 40.7126C331.551 41.3063 333.62 41.9156 335.682 42.5309C335.088 42.5026 334.489 42.4734 333.885 42.4433C332.961 42.1676 332.039 41.894 331.095 41.6156ZM403.543 120.735C404.836 120.454 406.147 120.154 407.443 119.841C407.334 119.763 405.875 120.112 405.299 120.171C405.301 120.171 405.304 120.17 405.306 120.169C404.668 120.234 404.908 120.046 403.793 120.234C403.71 120.401 403.627 120.568 403.543 120.735ZM127.274 35.3991C129.491 35.265 149.919 34.7595 148.174 34.4476C147.291 34.2737 140.305 34.5915 138.244 34.6496C135.466 34.7121 127.948 34.562 127.274 35.3991ZM163.461 34.655C163.811 34.2692 151.04 34.3888 149.793 34.4887C150.059 34.537 150.472 34.648 150.825 34.6686C152.547 34.7618 160.708 34.5796 163.461 34.655ZM329.763 126.993C330.792 127.15 331.821 127.305 332.868 127.457C332.588 127.221 332.307 126.985 332.025 126.749C331.243 126.832 330.525 126.912 329.763 126.993ZM229.957 127.569C212.819 127.34 195.689 127.032 178.549 126.653C180.062 126.583 181.574 126.513 183.077 126.442C197.842 126.785 213.587 127.154 227.845 127.181C228.546 127.311 229.254 127.44 229.957 127.569ZM356.682 50.9717C360.834 52.3554 364.394 53.3824 368.793 55.2667C364.419 53.9955 362.418 52.8513 358.089 51.8283C358.087 51.8275 358.085 51.8267 358.082 51.8259C357.605 51.5369 357.151 51.2563 356.682 50.9717ZM438.009 102.002C438.087 100.957 438.018 99.9475 437.903 98.9803C437.857 98.5146 437.719 98.0741 437.54 97.6778C437.672 98.0893 437.758 98.5335 437.754 98.9791C437.746 100.215 437.655 101.494 437.308 102.736C437.55 102.507 437.784 102.26 438.009 102.002ZM80.5868 122.098C75.9957 122.19 64.3481 120.199 60.6546 119.642C60.4463 119.623 62.014 120.113 60.1109 119.983C59.8135 119.961 59.4375 119.926 58.9562 119.871C59.3513 119.946 59.7275 120.018 60.0885 120.085C62.15 120.473 63.5754 120.636 63.7884 120.425C64.5779 120.67 65.3365 120.899 66.1386 121.124C67.4755 121.258 68.8249 121.367 70.1536 121.455C69.9742 121.721 70.0767 121.729 72.1459 121.762C73.0833 121.939 74.0057 122.107 74.9229 122.269C75.3223 122.185 75.7496 122.103 76.1508 122.017C76.9179 122.259 77.7456 122.503 78.521 122.74C81.6917 122.812 79.7924 122.325 80.5868 122.098ZM96.6241 123.179C95.916 123.154 74.607 121.914 84.2345 123.158C86.7472 123.315 89.2857 123.454 91.7761 123.579C89.7356 122.51 96.587 123.748 97.1085 123.788C99.8137 124.021 103.216 123.953 105.201 124.052C106.834 124.135 107.907 124.352 109.045 124.396C112.653 124.536 117.921 124.728 119.811 124.522C120.045 124.495 120.219 124.46 120.321 124.418C120.152 124.411 119.983 124.405 119.815 124.398C116.798 124.282 113.84 124.165 110.754 124.048C107.356 123.917 104.31 123.423 97.8299 123.61C96.2217 123.473 96.818 123.205 96.6241 123.179ZM435.344 94.0838C435.903 93.7644 429.639 88.29 429.435 88.499C429.381 88.5592 431.464 90.2417 431.706 90.5155C431.708 90.5171 431.71 90.5187 431.711 90.5202C431.825 90.6392 431.105 90.2143 432.041 91.0832C433.183 92.0057 434.308 92.9864 435.344 94.0838ZM95.6091 38.5345C96.7098 38.3958 121.753 36.5066 122.487 36.5235C122.687 36.4847 122.401 36.4003 122.478 36.3404C116.637 36.9108 108.324 37.0685 102.758 37.5674C101.214 37.7032 101.696 37.818 101.607 37.8289C101.604 37.8292 101.6 37.8295 101.597 37.8299C100.709 37.9078 96.7185 37.9353 95.6091 38.5345ZM52.7688 118.037C53.7933 118.352 54.8223 118.654 55.8516 118.951C56.1437 118.892 56.4349 118.832 56.7258 118.771C56.7235 118.771 56.7211 118.77 56.7187 118.77C55.4008 118.536 54.0851 118.297 52.7688 118.037ZM19.1863 102.637C19.3551 102.862 19.5133 103.076 19.683 103.295C21.9253 104.825 24.2701 106.16 26.6657 107.412C26.3997 107.33 26.1353 107.247 25.8725 107.163C29.4403 109.165 31.1205 109.567 33.0717 110.512C33.0694 110.511 33.0671 110.51 33.0649 110.509C33.2751 110.609 33.454 110.889 34.2487 111.25C36.0546 112.086 41.2828 114.362 41.9898 114.452C43.4758 114.674 32.8458 110.385 30.9437 109.388C30.0721 108.971 29.0941 108.322 28.5682 108.057C27.9995 107.771 27.1103 107.571 25.7236 106.829C25.3012 106.634 20.9711 103.924 19.1863 102.637ZM21.2103 61.8406C20.4118 62.1815 19.1824 63.4513 18.6927 63.8699C18.5724 63.9696 19.353 63.0377 18.2432 63.9863C18.0165 64.3499 17.7984 64.7166 17.5902 65.0847C18.7128 63.9151 19.9262 62.8354 21.2103 61.8406ZM424.676 85.4044C424.876 85.5722 428.393 88.1173 428.577 88.2541C430.905 89.5337 423.57 84.1734 424.676 85.4044ZM324.056 42.1672C324.531 42.4502 323.237 42.1441 320.961 41.5195C314.994 39.8665 302.436 36.1776 300.819 35.7709C301.028 35.4897 306.389 37.2787 303.65 36.0758C306.329 37.0494 313.902 38.9957 315.657 39.5642C316.726 39.9067 316.916 40.2514 317.076 40.3053C317.404 40.4148 319.324 40.86 321.027 41.2867C322.471 41.6496 323.776 42.0017 324.056 42.1672ZM281.862 30.5201C284.041 31.1532 286.214 31.7869 288.38 32.4217C285.793 31.7777 283.204 31.1367 280.605 30.4965C281.02 30.5033 281.441 30.5116 281.862 30.5201ZM279.075 29.9453C279.06 30.2646 271.694 28.1052 269.719 27.673C272.061 27.7246 275.598 29.1601 279.075 29.9453ZM399.581 71.0051C402.552 72.9123 404.358 72.8392 400.404 71.0841C400.284 71.0325 399.458 70.9233 399.581 71.0051ZM79.6195 120.668C79.0021 120.637 71.6043 119.617 71.1699 119.687C69.7482 120.021 74.664 120.381 76.2722 120.697C78.8795 121.225 74.9566 121.158 81.4604 121.498C81.1865 121.576 80.9036 121.652 80.6304 121.73C84.4105 122.05 83.2468 121.274 83.9156 121.236C84.1124 121.224 86.4909 121.443 86.9138 121.426C92.3124 121.228 80.1523 120.754 79.6195 120.668ZM405.303 117.774C398.382 119.006 401.427 118.818 394.332 120.094C394.137 120.404 404.479 118.242 405.303 117.774ZM148.058 124.031C140.776 123.916 134.803 123.455 127.99 123.61C128.395 124.225 149.914 124.245 148.058 124.031ZM179.546 37.1797C161.911 36.6423 142.552 36.7074 123.238 37.5511C111.516 38.0891 99.8116 38.9792 88.5828 40.6231C85.336 41.1075 84.9933 40.9468 83.8258 41.1646C83.0577 41.3122 83.2343 41.4701 82.21 41.6517C78.303 42.3478 74.4319 43.1677 70.6006 44.073C54.8082 47.8731 39.3074 52.5769 25.5878 60.3835C19.0193 64.1586 13.6117 70.1121 11.6739 77.3699C10.1502 82.8129 10.4835 88.7258 12.5619 93.9576C13.5272 96.3716 15.4257 98.4165 17.5082 100.16C18.9851 101.819 28.3489 107.516 30.7955 107.842C32.5669 108.209 25.3895 105.092 24.3068 104.371C23.4629 103.884 23.5381 103.675 22.986 103.344C22.3987 102.986 22.8034 103.407 22.1292 102.992C19.2632 101.225 16.3709 98.9387 14.5954 96.6545C13.8978 95.7683 13.3123 94.8195 12.9079 93.8192C10.8207 88.6474 10.4892 82.8063 11.981 77.4549C13.8999 70.2429 19.2706 64.3833 25.7566 60.6735C38.9899 53.1761 53.8169 48.6713 68.8222 44.9962C69.6648 44.7939 70.2777 44.6603 70.7176 44.5731C72.1028 44.3007 71.7364 44.4902 71.8725 44.4589C71.8748 44.4579 71.8771 44.457 71.8794 44.456C87.6271 40.7105 105.694 38.8134 123.26 38.0368C126.941 37.8704 130.605 37.748 134.222 37.6622C148.9 37.336 163.584 37.2857 178.274 37.315C178.7 37.2698 179.124 37.2247 179.546 37.1797ZM95.0658 122.285C93.2515 121.53 92.855 122.19 86.2833 121.504C85.7585 121.581 85.2049 121.655 84.6594 121.728C88.1321 121.943 91.6104 122.124 95.0771 122.286C95.0733 122.286 95.0696 122.286 95.0658 122.285ZM52.2355 116.56C51.856 116.031 48.6774 115.251 45.0387 113.778C40.4913 111.923 34.8908 109.692 31.6777 108.066C30.3804 107.995 39.2079 111.733 41.3038 112.607C41.7681 112.812 43.1023 113.473 44.8349 114.273C46.9336 115.26 49.776 116.185 52.2737 116.663C52.2609 116.629 52.2482 116.594 52.2355 116.56ZM347.523 50.5646C348.536 50.8584 349.584 51.1659 350.595 51.4643C348.086 50.5549 345.57 49.6595 343.035 48.7728C347.087 50.0932 351.145 51.4514 355.168 52.8452C354.351 52.7677 353.556 52.6992 352.732 52.6225C351.011 51.9331 349.264 51.244 347.523 50.5646ZM360.689 54.7911C353.608 52.4703 361.137 54.4869 362.824 55.3114C363.838 55.8004 361.422 55.0317 360.689 54.7911ZM378.796 61.7481C375.453 60.7555 368.86 58.3538 371.421 58.6176C374.844 60.2107 377.202 60.8267 382.181 63.0204C381.408 62.8391 380.62 62.6547 379.835 62.4746C379.831 62.4732 379.828 62.4719 379.824 62.4705C379.474 62.226 379.145 61.9905 378.796 61.7481ZM357.34 54.0671C352.816 52.15 366.184 56.8184 361.898 55.615C361.691 55.5508 357.524 54.1389 357.34 54.0671ZM148.248 38.2049C148.834 37.9837 145.073 38.063 143.816 38.0788C138.396 38.1368 131.422 38.4281 125.803 38.6324C126.226 38.6839 126.65 38.7358 127.077 38.7879C134.125 38.5171 141.185 38.3393 148.248 38.2049ZM108.208 39.6351C104.362 39.929 100.504 40.2815 96.6766 40.7127C96.3171 40.752 94.662 41.1264 95.912 41.0244C99.9923 40.4777 104.099 40.0237 108.208 39.6351ZM119.6 122.104C118.523 122.023 118.937 121.935 119.906 121.884C121.555 121.788 125.095 121.81 124.801 122.213C123.177 122.181 121.487 122.145 119.898 122.11C119.799 122.108 119.699 122.106 119.6 122.104ZM147.283 122.72C145.385 122.729 143.577 122.739 141.675 122.745C141.675 122.671 141.675 122.597 141.674 122.523C143.577 122.591 145.385 122.655 147.283 122.72ZM163.5 38.1205C161.521 37.889 156.806 37.9893 153.868 38.0331C155.894 38.2162 160.72 38.042 163.5 38.1205ZM75.1889 119.369C75.3859 119.652 63.822 118.102 67.8598 118.334C70.2836 118.741 72.7448 119.074 75.1889 119.369ZM51.9324 114.903C54.3424 115.487 56.2447 115.961 55.6764 116.112C54.3772 115.802 53.0873 115.482 51.8149 115.139C51.8541 115.06 51.8933 114.981 51.9324 114.903ZM390.373 67.7917C394.14 69.8023 397.89 71.844 401.611 73.9285C401.437 73.9148 401.263 73.9009 401.089 73.887C397.5 71.8811 393.885 69.9155 390.255 67.9785C390.295 67.9162 390.334 67.8539 390.373 67.7917ZM165.926 38.7581C168.859 38.6795 171.802 38.6061 174.736 38.5373C171.799 38.5083 168.852 38.4838 165.915 38.4647C165.916 38.5629 165.917 38.6612 165.918 38.7594C165.921 38.759 165.923 38.7585 165.926 38.7581ZM335.547 48.6462C347.895 52.7572 331.923 48.2657 328.742 46.8417C328.739 46.841 328.735 46.8404 328.732 46.8398C328.458 46.7131 329.124 46.6824 328.672 46.4591C329.906 46.9215 331.172 47.3961 332.404 47.8633C333.619 48.0968 334.775 48.3149 335.993 48.5539C336.362 48.715 336.729 48.8755 337.093 49.0356C336.582 48.9067 336.067 48.7769 335.547 48.6462ZM284.741 34.7497C273.286 31.7123 285.165 34.2497 290.72 36.1673C290.653 36.251 285.807 35.032 284.741 34.7497ZM314.737 42.7151C316.539 43.1666 318.367 43.6291 320.152 44.084C320.175 44.0978 320.199 44.1115 320.222 44.1253C320.413 44.2368 320.604 44.3482 320.794 44.4595C320.587 44.4099 320.378 44.3602 320.169 44.3105C319.001 44.0335 317.8 43.7496 316.61 43.4705C315.991 43.2196 315.366 42.9678 314.737 42.7151ZM372.699 62.0846C375.441 63.205 379.261 63.8901 370.24 60.6998C370.219 60.7708 370.198 60.8418 370.177 60.9128C370.534 61.0312 371.618 61.36 371.668 61.3847C371.825 61.4634 371.541 61.6194 372.699 62.0846ZM263.02 31.1268C262.685 31.0701 262.327 31.7823 259.114 30.1275C258.08 29.9136 257.042 29.6991 256 29.4838C255.776 29.2495 255.552 29.0151 255.328 28.7806C259.281 29.9269 259.776 29.6962 260.071 29.7638C261.405 30.0717 260.38 29.9938 261.233 30.2149C263.422 30.781 268.466 31.9557 266.07 31.8656C265.212 31.8334 263.348 31.182 263.02 31.1268ZM270.683 33.5583C270.219 33.3713 271.822 33.55 271.476 33.394C271.182 33.2593 266.435 31.7945 267.832 31.7568C268.619 31.9765 269.403 32.1956 270.185 32.4142C270.425 32.5852 270.664 32.756 270.903 32.9268C271.682 33.0277 272.475 33.1321 273.262 33.2355C274.484 33.8209 277.113 34.8525 273.83 34.2195C275.025 34.5065 276.218 34.7936 277.42 35.0837C278.07 35.1238 278.717 35.1636 279.362 35.203C278.992 35.303 278.622 35.403 278.251 35.5028C275.723 34.8504 273.208 34.2045 270.683 33.5583ZM233.706 24.0623C233.876 24.0038 234.046 23.9452 234.215 23.8866C229.783 22.9576 222.933 21.3095 226.963 21.6863C232.921 23.1305 238.877 24.579 244.83 26.0343C245.206 26.2057 245.581 26.377 245.955 26.5483C241.605 25.1523 242.661 26.6699 238.899 25.3604C238.264 25.1392 240.253 25.204 236.099 24.4356C236.22 24.5679 236.341 24.7002 236.462 24.8325C235.546 24.5762 234.627 24.3195 233.706 24.0623ZM196.004 14.4658C203.49 16.4811 195.118 14.7606 193.804 14.1254C193.806 14.126 193.808 14.1266 193.811 14.1272C190.203 12.3861 198.291 14.8107 198.79 14.9303C199.453 15.0883 201.146 14.9088 204.543 16.6353C201.7 15.9126 198.852 15.1891 196.004 14.4658ZM220.513 20.7454C219.877 20.6056 220.263 20.5494 219.989 20.4831C219.987 20.4825 219.984 20.4819 219.982 20.4813C215.952 19.5031 206.35 17.2387 205.426 16.5149C208.413 17.2188 221.769 20.4564 222.493 20.9751C221.834 20.8987 221.174 20.8221 220.513 20.7454ZM248.894 27.5346C251.286 28.4618 245.71 27.088 244.3 26.5835C244.032 26.4838 246.415 26.5737 248.894 27.5346ZM427.575 95.6036C431.316 98.7405 426.694 94.2965 428.545 95.5714C427.812 94.9507 427.04 94.3385 426.264 93.7493C426.707 94.3551 427.175 94.9974 427.575 95.6036ZM200.354 119.375C199.052 119.318 199.666 119.507 199.553 119.507C198.699 119.487 197.89 119.327 197.56 119.337C191.471 119.516 195.514 119.741 195.574 119.777C195.699 119.955 194.097 120.131 196.308 120.374C197.655 120.336 199.004 120.298 200.346 120.26C201.011 120.37 201.676 120.479 202.342 120.589C205.019 120.425 201.521 120.307 201.131 120.021C200.981 119.909 203.494 119.822 200.354 119.375ZM430.673 98.9641C430.991 99.7128 431.238 100.99 431.663 99.6874C431.663 99.6858 431.663 99.6841 431.663 99.6824C431.694 99.5662 431.724 99.2929 431.747 98.9304C431.789 99.4983 431.901 99.5257 431.918 99.4765C431.79 99.4181 431.509 99.1553 431.338 99.093C431.155 99.009 431.053 99.0439 431.031 99.185C431.005 99.3199 431.054 99.566 431.046 99.7487C431.038 99.8307 431.011 99.897 430.938 99.829C430.87 99.7532 430.724 99.5243 430.678 98.9218C430.677 98.9359 430.675 98.95 430.673 98.9641ZM224.474 119.202C226.641 119.304 228.804 119.404 230.974 119.503C230.935 119.688 230.895 119.873 230.856 120.058C229.698 119.994 228.532 119.929 227.377 119.864C226.969 119.943 226.562 120.022 226.154 120.101C227.59 120.332 229.028 120.562 230.467 120.792C232.207 120.74 233.93 120.686 235.675 120.633C234.877 120.526 234.078 120.418 233.285 120.311C237.526 120.253 236.605 120.693 240.103 120.903C241.31 120.744 242.517 120.585 243.719 120.425C245.45 120.615 247.195 120.804 248.934 120.992C251.854 120.936 252.106 120.806 250.149 120.593C251.593 120.381 253.196 120.747 254.945 120.668C255.09 120.662 254.819 120.448 254.947 120.447C264.002 120.367 263.5 120.912 264.957 120.945C265.984 120.966 270.035 120.607 270.112 120.478C270.179 120.305 261.714 119.602 274.98 119.62C268.14 119.139 260.326 119.571 265.377 120.288C263.188 120.211 253.648 120.32 253.025 120.292C252.134 120.254 252.442 119.995 251.333 119.979C250.682 119.969 248.923 120.555 243.723 119.982C243.057 120.073 242.39 120.165 241.721 120.256C241.098 120.169 240.468 120.082 239.848 119.994C241.136 119.72 242.431 119.446 243.716 119.17C238.612 119.433 234.403 118.795 231.301 119.252C228.62 119.161 227.318 119.087 228.472 118.849C227.669 118.838 226.865 118.828 226.061 118.817C225.532 118.945 225.003 119.074 224.474 119.202ZM424.671 105.328C422.387 106.142 421.826 107.018 422.188 106.906C424.237 106.217 425.845 104.891 424.671 105.328ZM205.186 119.789C208.119 119.999 211.06 120.206 213.996 120.412C213.999 120.216 214.002 120.02 214.005 119.824C211.067 119.814 208.122 119.803 205.186 119.789ZM426.74 95.4706C426.65 95.2034 426.553 94.9325 426.45 94.6583C423.865 93.2339 421.806 90.8454 420.455 90.1044C420.167 89.9474 420.558 90.5315 421.045 90.9421C421.4 91.1761 426.407 95.162 426.74 95.4706ZM306.917 43.9239C308.108 44.1475 309.256 44.3607 310.455 44.5894C310.347 44.7311 310.239 44.8728 310.131 45.0145C309.546 44.8851 308.973 44.7591 308.399 44.6334C307.908 44.3974 307.414 44.1609 306.917 43.9239ZM320.089 47.321C322.137 47.9169 324.18 48.5173 326.219 49.1236C318.359 47.0142 324.76 48.9326 319.958 47.7833C320.001 47.6292 320.045 47.4751 320.089 47.321ZM340.65 53.7464C340.372 53.7639 340.092 53.7811 339.812 53.7982C337.782 53.1741 335.759 52.5609 333.707 51.9466C334.915 52.6661 336.065 53.3709 337.274 54.097C338.025 54.3263 338.742 54.5464 339.502 54.781C339.885 54.4363 340.268 54.0914 340.65 53.7464ZM142.611 117.313C141.286 117.27 136.834 117.437 136.998 117.551C138.892 117.744 140.696 117.933 142.595 118.123C142.609 117.927 142.624 117.731 142.638 117.534C142.904 117.64 143.165 117.745 143.422 117.851C144.473 117.807 145.534 117.763 146.604 117.72C147.137 117.906 147.677 118.093 148.209 118.28C148.746 118.098 149.284 117.917 149.825 117.735C144.713 117.248 144.867 117.597 143.813 117.564C143.277 117.547 142.944 117.416 142.748 117.349C142.702 117.337 142.657 117.325 142.611 117.313ZM207.237 118.573C201.113 118.421 197.594 118.874 193.178 118.357C196.001 119.34 214.376 118.705 220.837 119.558C221.512 119.419 222.184 119.281 222.859 119.143C219.335 119.225 216.896 118.884 215.178 118.814C213.813 118.758 213.954 118.915 213.849 118.911C213.845 118.911 213.84 118.911 213.835 118.911C210.641 118.797 209.653 118.632 207.237 118.573ZM423.016 93.4609C424.136 94.5678 426.129 96.1637 426.364 95.9281C425.333 94.9335 424.239 93.9583 423.086 92.9808C423.277 93.2319 422.833 93.2751 423.016 93.4609ZM342.726 55.3875C343.89 55.8651 346.806 56.6867 345.656 56.0141C345.456 55.8944 342.521 55.1901 344.36 55.2103C341.582 54.3486 342.048 55.1101 342.726 55.3875ZM311.832 119.721C312.89 119.693 314.008 119.664 315.07 119.634C315.317 119.491 315.563 119.349 315.808 119.207C314.508 119.38 313.145 119.552 311.832 119.721ZM411.839 86.2367C411.001 84.9204 408.621 84.2282 406.623 82.398C405.788 81.8963 404.933 81.3879 404.096 80.8944C404.094 80.8932 404.092 80.892 404.09 80.8908C403.974 81.036 403.859 81.1812 403.743 81.3265C406.476 82.9348 409.18 84.5676 411.839 86.2367ZM244.516 119.436C245.181 119.528 245.836 119.619 246.508 119.711C247.699 119.623 248.887 119.534 250.07 119.444C249.431 119.367 248.791 119.29 248.15 119.213C246.937 119.288 245.72 119.362 244.516 119.436ZM396.981 77.5604C399.939 79.3263 401.355 79.4601 397.518 77.2857C395.907 76.3799 393.867 75.7153 396.981 77.5604ZM76.4802 114.417C77.6242 114.574 78.7742 114.724 79.9616 114.871C80.3663 114.78 80.7608 114.688 81.1729 114.597C79.6349 114.55 78.0146 114.487 76.4802 114.417ZM327.032 50.5896C327.2 50.5104 327.367 50.4311 327.535 50.3517C328.524 50.6665 329.568 50.9993 330.56 51.3183C330.273 51.3608 329.984 51.403 329.695 51.4451C328.809 51.1592 327.909 50.8702 327.032 50.5896ZM84.3287 115.127C85.2494 115.216 86.219 115.305 87.1407 115.388C87.7781 115.37 88.436 115.352 89.0542 115.33C88.2121 115.218 87.2752 115.099 86.4262 114.983C85.7497 115.034 85.0061 115.079 84.3287 115.127ZM368.214 63.9619C369.402 64.5473 374.492 65.9698 370.092 64.1954C367.28 63.0769 368.032 63.8727 368.214 63.9619ZM361.462 61.7079C366.119 63.6501 363.033 61.0088 357.03 59.9533C362.821 61.7917 361.183 61.5986 361.462 61.7079ZM318.742 49.2036C318.62 49.1684 318.58 48.9428 317.604 48.6591C314.078 47.634 309.397 46.255 306.88 45.5536C300.794 43.8292 281.92 39.2185 279.863 38.0801C279.435 37.8388 280.588 37.7542 280.406 37.6867C279.861 37.4883 276.687 36.8481 277.334 36.7326C280.407 37.5352 283.51 38.3501 286.587 39.1637C285.785 39.1527 284.979 39.1411 284.169 39.1288C291.883 41.0539 289.326 40.3956 291.647 40.573C292.917 41.0798 294.152 41.5784 295.418 42.0863C298.294 42.6853 301.141 43.2822 304.022 43.8954C303.351 43.84 302.672 43.7827 301.998 43.7271C306.21 45.1058 305.04 44.6348 307.458 44.9878C307.43 45.1073 307.403 45.2269 307.375 45.3464C311.553 46.1839 312.23 46.7579 313.14 47.0148C314.398 47.371 316.083 47.1336 319.115 48.03C320.539 48.4513 322.206 49.1008 324.279 50.1721C327.415 50.3572 326.928 51.6888 328.869 51.5093C333.599 53.7191 324.268 50.6646 319.788 49.3769C319.786 49.3762 319.784 49.3755 319.781 49.3748C319.445 49.2769 319.938 49.5508 318.779 49.2143C318.767 49.2108 318.755 49.2073 318.742 49.2036ZM344.379 56.0868C341.219 55.7464 352.933 59.5496 349.333 57.4311C348.756 57.2136 348.194 57.0016 347.627 56.7888C346.535 56.5493 345.466 56.3194 344.372 56.0846C344.374 56.0854 344.377 56.0861 344.379 56.0868ZM427.449 101.673C418.849 106.654 424.03 104.352 426.806 102.377C427.342 101.978 427.603 101.697 427.449 101.673ZM198.495 117.931C198.325 118.004 198.155 118.077 197.985 118.151C201.845 118.151 209.316 118.571 209.222 118.053C205.647 118.015 202.064 117.974 198.495 117.931ZM229.062 118.068C228.23 118.027 224.847 117.908 225.252 118.106C226.721 118.263 228.181 118.419 229.654 118.574C230.34 118.497 231.026 118.421 231.711 118.344C230.756 118.303 229.287 118.079 229.062 118.068Z" fill="#DEE08F"/>
</svg>
