<svg xmlns="http://www.w3.org/2000/svg">

<symbol id="arrow-link" width="7" height="7" viewBox="0 0 7 7" fill="none" xmlns="http://www.w3.org/2000/svg">
<path d="M6.76763 1.48063C6.82179 1.20985 6.64618 0.946434 6.3754 0.892278L1.96279 0.00975535C1.69201 -0.0444006 1.4286 0.131208 1.37444 0.401988C1.32028 0.672768 1.49589 0.93618 1.76667 0.990336L5.689 1.7748L4.90453 5.69712C4.85037 5.9679 5.02598 6.23132 5.29676 6.28547C5.56754 6.33963 5.83096 6.16402 5.88511 5.89324L6.76763 1.48063ZM0.277344 5.38257L0.554694 5.79859L6.55469 1.79859L6.27734 1.38257L5.99999 0.966543L-6.34789e-06 4.96654L0.277344 5.38257Z" fill="#74A5B6"/>
</symbol>

<symbol id="long-arrow" width="114" height="23" viewBox="0 0 114 23" fill="none" xmlns="http://www.w3.org/2000/svg">
<path d="M112.848 12.2129C113.437 11.633 113.443 10.6833 112.861 10.0917L103.377 0.450119C102.795 -0.141535 101.845 -0.151066 101.256 0.42883C100.666 1.00873 100.66 1.95845 101.242 2.55011L109.673 11.1204L101.134 19.5203C100.544 20.1002 100.538 21.0499 101.12 21.6416C101.702 22.2333 102.652 22.2428 103.241 21.6629L112.848 12.2129ZM0.00976562 10.0198L0.000200412 11.5197L111.784 12.6416L111.794 11.1417L111.804 9.64169L0.0193308 8.51981L0.00976562 10.0198Z" fill="#DEE08F"/>
</symbol>



</svg>