<svg width="1440" height="68" viewBox="0 0 1440 68" fill="none" xmlns="http://www.w3.org/2000/svg">
<path d="M24.2911 2.31995C54.5708 -3.17247 75.2139 2.68653 103.363 3.63119C110.394 3.86834 117.615 4.05472 125.343 4.19927C183.526 5.31693 254.193 3.92576 310.151 4.11959C358.083 4.28386 406.764 4.7507 454.393 5.16982C456.835 5.19068 458.29 5.79751 459.397 5.80762C469.832 5.90158 487.331 5.39709 497.659 5.50446C519.428 5.72614 557.279 5.75044 577.204 6.39324C585.749 6.66466 594.341 6.79917 597.644 8.24973C600.762 8.33572 602.458 7.04456 603.269 6.97731C603.278 6.97863 603.287 6.97995 603.297 6.98127C605.912 6.77299 612.445 7.71167 613.874 7.66141C614.101 7.65356 612.731 6.70702 616.289 7.00696C616.604 7.0328 616.314 7.67082 619.293 7.69342C620.086 7.69899 629.972 6.76455 632.768 6.71854C642.342 6.56837 664.593 7.45683 676.011 7.51517C677.73 7.52567 678.719 7.15775 680.519 7.16234C681.449 7.16427 682.834 7.57902 683.118 7.57861C684.403 7.57215 690.013 5.76495 687.981 9.39023C693.792 9.19777 692.076 7.98379 692.217 7.20342C695.279 7.16879 697.532 7.56558 699.23 7.76954C701.079 7.98339 702.293 7.98611 703.147 7.06377C733.981 7.504 764.893 8.00802 795.744 8.61201C795.757 8.31608 795.77 8.02015 795.783 7.72422C804.881 9.02123 808.056 7.06462 813.196 8.85237C816.296 8.51686 819.678 8.18648 822.833 7.85411C882.215 9.49036 941.457 10.612 1000.06 11.0961C1022.74 11.2783 1045.44 11.3773 1068.08 11.5343C1071.5 11.5574 1072.37 12.1937 1078.01 12.2332C1084.25 12.2762 1093.02 11.5927 1101.24 11.6399C1108.45 11.6812 1119.1 12.3202 1127.13 12.44C1128.95 12.4661 1130.27 12.0713 1130.47 12.0742C1131.68 12.0936 1131.73 12.7255 1132.9 12.747C1134.3 12.7713 1135.97 12.3083 1137.59 12.3418C1143.61 12.4635 1150.18 12.3172 1150.94 12.3298C1154.59 12.3978 1155.42 13.0171 1155.72 13.0245C1159.81 13.1082 1158.28 12.5474 1159.29 12.5817C1164.57 12.7625 1168.28 14.1608 1175.54 12.8341C1175.34 13.3504 1175.14 13.8667 1174.94 14.3829C1180.46 14.6803 1176.82 13.3033 1177.94 13.0561C1178.42 12.9653 1190.32 13.1436 1191.24 13.1679C1194.43 13.2586 1194.5 13.9449 1194.79 13.9543C1195.49 13.9771 1203.51 13.2011 1207.65 13.8C1212.49 14.51 1206.79 15.9064 1208 16.1686C1208.18 16.2131 1213.32 16.0696 1214 16.5064C1214.77 16.9765 1210.33 16.9673 1210.39 17.1644C1210.46 17.3 1217.79 18.2678 1216.38 18.9205C1215.27 19.5757 1205.31 18.7375 1203.18 19.0443C1202.83 19.0951 1203.49 19.9029 1203.18 19.9325C1201.96 20.0434 1179.02 20.0525 1177.95 19.9158C1179.13 19.5493 1180.35 19.1828 1181.54 18.8161C1179.95 18.7774 1178.34 18.7384 1176.77 18.6994C1179 18.4072 1181.31 18.1149 1183.55 17.8222C1180.19 14.7908 1170.09 17.8482 1169.66 19.3589C1169.46 20.0578 1175.68 21.8652 1169.9 22.9045C1170.77 23.0852 1171.66 23.2659 1172.53 23.4465C1174.34 23.1542 1176.14 22.8616 1177.93 22.5689C1176.74 22.3817 1175.54 22.1944 1174.34 22.007C1174.79 21.7974 1175.23 21.5877 1175.67 21.3781C1179 21.0451 1182.43 20.7116 1185.77 20.3773C1187.48 20.5341 1187.14 21.1543 1188.33 21.2752C1203.16 22.7954 1193.53 20.8672 1203.21 21.1475C1204.61 21.481 1206 21.8144 1207.39 22.1477C1206.89 20.7695 1211.22 21.6353 1216.4 21.0391C1215.78 21.4854 1215.17 21.9316 1214.55 22.3777C1222.1 22.1398 1237.37 24.3749 1233.25 21.9172C1235 22.1258 1236.71 22.3343 1238.42 22.5427C1239.9 22.1386 1241.37 21.7344 1242.82 21.3301C1244.79 21.3738 1246.88 21.4171 1248.88 21.4603C1248.88 21.6781 1248.89 21.896 1248.9 22.1139C1247.32 22.1175 1245.64 22.1211 1244.06 22.1245C1245.23 22.7869 1246.51 23.449 1247.71 24.1112C1248.9 23.9993 1250.06 23.8873 1251.24 23.7752C1246.31 23.1549 1252.83 22.1194 1254.44 21.2399C1255.38 21.1657 1256.23 21.1651 1257 21.2094L1256.88 21.21C1259.68 21.3433 1261.52 22.0195 1262.6 22.0491C1263.2 22.0688 1271.06 19.983 1268.01 22.2196C1271.95 21.912 1276.03 21.6002 1279.99 21.2862C1281.58 21.4368 1283.15 21.5872 1284.69 21.7372C1281.33 22.8066 1291.14 23.9223 1283.93 24.4384C1278.5 24.8239 1277.19 23.8765 1274.6 23.9117C1272.25 23.9419 1271.06 24.6015 1268.55 24.6558C1264.46 24.7402 1260.75 24.8012 1256.91 24.8462L1257.01 24.8457C1245.04 24.9029 1233.95 24.7946 1221.68 24.5823C1218.48 24.5263 1215.59 24.8443 1213.45 24.8004C1211.03 24.7496 1214.07 23.9376 1210.97 24.1355C1207.73 24.3446 1207.05 25.0067 1206.2 25.02C1205.66 25.0274 1203.98 24.4314 1202.41 24.4311C1196.08 24.4303 1186.7 24.9996 1185.8 24.9953C1184.81 24.9894 1166.74 24.4295 1165.91 24.3287C1165.45 24.2746 1166.41 22.0762 1162.42 24.415C1161.17 24.4564 1159.95 24.4977 1158.71 24.5389C1158.91 24.0997 1159.11 23.6604 1159.31 23.2212C1151.97 24.8732 1154.5 23.9462 1147.42 24.0607C1130.48 24.3372 1105.49 23.8756 1086.97 23.9249C1082.84 23.9373 1081.24 24.4545 1076.36 24.4621C1071.81 24.4685 1059.95 22.8134 1062.52 25.0071C1052.42 23.0487 1050.79 26.2819 1045.72 24.213C1045.1 24.5025 1044.49 24.7919 1043.87 25.0814C1038.42 23.768 1036.67 24.8638 1030.69 24.9577C1028.1 24.9979 1031.08 23.6835 1025.86 25.1273C1024.87 25.0053 1023.89 24.8833 1022.88 24.7608C1023.11 24.4378 1023.35 24.1148 1023.59 23.7918C1017.76 23.9947 1017.42 23.8195 1018.06 25.0456C1015.3 24.7924 1012.44 24.5367 1009.67 24.2805C1009.32 24.6761 1008.97 25.0716 1008.62 25.4671C1009.92 26.2972 1073.51 25.7207 1082.35 25.3636C1092.73 26.3329 1113.59 25.2953 1121.98 25.5378C1125.34 25.6363 1126.81 26.546 1131.7 26.6703C1136.57 26.7944 1142.74 25.9895 1145.33 25.9666C1154.01 25.8944 1195.04 26.1272 1167.13 27.2145C1167.93 27.6566 1168.73 28.0988 1169.53 28.5408C1180.64 27.0515 1176.62 27.9726 1185.81 28.1367C1189.71 28.2068 1198.91 27.2265 1198.4 29.2286C1191.18 29.5989 1183.57 28.9527 1177.29 28.9741C1176.69 28.9767 1169.25 29.8815 1165.45 29.6265C1162.01 29.3937 1164.37 27.4895 1156.89 29.6186C1151.31 27.5134 1148.13 29.4051 1146.65 29.6035C1144.1 29.9473 1143.84 28.9132 1141.3 28.7861C1138.54 28.6457 1136.63 29.3261 1136.25 29.3295C1132.47 29.3366 1112.73 29.3588 1111.83 28.936C1112.62 28.756 1113.42 28.576 1114.21 28.3959C1109.08 28.0801 1110.15 29.1408 1108.8 29.2617C1107.8 29.2535 1106.8 29.2453 1105.79 29.237C1106.19 29.0196 1106.59 28.8022 1106.99 28.5847C1100.94 28.604 1105.56 29.3876 1096.97 29.3262C1091.52 29.2859 1085.88 28.4174 1085.36 28.4762C1085.2 28.4931 1086.91 29.0669 1084.69 29.13C1081 29.2336 1074.65 29.1796 1073.94 28.4073C1072.13 28.5043 1072.28 29.2562 1072.04 29.2717C1071 29.3409 1052.97 29.4661 1049.76 29.4804C1040.81 29.5288 1030.86 29.2757 1021.18 29.2951C1020.18 29.2967 1020.82 28.8219 1019.83 28.8263C1018.24 28.8344 1009.98 29.4926 1008.77 29.5298C1006.82 29.5896 1002.73 29.4424 999.806 29.3823C998.141 29.3485 996.822 29.3417 996.368 29.4134C996.186 29.4419 998.835 30.1311 995.726 30.2887C992.289 30.4623 994.152 29.6131 993.964 29.6017C986.958 29.199 982.517 29.7351 977.749 29.773C976.201 29.7848 973.332 29.0762 971.153 29.2325C970.902 29.2502 971.388 29.8681 971.141 29.8937C967.834 30.1551 964.749 28.9676 963.329 28.8681C959.83 28.624 961.721 29.4937 961.539 29.4963C959.199 29.4792 956.077 29.119 952.524 29.0897C936.708 28.9588 923.781 28.7343 906.978 28.3362C904.842 28.286 902.371 27.6473 902.047 27.64C901.049 27.6243 901.329 28.3217 898.426 28.2479C892.341 28.0904 886.731 28.0137 880.64 27.8845C879.443 27.8589 878.941 27.2085 878.021 27.1773C874.901 27.0774 864.316 28.5634 864.134 26.4727C858.008 28.2125 853.867 26.5485 848.938 26.4841C837.198 26.3262 818.732 26.4278 807.055 26.0353C804.539 25.9505 803.424 25.401 802.067 25.3545C799.638 25.268 785.561 25.3947 784.805 25.3032C783.378 25.1247 784.145 22.7761 776.812 24.7462C772.463 24.844 772.968 23.883 772.064 23.8209C765.021 23.3556 758.217 25.4459 759.493 23.4813C751.284 23.9354 746.043 24.9801 742.641 23.0999C742.673 24.0025 738.917 24.5092 734.259 24.1249C739.083 22.652 738.261 21.6735 749.914 22.0605C750.094 22.0666 749.744 22.7158 749.924 22.722C751.584 22.7818 754.891 22.4845 757.731 22.5484C760.565 22.6123 758.986 23.0425 760.117 23.0454C761.149 23.047 761.123 22.4223 762.607 22.4287C767.384 22.4534 771.63 22.3273 774.397 22.3468C776.126 22.3594 778.034 22.9295 779.352 22.9445C784.527 22.9979 795.494 22.7013 802.056 22.8472C803.423 22.879 802.785 23.4861 805.821 23.5771C806.175 23.5877 807.489 22.963 810.116 22.8655C812.755 22.7681 814.693 23.1138 816.425 23.0716C817.854 23.0363 817.275 22.4576 820.178 22.4634C822.484 22.4599 849.823 23.2969 851.339 23.4208C853.467 23.5878 854.401 24.4048 855.746 24.3301C855.979 24.3132 856.385 23.5466 857.186 23.505C870.29 22.8087 899.218 24.427 914.139 24.7331C943.456 25.327 970.597 25.4992 999.857 25.7027C1001.73 25.7157 1003.63 25.7292 1005.55 25.7432C1006.12 25.616 1006.69 25.4887 1007.25 25.3613C1004.77 25.3256 1002.3 25.2889 999.863 25.2513C999.142 25.2402 998.423 25.229 997.706 25.2177C997.691 24.8535 997.675 24.4892 997.66 24.125C993.356 24.006 993.928 24.8744 994.037 25.3957C992.47 25.1523 990.864 24.9078 989.275 24.663C987.882 25.9119 977.314 24.8991 971.831 24.8026C968.284 24.7406 964.031 25.1462 962.163 25.0737C958.195 24.922 958.318 24.1408 958.006 24.1225C957.481 24.095 951.932 24.6792 947.942 24.5732C942.041 24.4178 941.434 23.2037 933.325 24.059C922.984 23.2236 911.506 23.2977 900.332 23.175C902.475 22.1068 892.464 22.9572 887.92 22.8521C860.39 22.1991 826.525 21.1748 798.609 20.3881C795.005 20.2869 792.257 19.5988 790.306 19.5968C789.232 19.5949 788.754 20.3608 787.249 20.2408C786.982 20.218 786.818 19.4943 783.986 19.3525C777.04 18.9957 759.68 20.0163 755.224 18.5897C736.559 18.5734 717.877 18.5874 699.154 18.6242C694.087 18.6352 688.922 18.6472 683.665 18.66C683.049 18.3613 682.482 18.0629 681.889 17.7644C677.432 19.2415 659.533 18.2506 650.71 18.276C635.464 18.3206 615.664 18.6976 602.305 18.6932C599.381 18.6921 596.913 18.2545 594.19 18.2522C593.007 18.2519 591.531 18.8001 590.295 18.798C576.324 18.7843 557.525 18.1468 543.49 18.1154C511.596 18.0421 481.657 17.8812 449.37 17.8363C340.846 17.6921 232.763 18.4298 125.337 18.0613C125.174 18.0608 125.011 18.0602 124.849 18.0597C123.364 18.0546 123.44 17.4176 122.299 17.4126C115.656 17.3786 101.025 17.8974 93.4704 17.8653C87.5338 17.8405 78.1377 16.8623 76.0237 17.8423C91.9768 18.9699 108.7 19.1883 125.337 19.4102C130.524 19.4822 136.235 19.5548 141.484 19.6589C143.027 19.6888 143.223 20.2945 143.413 20.3057C146.968 20.5177 144.695 19.6826 149.924 19.6473C151.725 19.6354 167.541 21.5765 165.72 19.651C169.419 20.4225 196.445 20.8218 201.614 20.5703C203.178 20.4935 202.071 19.9227 202.382 19.894C203.731 19.7689 204.343 20.5554 205.556 20.5765C208.783 20.6273 217.113 19.995 218.617 20.0004C222.153 20.0096 233.099 20.6572 237.761 20.51C242.112 20.3756 241.298 19.5537 245.089 19.4812C248.066 19.4262 244.88 20.1145 251.464 20.3283C254.681 20.4329 266.301 19.9486 269.047 19.9511C271.818 19.9536 274.913 20.4478 278.778 20.4137C284.421 20.3657 296.347 20.104 302.076 19.9526C302.413 19.9441 303.252 19.3061 304.075 19.3203C305.784 19.3489 305.27 20.1374 306.561 20.2189C307.823 20.2998 330.382 20.2296 334.19 20.2436C336.829 20.2514 338.658 19.7837 340.122 19.7898C341.269 19.7957 341.402 20.4531 342.559 20.462C342.918 20.4625 345.976 19.8956 349.043 19.9131C351.925 19.9302 363.001 20.4887 364.245 20.4958C365.074 20.4992 364.166 20.0308 366.616 20.0455C368.851 20.0602 370.32 20.6689 371.596 20.6797C374.557 20.7038 377.874 20.1918 381.026 20.1943C390.033 20.2019 389.578 20.9527 390.117 20.9779C391.619 21.0482 392.222 20.3611 392.716 20.3478C394.797 20.2935 399.915 20.1751 401.768 20.1516C404.076 20.1223 405.053 20.778 407.507 20.7846C409.337 20.7874 413.034 20.1564 417.215 20.1331C426.634 20.0773 437.827 19.9791 447.077 20.0231C449.835 20.0356 450.256 20.6334 451.099 20.6508C455.528 20.7422 458.008 20.0804 459.271 20.0919C468.301 20.1717 484.376 21.2574 492.75 21.3681C496.133 21.4121 511.108 20.9686 519.478 21.0798C520.441 21.0915 519.537 21.5569 520.613 21.4868C523.187 21.3187 522.95 20.3651 524.254 20.3978C524.883 20.4165 526.316 20.958 528.144 21.0169C537.604 21.3228 544.136 20.9263 548.464 20.9693C589.923 21.3829 632.368 21.8099 671.103 22.1242C675.507 22.1593 680.66 21.6236 687.317 22.2173C687.518 22.5147 687.719 22.812 687.919 23.1094C688.151 22.82 688.383 22.5306 688.615 22.2411C693.179 22.1744 695.953 22.015 699.13 21.9994C701.21 21.9903 703.45 22.0381 706.369 22.2026C707.021 22.2384 708.992 23.6046 710.219 21.935C717.565 23.2069 713.566 21.9503 719.151 21.8808C724.745 21.812 730.014 22.2307 735.484 22.363C738.465 22.9899 725.928 24.2692 725.215 24.2599C723.929 24.244 722.591 23.3984 721.338 23.344C717.643 23.1816 713.911 23.8153 713.16 23.0647C708.435 23.8165 714.314 23.4675 713.716 24.1725C710.582 23.855 707.406 23.5378 704.186 23.2211C703.679 23.9548 701.667 24.1585 699.115 24.1405C693.573 24.1011 685.226 22.9195 686.075 24.201C684.66 23.824 683.206 23.4469 681.844 23.0704C675.769 25.3374 672.031 23.6914 663.848 22.9587C664.433 23.2568 665.018 23.555 665.602 23.8531C665.446 23.9751 658.23 24.4058 660.817 23.1646C653.404 24.778 653.609 22.027 646.991 23.9818C643.053 24.2167 645.449 23.073 638.345 23.0571C634.094 23.0469 628.912 23.6262 624.228 23.6465C623.147 23.6493 622.68 22.978 621.715 22.9735C620.751 22.9694 620.276 23.6233 619.104 23.6345C616.682 23.659 613.527 23.1844 612.053 23.2223C610.714 23.2543 608.798 23.8246 605.549 23.9017C594.169 24.1755 597.58 23.3638 595.793 23.0767C593.883 22.7716 592.508 23.8548 588.677 23.7134C588.292 23.6986 589.29 23.024 588.039 23.0457C587.029 23.0626 586.523 23.7981 583.167 23.9227C581.774 23.972 561.188 24.0548 557.975 24.0581C553.194 24.0615 542.403 23.4019 537.405 23.3909C535.488 23.385 533.434 23.9708 531.39 23.9606C524.604 23.9264 513.76 23.8448 505.156 23.7927C497.389 23.7445 483.839 22.4031 479.576 23.5729C468.721 23.6998 466.072 22.6858 465.254 22.6701C463.038 22.6273 462.006 23.293 459.214 23.3178C423.043 23.624 375.357 23.1033 341.134 23.1132C269.409 23.1358 197.22 23.4016 125.335 23.2319C117.373 23.2133 109.632 23.1896 101.988 23.1598C101.777 23.4558 101.584 23.7518 101.358 24.0478C108.72 24.2032 117.272 24.5651 125.334 24.767C127.273 24.8181 129.197 24.859 131.074 24.8836C143.574 25.0442 161.934 23.8197 171.068 25.8481C167.484 26.0237 161.313 25.2448 161.445 26.2855C168.26 26.3632 174.534 26.4407 181.329 26.5186C181.128 26.0379 180.928 25.5571 180.728 25.0764C187.537 24.9402 194.733 25.0491 201.579 24.9844C202.771 24.9738 201.926 24.537 202.966 24.5354C204.131 24.5345 203.341 24.9781 203.559 24.9818C206.507 24.988 207.411 24.5393 207.772 24.546C208.704 24.5644 207.975 24.9915 210.669 25.1131C215.741 25.3402 219.143 24.2064 218.015 26.0984C219.602 26.0994 221.196 26.1005 222.796 26.1016C223.211 25.5866 223.627 25.0717 224.042 24.5567C234.026 26.6438 238.375 22.9982 243.882 25.8977C245.682 25.457 247.514 25.0162 249.305 24.5754C250.304 25.0915 251.306 25.6075 252.309 26.1236C252.505 25.6816 252.701 25.2395 252.898 24.7975C262.548 25.1314 272.825 24.6097 282.112 24.6696C288.598 24.7113 290.059 24.8874 295.783 24.86C308.513 24.798 295.9 25.662 306.433 26.6209C305.888 26.0781 305.343 25.5354 304.799 24.9926C306.533 24.7958 308.271 24.5991 310.013 24.4023C311.225 24.8459 312.439 25.2894 313.655 25.733C319.05 23.4455 322.588 25.3012 323.307 25.302C323.899 25.2987 325.915 23.9203 332.293 25.0976C329.647 23.2066 337.165 25.0926 337.773 25.1045C338.358 25.1129 345.669 24.701 348.628 24.7227C350.959 24.7393 355.945 25.1525 359.439 25.1376C362.528 25.1243 362.2 24.483 362.428 24.4767C366.196 24.4288 363.833 24.9234 366.56 24.9518C369.287 24.9801 371.409 24.4372 371.999 24.4869C372.296 24.5134 371.302 25.1088 372.662 25.1685C376.312 25.3312 382.928 24.8189 387.09 24.8412C388.569 24.8484 390.433 25.3578 392.083 25.3761C394.612 25.4023 395.796 24.7317 397.267 24.7542C397.778 24.7638 401.047 25.8084 405.091 25.6559C405.861 25.6252 408.128 23.4305 411.132 26.551C411.365 26.1131 411.598 25.6752 411.831 25.2373C425.443 24.1769 429.2 27.7457 435.255 24.5975C445.127 24.9705 438.347 26.1877 439.43 26.3786C440.13 26.4992 443.35 26.1674 443.703 26.1874C444.33 26.2265 444.221 26.6214 444.907 26.6206C457.49 26.5741 451.905 25.8163 455.89 25.3522C465.365 24.2481 472.76 26.7629 456.275 25.976C456.275 26.1964 456.274 26.4169 456.274 26.6373C460.324 26.4354 470.642 26.5593 467.195 27.6694C464.474 28.5434 440.047 27.9156 453.882 29.1814C457.025 29.4679 458.645 28.6441 464.092 30.2077C467.693 30.3001 468.218 28.2916 473.088 29.1097C472.288 28.4067 471.489 27.7037 470.689 27.0008C477.33 26.1024 485.536 27.3485 490.642 26.9689C492.378 26.8394 498.624 23.5132 497.161 26.8512C500.059 26.6502 513.837 27.3036 516.366 27.0115C516.983 26.941 517.763 25.1636 526.675 25.8112C527.292 26.0361 527.909 26.2609 528.526 26.4858C520.393 27.1093 534.746 27.8116 530.843 29.4882C529.525 28.7252 523.074 28.2431 522.031 27.8585C520.259 27.1964 525.545 26.3651 518.813 26.5764C514.569 29.3858 526.698 28.1227 524.839 30.7967C533.676 29.5723 534.536 30.7688 536.528 30.8246C545.059 31.0532 550.478 30.787 558.473 31.1271C560.436 30.5832 545.91 29.7399 544.078 29.9718C550.761 28.0428 539.236 27.917 534.458 29.0609C534.055 28.4701 533.653 27.8793 533.25 27.2884C539.487 27.6272 545.69 27.8112 551.894 27.3482C552.297 27.57 552.701 27.7918 553.104 28.0136C551.711 28.3409 550.316 28.6682 548.918 28.9956C554.086 29.5563 551.001 27.8267 557.858 29.3563C558.073 28.6931 558.286 28.0299 558.503 27.3667C565.168 27.6101 571.757 27.8542 578.344 28.0994C581.841 26.7808 594.532 27.3268 592.197 29.0413C597.299 29.1836 591.007 28.2408 595.784 27.8408C597.892 27.6673 602.017 27.6333 603.025 28.1014C602.595 29.7409 596.39 29.9189 594.566 31.0388C595.723 31.4051 624.193 30.3574 621.672 32.267C623.948 32.5083 622.913 31.5146 627.003 31.2806C638.472 30.6281 656.38 32.6766 665.543 30.278C654.819 28.852 651.366 30.2797 643.164 30.295C637.806 30.3018 605.338 30.3869 612.615 28.6849C611.432 28.9001 610.247 29.1154 609.06 29.3307C607.863 28.809 606.663 28.2873 605.46 27.7657C608.864 27.7058 612.201 27.646 615.611 27.5869C616.427 28.1058 617.242 28.6247 618.056 29.1437C618.434 28.7775 618.812 28.4114 619.19 28.0453C620.627 27.9787 622.061 27.9123 623.491 27.8458C623.087 28.2862 622.683 28.7265 622.279 29.1668C624.485 29.2526 626.681 29.3385 628.868 29.4246C628.282 28.8309 627.695 28.2373 627.108 27.6436C637.38 27.5441 633.989 27.8981 639.729 29.0317C644.022 29.1665 636.793 27.9938 645.848 27.7518C656.34 27.4723 649.543 29.2403 663.167 28.9302C663.365 28.6365 663.561 28.3428 663.758 28.0492C666.695 28.3607 669.797 28.6736 672.808 28.9865C672.411 28.6175 672.013 28.2486 671.614 27.8796C677.871 28.0585 686.328 27.413 688.449 28.8653C682.088 28.1315 682.137 30.6434 683.782 31.1153C684.904 31.4333 691.152 31.5867 699.063 31.6526C715.631 31.786 740.321 31.5872 746.815 31.6097C759.076 31.6454 768.563 32.5485 779.822 31.4404C772.164 30.333 745.294 30.8948 740.147 30.1525C739.646 30.0793 739.819 27.7788 736.558 30.3397C725.916 29.8066 713.647 30.4417 700.431 30.2733C700.842 29.6135 701.253 28.9538 701.663 28.294C709.808 29.761 717.08 26.7229 716.083 29.2895C717.711 29.3021 719.326 29.3149 720.93 29.3278C720.934 28.8843 720.938 28.4408 720.941 27.9974C723.359 28.0168 725.752 28.0364 728.119 28.0562C728.116 28.4997 728.112 28.9431 728.108 29.3866C730.08 29.4031 732.16 29.4208 734.158 29.4382C734.371 28.9978 734.584 28.5575 734.797 28.1171C740.688 29.0836 761.162 26.8268 752.193 29.3807C754.959 29.4075 757.777 29.4355 760.626 29.4645C760.62 29.1402 760.614 28.8158 760.608 28.4915C761.826 28.4603 763.036 28.4292 764.239 28.3981C763.84 28.6875 763.44 28.9769 763.04 29.2662C768.499 28.7967 773.845 30.4004 777.452 29.4255C775.074 29.177 772.666 28.9288 770.228 28.6807C774.948 29.1522 783.23 28.3744 784.088 28.3826C786.423 28.4055 787.637 29.0755 790.12 29.1388C792.354 29.1943 792.048 28.6869 792.463 28.7097C804.76 29.3759 799.956 32.0439 805.712 28.89C806.322 29.339 806.93 29.7881 807.535 30.2371C808.354 29.8801 809.169 29.5232 809.981 29.1663C813.557 29.2493 817.159 29.3342 820.781 29.4208C819.589 28.8525 818.388 28.2842 817.179 27.716C822.643 27.5472 825.059 28.6887 825.579 28.7215C827.073 28.8079 827.775 28.1247 828.236 28.1303C850.251 28.5289 836.852 28.9325 847.811 31.7147C851.766 30.7578 847.804 29.6668 847.253 28.6175C852.506 29.1926 854.047 28.9305 859.602 29.0848C861.031 29.1254 862.543 29.7134 863.431 29.7367C864.216 29.7573 866.71 29.2054 868.579 29.237C871.656 29.2883 875.908 29.7225 880.129 29.7938C883.751 29.8529 894.581 29.6425 902.229 29.7936C905.449 29.8587 904.701 30.3426 905.542 30.3607C905.895 30.3679 908.45 29.8223 910.518 29.8623C927.509 30.1968 944.877 30.9433 961.938 31.2497C973.954 31.4671 986.147 31.1906 998.196 31.4082C999.167 31.426 999.58 31.4964 999.776 31.5791C1000.09 31.7159 999.829 31.8865 1000.52 31.9057C1000.9 31.9147 1001.36 31.1563 1005.32 31.5161C1006.76 31.6457 1005.1 32.1595 1006.52 32.2044C1007.21 32.2258 1007.5 31.5594 1011.5 31.4554C1018.81 31.2645 1022.67 32.1986 1023.34 32.1796C1024.57 32.1414 1024.21 31.5822 1025.83 31.5794C1033.79 31.5652 1040.4 31.532 1047.49 31.5455C1050.79 31.5569 1073.61 31.609 1074.87 31.7124C1077.67 31.9519 1075.05 33.0952 1078.64 33.0779C1079.65 32.7905 1080.66 32.5031 1081.67 32.2155C1080.07 31.983 1078.47 31.7503 1076.88 31.5174C1081.28 31.9177 1086.28 31.4188 1089.54 31.4563C1090.14 31.4643 1095.68 32.0193 1098.51 31.9753C1097.31 32.1874 1096.1 32.3993 1094.9 32.611C1095.33 32.7991 1095.75 32.987 1096.17 33.175C1101.83 32.9216 1107.81 32.9558 1113.62 33.0192C1115.71 33.0412 1115 33.4899 1117.12 33.5136C1129.45 33.6543 1126.34 31.7663 1138.2 35.3258C1134.19 34.9964 1119.57 35.3951 1117.45 35.2683C1115.97 35.1808 1110.24 32.1796 1112.33 35.2441C1100.48 35.18 1110.78 33.5403 1099.72 33.8576C1099.94 34.2316 1100.16 34.6057 1100.37 34.9797C1096.51 35.1964 1093.66 35.3701 1091.32 34.6996C1090.52 36.5057 1077.41 35.3742 1070.2 35.4465C1059.8 35.5506 1048.05 35.8999 1037.75 35.8811C1034.19 35.8742 1032.21 35.1451 1031.76 35.143C1031.1 35.1416 1029.26 35.7442 1027.96 35.7352C1023.13 35.7067 1008.37 34.4843 1004.67 36.1566C1033.54 36.532 1062.4 36.7518 1091.28 36.9065C1087.65 36.0443 1116.86 36.0987 1118.33 36.1407C1119.7 36.1837 1118.54 36.7744 1118.95 36.8121C1121.99 37.0787 1124.58 36.2249 1125.54 36.2282C1126.28 36.2309 1127.75 36.6408 1130.37 36.6403C1130.85 36.6406 1130.99 36.2129 1131.5 36.2132C1134.9 36.2239 1138.27 36.2397 1141.69 36.2467C1141.9 36.2514 1142.76 36.879 1143.62 36.8823C1144.48 36.8845 1145.34 36.2619 1145.56 36.2605C1148.31 36.2719 1152.95 36.6888 1155.58 36.6986C1156.48 36.7002 1155.86 36.241 1156.87 36.2475C1159.98 36.2647 1158.94 37.1592 1162.78 36.9353C1164.08 36.8598 1164 36.1742 1166.46 36.2686C1168.21 36.3357 1168.01 37.5571 1168.29 37.6019C1168.65 37.6562 1174.72 36.7001 1176.67 37.5018C1172.37 39.6076 1181.37 37.6174 1180.95 36.726C1183.35 36.9528 1185.69 37.1791 1188.1 37.4052C1188.92 37.1803 1189.74 36.9553 1190.56 36.7302C1200.19 37.7526 1206.04 37.1433 1215.53 37.4541C1215.95 37.4698 1224 37.9679 1223.59 38.2852C1218.84 38.8337 1214.07 38.8598 1210.99 37.851C1205.99 39.7752 1205.83 38.2425 1197.75 38.4951C1195.03 38.5805 1194.82 39.1023 1194.51 39.1088C1183.94 39.3645 1167 39.5668 1159.86 38.0259C1157.87 38.435 1165.04 38.6118 1162.25 38.9108C1160.74 39.0817 1124.06 39.4708 1135.78 37.745C1134.57 37.7902 1133.35 37.8352 1132.14 37.8801C1130.92 39.5366 1124.87 39.1368 1125.56 37.4856C1124.99 37.8221 1124.41 38.1584 1123.84 38.4948C1122.71 38.7771 1121.37 38.9257 1119.49 39.0096C1112.29 39.343 1069.51 38.5374 1067.23 38.7447C1067.18 39.1366 1067.13 39.5284 1067.07 39.9202C1085.97 40.4937 1104.31 39.6107 1124.93 40.8056C1124.33 40.4357 1123.73 40.0658 1123.13 39.6958C1131.35 40.2402 1139.58 40.7797 1147.81 41.3146C1139.1 41.9604 1125.24 42.4769 1116.11 41.8921C1114.48 41.788 1115.67 41.2796 1115.3 41.216C1114.33 41.0508 1113.28 41.9368 1109.77 42.0086C1106.27 42.0808 1097.46 41.4082 1096.66 41.4214C1095.1 41.4504 1090.9 42.4471 1088.25 42.4195C1084.77 42.3825 1087.11 41.7651 1086.41 41.748C1083.52 41.6699 1080.92 41.9669 1078.66 41.9065C1075.31 41.8173 1068.32 40.6628 1065.97 42.2736C1068.37 42.3646 1070.77 42.4551 1073.17 42.5449C1060.15 43.0434 1049.99 40.8848 1037.14 42.3701C1034.2 44.3135 1044.83 44.146 1035.84 44.9034C1037.47 44.8906 1039.11 44.8776 1040.73 44.8641C1041.12 44.4549 1041.5 44.0456 1041.88 43.6363C1044.67 43.956 1047.5 44.275 1050.29 44.5926C1049.49 44.2183 1048.7 43.8438 1047.9 43.4692C1057.83 43.2758 1067.88 42.967 1071.32 44.9669C1071.53 44.4902 1071.74 44.0134 1071.95 43.5367C1081.17 44.1801 1095.03 42.2257 1092.43 44.872C1092.87 44.7333 1093.3 44.5946 1093.74 44.4559C1099.31 45.0278 1096.94 43.9156 1099.03 43.8017C1099.63 43.7704 1110.47 44.387 1105.66 45.1552C1116.23 45.8046 1112.98 43.3035 1115.9 43.2063C1122.66 44.4655 1134.84 42.6561 1129.72 44.586C1130.72 44.6623 1131.73 44.7386 1132.74 44.8147C1136.04 43.2937 1139.32 45.0356 1142.9 45.6242C1144.11 45.662 1145.33 45.6997 1146.55 45.7373C1147.37 45.224 1148.18 44.7108 1149 44.1974C1160.42 46.6752 1156.84 39.96 1162.03 45.6047C1161.22 45.9403 1160.41 46.2759 1159.59 46.6115C1157.67 46.7681 1155.73 46.9244 1153.79 47.0804C1161.6 47.2458 1169.37 47.4072 1177.16 47.565C1187.06 49.1554 1192.68 47.4459 1203.66 48.6977C1204.69 48.548 1205.72 48.3981 1206.75 48.2482C1205.7 49.5241 1201.73 49.3365 1209.13 49.9093C1209.76 50.8116 1204.78 50.9283 1202.45 50.2356C1201.9 50.0666 1206.61 49.3764 1201.33 49.3509C1197.75 49.3322 1204.28 50.4195 1193.51 50.013C1193.91 50.2337 1194.3 50.4543 1194.7 50.675C1193.54 50.668 1192.38 50.6609 1191.22 50.6538C1190.19 50.143 1189.15 49.6322 1188.11 49.1213C1185.42 49.8559 1183.98 50.8876 1177.86 50.6611C1179.5 50.3434 1177.29 49.3167 1174.28 49.3302C1174.28 49.6993 1174.28 50.0684 1174.27 50.4376C1166.95 50.665 1169.52 49.5857 1163.44 50.4212C1162.83 50.1267 1162.22 49.8321 1161.61 49.5375C1158.34 50.742 1146.16 51.5374 1148.39 49.7291C1144.96 51.4834 1137.82 50.6691 1135.15 49.2516C1134.95 49.6176 1134.74 49.9835 1134.54 50.3495C1133.12 50.4196 1131.71 50.4895 1130.29 50.5593C1129.5 50.3351 1128.71 50.1108 1127.91 49.8864C1126.91 50.1048 1125.91 50.3231 1124.9 50.5414C1124.3 50.1715 1123.69 49.8015 1123.09 49.4315C1121.47 49.8667 1119.85 50.3016 1118.24 50.7364C1117.25 50.4391 1116.27 50.1418 1115.28 49.8444C1115.17 50.6118 1105.38 50.7419 1102.65 50.2248C1101.84 50.4441 1101.02 50.6632 1100.2 50.8824C1099.81 50.5152 1099.41 50.148 1099.02 49.7808C1098.41 50.0701 1097.8 50.3593 1097.19 50.6486C1095.8 50.3494 1094.4 50.0501 1093.01 49.7507C1087.3 51.5115 1087.12 49.9386 1085.82 49.9425C1083.41 49.9502 1075.19 51.0217 1073.81 50.9546C1072.44 50.8877 1071.78 50.2406 1070.68 50.1728C1052.42 49.0365 1059.94 50.8111 1056.26 51.0578C1054.27 51.1911 1052.88 50.5804 1051.14 50.6327C1048.15 50.7223 1033.04 51.3784 1032.2 51.2898C1030.94 51.1653 1033.95 48.3676 1029.82 49.0551C1029.65 50.5726 1020.92 48.948 1024.99 51.1085C1021.37 50.8843 1017.75 50.6581 1014.14 50.4294C1014.52 52.2338 1010.09 51.0245 1005.21 51.0609C1003.65 51.0723 1001.64 51.131 999.505 51.193C992.092 51.4044 982.964 51.6422 983.408 50.221C981.742 50.6185 980.086 51.0157 978.436 51.4124C967.176 50.6432 956.09 51.0426 944.907 50.8417C911.678 50.2382 875.806 49.0657 842.797 48.1805C841.225 48.1372 841.46 47.5378 840.32 47.5062C834.264 47.3408 818.715 47.5354 810.326 47.2908C807.638 47.2121 806.31 46.6063 805.444 46.5678C802.512 46.4337 803.235 47.2185 801.904 47.179C799.841 47.1156 788.687 46.2571 784.85 46.1379C782.934 46.078 780.636 46.6674 778.469 46.4526C778.28 46.435 778.636 45.8042 778.476 45.7913C774.458 45.6684 776.869 46.2443 775.504 46.2002C765.603 45.8836 755.329 45.7662 744.639 45.5362C741.913 45.4775 738.05 44.9953 735.756 44.9331C734.891 44.9106 736.444 45.4057 733.447 45.3398C732.418 45.3172 732.07 44.6879 730.901 44.6373C725.87 44.4238 724.33 46.424 720.037 44.7707C714.325 44.7967 706.311 44.9936 698.969 45.1066C695.567 45.1626 692.391 45.1989 689.924 45.1862C688.139 45.1763 687.267 44.8007 685.551 44.7962C684.323 44.7928 682.194 45.3522 680.352 45.3477C678.495 45.3427 675.558 44.7788 671.925 44.7771C668.068 44.7741 663.372 45.0714 662.528 45.0647C661.501 45.0589 661.025 44.3669 659.994 44.3698C656.899 44.3745 648.386 45.006 644.441 45.0592C640.13 45.1146 637.51 44.7675 636.02 44.7668C634.639 44.7692 633.019 45.3429 632.384 45.345C631.413 45.3491 631.195 44.6683 629.968 44.6681C627.964 44.6696 625.891 45.0872 622.858 45.0845C568.237 45.0441 514.693 44.514 461.578 43.8983C455.655 43.8296 452.312 44.2988 443.583 44.0631C440.044 43.967 441.537 43.2686 438.782 43.3957C437.554 43.4531 437.863 44.0054 436.31 44.0289C429.445 44.1304 421.461 43.6026 418.482 43.606C417.302 43.6064 415.951 44.2305 413.532 44.2352C395.531 44.2732 374.177 44.0631 354.791 44.1451C344.53 44.1884 328.987 44.4878 317.188 44.5165C284.609 44.5963 249.584 44.4214 219.88 44.4638C188.38 44.5067 156.663 44.7986 125.326 44.7205C112.018 44.6876 98.8449 44.5897 85.6393 44.3815C97.2376 45.2264 111.166 45.5681 125.325 45.7346C136.425 45.8684 148.143 45.889 158.387 45.9671C225.753 46.4689 297.397 45.6415 366.419 45.7766C390.428 45.8226 420.69 45.8399 446.972 46.2465C448.164 46.2646 450.635 45.788 453.21 45.8446C453.759 45.8577 460.533 46.7516 462.827 46.7657C460.662 45.1984 469.623 46.6113 472.389 46.5802C475.875 46.5393 483.164 45.776 491.338 46.2385C498.746 46.6571 496.698 47.2529 497.107 47.2917C499.722 47.5421 500.641 46.576 502.657 46.4836C510.876 46.1123 553.106 46.8029 564.892 46.8838C567.943 46.9035 568.024 47.5195 568.71 47.5241C570.526 47.5348 573.108 46.9361 575.999 46.951C581.255 46.9793 587.334 47.584 590.203 47.5977C597.038 47.6311 610.208 47.0008 619.203 47.0288C621.74 47.0363 621.58 47.6763 622.724 47.6794C627.71 47.6907 640.914 47.0001 647.085 47.0263C657.285 47.0685 667.65 47.541 678.001 47.3941C678.649 47.6839 679.295 47.9738 679.94 48.2636C680.962 47.9701 681.981 47.6765 682.996 47.3831C688.386 47.4868 693.721 47.5112 698.952 47.4998C711.37 47.4769 723.399 47.2679 735.58 47.404C737.565 47.4252 747.425 48.0624 749.102 48.0814C750.474 48.0944 751.826 47.3994 753.83 47.5233C756.654 47.6959 753.9 49.0167 758.64 48.6785C759.906 48.5871 758.691 47.9975 761.222 47.8434C762.04 47.7899 778.187 47.7302 778.999 47.7814C780.417 47.8648 781.672 49.1159 782.064 49.1471C784.029 49.3094 783.954 48.3596 785.265 48.2885C789.141 48.0748 794 48.7732 794.694 48.7679C802.254 48.685 816.314 48.1168 824.189 48.6824C825.263 48.7606 825.123 49.4653 825.311 49.491C826.56 49.6559 827.359 48.8632 828.544 48.8623C834.865 48.8653 844.735 49.5639 851.159 49.8104C851.894 49.8378 853.413 49.4764 854.726 49.5364C862.197 49.8827 859.73 50.4619 860.163 50.4958C861.165 50.5793 862.866 49.9242 865.575 49.9304C872.358 49.9375 885.54 50.2858 892.866 50.4854C898.309 50.6356 898.268 51.4199 898.617 51.4423C899.397 51.4862 901.532 50.9026 905.152 50.9052C912.141 50.9079 911.295 51.5073 914.181 51.54C914.42 51.5449 914.022 50.9335 917.191 50.9366C923.334 50.9437 937.105 51.8212 943.68 51.9209C946.21 51.9604 946.811 51.3907 949.401 51.4306C953.506 51.4925 962.77 52.2963 963.497 52.3072C963.701 52.3109 964.171 51.6505 965.376 51.6724C966.701 51.6967 968.001 52.0645 968.994 52.08C974.607 52.1726 984.335 51.163 981.598 53.5066C983.423 52.9466 985.233 52.3858 987.038 51.8242C991.238 51.9313 995.323 51.9885 999.494 52.0199C1006.96 52.0751 1014.46 52.0404 1021.99 52.0452C1024.64 52.0476 1026.79 52.5223 1029.02 52.5231C1031.26 52.525 1041.04 51.869 1042.66 51.8682C1045.58 51.8728 1062.15 51.9243 1064.22 51.9895C1068.25 52.1203 1072.13 53.1326 1073.78 52.9501C1075.1 52.8031 1073.89 52.2394 1076.39 52.0976C1080.73 51.8526 1088.1 52.6083 1089.42 52.604C1089.99 52.6024 1088.93 52.1639 1094.23 52.1602C1097.09 52.157 1098.62 52.6419 1099.65 52.6447C1099.98 52.6435 1099.5 51.8675 1105.15 51.9973C1109.05 52.088 1110.71 52.692 1111.12 52.696C1111.74 52.7025 1113.23 52.0713 1115.7 52.1031C1121.46 52.1821 1132.02 52.9484 1137.49 53.019C1138.56 53.033 1138.2 52.2621 1142.43 52.3442C1145.44 52.4031 1144.91 53.0144 1146.05 53.0418C1147.85 53.0839 1150.52 52.3401 1154.48 52.3728C1159.47 52.4218 1196.51 53.241 1198.42 53.4374C1199.71 53.5732 1201.2 53.5821 1201.83 53.9152C1201.29 54.2342 1200.74 54.5532 1200.2 54.8722C1194.54 53.7503 1196.81 55.0309 1195.3 55.1125C1193.14 55.2294 1184.89 55.0602 1182.93 55.3421C1182.22 55.4439 1183.85 56.1269 1180.03 56.4735C1175.93 56.8437 1174.14 55.6284 1172.5 57.2834C1166.7 55.4357 1161.15 57.3785 1167.85 57.911C1171.6 58.2142 1208.36 58.8974 1215.85 58.9904C1221.95 59.0712 1233.34 58.5706 1240.82 58.6877C1245.14 58.7587 1256.09 58.8267 1255.59 59.7082C1256.39 59.7298 1256.84 59.7095 1257.07 59.6626C1257.1 59.6638 1257.19 59.6608 1257.22 59.6618C1257.53 59.5984 1257.44 59.4927 1257.22 59.3769C1257.19 59.3758 1257.1 59.3789 1257.07 59.3776C1256.66 59.1512 1255.75 58.8834 1256.17 58.819C1256.36 58.7907 1256.67 58.7725 1257.07 58.7626C1257.1 58.7638 1257.18 58.7608 1257.21 58.7618C1260.65 58.6585 1270.53 59.0396 1272.53 58.9956C1283.98 58.761 1298.3 57.5899 1309.43 58.5061C1308.92 58.7507 1308.41 58.9954 1307.9 59.2399C1305.34 59.7203 1293.89 59.2728 1292.53 60.4201C1309.41 60.1874 1326.37 59.8871 1343.38 59.3827C1343.03 58.4569 1364.13 57.7296 1365.16 58.0869C1364.81 58.5686 1364.46 59.0503 1364.11 59.5318C1352.07 58.242 1353.25 60.5221 1345.18 59.54C1341.95 59.6201 1342.94 60.3608 1341.33 60.5544C1325.42 62.4386 1341.03 58.9934 1328.84 59.9866C1332.56 61.0182 1322.51 61.6632 1318.08 61.8876C1317.07 61.9451 1303.63 61.8981 1302.12 61.9336C1293.2 62.1775 1277.96 62.9757 1269.13 62.4492C1264.22 62.4479 1261.04 62.8456 1257.25 63.1709C1257.22 63.1697 1257.11 63.1733 1257.08 63.1718C1255.5 63.303 1253.81 63.4194 1251.85 63.4788C1247.09 63.626 1248.47 63.064 1246.2 63.0604C1241.49 63.0512 1239.89 64.757 1236.89 62.3834C1233.71 62.6827 1230.48 62.9816 1227.29 63.2799C1227.29 62.9107 1227.29 62.5416 1227.29 62.1725C1225.26 62.1739 1223.27 62.175 1221.26 62.176C1220.67 62.5441 1220.07 62.9122 1219.48 63.2803C1213.08 62.7788 1215.77 61.8888 1214.57 60.8441C1213.2 60.7726 1211.81 60.7011 1210.42 60.6294C1209.34 61.4318 1208.3 62.2342 1207.23 63.0365C1201.03 62.9709 1194.91 62.9032 1188.75 62.8334C1188.35 62.4652 1187.95 62.0971 1187.55 61.7289C1187.54 62.0968 1187.53 62.4646 1187.51 62.8324C1177.09 62.9 1166.66 62.9613 1156.23 63.0158C1153.46 63.6013 1170.17 64.0788 1171.43 64.1146C1178.45 64.3218 1197.14 63.7426 1197.19 65.0529C1201.52 64.077 1214.76 64.32 1218.83 65.4915C1212.63 65.4234 1206.39 65.3532 1200.17 65.2808C1200.37 65.7205 1200.57 66.1602 1200.77 66.5999C1193.02 64.8241 1191.9 64.9211 1183.93 66.5899C1183.92 66.0003 1183.91 65.4107 1183.91 64.8212C1178.33 66.8668 1168.52 63.3753 1168.25 65.9056C1165.31 65.696 1162.31 65.4858 1159.38 65.2752C1152.99 65.5693 1162.9 67.5442 1137.89 66.7164C1136.17 66.6582 1136.53 66.0145 1133.94 66.0511C1133.2 66.062 1128.9 66.988 1120.72 66.8606C1119.44 66.8403 1119.35 66.2806 1118.02 66.2045C1114.97 66.0246 1108.86 67.1053 1111.64 65.314C1099.51 64.7363 1104.53 66.2367 1100.77 66.8078C1098.26 67.1861 1098.77 66.1218 1096.59 66.353C1093.91 66.639 1095.87 67.7267 1085.12 67.1726C1086.33 67.1064 1087.53 67.04 1088.74 66.9735C1088.14 66.678 1087.53 66.3824 1086.93 66.0868C1080.79 66.7535 1081.37 65.7316 1078.46 67.3565C1074.01 66.5968 1070.14 66.5138 1064.04 66.6039C1052.19 66.7758 1058.24 68.5943 1044.72 66.0983C1042.52 66.4137 1040.35 66.7288 1038.13 67.0429C1034.53 66.3056 1037.45 65.4535 1032.09 65.224C1036.28 67.0034 1024.91 66.2569 1022.99 67.7835C1022.79 67.4122 1022.59 67.0409 1022.39 66.6696C1021.18 66.6565 1019.98 66.6432 1018.78 66.6296C1018.77 66.9256 1018.76 67.2216 1018.76 67.5177C1017.15 67.2778 1015.59 67.0381 1013.96 66.7971C1012.75 67.0762 1011.54 67.3551 1010.33 67.6338C1008.36 66.9906 1006.4 66.3466 1004.41 65.7014C1003.16 65.6428 1001.92 65.584 1000.68 65.5249C1001.07 65.9711 1001.45 66.4172 1001.84 66.8633C1000.99 66.773 1000.14 66.6826 999.293 66.592C998.542 66.5131 997.793 66.4342 997.047 66.3551C998.916 67.1046 997.696 67.9374 992.743 67.8427C988.656 67.7634 993.257 66.3251 984.448 66.8159C983.844 66.8503 982.701 67.9128 974.366 67.9375C964.375 67.9627 969.23 67.2665 967.45 67.2083C967.097 67.1975 964.035 67.6844 961.175 67.7087C959.547 67.7226 957.993 67.2555 957.779 67.2526C956.777 67.2536 956.474 67.867 955.089 67.8628C951.562 67.8485 946.845 67.4523 943.398 67.4141C941.831 67.396 940.345 67.7329 939.65 67.7233C938.567 67.7057 937.205 67.1177 936.108 67.0976C932.056 67.027 925.865 68.7583 924.059 66.1389C920.118 68.4319 912.052 65.395 912.604 66.9989C902.248 66.1791 874.511 67.5934 875.427 64.9403C869.449 67.1166 870.083 65.4723 867.613 65.4616C864.858 65.4495 866.281 65.9189 864.075 65.8594C859.023 65.7225 854.068 65.4463 849.05 65.3538C849.854 65.0006 850.655 64.6474 851.452 64.2942C846.161 64.088 847.877 64.9695 842.503 65.0464C832.506 65.1865 836.69 64.5733 835.228 63.589C835.691 64.5227 823.755 64.1978 822.657 64.0613C821.937 63.9766 825.117 62.826 817.873 63.1081C818.266 63.4815 818.658 63.855 819.05 64.2285C815.666 63.6762 806.877 64.195 805.275 64.0507C804.513 63.9829 800.954 60.9693 797.485 63.2732C797.076 62.9001 796.667 62.5271 796.257 62.1541C792.353 62.5473 788.728 62.9455 784.882 63.3424C784.28 62.6726 783.677 62.0029 783.072 61.3332C781.849 61.3189 780.63 61.3049 779.459 61.2915C780.242 61.8888 780.997 62.4858 781.818 63.0836C774.516 62.7323 765.298 63.5627 763.861 61.5638C762.274 61.9151 760.675 62.2666 759.064 62.6182C758.025 61.9475 756.976 61.2769 755.929 60.6064C748.683 60.7017 748.52 61.1421 743.41 61.798C743.616 61.2846 743.821 60.7712 744.026 60.2579C740.294 60.9467 733.615 61.5607 728.141 61.606C725.652 61.627 721.296 60.8816 720.688 60.9412C720.102 61.0041 713.984 63.7458 713.388 61.3262C706.099 62.1719 702.1 61.5103 698.856 61.2816C698.272 61.239 697.712 61.2116 697.158 61.2119C694.87 61.2141 693.818 61.7866 691.201 61.829C687.471 61.8906 683.556 61.5853 681.46 61.612C680.238 61.6288 680.005 62.1927 679.159 62.2052C675.147 62.2667 677.51 61.7034 673.25 61.7153C672.86 61.7195 669.717 62.3902 666.175 62.2811C664.251 62.2209 659.209 61.4167 658.758 61.4162C656.767 61.4186 658.374 62.9778 651.539 61.15C651.736 61.4458 651.934 61.7417 652.131 62.0375C643.712 62.7406 642.454 61.4205 640.744 61.3207C640.528 61.3121 638.478 61.8099 637.248 61.7338C635.17 61.6038 634.329 60.9041 633.868 60.8712C632.193 60.7564 626.878 61.0369 623.312 60.348C624.071 62.3307 611.534 62.9779 608.852 60.7253C606.658 61.158 604.456 61.5908 602.245 62.0237C601.247 61.6504 600.248 61.2771 599.247 60.9039C598.636 61.2692 598.025 61.6345 597.412 61.9998C594.182 61.1765 591.036 60.3539 587.824 59.5312C587.617 60.3418 587.41 61.1523 587.202 61.9628C586.305 61.867 585.406 61.7712 584.506 61.6754C583.806 61.028 583.105 60.3806 582.403 59.7332C581.275 59.852 580.146 59.9707 579.014 60.0895C578.732 60.555 578.451 61.0205 578.169 61.4859C572.136 62.0014 575.288 57.5627 563.755 61.4335C561.961 61.0594 560.163 60.6853 558.362 60.3112C556.347 62.0946 552.581 60.9978 549.525 61.1889C547.371 61.3238 547.487 62.0354 544.545 62.0416C541.6 62.0476 541.706 61.3679 541.477 61.3627C539.063 61.3132 537.276 61.9073 535.524 61.7823C535.26 61.7637 534.603 60.954 532.369 60.8959C530.134 60.838 528.784 61.6929 525.445 61.521C523.733 61.4338 523.24 60.7518 521.719 60.6871C514.497 60.373 507.241 63.799 501.813 59.697C500.572 60.2114 491.75 62.0009 487.95 61.8872C482.051 61.7059 484.326 60.9098 481.979 60.7572C481.641 60.7342 479.843 61.0005 474.906 60.94C474.022 60.929 474.226 61.3822 474.099 61.3879C468.34 61.3652 457.133 60.9824 450.808 60.9046C450.242 60.8967 447.278 62.1521 442.262 60.4443C434.816 61.6825 420.824 58.9614 410.998 60.8337C409.638 60.8712 407.989 60.4169 407.387 60.4312C402.201 60.562 404.112 61.9353 392.374 59.9094C393.323 60.6099 390.576 61.2362 386.706 61.1767C380.889 61.0875 385.026 59.7909 380.349 59.8901C380.348 60.2579 380.347 60.6258 380.347 60.9936C369.536 59.9874 367.45 61.557 356.61 61.5505C352.71 61.5473 346.978 60.7244 346.055 60.721C345.693 60.7228 341.472 61.6041 341.051 61.6103C338.752 61.6339 337.456 61.2233 335.478 61.2186C328.934 61.2016 321.205 62.3462 322.607 60.2531C320.8 60.6932 318.996 61.1332 317.196 61.5734C310.399 59.3285 305.367 62.4062 303.96 60.232C302.749 60.6793 301.519 61.1266 300.302 61.5739C271.204 61.3163 242.147 61.0658 213.117 60.8202C211.902 61.5184 199.242 61.2625 198.643 61.1535C195.666 60.659 198.812 59.1364 192.669 59.4812C191.99 60.1486 191.312 60.816 190.637 61.4834C183.001 61.6966 186.679 61.0341 183.689 60.5798C182.435 60.6615 182.886 61.1799 181.136 61.2167C171.687 61.4179 152.995 61.4334 142.666 61.471C140.646 61.4789 140.955 60.9947 140.331 60.9931C138.698 60.9969 135.064 61.6057 131.587 61.6045C129.542 61.6032 127.445 61.5988 125.318 61.5915C104.099 61.5215 77.2804 61.1837 57.469 60.7108C56.0084 60.6747 55.8351 60.0968 54.8694 60.0675C53.4574 60.0294 50.2939 60.495 48.8909 60.4456C47.5691 60.4006 46.675 59.9614 45.1672 59.9095C38.5218 59.6669 29.464 60.4043 22.2502 59.1073C21.5972 58.9979 14.1403 56.6685 13.9627 56.5159C12.9931 55.61 19.6683 54.1905 8.64582 52.8607C18.4763 51.7088 15.4412 49.6635 2.65682 48.6591C9.1512 48.4044 15.3921 48.1496 21.8365 47.8948C21.846 47.6526 21.8555 47.4103 21.865 47.1681C16.0138 45.965 10.3684 45.5629 1.41724 45.4479C1.69312 45.2237 2.02551 44.9996 2.27011 44.7754C10.0452 43.6582 19.4939 43.4552 25.4432 41.9288C16.8347 40.7933 7.93228 39.6576 -0.745607 38.5219C-0.522348 38.4336 -0.289829 38.3452 -0.0557156 38.2569C0.145927 38.1685 0.352512 38.0802 0.564142 37.9919C4.8175 37.5344 13.908 37.2688 17.3692 36.842C30.6045 35.2147 5.82105 35.6147 9.84142 34.62C23.8188 34.6622 37.9536 34.7043 51.898 34.7463C52.3494 34.0128 -1.47906 31.9623 -0.988039 29.7473C3.48884 29.6006 7.79283 29.4539 12.2263 29.3072C10.3691 28.7437 8.33477 28.1801 6.33737 27.6166C6.87378 27.4386 7.50063 27.2608 7.98291 27.0828C15.3886 26.6491 22.8461 26.2153 30.2667 25.7815C19.0157 25.9962 10.6261 26.0226 4.60188 25.4412C1.50925 25.1505 -1.02465 24.7078 -3.11537 24.0608C-4.16958 23.7372 -5.1218 23.3626 -5.95288 22.9303C-6.18182 22.8222 -6.36862 22.7105 -6.55647 22.5951C-6.78908 22.4797 -6.97056 22.3606 -7.14208 22.2377C-7.3782 22.1148 -7.48972 21.9881 -7.70869 21.8574C-7.77876 21.7921 -7.89719 21.7258 -7.95824 21.6585C-7.9681 21.6501 -8.0047 21.6415 -7.94214 21.6334C-7.9049 21.6331 -7.98294 21.6291 -7.71925 21.634C-7.66131 21.6373 -7.65715 21.6294 -7.21564 21.6609C-7.07885 21.6736 -6.93502 21.679 -6.47207 21.7488C-6.21822 21.7942 -5.92998 21.8222 -5.13108 22.0568C-4.71017 22.196 -4.17363 22.3358 -3.09241 22.9399C-2.19165 23.6151 0.402309 24.5743 1.66442 29.6003C2.18895 32.0409 1.49768 34.821 0.517039 36.4105C-0.452106 38.0485 -1.44567 38.8558 -2.14807 39.39C-3.58744 40.4106 -4.27091 40.577 -4.79172 40.7807C-5.77828 41.1059 -6.09187 41.1269 -6.38198 41.1843C-6.90212 41.2672 -7.05014 41.2711 -7.19721 41.2855C-7.66655 41.3198 -7.65278 41.3107 -7.73652 41.3152C-7.79488 41.3168 -7.82141 41.3173 -7.84343 41.3178C-7.92054 41.3195 -7.92587 41.3198 -7.94145 41.3205C-7.98229 41.3228 -7.97621 41.3248 -7.98081 41.327C-7.98424 41.3312 -7.97807 41.3354 -7.97036 41.3397C-7.94937 41.3566 -7.93409 41.3736 -7.90949 41.3906C-7.86125 41.4247 -7.82489 41.4591 -7.77914 41.4937C-7.81968 41.5008 -7.85621 41.5078 -7.89495 41.5149C-7.91707 41.5184 -7.93683 41.5219 -7.95234 41.5254C-7.95866 41.5272 -7.97018 41.529 -7.97992 41.5307C-7.98059 41.5316 -7.99176 41.5326 -7.95769 41.5333C-7.93271 41.5332 -7.97502 41.5347 -7.80151 41.5321C-7.7707 41.5315 -7.7351 41.531 -7.64439 41.5279C-7.5965 41.5261 -7.53827 41.5242 -7.41568 41.5172C-7.35254 41.5135 -7.27421 41.5088 -7.14144 41.4975C-6.99968 41.4838 -6.84186 41.4752 -6.39332 41.4051C-6.15332 41.3628 -5.86524 41.3248 -5.19312 41.1348C-4.84557 41.0295 -4.40366 40.9024 -3.63063 40.5359C-2.87435 40.1031 -1.62697 39.7105 0.21345 37.2835C1.09468 36.0633 2.01427 34.0437 2.05759 31.7161C2.13213 29.3838 1.2794 27.2364 0.402432 25.9409C-1.44543 23.3362 -2.76583 22.913 -3.5414 22.4552C-5.09571 21.7332 -5.5133 21.7416 -5.92674 21.6292C-6.64894 21.4848 -6.82584 21.4848 -7.01686 21.4614C-7.18783 21.4448 -7.28107 21.4388 -7.35643 21.4338C-7.62955 21.4174 -7.6705 21.4191 -7.71441 21.4172C-7.86518 21.4132 -7.86768 21.4139 -7.89619 21.4133C-7.96611 21.4123 -7.95638 21.412 -7.9666 21.4115C-7.94314 21.3974 -7.81294 21.3834 -7.76502 21.3694C-7.7028 21.3553 -7.61282 21.3413 -7.5277 21.3272C-7.46472 21.3131 -7.39411 21.2991 -7.31521 21.285C-7.13786 21.2569 -7.01136 21.2288 -6.85906 21.2007C-6.71301 21.1726 -6.51277 21.1445 -6.39207 21.1163C-1.51012 23.8906 21.645 23.0043 33.9285 22.4571C31.323 21.644 20.529 22.2665 18.3062 21.7773C17.6475 21.6371 19.936 21.0745 18.4224 20.7854C14.4425 20.0335 -2.2481 19.061 0.203481 18.1433C1.75553 17.5538 28.5766 16.7557 33.931 16.8202C21.566 15.754 8.88247 15.4416 -3.37886 14.1466C4.39784 12.3526 11.2549 10.1559 25.4682 10.0645C29.9403 9.12331 -0.285915 7.80332 -0.966661 7.28806C4.21566 6.73802 9.51377 6.18797 14.6903 5.63786C10.223 5.78327 5.92417 5.92875 1.4465 6.07411C1.43328 5.88954 1.42009 5.70497 1.4069 5.5204C12.8083 4.66893 23.2497 3.10119 36.2937 3.21346C35.9552 2.23685 28.0778 2.3305 24.2911 2.31995ZM1274.43 64.6317C1274.68 65.4389 1269.92 65.357 1267.19 65.368C1267.6 65.5113 1268.01 65.6546 1268.42 65.7979C1265.28 65.7483 1260.95 65.6635 1257.28 65.831C1257.24 65.8297 1257.12 65.8336 1257.08 65.832C1254.01 65.957 1251.48 66.2839 1251.29 67.021C1247.24 67.2225 1249.02 65.8534 1247.7 65.6998C1247.16 65.6385 1241.84 66.4411 1237.51 65.478C1236.51 65.4829 1235.49 65.4878 1234.47 65.4926C1234.27 66.008 1234.08 66.5235 1233.88 67.0389C1232.44 66.4148 1231.01 65.7905 1229.61 65.1661C1238.78 65.091 1247.95 65.0114 1257.08 64.927C1257.12 64.9286 1257.23 64.9247 1257.27 64.926C1263.06 64.8327 1268.69 64.7359 1274.41 64.632C1274.41 64.6319 1274.42 64.6318 1274.43 64.6317ZM1126.08 65.3761C1120.67 65.0675 1112.38 64.5752 1114.05 65.9929C1117.46 65.9323 1120.89 65.8707 1124.31 65.8083C1124.9 65.6643 1125.49 65.5202 1126.08 65.3761ZM588.458 58.2149C583.981 56.808 579.706 57.9932 572.801 57.717C572.809 58.0106 572.817 58.3041 572.825 58.5977C575.635 57.9031 583.254 58.4006 588.458 58.2149ZM1409.19 54.8787C1410.16 54.9392 1411.13 55.0013 1412.11 55.0652C1409.9 56.0686 1408.72 56.1548 1407.27 56.1134L1407.52 56.0988C1406.39 56.0829 1405.13 55.9942 1403.16 56.1836C1402.88 56.2106 1403 56.565 1402.9 56.5733C1401.77 56.6682 1400.72 56.2977 1399.7 56.3674C1397.74 56.5012 1396.17 57.0394 1392.69 57.2295C1389.99 57.3741 1389.93 56.6829 1388.98 56.7551C1388.18 56.8206 1380.26 59.1715 1375.05 58.5972C1366.18 57.6603 1398.64 55.5355 1407.45 54.9367L1407.21 54.9506C1408.2 54.9029 1408.89 54.8785 1409.19 54.8787ZM1437.59 55.1117C1436.63 55.1492 1435.67 55.1864 1434.72 55.2236C1437.55 54.0673 1431.76 54.414 1427.52 54.5807C1427.61 53.554 1436.61 53.695 1440.66 53.2629C1439.62 53.8795 1438.6 54.4956 1437.59 55.1117ZM1316.03 57.8355C1319.85 57.6574 1319.22 58.9429 1319.08 59.3257C1317.89 59.3496 1316.61 59.3744 1315.46 59.3964C1315.65 58.8761 1315.84 58.3558 1316.03 57.8355ZM1344.48 56.703C1343.34 57.6071 1335.13 58.218 1331.21 58.38C1331.04 58.3841 1332.1 57.8841 1329.36 57.9936C1328.52 58.0306 1320.44 59.9349 1322.18 57.9349C1329.61 57.5564 1337.05 57.1504 1344.47 56.7033C1344.47 56.7032 1344.48 56.7031 1344.48 56.703ZM1352.81 56.9432C1351.3 57.268 1349.69 57.5937 1348.19 57.9141C1347.38 57.5337 1346.56 57.1531 1345.74 56.7721C1347.53 56.614 1349.24 56.4561 1351.03 56.2927C1351.63 56.5097 1352.22 56.7266 1352.81 56.9432ZM196.494 50.659C196.857 51.0937 197.22 51.5284 197.583 51.9631C198.954 52.2302 205.623 50.3423 203.511 49.9749C201.154 50.2029 198.904 50.4309 196.494 50.659ZM168.074 49.7323C166.731 49.5125 165.254 49.2926 163.845 49.0727C162.213 49.8089 160.592 50.5451 158.985 51.2813C166.063 51.7817 173.412 52.3581 172.229 50.1843C173.82 50.1851 175.422 50.1859 177.034 50.1868C175.681 51.0846 175.845 51.3808 180.09 51.9533C181.078 50.7035 185.288 51.3427 190.255 51.0706C186.612 50.9955 183.196 50.9206 179.468 50.8456C179.468 50.6251 179.469 50.4047 179.469 50.1842C187.617 50.2682 177.443 48.8644 172.251 49.7383C171.841 49.4446 171.432 49.1508 171.023 48.8571C170.036 49.1489 169.053 49.4406 168.074 49.7323ZM748.983 51.9063C747.988 51.6751 746.989 51.4439 745.984 51.2128C742.043 54.0643 750.073 51.3985 755.505 53.7384C753.632 51.9833 762.284 52.1425 762.744 52.0312C761.77 51.4367 760.791 50.8422 759.808 50.2477C756.094 50.7983 752.616 51.3525 748.983 51.9063ZM720.79 49.6678C724.21 51.1348 707.318 51.0901 701.554 50.7338C700.85 50.6896 699.869 50.464 698.933 50.262C698.041 50.0616 697.194 49.8845 696.703 49.9308C696.104 50.2189 695.503 50.5071 694.901 50.7952C694.277 49.7804 682.916 50.8408 678.69 51.3589C678.283 50.9885 677.875 50.6181 677.467 50.2478C675.879 50.3841 674.283 50.5205 672.679 50.657C672.882 50.2917 673.086 49.9263 673.289 49.561C672.075 49.9946 670.857 50.4282 669.634 50.862C664.832 51.3243 667.783 49.3431 664.251 49.9463C660.328 50.6164 666.742 51.843 666.612 52.6169C669.892 52.4359 677.222 52.033 680.43 52.0311C682.303 52.0311 680.086 53.404 688.276 51.8622C690.054 52.2455 691.821 52.629 693.577 53.0126C695.369 52.6968 697.151 52.3811 698.92 52.0655C700.398 51.8129 701.867 51.5603 703.326 51.3079C703.934 51.8262 704.539 52.3446 705.143 52.8629C705.511 52.9457 712.966 51.8343 712.558 51.4454C715.529 52.4504 721.974 52.6757 728.383 52.7794C729.001 52.5052 729.671 52.2314 730.312 51.9574C723.943 52.5073 728.29 51.6448 726.412 51.0941C725.341 50.7767 722.02 50.1437 720.79 49.6678ZM240.808 49.562C230.11 50.8078 236.869 49.7782 225.183 49.7698C225.993 50.4343 226.805 51.0988 227.618 51.7633C233.385 50.5542 242.594 51.3679 240.819 49.562C240.816 49.562 240.812 49.562 240.808 49.562ZM127.75 51.7055C133.807 51.3065 130.711 50.2727 138.602 49.9454C138.605 49.9454 138.609 49.9454 138.613 49.9454C134.507 49.8693 130.468 49.7932 126.561 49.7171C126.956 50.3799 127.352 51.0427 127.75 51.7055ZM485.207 51.3331C491.072 51.6364 489.92 51.1169 495.231 52.1624C503.137 50.9315 496.447 51.0908 496.45 49.9546C494.642 50.2831 492.833 50.6117 491.023 50.9403C486.637 49.8665 490.8 49.3422 490.8 49.2402C490.797 49.2402 490.793 49.2401 490.789 49.2401C490.79 48.8991 490.933 48.8276 489.25 48.6171C487.903 49.5224 486.555 50.4278 485.207 51.3331ZM510.304 49.9959C508.291 50.7449 507.387 51.711 512.666 52.2096C512.67 52.2096 512.673 52.2096 512.677 52.2096C513.109 50.5245 518.15 51.8999 520.464 51.7936C521.073 51.612 521.682 51.4305 522.29 51.249C518.263 50.8309 514.31 50.4133 510.304 49.9959ZM598.692 48.7471C598.706 50.6101 594.24 50.7688 600.516 52.5114C601.733 52.4831 602.949 52.4549 604.162 52.4267C604.96 52.0212 605.757 51.6157 606.553 51.2103C621.855 54.6486 626.436 48.9269 600.522 50.9618C600.518 50.9631 600.515 50.9643 600.511 50.9656C599.905 50.2261 599.299 49.4866 598.692 48.7471ZM571.633 48.7998C571.435 49.777 571.237 50.7542 571.039 51.7314C567.669 49.3601 563.244 51.5951 556.59 49.908C555.99 50.2033 555.39 50.4986 554.789 50.7939C552.336 50.1301 527.864 49.8644 533.165 51.3855C535.471 52.0495 540.482 51.173 540.932 51.1945C542.407 51.273 544.327 52.1193 546.808 52.0786C548.243 52.0539 551.266 51.0763 554.178 51.0879C560.688 51.1141 572.628 53.8077 581.237 51.331C581.857 51.6282 582.478 51.9254 583.097 52.2225C589.485 52.0674 587.362 51.125 593.262 52.2625C597.416 47.6328 569.379 52.3993 575.241 48.6554C575.238 48.6554 575.234 48.6554 575.23 48.6553C574.033 48.7035 572.834 48.7516 571.633 48.7998ZM396.018 49.7452C395.632 48.9104 388.231 50.1852 389.973 48.1895C387.558 48.8815 385.146 49.5735 382.736 50.2657C382.754 50.4516 382.772 50.6374 382.79 50.8233C385.184 50.681 387.581 50.5387 389.98 50.3966C389.989 50.6914 389.998 50.9862 390.007 51.281C393.585 50.2201 408.515 50.7106 408.054 51.754C408.852 51.3145 409.65 50.875 410.448 50.4356C417.587 51.649 423.733 50.384 431.505 51.5711C432.108 51.207 432.711 50.8429 433.314 50.4789C433.705 50.7744 434.097 51.07 434.489 51.3656C437.322 51.4084 440.155 51.4514 442.988 51.4944C452.222 50.3267 434.287 48.7526 432.112 48.9231C431.823 48.9469 431.866 49.7102 430.06 49.8265C426.859 50.0302 408.893 49.2368 403.355 49.7309C403.308 49.2245 403.261 48.7182 403.214 48.2118C400.825 48.7229 398.418 49.234 396.018 49.7452ZM632.956 50.8924C633.363 51.4097 633.77 51.9269 634.177 52.4442C641.237 51.9641 645.581 52.4369 643.813 50.7237C643.809 50.7237 643.805 50.7237 643.802 50.7237C640.216 50.7796 636.6 50.8358 632.956 50.8924ZM1152.61 57.2597C1152.43 56.2351 1149.1 55.8451 1144.76 56.5683C1144.96 56.8662 1145.17 57.1641 1145.38 57.462C1147.66 56.5953 1150.43 58.1228 1157.41 57.9349C1157.41 57.4197 1157.41 56.9044 1157.41 56.3892C1155.82 56.6796 1154.2 56.9697 1152.61 57.2597ZM626.961 50.6407C624.849 50.0231 618.846 51.8386 622.788 51.9478C625.798 52.0304 628.095 50.9723 626.961 50.6407ZM103.7 50.6992C105.248 50.8075 106.818 50.9159 108.409 51.0242C109.238 50.5862 110.073 50.1483 110.914 49.7103C110.911 49.7103 110.907 49.7103 110.903 49.7103C108.452 50.0399 106.051 50.3695 103.7 50.6992ZM465.166 51.3698C470.531 51.318 475.882 51.2666 481.239 51.2157C481.293 50.93 481.347 50.6443 481.401 50.3586C476.031 51.3885 473.881 50.2593 472.629 50.1875C472.635 50.1875 472.64 50.1875 472.646 50.1875C468.628 49.9517 464.797 49.7764 460.99 49.4262C462.382 50.0741 463.775 50.7219 465.166 51.3698ZM446.799 49.526C447.697 51.5475 448.878 51.7849 457.111 50.3827C456.785 50.1333 456.46 49.884 456.135 49.6346C451.87 49.7738 449.38 50.2348 450.132 49.1832C449.021 49.2975 447.91 49.4117 446.799 49.526ZM530.73 50.386C529.749 49.74 521.89 50.3623 522.314 50.6877C522.489 50.8168 532.655 51.6523 530.73 50.386ZM1212.21 56.8725C1210.37 56.7254 1208.59 56.5781 1206.78 56.4306C1209.17 56.2115 1211.59 55.9922 1214 55.7725C1213.4 56.1392 1212.81 56.5059 1212.21 56.8725ZM1232.04 53.9903C1233.33 54.2464 1229.15 56.0663 1236.86 56.5273C1231.25 56.5716 1225.6 56.6141 1220.04 56.655C1222.68 56.3603 1225.27 56.0653 1227.93 55.7699C1227.47 55.2486 1227.01 54.7273 1226.55 54.2059C1228.4 54.1342 1230.21 54.0623 1232.04 53.9903ZM1238.06 55.3148C1235.03 53.9388 1250.98 53.8154 1252.44 53.9804C1252.78 54.02 1254.35 55.0636 1254.93 55.2875C1252.53 55.2929 1250.11 55.298 1247.72 55.3027C1248.53 55.6309 1249.33 55.9591 1250.12 56.2873C1247.36 56.4043 1244.47 56.5211 1241.7 56.6372C1242.91 56.3051 1244.07 55.9729 1245.28 55.6406C1242.9 55.5323 1240.5 55.4237 1238.06 55.3148ZM1174.27 55.6438C1176.29 55.681 1178.26 55.718 1180.3 55.7547C1179.89 55.239 1179.49 54.7234 1179.08 54.2077C1177.87 54.2063 1176.69 54.205 1175.49 54.2035C1175.08 54.6836 1174.67 55.1637 1174.27 55.6438ZM1215.24 54.9994C1212.33 57.481 1204.29 52.0581 1213.66 54.0654C1214.6 54.2693 1215.52 54.7596 1215.24 54.9994ZM1258.51 54.2562C1264.77 52.39 1263.43 56.3965 1257.44 55.2808C1257.13 55.2213 1258.04 54.394 1258.51 54.2562ZM1305.45 53.6277C1305.97 53.6321 1306.9 54.9123 1311.71 53.5971C1312.52 53.7299 1313.33 53.8626 1314.13 53.9951C1312.2 54.6405 1296.24 55.2519 1298.42 53.9335C1300.89 53.8768 1302.94 53.6289 1305.45 53.6277ZM1289.91 49.0729C1287.5 49.1406 1285.09 49.2068 1282.71 49.2713C1283.5 49.6668 1284.3 50.0622 1285.08 50.4575C1283.92 50.5821 1282.74 50.7066 1281.55 50.8309C1279.47 50.1569 1277.52 49.4806 1275.48 48.8044C1280.61 48.6367 1285.91 48.4615 1291.11 48.28C1290.71 48.5443 1290.31 48.8086 1289.91 49.0729ZM1226.05 48.4655C1230.69 48.9707 1236.26 48.4253 1243.8 48.5022C1243.8 48.5035 1243.81 48.5047 1243.81 48.506C1244.18 48.5114 1244.82 49.067 1246.05 49.0875C1246.59 49.0958 1252.07 48.9356 1257.05 48.8967C1257.07 48.8973 1257.11 48.8958 1257.13 48.8963C1262.14 48.8232 1266.54 48.8667 1265.81 49.339C1261.84 49.8085 1259.14 49.7101 1257.13 49.7816C1257.12 49.7811 1257.07 49.7827 1257.05 49.7821C1255.22 49.8371 1254.04 50.0541 1253.12 51.084C1252.73 50.6424 1252.34 50.2009 1251.95 49.7593C1244.45 49.0053 1242.32 50.5381 1238.04 51.1045C1238.06 50.7712 1238.07 50.4379 1238.09 50.1047C1235.34 50.0743 1232.4 50.0438 1229.64 50.0126C1230.04 50.2314 1230.43 50.4503 1230.82 50.6691C1229.84 50.6699 1228.84 50.6707 1227.84 50.6714C1225.4 49.6857 1222.28 49.4573 1226.05 48.4655ZM1300.8 49.4676C1302.94 46.9168 1324.64 48.2737 1334.53 47.4656C1329.36 49.124 1321.3 48.2532 1315.62 48.3443C1304.66 48.517 1312.25 49.3092 1310.4 49.7516C1309.53 49.97 1303.27 48.4544 1300.8 49.4676ZM1209.19 48.9134C1214.67 49.1173 1217.68 48.5343 1222.4 49.4597C1222.01 49.6444 1221.62 49.8292 1221.23 50.0139C1219.58 49.8466 1206.44 49.3155 1209.19 48.9134ZM1349.04 47.7028C1338.5 47.1274 1343.7 49.2524 1338.21 47.6944C1341.78 47.4874 1345.45 47.2683 1349.02 47.0418C1349.03 47.2621 1349.04 47.4824 1349.04 47.7028ZM614.942 41.0765C610.539 40.999 605.622 40.5167 602.957 41.4591C605.974 41.6192 608.974 41.7795 611.959 41.94C612.955 41.6522 613.926 41.3642 614.942 41.0765ZM741.301 32.5663C740.316 32.3286 736.338 32.9678 735.911 32.9642C735.128 32.9573 735.344 32.6269 735.334 32.54C730.179 32.5555 734.935 33.6273 731.1 33.8185C730.337 33.8485 721.661 33.2668 717.946 33.28C712.229 33.2993 706.892 33.1935 704.742 33.1957C703.286 33.1971 701.306 33.3211 699.05 33.4666C695.959 33.6751 692.328 33.9275 688.911 33.9286C686.513 33.928 685.676 33.3036 683.24 33.3036C667.943 33.307 637.628 33.9964 624.016 33.5429C620.651 33.4296 617.417 32.6045 615.616 32.6625C614.18 32.9522 612.812 33.2422 611.409 33.5322C607.125 30.8482 605.672 33.2125 600.995 33.4415C598.02 33.5862 596.623 32.7909 596.222 32.7912C593.603 32.7961 592.312 33.1669 590.249 33.2209C587.934 33.2805 584.593 32.9114 583.759 32.9725C583.25 33.0138 584.869 34.0691 575.834 34.0153C566.714 33.9608 557.552 33.8179 548.256 33.7383C551.363 36.9172 554.048 34.7575 557.84 34.6548C558.857 34.6272 558.21 35.1281 559.105 35.109C561.641 35.0577 566.473 34.5804 568.552 34.7078C570.797 34.8451 570.027 36.0084 572.871 35.5886C573.015 35.567 572.562 35.0837 573.231 35.0055C579.901 34.2334 582.229 35.0797 590.709 35.1376C596.314 35.1743 630.728 34.8493 631.796 35.1717C637.949 36.8857 601.876 36.7313 597.578 36.5842C596.086 36.5313 597.653 36.006 596.293 35.8984C595.718 35.8552 590.63 36.8484 585.543 36.913C579.344 36.9907 567.1 36.2542 561.197 36.2583C510.905 36.2948 461.304 35.5644 411.044 35.46C409.973 35.458 408.56 36.0629 405.073 36.0569C339.909 35.9313 272.368 35.3849 206.364 35.6306C192.08 35.6839 177.648 36.2473 163.203 35.7876C161.379 36.2302 159.572 36.6728 157.78 37.1154C162.376 36.765 170.893 37.7723 171.61 37.7874C171.885 37.792 173.613 37.2928 176.445 37.3208C180.426 37.3584 182.244 37.793 182.533 37.7931C183.523 37.795 182.874 37.3335 183.821 37.3362C190.849 37.36 196.68 37.2325 203.101 37.232C210.494 37.2322 214.411 38.0937 219.731 37.1542C220.34 37.5224 220.951 37.8907 221.563 38.2589C225.63 36.6705 249.805 36.8644 259.483 36.9573C262.573 36.9868 262.033 37.6324 263.074 37.6333C263.716 37.6331 263.558 36.7869 271.53 36.9602C275.57 37.0482 276.64 37.6654 278.679 37.6474C279.788 37.6366 279.608 37.0253 281.205 37.0268C290.409 37.0357 297.888 37.2416 306.889 37.3646C309.405 37.3984 309.434 37.9085 309.998 37.9025C312.077 37.882 315.694 37.0222 321.021 37.0307C329.697 37.0451 347.107 37.0705 354.219 37.4999C355.268 37.5635 356.136 38.1767 356.909 38.1689C358.079 38.1549 358.539 37.5171 358.745 37.514C362.66 37.5084 360.31 38.0988 362.915 37.9583C364.318 37.8826 365.782 37.1565 369.052 37.0791C373.372 36.9768 372.522 37.8399 374.329 37.756C374.521 37.7428 374.578 37.1419 376.356 37.1247C383.116 37.064 392.829 36.941 399.223 36.9542C401.06 36.9573 402.41 37.3642 404.96 37.3755C410.093 37.3969 439.322 37.1952 441.718 37.4341C441.971 37.459 439.37 38.3402 443.512 38.3222C444.716 37.9556 445.92 37.589 447.123 37.2224C449.134 37.8175 451.144 38.4127 453.153 39.0079C453.085 36.9661 464.917 36.6772 464.797 38.7647C466.093 38.8522 467.388 38.9398 468.683 39.0274C471.383 37.5914 473.178 38.128 478.384 37.2932C479.195 37.7374 480.001 38.1815 480.815 38.6257C481.021 38.3314 481.227 38.0372 481.432 37.7429C484.216 39.3472 488.785 37.7547 489.338 37.7472C491.469 37.7172 493.066 38.1274 494.065 38.117C497.779 38.0844 505.883 37.5466 510.238 37.8182C510.443 37.8321 510.24 38.5145 511.479 38.6023C513.713 38.7608 513.934 37.7616 516.905 38.9444C517.506 38.6514 518.107 38.3583 518.708 38.0653C519.343 38.2196 519.982 38.374 520.624 38.5284C524.413 38.4612 528.192 38.3943 531.959 38.3277C528.527 39.4734 532.474 40.1311 536.194 39.2328C537.453 38.9282 536.339 38.2209 536.759 38.1156C537.305 37.9726 554.306 38.3862 555.385 38.8453C556.184 38.6263 556.981 38.4073 557.778 38.1882C558.179 38.6331 558.582 39.0779 558.99 39.5228C559.435 39.3693 559.881 39.2157 560.326 39.0622C564.774 39.8584 576.163 38.1082 578.234 38.2578C579.347 38.3375 578.346 40.2238 583.676 40.0511C583.863 39.5327 584.049 39.0143 584.236 38.496C585.455 38.4263 586.671 38.3567 587.886 38.2872C590.166 38.3424 593.462 39.2552 593.565 39.8709C594.274 39.5046 594.983 39.1383 595.691 38.7721C597.619 39.9824 607.877 39.599 611.935 38.8561C613.128 39.2241 614.299 39.592 615.522 39.9602C617.154 39.5266 618.78 39.093 620.402 38.6595C624.15 38.544 620.188 39.2587 620.986 39.3236C622.69 39.4576 631.236 38.2599 630.659 39.7996C631.811 39.809 632.991 39.8186 634.177 39.8282C634.788 39.3903 635.397 38.9524 636.006 38.5145C638.019 40.0447 641.542 39.5252 648.596 40.1168C649.191 39.77 649.777 39.4232 650.392 39.0765C652.626 39.5857 654.847 40.095 657.055 40.6045C657.512 40.0277 657.969 39.4509 658.425 38.8741C659.385 38.7961 660.342 38.7181 661.296 38.6402C663.244 39.9488 666.647 38.566 668.495 39.1121C671.143 39.909 669.012 40.8269 664.253 40.9794C664.495 41.9252 679.107 41.5779 682.283 41.53C682.069 41.3441 681.854 41.1582 681.639 40.9723C678.295 41.0973 674.916 41.2227 671.501 41.3485C668.657 38.9547 677.925 39.6474 682.063 39.3677C682.416 39.3406 684.668 38.4541 688.953 38.5661C690.624 38.6102 697.003 39.9696 698.196 40.0513C698.48 40.0708 698.749 40.0881 699.004 40.1033C707.801 40.614 701.189 38.8398 710.561 40.5099C708.589 39.2324 714.009 40.3217 719.929 40.1248C720.963 40.0909 729.194 39.135 729.808 39.1139C733.387 38.9802 729.501 40.0629 734.645 39.8169C735.262 39.5287 735.879 39.2406 736.493 38.9525C737.678 38.963 738.857 38.9735 740.029 38.984C747.15 41.6644 748.963 39.7563 751.486 39.5331C752.513 39.4432 751.191 40.1128 753.844 39.9944C754.847 39.9506 755.917 39.3932 758.701 39.3812C767.258 39.3442 770.073 41.8051 777.926 39.3634C779.113 39.7434 780.279 40.1232 781.466 40.5035C782.297 40.0734 783.125 39.6434 783.95 39.2134C790.171 40.5624 787.921 39.2295 790.15 39.2717C796.05 39.3816 808.116 39.7898 809.198 40.8574C814.276 38.5091 820.414 41.3228 822.392 41.2574C823.587 40.9812 824.747 40.7047 825.952 40.4289C827.377 40.7448 828.791 41.0608 830.193 41.3768C829.577 38.994 836.694 41.4367 837.461 41.485C838.292 41.5324 849.501 41.0109 853.613 41.0954C857.829 41.1798 864.964 41.9495 865.657 41.9636C866.408 41.9768 873.484 41.4598 879.005 41.5714C883.857 41.6637 912.524 43.1578 910.724 42.0657C908.869 41.7347 906.191 41.4261 903.873 41.2414C896.748 40.6619 854.662 39.3269 843.895 39.0034C822.358 38.3181 799.8 38.0756 778.187 37.6013C776.924 37.5737 776.737 36.9566 775.646 36.9306C774.01 36.8945 769.68 37.4629 768.082 37.4327C762.102 37.3154 754.474 37.1393 751.307 37.0935C743.952 36.9917 739 36.577 733.44 36.4687C731.615 36.4348 723.02 37.1246 716.917 36.7557C715.825 36.5741 714.676 36.3922 713.623 36.2111C716.756 36.0327 724.944 35.5756 728.598 35.5469C734.3 35.5085 737.197 36.0335 739.248 36.0431C740.871 36.0505 749.927 35.566 753.86 35.5917C755.096 35.5994 755.33 36.2467 756.395 36.255C762.366 36.2986 769.813 36.3599 774.974 35.7849C772.93 35.9678 785.709 36.5085 786.43 36.5162C787.587 36.5297 788.851 35.9412 791.178 35.9695C795.643 36.0247 795.18 37.2809 800.823 36.0903C802.218 36.4761 803.56 36.8615 804.977 37.248C805.162 35.5662 822.817 38.0962 827.876 36.1313C827.97 35.8972 805.038 34.9195 803.072 34.8658C791.612 34.5127 774.826 34.7308 763.748 34.3225C760.394 34.1979 749.952 33.0731 749.162 33.0854C747.883 33.1021 749.033 33.6978 748.48 33.7134C737.045 34.0416 742.828 32.9206 741.301 32.5663ZM1238.04 47.3478C1234.67 47.2822 1231.17 47.2162 1227.78 47.1493C1228.03 46.78 1228.28 46.4107 1228.53 46.0414C1230.1 46.1838 1231.62 46.3261 1233.23 46.4682C1234.45 46.2466 1235.65 46.025 1236.85 45.8033C1237.25 46.3182 1237.64 46.833 1238.04 47.3478ZM1246.5 45.7916C1249.49 45.6015 1249.61 46.3796 1250.29 46.4167C1252.32 46.5289 1254.16 46.2111 1256.1 46.2187C1253.85 48.0718 1248.95 47.2322 1246.5 45.7916ZM1185.11 45.143C1185.76 45.232 1190.29 47.2266 1195.34 45.3767C1199.18 45.9669 1202.94 46.5562 1206.77 47.1447C1200.27 46.2459 1191.37 47.1754 1188.18 47.1372C1186.97 47.1228 1186.73 46.5116 1185.78 46.5009C1180.27 46.4476 1174.86 47.8251 1174.3 45.8004C1179.5 46.3953 1184.28 45.0336 1185.11 45.143ZM1218.54 45.8701C1219.44 46.2927 1220.33 46.7153 1221.21 47.1378C1217.98 47.1393 1214.83 47.1403 1211.6 47.1407C1212.47 46.7125 1213.34 46.2842 1214.2 45.856C1215.66 45.8608 1217.05 45.8655 1218.54 45.8701ZM972.168 42.941C974.134 42.9805 976.138 43.0199 978.097 43.0579C977.999 42.748 975.736 42.711 974.903 42.4884C974.907 42.4885 974.91 42.4885 974.914 42.4886C973.989 42.2374 974.392 41.8475 972.71 41.6429C972.529 42.0756 972.349 42.5083 972.168 42.941ZM155.411 35.7916C152.741 35.7717 130.643 35.7572 125.329 36.411C124.206 36.5391 123.733 36.6929 124.17 36.8773C124.369 36.9603 124.773 37.0204 125.329 37.0627C128.296 37.3068 136.359 36.9558 139.033 36.9646C142.995 36.9777 154.51 38.1987 155.411 35.7916ZM101.341 35.5485C100.702 36.6684 119.815 36.855 121.702 36.6609C121.3 36.501 120.683 36.1451 120.152 36.0642C117.632 35.677 105.277 35.8564 101.341 35.5485ZM861.717 37.5478C863.211 38.1407 864.774 38.7352 866.31 39.3294C865.916 38.5853 865.521 37.8411 865.125 37.0969C863.969 37.2467 862.837 37.397 861.717 37.5478ZM712.406 36.544C708.031 36.5046 703.573 36.4658 699.029 36.4279C677.825 36.2502 656.651 36.1005 635.467 35.9664C637.744 35.6712 640.009 35.3763 642.263 35.0814C660.915 35.2681 680.57 35.6174 699.036 35.5343C702.548 35.5195 705.967 35.4894 709.285 35.4401C710.33 35.808 711.37 36.176 712.406 36.544ZM1177.88 41.8174C1171.33 41.7988 1165.82 42.3319 1158.68 41.4573C1165.49 40.6357 1168.85 41.9319 1175.49 40.711C1175.49 40.711 1175.5 40.711 1175.5 40.711C1176.3 41.0799 1177.09 41.4487 1177.88 41.8174ZM1031.12 40.8815C1033.14 40.3863 1035.12 39.8901 1037.13 39.3937C1034.71 39.3711 1032.35 39.3481 1029.92 39.3236C1030.32 39.8429 1030.72 40.3622 1031.12 40.8815ZM488.676 32.6854C481.778 33.7921 464.22 31.7152 458.618 33.0562C458.257 33.1441 461.575 33.7224 456.206 34.8157C460.258 34.5983 463.128 34.374 463.432 33.5053C464.637 33.8028 465.842 34.1004 467.047 34.398C469.047 34.1796 471.046 33.9612 473.044 33.7429C472.825 34.6079 472.984 34.5622 476.052 33.977C477.45 34.1995 478.847 34.4221 480.244 34.6446C480.839 34.2795 481.435 33.9144 482.03 33.5493C483.243 34.065 484.455 34.5807 485.668 35.0964C490.397 34.5521 487.52 33.5515 488.676 32.6854ZM512.742 32.9612C511.626 32.7661 479.75 33.3046 494.227 35.0682C497.984 35.0229 501.748 34.9778 505.524 34.9329C502.41 32.066 512.674 34.6504 513.51 34.7129C517.527 35.0034 522.673 34.3386 525.609 34.3826C528.129 34.4212 529.622 34.9385 531.39 34.9307C537.385 34.9044 546.948 34.9166 548.256 33.7383C543.573 33.6983 538.769 33.6703 533.931 33.685C528.803 33.7003 524.215 32.5699 514.565 34.0737C512.176 33.9024 513.03 33.0108 512.742 32.9612ZM1043.14 39.5677C1042.89 40.755 1055.06 40.5721 1055.15 40.1018C1055.17 39.827 1051.21 39.802 1050.65 39.6929C1050.64 39.6929 1050.64 39.6928 1050.64 39.6928C1050.4 39.6453 1051.6 39.2004 1049.74 39.0587C1047.55 39.229 1045.33 39.3986 1043.14 39.5677ZM202.944 33.1599C201.363 32.4917 163.769 32.7112 162.623 33.0304C162.319 33.1189 162.743 33.4115 162.623 33.5802C171.418 32.6438 183.879 33.7637 192.161 33.8418C194.495 33.863 193.799 33.3903 193.931 33.3814C193.937 33.3814 193.942 33.3815 193.948 33.3815C195.304 33.3811 201.223 34.5384 202.944 33.1599ZM446.59 33.5722C448.186 33.7615 449.783 33.9507 451.379 34.14C451.785 33.773 452.191 33.4061 452.597 33.0391C452.594 33.0391 452.59 33.0391 452.586 33.0391C450.588 33.2167 448.589 33.3945 446.59 33.5722ZM391.253 32.2575C391.642 32.517 392.03 32.7766 392.418 33.0361C396.438 33.0786 400.48 33.1214 404.487 33.1643C404.082 33.3097 403.677 33.4551 403.273 33.6005C409.344 34.0017 411.866 33.0965 415.106 33.2333C415.102 33.2333 415.098 33.2333 415.095 33.2333C415.443 33.2492 415.864 33.7894 417.162 33.8101C420.143 33.8576 428.651 34.0747 429.684 33.534C431.865 32.3799 414.719 32.8968 411.519 32.8385C410.074 32.8114 408.337 32.3363 407.459 32.3236C406.497 32.3116 405.185 32.9467 402.843 32.9231C402.168 32.9152 394.538 32.1521 391.253 32.2575ZM320.287 32.931C321.539 33.5161 324.124 32.9554 325.067 33.052C325.293 33.0748 323.534 33.5612 325.666 33.7102C326.269 33.3777 326.873 33.0452 327.478 32.7127C325.081 32.7854 322.716 32.8582 320.287 32.931ZM1063.59 39.1691C1063.23 39.0417 1056.73 39.0392 1056.4 39.1157C1052.48 40.1515 1066 40.1373 1063.59 39.1691ZM1228.43 38.3974C1226.13 37.2366 1245.78 37.7904 1257.03 38.089C1260.86 38.1614 1263.65 38.2134 1264.5 38.1851C1264.38 39.1601 1255.86 38.2597 1260.33 39.5546C1259.5 39.4175 1258.36 39.3267 1257.04 39.2677C1251.85 38.9896 1243.76 39.2185 1241.61 39.0498C1239.93 38.9231 1239.5 38.0831 1239.24 38.0567C1238.26 37.9635 1229.47 38.9428 1228.43 38.3974ZM1293.97 38.5041C1290.59 38.3669 1287.14 38.2272 1283.81 38.0832C1287.78 37.9245 1291.74 37.7622 1295.8 37.5938C1295.19 37.8973 1294.58 38.2007 1293.97 38.5041ZM1298.21 38.0008C1298.11 37.0619 1309.59 37.5986 1312.63 37.3206C1309.2 38.9886 1303.58 37.5712 1298.21 38.0008ZM1106.93 36.9822C1101.64 36.335 1099.35 39.1992 1105.79 37.9769C1105.99 37.9365 1107.15 37.0163 1106.93 36.9822ZM487.05 28.6362C486.144 28.616 474.907 27.6564 474.261 28.1166C472.206 29.5843 479.562 29.0113 482.039 29.5735C486.028 30.4844 480.162 31.2121 489.898 30.6929C489.499 30.9867 489.1 31.2804 488.701 31.5742C494.395 31.6864 492.535 29.6396 493.557 29.3796C493.87 29.3005 497.424 29.4815 498.064 29.3529C506.073 27.7288 487.9 28.6517 487.05 28.6362ZM975.832 35.5013C965.317 34.4525 969.814 35.8034 959.004 35.525C958.64 36.169 974.438 36.0495 975.832 35.5013ZM589.754 30.1275C578.819 30.3394 569.915 29.4593 559.677 30.5622C560.377 32.3158 592.586 30.5896 589.754 30.1275ZM77.2194 27.567C92.5719 28.7013 108.812 29.2947 125.332 29.5886C154.427 30.1082 184.885 29.6916 213.844 29.6792C218.729 29.678 219.191 30.3734 220.967 30.2992C222.132 30.2511 221.928 29.6911 223.48 29.6895C279.644 29.6372 333.239 28.9603 386.972 29.382C390.347 29.4094 406.821 30.6398 410.332 28.8336C412.99 27.463 401.181 28.5143 399.204 28.4988C397.72 28.4874 397.658 27.8409 396.67 27.8369C395.621 27.833 396.486 28.276 395.269 28.2806C390.107 28.303 384.502 28.1214 379.844 28.1518C334.147 28.4423 289.664 28.291 244.23 28.1935C238.703 28.1826 239.85 27.6656 239.57 27.6632C239.566 27.6645 239.563 27.6658 239.559 27.667C210.108 27.5958 176.447 28.739 145.111 28.2812C138.651 28.171 131.718 28.0607 125.333 27.9506C109.883 27.6949 94.6539 27.4392 79.1653 27.1834C78.5118 27.3113 77.8633 27.4391 77.2194 27.567ZM510.341 30.5243C507.606 28.5639 506.97 30.5308 497.126 29.708C496.326 30.0392 495.525 30.3703 494.724 30.7015C499.911 30.6419 505.153 30.583 510.358 30.5244C510.352 30.5244 510.347 30.5244 510.341 30.5243ZM445.288 29.6552C443.624 27.0137 421.613 28.8334 411.682 28.3131C409.859 29.6342 424.288 29.0658 427.681 29.212C429.377 29.2841 438.468 30.6643 445.381 29.9245C445.35 29.8348 445.319 29.745 445.288 29.6552ZM1191.14 34.5235C1189.54 34.5994 1187.92 34.6751 1186.31 34.7507C1190.36 35.0463 1194.31 35.3408 1198.36 35.6345C1191.93 35.4438 1185.58 35.2508 1179.16 35.0553C1180.36 34.5093 1181.55 33.9633 1182.74 33.4171C1185.53 33.7864 1188.34 34.1552 1191.14 34.5235ZM1170.37 34.7827C1181.61 34.5916 1169.85 36.0415 1167.09 35.3852C1165.42 34.992 1169.23 34.8033 1170.37 34.7827ZM1141.25 33.7808C1146.47 32.8347 1157.02 32.791 1153.27 34.7019C1147.64 33.7907 1143.99 34.5292 1135.8 33.9884C1136.99 33.6241 1138.2 33.2597 1139.4 32.8952C1139.4 32.8952 1139.41 32.8952 1139.41 32.8952C1140.02 33.1904 1140.64 33.4856 1141.25 33.7808ZM1175.5 33.6284C1182.83 34.7406 1161.6 34.3345 1168.27 33.6183C1168.56 33.5857 1175.22 33.5861 1175.5 33.6284ZM124.175 25.6035C123.846 25.831 124.398 25.9747 125.334 26.0676C126.873 26.2303 129.555 26.2365 130.748 26.2638C139.001 26.4538 149.434 26.1856 157.796 26.2761C157.163 26.0694 156.531 25.8628 155.901 25.6561C145.713 25.639 135.338 25.6221 125.334 25.6053C124.947 25.6047 124.56 25.6041 124.175 25.6035ZM184.312 26.2934C190.001 26.2965 196.063 26.3 201.742 26.3034C202.278 26.3037 204.806 25.7671 202.927 25.635C196.876 25.8544 190.392 26.0737 184.312 26.2934ZM547.068 26.8747C542.609 26.5089 555.454 24.7512 554.86 26.6776C552.269 26.7431 549.672 26.8088 547.068 26.8747ZM588.568 26.2546C585.775 26.4269 582.972 26.5994 580.158 26.772C580.155 26.5502 580.152 26.3285 580.149 26.1067C582.966 26.1559 585.773 26.2051 588.568 26.2546ZM101.346 25.1513C104.137 25.9113 111.435 25.7977 115.714 25.8151C112.876 25.1619 105.291 25.4791 101.346 25.1513ZM480.243 25.9086C480.609 26.4262 462.877 26.2543 469.019 25.3589C472.764 25.5419 476.506 25.7251 480.243 25.9086ZM444.225 25.0619C448.031 24.9567 450.977 25.1407 450.192 25.9512C448.175 25.9123 446.158 25.8734 444.141 25.8346C444.169 25.577 444.197 25.3195 444.225 25.0619ZM1121.37 32.1723C1114.96 32.222 1108.55 32.2686 1102.14 32.3118C1102.38 32.0912 1102.62 31.8705 1102.86 31.6499C1109.04 31.6067 1115.21 31.5603 1121.39 31.511C1121.39 31.7314 1121.38 31.9518 1121.37 32.1723ZM97.6431 23.1579C93.2345 23.3008 88.8675 23.4438 84.4378 23.5867C88.8712 23.7373 93.2412 23.8879 97.6539 24.0385C97.654 23.7437 97.6541 23.4489 97.6543 23.1541C97.6505 23.1554 97.6468 23.1567 97.6431 23.1579ZM1209.15 29.4496C1189.56 28.4131 1214.58 27.3246 1219.73 28.8397C1219.74 28.8384 1219.74 28.8371 1219.75 28.8358C1220.2 28.9699 1219.24 29.6198 1220 29.8816C1217.98 29.5889 1216.01 29.296 1214.02 29.0029C1212.22 29.3686 1210.34 29.7341 1208.56 30.0994C1207.97 29.9559 1207.37 29.8123 1206.77 29.6687C1207.57 29.5957 1208.36 29.5227 1209.15 29.4496ZM1288.07 28.497C1305.81 28.3724 1287.66 30.2579 1278.86 29.0706C1278.97 28.7735 1286.36 28.5093 1288.07 28.497ZM1241.66 29.2025C1238.82 29.3533 1236.08 29.5036 1233.26 29.6536C1232.9 29.468 1232.54 29.2825 1232.17 29.097C1234.36 28.9105 1236.48 28.7239 1238.61 28.537C1239.63 28.7588 1240.65 28.9807 1241.66 29.2025ZM1149.67 26.2885C1145.16 26.0733 1139.43 28.1271 1153.87 27.6167C1153.86 27.3949 1153.85 27.1732 1153.85 26.9514C1153.27 26.9856 1151.59 27.1899 1151.49 27.1732C1151.23 27.1171 1151.54 26.3774 1149.67 26.2885ZM1320.71 22.1177C1321.21 22.0221 1321.48 19.6809 1326.73 21.9821C1328.34 21.7977 1329.86 21.614 1331.45 21.4268C1331.88 21.9317 1332.3 22.4364 1332.73 22.9411C1326.61 22.6939 1325.94 23.7458 1325.52 23.7788C1323.51 23.9211 1324.99 23.3519 1323.69 23.3733C1320.26 23.4332 1312.58 23.9396 1316.05 22.3422C1317.33 21.7696 1320.23 22.2124 1320.71 22.1177ZM1308.74 21.015C1309.48 21.1975 1307.11 21.9225 1307.67 22.1063C1308.14 22.2688 1315.57 22.8314 1313.58 24.0236C1312.38 23.9973 1311.14 23.9711 1309.92 23.9439C1309.51 23.6345 1309.1 23.3251 1308.69 23.0156C1307.53 23.3279 1306.36 23.64 1305.17 23.9518C1303.18 23.2036 1299 22.2568 1303.94 21.5415C1302.14 21.6373 1300.29 21.7326 1298.42 21.8273C1297.49 22.2154 1296.56 22.6034 1295.61 22.9913C1296.1 22.4138 1296.59 21.8363 1297.07 21.2588C1300.96 21.1825 1304.85 21.1017 1308.74 21.015ZM1365.47 19.6212C1365.27 19.9254 1365.06 20.2296 1364.85 20.5337C1371.51 19.7057 1381.93 18.944 1376.11 21.097C1367.04 21.7125 1357.95 22.2424 1348.86 22.6982C1348.23 22.4972 1347.64 22.2948 1347.03 22.0926C1353.85 22.7201 1351.63 19.1597 1357.55 19.9816C1358.56 20.1182 1355.72 21.5072 1361.93 20.4416C1361.7 20.155 1361.46 19.8683 1361.23 19.5816C1362.65 19.5967 1364.05 19.6102 1365.47 19.6212ZM1423.81 17.0733C1412.08 17.0736 1424.95 15.5228 1427.13 16.3518C1427.12 16.352 1427.12 16.3521 1427.12 16.3522C1433.09 18.5998 1420.37 17.845 1419.58 17.8991C1418.54 17.9623 1416.22 19.7905 1410.44 17.4972C1414.92 17.3252 1419.38 17.1921 1423.81 17.0733ZM1385.61 18.6111C1386.57 18.4989 1386.06 18.9733 1386.47 18.9431C1386.48 18.9429 1386.48 18.9427 1386.49 18.9425C1390.94 18.6234 1399.86 17.8479 1405.1 17.942C1405.14 17.9381 1405.25 17.935 1405.28 17.9315C1407.3 17.989 1408.76 18.1753 1409.23 18.5473C1408.38 18.6092 1407.02 18.7037 1405.33 18.8168C1405.29 18.8201 1405.19 18.8231 1405.15 18.8268C1397.63 19.4314 1383.77 20.3045 1382.72 19.5498C1383.68 19.2377 1384.64 18.9248 1385.61 18.6111ZM1342.43 21.5354C1338.62 20.7188 1347.12 20.3423 1349.36 20.6924C1349.78 20.7714 1346.37 22.3817 1342.43 21.5354ZM1050.51 20.0388C1042.12 20.5282 1053.13 21.1782 1049.32 22.0208C1050.91 21.9597 1052.51 21.8983 1054.11 21.8366C1052.91 21.2375 1051.71 20.6383 1050.51 20.0388ZM668.015 13.0276C666.027 12.9127 666.97 13.452 666.795 13.4589C665.53 13.4366 664.333 12.995 663.844 13.0381C654.771 13.8648 660.8 14.3471 660.893 14.4519C661.082 14.981 658.693 15.5855 661.994 16.2076C664.011 16.0319 665.95 15.8559 668.01 15.6807C669.024 15.9802 670.034 16.2796 671.041 16.5791C675.077 15.9734 669.804 15.7692 669.202 14.9302C668.972 14.6004 672.787 14.2296 668.015 13.0276ZM1035.51 18.1372C1034.14 19.0519 1030.82 20.1896 1034.07 21.1534C1034.07 21.1534 1034.07 21.1534 1034.08 21.1535C1034.68 21.3299 1037.14 21.4471 1037.89 21.6935C1043.33 20.5072 1041.24 19.212 1035.51 18.1372ZM704.247 11.6013C707.522 11.8416 710.751 12.0822 713.937 12.3232C713.878 12.8791 713.82 13.4349 713.761 13.9907C712.056 13.8277 710.338 13.6648 708.608 13.502C707.999 13.7512 707.388 14.0005 706.776 14.2498C708.932 14.9001 711.069 15.5505 713.185 16.2011C715.741 15.9989 718.46 15.7984 721.052 15.5974C719.855 15.2943 718.652 14.9913 717.443 14.6883C723.857 14.4151 722.452 15.7566 727.648 16.3166C729.379 15.8158 731.298 15.3168 733.104 14.8171C735.733 15.3576 738.331 15.8984 740.898 16.4395C745.206 16.2367 745.699 15.8472 742.696 15.2292C744.902 14.5747 747.333 15.6584 749.955 15.4085C750.172 15.3884 749.77 14.7492 749.962 14.7434C763.419 14.4455 762.851 16.1124 764.965 16.2045C766.461 16.2686 772.589 15.2084 772.709 14.826C772.799 14.3103 760.107 12.1291 780.029 12.2968C769.777 10.7679 758.092 12.087 765.606 14.2347C762.362 13.9906 748.013 14.3664 747.072 14.2969C745.725 14.1905 746.208 13.4095 744.51 13.3732C743.44 13.3525 740.979 15.1241 733.115 13.4868C732.104 13.7728 731.089 14.059 730.068 14.3451C729.1 14.0947 728.201 13.8449 727.279 13.595C729.143 12.7466 731.172 11.8999 733.114 11.0527C725.359 11.9246 719.236 10.1127 714.419 11.5617C710.481 11.3586 708.522 11.1733 710.245 10.4265C709.049 10.4175 707.847 10.4086 706.638 10.3998C705.844 10.8003 705.047 11.2008 704.247 11.6013ZM1010.89 19.1966C1006.95 18.2854 1005.46 20.126 1006.09 20.2396C1009.59 20.8641 1012.95 19.6703 1010.89 19.1966ZM675.314 14.0592C679.72 14.5654 684.036 15.0719 688.525 15.5807C688.529 14.9924 688.533 14.4041 688.537 13.8158C684.043 13.8953 679.723 13.9771 675.314 14.0592ZM1051.74 18.7261C1052.14 19.1703 1052.54 19.6144 1052.94 20.0586C1057.79 18.4869 1062.54 20.8321 1064.93 20.3717C1065.45 20.2711 1064.41 19.4853 1063.42 19.3113C1062.81 19.2036 1052.59 18.5854 1051.74 18.7261ZM1252.47 19.4475C1250.6 19.7466 1248.91 20.0453 1247.08 20.3439C1247.18 19.8478 1247.28 19.3516 1247.38 18.8554C1248.27 18.7619 1249.16 18.6683 1250.03 18.5747C1250.82 18.8657 1251.64 19.1566 1252.47 19.4475ZM1232.01 20.2611C1228.86 20.2241 1225.56 20.1866 1222.41 20.1485C1234.64 19.6859 1224.63 19.4706 1232.01 18.8192C1232.01 19.2998 1232.01 19.7805 1232.01 20.2611ZM1199.59 19.2664C1199.98 18.9704 1200.37 18.6745 1200.77 18.3785C1203.95 18.3794 1207.2 18.3797 1210.37 18.3795C1208.35 17.3517 1206.34 16.3237 1204.3 15.2955C1203.12 15.2928 1201.94 15.2899 1200.78 15.2871C1200.38 16.6135 1199.99 17.9399 1199.59 19.2664ZM581.381 10.4079C579.411 10.3826 572.694 11.256 572.981 11.5878C575.766 12.0043 578.558 12.421 581.383 12.8381C581.399 12.2485 581.414 11.659 581.429 11.0695C581.826 11.3645 582.223 11.6595 582.619 11.9545C584.22 11.7402 585.818 11.526 587.412 11.3117C588.213 11.8301 589.013 12.3485 589.812 12.8669C590.619 12.2818 591.425 11.6967 592.23 11.1116C584.568 10.0382 584.807 11.082 583.205 11.0647C582.39 11.0566 581.875 10.6896 581.587 10.5048C581.518 10.4725 581.45 10.4402 581.381 10.4079ZM678.373 10.3251C669.191 10.1222 663.898 11.6445 657.283 10.3098C661.435 13.095 689.182 10.4046 698.728 12.7811C698.884 12.7125 699.04 12.6439 699.196 12.5752C700.067 12.2076 700.935 11.8399 701.799 11.4723C700.891 11.5327 700.026 11.556 699.203 11.5522C695.329 11.5349 692.447 10.867 690.301 10.7436C688.247 10.6257 688.455 11.0919 688.299 11.0842C688.291 11.0841 688.284 11.0841 688.276 11.084C683.416 10.8616 681.967 10.4052 678.373 10.3251ZM1058.58 16.6109C1056.12 15.8919 1051.8 15.9274 1051.75 16.9497C1054.14 17.2651 1056.55 17.58 1058.94 17.8941C1058.45 17.6285 1059 16.7339 1058.58 16.6109ZM1195.85 16.408C1193.91 16.0743 1189.4 16.3631 1191.35 17.2476C1191.71 17.4047 1196.2 16.7862 1193.57 18.3794C1197.98 18.357 1196.96 16.5998 1195.85 16.408ZM835.438 14.0307C837.052 14.0262 838.725 14.023 840.344 14.0193C840.73 13.6127 841.114 13.206 841.498 12.7994C839.502 13.2097 837.444 13.6196 835.438 14.0307ZM1079.38 16.0444C1081.52 18.0772 1085.21 16.1334 1089.24 17.8159C1090.73 17.8368 1092.22 17.8575 1093.71 17.878C1093.72 17.8781 1093.72 17.8781 1093.72 17.8781C1093.77 17.3272 1093.81 16.7763 1093.85 16.2254C1089.02 16.1672 1084.21 16.107 1079.38 16.0444ZM734.322 11.8361C735.324 12.1011 736.322 12.3662 737.315 12.6314C739.091 12.3484 740.851 12.0656 742.598 11.7829C741.656 11.5603 740.711 11.3377 739.761 11.1151C737.963 11.3553 736.15 11.5956 734.322 11.8361ZM1105.6 16.0088C1100.39 15.7321 1098.41 17.4786 1105.09 17.5138C1107.9 17.5264 1111.07 16.2972 1105.6 16.0088ZM481.521 10.7543C483.315 10.9086 485.108 11.0631 486.9 11.2175C487.512 10.8499 488.123 10.4823 488.734 10.1148C486.332 10.3278 483.927 10.541 481.521 10.7543ZM1220.62 16.608C1220.41 16.9772 1220.2 17.3465 1219.99 17.7157C1218.39 17.642 1216.78 17.5682 1215.2 17.4943C1215.6 17.1276 1216 16.761 1216.4 16.3943C1217.77 16.4656 1219.23 16.5369 1220.62 16.608ZM493.577 11.0115C495.007 11.0857 496.436 11.16 497.864 11.2342C498.826 11.0573 499.779 10.8804 500.747 10.7036C499.403 10.5218 498.074 10.3401 496.736 10.1585C495.684 10.4428 494.631 10.7272 493.577 11.0115ZM1155.08 16.3377C1153.06 15.8899 1145.06 17.2543 1152.27 17.6236C1156.87 17.8576 1155.38 16.4058 1155.08 16.3377ZM1165.91 15.9156C1158.23 15.0566 1164 19.3597 1173.12 16.5915C1163.93 16.9597 1166.36 15.9671 1165.91 15.9156ZM1233.18 13.7234C1233.38 13.7254 1233.54 14.3424 1235.08 14.3637C1240.57 14.4385 1247.95 14.6724 1251.86 14.7037C1253.24 14.7145 1255.01 14.6999 1256.99 14.672L1256.82 14.6729C1269.05 14.429 1290.75 13.5659 1293.68 15.047C1294.4 15.412 1292.77 16.5556 1293.06 16.6092C1293.94 16.7586 1298.74 16.1447 1297.86 16.9825C1293.14 17.0462 1288.32 17.1041 1283.58 17.1557C1284.74 16.5596 1285.86 15.9636 1287.06 15.3663C1275.2 15.8236 1279.11 15.7366 1275.72 17.0432C1273.71 16.5745 1271.63 16.1057 1269.67 15.6349C1265.38 16.1592 1261.2 16.6791 1256.85 17.1978L1257 17.197C1256.88 17.2104 1256.77 17.2238 1256.65 17.2372C1256.77 17.1936 1256.88 17.1501 1257 17.1066L1256.85 17.1074C1257.74 16.775 1258.63 16.4425 1259.51 16.11C1258.41 16.0081 1257.54 15.9344 1256.83 15.8866L1256.99 15.8858C1253.53 15.6164 1254.31 16.0496 1251.24 16.8002C1251.23 16.4324 1251.22 16.0646 1251.21 15.6967C1244.9 16.603 1243.58 15.5017 1242.21 15.4902C1239.35 15.4717 1235.67 19.8297 1224.76 15.5062C1220.2 17.5915 1220.28 13.3541 1217.55 15.5095C1209.8 13.1664 1224.59 14.0117 1231.59 14.0824C1231.59 14.0824 1231.6 14.0824 1231.6 14.0824C1232.14 14.0886 1231.29 13.6944 1233.18 13.7234ZM1193.15 15.8875C1197.87 13.9791 1179.24 13.7865 1185.4 16.5511C1186.31 16.6416 1187.23 16.7321 1188.15 16.8225C1189.83 16.511 1191.5 16.1994 1193.16 15.8876C1193.16 15.8876 1193.15 15.8876 1193.15 15.8875ZM1018.15 13.7529C1000.93 14.3329 1010.68 15.5509 1016.55 14.5459C1017.71 14.3463 1018.35 14.0614 1018.15 13.7529ZM665.214 8.77786C664.963 9.00585 664.712 9.23384 664.461 9.46183C670.257 9.27961 681.508 10.234 681.318 8.68619C676.039 8.71581 670.572 8.74583 665.214 8.77786ZM711.122 8.06827C709.903 7.9656 704.816 7.70805 705.423 8.29143C707.634 8.71765 709.825 9.14406 711.995 9.57065C713.017 9.32204 713.992 9.07315 715.048 8.82495C713.599 8.72655 711.464 8.09523 711.122 8.06827Z" fill="#74A5B6"/>
</svg>
